<?xml version="1.0" encoding="utf-8" standalone="no"?>
<!DOCTYPE svg PUBLIC "-//W3C//DTD SVG 1.1//EN"
  "http://www.w3.org/Graphics/SVG/1.1/DTD/svg11.dtd">
<svg height="109.04094pt" version="1.1" viewBox="0 0 240.52032 109.04094" width="240.52032pt" xmlns="http://www.w3.org/2000/svg" xmlns:xlink="http://www.w3.org/1999/xlink">
 <metadata>
  <rdf:RDF xmlns:cc="http://creativecommons.org/ns#" xmlns:dc="http://purl.org/dc/elements/1.1/" xmlns:rdf="http://www.w3.org/1999/02/22-rdf-syntax-ns#">
   <cc:Work>
    <dc:type rdf:resource="http://purl.org/dc/dcmitype/StillImage"/>
    <dc:date>2021-10-01T13:37:37.211808</dc:date>
    <dc:format>image/svg+xml</dc:format>
    <dc:creator>
     <cc:Agent>
      <dc:title>Matplotlib v3.4.2, https://matplotlib.org/</dc:title>
     </cc:Agent>
    </dc:creator>
   </cc:Work>
  </rdf:RDF>
 </metadata>
 <defs>
  <style type="text/css">*{stroke-linecap:butt;stroke-linejoin:round;}</style>
 </defs>
 <g id="figure_1">
  <g id="patch_1">
   <path d="M 0 109.04094 
L 240.52032 109.04094 
L 240.52032 0 
L 0 0 
z
" style="fill:none;"/>
  </g>
  <g id="axes_1">
   <g id="patch_2">
    <path d="M 39.21335 86.26628 
L 133.801423 86.26628 
L 133.801423 0.72 
L 39.21335 0.72 
z
" style="fill:none;"/>
   </g>
   <g id="matplotlib.axis_1">
    <g id="xtick_1">
     <g id="line2d_1">
      <defs>
       <path d="M 0 0 
L 0 2 
" id="m28243e5f07" style="stroke:#000000;stroke-width:0.35;"/>
      </defs>
      <g>
       <use style="stroke:#000000;stroke-width:0.35;" x="39.21335" xlink:href="#m28243e5f07" y="86.26628"/>
      </g>
     </g>
     <g id="text_1">
      <!-- $\mathdefault{0.0}$ -->
      <g transform="translate(33.803005 96.801082)scale(0.08 -0.08)">
       <defs>
        <path d="M 2688 2038 
C 2688 2430 2682 3099 2413 3613 
C 2176 4063 1798 4224 1466 4224 
C 1158 4224 768 4082 525 3620 
C 269 3137 243 2539 243 2038 
C 243 1671 250 1112 448 623 
C 723 -39 1216 -128 1466 -128 
C 1760 -128 2208 -7 2470 604 
C 2662 1048 2688 1568 2688 2038 
z
M 1466 -26 
C 1056 -26 813 328 723 816 
C 653 1196 653 1749 653 2109 
C 653 2604 653 3015 736 3407 
C 858 3954 1216 4121 1466 4121 
C 1728 4121 2067 3947 2189 3420 
C 2272 3054 2278 2623 2278 2109 
C 2278 1691 2278 1176 2202 797 
C 2067 96 1690 -26 1466 -26 
z
" id="CMR17-30" transform="scale(0.015625)"/>
        <path d="M 1178 307 
C 1178 492 1024 620 870 620 
C 685 620 557 467 557 313 
C 557 128 710 0 864 0 
C 1050 0 1178 153 1178 307 
z
" id="CMMI12-3a" transform="scale(0.015625)"/>
       </defs>
       <use transform="scale(0.996264)" xlink:href="#CMR17-30"/>
       <use transform="translate(45.690477 0)scale(0.996264)" xlink:href="#CMMI12-3a"/>
       <use transform="translate(72.787654 0)scale(0.996264)" xlink:href="#CMR17-30"/>
      </g>
     </g>
    </g>
    <g id="xtick_2">
     <g id="line2d_2">
      <g>
       <use style="stroke:#000000;stroke-width:0.35;" x="91.762279" xlink:href="#m28243e5f07" y="86.26628"/>
      </g>
     </g>
     <g id="text_2">
      <!-- $\mathdefault{0.2}$ -->
      <g transform="translate(86.351935 96.801082)scale(0.08 -0.08)">
       <defs>
        <path d="M 2669 990 
L 2554 990 
C 2490 537 2438 460 2413 422 
C 2381 371 1920 371 1830 371 
L 602 371 
C 832 620 1280 1073 1824 1596 
C 2214 1966 2669 2400 2669 3033 
C 2669 3788 2067 4224 1395 4224 
C 691 4224 262 3603 262 3027 
C 262 2777 448 2745 525 2745 
C 589 2745 781 2783 781 3007 
C 781 3206 614 3264 525 3264 
C 486 3264 448 3257 422 3244 
C 544 3788 915 4057 1306 4057 
C 1862 4057 2227 3616 2227 3033 
C 2227 2477 1901 1998 1536 1583 
L 262 147 
L 262 0 
L 2515 0 
L 2669 990 
z
" id="CMR17-32" transform="scale(0.015625)"/>
       </defs>
       <use transform="scale(0.996264)" xlink:href="#CMR17-30"/>
       <use transform="translate(45.690477 0)scale(0.996264)" xlink:href="#CMMI12-3a"/>
       <use transform="translate(72.787654 0)scale(0.996264)" xlink:href="#CMR17-32"/>
      </g>
     </g>
    </g>
    <g id="text_3">
     <!-- $\log (N) / N$ -->
     <g transform="translate(68.717265 106.328412)scale(0.08 -0.08)">
      <defs>
       <path d="M 979 4416 
L 218 4345 
L 218 4179 
C 595 4179 653 4141 653 3835 
L 653 439 
C 653 198 627 166 218 166 
L 218 0 
C 371 12 653 12 813 12 
C 979 12 1261 12 1414 0 
L 1414 166 
C 1005 166 979 191 979 439 
L 979 4416 
z
" id="CMR17-6c" transform="scale(0.015625)"/>
       <path d="M 2758 1356 
C 2758 2176 2163 2816 1466 2816 
C 768 2816 173 2176 173 1356 
C 173 550 768 -64 1466 -64 
C 2163 -64 2758 550 2758 1356 
z
M 1466 51 
C 1165 51 909 230 762 480 
C 602 768 582 1126 582 1408 
C 582 1676 595 2009 762 2297 
C 890 2508 1139 2713 1466 2713 
C 1754 2713 1997 2553 2150 2329 
C 2349 2028 2349 1606 2349 1408 
C 2349 1158 2336 774 2163 467 
C 1984 172 1709 51 1466 51 
z
" id="CMR17-6f" transform="scale(0.015625)"/>
       <path d="M 710 1165 
C 832 1068 1043 960 1299 960 
C 1805 960 2240 1359 2240 1895 
C 2240 2063 2189 2321 1997 2521 
C 2176 2713 2438 2777 2586 2777 
C 2611 2777 2650 2777 2682 2758 
C 2656 2751 2598 2726 2598 2623 
C 2598 2540 2656 2483 2739 2483 
C 2835 2483 2886 2547 2886 2630 
C 2886 2751 2790 2880 2586 2880 
C 2330 2880 2106 2758 1926 2591 
C 1734 2764 1504 2828 1299 2828 
C 794 2828 358 2431 358 1895 
C 358 1527 570 1294 634 1230 
C 442 1004 442 742 442 710 
C 442 544 506 300 723 166 
C 390 82 128 -184 128 -517 
C 128 -996 736 -1344 1466 -1344 
C 2170 -1344 2803 -1009 2803 -510 
C 2803 384 1856 384 1363 384 
C 1216 384 954 384 922 390 
C 723 422 589 601 589 825 
C 589 883 589 1024 710 1165 
z
M 1299 1068 
C 736 1068 736 1766 736 1895 
C 736 2024 736 2719 1299 2719 
C 1862 2719 1862 2024 1862 1895 
C 1862 1766 1862 1068 1299 1068 
z
M 1466 -1236 
C 826 -1236 384 -883 384 -517 
C 384 -311 493 -118 634 -11 
C 794 102 858 102 1293 102 
C 1818 102 2547 102 2547 -517 
C 2547 -883 2106 -1236 1466 -1236 
z
" id="CMR17-67" transform="scale(0.015625)"/>
       <path d="M 1958 -1562 
C 1958 -1556 1958 -1543 1939 -1524 
C 1645 -1223 858 -403 858 1596 
C 858 3595 1632 4408 1946 4729 
C 1946 4735 1958 4748 1958 4767 
C 1958 4787 1939 4800 1914 4800 
C 1843 4800 1299 4325 986 3620 
C 666 2909 576 2218 576 1603 
C 576 1141 621 360 1005 -467 
C 1312 -1133 1837 -1600 1914 -1600 
C 1946 -1600 1958 -1588 1958 -1562 
z
" id="CMR17-28" transform="scale(0.015625)"/>
       <path d="M 4736 3682 
C 4806 3956 4909 4147 5395 4166 
C 5414 4166 5491 4172 5491 4281 
C 5491 4352 5434 4352 5408 4352 
C 5280 4352 4954 4339 4826 4339 
L 4518 4339 
C 4429 4339 4314 4352 4224 4352 
C 4186 4352 4109 4352 4109 4230 
C 4109 4166 4160 4166 4205 4166 
C 4589 4153 4614 4007 4614 3892 
C 4614 3835 4608 3816 4589 3726 
L 3866 854 
L 2496 4243 
C 2451 4345 2445 4352 2304 4352 
L 1523 4352 
C 1395 4352 1338 4352 1338 4230 
C 1338 4166 1382 4166 1504 4166 
C 1536 4166 1914 4166 1914 4109 
C 1914 4096 1901 4045 1894 4026 
L 1043 650 
C 966 338 813 204 390 185 
C 358 185 294 179 294 64 
C 294 0 358 0 378 0 
C 506 0 832 12 960 12 
L 1267 12 
C 1357 12 1466 0 1555 0 
C 1600 0 1670 0 1670 121 
C 1670 179 1606 185 1581 185 
C 1370 191 1165 230 1165 459 
C 1165 510 1178 567 1190 618 
L 2054 4026 
C 2093 3962 2093 3949 2118 3892 
L 3642 115 
C 3674 38 3686 0 3744 0 
C 3808 0 3814 19 3840 128 
L 4736 3682 
z
" id="CMMI12-4e" transform="scale(0.015625)"/>
       <path d="M 1683 1596 
C 1683 2057 1638 2839 1254 3665 
C 947 4332 422 4800 346 4800 
C 326 4800 301 4793 301 4761 
C 301 4748 307 4742 314 4729 
C 621 4408 1402 3595 1402 1603 
C 1402 -396 627 -1210 314 -1530 
C 307 -1543 301 -1549 301 -1562 
C 301 -1594 326 -1600 346 -1600 
C 416 -1600 960 -1127 1274 -422 
C 1594 289 1683 981 1683 1596 
z
" id="CMR17-29" transform="scale(0.015625)"/>
       <path d="M 2746 4563 
C 2746 4569 2784 4665 2784 4678 
C 2784 4755 2720 4800 2669 4800 
C 2637 4800 2579 4800 2528 4659 
L 384 -1364 
C 384 -1370 346 -1466 346 -1479 
C 346 -1556 410 -1600 461 -1600 
C 499 -1600 557 -1594 602 -1460 
L 2746 4563 
z
" id="CMMI12-3d" transform="scale(0.015625)"/>
      </defs>
      <use transform="scale(0.996264)" xlink:href="#CMR17-6c"/>
      <use transform="translate(24.871058 0)scale(0.996264)" xlink:href="#CMR17-6f"/>
      <use transform="translate(70.561536 0)scale(0.996264)" xlink:href="#CMR17-67"/>
      <use transform="translate(117.553179 0.003177)scale(0.996264)" xlink:href="#CMR17-28"/>
      <use transform="translate(152.833947 0)scale(0.996264)" xlink:href="#CMMI12-4e"/>
      <use transform="translate(241.355719 0.003177)scale(0.996264)" xlink:href="#CMR17-29"/>
      <use transform="translate(276.636487 0)scale(0.996264)" xlink:href="#CMMI12-3d"/>
      <use transform="translate(319.99197 0)scale(0.996264)" xlink:href="#CMMI12-4e"/>
     </g>
    </g>
   </g>
   <g id="matplotlib.axis_2">
    <g id="ytick_1">
     <g id="line2d_3">
      <defs>
       <path d="M 0 0 
L -2 0 
" id="m3d602d2abb" style="stroke:#000000;stroke-width:0.35;"/>
      </defs>
      <g>
       <use style="stroke:#000000;stroke-width:0.35;" x="39.21335" xlink:href="#m3d602d2abb" y="83.525299"/>
      </g>
     </g>
     <g id="text_4">
      <!-- $\mathdefault{0.0000}$ -->
      <g transform="translate(10.690112 86.2927)scale(0.08 -0.08)">
       <use transform="scale(0.996264)" xlink:href="#CMR17-30"/>
       <use transform="translate(45.690477 0)scale(0.996264)" xlink:href="#CMMI12-3a"/>
       <use transform="translate(72.787654 0)scale(0.996264)" xlink:href="#CMR17-30"/>
       <use transform="translate(118.478131 0)scale(0.996264)" xlink:href="#CMR17-30"/>
       <use transform="translate(164.168608 0)scale(0.996264)" xlink:href="#CMR17-30"/>
       <use transform="translate(209.859086 0)scale(0.996264)" xlink:href="#CMR17-30"/>
      </g>
     </g>
    </g>
    <g id="ytick_2">
     <g id="line2d_4">
      <g>
       <use style="stroke:#000000;stroke-width:0.35;" x="39.21335" xlink:href="#m3d602d2abb" y="64.552636"/>
      </g>
     </g>
     <g id="text_5">
      <!-- $\mathdefault{0.0025}$ -->
      <g transform="translate(10.690112 67.320036)scale(0.08 -0.08)">
       <defs>
        <path d="M 730 3750 
C 794 3724 1056 3641 1325 3641 
C 1920 3641 2246 3961 2432 4140 
C 2432 4191 2432 4224 2394 4224 
C 2387 4224 2374 4224 2323 4198 
C 2099 4102 1837 4032 1517 4032 
C 1325 4032 1037 4055 723 4191 
C 653 4224 640 4224 634 4224 
C 602 4224 595 4217 595 4090 
L 595 2231 
C 595 2113 595 2080 659 2080 
C 691 2080 704 2093 736 2139 
C 941 2435 1222 2560 1542 2560 
C 1766 2560 2246 2415 2246 1293 
C 2246 1087 2246 716 2054 422 
C 1894 159 1645 25 1370 25 
C 947 25 518 319 403 812 
C 429 806 480 793 506 793 
C 589 793 749 838 749 1036 
C 749 1209 627 1280 506 1280 
C 358 1280 262 1190 262 1011 
C 262 454 704 -128 1382 -128 
C 2042 -128 2669 441 2669 1267 
C 2669 2054 2170 2662 1549 2662 
C 1222 2662 947 2540 730 2304 
L 730 3750 
z
" id="CMR17-35" transform="scale(0.015625)"/>
       </defs>
       <use transform="scale(0.996264)" xlink:href="#CMR17-30"/>
       <use transform="translate(45.690477 0)scale(0.996264)" xlink:href="#CMMI12-3a"/>
       <use transform="translate(72.787654 0)scale(0.996264)" xlink:href="#CMR17-30"/>
       <use transform="translate(118.478131 0)scale(0.996264)" xlink:href="#CMR17-30"/>
       <use transform="translate(164.168608 0)scale(0.996264)" xlink:href="#CMR17-32"/>
       <use transform="translate(209.859086 0)scale(0.996264)" xlink:href="#CMR17-35"/>
      </g>
     </g>
    </g>
    <g id="ytick_3">
     <g id="line2d_5">
      <g>
       <use style="stroke:#000000;stroke-width:0.35;" x="39.21335" xlink:href="#m3d602d2abb" y="45.579972"/>
      </g>
     </g>
     <g id="text_6">
      <!-- $\mathdefault{0.0050}$ -->
      <g transform="translate(10.690112 48.347373)scale(0.08 -0.08)">
       <use transform="scale(0.996264)" xlink:href="#CMR17-30"/>
       <use transform="translate(45.690477 0)scale(0.996264)" xlink:href="#CMMI12-3a"/>
       <use transform="translate(72.787654 0)scale(0.996264)" xlink:href="#CMR17-30"/>
       <use transform="translate(118.478131 0)scale(0.996264)" xlink:href="#CMR17-30"/>
       <use transform="translate(164.168608 0)scale(0.996264)" xlink:href="#CMR17-35"/>
       <use transform="translate(209.859086 0)scale(0.996264)" xlink:href="#CMR17-30"/>
      </g>
     </g>
    </g>
    <g id="ytick_4">
     <g id="line2d_6">
      <g>
       <use style="stroke:#000000;stroke-width:0.35;" x="39.21335" xlink:href="#m3d602d2abb" y="26.607309"/>
      </g>
     </g>
     <g id="text_7">
      <!-- $\mathdefault{0.0075}$ -->
      <g transform="translate(10.690112 29.37471)scale(0.08 -0.08)">
       <defs>
        <path d="M 2886 3955 
L 2886 4096 
L 1382 4096 
C 634 4096 621 4166 595 4288 
L 480 4288 
L 294 3104 
L 410 3104 
C 429 3226 474 3552 550 3673 
C 589 3724 1062 3724 1171 3724 
L 2579 3724 
L 1869 2670 
C 1395 1961 1069 1003 1069 166 
C 1069 89 1069 -128 1299 -128 
C 1530 -128 1530 89 1530 172 
L 1530 466 
C 1530 1514 1709 2204 2003 2644 
L 2886 3955 
z
" id="CMR17-37" transform="scale(0.015625)"/>
       </defs>
       <use transform="scale(0.996264)" xlink:href="#CMR17-30"/>
       <use transform="translate(45.690477 0)scale(0.996264)" xlink:href="#CMMI12-3a"/>
       <use transform="translate(72.787654 0)scale(0.996264)" xlink:href="#CMR17-30"/>
       <use transform="translate(118.478131 0)scale(0.996264)" xlink:href="#CMR17-30"/>
       <use transform="translate(164.168608 0)scale(0.996264)" xlink:href="#CMR17-37"/>
       <use transform="translate(209.859086 0)scale(0.996264)" xlink:href="#CMR17-35"/>
      </g>
     </g>
    </g>
    <g id="ytick_5">
     <g id="line2d_7">
      <g>
       <use style="stroke:#000000;stroke-width:0.35;" x="39.21335" xlink:href="#m3d602d2abb" y="7.634646"/>
      </g>
     </g>
     <g id="text_8">
      <!-- $\mathdefault{0.0100}$ -->
      <g transform="translate(10.690112 10.402047)scale(0.08 -0.08)">
       <defs>
        <path d="M 1702 4083 
C 1702 4217 1696 4224 1606 4224 
C 1357 3927 979 3833 621 3820 
C 602 3820 570 3820 563 3808 
C 557 3795 557 3782 557 3648 
C 755 3648 1088 3686 1344 3839 
L 1344 467 
C 1344 243 1331 166 781 166 
L 589 166 
L 589 0 
C 896 6 1216 12 1523 12 
C 1830 12 2150 6 2458 0 
L 2458 166 
L 2266 166 
C 1715 166 1702 236 1702 467 
L 1702 4083 
z
" id="CMR17-31" transform="scale(0.015625)"/>
       </defs>
       <use transform="scale(0.996264)" xlink:href="#CMR17-30"/>
       <use transform="translate(45.690477 0)scale(0.996264)" xlink:href="#CMMI12-3a"/>
       <use transform="translate(72.787654 0)scale(0.996264)" xlink:href="#CMR17-30"/>
       <use transform="translate(118.478131 0)scale(0.996264)" xlink:href="#CMR17-31"/>
       <use transform="translate(164.168608 0)scale(0.996264)" xlink:href="#CMR17-30"/>
       <use transform="translate(209.859086 0)scale(0.996264)" xlink:href="#CMR17-30"/>
      </g>
     </g>
    </g>
    <g id="text_9">
     <!-- $\Delta S(t\to\infty)/n$ -->
     <g transform="translate(6.697584 70.148645)rotate(-90)scale(0.08 -0.08)">
      <defs>
       <path d="M 2598 4435 
C 2547 4544 2522 4544 2470 4544 
C 2394 4544 2387 4531 2342 4441 
L 269 108 
C 262 96 237 38 237 32 
C 237 6 243 0 358 0 
L 4576 0 
C 4691 0 4698 6 4698 32 
C 4698 38 4672 96 4666 108 
L 2598 4435 
z
M 2310 4056 
L 4083 358 
L 531 358 
L 2310 4056 
z
" id="CMR17-1" transform="scale(0.015625)"/>
       <path d="M 4064 4422 
C 4064 4480 4019 4480 4006 4480 
C 3981 4480 3974 4473 3898 4377 
C 3859 4332 3597 4002 3590 3996 
C 3379 4409 2957 4480 2688 4480 
C 1875 4480 1139 3742 1139 3024 
C 1139 2547 1427 2268 1741 2160 
C 1811 2134 2189 2033 2381 1988 
C 2707 1899 2790 1874 2925 1734 
C 2950 1702 3078 1556 3078 1258 
C 3078 667 2528 57 1888 57 
C 1363 57 781 279 781 991 
C 781 1112 806 1264 826 1328 
C 826 1347 832 1378 832 1391 
C 832 1417 819 1448 768 1448 
C 710 1448 704 1436 678 1328 
L 352 25 
C 352 19 326 -64 326 -71 
C 326 -128 378 -128 390 -128 
C 416 -128 422 -122 499 -26 
L 794 356 
C 947 127 1280 -128 1875 -128 
C 2701 -128 3456 667 3456 1461 
C 3456 1728 3392 1963 3149 2198 
C 3014 2331 2899 2363 2310 2516 
C 1882 2630 1824 2649 1709 2751 
C 1600 2859 1517 3011 1517 3227 
C 1517 3761 2061 4307 2669 4307 
C 3296 4307 3590 3926 3590 3322 
C 3590 3157 3558 2986 3558 2960 
C 3558 2903 3610 2903 3629 2903 
C 3686 2903 3693 2922 3718 3024 
L 4064 4422 
z
" id="CMMI12-53" transform="scale(0.015625)"/>
       <path d="M 1286 2566 
L 1875 2566 
C 1997 2566 2061 2566 2061 2681 
C 2061 2752 2022 2752 1894 2752 
L 1331 2752 
L 1568 3664 
C 1594 3752 1594 3764 1594 3808 
C 1594 3910 1510 3968 1427 3968 
C 1376 3968 1229 3948 1178 3746 
L 928 2752 
L 326 2752 
C 198 2752 141 2752 141 2630 
C 141 2566 186 2566 307 2566 
L 877 2566 
L 454 881 
C 403 657 384 593 384 510 
C 384 210 595 -64 954 -64 
C 1600 -64 1946 868 1946 913 
C 1946 951 1920 970 1882 970 
C 1869 970 1843 970 1830 944 
C 1824 938 1818 932 1773 830 
C 1638 510 1344 64 973 64 
C 781 64 768 223 768 364 
C 768 370 768 491 787 568 
L 1286 2566 
z
" id="CMMI12-74" transform="scale(0.015625)"/>
       <path d="M 5338 1472 
C 4986 1203 4813 940 4762 857 
C 4474 415 4422 12 4422 6 
C 4422 -71 4499 -71 4550 -71 
C 4659 -71 4666 -58 4691 57 
C 4838 684 5216 1222 5939 1516 
C 6016 1542 6035 1555 6035 1600 
C 6035 1644 5997 1664 5984 1670 
C 5702 1779 4928 2099 4685 3174 
C 4666 3251 4659 3270 4550 3270 
C 4499 3270 4422 3270 4422 3193 
C 4422 3180 4480 2777 4749 2348 
C 4877 2156 5062 1932 5338 1728 
L 582 1728 
C 467 1728 352 1728 352 1600 
C 352 1472 467 1472 582 1472 
L 5338 1472 
z
" id="CMSY10-21" transform="scale(0.015625)"/>
       <path d="M 3251 1736 
C 2906 2170 2829 2266 2630 2426 
C 2272 2713 1914 2828 1587 2828 
C 838 2828 352 2126 352 1379 
C 352 645 826 -64 1562 -64 
C 2298 -64 2829 517 3142 1028 
C 3488 594 3565 498 3763 338 
C 4122 51 4480 -64 4806 -64 
C 5555 -64 6042 638 6042 1385 
C 6042 2119 5568 2828 4832 2828 
C 4096 2828 3565 2247 3251 1736 
z
M 3418 1519 
C 3680 1979 4154 2624 4877 2624 
C 5555 2624 5901 1960 5901 1385 
C 5901 760 5472 242 4909 242 
C 4538 242 4250 511 4115 645 
C 3955 817 3808 1015 3418 1519 
z
M 2976 1245 
C 2714 785 2240 140 1517 140 
C 838 140 493 804 493 1379 
C 493 2004 922 2521 1485 2521 
C 1856 2521 2144 2253 2278 2119 
C 2438 1947 2586 1749 2976 1245 
z
" id="CMSY10-31" transform="scale(0.015625)"/>
       <path d="M 1318 1870 
C 1331 1909 1491 2228 1728 2432 
C 1894 2585 2112 2687 2362 2687 
C 2618 2687 2707 2496 2707 2241 
C 2707 1877 2445 1149 2317 804 
C 2259 651 2227 568 2227 453 
C 2227 166 2426 -64 2733 -64 
C 3328 -64 3552 874 3552 913 
C 3552 945 3526 970 3488 970 
C 3430 970 3424 951 3392 842 
C 3245 319 3002 64 2752 64 
C 2688 64 2586 70 2586 274 
C 2586 434 2656 625 2694 715 
C 2822 1066 3091 1781 3091 2145 
C 3091 2528 2867 2816 2381 2816 
C 1811 2816 1510 2413 1395 2253 
C 1376 2617 1114 2816 832 2816 
C 627 2816 486 2694 378 2477 
C 262 2247 173 1864 173 1838 
C 173 1813 198 1781 243 1781 
C 294 1781 301 1787 339 1934 
C 442 2324 557 2687 813 2687 
C 960 2687 1011 2585 1011 2394 
C 1011 2253 947 2004 902 1807 
L 723 1117 
C 698 996 627 708 595 593 
C 550 427 480 127 480 95 
C 480 6 550 -64 646 -64 
C 723 -64 813 -26 864 70 
C 877 102 934 325 966 453 
L 1107 1028 
L 1318 1870 
z
" id="CMMI12-6e" transform="scale(0.015625)"/>
      </defs>
      <use transform="scale(0.996264)" xlink:href="#CMR17-1"/>
      <use transform="translate(76.91959 0)scale(0.996264)" xlink:href="#CMMI12-53"/>
      <use transform="translate(142.714029 0)scale(0.996264)" xlink:href="#CMR17-28"/>
      <use transform="translate(177.994797 0)scale(0.996264)" xlink:href="#CMMI12-74"/>
      <use transform="translate(240.895136 0)scale(0.996264)" xlink:href="#CMSY10-21"/>
      <use transform="translate(368.195819 0)scale(0.996264)" xlink:href="#CMSY10-31"/>
      <use transform="translate(467.822494 0)scale(0.996264)" xlink:href="#CMR17-29"/>
      <use transform="translate(503.103261 0)scale(0.996264)" xlink:href="#CMMI12-3d"/>
      <use transform="translate(551.87818 0)scale(0.996264)" xlink:href="#CMMI12-6e"/>
     </g>
    </g>
   </g>
   <g id="LineCollection_1">
    <path clip-path="url(#p8e608253af)" d="M 130.273705 28.120364 
L 130.273705 24.505593 
" style="fill:none;"/>
   </g>
   <g id="LineCollection_2">
    <path clip-path="url(#p8e608253af)" d="M 123.787589 27.504992 
L 123.787589 24.143814 
" style="fill:none;"/>
   </g>
   <g id="LineCollection_3">
    <path clip-path="url(#p8e608253af)" d="M 117.675885 26.708201 
L 117.675885 23.635817 
" style="fill:none;"/>
   </g>
   <g id="LineCollection_4">
    <path clip-path="url(#p8e608253af)" d="M 112.252989 26.299665 
L 112.252989 23.461449 
" style="fill:none;"/>
   </g>
   <g id="LineCollection_5">
    <path clip-path="url(#p8e608253af)" d="M 107.508617 25.507363 
L 107.508617 22.877496 
" style="fill:none;"/>
   </g>
   <g id="LineCollection_6">
    <path clip-path="url(#p8e608253af)" d="M 103.358794 25.16533 
L 103.358794 22.671231 
" style="fill:none;"/>
   </g>
   <g id="LineCollection_7">
    <path clip-path="url(#p8e608253af)" d="M 99.712541 24.925823 
L 99.712541 22.67903 
" style="fill:none;"/>
   </g>
   <g id="LineCollection_8">
    <path clip-path="url(#p8e608253af)" d="M 96.489181 24.675476 
L 96.489181 22.578067 
" style="fill:none;"/>
   </g>
   <g id="LineCollection_9">
    <path clip-path="url(#p8e608253af)" d="M 93.621343 24.344319 
L 93.621343 22.308292 
" style="fill:none;"/>
   </g>
   <g id="LineCollection_10">
    <path clip-path="url(#p8e608253af)" d="M 91.053866 24.089997 
L 91.053866 22.244605 
" style="fill:none;"/>
   </g>
   <g id="LineCollection_11">
    <path clip-path="url(#p8e608253af)" d="M 130.273705 72.870934 
L 130.273705 72.22972 
" style="fill:none;"/>
   </g>
   <g id="LineCollection_12">
    <path clip-path="url(#p8e608253af)" d="M 123.787589 71.15829 
L 123.787589 70.43039 
" style="fill:none;"/>
   </g>
   <g id="LineCollection_13">
    <path clip-path="url(#p8e608253af)" d="M 117.675885 67.7657 
L 117.675885 66.889314 
" style="fill:none;"/>
   </g>
   <g id="LineCollection_14">
    <path clip-path="url(#p8e608253af)" d="M 112.252989 65.33534 
L 112.252989 64.309248 
" style="fill:none;"/>
   </g>
   <g id="LineCollection_15">
    <path clip-path="url(#p8e608253af)" d="M 107.508617 62.66848 
L 107.508617 61.627072 
" style="fill:none;"/>
   </g>
   <g id="LineCollection_16">
    <path clip-path="url(#p8e608253af)" d="M 103.358794 60.464259 
L 103.358794 59.404391 
" style="fill:none;"/>
   </g>
   <g id="LineCollection_17">
    <path clip-path="url(#p8e608253af)" d="M 99.712541 57.982623 
L 99.712541 56.92941 
" style="fill:none;"/>
   </g>
   <g id="LineCollection_18">
    <path clip-path="url(#p8e608253af)" d="M 96.489181 56.52784 
L 96.489181 55.435628 
" style="fill:none;"/>
   </g>
   <g id="LineCollection_19">
    <path clip-path="url(#p8e608253af)" d="M 93.621343 54.305577 
L 93.621343 53.403485 
" style="fill:none;"/>
   </g>
   <g id="LineCollection_20">
    <path clip-path="url(#p8e608253af)" d="M 91.053866 52.239605 
L 91.053866 51.335006 
" style="fill:none;"/>
   </g>
   <g id="LineCollection_21">
    <path clip-path="url(#p8e608253af)" d="M 130.273705 37.90366 
L 130.273705 34.730584 
" style="fill:none;stroke:#5e4fa2;stroke-width:0.5;"/>
   </g>
   <g id="LineCollection_22">
    <path clip-path="url(#p8e608253af)" d="M 123.787589 36.48555 
L 123.787589 33.471656 
" style="fill:none;stroke:#5e4fa2;stroke-width:0.5;"/>
   </g>
   <g id="LineCollection_23">
    <path clip-path="url(#p8e608253af)" d="M 117.675885 35.495236 
L 117.675885 32.674118 
" style="fill:none;stroke:#5e4fa2;stroke-width:0.5;"/>
   </g>
   <g id="LineCollection_24">
    <path clip-path="url(#p8e608253af)" d="M 112.252989 34.705808 
L 112.252989 32.078616 
" style="fill:none;stroke:#5e4fa2;stroke-width:0.5;"/>
   </g>
   <g id="LineCollection_25">
    <path clip-path="url(#p8e608253af)" d="M 107.508617 33.852886 
L 107.508617 31.401708 
" style="fill:none;stroke:#5e4fa2;stroke-width:0.5;"/>
   </g>
   <g id="LineCollection_26">
    <path clip-path="url(#p8e608253af)" d="M 103.358794 33.404637 
L 103.358794 31.123356 
" style="fill:none;stroke:#5e4fa2;stroke-width:0.5;"/>
   </g>
   <g id="LineCollection_27">
    <path clip-path="url(#p8e608253af)" d="M 99.712541 33.225428 
L 99.712541 30.936889 
" style="fill:none;stroke:#5e4fa2;stroke-width:0.5;"/>
   </g>
   <g id="LineCollection_28">
    <path clip-path="url(#p8e608253af)" d="M 96.489181 32.803163 
L 96.489181 30.767986 
" style="fill:none;stroke:#5e4fa2;stroke-width:0.5;"/>
   </g>
   <g id="LineCollection_29">
    <path clip-path="url(#p8e608253af)" d="M 93.621343 32.394393 
L 93.621343 30.455678 
" style="fill:none;stroke:#5e4fa2;stroke-width:0.5;"/>
   </g>
   <g id="LineCollection_30">
    <path clip-path="url(#p8e608253af)" d="M 91.053866 32.138471 
L 91.053866 30.375177 
" style="fill:none;stroke:#5e4fa2;stroke-width:0.5;"/>
   </g>
   <g id="LineCollection_31">
    <path clip-path="url(#p8e608253af)" d="M 130.273705 75.298692 
L 130.273705 74.791671 
" style="fill:none;stroke:#d43d4f;stroke-width:0.5;"/>
   </g>
   <g id="LineCollection_32">
    <path clip-path="url(#p8e608253af)" d="M 123.787589 73.80163 
L 123.787589 73.195071 
" style="fill:none;stroke:#d43d4f;stroke-width:0.5;"/>
   </g>
   <g id="LineCollection_33">
    <path clip-path="url(#p8e608253af)" d="M 117.675885 71.113351 
L 117.675885 70.380464 
" style="fill:none;stroke:#d43d4f;stroke-width:0.5;"/>
   </g>
   <g id="LineCollection_34">
    <path clip-path="url(#p8e608253af)" d="M 112.252989 68.982922 
L 112.252989 68.154031 
" style="fill:none;stroke:#d43d4f;stroke-width:0.5;"/>
   </g>
   <g id="LineCollection_35">
    <path clip-path="url(#p8e608253af)" d="M 107.508617 66.834251 
L 107.508617 65.9194 
" style="fill:none;stroke:#d43d4f;stroke-width:0.5;"/>
   </g>
   <g id="LineCollection_36">
    <path clip-path="url(#p8e608253af)" d="M 103.358794 65.027289 
L 103.358794 64.106315 
" style="fill:none;stroke:#d43d4f;stroke-width:0.5;"/>
   </g>
   <g id="LineCollection_37">
    <path clip-path="url(#p8e608253af)" d="M 99.712541 62.835385 
L 99.712541 61.90379 
" style="fill:none;stroke:#d43d4f;stroke-width:0.5;"/>
   </g>
   <g id="LineCollection_38">
    <path clip-path="url(#p8e608253af)" d="M 96.489181 61.659458 
L 96.489181 60.713641 
" style="fill:none;stroke:#d43d4f;stroke-width:0.5;"/>
   </g>
   <g id="LineCollection_39">
    <path clip-path="url(#p8e608253af)" d="M 93.621343 59.887182 
L 93.621343 59.046696 
" style="fill:none;stroke:#d43d4f;stroke-width:0.5;"/>
   </g>
   <g id="LineCollection_40">
    <path clip-path="url(#p8e608253af)" d="M 91.053866 58.103585 
L 91.053866 57.223206 
" style="fill:none;stroke:#d43d4f;stroke-width:0.5;"/>
   </g>
   <g id="line2d_8">
    <path clip-path="url(#p8e608253af)" d="M 39.21335 19.192628 
L 135.871704 26.594281 
L 130.273705 26.165612 
" style="fill:none;stroke:#5e4fa2;stroke-linecap:round;stroke-opacity:0;stroke-width:0.5;"/>
   </g>
   <g id="line2d_9">
    <path clip-path="url(#p8e608253af)" d="M 39.21335 17.591598 
L 135.871704 81.737288 
L 130.273705 78.02227 
" style="fill:none;stroke:#d43d4f;stroke-linecap:round;stroke-opacity:0;stroke-width:0.5;"/>
   </g>
   <g id="line2d_10">
    <path clip-path="url(#p8e608253af)" d="M 39.21335 26.164815 
L 135.871704 35.610171 
L 130.273705 35.06314 
" style="fill:none;stroke:#5e4fa2;stroke-linecap:round;stroke-width:0.5;"/>
   </g>
   <g id="line2d_11">
    <path clip-path="url(#p8e608253af)" d="M 39.21335 29.579227 
L 135.871704 82.377813 
L 130.273705 79.319967 
" style="fill:none;stroke:#d43d4f;stroke-linecap:round;stroke-width:0.5;"/>
   </g>
   <g id="line2d_12">
    <defs>
     <path d="M 0 1.5 
C 0.397805 1.5 0.77937 1.341951 1.06066 1.06066 
C 1.341951 0.77937 1.5 0.397805 1.5 0 
C 1.5 -0.397805 1.341951 -0.77937 1.06066 -1.06066 
C 0.77937 -1.341951 0.397805 -1.5 0 -1.5 
C -0.397805 -1.5 -0.77937 -1.341951 -1.06066 -1.06066 
C -1.341951 -0.77937 -1.5 -0.397805 -1.5 0 
C -1.5 0.397805 -1.341951 0.77937 -1.06066 1.06066 
C -0.77937 1.341951 -0.397805 1.5 0 1.5 
z
" id="m989b0c0955" style="stroke:#5e4fa2;stroke-opacity:0;stroke-width:0.5;"/>
    </defs>
    <g clip-path="url(#p8e608253af)">
     <use style="fill:#aea6d0;fill-opacity:0;stroke:#5e4fa2;stroke-opacity:0;stroke-width:0.5;" x="130.273705" xlink:href="#m989b0c0955" y="26.312978"/>
    </g>
   </g>
   <g id="line2d_13">
    <g clip-path="url(#p8e608253af)">
     <use style="fill:#aea6d0;fill-opacity:0;stroke:#5e4fa2;stroke-opacity:0;stroke-width:0.5;" x="123.787589" xlink:href="#m989b0c0955" y="25.824403"/>
    </g>
   </g>
   <g id="line2d_14">
    <g clip-path="url(#p8e608253af)">
     <use style="fill:#aea6d0;fill-opacity:0;stroke:#5e4fa2;stroke-opacity:0;stroke-width:0.5;" x="117.675885" xlink:href="#m989b0c0955" y="25.172009"/>
    </g>
   </g>
   <g id="line2d_15">
    <g clip-path="url(#p8e608253af)">
     <use style="fill:#aea6d0;fill-opacity:0;stroke:#5e4fa2;stroke-opacity:0;stroke-width:0.5;" x="112.252989" xlink:href="#m989b0c0955" y="24.880557"/>
    </g>
   </g>
   <g id="line2d_16">
    <g clip-path="url(#p8e608253af)">
     <use style="fill:#aea6d0;fill-opacity:0;stroke:#5e4fa2;stroke-opacity:0;stroke-width:0.5;" x="107.508617" xlink:href="#m989b0c0955" y="24.19243"/>
    </g>
   </g>
   <g id="line2d_17">
    <g clip-path="url(#p8e608253af)">
     <use style="fill:#aea6d0;fill-opacity:0;stroke:#5e4fa2;stroke-opacity:0;stroke-width:0.5;" x="103.358794" xlink:href="#m989b0c0955" y="23.918281"/>
    </g>
   </g>
   <g id="line2d_18">
    <g clip-path="url(#p8e608253af)">
     <use style="fill:#aea6d0;fill-opacity:0;stroke:#5e4fa2;stroke-opacity:0;stroke-width:0.5;" x="99.712541" xlink:href="#m989b0c0955" y="23.802427"/>
    </g>
   </g>
   <g id="line2d_19">
    <g clip-path="url(#p8e608253af)">
     <use style="fill:#aea6d0;fill-opacity:0;stroke:#5e4fa2;stroke-opacity:0;stroke-width:0.5;" x="96.489181" xlink:href="#m989b0c0955" y="23.626772"/>
    </g>
   </g>
   <g id="line2d_20">
    <g clip-path="url(#p8e608253af)">
     <use style="fill:#aea6d0;fill-opacity:0;stroke:#5e4fa2;stroke-opacity:0;stroke-width:0.5;" x="93.621343" xlink:href="#m989b0c0955" y="23.326306"/>
    </g>
   </g>
   <g id="line2d_21">
    <g clip-path="url(#p8e608253af)">
     <use style="fill:#aea6d0;fill-opacity:0;stroke:#5e4fa2;stroke-opacity:0;stroke-width:0.5;" x="91.053866" xlink:href="#m989b0c0955" y="23.167301"/>
    </g>
   </g>
   <g id="line2d_22">
    <defs>
     <path d="M 0 1.5 
C 0.397805 1.5 0.77937 1.341951 1.06066 1.06066 
C 1.341951 0.77937 1.5 0.397805 1.5 0 
C 1.5 -0.397805 1.341951 -0.77937 1.06066 -1.06066 
C 0.77937 -1.341951 0.397805 -1.5 0 -1.5 
C -0.397805 -1.5 -0.77937 -1.341951 -1.06066 -1.06066 
C -1.341951 -0.77937 -1.5 -0.397805 -1.5 0 
C -1.5 0.397805 -1.341951 0.77937 -1.06066 1.06066 
C -0.77937 1.341951 -0.397805 1.5 0 1.5 
z
" id="m05766b644c" style="stroke:#d43d4f;stroke-opacity:0;stroke-width:0.5;"/>
    </defs>
    <g clip-path="url(#p8e608253af)">
     <use style="fill:#e99da6;fill-opacity:0;stroke:#d43d4f;stroke-opacity:0;stroke-width:0.5;" x="130.273705" xlink:href="#m05766b644c" y="72.550327"/>
    </g>
   </g>
   <g id="line2d_23">
    <g clip-path="url(#p8e608253af)">
     <use style="fill:#e99da6;fill-opacity:0;stroke:#d43d4f;stroke-opacity:0;stroke-width:0.5;" x="123.787589" xlink:href="#m05766b644c" y="70.79434"/>
    </g>
   </g>
   <g id="line2d_24">
    <g clip-path="url(#p8e608253af)">
     <use style="fill:#e99da6;fill-opacity:0;stroke:#d43d4f;stroke-opacity:0;stroke-width:0.5;" x="117.675885" xlink:href="#m05766b644c" y="67.327507"/>
    </g>
   </g>
   <g id="line2d_25">
    <g clip-path="url(#p8e608253af)">
     <use style="fill:#e99da6;fill-opacity:0;stroke:#d43d4f;stroke-opacity:0;stroke-width:0.5;" x="112.252989" xlink:href="#m05766b644c" y="64.822294"/>
    </g>
   </g>
   <g id="line2d_26">
    <g clip-path="url(#p8e608253af)">
     <use style="fill:#e99da6;fill-opacity:0;stroke:#d43d4f;stroke-opacity:0;stroke-width:0.5;" x="107.508617" xlink:href="#m05766b644c" y="62.147776"/>
    </g>
   </g>
   <g id="line2d_27">
    <g clip-path="url(#p8e608253af)">
     <use style="fill:#e99da6;fill-opacity:0;stroke:#d43d4f;stroke-opacity:0;stroke-width:0.5;" x="103.358794" xlink:href="#m05766b644c" y="59.934325"/>
    </g>
   </g>
   <g id="line2d_28">
    <g clip-path="url(#p8e608253af)">
     <use style="fill:#e99da6;fill-opacity:0;stroke:#d43d4f;stroke-opacity:0;stroke-width:0.5;" x="99.712541" xlink:href="#m05766b644c" y="57.456017"/>
    </g>
   </g>
   <g id="line2d_29">
    <g clip-path="url(#p8e608253af)">
     <use style="fill:#e99da6;fill-opacity:0;stroke:#d43d4f;stroke-opacity:0;stroke-width:0.5;" x="96.489181" xlink:href="#m05766b644c" y="55.981734"/>
    </g>
   </g>
   <g id="line2d_30">
    <g clip-path="url(#p8e608253af)">
     <use style="fill:#e99da6;fill-opacity:0;stroke:#d43d4f;stroke-opacity:0;stroke-width:0.5;" x="93.621343" xlink:href="#m05766b644c" y="53.854531"/>
    </g>
   </g>
   <g id="line2d_31">
    <g clip-path="url(#p8e608253af)">
     <use style="fill:#e99da6;fill-opacity:0;stroke:#d43d4f;stroke-opacity:0;stroke-width:0.5;" x="91.053866" xlink:href="#m05766b644c" y="51.787306"/>
    </g>
   </g>
   <g id="line2d_32">
    <defs>
     <path d="M -1.5 1.5 
L 1.5 1.5 
L 1.5 -1.5 
L -1.5 -1.5 
z
" id="mb9e2208cf2" style="stroke:#5e4fa2;stroke-linejoin:miter;stroke-width:0.5;"/>
    </defs>
    <g clip-path="url(#p8e608253af)">
     <use style="fill:#aea6d0;fill-opacity:0.501961;stroke:#5e4fa2;stroke-linejoin:miter;stroke-width:0.5;" x="130.273705" xlink:href="#mb9e2208cf2" y="36.317122"/>
    </g>
   </g>
   <g id="line2d_33">
    <g clip-path="url(#p8e608253af)">
     <use style="fill:#aea6d0;fill-opacity:0.501961;stroke:#5e4fa2;stroke-linejoin:miter;stroke-width:0.5;" x="123.787589" xlink:href="#mb9e2208cf2" y="34.978603"/>
    </g>
   </g>
   <g id="line2d_34">
    <g clip-path="url(#p8e608253af)">
     <use style="fill:#aea6d0;fill-opacity:0.501961;stroke:#5e4fa2;stroke-linejoin:miter;stroke-width:0.5;" x="117.675885" xlink:href="#mb9e2208cf2" y="34.084677"/>
    </g>
   </g>
   <g id="line2d_35">
    <g clip-path="url(#p8e608253af)">
     <use style="fill:#aea6d0;fill-opacity:0.501961;stroke:#5e4fa2;stroke-linejoin:miter;stroke-width:0.5;" x="112.252989" xlink:href="#mb9e2208cf2" y="33.392212"/>
    </g>
   </g>
   <g id="line2d_36">
    <g clip-path="url(#p8e608253af)">
     <use style="fill:#aea6d0;fill-opacity:0.501961;stroke:#5e4fa2;stroke-linejoin:miter;stroke-width:0.5;" x="107.508617" xlink:href="#mb9e2208cf2" y="32.627297"/>
    </g>
   </g>
   <g id="line2d_37">
    <g clip-path="url(#p8e608253af)">
     <use style="fill:#aea6d0;fill-opacity:0.501961;stroke:#5e4fa2;stroke-linejoin:miter;stroke-width:0.5;" x="103.358794" xlink:href="#mb9e2208cf2" y="32.263997"/>
    </g>
   </g>
   <g id="line2d_38">
    <g clip-path="url(#p8e608253af)">
     <use style="fill:#aea6d0;fill-opacity:0.501961;stroke:#5e4fa2;stroke-linejoin:miter;stroke-width:0.5;" x="99.712541" xlink:href="#mb9e2208cf2" y="32.081158"/>
    </g>
   </g>
   <g id="line2d_39">
    <g clip-path="url(#p8e608253af)">
     <use style="fill:#aea6d0;fill-opacity:0.501961;stroke:#5e4fa2;stroke-linejoin:miter;stroke-width:0.5;" x="96.489181" xlink:href="#mb9e2208cf2" y="31.785575"/>
    </g>
   </g>
   <g id="line2d_40">
    <g clip-path="url(#p8e608253af)">
     <use style="fill:#aea6d0;fill-opacity:0.501961;stroke:#5e4fa2;stroke-linejoin:miter;stroke-width:0.5;" x="93.621343" xlink:href="#mb9e2208cf2" y="31.425036"/>
    </g>
   </g>
   <g id="line2d_41">
    <g clip-path="url(#p8e608253af)">
     <use style="fill:#aea6d0;fill-opacity:0.501961;stroke:#5e4fa2;stroke-linejoin:miter;stroke-width:0.5;" x="91.053866" xlink:href="#mb9e2208cf2" y="31.256824"/>
    </g>
   </g>
   <g id="line2d_42">
    <defs>
     <path d="M -1.5 1.5 
L 1.5 1.5 
L 1.5 -1.5 
L -1.5 -1.5 
z
" id="m82ab085647" style="stroke:#d43d4f;stroke-linejoin:miter;stroke-width:0.5;"/>
    </defs>
    <g clip-path="url(#p8e608253af)">
     <use style="fill:#e99da6;fill-opacity:0.501961;stroke:#d43d4f;stroke-linejoin:miter;stroke-width:0.5;" x="130.273705" xlink:href="#m82ab085647" y="75.045182"/>
    </g>
   </g>
   <g id="line2d_43">
    <g clip-path="url(#p8e608253af)">
     <use style="fill:#e99da6;fill-opacity:0.501961;stroke:#d43d4f;stroke-linejoin:miter;stroke-width:0.5;" x="123.787589" xlink:href="#m82ab085647" y="73.49835"/>
    </g>
   </g>
   <g id="line2d_44">
    <g clip-path="url(#p8e608253af)">
     <use style="fill:#e99da6;fill-opacity:0.501961;stroke:#d43d4f;stroke-linejoin:miter;stroke-width:0.5;" x="117.675885" xlink:href="#m82ab085647" y="70.746908"/>
    </g>
   </g>
   <g id="line2d_45">
    <g clip-path="url(#p8e608253af)">
     <use style="fill:#e99da6;fill-opacity:0.501961;stroke:#d43d4f;stroke-linejoin:miter;stroke-width:0.5;" x="112.252989" xlink:href="#m82ab085647" y="68.568476"/>
    </g>
   </g>
   <g id="line2d_46">
    <g clip-path="url(#p8e608253af)">
     <use style="fill:#e99da6;fill-opacity:0.501961;stroke:#d43d4f;stroke-linejoin:miter;stroke-width:0.5;" x="107.508617" xlink:href="#m82ab085647" y="66.376825"/>
    </g>
   </g>
   <g id="line2d_47">
    <g clip-path="url(#p8e608253af)">
     <use style="fill:#e99da6;fill-opacity:0.501961;stroke:#d43d4f;stroke-linejoin:miter;stroke-width:0.5;" x="103.358794" xlink:href="#m82ab085647" y="64.566802"/>
    </g>
   </g>
   <g id="line2d_48">
    <g clip-path="url(#p8e608253af)">
     <use style="fill:#e99da6;fill-opacity:0.501961;stroke:#d43d4f;stroke-linejoin:miter;stroke-width:0.5;" x="99.712541" xlink:href="#m82ab085647" y="62.369587"/>
    </g>
   </g>
   <g id="line2d_49">
    <g clip-path="url(#p8e608253af)">
     <use style="fill:#e99da6;fill-opacity:0.501961;stroke:#d43d4f;stroke-linejoin:miter;stroke-width:0.5;" x="96.489181" xlink:href="#m82ab085647" y="61.186549"/>
    </g>
   </g>
   <g id="line2d_50">
    <g clip-path="url(#p8e608253af)">
     <use style="fill:#e99da6;fill-opacity:0.501961;stroke:#d43d4f;stroke-linejoin:miter;stroke-width:0.5;" x="93.621343" xlink:href="#m82ab085647" y="59.466939"/>
    </g>
   </g>
   <g id="line2d_51">
    <g clip-path="url(#p8e608253af)">
     <use style="fill:#e99da6;fill-opacity:0.501961;stroke:#d43d4f;stroke-linejoin:miter;stroke-width:0.5;" x="91.053866" xlink:href="#m82ab085647" y="57.663395"/>
    </g>
   </g>
   <g id="patch_3">
    <path d="M 39.21335 86.26628 
L 39.21335 0.72 
" style="fill:none;stroke:#000000;stroke-linecap:square;stroke-linejoin:miter;stroke-width:0.35;"/>
   </g>
   <g id="patch_4">
    <path d="M 133.801423 86.26628 
L 133.801423 0.72 
" style="fill:none;stroke:#000000;stroke-linecap:square;stroke-linejoin:miter;stroke-width:0.35;"/>
   </g>
   <g id="patch_5">
    <path d="M 39.21335 86.26628 
L 133.801423 86.26628 
" style="fill:none;stroke:#000000;stroke-linecap:square;stroke-linejoin:miter;stroke-width:0.35;"/>
   </g>
   <g id="patch_6">
    <path d="M 39.21335 0.72 
L 133.801423 0.72 
" style="fill:none;stroke:#000000;stroke-linecap:square;stroke-linejoin:miter;stroke-width:0.35;"/>
   </g>
   <g id="text_10">
    <!-- $n = \lfloor N/2 \rfloor , \ell = L/2$ -->
    <g transform="translate(60.824207 7.553047)scale(0.08 -0.08)">
     <defs>
      <path d="M 4115 2048 
C 4211 2048 4307 2048 4307 2156 
C 4307 2272 4198 2272 4090 2272 
L 512 2272 
C 403 2272 294 2272 294 2156 
C 294 2048 390 2048 486 2048 
L 4115 2048 
z
M 4090 927 
C 4198 927 4307 927 4307 1043 
C 4307 1152 4211 1152 4115 1152 
L 486 1152 
C 390 1152 294 1152 294 1043 
C 294 927 403 927 512 927 
L 4090 927 
z
" id="CMR17-3d" transform="scale(0.015625)"/>
      <path d="M 2470 -1601 
C 2566 -1601 2701 -1601 2701 -1473 
C 2701 -1344 2566 -1344 2470 -1344 
L 1370 -1344 
L 1370 4569 
C 1370 4684 1370 4800 1242 4800 
C 1114 4800 1114 4665 1114 4569 
L 1114 -1370 
C 1114 -1575 1139 -1601 1344 -1601 
L 2470 -1601 
z
" id="CMSY10-62" transform="scale(0.015625)"/>
      <path d="M 1722 4569 
C 1722 4684 1722 4800 1594 4800 
C 1466 4800 1466 4665 1466 4569 
L 1466 -1344 
L 365 -1344 
C 269 -1344 134 -1344 134 -1473 
C 134 -1601 269 -1601 365 -1601 
L 1498 -1601 
C 1702 -1601 1722 -1581 1722 -1370 
L 1722 4569 
z
" id="CMSY10-63" transform="scale(0.015625)"/>
      <path d="M 1248 -26 
C 1248 345 1126 620 864 620 
C 659 620 557 454 557 313 
C 557 172 653 0 870 0 
C 954 0 1024 25 1082 83 
C 1094 96 1101 96 1107 96 
C 1120 96 1120 6 1120 -26 
C 1120 -233 1082 -642 710 -1051 
C 640 -1127 640 -1140 640 -1152 
C 640 -1184 672 -1216 704 -1216 
C 755 -1216 1248 -749 1248 -26 
z
" id="CMMI12-3b" transform="scale(0.015625)"/>
      <path d="M 589 1091 
C 186 698 83 603 83 577 
C 83 552 109 508 154 508 
C 186 508 550 856 602 913 
C 640 488 800 -64 1299 -64 
C 1555 -64 1786 95 1888 171 
C 1971 235 2278 495 2278 552 
C 2278 584 2246 622 2214 622 
C 2189 622 2093 527 2067 501 
C 1843 286 1562 64 1306 64 
C 960 64 915 558 915 901 
C 915 964 915 1231 960 1281 
C 1338 1668 2522 2880 2522 4002 
C 2522 4256 2426 4480 2150 4480 
C 1555 4480 1037 3171 947 2930 
C 922 2867 550 1890 589 1091 
z
M 973 1484 
C 979 1522 1267 3184 1805 4072 
C 1914 4243 2022 4351 2150 4351 
C 2368 4351 2381 4148 2381 4009 
C 2381 3787 2317 3216 1760 2417 
C 1594 2182 1338 1865 973 1484 
z
" id="CMMI12-60" transform="scale(0.015625)"/>
      <path d="M 2349 3860 
C 2406 4102 2426 4166 2989 4166 
C 3162 4166 3206 4166 3206 4287 
C 3206 4352 3136 4352 3110 4352 
C 2982 4352 2835 4339 2707 4339 
L 1850 4339 
C 1728 4339 1587 4352 1466 4352 
C 1414 4352 1344 4352 1344 4230 
C 1344 4166 1402 4166 1498 4166 
C 1888 4166 1888 4115 1888 4045 
C 1888 4032 1888 3994 1862 3898 
L 998 472 
C 941 249 928 185 480 185 
C 358 185 294 185 294 70 
C 294 0 333 0 461 0 
L 3328 0 
C 3469 0 3475 6 3520 121 
L 4013 1478 
C 4026 1510 4038 1548 4038 1567 
C 4038 1605 4006 1631 3974 1631 
C 3968 1631 3936 1631 3923 1605 
C 3910 1599 3910 1586 3859 1465 
C 3654 905 3366 185 2285 185 
L 1670 185 
C 1581 185 1568 185 1530 191 
C 1459 198 1453 211 1453 262 
C 1453 306 1466 344 1478 402 
L 2349 3860 
z
" id="CMMI12-4c" transform="scale(0.015625)"/>
     </defs>
     <use transform="scale(0.996264)" xlink:href="#CMMI12-6e"/>
     <use transform="translate(85.904056 0)scale(0.996264)" xlink:href="#CMR17-3d"/>
     <use transform="translate(185.292853 0)scale(0.996264)" xlink:href="#CMSY10-62"/>
     <use transform="translate(229.571358 0)scale(0.996264)" xlink:href="#CMMI12-4e"/>
     <use transform="translate(309.963978 0)scale(0.996264)" xlink:href="#CMMI12-3d"/>
     <use transform="translate(358.738897 0)scale(0.996264)" xlink:href="#CMR17-32"/>
     <use transform="translate(404.429374 0)scale(0.996264)" xlink:href="#CMSY10-63"/>
     <use transform="translate(448.707879 0)scale(0.996264)" xlink:href="#CMMI12-3b"/>
     <use transform="translate(492.409461 0)scale(0.996264)" xlink:href="#CMMI12-60"/>
     <use transform="translate(561.017689 0)scale(0.996264)" xlink:href="#CMR17-3d"/>
     <use transform="translate(660.406487 0)scale(0.996264)" xlink:href="#CMMI12-4c"/>
     <use transform="translate(726.777362 0)scale(0.996264)" xlink:href="#CMMI12-3d"/>
     <use transform="translate(775.552281 0)scale(0.996264)" xlink:href="#CMR17-32"/>
    </g>
   </g>
   <g id="text_11">
    <!-- $V =  0.25J,\; V^\prime=0.025J$ -->
    <g transform="translate(40.159231 84.716535)scale(0.08 -0.08)">
     <defs>
      <path d="M 3962 3644 
C 4179 3987 4378 4140 4704 4166 
C 4768 4172 4819 4172 4819 4287 
C 4819 4313 4806 4352 4749 4352 
C 4634 4352 4358 4339 4243 4339 
C 4058 4339 3866 4352 3686 4352 
C 3635 4352 3571 4352 3571 4230 
C 3571 4172 3629 4166 3654 4166 
C 3891 4146 3917 4032 3917 3956 
C 3917 3860 3827 3714 3821 3708 
L 1811 540 
L 1363 3968 
C 1363 4153 1696 4166 1766 4166 
C 1862 4166 1920 4166 1920 4287 
C 1920 4352 1850 4352 1830 4352 
C 1722 4352 1594 4339 1485 4339 
L 1126 4339 
C 659 4339 467 4352 461 4352 
C 422 4352 346 4352 346 4236 
C 346 4166 390 4166 493 4166 
C 819 4166 838 4108 858 3949 
L 1370 25 
C 1389 -109 1389 -128 1478 -128 
C 1555 -128 1587 -109 1651 -7 
L 3962 3644 
z
" id="CMMI12-56" transform="scale(0.015625)"/>
      <path d="M 3418 3911 
C 3469 4102 3482 4166 3795 4166 
C 3898 4166 3962 4166 3962 4281 
C 3962 4352 3904 4352 3878 4352 
C 3770 4352 3648 4339 3533 4339 
L 3181 4339 
C 2912 4339 2630 4352 2362 4352 
C 2304 4352 2227 4352 2227 4236 
C 2227 4172 2278 4172 2278 4166 
L 2438 4166 
C 2950 4166 2950 4115 2950 4019 
C 2950 4013 2950 3968 2925 3866 
L 2189 953 
C 2022 304 1594 0 1286 0 
C 1069 0 762 99 685 428 
C 710 422 742 415 768 415 
C 979 415 1146 601 1146 787 
C 1146 889 1082 1024 890 1024 
C 774 1024 506 959 506 543 
C 506 149 838 -128 1299 -128 
C 1882 -128 2509 304 2662 908 
L 3418 3911 
z
" id="CMMI12-4a" transform="scale(0.015625)"/>
      <path d="M 1619 3048 
C 1651 3125 1677 3182 1677 3246 
C 1677 3430 1510 3584 1312 3584 
C 1133 3584 1018 3462 973 3297 
L 211 517 
C 211 505 186 435 186 428 
C 186 358 352 313 403 313 
C 442 313 448 332 486 415 
L 1619 3048 
z
" id="CMSY10-30" transform="scale(0.015625)"/>
     </defs>
     <use transform="scale(0.996264)" xlink:href="#CMMI12-56"/>
     <use transform="translate(106.221329 0)scale(0.996264)" xlink:href="#CMR17-3d"/>
     <use transform="translate(205.610127 0)scale(0.996264)" xlink:href="#CMR17-30"/>
     <use transform="translate(251.300604 0)scale(0.996264)" xlink:href="#CMMI12-3a"/>
     <use transform="translate(278.397781 0)scale(0.996264)" xlink:href="#CMR17-32"/>
     <use transform="translate(324.088258 0)scale(0.996264)" xlink:href="#CMR17-35"/>
     <use transform="translate(369.778735 0)scale(0.996264)" xlink:href="#CMMI12-4a"/>
     <use transform="translate(422.082535 0)scale(0.996264)" xlink:href="#CMMI12-3b"/>
     <use transform="translate(493.458126 0)scale(0.996264)" xlink:href="#CMMI12-56"/>
     <use transform="translate(572.005446 36.153639)scale(0.697382)" xlink:href="#CMSY10-30"/>
     <use transform="translate(619.355548 0)scale(0.996264)" xlink:href="#CMR17-3d"/>
     <use transform="translate(718.744345 0)scale(0.996264)" xlink:href="#CMR17-30"/>
     <use transform="translate(764.434822 0)scale(0.996264)" xlink:href="#CMMI12-3a"/>
     <use transform="translate(791.531999 0)scale(0.996264)" xlink:href="#CMR17-30"/>
     <use transform="translate(837.222476 0)scale(0.996264)" xlink:href="#CMR17-32"/>
     <use transform="translate(882.912953 0)scale(0.996264)" xlink:href="#CMR17-35"/>
     <use transform="translate(928.60343 0)scale(0.996264)" xlink:href="#CMMI12-4a"/>
    </g>
   </g>
   <g id="PolyCollection_1">
    <path d="M 38.162372 12.350588 
L 38.162372 22.832607 
L 40.264329 22.832607 
L 40.264329 12.350588 
L 40.264329 12.350588 
L 38.162372 12.350588 
z
" style="fill:none;"/>
   </g>
   <g id="PolyCollection_2">
    <path d="M 38.162372 24.649205 
L 38.162372 34.509249 
L 40.264329 34.509249 
L 40.264329 24.649205 
L 40.264329 24.649205 
L 38.162372 24.649205 
z
" style="fill:#d43d4f;fill-opacity:0.6;"/>
   </g>
   <g id="legend_1">
    <g id="LineCollection_41">
     <path d="M 44.41335 60.734847 
L 44.41335 52.734847 
" style="fill:none;stroke:#5e4fa2;stroke-width:0.5;"/>
    </g>
    <g id="line2d_52"/>
    <g id="line2d_53">
     <g>
      <use style="fill:#aea6d0;fill-opacity:0.501961;stroke:#5e4fa2;stroke-linejoin:miter;stroke-width:0.5;" x="44.41335" xlink:href="#mb9e2208cf2" y="56.734847"/>
     </g>
    </g>
    <g id="text_12">
     <!-- particle -->
     <g transform="translate(50.41335 59.534847)scale(0.08 -0.08)">
      <defs>
       <path d="M 1408 -1114 
C 998 -1114 973 -1088 973 -834 
L 973 380 
C 1158 109 1427 -64 1766 -64 
C 2406 -64 3053 503 3053 1382 
C 3053 2196 2496 2816 1837 2816 
C 1453 2816 1139 2603 960 2345 
L 960 2816 
L 198 2745 
L 198 2577 
C 576 2577 634 2539 634 2228 
L 634 -834 
C 634 -1081 608 -1114 198 -1114 
L 198 -1280 
C 352 -1268 634 -1268 800 -1268 
C 966 -1268 1254 -1268 1408 -1280 
L 1408 -1114 
z
M 973 2015 
C 973 2106 973 2241 1222 2481 
C 1254 2506 1472 2700 1792 2700 
C 2259 2700 2643 2112 2643 1376 
C 2643 639 2234 38 1728 38 
C 1498 38 1248 148 1056 451 
C 973 594 973 632 973 736 
L 973 2015 
z
" id="CMR17-70" transform="scale(0.015625)"/>
       <path d="M 2304 1656 
C 2304 2048 2304 2275 2035 2534 
C 1798 2751 1523 2816 1306 2816 
C 800 2816 435 2408 435 1977 
C 435 1740 627 1728 666 1728 
C 749 1728 896 1779 896 1958 
C 896 2118 774 2188 666 2188 
C 640 2188 608 2182 589 2176 
C 723 2594 1069 2713 1293 2713 
C 1613 2713 1965 2421 1965 1875 
L 1965 1632 
C 1587 1619 1133 1568 774 1373 
C 371 1147 256 822 256 576 
C 256 77 832 -64 1171 -64 
C 1523 -64 1850 135 1990 505 
C 2003 219 2182 -39 2464 -39 
C 2598 -39 2938 51 2938 563 
L 2938 926 
L 2822 926 
L 2822 557 
C 2822 161 2650 109 2566 109 
C 2304 109 2304 446 2304 732 
L 2304 1656 
z
M 1965 887 
C 1965 323 1568 38 1216 38 
C 896 38 646 278 646 576 
C 646 771 730 1114 1101 1322 
C 1408 1497 1760 1523 1965 1536 
L 1965 887 
z
" id="CMR17-61" transform="scale(0.015625)"/>
       <path d="M 960 1517 
C 960 2134 1222 2713 1702 2713 
C 1747 2713 1792 2707 1837 2687 
C 1837 2687 1696 2642 1696 2475 
C 1696 2321 1818 2257 1914 2257 
C 1990 2257 2131 2302 2131 2482 
C 2131 2687 1926 2816 1709 2816 
C 1222 2816 1011 2340 947 2115 
L 941 2115 
L 941 2816 
L 198 2745 
L 198 2578 
C 576 2578 634 2540 634 2231 
L 634 443 
C 634 198 608 166 198 166 
L 198 0 
C 352 12 646 12 813 12 
C 998 12 1325 12 1498 0 
L 1498 166 
C 1037 166 960 166 960 455 
L 960 1517 
z
" id="CMR17-72" transform="scale(0.015625)"/>
       <path d="M 966 2585 
L 1862 2585 
L 1862 2752 
L 966 2752 
L 966 3968 
L 851 3968 
C 838 3292 614 2700 70 2687 
L 70 2585 
L 627 2585 
L 627 778 
C 627 655 627 -64 1370 -64 
C 1747 -64 1965 308 1965 784 
L 1965 1151 
L 1850 1151 
L 1850 790 
C 1850 347 1677 51 1408 51 
C 1222 51 966 179 966 765 
L 966 2585 
z
" id="CMR17-74" transform="scale(0.015625)"/>
       <path d="M 992 3961 
C 992 4102 877 4224 730 4224 
C 589 4224 467 4108 467 3961 
C 467 3820 582 3699 730 3699 
C 870 3699 992 3814 992 3961 
z
M 243 2745 
L 243 2579 
C 602 2579 653 2540 653 2231 
L 653 443 
C 653 198 627 166 218 166 
L 218 0 
C 371 12 646 12 806 12 
C 960 12 1222 12 1370 0 
L 1370 166 
C 992 166 979 205 979 436 
L 979 2816 
L 243 2745 
z
" id="CMR17-69" transform="scale(0.015625)"/>
       <path d="M 2234 2240 
C 2112 2240 1933 2240 1933 2015 
C 1933 1836 2080 1785 2163 1785 
C 2208 1785 2394 1804 2394 2028 
C 2394 2476 1958 2816 1466 2816 
C 787 2816 211 2201 211 1379 
C 211 521 813 -64 1466 -64 
C 2259 -64 2458 676 2458 747 
C 2458 773 2451 792 2406 792 
C 2362 792 2355 786 2330 702 
C 2163 180 1798 51 1523 51 
C 1114 51 621 431 621 1385 
C 621 2358 1094 2700 1472 2700 
C 1722 2700 2093 2582 2234 2240 
z
" id="CMR17-63" transform="scale(0.015625)"/>
       <path d="M 2438 1503 
C 2464 1529 2464 1542 2464 1606 
C 2464 2251 2118 2816 1389 2816 
C 710 2816 173 2175 173 1394 
C 173 554 781 -64 1459 -64 
C 2176 -64 2458 619 2458 755 
C 2458 800 2419 800 2406 800 
C 2362 800 2355 787 2330 709 
C 2189 270 1837 51 1504 51 
C 1229 51 954 206 781 490 
C 582 819 582 1200 582 1503 
L 2438 1503 
z
M 589 1600 
C 634 2511 1126 2713 1382 2713 
C 1818 2713 2112 2308 2118 1600 
L 589 1600 
z
" id="CMR17-65" transform="scale(0.015625)"/>
      </defs>
      <use transform="scale(0.996264)" xlink:href="#CMR17-70"/>
      <use transform="translate(50.89537 0)scale(0.996264)" xlink:href="#CMR17-61"/>
      <use transform="translate(96.585847 0)scale(0.996264)" xlink:href="#CMR17-72"/>
      <use transform="translate(131.866615 0)scale(0.996264)" xlink:href="#CMR17-74"/>
      <use transform="translate(167.147382 0)scale(0.996264)" xlink:href="#CMR17-69"/>
      <use transform="translate(192.018441 0)scale(0.996264)" xlink:href="#CMR17-63"/>
      <use transform="translate(232.504101 0)scale(0.996264)" xlink:href="#CMR17-6c"/>
      <use transform="translate(257.37516 0)scale(0.996264)" xlink:href="#CMR17-65"/>
     </g>
    </g>
    <g id="LineCollection_42">
     <path d="M 44.41335 69.884593 
L 44.41335 61.884593 
" style="fill:none;stroke:#d43d4f;stroke-width:0.5;"/>
    </g>
    <g id="line2d_54"/>
    <g id="line2d_55">
     <g>
      <use style="fill:#e99da6;fill-opacity:0.501961;stroke:#d43d4f;stroke-linejoin:miter;stroke-width:0.5;" x="44.41335" xlink:href="#m82ab085647" y="65.884593"/>
     </g>
    </g>
    <g id="text_13">
     <!-- spatial -->
     <g transform="translate(50.41335 68.684593)scale(0.08 -0.08)">
      <defs>
       <path d="M 1978 2688 
C 1978 2803 1971 2809 1933 2809 
C 1907 2809 1901 2803 1824 2707 
C 1805 2681 1747 2617 1728 2592 
C 1523 2809 1235 2816 1126 2816 
C 416 2816 160 2444 160 2073 
C 160 1497 813 1363 998 1324 
C 1402 1241 1542 1216 1677 1100 
C 1760 1024 1901 883 1901 652 
C 1901 384 1747 38 1158 38 
C 602 38 403 460 288 1024 
C 269 1113 269 1120 218 1120 
C 166 1120 160 1113 160 985 
L 160 64 
C 160 -52 166 -58 205 -58 
C 237 -58 243 -52 275 0 
C 314 57 410 211 448 275 
C 576 102 800 -64 1158 -64 
C 1792 -64 2131 281 2131 780 
C 2131 1107 1958 1280 1875 1356 
C 1683 1555 1459 1600 1190 1651 
C 838 1728 390 1817 390 2208 
C 390 2374 480 2726 1126 2726 
C 1811 2726 1850 2086 1862 1881 
C 1869 1849 1901 1843 1920 1843 
C 1978 1843 1978 1862 1978 1971 
L 1978 2688 
z
" id="CMR17-73" transform="scale(0.015625)"/>
      </defs>
      <use transform="scale(0.996264)" xlink:href="#CMR17-73"/>
      <use transform="translate(35.801338 0)scale(0.996264)" xlink:href="#CMR17-70"/>
      <use transform="translate(86.696707 0)scale(0.996264)" xlink:href="#CMR17-61"/>
      <use transform="translate(132.387185 0)scale(0.996264)" xlink:href="#CMR17-74"/>
      <use transform="translate(167.667952 0)scale(0.996264)" xlink:href="#CMR17-69"/>
      <use transform="translate(192.539011 0)scale(0.996264)" xlink:href="#CMR17-61"/>
      <use transform="translate(238.229488 0)scale(0.996264)" xlink:href="#CMR17-6c"/>
     </g>
    </g>
   </g>
   <g id="PolyCollection_3">
    <path d="M 38.162372 18.561111 
L 38.162372 19.824145 
L 40.264329 19.824145 
L 40.264329 18.561111 
L 40.264329 18.561111 
L 38.162372 18.561111 
z
" style="fill:none;"/>
   </g>
   <g id="PolyCollection_4">
    <path d="M 38.162372 25.571418 
L 38.162372 26.758212 
L 40.264329 26.758212 
L 40.264329 25.571418 
L 40.264329 25.571418 
L 38.162372 25.571418 
z
" style="fill:#5e4fa2;fill-opacity:0.6;"/>
   </g>
  </g>
  <g id="axes_2">
   <g id="patch_7">
    <path d="M 145.212247 86.26628 
L 239.80032 86.26628 
L 239.80032 0.72 
L 145.212247 0.72 
z
" style="fill:none;"/>
   </g>
   <g id="matplotlib.axis_3">
    <g id="xtick_3">
     <g id="line2d_56">
      <g>
       <use style="stroke:#000000;stroke-width:0.35;" x="145.212247" xlink:href="#m28243e5f07" y="86.26628"/>
      </g>
     </g>
     <g id="text_14">
      <!-- $\mathdefault{0.0}$ -->
      <g transform="translate(139.801903 96.801082)scale(0.08 -0.08)">
       <use transform="scale(0.996264)" xlink:href="#CMR17-30"/>
       <use transform="translate(45.690477 0)scale(0.996264)" xlink:href="#CMMI12-3a"/>
       <use transform="translate(72.787654 0)scale(0.996264)" xlink:href="#CMR17-30"/>
      </g>
     </g>
    </g>
    <g id="xtick_4">
     <g id="line2d_57">
      <g>
       <use style="stroke:#000000;stroke-width:0.35;" x="197.761177" xlink:href="#m28243e5f07" y="86.26628"/>
      </g>
     </g>
     <g id="text_15">
      <!-- $\mathdefault{0.2}$ -->
      <g transform="translate(192.350832 96.801082)scale(0.08 -0.08)">
       <use transform="scale(0.996264)" xlink:href="#CMR17-30"/>
       <use transform="translate(45.690477 0)scale(0.996264)" xlink:href="#CMMI12-3a"/>
       <use transform="translate(72.787654 0)scale(0.996264)" xlink:href="#CMR17-32"/>
      </g>
     </g>
    </g>
    <g id="text_16">
     <!-- $\log (N) / N$ -->
     <g transform="translate(174.716162 106.328412)scale(0.08 -0.08)">
      <use transform="scale(0.996264)" xlink:href="#CMR17-6c"/>
      <use transform="translate(24.871058 0)scale(0.996264)" xlink:href="#CMR17-6f"/>
      <use transform="translate(70.561536 0)scale(0.996264)" xlink:href="#CMR17-67"/>
      <use transform="translate(117.553179 0.003177)scale(0.996264)" xlink:href="#CMR17-28"/>
      <use transform="translate(152.833947 0)scale(0.996264)" xlink:href="#CMMI12-4e"/>
      <use transform="translate(241.355719 0.003177)scale(0.996264)" xlink:href="#CMR17-29"/>
      <use transform="translate(276.636487 0)scale(0.996264)" xlink:href="#CMMI12-3d"/>
      <use transform="translate(319.99197 0)scale(0.996264)" xlink:href="#CMMI12-4e"/>
     </g>
    </g>
   </g>
   <g id="matplotlib.axis_4">
    <g id="ytick_6">
     <g id="line2d_58">
      <g>
       <use style="stroke:#000000;stroke-width:0.35;" x="145.212247" xlink:href="#m3d602d2abb" y="83.525299"/>
      </g>
     </g>
    </g>
    <g id="ytick_7">
     <g id="line2d_59">
      <g>
       <use style="stroke:#000000;stroke-width:0.35;" x="145.212247" xlink:href="#m3d602d2abb" y="64.552636"/>
      </g>
     </g>
    </g>
    <g id="ytick_8">
     <g id="line2d_60">
      <g>
       <use style="stroke:#000000;stroke-width:0.35;" x="145.212247" xlink:href="#m3d602d2abb" y="45.579972"/>
      </g>
     </g>
    </g>
    <g id="ytick_9">
     <g id="line2d_61">
      <g>
       <use style="stroke:#000000;stroke-width:0.35;" x="145.212247" xlink:href="#m3d602d2abb" y="26.607309"/>
      </g>
     </g>
    </g>
    <g id="ytick_10">
     <g id="line2d_62">
      <g>
       <use style="stroke:#000000;stroke-width:0.35;" x="145.212247" xlink:href="#m3d602d2abb" y="7.634646"/>
      </g>
     </g>
    </g>
   </g>
   <g id="LineCollection_43">
    <path clip-path="url(#p80b91cad16)" d="M 236.272603 28.120364 
L 236.272603 24.505593 
" style="fill:none;"/>
   </g>
   <g id="LineCollection_44">
    <path clip-path="url(#p80b91cad16)" d="M 229.786486 27.504992 
L 229.786486 24.143814 
" style="fill:none;"/>
   </g>
   <g id="LineCollection_45">
    <path clip-path="url(#p80b91cad16)" d="M 223.674782 26.708201 
L 223.674782 23.635817 
" style="fill:none;"/>
   </g>
   <g id="LineCollection_46">
    <path clip-path="url(#p80b91cad16)" d="M 218.251886 26.299665 
L 218.251886 23.461449 
" style="fill:none;"/>
   </g>
   <g id="LineCollection_47">
    <path clip-path="url(#p80b91cad16)" d="M 213.507514 25.507363 
L 213.507514 22.877496 
" style="fill:none;"/>
   </g>
   <g id="LineCollection_48">
    <path clip-path="url(#p80b91cad16)" d="M 209.357691 25.16533 
L 209.357691 22.671231 
" style="fill:none;"/>
   </g>
   <g id="LineCollection_49">
    <path clip-path="url(#p80b91cad16)" d="M 205.711438 24.925823 
L 205.711438 22.67903 
" style="fill:none;"/>
   </g>
   <g id="LineCollection_50">
    <path clip-path="url(#p80b91cad16)" d="M 202.488079 24.675476 
L 202.488079 22.578067 
" style="fill:none;"/>
   </g>
   <g id="LineCollection_51">
    <path clip-path="url(#p80b91cad16)" d="M 199.620241 24.344319 
L 199.620241 22.308292 
" style="fill:none;"/>
   </g>
   <g id="LineCollection_52">
    <path clip-path="url(#p80b91cad16)" d="M 197.052764 24.089997 
L 197.052764 22.244605 
" style="fill:none;"/>
   </g>
   <g id="LineCollection_53">
    <path clip-path="url(#p80b91cad16)" d="M 236.272603 72.870934 
L 236.272603 72.22972 
" style="fill:none;"/>
   </g>
   <g id="LineCollection_54">
    <path clip-path="url(#p80b91cad16)" d="M 229.786486 71.15829 
L 229.786486 70.43039 
" style="fill:none;"/>
   </g>
   <g id="LineCollection_55">
    <path clip-path="url(#p80b91cad16)" d="M 223.674782 67.7657 
L 223.674782 66.889314 
" style="fill:none;"/>
   </g>
   <g id="LineCollection_56">
    <path clip-path="url(#p80b91cad16)" d="M 218.251886 65.33534 
L 218.251886 64.309248 
" style="fill:none;"/>
   </g>
   <g id="LineCollection_57">
    <path clip-path="url(#p80b91cad16)" d="M 213.507514 62.66848 
L 213.507514 61.627072 
" style="fill:none;"/>
   </g>
   <g id="LineCollection_58">
    <path clip-path="url(#p80b91cad16)" d="M 209.357691 60.464259 
L 209.357691 59.404391 
" style="fill:none;"/>
   </g>
   <g id="LineCollection_59">
    <path clip-path="url(#p80b91cad16)" d="M 205.711438 57.982623 
L 205.711438 56.92941 
" style="fill:none;"/>
   </g>
   <g id="LineCollection_60">
    <path clip-path="url(#p80b91cad16)" d="M 202.488079 56.52784 
L 202.488079 55.435628 
" style="fill:none;"/>
   </g>
   <g id="LineCollection_61">
    <path clip-path="url(#p80b91cad16)" d="M 199.620241 54.305577 
L 199.620241 53.403485 
" style="fill:none;"/>
   </g>
   <g id="LineCollection_62">
    <path clip-path="url(#p80b91cad16)" d="M 197.052764 52.239605 
L 197.052764 51.335006 
" style="fill:none;"/>
   </g>
   <g id="LineCollection_63">
    <path clip-path="url(#p80b91cad16)" d="M 236.272603 22.403776 
L 236.272603 19.839858 
" style="fill:none;stroke:#5e4fa2;stroke-width:0.5;"/>
   </g>
   <g id="LineCollection_64">
    <path clip-path="url(#p80b91cad16)" d="M 229.786486 23.184199 
L 229.786486 21.096136 
" style="fill:none;stroke:#5e4fa2;stroke-width:0.5;"/>
   </g>
   <g id="LineCollection_65">
    <path clip-path="url(#p80b91cad16)" d="M 223.674782 20.931799 
L 223.674782 19.325836 
" style="fill:none;stroke:#5e4fa2;stroke-width:0.5;"/>
   </g>
   <g id="LineCollection_66">
    <path clip-path="url(#p80b91cad16)" d="M 218.251886 20.499671 
L 218.251886 18.84631 
" style="fill:none;stroke:#5e4fa2;stroke-width:0.5;"/>
   </g>
   <g id="LineCollection_67">
    <path clip-path="url(#p80b91cad16)" d="M 213.507514 19.555599 
L 213.507514 18.014056 
" style="fill:none;stroke:#5e4fa2;stroke-width:0.5;"/>
   </g>
   <g id="LineCollection_68">
    <path clip-path="url(#p80b91cad16)" d="M 209.357691 19.075731 
L 209.357691 17.513685 
" style="fill:none;stroke:#5e4fa2;stroke-width:0.5;"/>
   </g>
   <g id="LineCollection_69">
    <path clip-path="url(#p80b91cad16)" d="M 205.711438 18.326115 
L 205.711438 16.608024 
" style="fill:none;stroke:#5e4fa2;stroke-width:0.5;"/>
   </g>
   <g id="LineCollection_70">
    <path clip-path="url(#p80b91cad16)" d="M 202.488079 18.017522 
L 202.488079 16.411249 
" style="fill:none;stroke:#5e4fa2;stroke-width:0.5;"/>
   </g>
   <g id="LineCollection_71">
    <path clip-path="url(#p80b91cad16)" d="M 199.620241 17.019526 
L 199.620241 15.532538 
" style="fill:none;stroke:#5e4fa2;stroke-width:0.5;"/>
   </g>
   <g id="LineCollection_72">
    <path clip-path="url(#p80b91cad16)" d="M 197.052764 16.946696 
L 197.052764 15.326517 
" style="fill:none;stroke:#5e4fa2;stroke-width:0.5;"/>
   </g>
   <g id="LineCollection_73">
    <path clip-path="url(#p80b91cad16)" d="M 236.272603 51.328825 
L 236.272603 50.127083 
" style="fill:none;stroke:#d43d4f;stroke-width:0.5;"/>
   </g>
   <g id="LineCollection_74">
    <path clip-path="url(#p80b91cad16)" d="M 229.786486 50.94082 
L 229.786486 49.949885 
" style="fill:none;stroke:#d43d4f;stroke-width:0.5;"/>
   </g>
   <g id="LineCollection_75">
    <path clip-path="url(#p80b91cad16)" d="M 223.674782 47.102322 
L 223.674782 45.924259 
" style="fill:none;stroke:#d43d4f;stroke-width:0.5;"/>
   </g>
   <g id="LineCollection_76">
    <path clip-path="url(#p80b91cad16)" d="M 218.251886 46.812012 
L 218.251886 45.812619 
" style="fill:none;stroke:#d43d4f;stroke-width:0.5;"/>
   </g>
   <g id="LineCollection_77">
    <path clip-path="url(#p80b91cad16)" d="M 213.507514 45.641491 
L 213.507514 44.839255 
" style="fill:none;stroke:#d43d4f;stroke-width:0.5;"/>
   </g>
   <g id="LineCollection_78">
    <path clip-path="url(#p80b91cad16)" d="M 209.357691 44.298107 
L 209.357691 43.552711 
" style="fill:none;stroke:#d43d4f;stroke-width:0.5;"/>
   </g>
   <g id="LineCollection_79">
    <path clip-path="url(#p80b91cad16)" d="M 205.711438 43.422371 
L 205.711438 42.565379 
" style="fill:none;stroke:#d43d4f;stroke-width:0.5;"/>
   </g>
   <g id="LineCollection_80">
    <path clip-path="url(#p80b91cad16)" d="M 202.488079 41.73744 
L 202.488079 40.947093 
" style="fill:none;stroke:#d43d4f;stroke-width:0.5;"/>
   </g>
   <g id="LineCollection_81">
    <path clip-path="url(#p80b91cad16)" d="M 199.620241 40.469451 
L 199.620241 39.750115 
" style="fill:none;stroke:#d43d4f;stroke-width:0.5;"/>
   </g>
   <g id="LineCollection_82">
    <path clip-path="url(#p80b91cad16)" d="M 197.052764 39.083753 
L 197.052764 38.507933 
" style="fill:none;stroke:#d43d4f;stroke-width:0.5;"/>
   </g>
   <g id="line2d_63">
    <path clip-path="url(#p80b91cad16)" d="M 145.212247 19.192628 
L 241.52032 26.567459 
M 241.52032 26.567459 
L 236.272603 26.165612 
L 236.272603 26.165612 
" style="fill:none;stroke:#5e4fa2;stroke-linecap:round;stroke-opacity:0;stroke-width:0.5;"/>
   </g>
   <g id="line2d_64">
    <path clip-path="url(#p80b91cad16)" d="M 145.212247 17.591598 
L 241.52032 81.50483 
M 241.52032 81.50483 
L 236.272603 78.02227 
L 236.272603 78.02227 
" style="fill:none;stroke:#d43d4f;stroke-linecap:round;stroke-opacity:0;stroke-width:0.5;"/>
   </g>
   <g id="line2d_65">
    <path clip-path="url(#p80b91cad16)" d="M 145.212247 7.054762 
L 241.52032 23.755473 
M 241.52032 23.755473 
L 236.272603 22.84547 
L 236.272603 22.84547 
" style="fill:none;stroke:#5e4fa2;stroke-linecap:round;stroke-width:0.5;"/>
   </g>
   <g id="line2d_66">
    <path clip-path="url(#p80b91cad16)" d="M 145.212247 13.936649 
L 241.52032 60.147418 
M 241.52032 60.147418 
L 236.272603 57.629446 
L 236.272603 57.629446 
" style="fill:none;stroke:#d43d4f;stroke-linecap:round;stroke-width:0.5;"/>
   </g>
   <g id="line2d_67">
    <g clip-path="url(#p80b91cad16)">
     <use style="fill:#aea6d0;fill-opacity:0;stroke:#5e4fa2;stroke-opacity:0;stroke-width:0.5;" x="236.272603" xlink:href="#m989b0c0955" y="26.312978"/>
    </g>
   </g>
   <g id="line2d_68">
    <g clip-path="url(#p80b91cad16)">
     <use style="fill:#aea6d0;fill-opacity:0;stroke:#5e4fa2;stroke-opacity:0;stroke-width:0.5;" x="229.786486" xlink:href="#m989b0c0955" y="25.824403"/>
    </g>
   </g>
   <g id="line2d_69">
    <g clip-path="url(#p80b91cad16)">
     <use style="fill:#aea6d0;fill-opacity:0;stroke:#5e4fa2;stroke-opacity:0;stroke-width:0.5;" x="223.674782" xlink:href="#m989b0c0955" y="25.172009"/>
    </g>
   </g>
   <g id="line2d_70">
    <g clip-path="url(#p80b91cad16)">
     <use style="fill:#aea6d0;fill-opacity:0;stroke:#5e4fa2;stroke-opacity:0;stroke-width:0.5;" x="218.251886" xlink:href="#m989b0c0955" y="24.880557"/>
    </g>
   </g>
   <g id="line2d_71">
    <g clip-path="url(#p80b91cad16)">
     <use style="fill:#aea6d0;fill-opacity:0;stroke:#5e4fa2;stroke-opacity:0;stroke-width:0.5;" x="213.507514" xlink:href="#m989b0c0955" y="24.19243"/>
    </g>
   </g>
   <g id="line2d_72">
    <g clip-path="url(#p80b91cad16)">
     <use style="fill:#aea6d0;fill-opacity:0;stroke:#5e4fa2;stroke-opacity:0;stroke-width:0.5;" x="209.357691" xlink:href="#m989b0c0955" y="23.918281"/>
    </g>
   </g>
   <g id="line2d_73">
    <g clip-path="url(#p80b91cad16)">
     <use style="fill:#aea6d0;fill-opacity:0;stroke:#5e4fa2;stroke-opacity:0;stroke-width:0.5;" x="205.711438" xlink:href="#m989b0c0955" y="23.802427"/>
    </g>
   </g>
   <g id="line2d_74">
    <g clip-path="url(#p80b91cad16)">
     <use style="fill:#aea6d0;fill-opacity:0;stroke:#5e4fa2;stroke-opacity:0;stroke-width:0.5;" x="202.488079" xlink:href="#m989b0c0955" y="23.626772"/>
    </g>
   </g>
   <g id="line2d_75">
    <g clip-path="url(#p80b91cad16)">
     <use style="fill:#aea6d0;fill-opacity:0;stroke:#5e4fa2;stroke-opacity:0;stroke-width:0.5;" x="199.620241" xlink:href="#m989b0c0955" y="23.326306"/>
    </g>
   </g>
   <g id="line2d_76">
    <g clip-path="url(#p80b91cad16)">
     <use style="fill:#aea6d0;fill-opacity:0;stroke:#5e4fa2;stroke-opacity:0;stroke-width:0.5;" x="197.052764" xlink:href="#m989b0c0955" y="23.167301"/>
    </g>
   </g>
   <g id="line2d_77">
    <g clip-path="url(#p80b91cad16)">
     <use style="fill:#e99da6;fill-opacity:0;stroke:#d43d4f;stroke-opacity:0;stroke-width:0.5;" x="236.272603" xlink:href="#m05766b644c" y="72.550327"/>
    </g>
   </g>
   <g id="line2d_78">
    <g clip-path="url(#p80b91cad16)">
     <use style="fill:#e99da6;fill-opacity:0;stroke:#d43d4f;stroke-opacity:0;stroke-width:0.5;" x="229.786486" xlink:href="#m05766b644c" y="70.79434"/>
    </g>
   </g>
   <g id="line2d_79">
    <g clip-path="url(#p80b91cad16)">
     <use style="fill:#e99da6;fill-opacity:0;stroke:#d43d4f;stroke-opacity:0;stroke-width:0.5;" x="223.674782" xlink:href="#m05766b644c" y="67.327507"/>
    </g>
   </g>
   <g id="line2d_80">
    <g clip-path="url(#p80b91cad16)">
     <use style="fill:#e99da6;fill-opacity:0;stroke:#d43d4f;stroke-opacity:0;stroke-width:0.5;" x="218.251886" xlink:href="#m05766b644c" y="64.822294"/>
    </g>
   </g>
   <g id="line2d_81">
    <g clip-path="url(#p80b91cad16)">
     <use style="fill:#e99da6;fill-opacity:0;stroke:#d43d4f;stroke-opacity:0;stroke-width:0.5;" x="213.507514" xlink:href="#m05766b644c" y="62.147776"/>
    </g>
   </g>
   <g id="line2d_82">
    <g clip-path="url(#p80b91cad16)">
     <use style="fill:#e99da6;fill-opacity:0;stroke:#d43d4f;stroke-opacity:0;stroke-width:0.5;" x="209.357691" xlink:href="#m05766b644c" y="59.934325"/>
    </g>
   </g>
   <g id="line2d_83">
    <g clip-path="url(#p80b91cad16)">
     <use style="fill:#e99da6;fill-opacity:0;stroke:#d43d4f;stroke-opacity:0;stroke-width:0.5;" x="205.711438" xlink:href="#m05766b644c" y="57.456017"/>
    </g>
   </g>
   <g id="line2d_84">
    <g clip-path="url(#p80b91cad16)">
     <use style="fill:#e99da6;fill-opacity:0;stroke:#d43d4f;stroke-opacity:0;stroke-width:0.5;" x="202.488079" xlink:href="#m05766b644c" y="55.981734"/>
    </g>
   </g>
   <g id="line2d_85">
    <g clip-path="url(#p80b91cad16)">
     <use style="fill:#e99da6;fill-opacity:0;stroke:#d43d4f;stroke-opacity:0;stroke-width:0.5;" x="199.620241" xlink:href="#m05766b644c" y="53.854531"/>
    </g>
   </g>
   <g id="line2d_86">
    <g clip-path="url(#p80b91cad16)">
     <use style="fill:#e99da6;fill-opacity:0;stroke:#d43d4f;stroke-opacity:0;stroke-width:0.5;" x="197.052764" xlink:href="#m05766b644c" y="51.787306"/>
    </g>
   </g>
   <g id="line2d_87">
    <defs>
     <path d="M -0 2.12132 
L 2.12132 0 
L 0 -2.12132 
L -2.12132 -0 
z
" id="m737bfb42ff" style="stroke:#5e4fa2;stroke-linejoin:miter;stroke-width:0.5;"/>
    </defs>
    <g clip-path="url(#p80b91cad16)">
     <use style="fill:#aea6d0;fill-opacity:0.501961;stroke:#5e4fa2;stroke-linejoin:miter;stroke-width:0.5;" x="236.272603" xlink:href="#m737bfb42ff" y="21.121817"/>
    </g>
   </g>
   <g id="line2d_88">
    <g clip-path="url(#p80b91cad16)">
     <use style="fill:#aea6d0;fill-opacity:0.501961;stroke:#5e4fa2;stroke-linejoin:miter;stroke-width:0.5;" x="229.786486" xlink:href="#m737bfb42ff" y="22.140168"/>
    </g>
   </g>
   <g id="line2d_89">
    <g clip-path="url(#p80b91cad16)">
     <use style="fill:#aea6d0;fill-opacity:0.501961;stroke:#5e4fa2;stroke-linejoin:miter;stroke-width:0.5;" x="223.674782" xlink:href="#m737bfb42ff" y="20.128818"/>
    </g>
   </g>
   <g id="line2d_90">
    <g clip-path="url(#p80b91cad16)">
     <use style="fill:#aea6d0;fill-opacity:0.501961;stroke:#5e4fa2;stroke-linejoin:miter;stroke-width:0.5;" x="218.251886" xlink:href="#m737bfb42ff" y="19.672991"/>
    </g>
   </g>
   <g id="line2d_91">
    <g clip-path="url(#p80b91cad16)">
     <use style="fill:#aea6d0;fill-opacity:0.501961;stroke:#5e4fa2;stroke-linejoin:miter;stroke-width:0.5;" x="213.507514" xlink:href="#m737bfb42ff" y="18.784827"/>
    </g>
   </g>
   <g id="line2d_92">
    <g clip-path="url(#p80b91cad16)">
     <use style="fill:#aea6d0;fill-opacity:0.501961;stroke:#5e4fa2;stroke-linejoin:miter;stroke-width:0.5;" x="209.357691" xlink:href="#m737bfb42ff" y="18.294708"/>
    </g>
   </g>
   <g id="line2d_93">
    <g clip-path="url(#p80b91cad16)">
     <use style="fill:#aea6d0;fill-opacity:0.501961;stroke:#5e4fa2;stroke-linejoin:miter;stroke-width:0.5;" x="205.711438" xlink:href="#m737bfb42ff" y="17.467069"/>
    </g>
   </g>
   <g id="line2d_94">
    <g clip-path="url(#p80b91cad16)">
     <use style="fill:#aea6d0;fill-opacity:0.501961;stroke:#5e4fa2;stroke-linejoin:miter;stroke-width:0.5;" x="202.488079" xlink:href="#m737bfb42ff" y="17.214386"/>
    </g>
   </g>
   <g id="line2d_95">
    <g clip-path="url(#p80b91cad16)">
     <use style="fill:#aea6d0;fill-opacity:0.501961;stroke:#5e4fa2;stroke-linejoin:miter;stroke-width:0.5;" x="199.620241" xlink:href="#m737bfb42ff" y="16.276032"/>
    </g>
   </g>
   <g id="line2d_96">
    <g clip-path="url(#p80b91cad16)">
     <use style="fill:#aea6d0;fill-opacity:0.501961;stroke:#5e4fa2;stroke-linejoin:miter;stroke-width:0.5;" x="197.052764" xlink:href="#m737bfb42ff" y="16.136606"/>
    </g>
   </g>
   <g id="line2d_97">
    <defs>
     <path d="M -0 2.12132 
L 2.12132 0 
L 0 -2.12132 
L -2.12132 -0 
z
" id="m6b51757508" style="stroke:#d43d4f;stroke-linejoin:miter;stroke-width:0.5;"/>
    </defs>
    <g clip-path="url(#p80b91cad16)">
     <use style="fill:#e99da6;fill-opacity:0.501961;stroke:#d43d4f;stroke-linejoin:miter;stroke-width:0.5;" x="236.272603" xlink:href="#m6b51757508" y="50.727954"/>
    </g>
   </g>
   <g id="line2d_98">
    <g clip-path="url(#p80b91cad16)">
     <use style="fill:#e99da6;fill-opacity:0.501961;stroke:#d43d4f;stroke-linejoin:miter;stroke-width:0.5;" x="229.786486" xlink:href="#m6b51757508" y="50.445353"/>
    </g>
   </g>
   <g id="line2d_99">
    <g clip-path="url(#p80b91cad16)">
     <use style="fill:#e99da6;fill-opacity:0.501961;stroke:#d43d4f;stroke-linejoin:miter;stroke-width:0.5;" x="223.674782" xlink:href="#m6b51757508" y="46.513291"/>
    </g>
   </g>
   <g id="line2d_100">
    <g clip-path="url(#p80b91cad16)">
     <use style="fill:#e99da6;fill-opacity:0.501961;stroke:#d43d4f;stroke-linejoin:miter;stroke-width:0.5;" x="218.251886" xlink:href="#m6b51757508" y="46.312315"/>
    </g>
   </g>
   <g id="line2d_101">
    <g clip-path="url(#p80b91cad16)">
     <use style="fill:#e99da6;fill-opacity:0.501961;stroke:#d43d4f;stroke-linejoin:miter;stroke-width:0.5;" x="213.507514" xlink:href="#m6b51757508" y="45.240373"/>
    </g>
   </g>
   <g id="line2d_102">
    <g clip-path="url(#p80b91cad16)">
     <use style="fill:#e99da6;fill-opacity:0.501961;stroke:#d43d4f;stroke-linejoin:miter;stroke-width:0.5;" x="209.357691" xlink:href="#m6b51757508" y="43.925409"/>
    </g>
   </g>
   <g id="line2d_103">
    <g clip-path="url(#p80b91cad16)">
     <use style="fill:#e99da6;fill-opacity:0.501961;stroke:#d43d4f;stroke-linejoin:miter;stroke-width:0.5;" x="205.711438" xlink:href="#m6b51757508" y="42.993875"/>
    </g>
   </g>
   <g id="line2d_104">
    <g clip-path="url(#p80b91cad16)">
     <use style="fill:#e99da6;fill-opacity:0.501961;stroke:#d43d4f;stroke-linejoin:miter;stroke-width:0.5;" x="202.488079" xlink:href="#m6b51757508" y="41.342267"/>
    </g>
   </g>
   <g id="line2d_105">
    <g clip-path="url(#p80b91cad16)">
     <use style="fill:#e99da6;fill-opacity:0.501961;stroke:#d43d4f;stroke-linejoin:miter;stroke-width:0.5;" x="199.620241" xlink:href="#m6b51757508" y="40.109783"/>
    </g>
   </g>
   <g id="line2d_106">
    <g clip-path="url(#p80b91cad16)">
     <use style="fill:#e99da6;fill-opacity:0.501961;stroke:#d43d4f;stroke-linejoin:miter;stroke-width:0.5;" x="197.052764" xlink:href="#m6b51757508" y="38.795843"/>
    </g>
   </g>
   <g id="patch_8">
    <path d="M 145.212247 86.26628 
L 145.212247 0.72 
" style="fill:none;stroke:#000000;stroke-linecap:square;stroke-linejoin:miter;stroke-width:0.35;"/>
   </g>
   <g id="patch_9">
    <path d="M 239.80032 86.26628 
L 239.80032 0.72 
" style="fill:none;stroke:#000000;stroke-linecap:square;stroke-linejoin:miter;stroke-width:0.35;"/>
   </g>
   <g id="patch_10">
    <path d="M 145.212247 86.26628 
L 239.80032 86.26628 
" style="fill:none;stroke:#000000;stroke-linecap:square;stroke-linejoin:miter;stroke-width:0.35;"/>
   </g>
   <g id="patch_11">
    <path d="M 145.212247 0.72 
L 239.80032 0.72 
" style="fill:none;stroke:#000000;stroke-linecap:square;stroke-linejoin:miter;stroke-width:0.35;"/>
   </g>
   <g id="text_17">
    <!-- $V =  0.25J,\; V^\prime=0.355J$ -->
    <g transform="translate(146.158128 84.716535)scale(0.08 -0.08)">
     <defs>
      <path d="M 1414 2176 
C 1984 2176 2234 1673 2234 1094 
C 2234 322 1824 25 1453 25 
C 1114 25 563 193 390 691 
C 422 678 454 678 486 678 
C 640 678 755 780 755 947 
C 755 1132 614 1216 486 1216 
C 378 1216 211 1164 211 927 
C 211 335 787 -128 1466 -128 
C 2176 -128 2720 432 2720 1087 
C 2720 1718 2208 2176 1600 2246 
C 2086 2347 2554 2776 2554 3353 
C 2554 3856 2048 4224 1472 4224 
C 890 4224 378 3862 378 3347 
C 378 3123 544 3084 627 3084 
C 762 3084 877 3167 877 3334 
C 877 3500 762 3584 627 3584 
C 602 3584 570 3584 544 3571 
C 730 3999 1235 4076 1459 4076 
C 1683 4076 2106 3966 2106 3347 
C 2106 3167 2080 2851 1862 2574 
C 1670 2329 1453 2316 1242 2297 
C 1210 2297 1062 2284 1037 2284 
C 992 2278 966 2272 966 2227 
C 966 2182 973 2176 1101 2176 
L 1414 2176 
z
" id="CMR17-33" transform="scale(0.015625)"/>
     </defs>
     <use transform="scale(0.996264)" xlink:href="#CMMI12-56"/>
     <use transform="translate(106.221329 0)scale(0.996264)" xlink:href="#CMR17-3d"/>
     <use transform="translate(205.610127 0)scale(0.996264)" xlink:href="#CMR17-30"/>
     <use transform="translate(251.300604 0)scale(0.996264)" xlink:href="#CMMI12-3a"/>
     <use transform="translate(278.397781 0)scale(0.996264)" xlink:href="#CMR17-32"/>
     <use transform="translate(324.088258 0)scale(0.996264)" xlink:href="#CMR17-35"/>
     <use transform="translate(369.778735 0)scale(0.996264)" xlink:href="#CMMI12-4a"/>
     <use transform="translate(422.082535 0)scale(0.996264)" xlink:href="#CMMI12-3b"/>
     <use transform="translate(493.458126 0)scale(0.996264)" xlink:href="#CMMI12-56"/>
     <use transform="translate(572.005446 36.153639)scale(0.697382)" xlink:href="#CMSY10-30"/>
     <use transform="translate(619.355548 0)scale(0.996264)" xlink:href="#CMR17-3d"/>
     <use transform="translate(718.744345 0)scale(0.996264)" xlink:href="#CMR17-30"/>
     <use transform="translate(764.434822 0)scale(0.996264)" xlink:href="#CMMI12-3a"/>
     <use transform="translate(791.531999 0)scale(0.996264)" xlink:href="#CMR17-33"/>
     <use transform="translate(837.222476 0)scale(0.996264)" xlink:href="#CMR17-35"/>
     <use transform="translate(882.912953 0)scale(0.996264)" xlink:href="#CMR17-35"/>
     <use transform="translate(928.60343 0)scale(0.996264)" xlink:href="#CMMI12-4a"/>
    </g>
   </g>
   <g id="PolyCollection_5">
    <path d="M 144.161269 12.350588 
L 144.161269 22.832607 
L 146.263226 22.832607 
L 146.263226 12.350588 
L 146.263226 12.350588 
L 144.161269 12.350588 
z
" style="fill:none;"/>
   </g>
   <g id="PolyCollection_6">
    <path d="M 144.161269 11.829025 
L 144.161269 16.044274 
L 146.263226 16.044274 
L 146.263226 11.829025 
L 146.263226 11.829025 
L 144.161269 11.829025 
z
" style="fill:#d43d4f;fill-opacity:0.6;"/>
   </g>
   <g id="PolyCollection_7">
    <path d="M 144.161269 18.561111 
L 144.161269 19.824145 
L 146.263226 19.824145 
L 146.263226 18.561111 
L 146.263226 18.561111 
L 144.161269 18.561111 
z
" style="fill:none;"/>
   </g>
   <g id="PolyCollection_8">
    <path d="M 144.161269 4.608467 
L 144.161269 9.501056 
L 146.263226 9.501056 
L 146.263226 4.608467 
L 146.263226 4.608467 
L 144.161269 4.608467 
z
" style="fill:#5e4fa2;fill-opacity:0.6;"/>
   </g>
  </g>
 </g>
 <defs>
  <clipPath id="p8e608253af">
   <rect height="85.54628" width="94.588073" x="39.21335" y="0.72"/>
  </clipPath>
  <clipPath id="p80b91cad16">
   <rect height="85.54628" width="94.588073" x="145.212247" y="0.72"/>
  </clipPath>
 </defs>
</svg>
