<?xml version="1.0" encoding="utf-8" standalone="no"?>
<!DOCTYPE svg PUBLIC "-//W3C//DTD SVG 1.1//EN"
  "http://www.w3.org/Graphics/SVG/1.1/DTD/svg11.dtd">
<svg height="109.04094pt" version="1.1" viewBox="0 0 240.52032 109.04094" width="240.52032pt" xmlns="http://www.w3.org/2000/svg" xmlns:xlink="http://www.w3.org/1999/xlink">
 <metadata>
  <rdf:RDF xmlns:cc="http://creativecommons.org/ns#" xmlns:dc="http://purl.org/dc/elements/1.1/" xmlns:rdf="http://www.w3.org/1999/02/22-rdf-syntax-ns#">
   <cc:Work>
    <dc:type rdf:resource="http://purl.org/dc/dcmitype/StillImage"/>
    <dc:date>2021-07-21T14:27:27.506788</dc:date>
    <dc:format>image/svg+xml</dc:format>
    <dc:creator>
     <cc:Agent>
      <dc:title>Matplotlib v3.4.2, https://matplotlib.org/</dc:title>
     </cc:Agent>
    </dc:creator>
   </cc:Work>
  </rdf:RDF>
 </metadata>
 <defs>
  <style type="text/css">*{stroke-linecap:butt;stroke-linejoin:round;}</style>
 </defs>
 <g id="figure_1">
  <g id="patch_1">
   <path d="M 0 109.04094 
L 240.52032 109.04094 
L 240.52032 0 
L 0 0 
z
" style="fill:none;"/>
  </g>
  <g id="axes_1">
   <g id="patch_2">
    <path d="M 39.21335 86.26628 
L 133.801423 86.26628 
L 133.801423 0.72 
L 39.21335 0.72 
z
" style="fill:none;"/>
   </g>
   <g id="matplotlib.axis_1">
    <g id="xtick_1">
     <g id="line2d_1">
      <defs>
       <path d="M 0 0 
L 0 2 
" id="md42a7fccef" style="stroke:#000000;stroke-width:0.35;"/>
      </defs>
      <g>
       <use style="stroke:#000000;stroke-width:0.35;" x="39.21335" xlink:href="#md42a7fccef" y="86.26628"/>
      </g>
     </g>
     <g id="text_1">
      <!-- $\mathdefault{0.0}$ -->
      <g transform="translate(33.803005 96.801082)scale(0.08 -0.08)">
       <defs>
        <path d="M 2688 2025 
C 2688 2416 2682 3080 2413 3591 
C 2176 4039 1798 4198 1466 4198 
C 1158 4198 768 4058 525 3597 
C 269 3118 243 2524 243 2025 
C 243 1661 250 1106 448 619 
C 723 -39 1216 -128 1466 -128 
C 1760 -128 2208 -7 2470 600 
C 2662 1042 2688 1559 2688 2025 
z
M 1466 -26 
C 1056 -26 813 325 723 812 
C 653 1188 653 1738 653 2096 
C 653 2588 653 2997 736 3387 
C 858 3929 1216 4096 1466 4096 
C 1728 4096 2067 3923 2189 3400 
C 2272 3036 2278 2607 2278 2096 
C 2278 1680 2278 1169 2202 792 
C 2067 95 1690 -26 1466 -26 
z
" id="CMR17-30" transform="scale(0.015625)"/>
        <path d="M 1178 307 
C 1178 492 1024 619 870 619 
C 685 619 557 466 557 313 
C 557 128 710 0 864 0 
C 1050 0 1178 153 1178 307 
z
" id="CMMI12-3a" transform="scale(0.015625)"/>
       </defs>
       <use transform="scale(0.996264)" xlink:href="#CMR17-30"/>
       <use transform="translate(45.690477 0)scale(0.996264)" xlink:href="#CMMI12-3a"/>
       <use transform="translate(72.787654 0)scale(0.996264)" xlink:href="#CMR17-30"/>
      </g>
     </g>
    </g>
    <g id="xtick_2">
     <g id="line2d_2">
      <g>
       <use style="stroke:#000000;stroke-width:0.35;" x="91.762279" xlink:href="#md42a7fccef" y="86.26628"/>
      </g>
     </g>
     <g id="text_2">
      <!-- $\mathdefault{0.2}$ -->
      <g transform="translate(86.351935 96.801082)scale(0.08 -0.08)">
       <defs>
        <path d="M 2669 989 
L 2554 989 
C 2490 536 2438 459 2413 420 
C 2381 369 1920 369 1830 369 
L 602 369 
C 832 619 1280 1072 1824 1597 
C 2214 1967 2669 2402 2669 3035 
C 2669 3790 2067 4224 1395 4224 
C 691 4224 262 3604 262 3030 
C 262 2780 448 2748 525 2748 
C 589 2748 781 2787 781 3010 
C 781 3207 614 3264 525 3264 
C 486 3264 448 3258 422 3245 
C 544 3790 915 4058 1306 4058 
C 1862 4058 2227 3617 2227 3035 
C 2227 2479 1901 2000 1536 1584 
L 262 146 
L 262 0 
L 2515 0 
L 2669 989 
z
" id="CMR17-32" transform="scale(0.015625)"/>
       </defs>
       <use transform="scale(0.996264)" xlink:href="#CMR17-30"/>
       <use transform="translate(45.690477 0)scale(0.996264)" xlink:href="#CMMI12-3a"/>
       <use transform="translate(72.787654 0)scale(0.996264)" xlink:href="#CMR17-32"/>
      </g>
     </g>
    </g>
    <g id="text_3">
     <!-- $\log (N) / N$ -->
     <g transform="translate(68.717265 106.328412)scale(0.08 -0.08)">
      <defs>
       <path d="M 979 4396 
L 218 4326 
L 218 4160 
C 595 4160 653 4122 653 3817 
L 653 426 
C 653 184 627 153 218 153 
L 218 -13 
C 371 0 653 0 813 0 
C 979 0 1261 0 1414 -13 
L 1414 153 
C 1005 153 979 178 979 426 
L 979 4396 
z
" id="CMR17-6c" transform="scale(0.015625)"/>
       <path d="M 2758 1356 
C 2758 2176 2163 2816 1466 2816 
C 768 2816 173 2176 173 1356 
C 173 551 768 -64 1466 -64 
C 2163 -64 2758 551 2758 1356 
z
M 1466 51 
C 1165 51 909 230 762 480 
C 602 767 582 1126 582 1408 
C 582 1677 595 2010 762 2298 
C 890 2509 1139 2714 1466 2714 
C 1754 2714 1997 2554 2150 2330 
C 2349 2029 2349 1607 2349 1408 
C 2349 1158 2336 775 2163 467 
C 1984 173 1709 51 1466 51 
z
" id="CMR17-6f" transform="scale(0.015625)"/>
       <path d="M 710 1164 
C 832 1068 1043 960 1299 960 
C 1805 960 2240 1357 2240 1888 
C 2240 2054 2189 2310 1997 2509 
C 2176 2692 2438 2752 2586 2752 
C 2611 2752 2650 2752 2682 2734 
C 2656 2728 2598 2703 2598 2605 
C 2598 2527 2656 2471 2739 2471 
C 2835 2471 2886 2533 2886 2614 
C 2886 2731 2790 2854 2586 2854 
C 2330 2854 2106 2738 1926 2580 
C 1734 2753 1504 2816 1299 2816 
C 794 2816 358 2419 358 1888 
C 358 1522 570 1292 634 1228 
C 442 1004 442 743 442 711 
C 442 545 506 302 723 168 
C 390 85 128 -169 128 -486 
C 128 -943 736 -1280 1466 -1280 
C 2170 -1280 2803 -956 2803 -479 
C 2803 384 1856 384 1363 384 
C 1216 384 954 384 922 391 
C 723 423 589 602 589 826 
C 589 883 589 1024 710 1164 
z
M 1299 1068 
C 736 1068 736 1760 736 1889 
C 736 2016 736 2708 1299 2708 
C 1862 2708 1862 2016 1862 1889 
C 1862 1760 1862 1068 1299 1068 
z
M 1466 -1171 
C 826 -1171 384 -835 384 -486 
C 384 -289 493 -105 634 -4 
C 794 104 858 104 1293 104 
C 1818 104 2547 104 2547 -486 
C 2547 -835 2106 -1171 1466 -1171 
z
" id="CMR17-67" transform="scale(0.015625)"/>
       <path d="M 1958 -1561 
C 1958 -1555 1958 -1542 1939 -1523 
C 1645 -1224 858 -407 858 1581 
C 858 3569 1632 4379 1946 4697 
C 1946 4704 1958 4717 1958 4736 
C 1958 4755 1939 4768 1914 4768 
C 1843 4768 1299 4296 986 3594 
C 666 2887 576 2199 576 1588 
C 576 1128 621 351 1005 -471 
C 1312 -1135 1837 -1600 1914 -1600 
C 1946 -1600 1958 -1587 1958 -1561 
z
" id="CMR17-28" transform="scale(0.015625)"/>
       <path d="M 4736 3698 
C 4806 3974 4909 4166 5395 4166 
C 5414 4166 5491 4166 5491 4279 
C 5491 4352 5434 4352 5408 4352 
C 5280 4352 4954 4352 4826 4352 
L 4518 4352 
C 4429 4352 4314 4352 4224 4352 
C 4186 4352 4109 4352 4109 4230 
C 4109 4166 4160 4166 4205 4166 
C 4589 4166 4614 4019 4614 3903 
C 4614 3846 4608 3826 4589 3737 
L 3866 850 
L 2496 4249 
C 2451 4352 2445 4352 2304 4352 
L 1523 4352 
C 1395 4352 1338 4352 1338 4230 
C 1338 4166 1382 4166 1504 4166 
C 1536 4166 1914 4166 1914 4115 
C 1914 4102 1901 4051 1894 4032 
L 1043 635 
C 966 320 813 186 390 186 
C 358 186 294 186 294 67 
C 294 0 358 0 378 0 
C 506 0 832 0 960 0 
L 1267 0 
C 1357 0 1466 0 1555 0 
C 1600 0 1670 0 1670 122 
C 1670 180 1606 186 1581 186 
C 1370 186 1165 224 1165 454 
C 1165 505 1178 562 1190 613 
L 2054 4032 
C 2093 3968 2093 3956 2118 3898 
L 3642 115 
C 3674 38 3686 0 3744 0 
C 3808 0 3814 19 3840 128 
L 4736 3698 
z
" id="CMMI12-4e" transform="scale(0.015625)"/>
       <path d="M 1683 1581 
C 1683 2040 1638 2817 1254 3639 
C 947 4303 422 4768 346 4768 
C 326 4768 301 4761 301 4729 
C 301 4717 307 4710 314 4697 
C 621 4378 1402 3568 1402 1584 
C 1402 -407 627 -1217 314 -1537 
C 307 -1549 301 -1556 301 -1568 
C 301 -1600 326 -1600 346 -1600 
C 416 -1600 960 -1128 1274 -426 
C 1594 281 1683 969 1683 1581 
z
" id="CMR17-29" transform="scale(0.015625)"/>
       <path d="M 2746 4562 
C 2746 4569 2784 4666 2784 4678 
C 2784 4755 2720 4800 2669 4800 
C 2637 4800 2579 4800 2528 4659 
L 384 -1363 
C 384 -1370 346 -1465 346 -1478 
C 346 -1555 410 -1600 461 -1600 
C 499 -1600 557 -1593 602 -1459 
L 2746 4562 
z
" id="CMMI12-3d" transform="scale(0.015625)"/>
      </defs>
      <use transform="scale(0.996264)" xlink:href="#CMR17-6c"/>
      <use transform="translate(24.871058 0)scale(0.996264)" xlink:href="#CMR17-6f"/>
      <use transform="translate(70.561536 0)scale(0.996264)" xlink:href="#CMR17-67"/>
      <use transform="translate(117.553179 0.003177)scale(0.996264)" xlink:href="#CMR17-28"/>
      <use transform="translate(152.833947 0)scale(0.996264)" xlink:href="#CMMI12-4e"/>
      <use transform="translate(241.355719 0.003177)scale(0.996264)" xlink:href="#CMR17-29"/>
      <use transform="translate(276.636487 0)scale(0.996264)" xlink:href="#CMMI12-3d"/>
      <use transform="translate(319.99197 0)scale(0.996264)" xlink:href="#CMMI12-4e"/>
     </g>
    </g>
   </g>
   <g id="matplotlib.axis_2">
    <g id="ytick_1">
     <g id="line2d_3">
      <defs>
       <path d="M 0 0 
L -2 0 
" id="m8844691d2d" style="stroke:#000000;stroke-width:0.35;"/>
      </defs>
      <g>
       <use style="stroke:#000000;stroke-width:0.35;" x="39.21335" xlink:href="#m8844691d2d" y="83.525299"/>
      </g>
     </g>
     <g id="text_4">
      <!-- $\mathdefault{0.0000}$ -->
      <g transform="translate(10.690112 86.2927)scale(0.08 -0.08)">
       <use transform="scale(0.996264)" xlink:href="#CMR17-30"/>
       <use transform="translate(45.690477 0)scale(0.996264)" xlink:href="#CMMI12-3a"/>
       <use transform="translate(72.787654 0)scale(0.996264)" xlink:href="#CMR17-30"/>
       <use transform="translate(118.478131 0)scale(0.996264)" xlink:href="#CMR17-30"/>
       <use transform="translate(164.168608 0)scale(0.996264)" xlink:href="#CMR17-30"/>
       <use transform="translate(209.859086 0)scale(0.996264)" xlink:href="#CMR17-30"/>
      </g>
     </g>
    </g>
    <g id="ytick_2">
     <g id="line2d_4">
      <g>
       <use style="stroke:#000000;stroke-width:0.35;" x="39.21335" xlink:href="#m8844691d2d" y="64.552636"/>
      </g>
     </g>
     <g id="text_5">
      <!-- $\mathdefault{0.0025}$ -->
      <g transform="translate(10.690112 67.320036)scale(0.08 -0.08)">
       <defs>
        <path d="M 730 3692 
C 794 3666 1056 3584 1325 3584 
C 1920 3584 2246 3911 2432 4100 
C 2432 4157 2432 4192 2394 4192 
C 2387 4192 2374 4192 2323 4163 
C 2099 4058 1837 3973 1517 3973 
C 1325 3973 1037 3999 723 4139 
C 653 4171 640 4171 634 4171 
C 602 4171 595 4164 595 4037 
L 595 2203 
C 595 2089 595 2057 659 2057 
C 691 2057 704 2070 736 2114 
C 941 2401 1222 2522 1542 2522 
C 1766 2522 2246 2382 2246 1289 
C 2246 1085 2246 715 2054 421 
C 1894 159 1645 25 1370 25 
C 947 25 518 320 403 814 
C 429 807 480 795 506 795 
C 589 795 749 840 749 1038 
C 749 1210 627 1280 506 1280 
C 358 1280 262 1190 262 1011 
C 262 454 704 -128 1382 -128 
C 2042 -128 2669 440 2669 1264 
C 2669 2030 2170 2624 1549 2624 
C 1222 2624 947 2503 730 2274 
L 730 3692 
z
" id="CMR17-35" transform="scale(0.015625)"/>
       </defs>
       <use transform="scale(0.996264)" xlink:href="#CMR17-30"/>
       <use transform="translate(45.690477 0)scale(0.996264)" xlink:href="#CMMI12-3a"/>
       <use transform="translate(72.787654 0)scale(0.996264)" xlink:href="#CMR17-30"/>
       <use transform="translate(118.478131 0)scale(0.996264)" xlink:href="#CMR17-30"/>
       <use transform="translate(164.168608 0)scale(0.996264)" xlink:href="#CMR17-32"/>
       <use transform="translate(209.859086 0)scale(0.996264)" xlink:href="#CMR17-35"/>
      </g>
     </g>
    </g>
    <g id="ytick_3">
     <g id="line2d_5">
      <g>
       <use style="stroke:#000000;stroke-width:0.35;" x="39.21335" xlink:href="#m8844691d2d" y="45.579972"/>
      </g>
     </g>
     <g id="text_6">
      <!-- $\mathdefault{0.0050}$ -->
      <g transform="translate(10.690112 48.347373)scale(0.08 -0.08)">
       <use transform="scale(0.996264)" xlink:href="#CMR17-30"/>
       <use transform="translate(45.690477 0)scale(0.996264)" xlink:href="#CMMI12-3a"/>
       <use transform="translate(72.787654 0)scale(0.996264)" xlink:href="#CMR17-30"/>
       <use transform="translate(118.478131 0)scale(0.996264)" xlink:href="#CMR17-30"/>
       <use transform="translate(164.168608 0)scale(0.996264)" xlink:href="#CMR17-35"/>
       <use transform="translate(209.859086 0)scale(0.996264)" xlink:href="#CMR17-30"/>
      </g>
     </g>
    </g>
    <g id="ytick_4">
     <g id="line2d_6">
      <g>
       <use style="stroke:#000000;stroke-width:0.35;" x="39.21335" xlink:href="#m8844691d2d" y="26.607309"/>
      </g>
     </g>
     <g id="text_7">
      <!-- $\mathdefault{0.0075}$ -->
      <g transform="translate(10.690112 29.37471)scale(0.08 -0.08)">
       <defs>
        <path d="M 2886 3941 
L 2886 4081 
L 1382 4081 
C 634 4081 621 4165 595 4288 
L 480 4288 
L 294 3094 
L 410 3094 
C 429 3215 474 3540 550 3661 
C 589 3712 1062 3712 1171 3712 
L 2579 3712 
L 1869 2661 
C 1395 1954 1069 999 1069 165 
C 1069 89 1069 -128 1299 -128 
C 1530 -128 1530 89 1530 171 
L 1530 465 
C 1530 1508 1709 2196 2003 2636 
L 2886 3941 
z
" id="CMR17-37" transform="scale(0.015625)"/>
       </defs>
       <use transform="scale(0.996264)" xlink:href="#CMR17-30"/>
       <use transform="translate(45.690477 0)scale(0.996264)" xlink:href="#CMMI12-3a"/>
       <use transform="translate(72.787654 0)scale(0.996264)" xlink:href="#CMR17-30"/>
       <use transform="translate(118.478131 0)scale(0.996264)" xlink:href="#CMR17-30"/>
       <use transform="translate(164.168608 0)scale(0.996264)" xlink:href="#CMR17-37"/>
       <use transform="translate(209.859086 0)scale(0.996264)" xlink:href="#CMR17-35"/>
      </g>
     </g>
    </g>
    <g id="ytick_5">
     <g id="line2d_7">
      <g>
       <use style="stroke:#000000;stroke-width:0.35;" x="39.21335" xlink:href="#m8844691d2d" y="7.634646"/>
      </g>
     </g>
     <g id="text_8">
      <!-- $\mathdefault{0.0100}$ -->
      <g transform="translate(10.690112 10.402047)scale(0.08 -0.08)">
       <defs>
        <path d="M 1702 4058 
C 1702 4192 1696 4192 1606 4192 
C 1357 3916 979 3827 621 3827 
C 602 3827 570 3827 563 3808 
C 557 3795 557 3782 557 3648 
C 755 3648 1088 3686 1344 3839 
L 1344 461 
C 1344 236 1331 160 781 160 
L 589 160 
L 589 0 
C 896 0 1216 0 1523 0 
C 1830 0 2150 0 2458 0 
L 2458 160 
L 2266 160 
C 1715 160 1702 230 1702 458 
L 1702 4058 
z
" id="CMR17-31" transform="scale(0.015625)"/>
       </defs>
       <use transform="scale(0.996264)" xlink:href="#CMR17-30"/>
       <use transform="translate(45.690477 0)scale(0.996264)" xlink:href="#CMMI12-3a"/>
       <use transform="translate(72.787654 0)scale(0.996264)" xlink:href="#CMR17-30"/>
       <use transform="translate(118.478131 0)scale(0.996264)" xlink:href="#CMR17-31"/>
       <use transform="translate(164.168608 0)scale(0.996264)" xlink:href="#CMR17-30"/>
       <use transform="translate(209.859086 0)scale(0.996264)" xlink:href="#CMR17-30"/>
      </g>
     </g>
    </g>
    <g id="text_9">
     <!-- $\Delta S(t\to\infty)/n$ -->
     <g transform="translate(6.697584 70.148645)rotate(-90)scale(0.08 -0.08)">
      <defs>
       <path d="M 2598 4403 
C 2547 4512 2522 4512 2470 4512 
C 2394 4512 2387 4499 2342 4409 
L 269 109 
C 262 96 237 38 237 32 
C 237 6 243 0 358 0 
L 4576 0 
C 4691 0 4698 6 4698 32 
C 4698 38 4672 96 4666 109 
L 2598 4403 
z
M 2310 4038 
L 4083 358 
L 531 358 
L 2310 4038 
z
" id="CMR17-1" transform="scale(0.015625)"/>
       <path d="M 4064 4423 
C 4064 4480 4019 4480 4006 4480 
C 3981 4480 3974 4474 3898 4378 
C 3859 4333 3597 4001 3590 3995 
C 3379 4410 2957 4480 2688 4480 
C 1875 4480 1139 3743 1139 3025 
C 1139 2549 1427 2269 1741 2161 
C 1811 2135 2189 2033 2381 1989 
C 2707 1900 2790 1875 2925 1735 
C 2950 1703 3078 1557 3078 1258 
C 3078 667 2528 57 1888 57 
C 1363 57 781 280 781 991 
C 781 1112 806 1265 826 1328 
C 826 1348 832 1378 832 1391 
C 832 1417 819 1449 768 1449 
C 710 1449 704 1436 678 1328 
L 352 24 
C 352 18 326 -64 326 -71 
C 326 -128 378 -128 390 -128 
C 416 -128 422 -122 499 -26 
L 794 356 
C 947 126 1280 -128 1875 -128 
C 2701 -128 3456 666 3456 1460 
C 3456 1728 3392 1963 3149 2197 
C 3014 2331 2899 2363 2310 2516 
C 1882 2630 1824 2649 1709 2751 
C 1600 2858 1517 3011 1517 3227 
C 1517 3761 2061 4308 2669 4308 
C 3296 4308 3590 3926 3590 3323 
C 3590 3158 3558 2986 3558 2961 
C 3558 2903 3610 2903 3629 2903 
C 3686 2903 3693 2922 3718 3024 
L 4064 4423 
z
" id="CMMI12-53" transform="scale(0.015625)"/>
       <path d="M 1286 2566 
L 1875 2566 
C 1997 2566 2061 2566 2061 2681 
C 2061 2752 2022 2752 1894 2752 
L 1331 2752 
L 1568 3692 
C 1594 3781 1594 3794 1594 3840 
C 1594 3943 1510 4000 1427 4000 
C 1376 4000 1229 3981 1178 3775 
L 928 2752 
L 326 2752 
C 198 2752 141 2752 141 2630 
C 141 2566 186 2566 307 2566 
L 877 2566 
L 454 881 
C 403 658 384 594 384 511 
C 384 211 595 -64 954 -64 
C 1600 -64 1946 868 1946 912 
C 1946 951 1920 970 1882 970 
C 1869 970 1843 970 1830 944 
C 1824 938 1818 931 1773 829 
C 1638 511 1344 64 973 64 
C 781 64 768 224 768 364 
C 768 370 768 492 787 568 
L 1286 2566 
z
" id="CMMI12-74" transform="scale(0.015625)"/>
       <path d="M 5338 1472 
C 4986 1203 4813 941 4762 858 
C 4474 416 4422 13 4422 6 
C 4422 -70 4499 -70 4550 -70 
C 4659 -70 4666 -58 4691 58 
C 4838 685 5216 1222 5939 1517 
C 6016 1542 6035 1555 6035 1600 
C 6035 1645 5997 1664 5984 1670 
C 5702 1779 4928 2099 4685 3174 
C 4666 3251 4659 3270 4550 3270 
C 4499 3270 4422 3270 4422 3193 
C 4422 3180 4480 2777 4749 2349 
C 4877 2157 5062 1933 5338 1728 
L 582 1728 
C 467 1728 352 1728 352 1600 
C 352 1472 467 1472 582 1472 
L 5338 1472 
z
" id="CMSY10-21" transform="scale(0.015625)"/>
       <path d="M 3251 1730 
C 2906 2166 2829 2262 2630 2422 
C 2272 2710 1914 2825 1587 2825 
C 838 2825 352 2122 352 1374 
C 352 639 826 -70 1562 -70 
C 2298 -70 2829 511 3142 1022 
C 3488 588 3565 492 3763 332 
C 4122 45 4480 -70 4806 -70 
C 5555 -70 6042 633 6042 1380 
C 6042 2115 5568 2825 4832 2825 
C 4096 2825 3565 2242 3251 1730 
z
M 3418 1514 
C 3680 1975 4154 2620 4877 2620 
C 5555 2620 5901 1955 5901 1380 
C 5901 753 5472 236 4909 236 
C 4538 236 4250 505 4115 638 
C 3955 811 3808 1009 3418 1514 
z
M 2976 1240 
C 2714 780 2240 134 1517 134 
C 838 134 493 799 493 1374 
C 493 2000 922 2518 1485 2518 
C 1856 2518 2144 2249 2278 2115 
C 2438 1943 2586 1744 2976 1240 
z
" id="CMSY10-31" transform="scale(0.015625)"/>
       <path d="M 1318 1871 
C 1331 1910 1491 2229 1728 2433 
C 1894 2586 2112 2689 2362 2689 
C 2618 2689 2707 2497 2707 2242 
C 2707 1878 2445 1150 2317 805 
C 2259 651 2227 568 2227 453 
C 2227 166 2426 -64 2733 -64 
C 3328 -64 3552 875 3552 913 
C 3552 945 3526 971 3488 971 
C 3430 971 3424 952 3392 843 
C 3245 319 3002 64 2752 64 
C 2688 64 2586 64 2586 269 
C 2586 429 2656 621 2694 710 
C 2822 1063 3091 1780 3091 2145 
C 3091 2528 2867 2816 2381 2816 
C 1811 2816 1510 2415 1395 2255 
C 1376 2618 1114 2816 832 2816 
C 627 2816 486 2695 378 2478 
C 262 2248 173 1865 173 1839 
C 173 1814 198 1782 243 1782 
C 294 1782 301 1788 339 1935 
C 442 2325 557 2689 813 2689 
C 960 2689 1011 2586 1011 2395 
C 1011 2254 947 2005 902 1807 
L 723 1118 
C 698 996 627 709 595 594 
C 550 428 480 128 480 96 
C 480 6 550 -64 646 -64 
C 723 -64 813 -26 864 70 
C 877 102 934 326 966 453 
L 1107 1028 
L 1318 1871 
z
" id="CMMI12-6e" transform="scale(0.015625)"/>
      </defs>
      <use transform="scale(0.996264)" xlink:href="#CMR17-1"/>
      <use transform="translate(76.91959 0)scale(0.996264)" xlink:href="#CMMI12-53"/>
      <use transform="translate(142.714029 0)scale(0.996264)" xlink:href="#CMR17-28"/>
      <use transform="translate(177.994797 0)scale(0.996264)" xlink:href="#CMMI12-74"/>
      <use transform="translate(240.895136 0)scale(0.996264)" xlink:href="#CMSY10-21"/>
      <use transform="translate(368.195819 0)scale(0.996264)" xlink:href="#CMSY10-31"/>
      <use transform="translate(467.822494 0)scale(0.996264)" xlink:href="#CMR17-29"/>
      <use transform="translate(503.103261 0)scale(0.996264)" xlink:href="#CMMI12-3d"/>
      <use transform="translate(551.87818 0)scale(0.996264)" xlink:href="#CMMI12-6e"/>
     </g>
    </g>
   </g>
   <g id="LineCollection_1">
    <path clip-path="url(#p91a72c88d2)" d="M 130.273705 28.120364 
L 130.273705 24.505593 
" style="fill:none;"/>
   </g>
   <g id="LineCollection_2">
    <path clip-path="url(#p91a72c88d2)" d="M 123.787589 27.504992 
L 123.787589 24.143814 
" style="fill:none;"/>
   </g>
   <g id="LineCollection_3">
    <path clip-path="url(#p91a72c88d2)" d="M 117.675885 26.708201 
L 117.675885 23.635817 
" style="fill:none;"/>
   </g>
   <g id="LineCollection_4">
    <path clip-path="url(#p91a72c88d2)" d="M 112.252989 26.299665 
L 112.252989 23.461449 
" style="fill:none;"/>
   </g>
   <g id="LineCollection_5">
    <path clip-path="url(#p91a72c88d2)" d="M 107.508617 25.507363 
L 107.508617 22.877496 
" style="fill:none;"/>
   </g>
   <g id="LineCollection_6">
    <path clip-path="url(#p91a72c88d2)" d="M 103.358794 25.16533 
L 103.358794 22.671231 
" style="fill:none;"/>
   </g>
   <g id="LineCollection_7">
    <path clip-path="url(#p91a72c88d2)" d="M 99.712541 24.925823 
L 99.712541 22.67903 
" style="fill:none;"/>
   </g>
   <g id="LineCollection_8">
    <path clip-path="url(#p91a72c88d2)" d="M 96.489181 24.675476 
L 96.489181 22.578067 
" style="fill:none;"/>
   </g>
   <g id="LineCollection_9">
    <path clip-path="url(#p91a72c88d2)" d="M 93.621343 24.344319 
L 93.621343 22.308292 
" style="fill:none;"/>
   </g>
   <g id="LineCollection_10">
    <path clip-path="url(#p91a72c88d2)" d="M 91.053866 24.089997 
L 91.053866 22.244605 
" style="fill:none;"/>
   </g>
   <g id="LineCollection_11">
    <path clip-path="url(#p91a72c88d2)" d="M 130.273705 72.870934 
L 130.273705 72.22972 
" style="fill:none;"/>
   </g>
   <g id="LineCollection_12">
    <path clip-path="url(#p91a72c88d2)" d="M 123.787589 71.15829 
L 123.787589 70.43039 
" style="fill:none;"/>
   </g>
   <g id="LineCollection_13">
    <path clip-path="url(#p91a72c88d2)" d="M 117.675885 67.7657 
L 117.675885 66.889314 
" style="fill:none;"/>
   </g>
   <g id="LineCollection_14">
    <path clip-path="url(#p91a72c88d2)" d="M 112.252989 65.33534 
L 112.252989 64.309248 
" style="fill:none;"/>
   </g>
   <g id="LineCollection_15">
    <path clip-path="url(#p91a72c88d2)" d="M 107.508617 62.66848 
L 107.508617 61.627072 
" style="fill:none;"/>
   </g>
   <g id="LineCollection_16">
    <path clip-path="url(#p91a72c88d2)" d="M 103.358794 60.464259 
L 103.358794 59.404391 
" style="fill:none;"/>
   </g>
   <g id="LineCollection_17">
    <path clip-path="url(#p91a72c88d2)" d="M 99.712541 57.982623 
L 99.712541 56.92941 
" style="fill:none;"/>
   </g>
   <g id="LineCollection_18">
    <path clip-path="url(#p91a72c88d2)" d="M 96.489181 56.52784 
L 96.489181 55.435628 
" style="fill:none;"/>
   </g>
   <g id="LineCollection_19">
    <path clip-path="url(#p91a72c88d2)" d="M 93.621343 54.305577 
L 93.621343 53.403485 
" style="fill:none;"/>
   </g>
   <g id="LineCollection_20">
    <path clip-path="url(#p91a72c88d2)" d="M 91.053866 52.239605 
L 91.053866 51.335006 
" style="fill:none;"/>
   </g>
   <g id="LineCollection_21">
    <path clip-path="url(#p91a72c88d2)" d="M 130.273705 37.90366 
L 130.273705 34.730584 
" style="fill:none;stroke:#5e4fa2;stroke-width:0.5;"/>
   </g>
   <g id="LineCollection_22">
    <path clip-path="url(#p91a72c88d2)" d="M 123.787589 36.48555 
L 123.787589 33.471656 
" style="fill:none;stroke:#5e4fa2;stroke-width:0.5;"/>
   </g>
   <g id="LineCollection_23">
    <path clip-path="url(#p91a72c88d2)" d="M 117.675885 35.495236 
L 117.675885 32.674118 
" style="fill:none;stroke:#5e4fa2;stroke-width:0.5;"/>
   </g>
   <g id="LineCollection_24">
    <path clip-path="url(#p91a72c88d2)" d="M 112.252989 34.705808 
L 112.252989 32.078616 
" style="fill:none;stroke:#5e4fa2;stroke-width:0.5;"/>
   </g>
   <g id="LineCollection_25">
    <path clip-path="url(#p91a72c88d2)" d="M 107.508617 33.852886 
L 107.508617 31.401708 
" style="fill:none;stroke:#5e4fa2;stroke-width:0.5;"/>
   </g>
   <g id="LineCollection_26">
    <path clip-path="url(#p91a72c88d2)" d="M 103.358794 33.404637 
L 103.358794 31.123356 
" style="fill:none;stroke:#5e4fa2;stroke-width:0.5;"/>
   </g>
   <g id="LineCollection_27">
    <path clip-path="url(#p91a72c88d2)" d="M 99.712541 33.225428 
L 99.712541 30.936889 
" style="fill:none;stroke:#5e4fa2;stroke-width:0.5;"/>
   </g>
   <g id="LineCollection_28">
    <path clip-path="url(#p91a72c88d2)" d="M 96.489181 32.803163 
L 96.489181 30.767986 
" style="fill:none;stroke:#5e4fa2;stroke-width:0.5;"/>
   </g>
   <g id="LineCollection_29">
    <path clip-path="url(#p91a72c88d2)" d="M 93.621343 32.394393 
L 93.621343 30.455678 
" style="fill:none;stroke:#5e4fa2;stroke-width:0.5;"/>
   </g>
   <g id="LineCollection_30">
    <path clip-path="url(#p91a72c88d2)" d="M 91.053866 32.138471 
L 91.053866 30.375177 
" style="fill:none;stroke:#5e4fa2;stroke-width:0.5;"/>
   </g>
   <g id="LineCollection_31">
    <path clip-path="url(#p91a72c88d2)" d="M 130.273705 75.298692 
L 130.273705 74.791671 
" style="fill:none;stroke:#d43d4f;stroke-width:0.5;"/>
   </g>
   <g id="LineCollection_32">
    <path clip-path="url(#p91a72c88d2)" d="M 123.787589 73.80163 
L 123.787589 73.195071 
" style="fill:none;stroke:#d43d4f;stroke-width:0.5;"/>
   </g>
   <g id="LineCollection_33">
    <path clip-path="url(#p91a72c88d2)" d="M 117.675885 71.113351 
L 117.675885 70.380464 
" style="fill:none;stroke:#d43d4f;stroke-width:0.5;"/>
   </g>
   <g id="LineCollection_34">
    <path clip-path="url(#p91a72c88d2)" d="M 112.252989 68.982922 
L 112.252989 68.154031 
" style="fill:none;stroke:#d43d4f;stroke-width:0.5;"/>
   </g>
   <g id="LineCollection_35">
    <path clip-path="url(#p91a72c88d2)" d="M 107.508617 66.834251 
L 107.508617 65.9194 
" style="fill:none;stroke:#d43d4f;stroke-width:0.5;"/>
   </g>
   <g id="LineCollection_36">
    <path clip-path="url(#p91a72c88d2)" d="M 103.358794 65.027289 
L 103.358794 64.106315 
" style="fill:none;stroke:#d43d4f;stroke-width:0.5;"/>
   </g>
   <g id="LineCollection_37">
    <path clip-path="url(#p91a72c88d2)" d="M 99.712541 62.835385 
L 99.712541 61.90379 
" style="fill:none;stroke:#d43d4f;stroke-width:0.5;"/>
   </g>
   <g id="LineCollection_38">
    <path clip-path="url(#p91a72c88d2)" d="M 96.489181 61.659458 
L 96.489181 60.713641 
" style="fill:none;stroke:#d43d4f;stroke-width:0.5;"/>
   </g>
   <g id="LineCollection_39">
    <path clip-path="url(#p91a72c88d2)" d="M 93.621343 59.887182 
L 93.621343 59.046696 
" style="fill:none;stroke:#d43d4f;stroke-width:0.5;"/>
   </g>
   <g id="LineCollection_40">
    <path clip-path="url(#p91a72c88d2)" d="M 91.053866 58.103585 
L 91.053866 57.223206 
" style="fill:none;stroke:#d43d4f;stroke-width:0.5;"/>
   </g>
   <g id="line2d_8">
    <path clip-path="url(#p91a72c88d2)" d="M 39.21335 19.192628 
L 135.871704 26.594281 
L 130.273705 26.165612 
" style="fill:none;stroke:#5e4fa2;stroke-linecap:round;stroke-opacity:0;stroke-width:0.5;"/>
   </g>
   <g id="line2d_9">
    <path clip-path="url(#p91a72c88d2)" d="M 39.21335 17.591598 
L 135.871704 81.737288 
L 130.273705 78.02227 
" style="fill:none;stroke:#d43d4f;stroke-linecap:round;stroke-opacity:0;stroke-width:0.5;"/>
   </g>
   <g id="line2d_10">
    <path clip-path="url(#p91a72c88d2)" d="M 39.21335 26.164815 
L 135.871704 35.610171 
L 130.273705 35.06314 
" style="fill:none;stroke:#5e4fa2;stroke-linecap:round;stroke-width:0.5;"/>
   </g>
   <g id="line2d_11">
    <path clip-path="url(#p91a72c88d2)" d="M 39.21335 29.579227 
L 135.871704 82.377813 
L 130.273705 79.319967 
" style="fill:none;stroke:#d43d4f;stroke-linecap:round;stroke-width:0.5;"/>
   </g>
   <g id="line2d_12">
    <defs>
     <path d="M 0 1.5 
C 0.397805 1.5 0.77937 1.341951 1.06066 1.06066 
C 1.341951 0.77937 1.5 0.397805 1.5 0 
C 1.5 -0.397805 1.341951 -0.77937 1.06066 -1.06066 
C 0.77937 -1.341951 0.397805 -1.5 0 -1.5 
C -0.397805 -1.5 -0.77937 -1.341951 -1.06066 -1.06066 
C -1.341951 -0.77937 -1.5 -0.397805 -1.5 0 
C -1.5 0.397805 -1.341951 0.77937 -1.06066 1.06066 
C -0.77937 1.341951 -0.397805 1.5 0 1.5 
z
" id="mca1af87f08" style="stroke:#5e4fa2;stroke-opacity:0;stroke-width:0.5;"/>
    </defs>
    <g clip-path="url(#p91a72c88d2)">
     <use style="fill:#aea6d0;fill-opacity:0;stroke:#5e4fa2;stroke-opacity:0;stroke-width:0.5;" x="130.273705" xlink:href="#mca1af87f08" y="26.312978"/>
    </g>
   </g>
   <g id="line2d_13">
    <g clip-path="url(#p91a72c88d2)">
     <use style="fill:#aea6d0;fill-opacity:0;stroke:#5e4fa2;stroke-opacity:0;stroke-width:0.5;" x="123.787589" xlink:href="#mca1af87f08" y="25.824403"/>
    </g>
   </g>
   <g id="line2d_14">
    <g clip-path="url(#p91a72c88d2)">
     <use style="fill:#aea6d0;fill-opacity:0;stroke:#5e4fa2;stroke-opacity:0;stroke-width:0.5;" x="117.675885" xlink:href="#mca1af87f08" y="25.172009"/>
    </g>
   </g>
   <g id="line2d_15">
    <g clip-path="url(#p91a72c88d2)">
     <use style="fill:#aea6d0;fill-opacity:0;stroke:#5e4fa2;stroke-opacity:0;stroke-width:0.5;" x="112.252989" xlink:href="#mca1af87f08" y="24.880557"/>
    </g>
   </g>
   <g id="line2d_16">
    <g clip-path="url(#p91a72c88d2)">
     <use style="fill:#aea6d0;fill-opacity:0;stroke:#5e4fa2;stroke-opacity:0;stroke-width:0.5;" x="107.508617" xlink:href="#mca1af87f08" y="24.19243"/>
    </g>
   </g>
   <g id="line2d_17">
    <g clip-path="url(#p91a72c88d2)">
     <use style="fill:#aea6d0;fill-opacity:0;stroke:#5e4fa2;stroke-opacity:0;stroke-width:0.5;" x="103.358794" xlink:href="#mca1af87f08" y="23.918281"/>
    </g>
   </g>
   <g id="line2d_18">
    <g clip-path="url(#p91a72c88d2)">
     <use style="fill:#aea6d0;fill-opacity:0;stroke:#5e4fa2;stroke-opacity:0;stroke-width:0.5;" x="99.712541" xlink:href="#mca1af87f08" y="23.802427"/>
    </g>
   </g>
   <g id="line2d_19">
    <g clip-path="url(#p91a72c88d2)">
     <use style="fill:#aea6d0;fill-opacity:0;stroke:#5e4fa2;stroke-opacity:0;stroke-width:0.5;" x="96.489181" xlink:href="#mca1af87f08" y="23.626772"/>
    </g>
   </g>
   <g id="line2d_20">
    <g clip-path="url(#p91a72c88d2)">
     <use style="fill:#aea6d0;fill-opacity:0;stroke:#5e4fa2;stroke-opacity:0;stroke-width:0.5;" x="93.621343" xlink:href="#mca1af87f08" y="23.326306"/>
    </g>
   </g>
   <g id="line2d_21">
    <g clip-path="url(#p91a72c88d2)">
     <use style="fill:#aea6d0;fill-opacity:0;stroke:#5e4fa2;stroke-opacity:0;stroke-width:0.5;" x="91.053866" xlink:href="#mca1af87f08" y="23.167301"/>
    </g>
   </g>
   <g id="line2d_22">
    <defs>
     <path d="M 0 1.5 
C 0.397805 1.5 0.77937 1.341951 1.06066 1.06066 
C 1.341951 0.77937 1.5 0.397805 1.5 0 
C 1.5 -0.397805 1.341951 -0.77937 1.06066 -1.06066 
C 0.77937 -1.341951 0.397805 -1.5 0 -1.5 
C -0.397805 -1.5 -0.77937 -1.341951 -1.06066 -1.06066 
C -1.341951 -0.77937 -1.5 -0.397805 -1.5 0 
C -1.5 0.397805 -1.341951 0.77937 -1.06066 1.06066 
C -0.77937 1.341951 -0.397805 1.5 0 1.5 
z
" id="mb670f19701" style="stroke:#d43d4f;stroke-opacity:0;stroke-width:0.5;"/>
    </defs>
    <g clip-path="url(#p91a72c88d2)">
     <use style="fill:#e99da6;fill-opacity:0;stroke:#d43d4f;stroke-opacity:0;stroke-width:0.5;" x="130.273705" xlink:href="#mb670f19701" y="72.550327"/>
    </g>
   </g>
   <g id="line2d_23">
    <g clip-path="url(#p91a72c88d2)">
     <use style="fill:#e99da6;fill-opacity:0;stroke:#d43d4f;stroke-opacity:0;stroke-width:0.5;" x="123.787589" xlink:href="#mb670f19701" y="70.79434"/>
    </g>
   </g>
   <g id="line2d_24">
    <g clip-path="url(#p91a72c88d2)">
     <use style="fill:#e99da6;fill-opacity:0;stroke:#d43d4f;stroke-opacity:0;stroke-width:0.5;" x="117.675885" xlink:href="#mb670f19701" y="67.327507"/>
    </g>
   </g>
   <g id="line2d_25">
    <g clip-path="url(#p91a72c88d2)">
     <use style="fill:#e99da6;fill-opacity:0;stroke:#d43d4f;stroke-opacity:0;stroke-width:0.5;" x="112.252989" xlink:href="#mb670f19701" y="64.822294"/>
    </g>
   </g>
   <g id="line2d_26">
    <g clip-path="url(#p91a72c88d2)">
     <use style="fill:#e99da6;fill-opacity:0;stroke:#d43d4f;stroke-opacity:0;stroke-width:0.5;" x="107.508617" xlink:href="#mb670f19701" y="62.147776"/>
    </g>
   </g>
   <g id="line2d_27">
    <g clip-path="url(#p91a72c88d2)">
     <use style="fill:#e99da6;fill-opacity:0;stroke:#d43d4f;stroke-opacity:0;stroke-width:0.5;" x="103.358794" xlink:href="#mb670f19701" y="59.934325"/>
    </g>
   </g>
   <g id="line2d_28">
    <g clip-path="url(#p91a72c88d2)">
     <use style="fill:#e99da6;fill-opacity:0;stroke:#d43d4f;stroke-opacity:0;stroke-width:0.5;" x="99.712541" xlink:href="#mb670f19701" y="57.456017"/>
    </g>
   </g>
   <g id="line2d_29">
    <g clip-path="url(#p91a72c88d2)">
     <use style="fill:#e99da6;fill-opacity:0;stroke:#d43d4f;stroke-opacity:0;stroke-width:0.5;" x="96.489181" xlink:href="#mb670f19701" y="55.981734"/>
    </g>
   </g>
   <g id="line2d_30">
    <g clip-path="url(#p91a72c88d2)">
     <use style="fill:#e99da6;fill-opacity:0;stroke:#d43d4f;stroke-opacity:0;stroke-width:0.5;" x="93.621343" xlink:href="#mb670f19701" y="53.854531"/>
    </g>
   </g>
   <g id="line2d_31">
    <g clip-path="url(#p91a72c88d2)">
     <use style="fill:#e99da6;fill-opacity:0;stroke:#d43d4f;stroke-opacity:0;stroke-width:0.5;" x="91.053866" xlink:href="#mb670f19701" y="51.787306"/>
    </g>
   </g>
   <g id="line2d_32">
    <defs>
     <path d="M -1.5 1.5 
L 1.5 1.5 
L 1.5 -1.5 
L -1.5 -1.5 
z
" id="m7b424d9774" style="stroke:#5e4fa2;stroke-linejoin:miter;stroke-width:0.5;"/>
    </defs>
    <g clip-path="url(#p91a72c88d2)">
     <use style="fill:#aea6d0;fill-opacity:0.501961;stroke:#5e4fa2;stroke-linejoin:miter;stroke-width:0.5;" x="130.273705" xlink:href="#m7b424d9774" y="36.317122"/>
    </g>
   </g>
   <g id="line2d_33">
    <g clip-path="url(#p91a72c88d2)">
     <use style="fill:#aea6d0;fill-opacity:0.501961;stroke:#5e4fa2;stroke-linejoin:miter;stroke-width:0.5;" x="123.787589" xlink:href="#m7b424d9774" y="34.978603"/>
    </g>
   </g>
   <g id="line2d_34">
    <g clip-path="url(#p91a72c88d2)">
     <use style="fill:#aea6d0;fill-opacity:0.501961;stroke:#5e4fa2;stroke-linejoin:miter;stroke-width:0.5;" x="117.675885" xlink:href="#m7b424d9774" y="34.084677"/>
    </g>
   </g>
   <g id="line2d_35">
    <g clip-path="url(#p91a72c88d2)">
     <use style="fill:#aea6d0;fill-opacity:0.501961;stroke:#5e4fa2;stroke-linejoin:miter;stroke-width:0.5;" x="112.252989" xlink:href="#m7b424d9774" y="33.392212"/>
    </g>
   </g>
   <g id="line2d_36">
    <g clip-path="url(#p91a72c88d2)">
     <use style="fill:#aea6d0;fill-opacity:0.501961;stroke:#5e4fa2;stroke-linejoin:miter;stroke-width:0.5;" x="107.508617" xlink:href="#m7b424d9774" y="32.627297"/>
    </g>
   </g>
   <g id="line2d_37">
    <g clip-path="url(#p91a72c88d2)">
     <use style="fill:#aea6d0;fill-opacity:0.501961;stroke:#5e4fa2;stroke-linejoin:miter;stroke-width:0.5;" x="103.358794" xlink:href="#m7b424d9774" y="32.263997"/>
    </g>
   </g>
   <g id="line2d_38">
    <g clip-path="url(#p91a72c88d2)">
     <use style="fill:#aea6d0;fill-opacity:0.501961;stroke:#5e4fa2;stroke-linejoin:miter;stroke-width:0.5;" x="99.712541" xlink:href="#m7b424d9774" y="32.081158"/>
    </g>
   </g>
   <g id="line2d_39">
    <g clip-path="url(#p91a72c88d2)">
     <use style="fill:#aea6d0;fill-opacity:0.501961;stroke:#5e4fa2;stroke-linejoin:miter;stroke-width:0.5;" x="96.489181" xlink:href="#m7b424d9774" y="31.785575"/>
    </g>
   </g>
   <g id="line2d_40">
    <g clip-path="url(#p91a72c88d2)">
     <use style="fill:#aea6d0;fill-opacity:0.501961;stroke:#5e4fa2;stroke-linejoin:miter;stroke-width:0.5;" x="93.621343" xlink:href="#m7b424d9774" y="31.425036"/>
    </g>
   </g>
   <g id="line2d_41">
    <g clip-path="url(#p91a72c88d2)">
     <use style="fill:#aea6d0;fill-opacity:0.501961;stroke:#5e4fa2;stroke-linejoin:miter;stroke-width:0.5;" x="91.053866" xlink:href="#m7b424d9774" y="31.256824"/>
    </g>
   </g>
   <g id="line2d_42">
    <defs>
     <path d="M -1.5 1.5 
L 1.5 1.5 
L 1.5 -1.5 
L -1.5 -1.5 
z
" id="m1382ff26a6" style="stroke:#d43d4f;stroke-linejoin:miter;stroke-width:0.5;"/>
    </defs>
    <g clip-path="url(#p91a72c88d2)">
     <use style="fill:#e99da6;fill-opacity:0.501961;stroke:#d43d4f;stroke-linejoin:miter;stroke-width:0.5;" x="130.273705" xlink:href="#m1382ff26a6" y="75.045182"/>
    </g>
   </g>
   <g id="line2d_43">
    <g clip-path="url(#p91a72c88d2)">
     <use style="fill:#e99da6;fill-opacity:0.501961;stroke:#d43d4f;stroke-linejoin:miter;stroke-width:0.5;" x="123.787589" xlink:href="#m1382ff26a6" y="73.49835"/>
    </g>
   </g>
   <g id="line2d_44">
    <g clip-path="url(#p91a72c88d2)">
     <use style="fill:#e99da6;fill-opacity:0.501961;stroke:#d43d4f;stroke-linejoin:miter;stroke-width:0.5;" x="117.675885" xlink:href="#m1382ff26a6" y="70.746908"/>
    </g>
   </g>
   <g id="line2d_45">
    <g clip-path="url(#p91a72c88d2)">
     <use style="fill:#e99da6;fill-opacity:0.501961;stroke:#d43d4f;stroke-linejoin:miter;stroke-width:0.5;" x="112.252989" xlink:href="#m1382ff26a6" y="68.568476"/>
    </g>
   </g>
   <g id="line2d_46">
    <g clip-path="url(#p91a72c88d2)">
     <use style="fill:#e99da6;fill-opacity:0.501961;stroke:#d43d4f;stroke-linejoin:miter;stroke-width:0.5;" x="107.508617" xlink:href="#m1382ff26a6" y="66.376825"/>
    </g>
   </g>
   <g id="line2d_47">
    <g clip-path="url(#p91a72c88d2)">
     <use style="fill:#e99da6;fill-opacity:0.501961;stroke:#d43d4f;stroke-linejoin:miter;stroke-width:0.5;" x="103.358794" xlink:href="#m1382ff26a6" y="64.566802"/>
    </g>
   </g>
   <g id="line2d_48">
    <g clip-path="url(#p91a72c88d2)">
     <use style="fill:#e99da6;fill-opacity:0.501961;stroke:#d43d4f;stroke-linejoin:miter;stroke-width:0.5;" x="99.712541" xlink:href="#m1382ff26a6" y="62.369587"/>
    </g>
   </g>
   <g id="line2d_49">
    <g clip-path="url(#p91a72c88d2)">
     <use style="fill:#e99da6;fill-opacity:0.501961;stroke:#d43d4f;stroke-linejoin:miter;stroke-width:0.5;" x="96.489181" xlink:href="#m1382ff26a6" y="61.186549"/>
    </g>
   </g>
   <g id="line2d_50">
    <g clip-path="url(#p91a72c88d2)">
     <use style="fill:#e99da6;fill-opacity:0.501961;stroke:#d43d4f;stroke-linejoin:miter;stroke-width:0.5;" x="93.621343" xlink:href="#m1382ff26a6" y="59.466939"/>
    </g>
   </g>
   <g id="line2d_51">
    <g clip-path="url(#p91a72c88d2)">
     <use style="fill:#e99da6;fill-opacity:0.501961;stroke:#d43d4f;stroke-linejoin:miter;stroke-width:0.5;" x="91.053866" xlink:href="#m1382ff26a6" y="57.663395"/>
    </g>
   </g>
   <g id="patch_3">
    <path d="M 39.21335 86.26628 
L 39.21335 0.72 
" style="fill:none;stroke:#000000;stroke-linecap:square;stroke-linejoin:miter;stroke-width:0.35;"/>
   </g>
   <g id="patch_4">
    <path d="M 133.801423 86.26628 
L 133.801423 0.72 
" style="fill:none;stroke:#000000;stroke-linecap:square;stroke-linejoin:miter;stroke-width:0.35;"/>
   </g>
   <g id="patch_5">
    <path d="M 39.21335 86.26628 
L 133.801423 86.26628 
" style="fill:none;stroke:#000000;stroke-linecap:square;stroke-linejoin:miter;stroke-width:0.35;"/>
   </g>
   <g id="patch_6">
    <path d="M 39.21335 0.72 
L 133.801423 0.72 
" style="fill:none;stroke:#000000;stroke-linecap:square;stroke-linejoin:miter;stroke-width:0.35;"/>
   </g>
   <g id="text_10">
    <!-- $n = \lfloor N/2 \rfloor , \ell = L/2$ -->
    <g transform="translate(60.824207 7.553047)scale(0.08 -0.08)">
     <defs>
      <path d="M 4115 2017 
C 4211 2017 4307 2017 4307 2125 
C 4307 2240 4198 2240 4090 2240 
L 512 2240 
C 403 2240 294 2240 294 2125 
C 294 2017 390 2017 486 2017 
L 4115 2017 
z
M 4090 896 
C 4198 896 4307 896 4307 1011 
C 4307 1119 4211 1119 4115 1119 
L 486 1119 
C 390 1119 294 1119 294 1011 
C 294 896 403 896 512 896 
L 4090 896 
z
" id="CMR17-3d" transform="scale(0.015625)"/>
      <path d="M 2469 -1600 
C 2565 -1600 2700 -1600 2700 -1472 
C 2700 -1344 2565 -1344 2469 -1344 
L 1369 -1344 
L 1369 4570 
C 1369 4685 1369 4800 1241 4800 
C 1113 4800 1113 4666 1113 4570 
L 1113 -1370 
C 1113 -1574 1138 -1600 1343 -1600 
L 2469 -1600 
z
" id="CMSY10-62" transform="scale(0.015625)"/>
      <path d="M 1721 4570 
C 1721 4685 1721 4800 1593 4800 
C 1465 4800 1465 4666 1465 4570 
L 1465 -1344 
L 364 -1344 
C 268 -1344 133 -1344 133 -1472 
C 133 -1600 268 -1600 364 -1600 
L 1497 -1600 
C 1701 -1600 1721 -1581 1721 -1370 
L 1721 4570 
z
" id="CMSY10-63" transform="scale(0.015625)"/>
      <path d="M 1248 -31 
C 1248 343 1126 619 864 619 
C 659 619 557 453 557 313 
C 557 172 653 0 870 0 
C 954 0 1024 26 1082 83 
C 1094 96 1101 96 1107 96 
C 1120 96 1120 5 1120 -27 
C 1120 -240 1082 -659 710 -1080 
C 640 -1157 640 -1170 640 -1183 
C 640 -1216 672 -1248 704 -1248 
C 755 -1248 1248 -771 1248 -31 
z
" id="CMMI12-3b" transform="scale(0.015625)"/>
      <path d="M 589 1088 
C 186 692 83 597 83 572 
C 83 546 109 501 154 501 
C 186 501 550 851 602 909 
C 640 482 800 -73 1299 -73 
C 1555 -73 1786 86 1888 163 
C 1971 227 2278 488 2278 546 
C 2278 578 2246 616 2214 616 
C 2189 616 2093 520 2067 495 
C 1843 278 1562 55 1306 55 
C 960 55 915 552 915 897 
C 915 960 915 1228 960 1279 
C 1338 1667 2522 2886 2522 4014 
C 2522 4269 2426 4492 2150 4492 
C 1555 4492 1037 3178 947 2936 
C 922 2873 550 1891 589 1088 
z
M 973 1471 
C 979 1509 1267 3186 1805 4082 
C 1914 4255 2022 4364 2150 4364 
C 2368 4364 2381 4159 2381 4018 
C 2381 3794 2317 3218 1760 2412 
C 1594 2175 1338 1855 973 1471 
z
" id="CMMI12-60" transform="scale(0.015625)"/>
      <path d="M 2349 3861 
C 2406 4103 2426 4167 2989 4167 
C 3162 4167 3206 4167 3206 4288 
C 3206 4352 3136 4352 3110 4352 
C 2982 4352 2835 4352 2707 4352 
L 1850 4352 
C 1728 4352 1587 4352 1466 4352 
C 1414 4352 1344 4352 1344 4231 
C 1344 4167 1402 4167 1498 4167 
C 1888 4167 1888 4116 1888 4046 
C 1888 4034 1888 3995 1862 3899 
L 998 472 
C 941 249 928 185 480 185 
C 358 185 294 185 294 70 
C 294 0 333 0 461 0 
L 3328 0 
C 3469 0 3475 6 3520 121 
L 4013 1478 
C 4026 1510 4038 1548 4038 1567 
C 4038 1605 4006 1631 3974 1631 
C 3968 1631 3936 1631 3923 1605 
C 3910 1599 3910 1586 3859 1465 
C 3654 905 3366 185 2285 185 
L 1670 185 
C 1581 185 1568 185 1530 192 
C 1459 198 1453 211 1453 262 
C 1453 307 1466 345 1478 401 
L 2349 3861 
z
" id="CMMI12-4c" transform="scale(0.015625)"/>
     </defs>
     <use transform="scale(0.996264)" xlink:href="#CMMI12-6e"/>
     <use transform="translate(85.904056 0)scale(0.996264)" xlink:href="#CMR17-3d"/>
     <use transform="translate(185.292853 0)scale(0.996264)" xlink:href="#CMSY10-62"/>
     <use transform="translate(229.571358 0)scale(0.996264)" xlink:href="#CMMI12-4e"/>
     <use transform="translate(309.963978 0)scale(0.996264)" xlink:href="#CMMI12-3d"/>
     <use transform="translate(358.738897 0)scale(0.996264)" xlink:href="#CMR17-32"/>
     <use transform="translate(404.429374 0)scale(0.996264)" xlink:href="#CMSY10-63"/>
     <use transform="translate(448.707879 0)scale(0.996264)" xlink:href="#CMMI12-3b"/>
     <use transform="translate(492.409461 0)scale(0.996264)" xlink:href="#CMMI12-60"/>
     <use transform="translate(561.017689 0)scale(0.996264)" xlink:href="#CMR17-3d"/>
     <use transform="translate(660.406487 0)scale(0.996264)" xlink:href="#CMMI12-4c"/>
     <use transform="translate(726.777362 0)scale(0.996264)" xlink:href="#CMMI12-3d"/>
     <use transform="translate(775.552281 0)scale(0.996264)" xlink:href="#CMR17-32"/>
    </g>
   </g>
   <g id="text_11">
    <!-- $V =  0.25J,\; V^\prime=0.025J$ -->
    <g transform="translate(40.159231 84.716535)scale(0.08 -0.08)">
     <defs>
      <path d="M 3962 3640 
C 4179 3984 4378 4136 4704 4162 
C 4768 4168 4819 4168 4819 4282 
C 4819 4308 4806 4346 4749 4346 
C 4634 4346 4358 4346 4243 4346 
C 4058 4346 3866 4346 3686 4346 
C 3635 4346 3571 4346 3571 4226 
C 3571 4168 3629 4162 3654 4162 
C 3891 4143 3917 4029 3917 3952 
C 3917 3857 3827 3710 3821 3704 
L 1811 540 
L 1363 3969 
C 1363 4160 1696 4160 1766 4160 
C 1862 4160 1920 4160 1920 4282 
C 1920 4346 1850 4346 1830 4346 
C 1722 4346 1594 4346 1485 4346 
L 1126 4346 
C 659 4346 467 4346 461 4346 
C 422 4346 346 4346 346 4230 
C 346 4160 390 4160 493 4160 
C 819 4160 838 4102 858 3944 
L 1370 24 
C 1389 -109 1389 -128 1478 -128 
C 1555 -128 1587 -109 1651 -8 
L 3962 3640 
z
" id="CMMI12-56" transform="scale(0.015625)"/>
      <path d="M 3418 3912 
C 3469 4103 3482 4167 3795 4167 
C 3898 4167 3962 4167 3962 4282 
C 3962 4352 3904 4352 3878 4352 
C 3770 4352 3648 4352 3533 4352 
L 3181 4352 
C 2912 4352 2630 4352 2362 4352 
C 2304 4352 2227 4352 2227 4237 
C 2227 4173 2278 4173 2278 4167 
L 2438 4167 
C 2950 4167 2950 4116 2950 4020 
C 2950 4013 2950 3969 2925 3868 
L 2189 960 
C 2022 312 1594 0 1286 0 
C 1069 0 762 100 685 431 
C 710 424 742 418 768 418 
C 979 418 1146 603 1146 788 
C 1146 890 1082 1024 890 1024 
C 774 1024 506 961 506 549 
C 506 151 838 -128 1299 -128 
C 1882 -128 2509 311 2662 915 
L 3418 3912 
z
" id="CMMI12-4a" transform="scale(0.015625)"/>
      <path d="M 1619 3040 
C 1651 3117 1677 3174 1677 3238 
C 1677 3424 1510 3578 1312 3578 
C 1133 3578 1018 3456 973 3290 
L 211 493 
C 211 480 186 410 186 403 
C 186 333 352 288 403 288 
C 442 288 448 307 486 390 
L 1619 3040 
z
" id="CMSY10-30" transform="scale(0.015625)"/>
     </defs>
     <use transform="scale(0.996264)" xlink:href="#CMMI12-56"/>
     <use transform="translate(106.221329 0)scale(0.996264)" xlink:href="#CMR17-3d"/>
     <use transform="translate(205.610127 0)scale(0.996264)" xlink:href="#CMR17-30"/>
     <use transform="translate(251.300604 0)scale(0.996264)" xlink:href="#CMMI12-3a"/>
     <use transform="translate(278.397781 0)scale(0.996264)" xlink:href="#CMR17-32"/>
     <use transform="translate(324.088258 0)scale(0.996264)" xlink:href="#CMR17-35"/>
     <use transform="translate(369.778735 0)scale(0.996264)" xlink:href="#CMMI12-4a"/>
     <use transform="translate(422.082535 0)scale(0.996264)" xlink:href="#CMMI12-3b"/>
     <use transform="translate(493.458126 0)scale(0.996264)" xlink:href="#CMMI12-56"/>
     <use transform="translate(572.005446 36.153639)scale(0.697382)" xlink:href="#CMSY10-30"/>
     <use transform="translate(619.355548 0)scale(0.996264)" xlink:href="#CMR17-3d"/>
     <use transform="translate(718.744345 0)scale(0.996264)" xlink:href="#CMR17-30"/>
     <use transform="translate(764.434822 0)scale(0.996264)" xlink:href="#CMMI12-3a"/>
     <use transform="translate(791.531999 0)scale(0.996264)" xlink:href="#CMR17-30"/>
     <use transform="translate(837.222476 0)scale(0.996264)" xlink:href="#CMR17-32"/>
     <use transform="translate(882.912953 0)scale(0.996264)" xlink:href="#CMR17-35"/>
     <use transform="translate(928.60343 0)scale(0.996264)" xlink:href="#CMMI12-4a"/>
    </g>
   </g>
   <g id="legend_1">
    <g id="LineCollection_41">
     <path d="M 44.41335 60.734847 
L 44.41335 52.734847 
" style="fill:none;stroke:#5e4fa2;stroke-width:0.5;"/>
    </g>
    <g id="line2d_52"/>
    <g id="line2d_53">
     <g>
      <use style="fill:#aea6d0;fill-opacity:0.501961;stroke:#5e4fa2;stroke-linejoin:miter;stroke-width:0.5;" x="44.41335" xlink:href="#m7b424d9774" y="56.734847"/>
     </g>
    </g>
    <g id="text_12">
     <!-- particle -->
     <g transform="translate(50.41335 59.534847)scale(0.08 -0.08)">
      <defs>
       <path d="M 1408 -1063 
C 998 -1063 973 -1037 973 -789 
L 973 402 
C 1158 134 1427 -38 1766 -38 
C 2406 -38 3053 523 3053 1388 
C 3053 2191 2496 2802 1837 2802 
C 1453 2802 1139 2592 960 2338 
L 960 2802 
L 198 2732 
L 198 2567 
C 576 2567 634 2528 634 2223 
L 634 -789 
C 634 -1031 608 -1063 198 -1063 
L 198 -1228 
C 352 -1216 634 -1216 800 -1216 
C 966 -1216 1254 -1216 1408 -1228 
L 1408 -1063 
z
M 973 2012 
C 973 2102 973 2235 1222 2471 
C 1254 2497 1472 2688 1792 2688 
C 2259 2688 2643 2108 2643 1382 
C 2643 656 2234 64 1728 64 
C 1498 64 1248 172 1056 472 
C 973 612 973 650 973 752 
L 973 2012 
z
" id="CMR17-70" transform="scale(0.015625)"/>
       <path d="M 2304 1653 
C 2304 2072 2304 2294 2035 2543 
C 1798 2752 1523 2816 1306 2816 
C 800 2816 435 2407 435 1971 
C 435 1728 627 1728 666 1728 
C 749 1728 896 1778 896 1954 
C 896 2112 774 2181 666 2181 
C 640 2181 608 2174 589 2168 
C 723 2592 1069 2714 1293 2714 
C 1613 2714 1965 2429 1965 1885 
L 1965 1600 
C 1587 1600 1133 1549 774 1357 
C 371 1133 256 813 256 570 
C 256 77 832 -64 1171 -64 
C 1523 -64 1850 139 1990 511 
C 2003 233 2182 -18 2464 -18 
C 2598 -18 2938 70 2938 567 
L 2938 920 
L 2822 920 
L 2822 562 
C 2822 178 2650 128 2566 128 
C 2304 128 2304 458 2304 738 
L 2304 1653 
z
M 1965 870 
C 1965 317 1568 38 1216 38 
C 896 38 646 275 646 570 
C 646 761 730 1100 1101 1305 
C 1408 1478 1760 1504 1965 1504 
L 1965 870 
z
" id="CMR17-61" transform="scale(0.015625)"/>
       <path d="M 960 1497 
C 960 2112 1222 2688 1702 2688 
C 1747 2688 1792 2682 1837 2662 
C 1837 2662 1696 2617 1696 2452 
C 1696 2298 1818 2234 1914 2234 
C 1990 2234 2131 2279 2131 2458 
C 2131 2663 1926 2790 1709 2790 
C 1222 2790 1011 2317 947 2093 
L 941 2093 
L 941 2790 
L 198 2720 
L 198 2554 
C 576 2554 634 2515 634 2208 
L 634 428 
C 634 184 608 153 198 153 
L 198 -13 
C 352 0 646 0 813 0 
C 998 0 1325 0 1498 -13 
L 1498 153 
C 1037 153 960 153 960 440 
L 960 1497 
z
" id="CMR17-72" transform="scale(0.015625)"/>
       <path d="M 966 2560 
L 1862 2560 
L 1862 2725 
L 966 2725 
L 966 3904 
L 851 3904 
C 838 3245 614 2668 70 2668 
L 70 2560 
L 627 2560 
L 627 771 
C 627 650 627 -64 1370 -64 
C 1747 -64 1965 306 1965 777 
L 1965 1140 
L 1850 1140 
L 1850 783 
C 1850 344 1677 51 1408 51 
C 1222 51 966 178 966 758 
L 966 2560 
z
" id="CMR17-74" transform="scale(0.015625)"/>
       <path d="M 992 3909 
C 992 4049 877 4170 730 4170 
C 589 4170 467 4056 467 3909 
C 467 3769 582 3648 730 3648 
C 870 3648 992 3763 992 3909 
z
M 243 2706 
L 243 2541 
C 602 2541 653 2502 653 2197 
L 653 427 
C 653 184 627 153 218 153 
L 218 -13 
C 371 0 646 0 806 0 
C 960 0 1222 0 1370 -13 
L 1370 153 
C 992 153 979 191 979 420 
L 979 2776 
L 243 2706 
z
" id="CMR17-69" transform="scale(0.015625)"/>
       <path d="M 2234 2240 
C 2112 2240 1933 2240 1933 2017 
C 1933 1838 2080 1787 2163 1787 
C 2208 1787 2394 1807 2394 2024 
C 2394 2467 1958 2803 1466 2803 
C 787 2803 211 2178 211 1363 
C 211 516 813 -64 1466 -64 
C 2259 -64 2458 677 2458 748 
C 2458 774 2451 793 2406 793 
C 2362 793 2355 787 2330 703 
C 2163 180 1798 51 1523 51 
C 1114 51 621 427 621 1369 
C 621 2338 1094 2688 1472 2688 
C 1722 2688 2093 2573 2234 2240 
z
" id="CMR17-63" transform="scale(0.015625)"/>
       <path d="M 2438 1472 
C 2464 1498 2464 1511 2464 1576 
C 2464 2238 2118 2816 1389 2816 
C 710 2816 173 2169 173 1383 
C 173 551 781 -64 1459 -64 
C 2176 -64 2458 607 2458 740 
C 2458 784 2419 784 2406 784 
C 2362 784 2355 771 2330 696 
C 2189 265 1837 51 1504 51 
C 1229 51 954 203 781 480 
C 582 803 582 1176 582 1472 
L 2438 1472 
z
M 589 1568 
C 634 2505 1126 2714 1382 2714 
C 1818 2714 2112 2297 2118 1568 
L 589 1568 
z
" id="CMR17-65" transform="scale(0.015625)"/>
      </defs>
      <use transform="scale(0.996264)" xlink:href="#CMR17-70"/>
      <use transform="translate(50.89537 0)scale(0.996264)" xlink:href="#CMR17-61"/>
      <use transform="translate(96.585847 0)scale(0.996264)" xlink:href="#CMR17-72"/>
      <use transform="translate(131.866615 0)scale(0.996264)" xlink:href="#CMR17-74"/>
      <use transform="translate(167.147382 0)scale(0.996264)" xlink:href="#CMR17-69"/>
      <use transform="translate(192.018441 0)scale(0.996264)" xlink:href="#CMR17-63"/>
      <use transform="translate(232.504101 0)scale(0.996264)" xlink:href="#CMR17-6c"/>
      <use transform="translate(257.37516 0)scale(0.996264)" xlink:href="#CMR17-65"/>
     </g>
    </g>
    <g id="LineCollection_42">
     <path d="M 44.41335 69.884593 
L 44.41335 61.884593 
" style="fill:none;stroke:#d43d4f;stroke-width:0.5;"/>
    </g>
    <g id="line2d_54"/>
    <g id="line2d_55">
     <g>
      <use style="fill:#e99da6;fill-opacity:0.501961;stroke:#d43d4f;stroke-linejoin:miter;stroke-width:0.5;" x="44.41335" xlink:href="#m1382ff26a6" y="65.884593"/>
     </g>
    </g>
    <g id="text_13">
     <!-- spatial -->
     <g transform="translate(50.41335 68.684593)scale(0.08 -0.08)">
      <defs>
       <path d="M 1978 2697 
C 1978 2813 1971 2819 1933 2819 
C 1907 2819 1901 2813 1824 2717 
C 1805 2691 1747 2626 1728 2601 
C 1523 2819 1235 2819 1126 2819 
C 416 2819 160 2447 160 2076 
C 160 1498 813 1365 998 1325 
C 1402 1243 1542 1217 1677 1101 
C 1760 1025 1901 884 1901 654 
C 1901 384 1747 38 1158 38 
C 602 38 403 460 288 1021 
C 269 1110 269 1117 218 1117 
C 166 1117 160 1110 160 983 
L 160 63 
C 160 -51 166 -58 205 -58 
C 237 -58 243 -51 275 0 
C 314 57 410 211 448 276 
C 576 103 800 -64 1158 -64 
C 1792 -64 2131 283 2131 784 
C 2131 1112 1958 1285 1875 1362 
C 1683 1561 1459 1606 1190 1657 
C 838 1735 390 1825 390 2217 
C 390 2383 480 2737 1126 2737 
C 1811 2737 1850 2094 1862 1888 
C 1869 1856 1901 1849 1920 1849 
C 1978 1849 1978 1869 1978 1978 
L 1978 2697 
z
" id="CMR17-73" transform="scale(0.015625)"/>
      </defs>
      <use transform="scale(0.996264)" xlink:href="#CMR17-73"/>
      <use transform="translate(35.801338 0)scale(0.996264)" xlink:href="#CMR17-70"/>
      <use transform="translate(86.696707 0)scale(0.996264)" xlink:href="#CMR17-61"/>
      <use transform="translate(132.387185 0)scale(0.996264)" xlink:href="#CMR17-74"/>
      <use transform="translate(167.667952 0)scale(0.996264)" xlink:href="#CMR17-69"/>
      <use transform="translate(192.539011 0)scale(0.996264)" xlink:href="#CMR17-61"/>
      <use transform="translate(238.229488 0)scale(0.996264)" xlink:href="#CMR17-6c"/>
     </g>
    </g>
   </g>
   <g id="PolyCollection_1">
    <path d="M 38.556489 18.561111 
L 38.556489 19.824145 
L 39.870212 19.824145 
L 39.870212 18.561111 
L 39.870212 18.561111 
L 38.556489 18.561111 
z
" style="fill:none;"/>
   </g>
   <g id="PolyCollection_2">
    <path d="M 38.556489 12.350588 
L 38.556489 22.832607 
L 39.870212 22.832607 
L 39.870212 12.350588 
L 39.870212 12.350588 
L 38.556489 12.350588 
z
" style="fill:none;"/>
   </g>
   <g id="PolyCollection_3">
    <path d="M 38.556489 25.571418 
L 38.556489 26.758212 
L 39.870212 26.758212 
L 39.870212 25.571418 
L 39.870212 25.571418 
L 38.556489 25.571418 
z
" style="fill:#5e4fa2;fill-opacity:0.6;"/>
   </g>
   <g id="PolyCollection_4">
    <path d="M 38.556489 24.649205 
L 38.556489 34.509249 
L 39.870212 34.509249 
L 39.870212 24.649205 
L 39.870212 24.649205 
L 38.556489 24.649205 
z
" style="fill:#d43d4f;fill-opacity:0.6;"/>
   </g>
  </g>
  <g id="axes_2">
   <g id="patch_7">
    <path d="M 145.212247 86.26628 
L 239.80032 86.26628 
L 239.80032 0.72 
L 145.212247 0.72 
z
" style="fill:none;"/>
   </g>
   <g id="matplotlib.axis_3">
    <g id="xtick_3">
     <g id="line2d_56">
      <g>
       <use style="stroke:#000000;stroke-width:0.35;" x="145.212247" xlink:href="#md42a7fccef" y="86.26628"/>
      </g>
     </g>
     <g id="text_14">
      <!-- $\mathdefault{0.0}$ -->
      <g transform="translate(139.801903 96.801082)scale(0.08 -0.08)">
       <use transform="scale(0.996264)" xlink:href="#CMR17-30"/>
       <use transform="translate(45.690477 0)scale(0.996264)" xlink:href="#CMMI12-3a"/>
       <use transform="translate(72.787654 0)scale(0.996264)" xlink:href="#CMR17-30"/>
      </g>
     </g>
    </g>
    <g id="xtick_4">
     <g id="line2d_57">
      <g>
       <use style="stroke:#000000;stroke-width:0.35;" x="197.761177" xlink:href="#md42a7fccef" y="86.26628"/>
      </g>
     </g>
     <g id="text_15">
      <!-- $\mathdefault{0.2}$ -->
      <g transform="translate(192.350832 96.801082)scale(0.08 -0.08)">
       <use transform="scale(0.996264)" xlink:href="#CMR17-30"/>
       <use transform="translate(45.690477 0)scale(0.996264)" xlink:href="#CMMI12-3a"/>
       <use transform="translate(72.787654 0)scale(0.996264)" xlink:href="#CMR17-32"/>
      </g>
     </g>
    </g>
    <g id="text_16">
     <!-- $\log (N) / N$ -->
     <g transform="translate(174.716162 106.328412)scale(0.08 -0.08)">
      <use transform="scale(0.996264)" xlink:href="#CMR17-6c"/>
      <use transform="translate(24.871058 0)scale(0.996264)" xlink:href="#CMR17-6f"/>
      <use transform="translate(70.561536 0)scale(0.996264)" xlink:href="#CMR17-67"/>
      <use transform="translate(117.553179 0.003177)scale(0.996264)" xlink:href="#CMR17-28"/>
      <use transform="translate(152.833947 0)scale(0.996264)" xlink:href="#CMMI12-4e"/>
      <use transform="translate(241.355719 0.003177)scale(0.996264)" xlink:href="#CMR17-29"/>
      <use transform="translate(276.636487 0)scale(0.996264)" xlink:href="#CMMI12-3d"/>
      <use transform="translate(319.99197 0)scale(0.996264)" xlink:href="#CMMI12-4e"/>
     </g>
    </g>
   </g>
   <g id="matplotlib.axis_4">
    <g id="ytick_6">
     <g id="line2d_58">
      <g>
       <use style="stroke:#000000;stroke-width:0.35;" x="145.212247" xlink:href="#m8844691d2d" y="83.525299"/>
      </g>
     </g>
    </g>
    <g id="ytick_7">
     <g id="line2d_59">
      <g>
       <use style="stroke:#000000;stroke-width:0.35;" x="145.212247" xlink:href="#m8844691d2d" y="64.552636"/>
      </g>
     </g>
    </g>
    <g id="ytick_8">
     <g id="line2d_60">
      <g>
       <use style="stroke:#000000;stroke-width:0.35;" x="145.212247" xlink:href="#m8844691d2d" y="45.579972"/>
      </g>
     </g>
    </g>
    <g id="ytick_9">
     <g id="line2d_61">
      <g>
       <use style="stroke:#000000;stroke-width:0.35;" x="145.212247" xlink:href="#m8844691d2d" y="26.607309"/>
      </g>
     </g>
    </g>
    <g id="ytick_10">
     <g id="line2d_62">
      <g>
       <use style="stroke:#000000;stroke-width:0.35;" x="145.212247" xlink:href="#m8844691d2d" y="7.634646"/>
      </g>
     </g>
    </g>
   </g>
   <g id="LineCollection_43">
    <path clip-path="url(#pdada6286e8)" d="M 236.272603 28.120364 
L 236.272603 24.505593 
" style="fill:none;"/>
   </g>
   <g id="LineCollection_44">
    <path clip-path="url(#pdada6286e8)" d="M 229.786486 27.504992 
L 229.786486 24.143814 
" style="fill:none;"/>
   </g>
   <g id="LineCollection_45">
    <path clip-path="url(#pdada6286e8)" d="M 223.674782 26.708201 
L 223.674782 23.635817 
" style="fill:none;"/>
   </g>
   <g id="LineCollection_46">
    <path clip-path="url(#pdada6286e8)" d="M 218.251886 26.299665 
L 218.251886 23.461449 
" style="fill:none;"/>
   </g>
   <g id="LineCollection_47">
    <path clip-path="url(#pdada6286e8)" d="M 213.507514 25.507363 
L 213.507514 22.877496 
" style="fill:none;"/>
   </g>
   <g id="LineCollection_48">
    <path clip-path="url(#pdada6286e8)" d="M 209.357691 25.16533 
L 209.357691 22.671231 
" style="fill:none;"/>
   </g>
   <g id="LineCollection_49">
    <path clip-path="url(#pdada6286e8)" d="M 205.711438 24.925823 
L 205.711438 22.67903 
" style="fill:none;"/>
   </g>
   <g id="LineCollection_50">
    <path clip-path="url(#pdada6286e8)" d="M 202.488079 24.675476 
L 202.488079 22.578067 
" style="fill:none;"/>
   </g>
   <g id="LineCollection_51">
    <path clip-path="url(#pdada6286e8)" d="M 199.620241 24.344319 
L 199.620241 22.308292 
" style="fill:none;"/>
   </g>
   <g id="LineCollection_52">
    <path clip-path="url(#pdada6286e8)" d="M 197.052764 24.089997 
L 197.052764 22.244605 
" style="fill:none;"/>
   </g>
   <g id="LineCollection_53">
    <path clip-path="url(#pdada6286e8)" d="M 236.272603 72.870934 
L 236.272603 72.22972 
" style="fill:none;"/>
   </g>
   <g id="LineCollection_54">
    <path clip-path="url(#pdada6286e8)" d="M 229.786486 71.15829 
L 229.786486 70.43039 
" style="fill:none;"/>
   </g>
   <g id="LineCollection_55">
    <path clip-path="url(#pdada6286e8)" d="M 223.674782 67.7657 
L 223.674782 66.889314 
" style="fill:none;"/>
   </g>
   <g id="LineCollection_56">
    <path clip-path="url(#pdada6286e8)" d="M 218.251886 65.33534 
L 218.251886 64.309248 
" style="fill:none;"/>
   </g>
   <g id="LineCollection_57">
    <path clip-path="url(#pdada6286e8)" d="M 213.507514 62.66848 
L 213.507514 61.627072 
" style="fill:none;"/>
   </g>
   <g id="LineCollection_58">
    <path clip-path="url(#pdada6286e8)" d="M 209.357691 60.464259 
L 209.357691 59.404391 
" style="fill:none;"/>
   </g>
   <g id="LineCollection_59">
    <path clip-path="url(#pdada6286e8)" d="M 205.711438 57.982623 
L 205.711438 56.92941 
" style="fill:none;"/>
   </g>
   <g id="LineCollection_60">
    <path clip-path="url(#pdada6286e8)" d="M 202.488079 56.52784 
L 202.488079 55.435628 
" style="fill:none;"/>
   </g>
   <g id="LineCollection_61">
    <path clip-path="url(#pdada6286e8)" d="M 199.620241 54.305577 
L 199.620241 53.403485 
" style="fill:none;"/>
   </g>
   <g id="LineCollection_62">
    <path clip-path="url(#pdada6286e8)" d="M 197.052764 52.239605 
L 197.052764 51.335006 
" style="fill:none;"/>
   </g>
   <g id="LineCollection_63">
    <path clip-path="url(#pdada6286e8)" d="M 236.272603 22.403776 
L 236.272603 19.839858 
" style="fill:none;stroke:#5e4fa2;stroke-width:0.5;"/>
   </g>
   <g id="LineCollection_64">
    <path clip-path="url(#pdada6286e8)" d="M 229.786486 23.184199 
L 229.786486 21.096136 
" style="fill:none;stroke:#5e4fa2;stroke-width:0.5;"/>
   </g>
   <g id="LineCollection_65">
    <path clip-path="url(#pdada6286e8)" d="M 223.674782 20.931799 
L 223.674782 19.325836 
" style="fill:none;stroke:#5e4fa2;stroke-width:0.5;"/>
   </g>
   <g id="LineCollection_66">
    <path clip-path="url(#pdada6286e8)" d="M 218.251886 20.499671 
L 218.251886 18.84631 
" style="fill:none;stroke:#5e4fa2;stroke-width:0.5;"/>
   </g>
   <g id="LineCollection_67">
    <path clip-path="url(#pdada6286e8)" d="M 213.507514 19.555599 
L 213.507514 18.014056 
" style="fill:none;stroke:#5e4fa2;stroke-width:0.5;"/>
   </g>
   <g id="LineCollection_68">
    <path clip-path="url(#pdada6286e8)" d="M 209.357691 19.075731 
L 209.357691 17.513685 
" style="fill:none;stroke:#5e4fa2;stroke-width:0.5;"/>
   </g>
   <g id="LineCollection_69">
    <path clip-path="url(#pdada6286e8)" d="M 205.711438 18.326115 
L 205.711438 16.608024 
" style="fill:none;stroke:#5e4fa2;stroke-width:0.5;"/>
   </g>
   <g id="LineCollection_70">
    <path clip-path="url(#pdada6286e8)" d="M 202.488079 18.017522 
L 202.488079 16.411249 
" style="fill:none;stroke:#5e4fa2;stroke-width:0.5;"/>
   </g>
   <g id="LineCollection_71">
    <path clip-path="url(#pdada6286e8)" d="M 199.620241 17.019526 
L 199.620241 15.532538 
" style="fill:none;stroke:#5e4fa2;stroke-width:0.5;"/>
   </g>
   <g id="LineCollection_72">
    <path clip-path="url(#pdada6286e8)" d="M 197.052764 16.946696 
L 197.052764 15.326517 
" style="fill:none;stroke:#5e4fa2;stroke-width:0.5;"/>
   </g>
   <g id="LineCollection_73">
    <path clip-path="url(#pdada6286e8)" d="M 236.272603 51.328825 
L 236.272603 50.127083 
" style="fill:none;stroke:#d43d4f;stroke-width:0.5;"/>
   </g>
   <g id="LineCollection_74">
    <path clip-path="url(#pdada6286e8)" d="M 229.786486 50.94082 
L 229.786486 49.949885 
" style="fill:none;stroke:#d43d4f;stroke-width:0.5;"/>
   </g>
   <g id="LineCollection_75">
    <path clip-path="url(#pdada6286e8)" d="M 223.674782 47.102322 
L 223.674782 45.924259 
" style="fill:none;stroke:#d43d4f;stroke-width:0.5;"/>
   </g>
   <g id="LineCollection_76">
    <path clip-path="url(#pdada6286e8)" d="M 218.251886 46.812012 
L 218.251886 45.812619 
" style="fill:none;stroke:#d43d4f;stroke-width:0.5;"/>
   </g>
   <g id="LineCollection_77">
    <path clip-path="url(#pdada6286e8)" d="M 213.507514 45.641491 
L 213.507514 44.839255 
" style="fill:none;stroke:#d43d4f;stroke-width:0.5;"/>
   </g>
   <g id="LineCollection_78">
    <path clip-path="url(#pdada6286e8)" d="M 209.357691 44.298107 
L 209.357691 43.552711 
" style="fill:none;stroke:#d43d4f;stroke-width:0.5;"/>
   </g>
   <g id="LineCollection_79">
    <path clip-path="url(#pdada6286e8)" d="M 205.711438 43.422371 
L 205.711438 42.565379 
" style="fill:none;stroke:#d43d4f;stroke-width:0.5;"/>
   </g>
   <g id="LineCollection_80">
    <path clip-path="url(#pdada6286e8)" d="M 202.488079 41.73744 
L 202.488079 40.947093 
" style="fill:none;stroke:#d43d4f;stroke-width:0.5;"/>
   </g>
   <g id="LineCollection_81">
    <path clip-path="url(#pdada6286e8)" d="M 199.620241 40.469451 
L 199.620241 39.750115 
" style="fill:none;stroke:#d43d4f;stroke-width:0.5;"/>
   </g>
   <g id="LineCollection_82">
    <path clip-path="url(#pdada6286e8)" d="M 197.052764 39.083753 
L 197.052764 38.507933 
" style="fill:none;stroke:#d43d4f;stroke-width:0.5;"/>
   </g>
   <g id="line2d_63">
    <path clip-path="url(#pdada6286e8)" d="M 145.212247 19.192628 
L 241.52032 26.567459 
M 241.52032 26.567459 
L 236.272603 26.165612 
L 236.272603 26.165612 
" style="fill:none;stroke:#5e4fa2;stroke-linecap:round;stroke-opacity:0;stroke-width:0.5;"/>
   </g>
   <g id="line2d_64">
    <path clip-path="url(#pdada6286e8)" d="M 145.212247 17.591598 
L 241.52032 81.50483 
M 241.52032 81.50483 
L 236.272603 78.02227 
L 236.272603 78.02227 
" style="fill:none;stroke:#d43d4f;stroke-linecap:round;stroke-opacity:0;stroke-width:0.5;"/>
   </g>
   <g id="line2d_65">
    <path clip-path="url(#pdada6286e8)" d="M 145.212247 7.054762 
L 241.52032 23.755473 
M 241.52032 23.755473 
L 236.272603 22.84547 
L 236.272603 22.84547 
" style="fill:none;stroke:#5e4fa2;stroke-linecap:round;stroke-width:0.5;"/>
   </g>
   <g id="line2d_66">
    <path clip-path="url(#pdada6286e8)" d="M 145.212247 13.936649 
L 241.52032 60.147418 
M 241.52032 60.147418 
L 236.272603 57.629446 
L 236.272603 57.629446 
" style="fill:none;stroke:#d43d4f;stroke-linecap:round;stroke-width:0.5;"/>
   </g>
   <g id="line2d_67">
    <g clip-path="url(#pdada6286e8)">
     <use style="fill:#aea6d0;fill-opacity:0;stroke:#5e4fa2;stroke-opacity:0;stroke-width:0.5;" x="236.272603" xlink:href="#mca1af87f08" y="26.312978"/>
    </g>
   </g>
   <g id="line2d_68">
    <g clip-path="url(#pdada6286e8)">
     <use style="fill:#aea6d0;fill-opacity:0;stroke:#5e4fa2;stroke-opacity:0;stroke-width:0.5;" x="229.786486" xlink:href="#mca1af87f08" y="25.824403"/>
    </g>
   </g>
   <g id="line2d_69">
    <g clip-path="url(#pdada6286e8)">
     <use style="fill:#aea6d0;fill-opacity:0;stroke:#5e4fa2;stroke-opacity:0;stroke-width:0.5;" x="223.674782" xlink:href="#mca1af87f08" y="25.172009"/>
    </g>
   </g>
   <g id="line2d_70">
    <g clip-path="url(#pdada6286e8)">
     <use style="fill:#aea6d0;fill-opacity:0;stroke:#5e4fa2;stroke-opacity:0;stroke-width:0.5;" x="218.251886" xlink:href="#mca1af87f08" y="24.880557"/>
    </g>
   </g>
   <g id="line2d_71">
    <g clip-path="url(#pdada6286e8)">
     <use style="fill:#aea6d0;fill-opacity:0;stroke:#5e4fa2;stroke-opacity:0;stroke-width:0.5;" x="213.507514" xlink:href="#mca1af87f08" y="24.19243"/>
    </g>
   </g>
   <g id="line2d_72">
    <g clip-path="url(#pdada6286e8)">
     <use style="fill:#aea6d0;fill-opacity:0;stroke:#5e4fa2;stroke-opacity:0;stroke-width:0.5;" x="209.357691" xlink:href="#mca1af87f08" y="23.918281"/>
    </g>
   </g>
   <g id="line2d_73">
    <g clip-path="url(#pdada6286e8)">
     <use style="fill:#aea6d0;fill-opacity:0;stroke:#5e4fa2;stroke-opacity:0;stroke-width:0.5;" x="205.711438" xlink:href="#mca1af87f08" y="23.802427"/>
    </g>
   </g>
   <g id="line2d_74">
    <g clip-path="url(#pdada6286e8)">
     <use style="fill:#aea6d0;fill-opacity:0;stroke:#5e4fa2;stroke-opacity:0;stroke-width:0.5;" x="202.488079" xlink:href="#mca1af87f08" y="23.626772"/>
    </g>
   </g>
   <g id="line2d_75">
    <g clip-path="url(#pdada6286e8)">
     <use style="fill:#aea6d0;fill-opacity:0;stroke:#5e4fa2;stroke-opacity:0;stroke-width:0.5;" x="199.620241" xlink:href="#mca1af87f08" y="23.326306"/>
    </g>
   </g>
   <g id="line2d_76">
    <g clip-path="url(#pdada6286e8)">
     <use style="fill:#aea6d0;fill-opacity:0;stroke:#5e4fa2;stroke-opacity:0;stroke-width:0.5;" x="197.052764" xlink:href="#mca1af87f08" y="23.167301"/>
    </g>
   </g>
   <g id="line2d_77">
    <g clip-path="url(#pdada6286e8)">
     <use style="fill:#e99da6;fill-opacity:0;stroke:#d43d4f;stroke-opacity:0;stroke-width:0.5;" x="236.272603" xlink:href="#mb670f19701" y="72.550327"/>
    </g>
   </g>
   <g id="line2d_78">
    <g clip-path="url(#pdada6286e8)">
     <use style="fill:#e99da6;fill-opacity:0;stroke:#d43d4f;stroke-opacity:0;stroke-width:0.5;" x="229.786486" xlink:href="#mb670f19701" y="70.79434"/>
    </g>
   </g>
   <g id="line2d_79">
    <g clip-path="url(#pdada6286e8)">
     <use style="fill:#e99da6;fill-opacity:0;stroke:#d43d4f;stroke-opacity:0;stroke-width:0.5;" x="223.674782" xlink:href="#mb670f19701" y="67.327507"/>
    </g>
   </g>
   <g id="line2d_80">
    <g clip-path="url(#pdada6286e8)">
     <use style="fill:#e99da6;fill-opacity:0;stroke:#d43d4f;stroke-opacity:0;stroke-width:0.5;" x="218.251886" xlink:href="#mb670f19701" y="64.822294"/>
    </g>
   </g>
   <g id="line2d_81">
    <g clip-path="url(#pdada6286e8)">
     <use style="fill:#e99da6;fill-opacity:0;stroke:#d43d4f;stroke-opacity:0;stroke-width:0.5;" x="213.507514" xlink:href="#mb670f19701" y="62.147776"/>
    </g>
   </g>
   <g id="line2d_82">
    <g clip-path="url(#pdada6286e8)">
     <use style="fill:#e99da6;fill-opacity:0;stroke:#d43d4f;stroke-opacity:0;stroke-width:0.5;" x="209.357691" xlink:href="#mb670f19701" y="59.934325"/>
    </g>
   </g>
   <g id="line2d_83">
    <g clip-path="url(#pdada6286e8)">
     <use style="fill:#e99da6;fill-opacity:0;stroke:#d43d4f;stroke-opacity:0;stroke-width:0.5;" x="205.711438" xlink:href="#mb670f19701" y="57.456017"/>
    </g>
   </g>
   <g id="line2d_84">
    <g clip-path="url(#pdada6286e8)">
     <use style="fill:#e99da6;fill-opacity:0;stroke:#d43d4f;stroke-opacity:0;stroke-width:0.5;" x="202.488079" xlink:href="#mb670f19701" y="55.981734"/>
    </g>
   </g>
   <g id="line2d_85">
    <g clip-path="url(#pdada6286e8)">
     <use style="fill:#e99da6;fill-opacity:0;stroke:#d43d4f;stroke-opacity:0;stroke-width:0.5;" x="199.620241" xlink:href="#mb670f19701" y="53.854531"/>
    </g>
   </g>
   <g id="line2d_86">
    <g clip-path="url(#pdada6286e8)">
     <use style="fill:#e99da6;fill-opacity:0;stroke:#d43d4f;stroke-opacity:0;stroke-width:0.5;" x="197.052764" xlink:href="#mb670f19701" y="51.787306"/>
    </g>
   </g>
   <g id="line2d_87">
    <defs>
     <path d="M -0 2.12132 
L 2.12132 0 
L 0 -2.12132 
L -2.12132 -0 
z
" id="m76fb596223" style="stroke:#5e4fa2;stroke-linejoin:miter;stroke-width:0.5;"/>
    </defs>
    <g clip-path="url(#pdada6286e8)">
     <use style="fill:#aea6d0;fill-opacity:0.501961;stroke:#5e4fa2;stroke-linejoin:miter;stroke-width:0.5;" x="236.272603" xlink:href="#m76fb596223" y="21.121817"/>
    </g>
   </g>
   <g id="line2d_88">
    <g clip-path="url(#pdada6286e8)">
     <use style="fill:#aea6d0;fill-opacity:0.501961;stroke:#5e4fa2;stroke-linejoin:miter;stroke-width:0.5;" x="229.786486" xlink:href="#m76fb596223" y="22.140168"/>
    </g>
   </g>
   <g id="line2d_89">
    <g clip-path="url(#pdada6286e8)">
     <use style="fill:#aea6d0;fill-opacity:0.501961;stroke:#5e4fa2;stroke-linejoin:miter;stroke-width:0.5;" x="223.674782" xlink:href="#m76fb596223" y="20.128818"/>
    </g>
   </g>
   <g id="line2d_90">
    <g clip-path="url(#pdada6286e8)">
     <use style="fill:#aea6d0;fill-opacity:0.501961;stroke:#5e4fa2;stroke-linejoin:miter;stroke-width:0.5;" x="218.251886" xlink:href="#m76fb596223" y="19.672991"/>
    </g>
   </g>
   <g id="line2d_91">
    <g clip-path="url(#pdada6286e8)">
     <use style="fill:#aea6d0;fill-opacity:0.501961;stroke:#5e4fa2;stroke-linejoin:miter;stroke-width:0.5;" x="213.507514" xlink:href="#m76fb596223" y="18.784827"/>
    </g>
   </g>
   <g id="line2d_92">
    <g clip-path="url(#pdada6286e8)">
     <use style="fill:#aea6d0;fill-opacity:0.501961;stroke:#5e4fa2;stroke-linejoin:miter;stroke-width:0.5;" x="209.357691" xlink:href="#m76fb596223" y="18.294708"/>
    </g>
   </g>
   <g id="line2d_93">
    <g clip-path="url(#pdada6286e8)">
     <use style="fill:#aea6d0;fill-opacity:0.501961;stroke:#5e4fa2;stroke-linejoin:miter;stroke-width:0.5;" x="205.711438" xlink:href="#m76fb596223" y="17.467069"/>
    </g>
   </g>
   <g id="line2d_94">
    <g clip-path="url(#pdada6286e8)">
     <use style="fill:#aea6d0;fill-opacity:0.501961;stroke:#5e4fa2;stroke-linejoin:miter;stroke-width:0.5;" x="202.488079" xlink:href="#m76fb596223" y="17.214386"/>
    </g>
   </g>
   <g id="line2d_95">
    <g clip-path="url(#pdada6286e8)">
     <use style="fill:#aea6d0;fill-opacity:0.501961;stroke:#5e4fa2;stroke-linejoin:miter;stroke-width:0.5;" x="199.620241" xlink:href="#m76fb596223" y="16.276032"/>
    </g>
   </g>
   <g id="line2d_96">
    <g clip-path="url(#pdada6286e8)">
     <use style="fill:#aea6d0;fill-opacity:0.501961;stroke:#5e4fa2;stroke-linejoin:miter;stroke-width:0.5;" x="197.052764" xlink:href="#m76fb596223" y="16.136606"/>
    </g>
   </g>
   <g id="line2d_97">
    <defs>
     <path d="M -0 2.12132 
L 2.12132 0 
L 0 -2.12132 
L -2.12132 -0 
z
" id="m8ad8a6b9fe" style="stroke:#d43d4f;stroke-linejoin:miter;stroke-width:0.5;"/>
    </defs>
    <g clip-path="url(#pdada6286e8)">
     <use style="fill:#e99da6;fill-opacity:0.501961;stroke:#d43d4f;stroke-linejoin:miter;stroke-width:0.5;" x="236.272603" xlink:href="#m8ad8a6b9fe" y="50.727954"/>
    </g>
   </g>
   <g id="line2d_98">
    <g clip-path="url(#pdada6286e8)">
     <use style="fill:#e99da6;fill-opacity:0.501961;stroke:#d43d4f;stroke-linejoin:miter;stroke-width:0.5;" x="229.786486" xlink:href="#m8ad8a6b9fe" y="50.445353"/>
    </g>
   </g>
   <g id="line2d_99">
    <g clip-path="url(#pdada6286e8)">
     <use style="fill:#e99da6;fill-opacity:0.501961;stroke:#d43d4f;stroke-linejoin:miter;stroke-width:0.5;" x="223.674782" xlink:href="#m8ad8a6b9fe" y="46.513291"/>
    </g>
   </g>
   <g id="line2d_100">
    <g clip-path="url(#pdada6286e8)">
     <use style="fill:#e99da6;fill-opacity:0.501961;stroke:#d43d4f;stroke-linejoin:miter;stroke-width:0.5;" x="218.251886" xlink:href="#m8ad8a6b9fe" y="46.312315"/>
    </g>
   </g>
   <g id="line2d_101">
    <g clip-path="url(#pdada6286e8)">
     <use style="fill:#e99da6;fill-opacity:0.501961;stroke:#d43d4f;stroke-linejoin:miter;stroke-width:0.5;" x="213.507514" xlink:href="#m8ad8a6b9fe" y="45.240373"/>
    </g>
   </g>
   <g id="line2d_102">
    <g clip-path="url(#pdada6286e8)">
     <use style="fill:#e99da6;fill-opacity:0.501961;stroke:#d43d4f;stroke-linejoin:miter;stroke-width:0.5;" x="209.357691" xlink:href="#m8ad8a6b9fe" y="43.925409"/>
    </g>
   </g>
   <g id="line2d_103">
    <g clip-path="url(#pdada6286e8)">
     <use style="fill:#e99da6;fill-opacity:0.501961;stroke:#d43d4f;stroke-linejoin:miter;stroke-width:0.5;" x="205.711438" xlink:href="#m8ad8a6b9fe" y="42.993875"/>
    </g>
   </g>
   <g id="line2d_104">
    <g clip-path="url(#pdada6286e8)">
     <use style="fill:#e99da6;fill-opacity:0.501961;stroke:#d43d4f;stroke-linejoin:miter;stroke-width:0.5;" x="202.488079" xlink:href="#m8ad8a6b9fe" y="41.342267"/>
    </g>
   </g>
   <g id="line2d_105">
    <g clip-path="url(#pdada6286e8)">
     <use style="fill:#e99da6;fill-opacity:0.501961;stroke:#d43d4f;stroke-linejoin:miter;stroke-width:0.5;" x="199.620241" xlink:href="#m8ad8a6b9fe" y="40.109783"/>
    </g>
   </g>
   <g id="line2d_106">
    <g clip-path="url(#pdada6286e8)">
     <use style="fill:#e99da6;fill-opacity:0.501961;stroke:#d43d4f;stroke-linejoin:miter;stroke-width:0.5;" x="197.052764" xlink:href="#m8ad8a6b9fe" y="38.795843"/>
    </g>
   </g>
   <g id="patch_8">
    <path d="M 145.212247 86.26628 
L 145.212247 0.72 
" style="fill:none;stroke:#000000;stroke-linecap:square;stroke-linejoin:miter;stroke-width:0.35;"/>
   </g>
   <g id="patch_9">
    <path d="M 239.80032 86.26628 
L 239.80032 0.72 
" style="fill:none;stroke:#000000;stroke-linecap:square;stroke-linejoin:miter;stroke-width:0.35;"/>
   </g>
   <g id="patch_10">
    <path d="M 145.212247 86.26628 
L 239.80032 86.26628 
" style="fill:none;stroke:#000000;stroke-linecap:square;stroke-linejoin:miter;stroke-width:0.35;"/>
   </g>
   <g id="patch_11">
    <path d="M 145.212247 0.72 
L 239.80032 0.72 
" style="fill:none;stroke:#000000;stroke-linecap:square;stroke-linejoin:miter;stroke-width:0.35;"/>
   </g>
   <g id="text_17">
    <!-- $V =  0.25J,\; V^\prime=0.355J$ -->
    <g transform="translate(146.158128 84.716535)scale(0.08 -0.08)">
     <defs>
      <path d="M 1414 2157 
C 1984 2157 2234 1662 2234 1090 
C 2234 320 1824 25 1453 25 
C 1114 25 563 194 390 693 
C 422 680 454 680 486 680 
C 640 680 755 782 755 948 
C 755 1133 614 1216 486 1216 
C 378 1216 211 1165 211 926 
C 211 335 787 -128 1466 -128 
C 2176 -128 2720 430 2720 1085 
C 2720 1707 2208 2157 1600 2227 
C 2086 2328 2554 2756 2554 3329 
C 2554 3820 2048 4179 1472 4179 
C 890 4179 378 3829 378 3329 
C 378 3110 544 3072 627 3072 
C 762 3072 877 3155 877 3321 
C 877 3486 762 3569 627 3569 
C 602 3569 570 3569 544 3557 
C 730 3959 1235 4032 1459 4032 
C 1683 4032 2106 3925 2106 3320 
C 2106 3143 2080 2828 1862 2550 
C 1670 2304 1453 2304 1242 2284 
C 1210 2284 1062 2269 1037 2269 
C 992 2263 966 2257 966 2208 
C 966 2163 973 2157 1101 2157 
L 1414 2157 
z
" id="CMR17-33" transform="scale(0.015625)"/>
     </defs>
     <use transform="scale(0.996264)" xlink:href="#CMMI12-56"/>
     <use transform="translate(106.221329 0)scale(0.996264)" xlink:href="#CMR17-3d"/>
     <use transform="translate(205.610127 0)scale(0.996264)" xlink:href="#CMR17-30"/>
     <use transform="translate(251.300604 0)scale(0.996264)" xlink:href="#CMMI12-3a"/>
     <use transform="translate(278.397781 0)scale(0.996264)" xlink:href="#CMR17-32"/>
     <use transform="translate(324.088258 0)scale(0.996264)" xlink:href="#CMR17-35"/>
     <use transform="translate(369.778735 0)scale(0.996264)" xlink:href="#CMMI12-4a"/>
     <use transform="translate(422.082535 0)scale(0.996264)" xlink:href="#CMMI12-3b"/>
     <use transform="translate(493.458126 0)scale(0.996264)" xlink:href="#CMMI12-56"/>
     <use transform="translate(572.005446 36.153639)scale(0.697382)" xlink:href="#CMSY10-30"/>
     <use transform="translate(619.355548 0)scale(0.996264)" xlink:href="#CMR17-3d"/>
     <use transform="translate(718.744345 0)scale(0.996264)" xlink:href="#CMR17-30"/>
     <use transform="translate(764.434822 0)scale(0.996264)" xlink:href="#CMMI12-3a"/>
     <use transform="translate(791.531999 0)scale(0.996264)" xlink:href="#CMR17-33"/>
     <use transform="translate(837.222476 0)scale(0.996264)" xlink:href="#CMR17-35"/>
     <use transform="translate(882.912953 0)scale(0.996264)" xlink:href="#CMR17-35"/>
     <use transform="translate(928.60343 0)scale(0.996264)" xlink:href="#CMMI12-4a"/>
    </g>
   </g>
   <g id="PolyCollection_5">
    <path d="M 144.555386 18.561111 
L 144.555386 19.824145 
L 145.869109 19.824145 
L 145.869109 18.561111 
L 145.869109 18.561111 
L 144.555386 18.561111 
z
" style="fill:none;"/>
   </g>
   <g id="PolyCollection_6">
    <path d="M 144.555386 12.350588 
L 144.555386 22.832607 
L 145.869109 22.832607 
L 145.869109 12.350588 
L 145.869109 12.350588 
L 144.555386 12.350588 
z
" style="fill:none;"/>
   </g>
   <g id="PolyCollection_7">
    <path d="M 144.555386 4.608467 
L 144.555386 9.501056 
L 145.869109 9.501056 
L 145.869109 4.608467 
L 145.869109 4.608467 
L 144.555386 4.608467 
z
" style="fill:#5e4fa2;fill-opacity:0.6;"/>
   </g>
   <g id="PolyCollection_8">
    <path d="M 144.555386 11.829025 
L 144.555386 16.044274 
L 145.869109 16.044274 
L 145.869109 11.829025 
L 145.869109 11.829025 
L 144.555386 11.829025 
z
" style="fill:#d43d4f;fill-opacity:0.6;"/>
   </g>
  </g>
 </g>
 <defs>
  <clipPath id="p91a72c88d2">
   <rect height="85.54628" width="94.588073" x="39.21335" y="0.72"/>
  </clipPath>
  <clipPath id="pdada6286e8">
   <rect height="85.54628" width="94.588073" x="145.212247" y="0.72"/>
  </clipPath>
 </defs>
</svg>
