<?xml version="1.0" encoding="utf-8" standalone="no"?>
<!DOCTYPE svg PUBLIC "-//W3C//DTD SVG 1.1//EN"
  "http://www.w3.org/Graphics/SVG/1.1/DTD/svg11.dtd">
<svg height="146.90808pt" version="1.1" viewBox="0 0 240.52032 146.90808" width="240.52032pt" xmlns="http://www.w3.org/2000/svg" xmlns:xlink="http://www.w3.org/1999/xlink">
 <metadata>
  <rdf:RDF xmlns:cc="http://creativecommons.org/ns#" xmlns:dc="http://purl.org/dc/elements/1.1/" xmlns:rdf="http://www.w3.org/1999/02/22-rdf-syntax-ns#">
   <cc:Work>
    <dc:type rdf:resource="http://purl.org/dc/dcmitype/StillImage"/>
    <dc:date>2021-07-20T14:43:17.785588</dc:date>
    <dc:format>image/svg+xml</dc:format>
    <dc:creator>
     <cc:Agent>
      <dc:title>Matplotlib v3.4.2, https://matplotlib.org/</dc:title>
     </cc:Agent>
    </dc:creator>
   </cc:Work>
  </rdf:RDF>
 </metadata>
 <defs>
  <style type="text/css">*{stroke-linecap:butt;stroke-linejoin:round;}</style>
 </defs>
 <g id="figure_1">
  <g id="patch_1">
   <path d="M 0 146.90808 
L 240.52032 146.90808 
L 240.52032 0 
L 0 0 
z
" style="fill:none;"/>
  </g>
  <g id="axes_1">
   <g id="patch_2">
    <path d="M 30.744984 125.018985 
L 239.80032 125.018985 
L 239.80032 0.72 
L 30.744984 0.72 
z
" style="fill:none;"/>
   </g>
   <g id="PolyCollection_1">
    <defs>
     <path d="M 223.126095 -27.764102 
L 223.126095 -27.606966 
L 230.297805 -27.606966 
L 230.297805 -27.764102 
L 230.297805 -27.764102 
L 223.126095 -27.764102 
z
" id="m0f3284725a" style="stroke:#5e4fa2;stroke-opacity:0.6;"/>
    </defs>
    <g>
     <use style="fill:#5e4fa2;fill-opacity:0.6;stroke:#5e4fa2;stroke-opacity:0.6;" x="0" xlink:href="#m0f3284725a" y="146.90808"/>
    </g>
   </g>
   <g id="PolyCollection_2">
    <defs>
     <path d="M 223.126095 -27.253686 
L 223.126095 -27.070165 
L 230.297805 -27.070165 
L 230.297805 -27.253686 
L 230.297805 -27.253686 
L 223.126095 -27.253686 
z
" id="m7b6488a28b" style="stroke:#486cb0;stroke-opacity:0.6;"/>
    </defs>
    <g>
     <use style="fill:#486cb0;fill-opacity:0.6;stroke:#486cb0;stroke-opacity:0.6;" x="0" xlink:href="#m7b6488a28b" y="146.90808"/>
    </g>
   </g>
   <g id="PolyCollection_3">
    <defs>
     <path d="M 223.126095 -36.248398 
L 223.126095 -35.525242 
L 230.297805 -35.525242 
L 230.297805 -36.248398 
L 230.297805 -36.248398 
L 223.126095 -36.248398 
z
" id="m783bf18492" style="stroke:#3389bd;stroke-opacity:0.6;"/>
    </defs>
    <g>
     <use style="fill:#3389bd;fill-opacity:0.6;stroke:#3389bd;stroke-opacity:0.6;" x="0" xlink:href="#m783bf18492" y="146.90808"/>
    </g>
   </g>
   <g id="PolyCollection_4">
    <defs>
     <path d="M 223.126095 -34.900824 
L 223.126095 -34.577004 
L 230.297805 -34.577004 
L 230.297805 -34.900824 
L 230.297805 -34.900824 
L 223.126095 -34.900824 
z
" id="mc019251e3b" style="stroke:#50a9af;stroke-opacity:0.6;"/>
    </defs>
    <g>
     <use style="fill:#50a9af;fill-opacity:0.6;stroke:#50a9af;stroke-opacity:0.6;" x="0" xlink:href="#mc019251e3b" y="146.90808"/>
    </g>
   </g>
   <g id="PolyCollection_5">
    <defs>
     <path d="M 223.126095 -73.573905 
L 223.126095 -68.654706 
L 230.297805 -68.654706 
L 230.297805 -73.573905 
L 230.297805 -73.573905 
L 223.126095 -73.573905 
z
" id="m015c4c2b21" style="stroke:#6bc4a5;stroke-opacity:0.6;"/>
    </defs>
    <g>
     <use style="fill:#6bc4a5;fill-opacity:0.6;stroke:#6bc4a5;stroke-opacity:0.6;" x="0" xlink:href="#m015c4c2b21" y="146.90808"/>
    </g>
   </g>
   <g id="PolyCollection_6">
    <defs>
     <path d="M 223.126095 -101.773847 
L 223.126095 -98.593195 
L 230.297805 -98.593195 
L 230.297805 -101.773847 
L 230.297805 -101.773847 
L 223.126095 -101.773847 
z
" id="m965072fdce" style="stroke:#91d3a4;stroke-opacity:0.6;"/>
    </defs>
    <g>
     <use style="fill:#91d3a4;fill-opacity:0.6;stroke:#91d3a4;stroke-opacity:0.6;" x="0" xlink:href="#m965072fdce" y="146.90808"/>
    </g>
   </g>
   <g id="matplotlib.axis_1">
    <g id="xtick_1">
     <g id="line2d_1">
      <defs>
       <path d="M 0 0 
L 0 2 
" id="mc4ef13599a" style="stroke:#000000;stroke-width:0.35;"/>
      </defs>
      <g>
       <use style="stroke:#000000;stroke-width:0.35;" x="40.2475" xlink:href="#mc4ef13599a" y="125.018985"/>
      </g>
     </g>
     <g id="text_1">
      <!-- $\mathdefault{1}$ -->
      <g transform="translate(38.130408 135.553787)scale(0.08 -0.08)">
       <defs>
        <path d="M 1702 4058 
C 1702 4192 1696 4192 1606 4192 
C 1357 3916 979 3827 621 3827 
C 602 3827 570 3827 563 3808 
C 557 3795 557 3782 557 3648 
C 755 3648 1088 3686 1344 3839 
L 1344 461 
C 1344 236 1331 160 781 160 
L 589 160 
L 589 0 
C 896 0 1216 0 1523 0 
C 1830 0 2150 0 2458 0 
L 2458 160 
L 2266 160 
C 1715 160 1702 230 1702 458 
L 1702 4058 
z
" id="CMR17-31" transform="scale(0.015625)"/>
       </defs>
       <use transform="scale(0.996264)" xlink:href="#CMR17-31"/>
      </g>
     </g>
    </g>
    <g id="xtick_2">
     <g id="line2d_2">
      <g>
       <use style="stroke:#000000;stroke-width:0.35;" x="76.106048" xlink:href="#mc4ef13599a" y="125.018985"/>
      </g>
     </g>
     <g id="text_2">
      <!-- $\mathdefault{2}$ -->
      <g transform="translate(73.988956 135.553787)scale(0.08 -0.08)">
       <defs>
        <path d="M 2669 989 
L 2554 989 
C 2490 536 2438 459 2413 420 
C 2381 369 1920 369 1830 369 
L 602 369 
C 832 619 1280 1072 1824 1597 
C 2214 1967 2669 2402 2669 3035 
C 2669 3790 2067 4224 1395 4224 
C 691 4224 262 3604 262 3030 
C 262 2780 448 2748 525 2748 
C 589 2748 781 2787 781 3010 
C 781 3207 614 3264 525 3264 
C 486 3264 448 3258 422 3245 
C 544 3790 915 4058 1306 4058 
C 1862 4058 2227 3617 2227 3035 
C 2227 2479 1901 2000 1536 1584 
L 262 146 
L 262 0 
L 2515 0 
L 2669 989 
z
" id="CMR17-32" transform="scale(0.015625)"/>
       </defs>
       <use transform="scale(0.996264)" xlink:href="#CMR17-32"/>
      </g>
     </g>
    </g>
    <g id="xtick_3">
     <g id="line2d_3">
      <g>
       <use style="stroke:#000000;stroke-width:0.35;" x="111.964596" xlink:href="#mc4ef13599a" y="125.018985"/>
      </g>
     </g>
     <g id="text_3">
      <!-- $\mathdefault{3}$ -->
      <g transform="translate(109.847505 135.553787)scale(0.08 -0.08)">
       <defs>
        <path d="M 1414 2157 
C 1984 2157 2234 1662 2234 1090 
C 2234 320 1824 25 1453 25 
C 1114 25 563 194 390 693 
C 422 680 454 680 486 680 
C 640 680 755 782 755 948 
C 755 1133 614 1216 486 1216 
C 378 1216 211 1165 211 926 
C 211 335 787 -128 1466 -128 
C 2176 -128 2720 430 2720 1085 
C 2720 1707 2208 2157 1600 2227 
C 2086 2328 2554 2756 2554 3329 
C 2554 3820 2048 4179 1472 4179 
C 890 4179 378 3829 378 3329 
C 378 3110 544 3072 627 3072 
C 762 3072 877 3155 877 3321 
C 877 3486 762 3569 627 3569 
C 602 3569 570 3569 544 3557 
C 730 3959 1235 4032 1459 4032 
C 1683 4032 2106 3925 2106 3320 
C 2106 3143 2080 2828 1862 2550 
C 1670 2304 1453 2304 1242 2284 
C 1210 2284 1062 2269 1037 2269 
C 992 2263 966 2257 966 2208 
C 966 2163 973 2157 1101 2157 
L 1414 2157 
z
" id="CMR17-33" transform="scale(0.015625)"/>
       </defs>
       <use transform="scale(0.996264)" xlink:href="#CMR17-33"/>
      </g>
     </g>
    </g>
    <g id="xtick_4">
     <g id="line2d_4">
      <g>
       <use style="stroke:#000000;stroke-width:0.35;" x="147.823144" xlink:href="#mc4ef13599a" y="125.018985"/>
      </g>
     </g>
     <g id="text_4">
      <!-- $\mathdefault{4}$ -->
      <g transform="translate(145.706053 135.553787)scale(0.08 -0.08)">
       <defs>
        <path d="M 2150 4122 
C 2150 4256 2144 4256 2029 4256 
L 128 1254 
L 128 1088 
L 1779 1088 
L 1779 457 
C 1779 224 1766 160 1318 160 
L 1197 160 
L 1197 0 
C 1402 0 1747 0 1965 0 
C 2182 0 2528 0 2733 0 
L 2733 160 
L 2611 160 
C 2163 160 2150 224 2150 457 
L 2150 1088 
L 2803 1088 
L 2803 1254 
L 2150 1254 
L 2150 4122 
z
M 1798 3703 
L 1798 1254 
L 256 1254 
L 1798 3703 
z
" id="CMR17-34" transform="scale(0.015625)"/>
       </defs>
       <use transform="scale(0.996264)" xlink:href="#CMR17-34"/>
      </g>
     </g>
    </g>
    <g id="xtick_5">
     <g id="line2d_5">
      <g>
       <use style="stroke:#000000;stroke-width:0.35;" x="183.681692" xlink:href="#mc4ef13599a" y="125.018985"/>
      </g>
     </g>
     <g id="text_5">
      <!-- $\mathdefault{5}$ -->
      <g transform="translate(181.564601 135.553787)scale(0.08 -0.08)">
       <defs>
        <path d="M 730 3692 
C 794 3666 1056 3584 1325 3584 
C 1920 3584 2246 3911 2432 4100 
C 2432 4157 2432 4192 2394 4192 
C 2387 4192 2374 4192 2323 4163 
C 2099 4058 1837 3973 1517 3973 
C 1325 3973 1037 3999 723 4139 
C 653 4171 640 4171 634 4171 
C 602 4171 595 4164 595 4037 
L 595 2203 
C 595 2089 595 2057 659 2057 
C 691 2057 704 2070 736 2114 
C 941 2401 1222 2522 1542 2522 
C 1766 2522 2246 2382 2246 1289 
C 2246 1085 2246 715 2054 421 
C 1894 159 1645 25 1370 25 
C 947 25 518 320 403 814 
C 429 807 480 795 506 795 
C 589 795 749 840 749 1038 
C 749 1210 627 1280 506 1280 
C 358 1280 262 1190 262 1011 
C 262 454 704 -128 1382 -128 
C 2042 -128 2669 440 2669 1264 
C 2669 2030 2170 2624 1549 2624 
C 1222 2624 947 2503 730 2274 
L 730 3692 
z
" id="CMR17-35" transform="scale(0.015625)"/>
       </defs>
       <use transform="scale(0.996264)" xlink:href="#CMR17-35"/>
      </g>
     </g>
    </g>
    <g id="xtick_6">
     <g id="line2d_6">
      <g>
       <use style="stroke:#000000;stroke-width:0.35;" x="219.54024" xlink:href="#mc4ef13599a" y="125.018985"/>
      </g>
     </g>
     <g id="text_6">
      <!-- $\mathdefault{6}$ -->
      <g transform="translate(217.423149 135.553787)scale(0.08 -0.08)">
       <defs>
        <path d="M 678 2176 
C 678 3690 1395 4032 1811 4032 
C 1946 4032 2272 4009 2400 3776 
C 2298 3776 2106 3776 2106 3553 
C 2106 3381 2246 3323 2336 3323 
C 2394 3323 2566 3348 2566 3560 
C 2566 3954 2246 4179 1805 4179 
C 1043 4179 243 3390 243 1984 
C 243 253 966 -128 1478 -128 
C 2099 -128 2688 427 2688 1283 
C 2688 2081 2170 2662 1517 2662 
C 1126 2662 838 2407 678 1960 
L 678 2176 
z
M 1478 25 
C 691 25 691 1200 691 1436 
C 691 1896 909 2560 1504 2560 
C 1613 2560 1926 2560 2138 2120 
C 2253 1870 2253 1609 2253 1289 
C 2253 944 2253 690 2118 434 
C 1978 171 1773 25 1478 25 
z
" id="CMR17-36" transform="scale(0.015625)"/>
       </defs>
       <use transform="scale(0.996264)" xlink:href="#CMR17-36"/>
      </g>
     </g>
    </g>
    <g id="text_7">
     <!-- Bipartition Size  $\;n$ -->
     <g transform="translate(101.004604 144.638334)scale(0.08 -0.08)">
      <defs>
       <path d="M 333 4352 
L 333 4186 
C 774 4186 845 4186 845 3900 
L 845 452 
C 845 166 774 166 333 166 
L 333 0 
L 2534 0 
C 3354 0 3885 583 3885 1164 
C 3885 1741 3360 2233 2675 2233 
C 3290 2356 3718 2771 3718 3264 
C 3718 3802 3194 4352 2368 4352 
L 333 4352 
z
M 1248 2304 
L 1248 3937 
C 1248 4155 1261 4186 1517 4186 
L 2336 4186 
C 2970 4186 3251 3674 3251 3277 
C 3251 2791 2861 2304 2170 2304 
L 1248 2304 
z
M 1517 166 
C 1261 166 1248 197 1248 413 
L 1248 2202 
L 2432 2202 
C 3091 2202 3411 1625 3411 1162 
C 3411 699 3046 166 2349 166 
L 1517 166 
z
" id="CMR17-42" transform="scale(0.015625)"/>
       <path d="M 992 3909 
C 992 4049 877 4170 730 4170 
C 589 4170 467 4056 467 3909 
C 467 3769 582 3648 730 3648 
C 870 3648 992 3763 992 3909 
z
M 243 2706 
L 243 2541 
C 602 2541 653 2502 653 2197 
L 653 427 
C 653 184 627 153 218 153 
L 218 -13 
C 371 0 646 0 806 0 
C 960 0 1222 0 1370 -13 
L 1370 153 
C 992 153 979 191 979 420 
L 979 2776 
L 243 2706 
z
" id="CMR17-69" transform="scale(0.015625)"/>
       <path d="M 1408 -1063 
C 998 -1063 973 -1037 973 -789 
L 973 402 
C 1158 134 1427 -38 1766 -38 
C 2406 -38 3053 523 3053 1388 
C 3053 2191 2496 2802 1837 2802 
C 1453 2802 1139 2592 960 2338 
L 960 2802 
L 198 2732 
L 198 2567 
C 576 2567 634 2528 634 2223 
L 634 -789 
C 634 -1031 608 -1063 198 -1063 
L 198 -1228 
C 352 -1216 634 -1216 800 -1216 
C 966 -1216 1254 -1216 1408 -1228 
L 1408 -1063 
z
M 973 2012 
C 973 2102 973 2235 1222 2471 
C 1254 2497 1472 2688 1792 2688 
C 2259 2688 2643 2108 2643 1382 
C 2643 656 2234 64 1728 64 
C 1498 64 1248 172 1056 472 
C 973 612 973 650 973 752 
L 973 2012 
z
" id="CMR17-70" transform="scale(0.015625)"/>
       <path d="M 2304 1653 
C 2304 2072 2304 2294 2035 2543 
C 1798 2752 1523 2816 1306 2816 
C 800 2816 435 2407 435 1971 
C 435 1728 627 1728 666 1728 
C 749 1728 896 1778 896 1954 
C 896 2112 774 2181 666 2181 
C 640 2181 608 2174 589 2168 
C 723 2592 1069 2714 1293 2714 
C 1613 2714 1965 2429 1965 1885 
L 1965 1600 
C 1587 1600 1133 1549 774 1357 
C 371 1133 256 813 256 570 
C 256 77 832 -64 1171 -64 
C 1523 -64 1850 139 1990 511 
C 2003 233 2182 -18 2464 -18 
C 2598 -18 2938 70 2938 567 
L 2938 920 
L 2822 920 
L 2822 562 
C 2822 178 2650 128 2566 128 
C 2304 128 2304 458 2304 738 
L 2304 1653 
z
M 1965 870 
C 1965 317 1568 38 1216 38 
C 896 38 646 275 646 570 
C 646 761 730 1100 1101 1305 
C 1408 1478 1760 1504 1965 1504 
L 1965 870 
z
" id="CMR17-61" transform="scale(0.015625)"/>
       <path d="M 960 1497 
C 960 2112 1222 2688 1702 2688 
C 1747 2688 1792 2682 1837 2662 
C 1837 2662 1696 2617 1696 2452 
C 1696 2298 1818 2234 1914 2234 
C 1990 2234 2131 2279 2131 2458 
C 2131 2663 1926 2790 1709 2790 
C 1222 2790 1011 2317 947 2093 
L 941 2093 
L 941 2790 
L 198 2720 
L 198 2554 
C 576 2554 634 2515 634 2208 
L 634 428 
C 634 184 608 153 198 153 
L 198 -13 
C 352 0 646 0 813 0 
C 998 0 1325 0 1498 -13 
L 1498 153 
C 1037 153 960 153 960 440 
L 960 1497 
z
" id="CMR17-72" transform="scale(0.015625)"/>
       <path d="M 966 2560 
L 1862 2560 
L 1862 2725 
L 966 2725 
L 966 3904 
L 851 3904 
C 838 3245 614 2668 70 2668 
L 70 2560 
L 627 2560 
L 627 771 
C 627 650 627 -64 1370 -64 
C 1747 -64 1965 306 1965 777 
L 1965 1140 
L 1850 1140 
L 1850 783 
C 1850 344 1677 51 1408 51 
C 1222 51 966 178 966 758 
L 966 2560 
z
" id="CMR17-74" transform="scale(0.015625)"/>
       <path d="M 2758 1356 
C 2758 2176 2163 2816 1466 2816 
C 768 2816 173 2176 173 1356 
C 173 551 768 -64 1466 -64 
C 2163 -64 2758 551 2758 1356 
z
M 1466 51 
C 1165 51 909 230 762 480 
C 602 767 582 1126 582 1408 
C 582 1677 595 2010 762 2298 
C 890 2509 1139 2714 1466 2714 
C 1754 2714 1997 2554 2150 2330 
C 2349 2029 2349 1607 2349 1408 
C 2349 1158 2336 775 2163 467 
C 1984 173 1709 51 1466 51 
z
" id="CMR17-6f" transform="scale(0.015625)"/>
       <path d="M 2656 1933 
C 2656 2259 2592 2790 1837 2790 
C 1331 2790 1069 2400 973 2144 
L 966 2144 
L 966 2790 
L 211 2720 
L 211 2554 
C 589 2554 646 2515 646 2208 
L 646 428 
C 646 184 621 153 211 153 
L 211 -13 
C 365 0 646 0 813 0 
C 979 0 1267 0 1421 -13 
L 1421 153 
C 1011 153 986 178 986 428 
L 986 1658 
C 986 2247 1344 2688 1792 2688 
C 2266 2688 2317 2266 2317 1958 
L 2317 428 
C 2317 184 2291 153 1882 153 
L 1882 -13 
C 2035 0 2317 0 2483 0 
C 2650 0 2938 0 3091 -13 
L 3091 153 
C 2682 153 2656 178 2656 428 
L 2656 1933 
z
" id="CMR17-6e" transform="scale(0.015625)"/>
       <path d="M 2803 4290 
C 2803 4404 2797 4411 2758 4411 
C 2720 4411 2707 4385 2682 4328 
L 2490 3907 
C 2246 4257 1875 4416 1472 4416 
C 819 4416 294 3901 294 3253 
C 294 3056 339 2776 557 2510 
C 794 2218 1018 2167 1530 2033 
C 1722 1982 2042 1899 2106 1874 
C 2470 1722 2662 1341 2662 985 
C 2662 527 2336 38 1779 38 
C 1094 38 454 419 410 1311 
C 403 1413 397 1419 352 1419 
C 301 1419 294 1413 294 1285 
L 294 -1 
C 294 -115 301 -122 339 -122 
C 384 -122 397 -90 486 108 
C 493 127 493 140 614 381 
C 934 -39 1472 -128 1779 -128 
C 2477 -128 2970 451 2970 1124 
C 2970 1454 2848 1708 2778 1823 
C 2509 2230 2221 2306 1914 2382 
C 1869 2402 1856 2402 1498 2490 
C 1152 2579 1005 2624 845 2796 
C 666 2992 602 3196 602 3399 
C 602 3812 934 4263 1478 4263 
C 2157 4263 2579 3786 2675 2993 
C 2694 2878 2701 2872 2746 2872 
C 2803 2872 2803 2891 2803 2999 
L 2803 4290 
z
" id="CMR17-53" transform="scale(0.015625)"/>
       <path d="M 2310 2605 
C 2362 2670 2362 2682 2362 2695 
C 2362 2752 2336 2752 2221 2752 
L 275 2752 
L 211 1760 
L 326 1760 
C 371 2381 442 2650 1178 2650 
L 1958 2650 
L 128 96 
C 128 0 134 0 269 0 
L 2291 0 
L 2381 1152 
L 2266 1152 
C 2214 442 2131 115 1350 115 
L 531 115 
L 2310 2605 
z
" id="CMR17-7a" transform="scale(0.015625)"/>
       <path d="M 2438 1472 
C 2464 1498 2464 1511 2464 1576 
C 2464 2238 2118 2816 1389 2816 
C 710 2816 173 2169 173 1383 
C 173 551 781 -64 1459 -64 
C 2176 -64 2458 607 2458 740 
C 2458 784 2419 784 2406 784 
C 2362 784 2355 771 2330 696 
C 2189 265 1837 51 1504 51 
C 1229 51 954 203 781 480 
C 582 803 582 1176 582 1472 
L 2438 1472 
z
M 589 1568 
C 634 2505 1126 2714 1382 2714 
C 1818 2714 2112 2297 2118 1568 
L 589 1568 
z
" id="CMR17-65" transform="scale(0.015625)"/>
       <path d="M 1318 1871 
C 1331 1910 1491 2229 1728 2433 
C 1894 2586 2112 2689 2362 2689 
C 2618 2689 2707 2497 2707 2242 
C 2707 1878 2445 1150 2317 805 
C 2259 651 2227 568 2227 453 
C 2227 166 2426 -64 2733 -64 
C 3328 -64 3552 875 3552 913 
C 3552 945 3526 971 3488 971 
C 3430 971 3424 952 3392 843 
C 3245 319 3002 64 2752 64 
C 2688 64 2586 64 2586 269 
C 2586 429 2656 621 2694 710 
C 2822 1063 3091 1780 3091 2145 
C 3091 2528 2867 2816 2381 2816 
C 1811 2816 1510 2415 1395 2255 
C 1376 2618 1114 2816 832 2816 
C 627 2816 486 2695 378 2478 
C 262 2248 173 1865 173 1839 
C 173 1814 198 1782 243 1782 
C 294 1782 301 1788 339 1935 
C 442 2325 557 2689 813 2689 
C 960 2689 1011 2586 1011 2395 
C 1011 2254 947 2005 902 1807 
L 723 1118 
C 698 996 627 709 595 594 
C 550 428 480 128 480 96 
C 480 6 550 -64 646 -64 
C 723 -64 813 -26 864 70 
C 877 102 934 326 966 453 
L 1107 1028 
L 1318 1871 
z
" id="CMMI12-6e" transform="scale(0.015625)"/>
      </defs>
      <use transform="scale(0.996264)" xlink:href="#CMR17-42"/>
      <use transform="translate(65.188754 0)scale(0.996264)" xlink:href="#CMR17-69"/>
      <use transform="translate(90.059813 0)scale(0.996264)" xlink:href="#CMR17-70"/>
      <use transform="translate(140.955183 0)scale(0.996264)" xlink:href="#CMR17-61"/>
      <use transform="translate(186.64566 0)scale(0.996264)" xlink:href="#CMR17-72"/>
      <use transform="translate(221.926428 0)scale(0.996264)" xlink:href="#CMR17-74"/>
      <use transform="translate(257.207195 0)scale(0.996264)" xlink:href="#CMR17-69"/>
      <use transform="translate(282.078254 0)scale(0.996264)" xlink:href="#CMR17-74"/>
      <use transform="translate(317.359022 0)scale(0.996264)" xlink:href="#CMR17-69"/>
      <use transform="translate(342.23008 0)scale(0.996264)" xlink:href="#CMR17-6f"/>
      <use transform="translate(387.920557 0)scale(0.996264)" xlink:href="#CMR17-6e"/>
      <use transform="translate(468.891893 0)scale(0.996264)" xlink:href="#CMR17-53"/>
      <use transform="translate(519.787263 0)scale(0.996264)" xlink:href="#CMR17-69"/>
      <use transform="translate(544.658322 0)scale(0.996264)" xlink:href="#CMR17-7a"/>
      <use transform="translate(585.143982 0)scale(0.996264)" xlink:href="#CMR17-65"/>
      <use transform="translate(683.379618 0)scale(0.996264)" xlink:href="#CMMI12-6e"/>
     </g>
    </g>
   </g>
   <g id="matplotlib.axis_2">
    <g id="ytick_1">
     <g id="line2d_7">
      <defs>
       <path d="M 0 0 
L -2 0 
" id="mc66f8b2c27" style="stroke:#000000;stroke-width:0.35;"/>
      </defs>
      <g>
       <use style="stroke:#000000;stroke-width:0.35;" x="30.744984" xlink:href="#mc66f8b2c27" y="125.018985"/>
      </g>
     </g>
     <g id="text_8">
      <!-- $\mathdefault{0.00}$ -->
      <g transform="translate(10.690112 127.786386)scale(0.08 -0.08)">
       <defs>
        <path d="M 2688 2025 
C 2688 2416 2682 3080 2413 3591 
C 2176 4039 1798 4198 1466 4198 
C 1158 4198 768 4058 525 3597 
C 269 3118 243 2524 243 2025 
C 243 1661 250 1106 448 619 
C 723 -39 1216 -128 1466 -128 
C 1760 -128 2208 -7 2470 600 
C 2662 1042 2688 1559 2688 2025 
z
M 1466 -26 
C 1056 -26 813 325 723 812 
C 653 1188 653 1738 653 2096 
C 653 2588 653 2997 736 3387 
C 858 3929 1216 4096 1466 4096 
C 1728 4096 2067 3923 2189 3400 
C 2272 3036 2278 2607 2278 2096 
C 2278 1680 2278 1169 2202 792 
C 2067 95 1690 -26 1466 -26 
z
" id="CMR17-30" transform="scale(0.015625)"/>
        <path d="M 1178 307 
C 1178 492 1024 619 870 619 
C 685 619 557 466 557 313 
C 557 128 710 0 864 0 
C 1050 0 1178 153 1178 307 
z
" id="CMMI12-3a" transform="scale(0.015625)"/>
       </defs>
       <use transform="scale(0.996264)" xlink:href="#CMR17-30"/>
       <use transform="translate(45.690477 0)scale(0.996264)" xlink:href="#CMMI12-3a"/>
       <use transform="translate(72.787654 0)scale(0.996264)" xlink:href="#CMR17-30"/>
       <use transform="translate(118.478131 0)scale(0.996264)" xlink:href="#CMR17-30"/>
      </g>
     </g>
    </g>
    <g id="ytick_2">
     <g id="line2d_8">
      <g>
       <use style="stroke:#000000;stroke-width:0.35;" x="30.744984" xlink:href="#mc66f8b2c27" y="94.702159"/>
      </g>
     </g>
     <g id="text_9">
      <!-- $\mathdefault{0.02}$ -->
      <g transform="translate(10.690112 97.46956)scale(0.08 -0.08)">
       <use transform="scale(0.996264)" xlink:href="#CMR17-30"/>
       <use transform="translate(45.690477 0)scale(0.996264)" xlink:href="#CMMI12-3a"/>
       <use transform="translate(72.787654 0)scale(0.996264)" xlink:href="#CMR17-30"/>
       <use transform="translate(118.478131 0)scale(0.996264)" xlink:href="#CMR17-32"/>
      </g>
     </g>
    </g>
    <g id="ytick_3">
     <g id="line2d_9">
      <g>
       <use style="stroke:#000000;stroke-width:0.35;" x="30.744984" xlink:href="#mc66f8b2c27" y="64.385334"/>
      </g>
     </g>
     <g id="text_10">
      <!-- $\mathdefault{0.04}$ -->
      <g transform="translate(10.690112 67.152735)scale(0.08 -0.08)">
       <use transform="scale(0.996264)" xlink:href="#CMR17-30"/>
       <use transform="translate(45.690477 0)scale(0.996264)" xlink:href="#CMMI12-3a"/>
       <use transform="translate(72.787654 0)scale(0.996264)" xlink:href="#CMR17-30"/>
       <use transform="translate(118.478131 0)scale(0.996264)" xlink:href="#CMR17-34"/>
      </g>
     </g>
    </g>
    <g id="ytick_4">
     <g id="line2d_10">
      <g>
       <use style="stroke:#000000;stroke-width:0.35;" x="30.744984" xlink:href="#mc66f8b2c27" y="34.068508"/>
      </g>
     </g>
     <g id="text_11">
      <!-- $\mathdefault{0.06}$ -->
      <g transform="translate(10.690112 36.835909)scale(0.08 -0.08)">
       <use transform="scale(0.996264)" xlink:href="#CMR17-30"/>
       <use transform="translate(45.690477 0)scale(0.996264)" xlink:href="#CMMI12-3a"/>
       <use transform="translate(72.787654 0)scale(0.996264)" xlink:href="#CMR17-30"/>
       <use transform="translate(118.478131 0)scale(0.996264)" xlink:href="#CMR17-36"/>
      </g>
     </g>
    </g>
    <g id="ytick_5">
     <g id="line2d_11">
      <g>
       <use style="stroke:#000000;stroke-width:0.35;" x="30.744984" xlink:href="#mc66f8b2c27" y="3.751683"/>
      </g>
     </g>
     <g id="text_12">
      <!-- $\mathdefault{0.08}$ -->
      <g transform="translate(10.690112 6.519083)scale(0.08 -0.08)">
       <defs>
        <path d="M 1741 2264 
C 2144 2467 2554 2773 2554 3263 
C 2554 3841 1990 4179 1472 4179 
C 890 4179 378 3759 378 3180 
C 378 3021 416 2747 666 2505 
C 730 2442 998 2251 1171 2130 
C 883 1983 211 1634 211 934 
C 211 279 838 -128 1459 -128 
C 2144 -128 2720 362 2720 1010 
C 2720 1590 2330 1857 2074 2029 
L 1741 2264 
z
M 902 2822 
C 851 2854 595 3051 595 3351 
C 595 3739 998 4032 1459 4032 
C 1965 4032 2336 3676 2336 3262 
C 2336 2669 1670 2331 1638 2331 
C 1632 2331 1626 2331 1574 2370 
L 902 2822 
z
M 2080 1519 
C 2176 1449 2483 1240 2483 851 
C 2483 381 2010 25 1472 25 
C 890 25 448 438 448 940 
C 448 1443 838 1862 1280 2060 
L 2080 1519 
z
" id="CMR17-38" transform="scale(0.015625)"/>
       </defs>
       <use transform="scale(0.996264)" xlink:href="#CMR17-30"/>
       <use transform="translate(45.690477 0)scale(0.996264)" xlink:href="#CMMI12-3a"/>
       <use transform="translate(72.787654 0)scale(0.996264)" xlink:href="#CMR17-30"/>
       <use transform="translate(118.478131 0)scale(0.996264)" xlink:href="#CMR17-38"/>
      </g>
     </g>
    </g>
    <g id="text_13">
     <!-- $\Delta S(t\to\infty;n)/n$ -->
     <g transform="translate(6.697584 93.975957)rotate(-90)scale(0.08 -0.08)">
      <defs>
       <path d="M 2598 4403 
C 2547 4512 2522 4512 2470 4512 
C 2394 4512 2387 4499 2342 4409 
L 269 109 
C 262 96 237 38 237 32 
C 237 6 243 0 358 0 
L 4576 0 
C 4691 0 4698 6 4698 32 
C 4698 38 4672 96 4666 109 
L 2598 4403 
z
M 2310 4038 
L 4083 358 
L 531 358 
L 2310 4038 
z
" id="CMR17-1" transform="scale(0.015625)"/>
       <path d="M 4064 4423 
C 4064 4480 4019 4480 4006 4480 
C 3981 4480 3974 4474 3898 4378 
C 3859 4333 3597 4001 3590 3995 
C 3379 4410 2957 4480 2688 4480 
C 1875 4480 1139 3743 1139 3025 
C 1139 2549 1427 2269 1741 2161 
C 1811 2135 2189 2033 2381 1989 
C 2707 1900 2790 1875 2925 1735 
C 2950 1703 3078 1557 3078 1258 
C 3078 667 2528 57 1888 57 
C 1363 57 781 280 781 991 
C 781 1112 806 1265 826 1328 
C 826 1348 832 1378 832 1391 
C 832 1417 819 1449 768 1449 
C 710 1449 704 1436 678 1328 
L 352 24 
C 352 18 326 -64 326 -71 
C 326 -128 378 -128 390 -128 
C 416 -128 422 -122 499 -26 
L 794 356 
C 947 126 1280 -128 1875 -128 
C 2701 -128 3456 666 3456 1460 
C 3456 1728 3392 1963 3149 2197 
C 3014 2331 2899 2363 2310 2516 
C 1882 2630 1824 2649 1709 2751 
C 1600 2858 1517 3011 1517 3227 
C 1517 3761 2061 4308 2669 4308 
C 3296 4308 3590 3926 3590 3323 
C 3590 3158 3558 2986 3558 2961 
C 3558 2903 3610 2903 3629 2903 
C 3686 2903 3693 2922 3718 3024 
L 4064 4423 
z
" id="CMMI12-53" transform="scale(0.015625)"/>
       <path d="M 1958 -1561 
C 1958 -1555 1958 -1542 1939 -1523 
C 1645 -1224 858 -407 858 1581 
C 858 3569 1632 4379 1946 4697 
C 1946 4704 1958 4717 1958 4736 
C 1958 4755 1939 4768 1914 4768 
C 1843 4768 1299 4296 986 3594 
C 666 2887 576 2199 576 1588 
C 576 1128 621 351 1005 -471 
C 1312 -1135 1837 -1600 1914 -1600 
C 1946 -1600 1958 -1587 1958 -1561 
z
" id="CMR17-28" transform="scale(0.015625)"/>
       <path d="M 1286 2566 
L 1875 2566 
C 1997 2566 2061 2566 2061 2681 
C 2061 2752 2022 2752 1894 2752 
L 1331 2752 
L 1568 3692 
C 1594 3781 1594 3794 1594 3840 
C 1594 3943 1510 4000 1427 4000 
C 1376 4000 1229 3981 1178 3775 
L 928 2752 
L 326 2752 
C 198 2752 141 2752 141 2630 
C 141 2566 186 2566 307 2566 
L 877 2566 
L 454 881 
C 403 658 384 594 384 511 
C 384 211 595 -64 954 -64 
C 1600 -64 1946 868 1946 912 
C 1946 951 1920 970 1882 970 
C 1869 970 1843 970 1830 944 
C 1824 938 1818 931 1773 829 
C 1638 511 1344 64 973 64 
C 781 64 768 224 768 364 
C 768 370 768 492 787 568 
L 1286 2566 
z
" id="CMMI12-74" transform="scale(0.015625)"/>
       <path d="M 5338 1472 
C 4986 1203 4813 941 4762 858 
C 4474 416 4422 13 4422 6 
C 4422 -70 4499 -70 4550 -70 
C 4659 -70 4666 -58 4691 58 
C 4838 685 5216 1222 5939 1517 
C 6016 1542 6035 1555 6035 1600 
C 6035 1645 5997 1664 5984 1670 
C 5702 1779 4928 2099 4685 3174 
C 4666 3251 4659 3270 4550 3270 
C 4499 3270 4422 3270 4422 3193 
C 4422 3180 4480 2777 4749 2349 
C 4877 2157 5062 1933 5338 1728 
L 582 1728 
C 467 1728 352 1728 352 1600 
C 352 1472 467 1472 582 1472 
L 5338 1472 
z
" id="CMSY10-21" transform="scale(0.015625)"/>
       <path d="M 3251 1730 
C 2906 2166 2829 2262 2630 2422 
C 2272 2710 1914 2825 1587 2825 
C 838 2825 352 2122 352 1374 
C 352 639 826 -70 1562 -70 
C 2298 -70 2829 511 3142 1022 
C 3488 588 3565 492 3763 332 
C 4122 45 4480 -70 4806 -70 
C 5555 -70 6042 633 6042 1380 
C 6042 2115 5568 2825 4832 2825 
C 4096 2825 3565 2242 3251 1730 
z
M 3418 1514 
C 3680 1975 4154 2620 4877 2620 
C 5555 2620 5901 1955 5901 1380 
C 5901 753 5472 236 4909 236 
C 4538 236 4250 505 4115 638 
C 3955 811 3808 1009 3418 1514 
z
M 2976 1240 
C 2714 780 2240 134 1517 134 
C 838 134 493 799 493 1374 
C 493 2000 922 2518 1485 2518 
C 1856 2518 2144 2249 2278 2115 
C 2438 1943 2586 1744 2976 1240 
z
" id="CMSY10-31" transform="scale(0.015625)"/>
       <path d="M 1062 2491 
C 1062 2650 934 2752 800 2752 
C 672 2752 538 2650 538 2491 
C 538 2332 666 2230 800 2230 
C 928 2230 1062 2332 1062 2491 
z
M 979 -71 
C 979 -483 851 -817 634 -1126 
C 595 -1170 595 -1183 595 -1190 
C 595 -1222 621 -1248 646 -1248 
C 678 -1248 1082 -805 1082 -61 
C 1082 189 1062 522 800 522 
C 659 522 538 427 538 261 
C 538 96 659 0 800 0 
C 864 0 934 19 979 64 
L 979 -71 
z
" id="CMR17-3b" transform="scale(0.015625)"/>
       <path d="M 1683 1581 
C 1683 2040 1638 2817 1254 3639 
C 947 4303 422 4768 346 4768 
C 326 4768 301 4761 301 4729 
C 301 4717 307 4710 314 4697 
C 621 4378 1402 3568 1402 1584 
C 1402 -407 627 -1217 314 -1537 
C 307 -1549 301 -1556 301 -1568 
C 301 -1600 326 -1600 346 -1600 
C 416 -1600 960 -1128 1274 -426 
C 1594 281 1683 969 1683 1581 
z
" id="CMR17-29" transform="scale(0.015625)"/>
       <path d="M 2746 4562 
C 2746 4569 2784 4666 2784 4678 
C 2784 4755 2720 4800 2669 4800 
C 2637 4800 2579 4800 2528 4659 
L 384 -1363 
C 384 -1370 346 -1465 346 -1478 
C 346 -1555 410 -1600 461 -1600 
C 499 -1600 557 -1593 602 -1459 
L 2746 4562 
z
" id="CMMI12-3d" transform="scale(0.015625)"/>
      </defs>
      <use transform="scale(0.996264)" xlink:href="#CMR17-1"/>
      <use transform="translate(76.91959 0)scale(0.996264)" xlink:href="#CMMI12-53"/>
      <use transform="translate(142.714029 0)scale(0.996264)" xlink:href="#CMR17-28"/>
      <use transform="translate(177.994797 0)scale(0.996264)" xlink:href="#CMMI12-74"/>
      <use transform="translate(240.895136 0)scale(0.996264)" xlink:href="#CMSY10-21"/>
      <use transform="translate(368.195819 0)scale(0.996264)" xlink:href="#CMSY10-31"/>
      <use transform="translate(467.822494 0)scale(0.996264)" xlink:href="#CMR17-3b"/>
      <use transform="translate(509.297957 0)scale(0.996264)" xlink:href="#CMMI12-6e"/>
      <use transform="translate(567.528005 0)scale(0.996264)" xlink:href="#CMR17-29"/>
      <use transform="translate(602.808773 0)scale(0.996264)" xlink:href="#CMMI12-3d"/>
      <use transform="translate(651.583691 0)scale(0.996264)" xlink:href="#CMMI12-6e"/>
     </g>
    </g>
   </g>
   <g id="LineCollection_1">
    <path clip-path="url(#p223388171c)" d="M 40.2475 115.816193 
L 40.2475 115.40545 
" style="fill:none;stroke:#5e4fa2;stroke-width:0.5;"/>
    <path clip-path="url(#p223388171c)" d="M 76.106048 116.546781 
L 76.106048 116.169789 
" style="fill:none;stroke:#5e4fa2;stroke-width:0.5;"/>
    <path clip-path="url(#p223388171c)" d="M 111.964596 117.307904 
L 111.964596 116.965984 
" style="fill:none;stroke:#5e4fa2;stroke-width:0.5;"/>
    <path clip-path="url(#p223388171c)" d="M 147.823144 118.101498 
L 147.823144 117.795865 
" style="fill:none;stroke:#5e4fa2;stroke-width:0.5;"/>
    <path clip-path="url(#p223388171c)" d="M 183.681692 118.928332 
L 183.681692 118.660012 
" style="fill:none;stroke:#5e4fa2;stroke-width:0.5;"/>
    <path clip-path="url(#p223388171c)" d="M 219.54024 119.786528 
L 219.54024 119.556289 
" style="fill:none;stroke:#5e4fa2;stroke-width:0.5;"/>
   </g>
   <g id="LineCollection_2">
    <path clip-path="url(#p223388171c)" d="M 40.2475 116.293103 
L 40.2475 115.979366 
" style="fill:none;stroke:#486cb0;stroke-width:0.5;"/>
    <path clip-path="url(#p223388171c)" d="M 76.106048 116.992453 
L 76.106048 116.705135 
" style="fill:none;stroke:#486cb0;stroke-width:0.5;"/>
    <path clip-path="url(#p223388171c)" d="M 111.964596 117.719363 
L 111.964596 117.459316 
" style="fill:none;stroke:#486cb0;stroke-width:0.5;"/>
    <path clip-path="url(#p223388171c)" d="M 147.823144 118.475317 
L 147.823144 118.243269 
" style="fill:none;stroke:#486cb0;stroke-width:0.5;"/>
    <path clip-path="url(#p223388171c)" d="M 183.681692 119.260641 
L 183.681692 119.057154 
" style="fill:none;stroke:#486cb0;stroke-width:0.5;"/>
    <path clip-path="url(#p223388171c)" d="M 219.54024 120.073142 
L 219.54024 119.898602 
" style="fill:none;stroke:#486cb0;stroke-width:0.5;"/>
   </g>
   <g id="LineCollection_3">
    <path clip-path="url(#p223388171c)" d="M 40.2475 102.457382 
L 40.2475 101.632438 
" style="fill:none;stroke:#3389bd;stroke-width:0.5;"/>
    <path clip-path="url(#p223388171c)" d="M 76.106048 104.187655 
L 76.106048 103.427068 
" style="fill:none;stroke:#3389bd;stroke-width:0.5;"/>
    <path clip-path="url(#p223388171c)" d="M 111.964596 106.008868 
L 111.964596 105.316402 
" style="fill:none;stroke:#3389bd;stroke-width:0.5;"/>
    <path clip-path="url(#p223388171c)" d="M 147.823144 107.927938 
L 147.823144 107.307155 
" style="fill:none;stroke:#3389bd;stroke-width:0.5;"/>
    <path clip-path="url(#p223388171c)" d="M 183.681692 109.948281 
L 183.681692 109.402294 
" style="fill:none;stroke:#3389bd;stroke-width:0.5;"/>
    <path clip-path="url(#p223388171c)" d="M 219.54024 112.064794 
L 219.54024 111.596012 
" style="fill:none;stroke:#3389bd;stroke-width:0.5;"/>
   </g>
   <g id="LineCollection_4">
    <path clip-path="url(#p223388171c)" d="M 40.2475 104.302062 
L 40.2475 103.577067 
" style="fill:none;stroke:#50a9af;stroke-width:0.5;"/>
    <path clip-path="url(#p223388171c)" d="M 76.106048 105.923129 
L 76.106048 105.257518 
" style="fill:none;stroke:#50a9af;stroke-width:0.5;"/>
    <path clip-path="url(#p223388171c)" d="M 111.964596 107.620854 
L 111.964596 107.017058 
" style="fill:none;stroke:#50a9af;stroke-width:0.5;"/>
    <path clip-path="url(#p223388171c)" d="M 147.823144 109.399714 
L 147.823144 108.859933 
" style="fill:none;stroke:#50a9af;stroke-width:0.5;"/>
    <path clip-path="url(#p223388171c)" d="M 183.681692 111.260899 
L 183.681692 110.786976 
" style="fill:none;stroke:#50a9af;stroke-width:0.5;"/>
    <path clip-path="url(#p223388171c)" d="M 219.54024 113.198165 
L 219.54024 112.791489 
" style="fill:none;stroke:#50a9af;stroke-width:0.5;"/>
   </g>
   <g id="LineCollection_5">
    <path clip-path="url(#p223388171c)" d="M 40.2475 50.149263 
L 40.2475 47.382404 
" style="fill:none;stroke:#6bc4a5;stroke-width:0.5;"/>
    <path clip-path="url(#p223388171c)" d="M 76.106048 55.408379 
L 76.106048 52.824864 
" style="fill:none;stroke:#6bc4a5;stroke-width:0.5;"/>
    <path clip-path="url(#p223388171c)" d="M 111.964596 61.099225 
L 111.964596 58.721138 
" style="fill:none;stroke:#6bc4a5;stroke-width:0.5;"/>
    <path clip-path="url(#p223388171c)" d="M 147.823144 67.26216 
L 147.823144 65.111786 
" style="fill:none;stroke:#6bc4a5;stroke-width:0.5;"/>
    <path clip-path="url(#p223388171c)" d="M 183.681692 73.919032 
L 183.681692 72.017198 
" style="fill:none;stroke:#6bc4a5;stroke-width:0.5;"/>
    <path clip-path="url(#p223388171c)" d="M 219.54024 81.043809 
L 219.54024 79.407745 
" style="fill:none;stroke:#6bc4a5;stroke-width:0.5;"/>
   </g>
   <g id="LineCollection_6">
    <path clip-path="url(#p223388171c)" d="M 40.2475 5.393572 
L 40.2475 1.655179 
" style="fill:none;stroke:#91d3a4;stroke-width:0.5;"/>
    <path clip-path="url(#p223388171c)" d="M 76.106048 13.822318 
L 76.106048 10.375669 
" style="fill:none;stroke:#91d3a4;stroke-width:0.5;"/>
    <path clip-path="url(#p223388171c)" d="M 111.964596 22.93715 
L 111.964596 19.798358 
" style="fill:none;stroke:#91d3a4;stroke-width:0.5;"/>
    <path clip-path="url(#p223388171c)" d="M 147.823144 32.812778 
L 147.823144 29.997862 
" style="fill:none;stroke:#91d3a4;stroke-width:0.5;"/>
    <path clip-path="url(#p223388171c)" d="M 183.681692 43.477416 
L 183.681692 41.000804 
" style="fill:none;stroke:#91d3a4;stroke-width:0.5;"/>
    <path clip-path="url(#p223388171c)" d="M 219.54024 54.863935 
L 219.54024 52.737189 
" style="fill:none;stroke:#91d3a4;stroke-width:0.5;"/>
   </g>
   <g id="line2d_12">
    <path clip-path="url(#p223388171c)" d="M 40.2475 115.610822 
L 76.106048 116.358285 
L 111.964596 117.136944 
L 147.823144 117.948682 
L 183.681692 118.794172 
L 219.54024 119.671408 
" style="fill:none;stroke:#5e4fa2;stroke-dasharray:1.85,0.8;stroke-dashoffset:0;stroke-linecap:round;stroke-width:0.5;"/>
    <defs>
     <path d="M 0 1.5 
C 0.397805 1.5 0.77937 1.341951 1.06066 1.06066 
C 1.341951 0.77937 1.5 0.397805 1.5 0 
C 1.5 -0.397805 1.341951 -0.77937 1.06066 -1.06066 
C 0.77937 -1.341951 0.397805 -1.5 0 -1.5 
C -0.397805 -1.5 -0.77937 -1.341951 -1.06066 -1.06066 
C -1.341951 -0.77937 -1.5 -0.397805 -1.5 0 
C -1.5 0.397805 -1.341951 0.77937 -1.06066 1.06066 
C -0.77937 1.341951 -0.397805 1.5 0 1.5 
z
" id="m2895a9fdad" style="stroke:#5e4fa2;stroke-width:0.5;"/>
    </defs>
    <g clip-path="url(#p223388171c)">
     <use style="fill:#5d4ea1;fill-opacity:0.533333;stroke:#5e4fa2;stroke-width:0.5;" x="40.2475" xlink:href="#m2895a9fdad" y="115.610822"/>
     <use style="fill:#5d4ea1;fill-opacity:0.533333;stroke:#5e4fa2;stroke-width:0.5;" x="76.106048" xlink:href="#m2895a9fdad" y="116.358285"/>
     <use style="fill:#5d4ea1;fill-opacity:0.533333;stroke:#5e4fa2;stroke-width:0.5;" x="111.964596" xlink:href="#m2895a9fdad" y="117.136944"/>
     <use style="fill:#5d4ea1;fill-opacity:0.533333;stroke:#5e4fa2;stroke-width:0.5;" x="147.823144" xlink:href="#m2895a9fdad" y="117.948682"/>
     <use style="fill:#5d4ea1;fill-opacity:0.533333;stroke:#5e4fa2;stroke-width:0.5;" x="183.681692" xlink:href="#m2895a9fdad" y="118.794172"/>
     <use style="fill:#5d4ea1;fill-opacity:0.533333;stroke:#5e4fa2;stroke-width:0.5;" x="219.54024" xlink:href="#m2895a9fdad" y="119.671408"/>
    </g>
   </g>
   <g id="line2d_13">
    <path clip-path="url(#p223388171c)" d="M 40.2475 116.136235 
L 76.106048 116.848794 
L 111.964596 117.589339 
L 147.823144 118.359293 
L 183.681692 119.158897 
L 219.54024 119.985872 
" style="fill:none;stroke:#486cb0;stroke-dasharray:1.85,0.8;stroke-dashoffset:0;stroke-linecap:round;stroke-width:0.5;"/>
    <defs>
     <path d="M 0 1.5 
C 0.397805 1.5 0.77937 1.341951 1.06066 1.06066 
C 1.341951 0.77937 1.5 0.397805 1.5 0 
C 1.5 -0.397805 1.341951 -0.77937 1.06066 -1.06066 
C 0.77937 -1.341951 0.397805 -1.5 0 -1.5 
C -0.397805 -1.5 -0.77937 -1.341951 -1.06066 -1.06066 
C -1.341951 -0.77937 -1.5 -0.397805 -1.5 0 
C -1.5 0.397805 -1.341951 0.77937 -1.06066 1.06066 
C -0.77937 1.341951 -0.397805 1.5 0 1.5 
z
" id="mb70e667263" style="stroke:#486cb0;stroke-width:0.5;"/>
    </defs>
    <g clip-path="url(#p223388171c)">
     <use style="fill:#476baf;fill-opacity:0.533333;stroke:#486cb0;stroke-width:0.5;" x="40.2475" xlink:href="#mb70e667263" y="116.136235"/>
     <use style="fill:#476baf;fill-opacity:0.533333;stroke:#486cb0;stroke-width:0.5;" x="76.106048" xlink:href="#mb70e667263" y="116.848794"/>
     <use style="fill:#476baf;fill-opacity:0.533333;stroke:#486cb0;stroke-width:0.5;" x="111.964596" xlink:href="#mb70e667263" y="117.589339"/>
     <use style="fill:#476baf;fill-opacity:0.533333;stroke:#486cb0;stroke-width:0.5;" x="147.823144" xlink:href="#mb70e667263" y="118.359293"/>
     <use style="fill:#476baf;fill-opacity:0.533333;stroke:#486cb0;stroke-width:0.5;" x="183.681692" xlink:href="#mb70e667263" y="119.158897"/>
     <use style="fill:#476baf;fill-opacity:0.533333;stroke:#486cb0;stroke-width:0.5;" x="219.54024" xlink:href="#mb70e667263" y="119.985872"/>
    </g>
   </g>
   <g id="line2d_14">
    <path clip-path="url(#p223388171c)" d="M 40.2475 102.04491 
L 76.106048 103.807362 
L 111.964596 105.662635 
L 147.823144 107.617546 
L 183.681692 109.675287 
L 219.54024 111.830403 
" style="fill:none;stroke:#3389bd;stroke-dasharray:1.85,0.8;stroke-dashoffset:0;stroke-linecap:round;stroke-width:0.5;"/>
    <defs>
     <path d="M 0 1.5 
C 0.397805 1.5 0.77937 1.341951 1.06066 1.06066 
C 1.341951 0.77937 1.5 0.397805 1.5 0 
C 1.5 -0.397805 1.341951 -0.77937 1.06066 -1.06066 
C 0.77937 -1.341951 0.397805 -1.5 0 -1.5 
C -0.397805 -1.5 -0.77937 -1.341951 -1.06066 -1.06066 
C -1.341951 -0.77937 -1.5 -0.397805 -1.5 0 
C -1.5 0.397805 -1.341951 0.77937 -1.06066 1.06066 
C -0.77937 1.341951 -0.397805 1.5 0 1.5 
z
" id="mb68f701634" style="stroke:#3389bd;stroke-width:0.5;"/>
    </defs>
    <g clip-path="url(#p223388171c)">
     <use style="fill:#3288bc;fill-opacity:0.533333;stroke:#3389bd;stroke-width:0.5;" x="40.2475" xlink:href="#mb68f701634" y="102.04491"/>
     <use style="fill:#3288bc;fill-opacity:0.533333;stroke:#3389bd;stroke-width:0.5;" x="76.106048" xlink:href="#mb68f701634" y="103.807362"/>
     <use style="fill:#3288bc;fill-opacity:0.533333;stroke:#3389bd;stroke-width:0.5;" x="111.964596" xlink:href="#mb68f701634" y="105.662635"/>
     <use style="fill:#3288bc;fill-opacity:0.533333;stroke:#3389bd;stroke-width:0.5;" x="147.823144" xlink:href="#mb68f701634" y="107.617546"/>
     <use style="fill:#3288bc;fill-opacity:0.533333;stroke:#3389bd;stroke-width:0.5;" x="183.681692" xlink:href="#mb68f701634" y="109.675287"/>
     <use style="fill:#3288bc;fill-opacity:0.533333;stroke:#3389bd;stroke-width:0.5;" x="219.54024" xlink:href="#mb68f701634" y="111.830403"/>
    </g>
   </g>
   <g id="line2d_15">
    <path clip-path="url(#p223388171c)" d="M 40.2475 103.939565 
L 76.106048 105.590323 
L 111.964596 107.318956 
L 147.823144 109.129823 
L 183.681692 111.023937 
L 219.54024 112.994827 
" style="fill:none;stroke:#50a9af;stroke-dasharray:1.85,0.8;stroke-dashoffset:0;stroke-linecap:round;stroke-width:0.5;"/>
    <defs>
     <path d="M 0 1.5 
C 0.397805 1.5 0.77937 1.341951 1.06066 1.06066 
C 1.341951 0.77937 1.5 0.397805 1.5 0 
C 1.5 -0.397805 1.341951 -0.77937 1.06066 -1.06066 
C 0.77937 -1.341951 0.397805 -1.5 0 -1.5 
C -0.397805 -1.5 -0.77937 -1.341951 -1.06066 -1.06066 
C -1.341951 -0.77937 -1.5 -0.397805 -1.5 0 
C -1.5 0.397805 -1.341951 0.77937 -1.06066 1.06066 
C -0.77937 1.341951 -0.397805 1.5 0 1.5 
z
" id="mc82de7b316" style="stroke:#50a9af;stroke-width:0.5;"/>
    </defs>
    <g clip-path="url(#p223388171c)">
     <use style="fill:#4fa8ae;fill-opacity:0.533333;stroke:#50a9af;stroke-width:0.5;" x="40.2475" xlink:href="#mc82de7b316" y="103.939565"/>
     <use style="fill:#4fa8ae;fill-opacity:0.533333;stroke:#50a9af;stroke-width:0.5;" x="76.106048" xlink:href="#mc82de7b316" y="105.590323"/>
     <use style="fill:#4fa8ae;fill-opacity:0.533333;stroke:#50a9af;stroke-width:0.5;" x="111.964596" xlink:href="#mc82de7b316" y="107.318956"/>
     <use style="fill:#4fa8ae;fill-opacity:0.533333;stroke:#50a9af;stroke-width:0.5;" x="147.823144" xlink:href="#mc82de7b316" y="109.129823"/>
     <use style="fill:#4fa8ae;fill-opacity:0.533333;stroke:#50a9af;stroke-width:0.5;" x="183.681692" xlink:href="#mc82de7b316" y="111.023937"/>
     <use style="fill:#4fa8ae;fill-opacity:0.533333;stroke:#50a9af;stroke-width:0.5;" x="219.54024" xlink:href="#mc82de7b316" y="112.994827"/>
    </g>
   </g>
   <g id="line2d_16">
    <path clip-path="url(#p223388171c)" d="M 40.2475 48.765834 
L 76.106048 54.116622 
L 111.964596 59.910181 
L 147.823144 66.186973 
L 183.681692 72.968115 
L 219.54024 80.225777 
" style="fill:none;stroke:#6bc4a5;stroke-dasharray:1.85,0.8;stroke-dashoffset:0;stroke-linecap:round;stroke-width:0.5;"/>
    <defs>
     <path d="M 0 1.5 
C 0.397805 1.5 0.77937 1.341951 1.06066 1.06066 
C 1.341951 0.77937 1.5 0.397805 1.5 0 
C 1.5 -0.397805 1.341951 -0.77937 1.06066 -1.06066 
C 0.77937 -1.341951 0.397805 -1.5 0 -1.5 
C -0.397805 -1.5 -0.77937 -1.341951 -1.06066 -1.06066 
C -1.341951 -0.77937 -1.5 -0.397805 -1.5 0 
C -1.5 0.397805 -1.341951 0.77937 -1.06066 1.06066 
C -0.77937 1.341951 -0.397805 1.5 0 1.5 
z
" id="md9ca03e1e1" style="stroke:#6bc4a5;stroke-width:0.5;"/>
    </defs>
    <g clip-path="url(#p223388171c)">
     <use style="fill:#6ac3a4;fill-opacity:0.533333;stroke:#6bc4a5;stroke-width:0.5;" x="40.2475" xlink:href="#md9ca03e1e1" y="48.765834"/>
     <use style="fill:#6ac3a4;fill-opacity:0.533333;stroke:#6bc4a5;stroke-width:0.5;" x="76.106048" xlink:href="#md9ca03e1e1" y="54.116622"/>
     <use style="fill:#6ac3a4;fill-opacity:0.533333;stroke:#6bc4a5;stroke-width:0.5;" x="111.964596" xlink:href="#md9ca03e1e1" y="59.910181"/>
     <use style="fill:#6ac3a4;fill-opacity:0.533333;stroke:#6bc4a5;stroke-width:0.5;" x="147.823144" xlink:href="#md9ca03e1e1" y="66.186973"/>
     <use style="fill:#6ac3a4;fill-opacity:0.533333;stroke:#6bc4a5;stroke-width:0.5;" x="183.681692" xlink:href="#md9ca03e1e1" y="72.968115"/>
     <use style="fill:#6ac3a4;fill-opacity:0.533333;stroke:#6bc4a5;stroke-width:0.5;" x="219.54024" xlink:href="#md9ca03e1e1" y="80.225777"/>
    </g>
   </g>
   <g id="line2d_17">
    <path clip-path="url(#p223388171c)" d="M 40.2475 3.524375 
L 76.106048 12.098994 
L 111.964596 21.367754 
L 147.823144 31.40532 
L 183.681692 42.23911 
L 219.54024 53.800562 
" style="fill:none;stroke:#91d3a4;stroke-dasharray:1.85,0.8;stroke-dashoffset:0;stroke-linecap:round;stroke-width:0.5;"/>
    <defs>
     <path d="M 0 1.5 
C 0.397805 1.5 0.77937 1.341951 1.06066 1.06066 
C 1.341951 0.77937 1.5 0.397805 1.5 0 
C 1.5 -0.397805 1.341951 -0.77937 1.06066 -1.06066 
C 0.77937 -1.341951 0.397805 -1.5 0 -1.5 
C -0.397805 -1.5 -0.77937 -1.341951 -1.06066 -1.06066 
C -1.341951 -0.77937 -1.5 -0.397805 -1.5 0 
C -1.5 0.397805 -1.341951 0.77937 -1.06066 1.06066 
C -0.77937 1.341951 -0.397805 1.5 0 1.5 
z
" id="m6f434f801f" style="stroke:#91d3a4;stroke-width:0.5;"/>
    </defs>
    <g clip-path="url(#p223388171c)">
     <use style="fill:#90d2a3;fill-opacity:0.533333;stroke:#91d3a4;stroke-width:0.5;" x="40.2475" xlink:href="#m6f434f801f" y="3.524375"/>
     <use style="fill:#90d2a3;fill-opacity:0.533333;stroke:#91d3a4;stroke-width:0.5;" x="76.106048" xlink:href="#m6f434f801f" y="12.098994"/>
     <use style="fill:#90d2a3;fill-opacity:0.533333;stroke:#91d3a4;stroke-width:0.5;" x="111.964596" xlink:href="#m6f434f801f" y="21.367754"/>
     <use style="fill:#90d2a3;fill-opacity:0.533333;stroke:#91d3a4;stroke-width:0.5;" x="147.823144" xlink:href="#m6f434f801f" y="31.40532"/>
     <use style="fill:#90d2a3;fill-opacity:0.533333;stroke:#91d3a4;stroke-width:0.5;" x="183.681692" xlink:href="#m6f434f801f" y="42.23911"/>
     <use style="fill:#90d2a3;fill-opacity:0.533333;stroke:#91d3a4;stroke-width:0.5;" x="219.54024" xlink:href="#m6f434f801f" y="53.800562"/>
    </g>
   </g>
   <g id="patch_3">
    <path d="M 30.744984 125.018985 
L 30.744984 0.72 
" style="fill:none;stroke:#000000;stroke-linecap:square;stroke-linejoin:miter;stroke-width:0.35;"/>
   </g>
   <g id="patch_4">
    <path d="M 239.80032 125.018985 
L 239.80032 0.72 
" style="fill:none;stroke:#000000;stroke-linecap:square;stroke-linejoin:miter;stroke-width:0.35;"/>
   </g>
   <g id="patch_5">
    <path d="M 30.744984 125.018985 
L 239.80032 125.018985 
" style="fill:none;stroke:#000000;stroke-linecap:square;stroke-linejoin:miter;stroke-width:0.35;"/>
   </g>
   <g id="patch_6">
    <path d="M 30.744984 0.72 
L 239.80032 0.72 
" style="fill:none;stroke:#000000;stroke-linecap:square;stroke-linejoin:miter;stroke-width:0.35;"/>
   </g>
   <g id="text_14">
    <!-- $N = 12$ -->
    <g transform="translate(210.379941 8.740781)scale(0.08 -0.08)">
     <defs>
      <path d="M 4736 3698 
C 4806 3974 4909 4166 5395 4166 
C 5414 4166 5491 4166 5491 4279 
C 5491 4352 5434 4352 5408 4352 
C 5280 4352 4954 4352 4826 4352 
L 4518 4352 
C 4429 4352 4314 4352 4224 4352 
C 4186 4352 4109 4352 4109 4230 
C 4109 4166 4160 4166 4205 4166 
C 4589 4166 4614 4019 4614 3903 
C 4614 3846 4608 3826 4589 3737 
L 3866 850 
L 2496 4249 
C 2451 4352 2445 4352 2304 4352 
L 1523 4352 
C 1395 4352 1338 4352 1338 4230 
C 1338 4166 1382 4166 1504 4166 
C 1536 4166 1914 4166 1914 4115 
C 1914 4102 1901 4051 1894 4032 
L 1043 635 
C 966 320 813 186 390 186 
C 358 186 294 186 294 67 
C 294 0 358 0 378 0 
C 506 0 832 0 960 0 
L 1267 0 
C 1357 0 1466 0 1555 0 
C 1600 0 1670 0 1670 122 
C 1670 180 1606 186 1581 186 
C 1370 186 1165 224 1165 454 
C 1165 505 1178 562 1190 613 
L 2054 4032 
C 2093 3968 2093 3956 2118 3898 
L 3642 115 
C 3674 38 3686 0 3744 0 
C 3808 0 3814 19 3840 128 
L 4736 3698 
z
" id="CMMI12-4e" transform="scale(0.015625)"/>
      <path d="M 4115 2017 
C 4211 2017 4307 2017 4307 2125 
C 4307 2240 4198 2240 4090 2240 
L 512 2240 
C 403 2240 294 2240 294 2125 
C 294 2017 390 2017 486 2017 
L 4115 2017 
z
M 4090 896 
C 4198 896 4307 896 4307 1011 
C 4307 1119 4211 1119 4115 1119 
L 486 1119 
C 390 1119 294 1119 294 1011 
C 294 896 403 896 512 896 
L 4090 896 
z
" id="CMR17-3d" transform="scale(0.015625)"/>
     </defs>
     <use transform="scale(0.996264)" xlink:href="#CMMI12-4e"/>
     <use transform="translate(116.195781 0)scale(0.996264)" xlink:href="#CMR17-3d"/>
     <use transform="translate(215.584578 0)scale(0.996264)" xlink:href="#CMR17-31"/>
     <use transform="translate(261.275056 0)scale(0.996264)" xlink:href="#CMR17-32"/>
    </g>
   </g>
   <g id="text_15">
    <!-- $V^\prime = 0$ -->
    <g transform="translate(208.505508 17.44171)scale(0.08 -0.08)">
     <defs>
      <path d="M 3962 3640 
C 4179 3984 4378 4136 4704 4162 
C 4768 4168 4819 4168 4819 4282 
C 4819 4308 4806 4346 4749 4346 
C 4634 4346 4358 4346 4243 4346 
C 4058 4346 3866 4346 3686 4346 
C 3635 4346 3571 4346 3571 4226 
C 3571 4168 3629 4162 3654 4162 
C 3891 4143 3917 4029 3917 3952 
C 3917 3857 3827 3710 3821 3704 
L 1811 540 
L 1363 3969 
C 1363 4160 1696 4160 1766 4160 
C 1862 4160 1920 4160 1920 4282 
C 1920 4346 1850 4346 1830 4346 
C 1722 4346 1594 4346 1485 4346 
L 1126 4346 
C 659 4346 467 4346 461 4346 
C 422 4346 346 4346 346 4230 
C 346 4160 390 4160 493 4160 
C 819 4160 838 4102 858 3944 
L 1370 24 
C 1389 -109 1389 -128 1478 -128 
C 1555 -128 1587 -109 1651 -8 
L 3962 3640 
z
" id="CMMI12-56" transform="scale(0.015625)"/>
      <path d="M 1619 3040 
C 1651 3117 1677 3174 1677 3238 
C 1677 3424 1510 3578 1312 3578 
C 1133 3578 1018 3456 973 3290 
L 211 493 
C 211 480 186 410 186 403 
C 186 333 352 288 403 288 
C 442 288 448 307 486 390 
L 1619 3040 
z
" id="CMSY10-30" transform="scale(0.015625)"/>
     </defs>
     <use transform="scale(0.996264)" xlink:href="#CMMI12-56"/>
     <use transform="translate(78.547321 36.153639)scale(0.697382)" xlink:href="#CMSY10-30"/>
     <use transform="translate(125.897422 0)scale(0.996264)" xlink:href="#CMR17-3d"/>
     <use transform="translate(225.286219 0)scale(0.996264)" xlink:href="#CMR17-30"/>
    </g>
   </g>
   <g id="legend_1">
    <g id="LineCollection_7">
     <path d="M 35.944984 78.309951 
L 35.944984 70.309951 
" style="fill:none;stroke:#5e4fa2;stroke-width:0.5;"/>
    </g>
    <g id="line2d_18">
     <path d="M 33.944984 74.309951 
L 37.944984 74.309951 
" style="fill:none;stroke:#5e4fa2;stroke-dasharray:1.85,0.8;stroke-dashoffset:0;stroke-linecap:round;stroke-width:0.5;"/>
    </g>
    <g id="line2d_19">
     <g>
      <use style="fill:#5d4ea1;fill-opacity:0.533333;stroke:#5e4fa2;stroke-width:0.5;" x="35.944984" xlink:href="#m2895a9fdad" y="74.309951"/>
     </g>
    </g>
    <g id="text_16">
     <!-- $V = -0.150J$ -->
     <g transform="translate(41.944984 77.109951)scale(0.08 -0.08)">
      <defs>
       <path d="M 4218 1472 
C 4326 1472 4442 1472 4442 1600 
C 4442 1728 4326 1728 4218 1728 
L 755 1728 
C 646 1728 531 1728 531 1600 
C 531 1472 646 1472 755 1472 
L 4218 1472 
z
" id="CMSY10-0" transform="scale(0.015625)"/>
       <path d="M 3418 3912 
C 3469 4103 3482 4167 3795 4167 
C 3898 4167 3962 4167 3962 4282 
C 3962 4352 3904 4352 3878 4352 
C 3770 4352 3648 4352 3533 4352 
L 3181 4352 
C 2912 4352 2630 4352 2362 4352 
C 2304 4352 2227 4352 2227 4237 
C 2227 4173 2278 4173 2278 4167 
L 2438 4167 
C 2950 4167 2950 4116 2950 4020 
C 2950 4013 2950 3969 2925 3868 
L 2189 960 
C 2022 312 1594 0 1286 0 
C 1069 0 762 100 685 431 
C 710 424 742 418 768 418 
C 979 418 1146 603 1146 788 
C 1146 890 1082 1024 890 1024 
C 774 1024 506 961 506 549 
C 506 151 838 -128 1299 -128 
C 1882 -128 2509 311 2662 915 
L 3418 3912 
z
" id="CMMI12-4a" transform="scale(0.015625)"/>
      </defs>
      <use transform="scale(0.996264)" xlink:href="#CMMI12-56"/>
      <use transform="translate(106.221329 0)scale(0.996264)" xlink:href="#CMR17-3d"/>
      <use transform="translate(205.610127 0)scale(0.996264)" xlink:href="#CMSY10-0"/>
      <use transform="translate(283.097594 0)scale(0.996264)" xlink:href="#CMR17-30"/>
      <use transform="translate(328.788071 0)scale(0.996264)" xlink:href="#CMMI12-3a"/>
      <use transform="translate(355.885248 0)scale(0.996264)" xlink:href="#CMR17-31"/>
      <use transform="translate(401.575726 0)scale(0.996264)" xlink:href="#CMR17-35"/>
      <use transform="translate(447.266203 0)scale(0.996264)" xlink:href="#CMR17-30"/>
      <use transform="translate(492.95668 0)scale(0.996264)" xlink:href="#CMMI12-4a"/>
     </g>
    </g>
    <g id="LineCollection_8">
     <path d="M 35.944984 87.459697 
L 35.944984 79.459697 
" style="fill:none;stroke:#486cb0;stroke-width:0.5;"/>
    </g>
    <g id="line2d_20">
     <path d="M 33.944984 83.459697 
L 37.944984 83.459697 
" style="fill:none;stroke:#486cb0;stroke-dasharray:1.85,0.8;stroke-dashoffset:0;stroke-linecap:round;stroke-width:0.5;"/>
    </g>
    <g id="line2d_21">
     <g>
      <use style="fill:#476baf;fill-opacity:0.533333;stroke:#486cb0;stroke-width:0.5;" x="35.944984" xlink:href="#mb70e667263" y="83.459697"/>
     </g>
    </g>
    <g id="text_17">
     <!-- $V = +0.150J$ -->
     <g transform="translate(41.944984 86.259697)scale(0.08 -0.08)">
      <defs>
       <path d="M 2413 1472 
L 4109 1472 
C 4198 1472 4307 1472 4307 1580 
C 4307 1695 4205 1695 4109 1695 
L 2413 1695 
L 2413 3386 
C 2413 3475 2413 3584 2304 3584 
C 2189 3584 2189 3482 2189 3386 
L 2189 1695 
L 493 1695 
C 403 1695 294 1695 294 1587 
C 294 1472 397 1472 493 1472 
L 2189 1472 
L 2189 -218 
C 2189 -307 2189 -416 2298 -416 
C 2413 -416 2413 -314 2413 -218 
L 2413 1472 
z
" id="CMR17-2b" transform="scale(0.015625)"/>
      </defs>
      <use transform="scale(0.996264)" xlink:href="#CMMI12-56"/>
      <use transform="translate(106.221329 0)scale(0.996264)" xlink:href="#CMR17-3d"/>
      <use transform="translate(205.610127 0)scale(0.996264)" xlink:href="#CMR17-2b"/>
      <use transform="translate(277.324915 0)scale(0.996264)" xlink:href="#CMR17-30"/>
      <use transform="translate(323.015392 0)scale(0.996264)" xlink:href="#CMMI12-3a"/>
      <use transform="translate(350.112569 0)scale(0.996264)" xlink:href="#CMR17-31"/>
      <use transform="translate(395.803046 0)scale(0.996264)" xlink:href="#CMR17-35"/>
      <use transform="translate(441.493523 0)scale(0.996264)" xlink:href="#CMR17-30"/>
      <use transform="translate(487.184001 0)scale(0.996264)" xlink:href="#CMMI12-4a"/>
     </g>
    </g>
    <g id="LineCollection_9">
     <path d="M 35.944984 96.609442 
L 35.944984 88.609442 
" style="fill:none;stroke:#3389bd;stroke-width:0.5;"/>
    </g>
    <g id="line2d_22">
     <path d="M 33.944984 92.609442 
L 37.944984 92.609442 
" style="fill:none;stroke:#3389bd;stroke-dasharray:1.85,0.8;stroke-dashoffset:0;stroke-linecap:round;stroke-width:0.5;"/>
    </g>
    <g id="line2d_23">
     <g>
      <use style="fill:#3288bc;fill-opacity:0.533333;stroke:#3389bd;stroke-width:0.5;" x="35.944984" xlink:href="#mb68f701634" y="92.609442"/>
     </g>
    </g>
    <g id="text_18">
     <!-- $V = -0.250J$ -->
     <g transform="translate(41.944984 95.409442)scale(0.08 -0.08)">
      <use transform="scale(0.996264)" xlink:href="#CMMI12-56"/>
      <use transform="translate(106.221329 0)scale(0.996264)" xlink:href="#CMR17-3d"/>
      <use transform="translate(205.610127 0)scale(0.996264)" xlink:href="#CMSY10-0"/>
      <use transform="translate(283.097594 0)scale(0.996264)" xlink:href="#CMR17-30"/>
      <use transform="translate(328.788071 0)scale(0.996264)" xlink:href="#CMMI12-3a"/>
      <use transform="translate(355.885248 0)scale(0.996264)" xlink:href="#CMR17-32"/>
      <use transform="translate(401.575726 0)scale(0.996264)" xlink:href="#CMR17-35"/>
      <use transform="translate(447.266203 0)scale(0.996264)" xlink:href="#CMR17-30"/>
      <use transform="translate(492.95668 0)scale(0.996264)" xlink:href="#CMMI12-4a"/>
     </g>
    </g>
    <g id="LineCollection_10">
     <path d="M 98.950905 78.309951 
L 98.950905 70.309951 
" style="fill:none;stroke:#50a9af;stroke-width:0.5;"/>
    </g>
    <g id="line2d_24">
     <path d="M 96.950905 74.309951 
L 100.950905 74.309951 
" style="fill:none;stroke:#50a9af;stroke-dasharray:1.85,0.8;stroke-dashoffset:0;stroke-linecap:round;stroke-width:0.5;"/>
    </g>
    <g id="line2d_25">
     <g>
      <use style="fill:#4fa8ae;fill-opacity:0.533333;stroke:#50a9af;stroke-width:0.5;" x="98.950905" xlink:href="#mc82de7b316" y="74.309951"/>
     </g>
    </g>
    <g id="text_19">
     <!-- $V = +0.250J$ -->
     <g transform="translate(104.950905 77.109951)scale(0.08 -0.08)">
      <use transform="scale(0.996264)" xlink:href="#CMMI12-56"/>
      <use transform="translate(106.221329 0)scale(0.996264)" xlink:href="#CMR17-3d"/>
      <use transform="translate(205.610127 0)scale(0.996264)" xlink:href="#CMR17-2b"/>
      <use transform="translate(277.324915 0)scale(0.996264)" xlink:href="#CMR17-30"/>
      <use transform="translate(323.015392 0)scale(0.996264)" xlink:href="#CMMI12-3a"/>
      <use transform="translate(350.112569 0)scale(0.996264)" xlink:href="#CMR17-32"/>
      <use transform="translate(395.803046 0)scale(0.996264)" xlink:href="#CMR17-35"/>
      <use transform="translate(441.493523 0)scale(0.996264)" xlink:href="#CMR17-30"/>
      <use transform="translate(487.184001 0)scale(0.996264)" xlink:href="#CMMI12-4a"/>
     </g>
    </g>
    <g id="LineCollection_11">
     <path d="M 98.950905 87.459697 
L 98.950905 79.459697 
" style="fill:none;stroke:#6bc4a5;stroke-width:0.5;"/>
    </g>
    <g id="line2d_26">
     <path d="M 96.950905 83.459697 
L 100.950905 83.459697 
" style="fill:none;stroke:#6bc4a5;stroke-dasharray:1.85,0.8;stroke-dashoffset:0;stroke-linecap:round;stroke-width:0.5;"/>
    </g>
    <g id="line2d_27">
     <g>
      <use style="fill:#6ac3a4;fill-opacity:0.533333;stroke:#6bc4a5;stroke-width:0.5;" x="98.950905" xlink:href="#md9ca03e1e1" y="83.459697"/>
     </g>
    </g>
    <g id="text_20">
     <!-- $V = -0.500J$ -->
     <g transform="translate(104.950905 86.259697)scale(0.08 -0.08)">
      <use transform="scale(0.996264)" xlink:href="#CMMI12-56"/>
      <use transform="translate(106.221329 0)scale(0.996264)" xlink:href="#CMR17-3d"/>
      <use transform="translate(205.610127 0)scale(0.996264)" xlink:href="#CMSY10-0"/>
      <use transform="translate(283.097594 0)scale(0.996264)" xlink:href="#CMR17-30"/>
      <use transform="translate(328.788071 0)scale(0.996264)" xlink:href="#CMMI12-3a"/>
      <use transform="translate(355.885248 0)scale(0.996264)" xlink:href="#CMR17-35"/>
      <use transform="translate(401.575726 0)scale(0.996264)" xlink:href="#CMR17-30"/>
      <use transform="translate(447.266203 0)scale(0.996264)" xlink:href="#CMR17-30"/>
      <use transform="translate(492.95668 0)scale(0.996264)" xlink:href="#CMMI12-4a"/>
     </g>
    </g>
    <g id="LineCollection_12">
     <path d="M 98.950905 96.609442 
L 98.950905 88.609442 
" style="fill:none;stroke:#91d3a4;stroke-width:0.5;"/>
    </g>
    <g id="line2d_28">
     <path d="M 96.950905 92.609442 
L 100.950905 92.609442 
" style="fill:none;stroke:#91d3a4;stroke-dasharray:1.85,0.8;stroke-dashoffset:0;stroke-linecap:round;stroke-width:0.5;"/>
    </g>
    <g id="line2d_29">
     <g>
      <use style="fill:#90d2a3;fill-opacity:0.533333;stroke:#91d3a4;stroke-width:0.5;" x="98.950905" xlink:href="#m6f434f801f" y="92.609442"/>
     </g>
    </g>
    <g id="text_21">
     <!-- $V = +0.765J$ -->
     <g transform="translate(104.950905 95.409442)scale(0.08 -0.08)">
      <defs>
       <path d="M 2886 3941 
L 2886 4081 
L 1382 4081 
C 634 4081 621 4165 595 4288 
L 480 4288 
L 294 3094 
L 410 3094 
C 429 3215 474 3540 550 3661 
C 589 3712 1062 3712 1171 3712 
L 2579 3712 
L 1869 2661 
C 1395 1954 1069 999 1069 165 
C 1069 89 1069 -128 1299 -128 
C 1530 -128 1530 89 1530 171 
L 1530 465 
C 1530 1508 1709 2196 2003 2636 
L 2886 3941 
z
" id="CMR17-37" transform="scale(0.015625)"/>
      </defs>
      <use transform="scale(0.996264)" xlink:href="#CMMI12-56"/>
      <use transform="translate(106.221329 0)scale(0.996264)" xlink:href="#CMR17-3d"/>
      <use transform="translate(205.610127 0)scale(0.996264)" xlink:href="#CMR17-2b"/>
      <use transform="translate(277.324915 0)scale(0.996264)" xlink:href="#CMR17-30"/>
      <use transform="translate(323.015392 0)scale(0.996264)" xlink:href="#CMMI12-3a"/>
      <use transform="translate(350.112569 0)scale(0.996264)" xlink:href="#CMR17-37"/>
      <use transform="translate(395.803046 0)scale(0.996264)" xlink:href="#CMR17-36"/>
      <use transform="translate(441.493523 0)scale(0.996264)" xlink:href="#CMR17-35"/>
      <use transform="translate(487.184001 0)scale(0.996264)" xlink:href="#CMMI12-4a"/>
     </g>
    </g>
   </g>
  </g>
 </g>
 <defs>
  <clipPath id="p223388171c">
   <rect height="124.298985" width="209.055336" x="30.744984" y="0.72"/>
  </clipPath>
 </defs>
</svg>
