<?xml version="1.0" encoding="utf-8" standalone="no"?>
<!DOCTYPE svg PUBLIC "-//W3C//DTD SVG 1.1//EN"
  "http://www.w3.org/Graphics/SVG/1.1/DTD/svg11.dtd">
<svg height="139.239886pt" version="1.1" viewBox="0 0 227.529624 139.239886" width="227.529624pt" xmlns="http://www.w3.org/2000/svg" xmlns:xlink="http://www.w3.org/1999/xlink">
 <metadata>
  <rdf:RDF xmlns:cc="http://creativecommons.org/ns#" xmlns:dc="http://purl.org/dc/elements/1.1/" xmlns:rdf="http://www.w3.org/1999/02/22-rdf-syntax-ns#">
   <cc:Work>
    <dc:type rdf:resource="http://purl.org/dc/dcmitype/StillImage"/>
    <dc:date>2021-10-01T13:33:24.452756</dc:date>
    <dc:format>image/svg+xml</dc:format>
    <dc:creator>
     <cc:Agent>
      <dc:title>Matplotlib v3.4.2, https://matplotlib.org/</dc:title>
     </cc:Agent>
    </dc:creator>
   </cc:Work>
  </rdf:RDF>
 </metadata>
 <defs>
  <style type="text/css">*{stroke-linecap:butt;stroke-linejoin:round;}</style>
 </defs>
 <g id="figure_1">
  <g id="patch_1">
   <path d="M 0 139.239886 
L 227.529624 139.239886 
L 227.529624 0 
L 0 0 
z
" style="fill:none;"/>
  </g>
  <g id="axes_1">
   <g id="patch_2">
    <path d="M 30.744984 117.350791 
L 226.809624 117.350791 
L 226.809624 0.72 
L 30.744984 0.72 
z
" style="fill:none;"/>
   </g>
   <g id="line2d_1">
    <path clip-path="url(#p5a0a920331)" d="M 72.60932 74.878688 
L 228.529624 74.878688 
L 228.529624 74.878688 
" style="fill:none;stroke:#d8434e;stroke-dasharray:1,1.65;stroke-dashoffset:0;stroke-linecap:round;"/>
   </g>
   <g id="matplotlib.axis_1">
    <g id="xtick_1">
     <g id="line2d_2">
      <defs>
       <path d="M 0 0 
L 0 2 
" id="ma3744f1f65" style="stroke:#000000;stroke-width:0.35;"/>
      </defs>
      <g>
       <use style="stroke:#000000;stroke-width:0.35;" x="30.744984" xlink:href="#ma3744f1f65" y="117.350791"/>
      </g>
     </g>
     <g id="text_1">
      <!-- $\mathdefault{0}$ -->
      <g transform="translate(28.627893 127.885593)scale(0.08 -0.08)">
       <defs>
        <path d="M 2688 2038 
C 2688 2430 2682 3099 2413 3613 
C 2176 4063 1798 4224 1466 4224 
C 1158 4224 768 4082 525 3620 
C 269 3137 243 2539 243 2038 
C 243 1671 250 1112 448 623 
C 723 -39 1216 -128 1466 -128 
C 1760 -128 2208 -7 2470 604 
C 2662 1048 2688 1568 2688 2038 
z
M 1466 -26 
C 1056 -26 813 328 723 816 
C 653 1196 653 1749 653 2109 
C 653 2604 653 3015 736 3407 
C 858 3954 1216 4121 1466 4121 
C 1728 4121 2067 3947 2189 3420 
C 2272 3054 2278 2623 2278 2109 
C 2278 1691 2278 1176 2202 797 
C 2067 96 1690 -26 1466 -26 
z
" id="CMR17-30" transform="scale(0.015625)"/>
       </defs>
       <use transform="scale(0.996264)" xlink:href="#CMR17-30"/>
      </g>
     </g>
    </g>
    <g id="xtick_2">
     <g id="line2d_3">
      <g>
       <use style="stroke:#000000;stroke-width:0.35;" x="65.631931" xlink:href="#ma3744f1f65" y="117.350791"/>
      </g>
     </g>
     <g id="text_2">
      <!-- $\mathdefault{5}$ -->
      <g transform="translate(63.51484 127.885593)scale(0.08 -0.08)">
       <defs>
        <path d="M 730 3750 
C 794 3724 1056 3641 1325 3641 
C 1920 3641 2246 3961 2432 4140 
C 2432 4191 2432 4224 2394 4224 
C 2387 4224 2374 4224 2323 4198 
C 2099 4102 1837 4032 1517 4032 
C 1325 4032 1037 4055 723 4191 
C 653 4224 640 4224 634 4224 
C 602 4224 595 4217 595 4090 
L 595 2231 
C 595 2113 595 2080 659 2080 
C 691 2080 704 2093 736 2139 
C 941 2435 1222 2560 1542 2560 
C 1766 2560 2246 2415 2246 1293 
C 2246 1087 2246 716 2054 422 
C 1894 159 1645 25 1370 25 
C 947 25 518 319 403 812 
C 429 806 480 793 506 793 
C 589 793 749 838 749 1036 
C 749 1209 627 1280 506 1280 
C 358 1280 262 1190 262 1011 
C 262 454 704 -128 1382 -128 
C 2042 -128 2669 441 2669 1267 
C 2669 2054 2170 2662 1549 2662 
C 1222 2662 947 2540 730 2304 
L 730 3750 
z
" id="CMR17-35" transform="scale(0.015625)"/>
       </defs>
       <use transform="scale(0.996264)" xlink:href="#CMR17-35"/>
      </g>
     </g>
    </g>
    <g id="xtick_3">
     <g id="line2d_4">
      <g>
       <use style="stroke:#000000;stroke-width:0.35;" x="100.518878" xlink:href="#ma3744f1f65" y="117.350791"/>
      </g>
     </g>
     <g id="text_3">
      <!-- $\mathdefault{10}$ -->
      <g transform="translate(96.284695 127.885593)scale(0.08 -0.08)">
       <defs>
        <path d="M 1702 4083 
C 1702 4217 1696 4224 1606 4224 
C 1357 3927 979 3833 621 3820 
C 602 3820 570 3820 563 3808 
C 557 3795 557 3782 557 3648 
C 755 3648 1088 3686 1344 3839 
L 1344 467 
C 1344 243 1331 166 781 166 
L 589 166 
L 589 0 
C 896 6 1216 12 1523 12 
C 1830 12 2150 6 2458 0 
L 2458 166 
L 2266 166 
C 1715 166 1702 236 1702 467 
L 1702 4083 
z
" id="CMR17-31" transform="scale(0.015625)"/>
       </defs>
       <use transform="scale(0.996264)" xlink:href="#CMR17-31"/>
       <use transform="translate(45.690477 0)scale(0.996264)" xlink:href="#CMR17-30"/>
      </g>
     </g>
    </g>
    <g id="xtick_4">
     <g id="line2d_5">
      <g>
       <use style="stroke:#000000;stroke-width:0.35;" x="135.405824" xlink:href="#ma3744f1f65" y="117.350791"/>
      </g>
     </g>
     <g id="text_4">
      <!-- $\mathdefault{15}$ -->
      <g transform="translate(131.171641 127.885593)scale(0.08 -0.08)">
       <use transform="scale(0.996264)" xlink:href="#CMR17-31"/>
       <use transform="translate(45.690477 0)scale(0.996264)" xlink:href="#CMR17-35"/>
      </g>
     </g>
    </g>
    <g id="xtick_5">
     <g id="line2d_6">
      <g>
       <use style="stroke:#000000;stroke-width:0.35;" x="170.292771" xlink:href="#ma3744f1f65" y="117.350791"/>
      </g>
     </g>
     <g id="text_5">
      <!-- $\mathdefault{20}$ -->
      <g transform="translate(166.058588 127.885593)scale(0.08 -0.08)">
       <defs>
        <path d="M 2669 990 
L 2554 990 
C 2490 537 2438 460 2413 422 
C 2381 371 1920 371 1830 371 
L 602 371 
C 832 620 1280 1073 1824 1596 
C 2214 1966 2669 2400 2669 3033 
C 2669 3788 2067 4224 1395 4224 
C 691 4224 262 3603 262 3027 
C 262 2777 448 2745 525 2745 
C 589 2745 781 2783 781 3007 
C 781 3206 614 3264 525 3264 
C 486 3264 448 3257 422 3244 
C 544 3788 915 4057 1306 4057 
C 1862 4057 2227 3616 2227 3033 
C 2227 2477 1901 1998 1536 1583 
L 262 147 
L 262 0 
L 2515 0 
L 2669 990 
z
" id="CMR17-32" transform="scale(0.015625)"/>
       </defs>
       <use transform="scale(0.996264)" xlink:href="#CMR17-32"/>
       <use transform="translate(45.690477 0)scale(0.996264)" xlink:href="#CMR17-30"/>
      </g>
     </g>
    </g>
    <g id="xtick_6">
     <g id="line2d_7">
      <g>
       <use style="stroke:#000000;stroke-width:0.35;" x="205.179718" xlink:href="#ma3744f1f65" y="117.350791"/>
      </g>
     </g>
     <g id="text_6">
      <!-- $\mathdefault{25}$ -->
      <g transform="translate(200.945535 127.885593)scale(0.08 -0.08)">
       <use transform="scale(0.996264)" xlink:href="#CMR17-32"/>
       <use transform="translate(45.690477 0)scale(0.996264)" xlink:href="#CMR17-35"/>
      </g>
     </g>
    </g>
    <g id="text_7">
     <!-- Time   $t\cdot J$ -->
     <g transform="translate(110.821468 136.97014)scale(0.08 -0.08)">
      <defs>
       <path d="M 3981 4332 
L 288 4332 
L 179 2924 
L 294 2924 
C 378 3981 467 4166 1453 4166 
C 1568 4166 1754 4166 1805 4159 
C 1926 4140 1926 4064 1926 3917 
L 1926 465 
C 1926 236 1907 166 1376 166 
L 1197 166 
L 1197 0 
C 1504 6 1824 12 2138 12 
C 2451 12 2771 6 3078 0 
L 3078 166 
L 2899 166 
C 2368 166 2349 236 2349 465 
L 2349 3917 
C 2349 4057 2349 4134 2464 4159 
C 2515 4166 2701 4166 2816 4166 
C 3795 4166 3891 3981 3974 2924 
L 4090 2924 
L 3981 4332 
z
" id="CMR17-54" transform="scale(0.015625)"/>
       <path d="M 992 3961 
C 992 4102 877 4224 730 4224 
C 589 4224 467 4108 467 3961 
C 467 3820 582 3699 730 3699 
C 870 3699 992 3814 992 3961 
z
M 243 2745 
L 243 2579 
C 602 2579 653 2540 653 2231 
L 653 443 
C 653 198 627 166 218 166 
L 218 0 
C 371 12 646 12 806 12 
C 960 12 1222 12 1370 0 
L 1370 166 
C 992 166 979 205 979 436 
L 979 2816 
L 243 2745 
z
" id="CMR17-69" transform="scale(0.015625)"/>
       <path d="M 4326 1954 
C 4326 2276 4269 2816 3507 2816 
C 3072 2816 2771 2520 2656 2173 
L 2650 2173 
C 2573 2700 2195 2816 1837 2816 
C 1331 2816 1069 2424 973 2166 
L 966 2166 
L 966 2816 
L 211 2745 
L 211 2578 
C 589 2578 646 2540 646 2231 
L 646 443 
C 646 198 621 166 211 166 
L 211 0 
C 365 12 646 12 813 12 
C 979 12 1267 12 1421 0 
L 1421 166 
C 1011 166 986 192 986 443 
L 986 1678 
C 986 2269 1344 2713 1792 2713 
C 2266 2713 2317 2289 2317 1980 
L 2317 443 
C 2317 198 2291 166 1882 166 
L 1882 0 
C 2035 12 2317 12 2483 12 
C 2650 12 2938 12 3091 0 
L 3091 166 
C 2682 166 2656 192 2656 443 
L 2656 1678 
C 2656 2269 3014 2713 3462 2713 
C 3936 2713 3987 2289 3987 1980 
L 3987 443 
C 3987 198 3962 166 3552 166 
L 3552 0 
C 3706 12 3987 12 4154 12 
C 4320 12 4608 12 4762 0 
L 4762 166 
C 4352 166 4326 192 4326 443 
L 4326 1954 
z
" id="CMR17-6d" transform="scale(0.015625)"/>
       <path d="M 2438 1503 
C 2464 1529 2464 1542 2464 1606 
C 2464 2251 2118 2816 1389 2816 
C 710 2816 173 2175 173 1394 
C 173 554 781 -64 1459 -64 
C 2176 -64 2458 619 2458 755 
C 2458 800 2419 800 2406 800 
C 2362 800 2355 787 2330 709 
C 2189 270 1837 51 1504 51 
C 1229 51 954 206 781 490 
C 582 819 582 1200 582 1503 
L 2438 1503 
z
M 589 1600 
C 634 2511 1126 2713 1382 2713 
C 1818 2713 2112 2308 2118 1600 
L 589 1600 
z
" id="CMR17-65" transform="scale(0.015625)"/>
       <path d="M 1286 2566 
L 1875 2566 
C 1997 2566 2061 2566 2061 2681 
C 2061 2752 2022 2752 1894 2752 
L 1331 2752 
L 1568 3664 
C 1594 3752 1594 3764 1594 3808 
C 1594 3910 1510 3968 1427 3968 
C 1376 3968 1229 3948 1178 3746 
L 928 2752 
L 326 2752 
C 198 2752 141 2752 141 2630 
C 141 2566 186 2566 307 2566 
L 877 2566 
L 454 881 
C 403 657 384 593 384 510 
C 384 210 595 -64 954 -64 
C 1600 -64 1946 868 1946 913 
C 1946 951 1920 970 1882 970 
C 1869 970 1843 970 1830 944 
C 1824 938 1818 932 1773 830 
C 1638 510 1344 64 973 64 
C 781 64 768 223 768 364 
C 768 370 768 491 787 568 
L 1286 2566 
z
" id="CMMI12-74" transform="scale(0.015625)"/>
       <path d="M 1229 1619 
C 1229 1804 1075 1958 890 1958 
C 704 1958 550 1804 550 1619 
C 550 1433 704 1280 890 1280 
C 1075 1280 1229 1433 1229 1619 
z
" id="CMSY10-1" transform="scale(0.015625)"/>
       <path d="M 3418 3911 
C 3469 4102 3482 4166 3795 4166 
C 3898 4166 3962 4166 3962 4281 
C 3962 4352 3904 4352 3878 4352 
C 3770 4352 3648 4339 3533 4339 
L 3181 4339 
C 2912 4339 2630 4352 2362 4352 
C 2304 4352 2227 4352 2227 4236 
C 2227 4172 2278 4172 2278 4166 
L 2438 4166 
C 2950 4166 2950 4115 2950 4019 
C 2950 4013 2950 3968 2925 3866 
L 2189 953 
C 2022 304 1594 0 1286 0 
C 1069 0 762 99 685 428 
C 710 422 742 415 768 415 
C 979 415 1146 601 1146 787 
C 1146 889 1082 1024 890 1024 
C 774 1024 506 959 506 543 
C 506 149 838 -128 1299 -128 
C 1882 -128 2509 304 2662 908 
L 3418 3911 
z
" id="CMMI12-4a" transform="scale(0.015625)"/>
      </defs>
      <use transform="scale(0.996264)" xlink:href="#CMR17-54"/>
      <use transform="translate(66.509881 0)scale(0.996264)" xlink:href="#CMR17-69"/>
      <use transform="translate(91.380939 0)scale(0.996264)" xlink:href="#CMR17-6d"/>
      <use transform="translate(168.300529 0)scale(0.996264)" xlink:href="#CMR17-65"/>
      <use transform="translate(238.862156 0)scale(0.996264)" xlink:href="#CMMI12-74"/>
      <use transform="translate(296.227693 0)scale(0.996264)" xlink:href="#CMSY10-1"/>
      <use transform="translate(346.040985 0)scale(0.996264)" xlink:href="#CMMI12-4a"/>
     </g>
    </g>
   </g>
   <g id="matplotlib.axis_2">
    <g id="ytick_1">
     <g id="line2d_8">
      <defs>
       <path d="M 0 0 
L -2 0 
" id="mf842c4f791" style="stroke:#000000;stroke-width:0.35;"/>
      </defs>
      <g>
       <use style="stroke:#000000;stroke-width:0.35;" x="30.744984" xlink:href="#mf842c4f791" y="117.350791"/>
      </g>
     </g>
     <g id="text_8">
      <!-- $\mathdefault{0.00}$ -->
      <g transform="translate(10.690112 120.118192)scale(0.08 -0.08)">
       <defs>
        <path d="M 1178 307 
C 1178 492 1024 620 870 620 
C 685 620 557 467 557 313 
C 557 128 710 0 864 0 
C 1050 0 1178 153 1178 307 
z
" id="CMMI12-3a" transform="scale(0.015625)"/>
       </defs>
       <use transform="scale(0.996264)" xlink:href="#CMR17-30"/>
       <use transform="translate(45.690477 0)scale(0.996264)" xlink:href="#CMMI12-3a"/>
       <use transform="translate(72.787654 0)scale(0.996264)" xlink:href="#CMR17-30"/>
       <use transform="translate(118.478131 0)scale(0.996264)" xlink:href="#CMR17-30"/>
      </g>
     </g>
    </g>
    <g id="ytick_2">
     <g id="line2d_9">
      <g>
       <use style="stroke:#000000;stroke-width:0.35;" x="30.744984" xlink:href="#mf842c4f791" y="85.828956"/>
      </g>
     </g>
     <g id="text_9">
      <!-- $\mathdefault{0.02}$ -->
      <g transform="translate(10.690112 88.596357)scale(0.08 -0.08)">
       <use transform="scale(0.996264)" xlink:href="#CMR17-30"/>
       <use transform="translate(45.690477 0)scale(0.996264)" xlink:href="#CMMI12-3a"/>
       <use transform="translate(72.787654 0)scale(0.996264)" xlink:href="#CMR17-30"/>
       <use transform="translate(118.478131 0)scale(0.996264)" xlink:href="#CMR17-32"/>
      </g>
     </g>
    </g>
    <g id="ytick_3">
     <g id="line2d_10">
      <g>
       <use style="stroke:#000000;stroke-width:0.35;" x="30.744984" xlink:href="#mf842c4f791" y="54.30712"/>
      </g>
     </g>
     <g id="text_10">
      <!-- $\mathdefault{0.04}$ -->
      <g transform="translate(10.690112 57.074521)scale(0.08 -0.08)">
       <defs>
        <path d="M 2150 4147 
C 2150 4281 2144 4288 2029 4288 
L 128 1254 
L 128 1088 
L 1779 1088 
L 1779 460 
C 1779 230 1766 166 1318 166 
L 1197 166 
L 1197 0 
C 1402 12 1747 12 1965 12 
C 2182 12 2528 12 2733 0 
L 2733 166 
L 2611 166 
C 2163 166 2150 230 2150 460 
L 2150 1088 
L 2803 1088 
L 2803 1254 
L 2150 1254 
L 2150 4147 
z
M 1798 3723 
L 1798 1254 
L 256 1254 
L 1798 3723 
z
" id="CMR17-34" transform="scale(0.015625)"/>
       </defs>
       <use transform="scale(0.996264)" xlink:href="#CMR17-30"/>
       <use transform="translate(45.690477 0)scale(0.996264)" xlink:href="#CMMI12-3a"/>
       <use transform="translate(72.787654 0)scale(0.996264)" xlink:href="#CMR17-30"/>
       <use transform="translate(118.478131 0)scale(0.996264)" xlink:href="#CMR17-34"/>
      </g>
     </g>
    </g>
    <g id="ytick_4">
     <g id="line2d_11">
      <g>
       <use style="stroke:#000000;stroke-width:0.35;" x="30.744984" xlink:href="#mf842c4f791" y="22.785285"/>
      </g>
     </g>
     <g id="text_11">
      <!-- $\mathdefault{0.06}$ -->
      <g transform="translate(10.690112 25.552686)scale(0.08 -0.08)">
       <defs>
        <path d="M 678 2198 
C 678 3712 1395 4076 1811 4076 
C 1946 4076 2272 4049 2400 3782 
C 2298 3782 2106 3782 2106 3558 
C 2106 3385 2246 3328 2336 3328 
C 2394 3328 2566 3353 2566 3571 
C 2566 3987 2246 4224 1805 4224 
C 1043 4224 243 3411 243 2011 
C 243 257 966 -128 1478 -128 
C 2099 -128 2688 431 2688 1295 
C 2688 2101 2170 2688 1517 2688 
C 1126 2688 838 2430 678 1979 
L 678 2198 
z
M 1478 25 
C 691 25 691 1212 691 1450 
C 691 1914 909 2585 1504 2585 
C 1613 2585 1926 2585 2138 2140 
C 2253 1889 2253 1624 2253 1302 
C 2253 954 2253 696 2118 438 
C 1978 173 1773 25 1478 25 
z
" id="CMR17-36" transform="scale(0.015625)"/>
       </defs>
       <use transform="scale(0.996264)" xlink:href="#CMR17-30"/>
       <use transform="translate(45.690477 0)scale(0.996264)" xlink:href="#CMMI12-3a"/>
       <use transform="translate(72.787654 0)scale(0.996264)" xlink:href="#CMR17-30"/>
       <use transform="translate(118.478131 0)scale(0.996264)" xlink:href="#CMR17-36"/>
      </g>
     </g>
    </g>
    <g id="text_12">
     <!-- Entanglement Growth $\Delta S(t)$ -->
     <g transform="translate(6.697584 112.732021)rotate(-90)scale(0.08 -0.08)">
      <defs>
       <path d="M 3885 1614 
L 3770 1614 
C 3629 676 3546 166 2419 166 
L 1530 166 
C 1274 166 1261 198 1261 415 
L 1261 2176 
L 1862 2176 
C 2464 2176 2522 1959 2522 1429 
L 2637 1429 
L 2637 3086 
L 2522 3086 
C 2522 2558 2464 2342 1862 2342 
L 1261 2342 
L 1261 3924 
C 1261 4141 1274 4172 1530 4172 
L 2406 4172 
C 3398 4172 3514 3778 3603 2933 
L 3718 2933 
L 3565 4339 
L 326 4339 
L 326 4172 
C 768 4172 838 4172 838 3886 
L 838 453 
C 838 166 768 166 326 166 
L 326 0 
L 3654 0 
L 3885 1614 
z
" id="CMR17-45" transform="scale(0.015625)"/>
       <path d="M 2656 1954 
C 2656 2282 2592 2816 1837 2816 
C 1331 2816 1069 2424 973 2166 
L 966 2166 
L 966 2816 
L 211 2745 
L 211 2578 
C 589 2578 646 2540 646 2231 
L 646 443 
C 646 198 621 166 211 166 
L 211 0 
C 365 12 646 12 813 12 
C 979 12 1267 12 1421 0 
L 1421 166 
C 1011 166 986 192 986 443 
L 986 1678 
C 986 2269 1344 2713 1792 2713 
C 2266 2713 2317 2289 2317 1980 
L 2317 443 
C 2317 198 2291 166 1882 166 
L 1882 0 
C 2035 12 2317 12 2483 12 
C 2650 12 2938 12 3091 0 
L 3091 166 
C 2682 166 2656 192 2656 443 
L 2656 1954 
z
" id="CMR17-6e" transform="scale(0.015625)"/>
       <path d="M 966 2585 
L 1862 2585 
L 1862 2752 
L 966 2752 
L 966 3968 
L 851 3968 
C 838 3292 614 2700 70 2687 
L 70 2585 
L 627 2585 
L 627 778 
C 627 655 627 -64 1370 -64 
C 1747 -64 1965 308 1965 784 
L 1965 1151 
L 1850 1151 
L 1850 790 
C 1850 347 1677 51 1408 51 
C 1222 51 966 179 966 765 
L 966 2585 
z
" id="CMR17-74" transform="scale(0.015625)"/>
       <path d="M 2304 1656 
C 2304 2048 2304 2275 2035 2534 
C 1798 2751 1523 2816 1306 2816 
C 800 2816 435 2408 435 1977 
C 435 1740 627 1728 666 1728 
C 749 1728 896 1779 896 1958 
C 896 2118 774 2188 666 2188 
C 640 2188 608 2182 589 2176 
C 723 2594 1069 2713 1293 2713 
C 1613 2713 1965 2421 1965 1875 
L 1965 1632 
C 1587 1619 1133 1568 774 1373 
C 371 1147 256 822 256 576 
C 256 77 832 -64 1171 -64 
C 1523 -64 1850 135 1990 505 
C 2003 219 2182 -39 2464 -39 
C 2598 -39 2938 51 2938 563 
L 2938 926 
L 2822 926 
L 2822 557 
C 2822 161 2650 109 2566 109 
C 2304 109 2304 446 2304 732 
L 2304 1656 
z
M 1965 887 
C 1965 323 1568 38 1216 38 
C 896 38 646 278 646 576 
C 646 771 730 1114 1101 1322 
C 1408 1497 1760 1523 1965 1536 
L 1965 887 
z
" id="CMR17-61" transform="scale(0.015625)"/>
       <path d="M 710 1165 
C 832 1068 1043 960 1299 960 
C 1805 960 2240 1359 2240 1895 
C 2240 2063 2189 2321 1997 2521 
C 2176 2713 2438 2777 2586 2777 
C 2611 2777 2650 2777 2682 2758 
C 2656 2751 2598 2726 2598 2623 
C 2598 2540 2656 2483 2739 2483 
C 2835 2483 2886 2547 2886 2630 
C 2886 2751 2790 2880 2586 2880 
C 2330 2880 2106 2758 1926 2591 
C 1734 2764 1504 2828 1299 2828 
C 794 2828 358 2431 358 1895 
C 358 1527 570 1294 634 1230 
C 442 1004 442 742 442 710 
C 442 544 506 300 723 166 
C 390 82 128 -184 128 -517 
C 128 -996 736 -1344 1466 -1344 
C 2170 -1344 2803 -1009 2803 -510 
C 2803 384 1856 384 1363 384 
C 1216 384 954 384 922 390 
C 723 422 589 601 589 825 
C 589 883 589 1024 710 1165 
z
M 1299 1068 
C 736 1068 736 1766 736 1895 
C 736 2024 736 2719 1299 2719 
C 1862 2719 1862 2024 1862 1895 
C 1862 1766 1862 1068 1299 1068 
z
M 1466 -1236 
C 826 -1236 384 -883 384 -517 
C 384 -311 493 -118 634 -11 
C 794 102 858 102 1293 102 
C 1818 102 2547 102 2547 -517 
C 2547 -883 2106 -1236 1466 -1236 
z
" id="CMR17-67" transform="scale(0.015625)"/>
       <path d="M 979 4416 
L 218 4345 
L 218 4179 
C 595 4179 653 4141 653 3835 
L 653 439 
C 653 198 627 166 218 166 
L 218 0 
C 371 12 653 12 813 12 
C 979 12 1261 12 1414 0 
L 1414 166 
C 1005 166 979 191 979 439 
L 979 4416 
z
" id="CMR17-6c" transform="scale(0.015625)"/>
       <path d="M 3974 1258 
C 3974 1503 3994 1536 4390 1536 
L 4390 1702 
C 4237 1689 3891 1689 3718 1689 
C 3539 1689 3040 1696 2797 1702 
L 2797 1536 
L 2989 1536 
C 3539 1536 3552 1464 3552 1232 
L 3552 806 
C 3552 96 2720 38 2522 38 
C 1862 38 781 496 781 2179 
C 781 3862 1843 4313 2464 4313 
C 3187 4313 3712 3681 3834 2785 
C 3846 2708 3846 2695 3904 2695 
C 3974 2695 3974 2708 3974 2824 
L 3974 4351 
C 3974 4467 3968 4473 3930 4473 
C 3904 4473 3898 4467 3853 4390 
L 3571 3849 
C 3258 4249 2874 4480 2381 4480 
C 1286 4480 294 3507 294 2179 
C 294 858 1267 -128 2394 -128 
C 2912 -128 3418 57 3616 425 
C 3725 161 3904 -20 3936 -20 
C 3968 -20 3974 -13 3974 102 
L 3974 1258 
z
" id="CMR17-47" transform="scale(0.015625)"/>
       <path d="M 960 1517 
C 960 2134 1222 2713 1702 2713 
C 1747 2713 1792 2707 1837 2687 
C 1837 2687 1696 2642 1696 2475 
C 1696 2321 1818 2257 1914 2257 
C 1990 2257 2131 2302 2131 2482 
C 2131 2687 1926 2816 1709 2816 
C 1222 2816 1011 2340 947 2115 
L 941 2115 
L 941 2816 
L 198 2745 
L 198 2578 
C 576 2578 634 2540 634 2231 
L 634 443 
C 634 198 608 166 198 166 
L 198 0 
C 352 12 646 12 813 12 
C 998 12 1325 12 1498 0 
L 1498 166 
C 1037 166 960 166 960 455 
L 960 1517 
z
" id="CMR17-72" transform="scale(0.015625)"/>
       <path d="M 2758 1356 
C 2758 2176 2163 2816 1466 2816 
C 768 2816 173 2176 173 1356 
C 173 550 768 -64 1466 -64 
C 2163 -64 2758 550 2758 1356 
z
M 1466 51 
C 1165 51 909 230 762 480 
C 602 768 582 1126 582 1408 
C 582 1676 595 2009 762 2297 
C 890 2508 1139 2713 1466 2713 
C 1754 2713 1997 2553 2150 2329 
C 2349 2028 2349 1606 2349 1408 
C 2349 1158 2336 774 2163 467 
C 1984 172 1709 51 1466 51 
z
" id="CMR17-6f" transform="scale(0.015625)"/>
       <path d="M 3725 2186 
C 3853 2566 4109 2579 4205 2585 
L 4205 2752 
C 4077 2745 3949 2739 3821 2739 
C 3699 2739 3424 2739 3315 2752 
L 3315 2585 
C 3514 2572 3622 2456 3622 2296 
C 3622 2251 3610 2193 3597 2148 
L 2995 398 
L 2342 2296 
C 2330 2341 2310 2392 2310 2418 
C 2310 2585 2528 2585 2630 2585 
L 2630 2752 
C 2483 2739 2214 2739 2061 2739 
C 1901 2739 1734 2739 1587 2752 
L 1587 2585 
C 1939 2585 1939 2572 2074 2167 
L 1485 443 
L 851 2302 
C 819 2386 819 2399 819 2418 
C 819 2585 1037 2585 1139 2585 
L 1139 2752 
C 986 2739 717 2739 557 2739 
C 416 2739 198 2739 64 2752 
L 64 2585 
C 346 2585 416 2566 486 2353 
L 1274 38 
C 1299 -45 1318 -64 1370 -64 
C 1414 -64 1440 -52 1472 44 
L 2131 1987 
L 2797 44 
C 2829 -52 2854 -64 2899 -64 
C 2950 -64 2970 -45 2995 38 
L 3725 2186 
z
" id="CMR17-77" transform="scale(0.015625)"/>
       <path d="M 2656 1954 
C 2656 2282 2592 2816 1837 2816 
C 1312 2816 1056 2392 979 2179 
L 973 2179 
L 973 4416 
L 211 4345 
L 211 4179 
C 589 4179 646 4141 646 3843 
L 646 443 
C 646 198 621 166 211 166 
L 211 0 
C 365 12 646 12 813 12 
C 979 12 1267 12 1421 0 
L 1421 166 
C 1011 166 986 192 986 443 
L 986 1678 
C 986 2269 1344 2713 1792 2713 
C 2266 2713 2317 2289 2317 1980 
L 2317 443 
C 2317 198 2291 166 1882 166 
L 1882 0 
C 2035 12 2317 12 2483 12 
C 2650 12 2938 12 3091 0 
L 3091 166 
C 2682 166 2656 192 2656 443 
L 2656 1954 
z
" id="CMR17-68" transform="scale(0.015625)"/>
       <path d="M 2598 4435 
C 2547 4544 2522 4544 2470 4544 
C 2394 4544 2387 4531 2342 4441 
L 269 108 
C 262 96 237 38 237 32 
C 237 6 243 0 358 0 
L 4576 0 
C 4691 0 4698 6 4698 32 
C 4698 38 4672 96 4666 108 
L 2598 4435 
z
M 2310 4056 
L 4083 358 
L 531 358 
L 2310 4056 
z
" id="CMR17-1" transform="scale(0.015625)"/>
       <path d="M 4064 4422 
C 4064 4480 4019 4480 4006 4480 
C 3981 4480 3974 4473 3898 4377 
C 3859 4332 3597 4002 3590 3996 
C 3379 4409 2957 4480 2688 4480 
C 1875 4480 1139 3742 1139 3024 
C 1139 2547 1427 2268 1741 2160 
C 1811 2134 2189 2033 2381 1988 
C 2707 1899 2790 1874 2925 1734 
C 2950 1702 3078 1556 3078 1258 
C 3078 667 2528 57 1888 57 
C 1363 57 781 279 781 991 
C 781 1112 806 1264 826 1328 
C 826 1347 832 1378 832 1391 
C 832 1417 819 1448 768 1448 
C 710 1448 704 1436 678 1328 
L 352 25 
C 352 19 326 -64 326 -71 
C 326 -128 378 -128 390 -128 
C 416 -128 422 -122 499 -26 
L 794 356 
C 947 127 1280 -128 1875 -128 
C 2701 -128 3456 667 3456 1461 
C 3456 1728 3392 1963 3149 2198 
C 3014 2331 2899 2363 2310 2516 
C 1882 2630 1824 2649 1709 2751 
C 1600 2859 1517 3011 1517 3227 
C 1517 3761 2061 4307 2669 4307 
C 3296 4307 3590 3926 3590 3322 
C 3590 3157 3558 2986 3558 2960 
C 3558 2903 3610 2903 3629 2903 
C 3686 2903 3693 2922 3718 3024 
L 4064 4422 
z
" id="CMMI12-53" transform="scale(0.015625)"/>
       <path d="M 1958 -1562 
C 1958 -1556 1958 -1543 1939 -1524 
C 1645 -1223 858 -403 858 1596 
C 858 3595 1632 4408 1946 4729 
C 1946 4735 1958 4748 1958 4767 
C 1958 4787 1939 4800 1914 4800 
C 1843 4800 1299 4325 986 3620 
C 666 2909 576 2218 576 1603 
C 576 1141 621 360 1005 -467 
C 1312 -1133 1837 -1600 1914 -1600 
C 1946 -1600 1958 -1588 1958 -1562 
z
" id="CMR17-28" transform="scale(0.015625)"/>
       <path d="M 1683 1596 
C 1683 2057 1638 2839 1254 3665 
C 947 4332 422 4800 346 4800 
C 326 4800 301 4793 301 4761 
C 301 4748 307 4742 314 4729 
C 621 4408 1402 3595 1402 1603 
C 1402 -396 627 -1210 314 -1530 
C 307 -1543 301 -1549 301 -1562 
C 301 -1594 326 -1600 346 -1600 
C 416 -1600 960 -1127 1274 -422 
C 1594 289 1683 981 1683 1596 
z
" id="CMR17-29" transform="scale(0.015625)"/>
      </defs>
      <use transform="scale(0.996264)" xlink:href="#CMR17-45"/>
      <use transform="translate(62.586301 0)scale(0.996264)" xlink:href="#CMR17-6e"/>
      <use transform="translate(110.879216 0)scale(0.996264)" xlink:href="#CMR17-74"/>
      <use transform="translate(146.159984 0)scale(0.996264)" xlink:href="#CMR17-61"/>
      <use transform="translate(191.850461 0)scale(0.996264)" xlink:href="#CMR17-6e"/>
      <use transform="translate(242.745831 0)scale(0.996264)" xlink:href="#CMR17-67"/>
      <use transform="translate(288.436308 0)scale(0.996264)" xlink:href="#CMR17-6c"/>
      <use transform="translate(313.307367 0)scale(0.996264)" xlink:href="#CMR17-65"/>
      <use transform="translate(353.793027 0)scale(0.996264)" xlink:href="#CMR17-6d"/>
      <use transform="translate(430.712617 0)scale(0.996264)" xlink:href="#CMR17-65"/>
      <use transform="translate(471.198277 0)scale(0.996264)" xlink:href="#CMR17-6e"/>
      <use transform="translate(519.491193 0)scale(0.996264)" xlink:href="#CMR17-74"/>
      <use transform="translate(584.847927 0)scale(0.996264)" xlink:href="#CMR17-47"/>
      <use transform="translate(657.203273 0)scale(0.996264)" xlink:href="#CMR17-72"/>
      <use transform="translate(692.484041 0)scale(0.996264)" xlink:href="#CMR17-6f"/>
      <use transform="translate(735.572064 0)scale(0.996264)" xlink:href="#CMR17-77"/>
      <use transform="translate(802.081945 0)scale(0.996264)" xlink:href="#CMR17-74"/>
      <use transform="translate(837.362713 0)scale(0.996264)" xlink:href="#CMR17-68"/>
      <use transform="translate(918.334049 0)scale(0.996264)" xlink:href="#CMR17-1"/>
      <use transform="translate(995.253639 0)scale(0.996264)" xlink:href="#CMMI12-53"/>
      <use transform="translate(1061.048078 0)scale(0.996264)" xlink:href="#CMR17-28"/>
      <use transform="translate(1096.328846 0)scale(0.996264)" xlink:href="#CMMI12-74"/>
      <use transform="translate(1131.555176 0)scale(0.996264)" xlink:href="#CMR17-29"/>
     </g>
    </g>
   </g>
   <g id="line2d_12">
    <path clip-path="url(#p5a0a920331)" d="M 30.744984 117.350791 
L 31.442723 111.062344 
L 32.140462 96.529426 
L 34.233679 40.044778 
L 34.931418 26.259312 
L 35.629157 17.689764 
L 36.326896 14.484799 
L 37.024635 15.88872 
L 37.722374 20.469451 
L 39.117852 31.981911 
L 39.815591 35.78495 
L 40.513329 37.276091 
L 41.211068 36.643857 
L 41.908807 34.557159 
L 43.304285 29.31199 
L 44.002024 27.487645 
L 44.699763 26.650641 
L 45.397502 26.783795 
L 46.095241 27.648753 
L 48.188458 31.167016 
L 48.886197 31.751886 
L 49.583936 31.885401 
L 50.281675 31.629693 
L 53.07263 29.637704 
L 54.468108 29.385148 
L 55.863586 29.488329 
L 57.956803 30.054028 
L 59.352281 30.363966 
L 60.05002 30.297564 
L 62.143236 29.48924 
L 62.840975 29.472767 
L 63.538714 29.707292 
L 64.236453 30.158599 
L 65.631931 31.460137 
L 66.32967 32.323937 
L 67.027409 33.480336 
L 67.725148 35.075953 
L 68.422887 37.225507 
L 69.120626 39.994148 
L 69.818365 43.400902 
L 71.213843 52.044304 
L 74.004798 72.74701 
L 74.702537 76.549065 
L 75.400276 78.686359 
L 76.098015 78.666429 
L 76.795754 76.197174 
L 77.493493 71.231317 
L 78.191232 63.975022 
L 79.58671 44.547297 
L 80.982188 23.535396 
L 81.679926 14.622955 
L 82.377665 7.874698 
L 83.075404 3.907493 
L 83.773143 3.066221 
L 84.470882 5.363906 
L 85.168621 10.455569 
L 86.564099 25.97276 
L 87.959577 41.295011 
L 88.657316 46.080547 
L 89.355055 48.03405 
L 90.052794 47.159145 
L 90.750533 43.962958 
L 92.14601 33.92285 
L 92.843749 28.806154 
L 93.541488 24.567242 
L 94.239227 21.648093 
L 94.936966 20.249089 
L 95.634705 20.345413 
L 96.332444 21.72794 
L 97.030183 24.054685 
L 99.1234 32.415481 
L 99.821139 34.323594 
L 100.518878 35.342645 
L 101.216617 35.412513 
L 101.914356 34.625329 
L 102.612094 33.197115 
L 104.705311 28.156715 
L 105.40305 27.249877 
L 106.100789 27.102786 
L 106.798528 27.788191 
L 107.496267 29.256157 
L 108.194006 31.34996 
L 111.682701 43.717552 
L 113.078178 48.013655 
L 114.473656 53.1776 
L 117.264612 65.731553 
L 117.962351 67.840536 
L 118.66009 68.797727 
L 119.357829 68.302061 
L 120.055568 66.203659 
L 120.753307 62.550067 
L 121.451046 57.563073 
L 122.846524 44.962896 
L 124.93974 24.929048 
L 126.335218 14.227447 
L 127.032957 10.393211 
L 127.730696 7.888647 
L 128.428435 6.934029 
L 129.126174 7.693788 
L 129.823913 10.231667 
L 130.521652 14.463035 
L 131.219391 20.116561 
L 133.312607 40.022968 
L 134.010346 45.137087 
L 134.708085 48.275889 
L 135.405824 49.054194 
L 136.103563 47.494184 
L 136.801302 43.986589 
L 138.19678 33.751935 
L 139.592258 23.99546 
L 140.289997 20.71582 
L 140.987736 18.879559 
L 141.685475 18.503652 
L 142.383214 19.428845 
L 143.080953 21.376662 
L 144.47643 26.990371 
L 145.871908 32.80684 
L 146.569647 35.192665 
L 147.267386 37.016817 
L 147.965125 38.174003 
L 148.662864 38.606373 
L 149.360603 38.329257 
L 150.058342 37.472281 
L 151.45382 35.183148 
L 152.151559 34.51446 
L 152.849298 34.636118 
L 153.547037 35.768613 
L 154.244775 37.969301 
L 154.942514 41.120297 
L 157.73347 56.509262 
L 158.431209 59.177576 
L 159.128948 60.981179 
L 159.826687 62.010757 
L 160.524426 62.43745 
L 161.222165 62.418931 
L 161.919904 62.030138 
L 162.617643 61.229657 
L 163.315382 59.86534 
L 164.013121 57.718558 
L 164.710859 54.578845 
L 165.408598 50.321332 
L 166.106337 44.96239 
L 167.501815 31.881891 
L 168.897293 18.686911 
L 169.595032 13.387478 
L 170.292771 9.553535 
L 170.99051 7.441272 
L 171.688249 7.105325 
L 172.385988 8.405033 
L 173.083727 11.052011 
L 173.781466 14.686155 
L 175.176943 23.529718 
L 177.27016 36.713722 
L 177.967899 40.147249 
L 178.665638 42.696965 
L 179.363377 44.174545 
L 180.061116 44.478694 
L 180.758855 43.60577 
L 181.456594 41.657747 
L 182.154333 38.848799 
L 184.945288 25.723146 
L 185.643027 23.511295 
L 186.340766 22.050819 
L 187.038505 21.347711 
L 187.736244 21.375935 
L 188.433983 22.114501 
L 189.131722 23.55541 
L 189.829461 25.682544 
L 190.5272 28.437131 
L 191.922678 35.213505 
L 193.318156 41.907647 
L 194.015895 44.488299 
L 194.713634 46.309148 
L 195.411372 47.355715 
L 196.109111 47.746273 
L 196.80685 47.696293 
L 198.202328 47.302455 
L 198.900067 47.372014 
L 199.597806 47.749854 
L 200.295545 48.429505 
L 200.993284 49.368368 
L 201.691023 50.540563 
L 202.388762 51.964532 
L 203.78424 55.658948 
L 205.179718 59.691639 
L 205.877456 60.958608 
L 206.575195 61.029259 
L 207.272934 59.435035 
L 207.970673 55.914982 
L 208.668412 50.489297 
L 210.06389 35.537336 
L 211.459368 20.128507 
L 212.157107 14.276432 
L 212.854846 10.397622 
L 213.552585 8.660932 
L 214.250324 8.897326 
L 214.948063 10.644219 
L 217.041279 18.460754 
L 217.739018 20.308236 
L 219.832235 24.386712 
L 220.529974 26.685197 
L 221.227713 30.043978 
L 221.925452 34.464709 
L 223.32093 44.761266 
L 224.018669 49.023979 
L 224.716408 51.430516 
L 225.414147 51.278995 
L 226.111886 48.368746 
L 226.809624 43.093873 
L 227.507363 36.338074 
L 227.507363 36.338074 
" style="fill:none;stroke:#5e4fa2;stroke-linecap:round;"/>
   </g>
   <g id="line2d_13">
    <path clip-path="url(#p5a0a920331)" d="M 72.60932 36.354717 
L 228.529624 36.354717 
L 228.529624 36.354717 
" style="fill:none;stroke:#5e4fa2;stroke-dasharray:1,1.65;stroke-dashoffset:0;stroke-linecap:round;"/>
   </g>
   <g id="line2d_14">
    <path clip-path="url(#p5a0a920331)" d="M 30.744984 117.350791 
L 31.442723 117.014913 
L 32.140462 116.127322 
L 35.629157 110.058986 
L 37.024635 107.35117 
L 38.420113 104.253106 
L 39.815591 100.704911 
L 41.908807 94.611007 
L 45.397502 84.457057 
L 47.490719 78.981874 
L 48.886197 75.805814 
L 50.281675 73.143046 
L 53.770369 67.366181 
L 56.561325 61.563795 
L 57.259064 60.816038 
L 57.956803 60.677359 
L 58.654542 61.157289 
L 59.352281 62.147561 
L 66.32967 75.444589 
L 72.60932 88.085978 
L 74.004798 90.312022 
L 74.702537 91.208124 
L 75.400276 91.921892 
L 76.098015 92.436927 
L 76.795754 92.758837 
L 77.493493 92.918109 
L 78.888971 92.941378 
L 80.982188 92.723215 
L 82.377665 92.310542 
L 83.075404 91.935752 
L 84.470882 90.805163 
L 86.564099 88.552246 
L 88.657316 86.074565 
L 90.750533 83.183394 
L 93.541488 79.274545 
L 95.634705 76.292631 
L 97.030183 73.923997 
L 100.518878 67.434756 
L 101.216617 66.464907 
L 101.914356 65.807904 
L 102.612094 65.52576 
L 103.309833 65.629733 
L 104.007572 66.072874 
L 105.40305 67.565102 
L 106.798528 69.135384 
L 110.984962 73.364204 
L 116.566873 79.9672 
L 117.962351 81.081999 
L 119.357829 81.802917 
L 120.753307 82.13787 
L 124.242001 82.533609 
L 125.637479 82.80118 
L 127.032957 82.798303 
L 128.428435 82.377101 
L 129.823913 81.523475 
L 131.91713 79.970984 
L 133.312607 79.2712 
L 135.405824 78.391715 
L 136.103563 77.920021 
L 137.499041 76.536431 
L 138.894519 74.648644 
L 143.080953 68.381187 
L 144.47643 66.871233 
L 145.174169 66.344164 
L 145.871908 66.049574 
L 146.569647 66.046608 
L 147.267386 66.3552 
L 147.965125 66.932128 
L 150.756081 69.798251 
L 153.547037 72.265525 
L 159.128948 77.461417 
L 160.524426 78.238288 
L 161.919904 78.658368 
L 163.315382 78.775281 
L 166.804076 78.823138 
L 168.897293 78.610196 
L 170.292771 78.747873 
L 171.688249 78.988368 
L 173.083727 78.98603 
L 174.479205 78.727063 
L 176.572421 78.076605 
L 178.665638 77.196018 
L 180.061116 76.445818 
L 181.456594 75.404278 
L 182.154333 74.673602 
L 183.549811 72.732348 
L 184.945288 70.615563 
L 185.643027 69.759069 
L 186.340766 69.137586 
L 187.038505 68.760258 
L 187.736244 68.589461 
L 189.131722 68.63621 
L 190.5272 68.967787 
L 191.922678 69.620838 
L 193.318156 70.64317 
L 194.713634 71.694665 
L 196.109111 72.319896 
L 197.504589 72.715201 
L 198.202328 73.020402 
L 199.597806 73.994654 
L 201.691023 75.666609 
L 203.086501 76.387462 
L 205.179718 77.050687 
L 206.575195 77.338051 
L 207.970673 77.396261 
L 218.436757 76.447231 
L 221.227713 75.94706 
L 222.623191 75.528325 
L 224.018669 74.773599 
L 224.716408 74.210841 
L 226.111886 72.642868 
L 227.507363 70.615834 
L 227.507363 70.615834 
" style="fill:none;stroke:#d8434e;stroke-linecap:round;"/>
   </g>
   <g id="patch_3">
    <path d="M 30.744984 117.350791 
L 30.744984 0.72 
" style="fill:none;stroke:#000000;stroke-linecap:square;stroke-linejoin:miter;stroke-width:0.35;"/>
   </g>
   <g id="patch_4">
    <path d="M 226.809624 117.350791 
L 226.809624 0.72 
" style="fill:none;stroke:#000000;stroke-linecap:square;stroke-linejoin:miter;stroke-width:0.35;"/>
   </g>
   <g id="patch_5">
    <path d="M 30.744984 117.350791 
L 226.809624 117.350791 
" style="fill:none;stroke:#000000;stroke-linecap:square;stroke-linejoin:miter;stroke-width:0.35;"/>
   </g>
   <g id="patch_6">
    <path d="M 30.744984 0.72 
L 226.809624 0.72 
" style="fill:none;stroke:#000000;stroke-linecap:square;stroke-linejoin:miter;stroke-width:0.35;"/>
   </g>
   <g id="text_13">
    <!-- $V = 0.250J,\; V^\prime = 0$ -->
    <g transform="translate(44.469509 115.018175)scale(0.08 -0.08)">
     <defs>
      <path d="M 3962 3644 
C 4179 3987 4378 4140 4704 4166 
C 4768 4172 4819 4172 4819 4287 
C 4819 4313 4806 4352 4749 4352 
C 4634 4352 4358 4339 4243 4339 
C 4058 4339 3866 4352 3686 4352 
C 3635 4352 3571 4352 3571 4230 
C 3571 4172 3629 4166 3654 4166 
C 3891 4146 3917 4032 3917 3956 
C 3917 3860 3827 3714 3821 3708 
L 1811 540 
L 1363 3968 
C 1363 4153 1696 4166 1766 4166 
C 1862 4166 1920 4166 1920 4287 
C 1920 4352 1850 4352 1830 4352 
C 1722 4352 1594 4339 1485 4339 
L 1126 4339 
C 659 4339 467 4352 461 4352 
C 422 4352 346 4352 346 4236 
C 346 4166 390 4166 493 4166 
C 819 4166 838 4108 858 3949 
L 1370 25 
C 1389 -109 1389 -128 1478 -128 
C 1555 -128 1587 -109 1651 -7 
L 3962 3644 
z
" id="CMMI12-56" transform="scale(0.015625)"/>
      <path d="M 4115 2048 
C 4211 2048 4307 2048 4307 2156 
C 4307 2272 4198 2272 4090 2272 
L 512 2272 
C 403 2272 294 2272 294 2156 
C 294 2048 390 2048 486 2048 
L 4115 2048 
z
M 4090 927 
C 4198 927 4307 927 4307 1043 
C 4307 1152 4211 1152 4115 1152 
L 486 1152 
C 390 1152 294 1152 294 1043 
C 294 927 403 927 512 927 
L 4090 927 
z
" id="CMR17-3d" transform="scale(0.015625)"/>
      <path d="M 1248 -26 
C 1248 345 1126 620 864 620 
C 659 620 557 454 557 313 
C 557 172 653 0 870 0 
C 954 0 1024 25 1082 83 
C 1094 96 1101 96 1107 96 
C 1120 96 1120 6 1120 -26 
C 1120 -233 1082 -642 710 -1051 
C 640 -1127 640 -1140 640 -1152 
C 640 -1184 672 -1216 704 -1216 
C 755 -1216 1248 -749 1248 -26 
z
" id="CMMI12-3b" transform="scale(0.015625)"/>
      <path d="M 1619 3048 
C 1651 3125 1677 3182 1677 3246 
C 1677 3430 1510 3584 1312 3584 
C 1133 3584 1018 3462 973 3297 
L 211 517 
C 211 505 186 435 186 428 
C 186 358 352 313 403 313 
C 442 313 448 332 486 415 
L 1619 3048 
z
" id="CMSY10-30" transform="scale(0.015625)"/>
     </defs>
     <use transform="scale(0.996264)" xlink:href="#CMMI12-56"/>
     <use transform="translate(106.221329 0)scale(0.996264)" xlink:href="#CMR17-3d"/>
     <use transform="translate(205.610127 0)scale(0.996264)" xlink:href="#CMR17-30"/>
     <use transform="translate(251.300604 0)scale(0.996264)" xlink:href="#CMMI12-3a"/>
     <use transform="translate(278.397781 0)scale(0.996264)" xlink:href="#CMR17-32"/>
     <use transform="translate(324.088258 0)scale(0.996264)" xlink:href="#CMR17-35"/>
     <use transform="translate(369.778735 0)scale(0.996264)" xlink:href="#CMR17-30"/>
     <use transform="translate(415.469212 0)scale(0.996264)" xlink:href="#CMMI12-4a"/>
     <use transform="translate(467.773012 0)scale(0.996264)" xlink:href="#CMMI12-3b"/>
     <use transform="translate(539.148603 0)scale(0.996264)" xlink:href="#CMMI12-56"/>
     <use transform="translate(617.695924 36.153639)scale(0.697382)" xlink:href="#CMSY10-30"/>
     <use transform="translate(665.046025 0)scale(0.996264)" xlink:href="#CMR17-3d"/>
     <use transform="translate(764.434822 0)scale(0.996264)" xlink:href="#CMR17-30"/>
    </g>
   </g>
   <g id="text_14">
    <!-- $L = 26, N = 13, \ell = 13, n = 6$ -->
    <g transform="translate(44.469509 105.687712)scale(0.08 -0.08)">
     <defs>
      <path d="M 2349 3860 
C 2406 4102 2426 4166 2989 4166 
C 3162 4166 3206 4166 3206 4287 
C 3206 4352 3136 4352 3110 4352 
C 2982 4352 2835 4339 2707 4339 
L 1850 4339 
C 1728 4339 1587 4352 1466 4352 
C 1414 4352 1344 4352 1344 4230 
C 1344 4166 1402 4166 1498 4166 
C 1888 4166 1888 4115 1888 4045 
C 1888 4032 1888 3994 1862 3898 
L 998 472 
C 941 249 928 185 480 185 
C 358 185 294 185 294 70 
C 294 0 333 0 461 0 
L 3328 0 
C 3469 0 3475 6 3520 121 
L 4013 1478 
C 4026 1510 4038 1548 4038 1567 
C 4038 1605 4006 1631 3974 1631 
C 3968 1631 3936 1631 3923 1605 
C 3910 1599 3910 1586 3859 1465 
C 3654 905 3366 185 2285 185 
L 1670 185 
C 1581 185 1568 185 1530 191 
C 1459 198 1453 211 1453 262 
C 1453 306 1466 344 1478 402 
L 2349 3860 
z
" id="CMMI12-4c" transform="scale(0.015625)"/>
      <path d="M 4736 3682 
C 4806 3956 4909 4147 5395 4166 
C 5414 4166 5491 4172 5491 4281 
C 5491 4352 5434 4352 5408 4352 
C 5280 4352 4954 4339 4826 4339 
L 4518 4339 
C 4429 4339 4314 4352 4224 4352 
C 4186 4352 4109 4352 4109 4230 
C 4109 4166 4160 4166 4205 4166 
C 4589 4153 4614 4007 4614 3892 
C 4614 3835 4608 3816 4589 3726 
L 3866 854 
L 2496 4243 
C 2451 4345 2445 4352 2304 4352 
L 1523 4352 
C 1395 4352 1338 4352 1338 4230 
C 1338 4166 1382 4166 1504 4166 
C 1536 4166 1914 4166 1914 4109 
C 1914 4096 1901 4045 1894 4026 
L 1043 650 
C 966 338 813 204 390 185 
C 358 185 294 179 294 64 
C 294 0 358 0 378 0 
C 506 0 832 12 960 12 
L 1267 12 
C 1357 12 1466 0 1555 0 
C 1600 0 1670 0 1670 121 
C 1670 179 1606 185 1581 185 
C 1370 191 1165 230 1165 459 
C 1165 510 1178 567 1190 618 
L 2054 4026 
C 2093 3962 2093 3949 2118 3892 
L 3642 115 
C 3674 38 3686 0 3744 0 
C 3808 0 3814 19 3840 128 
L 4736 3682 
z
" id="CMMI12-4e" transform="scale(0.015625)"/>
      <path d="M 1414 2176 
C 1984 2176 2234 1673 2234 1094 
C 2234 322 1824 25 1453 25 
C 1114 25 563 193 390 691 
C 422 678 454 678 486 678 
C 640 678 755 780 755 947 
C 755 1132 614 1216 486 1216 
C 378 1216 211 1164 211 927 
C 211 335 787 -128 1466 -128 
C 2176 -128 2720 432 2720 1087 
C 2720 1718 2208 2176 1600 2246 
C 2086 2347 2554 2776 2554 3353 
C 2554 3856 2048 4224 1472 4224 
C 890 4224 378 3862 378 3347 
C 378 3123 544 3084 627 3084 
C 762 3084 877 3167 877 3334 
C 877 3500 762 3584 627 3584 
C 602 3584 570 3584 544 3571 
C 730 3999 1235 4076 1459 4076 
C 1683 4076 2106 3966 2106 3347 
C 2106 3167 2080 2851 1862 2574 
C 1670 2329 1453 2316 1242 2297 
C 1210 2297 1062 2284 1037 2284 
C 992 2278 966 2272 966 2227 
C 966 2182 973 2176 1101 2176 
L 1414 2176 
z
" id="CMR17-33" transform="scale(0.015625)"/>
      <path d="M 589 1091 
C 186 698 83 603 83 577 
C 83 552 109 508 154 508 
C 186 508 550 856 602 913 
C 640 488 800 -64 1299 -64 
C 1555 -64 1786 95 1888 171 
C 1971 235 2278 495 2278 552 
C 2278 584 2246 622 2214 622 
C 2189 622 2093 527 2067 501 
C 1843 286 1562 64 1306 64 
C 960 64 915 558 915 901 
C 915 964 915 1231 960 1281 
C 1338 1668 2522 2880 2522 4002 
C 2522 4256 2426 4480 2150 4480 
C 1555 4480 1037 3171 947 2930 
C 922 2867 550 1890 589 1091 
z
M 973 1484 
C 979 1522 1267 3184 1805 4072 
C 1914 4243 2022 4351 2150 4351 
C 2368 4351 2381 4148 2381 4009 
C 2381 3787 2317 3216 1760 2417 
C 1594 2182 1338 1865 973 1484 
z
" id="CMMI12-60" transform="scale(0.015625)"/>
      <path d="M 1318 1870 
C 1331 1909 1491 2228 1728 2432 
C 1894 2585 2112 2687 2362 2687 
C 2618 2687 2707 2496 2707 2241 
C 2707 1877 2445 1149 2317 804 
C 2259 651 2227 568 2227 453 
C 2227 166 2426 -64 2733 -64 
C 3328 -64 3552 874 3552 913 
C 3552 945 3526 970 3488 970 
C 3430 970 3424 951 3392 842 
C 3245 319 3002 64 2752 64 
C 2688 64 2586 70 2586 274 
C 2586 434 2656 625 2694 715 
C 2822 1066 3091 1781 3091 2145 
C 3091 2528 2867 2816 2381 2816 
C 1811 2816 1510 2413 1395 2253 
C 1376 2617 1114 2816 832 2816 
C 627 2816 486 2694 378 2477 
C 262 2247 173 1864 173 1838 
C 173 1813 198 1781 243 1781 
C 294 1781 301 1787 339 1934 
C 442 2324 557 2687 813 2687 
C 960 2687 1011 2585 1011 2394 
C 1011 2253 947 2004 902 1807 
L 723 1117 
C 698 996 627 708 595 593 
C 550 427 480 127 480 95 
C 480 6 550 -64 646 -64 
C 723 -64 813 -26 864 70 
C 877 102 934 325 966 453 
L 1107 1028 
L 1318 1870 
z
" id="CMMI12-6e" transform="scale(0.015625)"/>
     </defs>
     <use transform="scale(0.996264)" xlink:href="#CMMI12-4c"/>
     <use transform="translate(94.044884 0)scale(0.996264)" xlink:href="#CMR17-3d"/>
     <use transform="translate(193.433681 0)scale(0.996264)" xlink:href="#CMR17-32"/>
     <use transform="translate(239.124158 0)scale(0.996264)" xlink:href="#CMR17-36"/>
     <use transform="translate(284.814636 0)scale(0.996264)" xlink:href="#CMMI12-3b"/>
     <use transform="translate(328.516218 0)scale(0.996264)" xlink:href="#CMMI12-4e"/>
     <use transform="translate(444.711999 0)scale(0.996264)" xlink:href="#CMR17-3d"/>
     <use transform="translate(544.100796 0)scale(0.996264)" xlink:href="#CMR17-31"/>
     <use transform="translate(589.791273 0)scale(0.996264)" xlink:href="#CMR17-33"/>
     <use transform="translate(635.481751 0)scale(0.996264)" xlink:href="#CMMI12-3b"/>
     <use transform="translate(679.183333 0)scale(0.996264)" xlink:href="#CMMI12-60"/>
     <use transform="translate(747.791561 0)scale(0.996264)" xlink:href="#CMR17-3d"/>
     <use transform="translate(847.180358 0)scale(0.996264)" xlink:href="#CMR17-31"/>
     <use transform="translate(892.870835 0)scale(0.996264)" xlink:href="#CMR17-33"/>
     <use transform="translate(938.561312 0)scale(0.996264)" xlink:href="#CMMI12-3b"/>
     <use transform="translate(982.262895 0)scale(0.996264)" xlink:href="#CMMI12-6e"/>
     <use transform="translate(1068.166951 0)scale(0.996264)" xlink:href="#CMR17-3d"/>
     <use transform="translate(1167.555748 0)scale(0.996264)" xlink:href="#CMR17-36"/>
    </g>
   </g>
   <g id="legend_1">
    <g id="line2d_15">
     <path d="M 171.190232 98.901838 
L 179.190232 98.901838 
" style="fill:none;stroke:#5e4fa2;stroke-linecap:round;"/>
    </g>
    <g id="line2d_16"/>
    <g id="text_15">
     <!-- particle -->
     <g transform="translate(183.190232 101.701838)scale(0.08 -0.08)">
      <defs>
       <path d="M 1408 -1114 
C 998 -1114 973 -1088 973 -834 
L 973 380 
C 1158 109 1427 -64 1766 -64 
C 2406 -64 3053 503 3053 1382 
C 3053 2196 2496 2816 1837 2816 
C 1453 2816 1139 2603 960 2345 
L 960 2816 
L 198 2745 
L 198 2577 
C 576 2577 634 2539 634 2228 
L 634 -834 
C 634 -1081 608 -1114 198 -1114 
L 198 -1280 
C 352 -1268 634 -1268 800 -1268 
C 966 -1268 1254 -1268 1408 -1280 
L 1408 -1114 
z
M 973 2015 
C 973 2106 973 2241 1222 2481 
C 1254 2506 1472 2700 1792 2700 
C 2259 2700 2643 2112 2643 1376 
C 2643 639 2234 38 1728 38 
C 1498 38 1248 148 1056 451 
C 973 594 973 632 973 736 
L 973 2015 
z
" id="CMR17-70" transform="scale(0.015625)"/>
       <path d="M 2234 2240 
C 2112 2240 1933 2240 1933 2015 
C 1933 1836 2080 1785 2163 1785 
C 2208 1785 2394 1804 2394 2028 
C 2394 2476 1958 2816 1466 2816 
C 787 2816 211 2201 211 1379 
C 211 521 813 -64 1466 -64 
C 2259 -64 2458 676 2458 747 
C 2458 773 2451 792 2406 792 
C 2362 792 2355 786 2330 702 
C 2163 180 1798 51 1523 51 
C 1114 51 621 431 621 1385 
C 621 2358 1094 2700 1472 2700 
C 1722 2700 2093 2582 2234 2240 
z
" id="CMR17-63" transform="scale(0.015625)"/>
      </defs>
      <use transform="scale(0.996264)" xlink:href="#CMR17-70"/>
      <use transform="translate(50.89537 0)scale(0.996264)" xlink:href="#CMR17-61"/>
      <use transform="translate(96.585847 0)scale(0.996264)" xlink:href="#CMR17-72"/>
      <use transform="translate(131.866615 0)scale(0.996264)" xlink:href="#CMR17-74"/>
      <use transform="translate(167.147382 0)scale(0.996264)" xlink:href="#CMR17-69"/>
      <use transform="translate(192.018441 0)scale(0.996264)" xlink:href="#CMR17-63"/>
      <use transform="translate(232.504101 0)scale(0.996264)" xlink:href="#CMR17-6c"/>
      <use transform="translate(257.37516 0)scale(0.996264)" xlink:href="#CMR17-65"/>
     </g>
    </g>
    <g id="line2d_17">
     <path d="M 171.190232 108.051584 
L 179.190232 108.051584 
" style="fill:none;stroke:#d8434e;stroke-linecap:round;"/>
    </g>
    <g id="line2d_18"/>
    <g id="text_16">
     <!-- spatial -->
     <g transform="translate(183.190232 110.851584)scale(0.08 -0.08)">
      <defs>
       <path d="M 1978 2688 
C 1978 2803 1971 2809 1933 2809 
C 1907 2809 1901 2803 1824 2707 
C 1805 2681 1747 2617 1728 2592 
C 1523 2809 1235 2816 1126 2816 
C 416 2816 160 2444 160 2073 
C 160 1497 813 1363 998 1324 
C 1402 1241 1542 1216 1677 1100 
C 1760 1024 1901 883 1901 652 
C 1901 384 1747 38 1158 38 
C 602 38 403 460 288 1024 
C 269 1113 269 1120 218 1120 
C 166 1120 160 1113 160 985 
L 160 64 
C 160 -52 166 -58 205 -58 
C 237 -58 243 -52 275 0 
C 314 57 410 211 448 275 
C 576 102 800 -64 1158 -64 
C 1792 -64 2131 281 2131 780 
C 2131 1107 1958 1280 1875 1356 
C 1683 1555 1459 1600 1190 1651 
C 838 1728 390 1817 390 2208 
C 390 2374 480 2726 1126 2726 
C 1811 2726 1850 2086 1862 1881 
C 1869 1849 1901 1843 1920 1843 
C 1978 1843 1978 1862 1978 1971 
L 1978 2688 
z
" id="CMR17-73" transform="scale(0.015625)"/>
      </defs>
      <use transform="scale(0.996264)" xlink:href="#CMR17-73"/>
      <use transform="translate(35.801338 0)scale(0.996264)" xlink:href="#CMR17-70"/>
      <use transform="translate(86.696707 0)scale(0.996264)" xlink:href="#CMR17-61"/>
      <use transform="translate(132.387185 0)scale(0.996264)" xlink:href="#CMR17-74"/>
      <use transform="translate(167.667952 0)scale(0.996264)" xlink:href="#CMR17-69"/>
      <use transform="translate(192.539011 0)scale(0.996264)" xlink:href="#CMR17-61"/>
      <use transform="translate(238.229488 0)scale(0.996264)" xlink:href="#CMR17-6c"/>
     </g>
    </g>
   </g>
  </g>
 </g>
 <defs>
  <clipPath id="p5a0a920331">
   <rect height="116.630791" width="196.06464" x="30.744984" y="0.72"/>
  </clipPath>
 </defs>
</svg>
