<?xml version="1.0" encoding="utf-8" standalone="no"?>
<!DOCTYPE svg PUBLIC "-//W3C//DTD SVG 1.1//EN"
  "http://www.w3.org/Graphics/SVG/1.1/DTD/svg11.dtd">
<!-- Created with matplotlib (https://matplotlib.org/) -->
<svg height="140.101763pt" version="1.1" viewBox="0 0 282.15339 140.101763" width="282.15339pt" xmlns="http://www.w3.org/2000/svg" xmlns:xlink="http://www.w3.org/1999/xlink">
 <defs>
  <style type="text/css">
*{stroke-linecap:butt;stroke-linejoin:round;}
  </style>
 </defs>
 <g id="figure_1">
  <g id="patch_1">
   <path d="M 0 140.101763 
L 282.15339 140.101763 
L 282.15339 0 
L 0 0 
z
" style="fill:none;"/>
  </g>
  <g id="axes_1">
   <g id="patch_2">
    <path d="M 30.88875 117.375513 
L 226.95339 117.375513 
L 226.95339 0.744722 
L 30.88875 0.744722 
z
" style="fill:none;"/>
   </g>
   <g id="PolyCollection_1">
    <defs>
     <path d="M 211.315301 -28.112361 
L 211.315301 -27.990302 
L 218.041361 -27.990302 
L 218.041361 -28.112361 
L 218.041361 -28.112361 
L 211.315301 -28.112361 
z
" id="mb4107e135d" style="stroke:#5e4fa2;stroke-opacity:0.6;"/>
    </defs>
    <g>
     <use style="fill:#5e4fa2;fill-opacity:0.6;stroke:#5e4fa2;stroke-opacity:0.6;" x="0" xlink:href="#mb4107e135d" y="140.101763"/>
    </g>
   </g>
   <g id="PolyCollection_2">
    <defs>
     <path d="M 211.315301 -27.75676 
L 211.315301 -27.663888 
L 218.041361 -27.663888 
L 218.041361 -27.75676 
L 218.041361 -27.75676 
L 211.315301 -27.75676 
z
" id="me863dad1c2" style="stroke:#486cb0;stroke-opacity:0.6;"/>
    </defs>
    <g>
     <use style="fill:#486cb0;fill-opacity:0.6;stroke:#486cb0;stroke-opacity:0.6;" x="0" xlink:href="#me863dad1c2" y="140.101763"/>
    </g>
   </g>
   <g id="PolyCollection_3">
    <defs>
     <path d="M 211.315301 -36.073987 
L 211.315301 -35.844799 
L 218.041361 -35.844799 
L 218.041361 -36.073987 
L 218.041361 -36.073987 
L 211.315301 -36.073987 
z
" id="m98b59d6525" style="stroke:#3389bd;stroke-opacity:0.6;"/>
    </defs>
    <g>
     <use style="fill:#3389bd;fill-opacity:0.6;stroke:#3389bd;stroke-opacity:0.6;" x="0" xlink:href="#m98b59d6525" y="140.101763"/>
    </g>
   </g>
   <g id="PolyCollection_4">
    <defs>
     <path d="M 211.315301 -34.672811 
L 211.315301 -34.521747 
L 218.041361 -34.521747 
L 218.041361 -34.672811 
L 218.041361 -34.672811 
L 211.315301 -34.672811 
z
" id="m0877b29b4d" style="stroke:#50a9af;stroke-opacity:0.6;"/>
    </defs>
    <g>
     <use style="fill:#50a9af;fill-opacity:0.6;stroke:#50a9af;stroke-opacity:0.6;" x="0" xlink:href="#m0877b29b4d" y="140.101763"/>
    </g>
   </g>
   <g id="PolyCollection_5">
    <defs>
     <path d="M 211.315301 -69.177046 
L 211.315301 -67.514537 
L 218.041361 -67.514537 
L 218.041361 -69.177046 
L 218.041361 -69.177046 
L 211.315301 -69.177046 
z
" id="m3595c3d250" style="stroke:#6bc4a5;stroke-opacity:0.6;"/>
    </defs>
    <g>
     <use style="fill:#6bc4a5;fill-opacity:0.6;stroke:#6bc4a5;stroke-opacity:0.6;" x="0" xlink:href="#m3595c3d250" y="140.101763"/>
    </g>
   </g>
   <g id="PolyCollection_6">
    <defs>
     <path d="M 211.315301 -94.345181 
L 211.315301 -94.0311 
L 218.041361 -94.0311 
L 218.041361 -94.345181 
L 218.041361 -94.345181 
L 211.315301 -94.345181 
z
" id="m680a80f74d" style="stroke:#91d3a4;stroke-opacity:0.6;"/>
    </defs>
    <g>
     <use style="fill:#91d3a4;fill-opacity:0.6;stroke:#91d3a4;stroke-opacity:0.6;" x="0" xlink:href="#m680a80f74d" y="140.101763"/>
    </g>
   </g>
   <g id="matplotlib.axis_1">
    <g id="xtick_1">
     <g id="line2d_1">
      <defs>
       <path d="M 0 0 
L 0 2 
" id="mb2a706800c" style="stroke:#000000;stroke-width:0.35;"/>
      </defs>
      <g>
       <use style="stroke:#000000;stroke-width:0.35;" x="39.800779" xlink:href="#mb2a706800c" y="117.375513"/>
      </g>
     </g>
     <g id="text_1">
      <!-- 1 -->
      <defs>
       <path d="M 9.578125 49.515625 
L 9.578125 56.25 
Q 19.09375 57.171875 22.84375 59.34375 
Q 26.609375 61.53125 28.46875 69.625 
L 35.40625 69.625 
L 35.40625 0 
L 26.03125 0 
L 26.03125 49.515625 
z
" id="Helvetica-49"/>
      </defs>
      <g transform="translate(37.576404 128.114263)scale(0.08 -0.08)">
       <use xlink:href="#Helvetica-49"/>
      </g>
     </g>
    </g>
    <g id="xtick_2">
     <g id="line2d_2">
      <g>
       <use style="stroke:#000000;stroke-width:0.35;" x="73.431078" xlink:href="#mb2a706800c" y="117.375513"/>
      </g>
     </g>
     <g id="text_2">
      <!-- 2 -->
      <defs>
       <path d="M 3.125 0 
Q 3.609375 9.03125 6.859375 15.71875 
Q 10.109375 22.40625 19.53125 27.875 
L 28.90625 33.296875 
Q 35.203125 36.96875 37.75 39.546875 
Q 41.75 43.609375 41.75 48.828125 
Q 41.75 54.9375 38.078125 58.515625 
Q 34.421875 62.109375 28.328125 62.109375 
Q 19.28125 62.109375 15.828125 55.28125 
Q 13.96875 51.609375 13.765625 45.125 
L 4.828125 45.125 
Q 4.984375 54.25 8.203125 60.015625 
Q 13.921875 70.171875 28.375 70.171875 
Q 40.375 70.171875 45.921875 63.671875 
Q 51.46875 57.171875 51.46875 49.21875 
Q 51.46875 40.828125 45.5625 34.859375 
Q 42.140625 31.390625 33.296875 26.46875 
L 26.609375 22.75 
Q 21.828125 20.125 19.09375 17.71875 
Q 14.203125 13.484375 12.9375 8.296875 
L 51.125 8.296875 
L 51.125 0 
L 3.125 0 
z
" id="Helvetica-50"/>
      </defs>
      <g transform="translate(71.206703 128.114263)scale(0.08 -0.08)">
       <use xlink:href="#Helvetica-50"/>
      </g>
     </g>
    </g>
    <g id="xtick_3">
     <g id="line2d_3">
      <g>
       <use style="stroke:#000000;stroke-width:0.35;" x="107.061376" xlink:href="#mb2a706800c" y="117.375513"/>
      </g>
     </g>
     <g id="text_3">
      <!-- 3 -->
      <defs>
       <path d="M 25.984375 -1.90625 
Q 13.578125 -1.90625 7.984375 4.90625 
Q 2.390625 11.71875 2.390625 21.484375 
L 11.578125 21.484375 
Q 12.15625 14.703125 14.109375 11.625 
Q 17.53125 6.109375 26.46875 6.109375 
Q 33.40625 6.109375 37.59375 9.8125 
Q 41.796875 13.53125 41.796875 19.390625 
Q 41.796875 26.609375 37.375 29.484375 
Q 32.953125 32.375 25.09375 32.375 
Q 24.21875 32.375 23.3125 32.34375 
Q 22.40625 32.328125 21.484375 32.28125 
L 21.484375 40.046875 
Q 22.859375 39.890625 23.78125 39.84375 
Q 24.703125 39.796875 25.78125 39.796875 
Q 30.71875 39.796875 33.890625 41.359375 
Q 39.453125 44.09375 39.453125 51.125 
Q 39.453125 56.34375 35.734375 59.171875 
Q 32.03125 62.015625 27.09375 62.015625 
Q 18.3125 62.015625 14.9375 56.15625 
Q 13.09375 52.9375 12.84375 46.96875 
L 4.15625 46.96875 
Q 4.15625 54.78125 7.28125 60.25 
Q 12.640625 70.015625 26.171875 70.015625 
Q 36.859375 70.015625 42.71875 65.25 
Q 48.578125 60.5 48.578125 51.46875 
Q 48.578125 45.015625 45.125 41.015625 
Q 42.96875 38.53125 39.546875 37.109375 
Q 45.0625 35.59375 48.15625 31.265625 
Q 51.265625 26.953125 51.265625 20.703125 
Q 51.265625 10.6875 44.671875 4.390625 
Q 38.09375 -1.90625 25.984375 -1.90625 
z
" id="Helvetica-51"/>
      </defs>
      <g transform="translate(104.837001 128.114263)scale(0.08 -0.08)">
       <use xlink:href="#Helvetica-51"/>
      </g>
     </g>
    </g>
    <g id="xtick_4">
     <g id="line2d_4">
      <g>
       <use style="stroke:#000000;stroke-width:0.35;" x="140.691674" xlink:href="#mb2a706800c" y="117.375513"/>
      </g>
     </g>
     <g id="text_4">
      <!-- 4 -->
      <defs>
       <path d="M 33.0625 24.75 
L 33.0625 56.453125 
L 10.640625 24.75 
z
M 33.203125 0 
L 33.203125 17.09375 
L 2.546875 17.09375 
L 2.546875 25.6875 
L 34.578125 70.125 
L 42 70.125 
L 42 24.75 
L 52.296875 24.75 
L 52.296875 17.09375 
L 42 17.09375 
L 42 0 
z
" id="Helvetica-52"/>
      </defs>
      <g transform="translate(138.467299 128.114263)scale(0.08 -0.08)">
       <use xlink:href="#Helvetica-52"/>
      </g>
     </g>
    </g>
    <g id="xtick_5">
     <g id="line2d_5">
      <g>
       <use style="stroke:#000000;stroke-width:0.35;" x="174.321973" xlink:href="#mb2a706800c" y="117.375513"/>
      </g>
     </g>
     <g id="text_5">
      <!-- 5 -->
      <defs>
       <path d="M 12.359375 17.828125 
Q 13.234375 10.296875 19.34375 7.421875 
Q 22.46875 5.953125 26.5625 5.953125 
Q 34.375 5.953125 38.125 10.9375 
Q 41.890625 15.921875 41.890625 21.96875 
Q 41.890625 29.296875 37.421875 33.296875 
Q 32.953125 37.3125 26.703125 37.3125 
Q 22.171875 37.3125 18.921875 35.546875 
Q 15.671875 33.796875 13.375 30.671875 
L 5.765625 31.109375 
L 11.078125 68.75 
L 47.40625 68.75 
L 47.40625 60.25 
L 17.671875 60.25 
L 14.703125 40.828125 
Q 17.140625 42.671875 19.34375 43.609375 
Q 23.25 45.21875 28.375 45.21875 
Q 37.984375 45.21875 44.671875 39.015625 
Q 51.375 32.8125 51.375 23.296875 
Q 51.375 13.375 45.234375 5.796875 
Q 39.109375 -1.765625 25.6875 -1.765625 
Q 17.140625 -1.765625 10.5625 3.046875 
Q 4 7.859375 3.21875 17.828125 
z
" id="Helvetica-53"/>
      </defs>
      <g transform="translate(172.097598 128.114263)scale(0.08 -0.08)">
       <use xlink:href="#Helvetica-53"/>
      </g>
     </g>
    </g>
    <g id="xtick_6">
     <g id="line2d_6">
      <g>
       <use style="stroke:#000000;stroke-width:0.35;" x="207.952271" xlink:href="#mb2a706800c" y="117.375513"/>
      </g>
     </g>
     <g id="text_6">
      <!-- 6 -->
      <defs>
       <path d="M 29.25 70.21875 
Q 40.96875 70.21875 45.578125 64.140625 
Q 50.203125 58.0625 50.203125 51.609375 
L 41.5 51.609375 
Q 40.71875 55.765625 39.015625 58.109375 
Q 35.84375 62.5 29.390625 62.5 
Q 22.015625 62.5 17.671875 55.6875 
Q 13.328125 48.875 12.84375 36.1875 
Q 15.875 40.625 20.453125 42.828125 
Q 24.65625 44.78125 29.828125 44.78125 
Q 38.625 44.78125 45.15625 39.15625 
Q 51.703125 33.546875 51.703125 22.40625 
Q 51.703125 12.890625 45.5 5.53125 
Q 39.3125 -1.8125 27.828125 -1.8125 
Q 18.015625 -1.8125 10.890625 5.640625 
Q 3.765625 13.09375 3.765625 30.71875 
Q 3.765625 43.75 6.9375 52.828125 
Q 13.03125 70.21875 29.25 70.21875 
z
M 28.609375 6 
Q 35.546875 6 38.984375 10.65625 
Q 42.4375 15.328125 42.4375 21.6875 
Q 42.4375 27.046875 39.359375 31.90625 
Q 36.28125 36.765625 28.171875 36.765625 
Q 22.515625 36.765625 18.234375 33 
Q 13.96875 29.25 13.96875 21.6875 
Q 13.96875 15.046875 17.84375 10.515625 
Q 21.734375 6 28.609375 6 
z
" id="Helvetica-54"/>
      </defs>
      <g transform="translate(205.727896 128.114263)scale(0.08 -0.08)">
       <use xlink:href="#Helvetica-54"/>
      </g>
     </g>
    </g>
    <g id="text_7">
     <!-- Bipartition Size  $n$ -->
     <defs>
      <path d="M 34.578125 41.40625 
Q 40.71875 41.40625 44.140625 43.109375 
Q 49.515625 45.796875 49.515625 52.78125 
Q 49.515625 59.8125 43.796875 62.25 
Q 40.578125 63.625 34.234375 63.625 
L 16.890625 63.625 
L 16.890625 41.40625 
z
M 37.84375 8.296875 
Q 46.78125 8.296875 50.59375 13.484375 
Q 52.984375 16.75 52.984375 21.390625 
Q 52.984375 29.203125 46 32.03125 
Q 42.28125 33.546875 36.1875 33.546875 
L 16.890625 33.546875 
L 16.890625 8.296875 
z
M 7.375 71.734375 
L 38.1875 71.734375 
Q 50.78125 71.734375 56.109375 64.203125 
Q 59.234375 59.765625 59.234375 53.953125 
Q 59.234375 47.171875 55.375 42.828125 
Q 53.375 40.53125 49.609375 38.625 
Q 55.125 36.53125 57.859375 33.890625 
Q 62.703125 29.203125 62.703125 20.953125 
Q 62.703125 14.015625 58.34375 8.40625 
Q 51.859375 0 37.703125 0 
L 7.375 0 
z
" id="Helvetica-66"/>
      <path d="M 6.453125 52.046875 
L 15.375 52.046875 
L 15.375 0 
L 6.453125 0 
z
M 6.453125 71.734375 
L 15.375 71.734375 
L 15.375 61.765625 
L 6.453125 61.765625 
z
" id="Helvetica-105"/>
      <path d="M 28.515625 5.90625 
Q 34.671875 5.90625 38.75 11.0625 
Q 42.828125 16.21875 42.828125 26.46875 
Q 42.828125 32.71875 41.015625 37.203125 
Q 37.59375 45.84375 28.515625 45.84375 
Q 19.390625 45.84375 16.015625 36.71875 
Q 14.203125 31.84375 14.203125 24.3125 
Q 14.203125 18.265625 16.015625 14.015625 
Q 19.4375 5.90625 28.515625 5.90625 
z
M 5.765625 52.046875 
L 14.3125 52.046875 
L 14.3125 45.125 
Q 16.9375 48.6875 20.0625 50.640625 
Q 24.515625 53.5625 30.515625 53.5625 
Q 39.40625 53.5625 45.609375 46.75 
Q 51.8125 39.9375 51.8125 27.296875 
Q 51.8125 10.203125 42.875 2.875 
Q 37.203125 -1.765625 29.6875 -1.765625 
Q 23.78125 -1.765625 19.78125 0.828125 
Q 17.4375 2.296875 14.546875 5.859375 
L 14.546875 -20.84375 
L 5.765625 -20.84375 
z
" id="Helvetica-112"/>
      <path d="M 13.1875 13.921875 
Q 13.1875 10.109375 15.96875 7.90625 
Q 18.75 5.71875 22.5625 5.71875 
Q 27.203125 5.71875 31.546875 7.859375 
Q 38.875 11.421875 38.875 19.53125 
L 38.875 26.609375 
Q 37.25 25.59375 34.703125 24.90625 
Q 32.171875 24.21875 29.734375 23.921875 
L 24.421875 23.25 
Q 19.625 22.609375 17.234375 21.234375 
Q 13.1875 18.953125 13.1875 13.921875 
z
M 34.46875 31.6875 
Q 37.5 32.078125 38.53125 34.234375 
Q 39.109375 35.40625 39.109375 37.59375 
Q 39.109375 42.09375 35.90625 44.109375 
Q 32.71875 46.140625 26.765625 46.140625 
Q 19.875 46.140625 17 42.4375 
Q 15.375 40.375 14.890625 36.328125 
L 6.6875 36.328125 
Q 6.9375 46 12.96875 49.78125 
Q 19 53.5625 26.953125 53.5625 
Q 36.1875 53.5625 41.9375 50.046875 
Q 47.65625 46.53125 47.65625 39.109375 
L 47.65625 8.984375 
Q 47.65625 7.625 48.21875 6.78125 
Q 48.78125 5.953125 50.59375 5.953125 
Q 51.171875 5.953125 51.90625 6.03125 
Q 52.640625 6.109375 53.46875 6.25 
L 53.46875 -0.25 
Q 51.421875 -0.828125 50.34375 -0.96875 
Q 49.265625 -1.125 47.40625 -1.125 
Q 42.875 -1.125 40.828125 2.09375 
Q 39.75 3.8125 39.3125 6.9375 
Q 36.625 3.421875 31.59375 0.828125 
Q 26.5625 -1.765625 20.515625 -1.765625 
Q 13.234375 -1.765625 8.609375 2.65625 
Q 4 7.078125 4 13.71875 
Q 4 21 8.546875 25 
Q 13.09375 29 20.453125 29.9375 
z
M 27.203125 53.5625 
z
" id="Helvetica-97"/>
      <path d="M 6.6875 52.296875 
L 15.046875 52.296875 
L 15.046875 43.265625 
Q 16.0625 45.90625 20.0625 49.6875 
Q 24.078125 53.46875 29.296875 53.46875 
Q 29.546875 53.46875 30.125 53.421875 
Q 30.71875 53.375 32.125 53.21875 
L 32.125 43.953125 
Q 31.34375 44.09375 30.6875 44.140625 
Q 30.03125 44.1875 29.25 44.1875 
Q 22.609375 44.1875 19.046875 39.90625 
Q 15.484375 35.640625 15.484375 30.078125 
L 15.484375 0 
L 6.6875 0 
z
" id="Helvetica-114"/>
      <path d="M 8.203125 66.890625 
L 17.09375 66.890625 
L 17.09375 52.296875 
L 25.4375 52.296875 
L 25.4375 45.125 
L 17.09375 45.125 
L 17.09375 10.984375 
Q 17.09375 8.25 18.953125 7.328125 
Q 19.96875 6.78125 22.359375 6.78125 
Q 23 6.78125 23.734375 6.8125 
Q 24.46875 6.84375 25.4375 6.9375 
L 25.4375 0 
Q 23.921875 -0.4375 22.28125 -0.625 
Q 20.65625 -0.828125 18.75 -0.828125 
Q 12.59375 -0.828125 10.390625 2.3125 
Q 8.203125 5.46875 8.203125 10.5 
L 8.203125 45.125 
L 1.125 45.125 
L 1.125 52.296875 
L 8.203125 52.296875 
z
" id="Helvetica-116"/>
      <path d="M 27.203125 5.671875 
Q 35.9375 5.671875 39.1875 12.28125 
Q 42.4375 18.890625 42.4375 27 
Q 42.4375 34.328125 40.09375 38.921875 
Q 36.375 46.140625 27.296875 46.140625 
Q 19.234375 46.140625 15.578125 39.984375 
Q 11.921875 33.84375 11.921875 25.140625 
Q 11.921875 16.796875 15.578125 11.234375 
Q 19.234375 5.671875 27.203125 5.671875 
z
M 27.546875 53.8125 
Q 37.640625 53.8125 44.625 47.0625 
Q 51.609375 40.328125 51.609375 27.25 
Q 51.609375 14.59375 45.453125 6.34375 
Q 39.3125 -1.90625 26.375 -1.90625 
Q 15.578125 -1.90625 9.21875 5.390625 
Q 2.875 12.703125 2.875 25 
Q 2.875 38.1875 9.5625 46 
Q 16.265625 53.8125 27.546875 53.8125 
z
M 27.25 53.5625 
z
" id="Helvetica-111"/>
      <path d="M 6.453125 52.296875 
L 14.796875 52.296875 
L 14.796875 44.875 
Q 18.5 49.46875 22.65625 51.46875 
Q 26.8125 53.46875 31.890625 53.46875 
Q 43.015625 53.46875 46.921875 45.703125 
Q 49.078125 41.453125 49.078125 33.546875 
L 49.078125 0 
L 40.140625 0 
L 40.140625 32.953125 
Q 40.140625 37.75 38.71875 40.671875 
Q 36.375 45.5625 30.21875 45.5625 
Q 27.09375 45.5625 25.09375 44.921875 
Q 21.484375 43.84375 18.75 40.625 
Q 16.546875 38.03125 15.890625 35.265625 
Q 15.234375 32.515625 15.234375 27.390625 
L 15.234375 0 
L 6.453125 0 
z
M 27.09375 53.5625 
z
" id="Helvetica-110"/>
      <path id="Helvetica-32"/>
      <path d="M 13.96875 23.140625 
Q 14.3125 17.046875 16.84375 13.234375 
Q 21.6875 6.109375 33.890625 6.109375 
Q 39.359375 6.109375 43.84375 7.671875 
Q 52.546875 10.6875 52.546875 18.5 
Q 52.546875 24.359375 48.875 26.859375 
Q 45.171875 29.296875 37.25 31.109375 
L 27.546875 33.296875 
Q 18.015625 35.453125 14.0625 38.03125 
Q 7.234375 42.53125 7.234375 51.46875 
Q 7.234375 61.140625 13.921875 67.328125 
Q 20.609375 73.53125 32.859375 73.53125 
Q 44.140625 73.53125 52.015625 68.078125 
Q 59.90625 62.640625 59.90625 50.6875 
L 50.78125 50.6875 
Q 50.046875 56.453125 47.65625 59.515625 
Q 43.21875 65.140625 32.5625 65.140625 
Q 23.96875 65.140625 20.203125 61.515625 
Q 16.453125 57.90625 16.453125 53.125 
Q 16.453125 47.859375 20.84375 45.40625 
Q 23.734375 43.84375 33.890625 41.5 
L 43.953125 39.203125 
Q 51.21875 37.546875 55.171875 34.671875 
Q 62.015625 29.640625 62.015625 20.0625 
Q 62.015625 8.15625 53.34375 3.03125 
Q 44.671875 -2.09375 33.203125 -2.09375 
Q 19.828125 -2.09375 12.25 4.734375 
Q 4.6875 11.53125 4.828125 23.140625 
z
M 33.59375 73.6875 
z
" id="Helvetica-83"/>
      <path d="M 2.546875 6.9375 
L 33.546875 44.4375 
L 4.828125 44.4375 
L 4.828125 52.296875 
L 45.359375 52.296875 
L 45.359375 45.125 
L 14.546875 7.859375 
L 46.296875 7.859375 
L 46.296875 0 
L 2.546875 0 
z
M 25.140625 53.5625 
z
" id="Helvetica-122"/>
      <path d="M 28.21875 53.46875 
Q 33.796875 53.46875 39.015625 50.859375 
Q 44.234375 48.25 46.96875 44.09375 
Q 49.609375 40.140625 50.484375 34.859375 
Q 51.265625 31.25 51.265625 23.34375 
L 12.9375 23.34375 
Q 13.1875 15.375 16.703125 10.5625 
Q 20.21875 5.765625 27.59375 5.765625 
Q 34.46875 5.765625 38.578125 10.296875 
Q 40.921875 12.9375 41.890625 16.40625 
L 50.53125 16.40625 
Q 50.203125 13.53125 48.265625 9.984375 
Q 46.34375 6.453125 43.953125 4.203125 
Q 39.9375 0.296875 34.03125 -1.078125 
Q 30.859375 -1.859375 26.859375 -1.859375 
Q 17.09375 -1.859375 10.296875 5.25 
Q 3.515625 12.359375 3.515625 25.140625 
Q 3.515625 37.75 10.34375 45.609375 
Q 17.1875 53.46875 28.21875 53.46875 
z
M 42.234375 30.328125 
Q 41.703125 36.03125 39.75 39.453125 
Q 36.140625 45.796875 27.6875 45.796875 
Q 21.625 45.796875 17.515625 41.421875 
Q 13.421875 37.0625 13.1875 30.328125 
z
M 27.390625 53.5625 
z
" id="Helvetica-101"/>
     </defs>
     <g transform="translate(97.76107 137.701763)scale(0.08 -0.08)">
      <use transform="translate(0 0.3125)" xlink:href="#Helvetica-66"/>
      <use transform="translate(66.699219 0.3125)" xlink:href="#Helvetica-105"/>
      <use transform="translate(88.916016 0.3125)" xlink:href="#Helvetica-112"/>
      <use transform="translate(144.53125 0.3125)" xlink:href="#Helvetica-97"/>
      <use transform="translate(200.146484 0.3125)" xlink:href="#Helvetica-114"/>
      <use transform="translate(233.447266 0.3125)" xlink:href="#Helvetica-116"/>
      <use transform="translate(261.230469 0.3125)" xlink:href="#Helvetica-105"/>
      <use transform="translate(283.447266 0.3125)" xlink:href="#Helvetica-116"/>
      <use transform="translate(311.230469 0.3125)" xlink:href="#Helvetica-105"/>
      <use transform="translate(333.447266 0.3125)" xlink:href="#Helvetica-111"/>
      <use transform="translate(389.0625 0.3125)" xlink:href="#Helvetica-110"/>
      <use transform="translate(444.677734 0.3125)" xlink:href="#Helvetica-32"/>
      <use transform="translate(472.460938 0.3125)" xlink:href="#Helvetica-83"/>
      <use transform="translate(539.160156 0.3125)" xlink:href="#Helvetica-105"/>
      <use transform="translate(561.376953 0.3125)" xlink:href="#Helvetica-122"/>
      <use transform="translate(611.376953 0.3125)" xlink:href="#Helvetica-101"/>
      <use transform="translate(666.992188 0.3125)" xlink:href="#Helvetica-32"/>
      <use transform="translate(694.775391 0.3125)" xlink:href="#Helvetica-32"/>
      <use transform="translate(722.558594 0.3125)" xlink:href="#Helvetica-110"/>
     </g>
    </g>
   </g>
   <g id="matplotlib.axis_2">
    <g id="ytick_1">
     <g id="line2d_7">
      <defs>
       <path d="M 0 0 
L -2 0 
" id="m3ccfb3f3e4" style="stroke:#000000;stroke-width:0.35;"/>
      </defs>
      <g>
       <use style="stroke:#000000;stroke-width:0.35;" x="30.88875" xlink:href="#m3ccfb3f3e4" y="117.375513"/>
      </g>
     </g>
     <g id="text_8">
      <!-- 0.00 -->
      <defs>
       <path d="M 27.046875 69.921875 
Q 40.625 69.921875 46.6875 58.734375 
Q 51.375 50.09375 51.375 35.0625 
Q 51.375 20.796875 47.125 11.46875 
Q 40.96875 -1.90625 27 -1.90625 
Q 14.40625 -1.90625 8.25 9.03125 
Q 3.125 18.171875 3.125 33.546875 
Q 3.125 45.453125 6.203125 54 
Q 11.96875 69.921875 27.046875 69.921875 
z
M 26.953125 6.109375 
Q 33.796875 6.109375 37.84375 12.15625 
Q 41.890625 18.21875 41.890625 34.71875 
Q 41.890625 46.625 38.953125 54.3125 
Q 36.03125 62.015625 27.59375 62.015625 
Q 19.828125 62.015625 16.234375 54.703125 
Q 12.640625 47.40625 12.640625 33.203125 
Q 12.640625 22.515625 14.9375 16.015625 
Q 18.453125 6.109375 26.953125 6.109375 
z
" id="Helvetica-48"/>
       <path d="M 8.546875 10.640625 
L 18.75 10.640625 
L 18.75 0 
L 8.546875 0 
z
" id="Helvetica-46"/>
      </defs>
      <g transform="translate(10.32 120.244888)scale(0.08 -0.08)">
       <use xlink:href="#Helvetica-48"/>
       <use x="55.615234" xlink:href="#Helvetica-46"/>
       <use x="83.398438" xlink:href="#Helvetica-48"/>
       <use x="139.013672" xlink:href="#Helvetica-48"/>
      </g>
     </g>
    </g>
    <g id="ytick_2">
     <g id="line2d_8">
      <g>
       <use style="stroke:#000000;stroke-width:0.35;" x="30.88875" xlink:href="#m3ccfb3f3e4" y="88.928978"/>
      </g>
     </g>
     <g id="text_9">
      <!-- 0.02 -->
      <g transform="translate(10.32 91.798353)scale(0.08 -0.08)">
       <use xlink:href="#Helvetica-48"/>
       <use x="55.615234" xlink:href="#Helvetica-46"/>
       <use x="83.398438" xlink:href="#Helvetica-48"/>
       <use x="139.013672" xlink:href="#Helvetica-50"/>
      </g>
     </g>
    </g>
    <g id="ytick_3">
     <g id="line2d_9">
      <g>
       <use style="stroke:#000000;stroke-width:0.35;" x="30.88875" xlink:href="#m3ccfb3f3e4" y="60.482444"/>
      </g>
     </g>
     <g id="text_10">
      <!-- 0.04 -->
      <g transform="translate(10.32 63.351819)scale(0.08 -0.08)">
       <use xlink:href="#Helvetica-48"/>
       <use x="55.615234" xlink:href="#Helvetica-46"/>
       <use x="83.398438" xlink:href="#Helvetica-48"/>
       <use x="139.013672" xlink:href="#Helvetica-52"/>
      </g>
     </g>
    </g>
    <g id="ytick_4">
     <g id="line2d_10">
      <g>
       <use style="stroke:#000000;stroke-width:0.35;" x="30.88875" xlink:href="#m3ccfb3f3e4" y="32.035909"/>
      </g>
     </g>
     <g id="text_11">
      <!-- 0.06 -->
      <g transform="translate(10.32 34.905284)scale(0.08 -0.08)">
       <use xlink:href="#Helvetica-48"/>
       <use x="55.615234" xlink:href="#Helvetica-46"/>
       <use x="83.398438" xlink:href="#Helvetica-48"/>
       <use x="139.013672" xlink:href="#Helvetica-54"/>
      </g>
     </g>
    </g>
    <g id="ytick_5">
     <g id="line2d_11">
      <g>
       <use style="stroke:#000000;stroke-width:0.35;" x="30.88875" xlink:href="#m3ccfb3f3e4" y="3.589375"/>
      </g>
     </g>
     <g id="text_12">
      <!-- 0.08 -->
      <defs>
       <path d="M 27.203125 40.625 
Q 33.015625 40.625 36.28125 43.875 
Q 39.546875 47.125 39.546875 51.609375 
Q 39.546875 55.515625 36.421875 58.78125 
Q 33.296875 62.0625 26.90625 62.0625 
Q 20.5625 62.0625 17.71875 58.78125 
Q 14.890625 55.515625 14.890625 51.125 
Q 14.890625 46.1875 18.546875 43.40625 
Q 22.21875 40.625 27.203125 40.625 
z
M 27.734375 6 
Q 33.84375 6 37.859375 9.296875 
Q 41.890625 12.59375 41.890625 19.140625 
Q 41.890625 25.921875 37.734375 29.4375 
Q 33.59375 32.953125 27.09375 32.953125 
Q 20.796875 32.953125 16.8125 29.359375 
Q 12.84375 25.78125 12.84375 19.4375 
Q 12.84375 13.96875 16.484375 9.984375 
Q 20.125 6 27.734375 6 
z
M 15.234375 37.25 
Q 11.578125 38.8125 9.515625 40.921875 
Q 5.671875 44.828125 5.671875 51.078125 
Q 5.671875 58.890625 11.328125 64.5 
Q 17 70.125 27.390625 70.125 
Q 37.453125 70.125 43.15625 64.8125 
Q 48.875 59.515625 48.875 52.4375 
Q 48.875 45.90625 45.5625 41.84375 
Q 43.703125 39.546875 39.796875 37.359375 
Q 44.140625 35.359375 46.625 32.765625 
Q 51.265625 27.875 51.265625 20.0625 
Q 51.265625 10.84375 45.0625 4.421875 
Q 38.875 -2 27.546875 -2 
Q 17.328125 -2 10.265625 3.53125 
Q 3.21875 9.078125 3.21875 19.625 
Q 3.21875 25.828125 6.25 30.34375 
Q 9.28125 34.859375 15.234375 37.25 
z
" id="Helvetica-56"/>
      </defs>
      <g transform="translate(10.32 6.45875)scale(0.08 -0.08)">
       <use xlink:href="#Helvetica-48"/>
       <use x="55.615234" xlink:href="#Helvetica-46"/>
       <use x="83.398438" xlink:href="#Helvetica-48"/>
       <use x="139.013672" xlink:href="#Helvetica-56"/>
      </g>
     </g>
    </g>
    <g id="text_13">
     <!-- $\Delta S(t\to\infty;n)/n$ -->
     <defs>
      <path d="M 14.40625 7.8125 
L 57.375 7.8125 
L 35.59375 61.578125 
z
M 30.71875 70.609375 
L 41.109375 70.609375 
L 70.21875 0 
L 2 0 
z
" id="Helvetica-916"/>
      <path d="M 29.59375 72.90625 
Q 21.921875 58.015625 19.625 50.984375 
Q 16.15625 40.28125 16.15625 26.265625 
Q 16.15625 12.109375 20.125 0.390625 
Q 22.5625 -6.84375 29.734375 -20.40625 
L 23.828125 -20.40625 
Q 16.703125 -9.28125 14.984375 -6.203125 
Q 13.28125 -3.125 11.28125 2.15625 
Q 8.546875 9.375 7.46875 17.578125 
Q 6.9375 21.828125 6.9375 25.6875 
Q 6.9375 40.140625 11.46875 51.421875 
Q 14.359375 58.59375 23.484375 72.90625 
z
" id="Helvetica-40"/>
      <path d="M 7.515625 23 
Q 6.6875 23 6.140625 23.625 
Q 5.609375 24.265625 5.609375 25 
Q 5.609375 25.734375 6.140625 26.359375 
Q 6.6875 27 7.515625 27 
L 83.40625 27 
Q 79.59375 29.734375 76.65625 33.328125 
Q 73.734375 36.921875 71.78125 41.046875 
Q 69.828125 45.171875 69 49.8125 
Q 69 51.125 70.015625 51.125 
L 72.015625 51.125 
Q 72.359375 51.125 72.625 50.828125 
Q 72.90625 50.53125 73 50.203125 
Q 73.828125 45.90625 75.609375 42.21875 
Q 77.390625 38.53125 80.078125 35.34375 
Q 82.765625 32.171875 86.078125 29.875 
Q 89.40625 27.59375 93.609375 26.125 
Q 94.28125 25.6875 94.28125 25 
Q 94.28125 24.21875 93.609375 24.03125 
Q 88.375 22.21875 84.03125 18.625 
Q 79.6875 15.046875 76.859375 10.1875 
Q 74.03125 5.328125 73 -0.203125 
Q 72.90625 -0.53125 72.609375 -0.828125 
Q 72.3125 -1.125 72.015625 -1.125 
L 70.015625 -1.125 
Q 69 -1.125 69 0.203125 
Q 70.265625 7.03125 74.0625 13.0625 
Q 77.875 19.09375 83.40625 23 
z
" id="Cmsy10-33"/>
      <path d="M 60.9375 35.984375 
Q 60.9375 40.71875 58.375 43.890625 
Q 55.8125 47.078125 51.3125 47.078125 
Q 46.828125 47.078125 43.265625 42.28125 
Q 39.703125 37.5 39.703125 35.984375 
Q 39.703125 34.375 43.328125 29.3125 
Q 46.96875 24.265625 51.375 24.265625 
Q 55.765625 24.265625 58.34375 27.578125 
Q 60.9375 30.90625 60.9375 35.984375 
z
M 9.71875 35.40625 
Q 9.71875 29.890625 12.546875 26.984375 
Q 15.375 24.078125 18.953125 24.078125 
Q 23.4375 24.078125 27.34375 29.421875 
Q 31.25 34.765625 31.25 36.421875 
Q 31.25 37.546875 27.015625 42.375 
Q 22.796875 47.21875 18.5 47.21875 
Q 14.796875 47.21875 12.25 43.984375 
Q 9.71875 40.765625 9.71875 35.40625 
z
M 34.71875 27.390625 
Q 32.234375 23.1875 29.734375 20.953125 
Q 25.046875 16.703125 18.890625 16.703125 
Q 11.421875 16.703125 6.734375 22.015625 
Q 2.046875 27.34375 2.046875 35.84375 
Q 2.046875 43.703125 6.53125 49.3125 
Q 11.03125 54.9375 18.703125 54.9375 
Q 23.640625 54.9375 27.5625 51.953125 
Q 31.5 48.96875 34.8125 42.4375 
Q 38.03125 48.296875 41.015625 50.921875 
Q 45.515625 55.03125 51.90625 55.03125 
Q 59.671875 55.03125 64.015625 49.234375 
Q 68.359375 43.453125 68.359375 35.984375 
Q 68.359375 28.328125 64.078125 22.515625 
Q 59.8125 16.703125 52.203125 16.703125 
Q 46.296875 16.703125 42.140625 20.453125 
Q 38.421875 23.6875 35.75 29.15625 
z
" id="Helvetica-8734"/>
      <path d="M 11.078125 -10.203125 
Q 14.5 -9.578125 15.828125 -5.671875 
Q 16.5 -3.609375 16.5 -1.171875 
Q 16.5 -0.921875 16.46875 -0.75 
Q 16.453125 -0.59375 16.40625 0 
L 11.078125 0 
L 11.078125 10.640625 
L 21.484375 10.640625 
L 21.484375 0.78125 
Q 21.484375 -4.4375 19.96875 -7.953125 
Q 17.4375 -13.71875 11.078125 -14.84375 
z
M 11.078125 51.609375 
L 21.484375 51.609375 
L 21.484375 40.96875 
L 11.078125 40.96875 
z
" id="Helvetica-59"/>
      <path d="M 3.46875 -20.40625 
Q 11.234375 -5.28125 13.484375 1.65625 
Q 16.890625 12.15625 16.890625 26.265625 
Q 16.890625 40.375 12.9375 52.09375 
Q 10.5 59.328125 3.328125 72.90625 
L 9.234375 72.90625 
Q 16.75 60.890625 18.328125 58.078125 
Q 19.921875 55.28125 21.78125 50.34375 
Q 24.125 44.234375 25.125 38.28125 
Q 26.125 32.328125 26.125 26.8125 
Q 26.125 12.359375 21.53125 1.03125 
Q 18.65625 -6.25 9.578125 -20.40625 
z
" id="Helvetica-41"/>
      <path d="M 22.75 71.734375 
L 30.171875 71.734375 
L 7.421875 0 
L 0 0 
z
" id="Helvetica-47"/>
     </defs>
     <g transform="translate(6.64 82.620117)rotate(-90)scale(0.08 -0.08)">
      <use transform="translate(0 0.3125)" xlink:href="#Helvetica-916"/>
      <use transform="translate(72.216797 0.3125)" xlink:href="#Helvetica-83"/>
      <use transform="translate(138.916016 0.3125)" xlink:href="#Helvetica-40"/>
      <use transform="translate(172.216797 0.3125)" xlink:href="#Helvetica-116"/>
      <use transform="translate(200 0.3125)" xlink:href="#Cmsy10-33"/>
      <use transform="translate(300 0.3125)" xlink:href="#Helvetica-8734"/>
      <use transform="translate(371.289062 0.3125)" xlink:href="#Helvetica-59"/>
      <use transform="translate(415.732422 0.3125)" xlink:href="#Helvetica-110"/>
      <use transform="translate(471.347656 0.3125)" xlink:href="#Helvetica-41"/>
      <use transform="translate(504.648438 0.3125)" xlink:href="#Helvetica-47"/>
      <use transform="translate(532.431641 0.3125)" xlink:href="#Helvetica-110"/>
     </g>
    </g>
   </g>
   <g id="LineCollection_1">
    <path clip-path="url(#p7ec930b59f)" d="M 39.800779 108.740455 
L 39.800779 108.355051 
" style="fill:none;stroke:#5e4fa2;stroke-width:0.5;"/>
    <path clip-path="url(#p7ec930b59f)" d="M 73.431078 109.425971 
L 73.431078 109.072237 
" style="fill:none;stroke:#5e4fa2;stroke-width:0.5;"/>
    <path clip-path="url(#p7ec930b59f)" d="M 107.061376 110.14014 
L 107.061376 109.819314 
" style="fill:none;stroke:#5e4fa2;stroke-width:0.5;"/>
    <path clip-path="url(#p7ec930b59f)" d="M 140.691674 110.884776 
L 140.691674 110.597998 
" style="fill:none;stroke:#5e4fa2;stroke-width:0.5;"/>
    <path clip-path="url(#p7ec930b59f)" d="M 174.321973 111.660601 
L 174.321973 111.408834 
" style="fill:none;stroke:#5e4fa2;stroke-width:0.5;"/>
    <path clip-path="url(#p7ec930b59f)" d="M 207.952271 112.465853 
L 207.952271 112.249819 
" style="fill:none;stroke:#5e4fa2;stroke-width:0.5;"/>
   </g>
   <g id="LineCollection_2">
    <path clip-path="url(#p7ec930b59f)" d="M 39.800779 109.187943 
L 39.800779 108.893562 
" style="fill:none;stroke:#486cb0;stroke-width:0.5;"/>
    <path clip-path="url(#p7ec930b59f)" d="M 73.431078 109.844149 
L 73.431078 109.574557 
" style="fill:none;stroke:#486cb0;stroke-width:0.5;"/>
    <path clip-path="url(#p7ec930b59f)" d="M 107.061376 110.526215 
L 107.061376 110.282212 
" style="fill:none;stroke:#486cb0;stroke-width:0.5;"/>
    <path clip-path="url(#p7ec930b59f)" d="M 140.691674 111.235533 
L 140.691674 111.017801 
" style="fill:none;stroke:#486cb0;stroke-width:0.5;"/>
    <path clip-path="url(#p7ec930b59f)" d="M 174.321973 111.97241 
L 174.321973 111.781476 
" style="fill:none;stroke:#486cb0;stroke-width:0.5;"/>
    <path clip-path="url(#p7ec930b59f)" d="M 207.952271 112.734786 
L 207.952271 112.571014 
" style="fill:none;stroke:#486cb0;stroke-width:0.5;"/>
   </g>
   <g id="LineCollection_3">
    <path clip-path="url(#p7ec930b59f)" d="M 39.800779 96.205769 
L 39.800779 95.431717 
" style="fill:none;stroke:#3389bd;stroke-width:0.5;"/>
    <path clip-path="url(#p7ec930b59f)" d="M 73.431078 97.829299 
L 73.431078 97.115634 
" style="fill:none;stroke:#3389bd;stroke-width:0.5;"/>
    <path clip-path="url(#p7ec930b59f)" d="M 107.061376 99.538159 
L 107.061376 98.888412 
" style="fill:none;stroke:#3389bd;stroke-width:0.5;"/>
    <path clip-path="url(#p7ec930b59f)" d="M 140.691674 101.338838 
L 140.691674 100.756352 
" style="fill:none;stroke:#3389bd;stroke-width:0.5;"/>
    <path clip-path="url(#p7ec930b59f)" d="M 174.321973 103.234543 
L 174.321973 102.722239 
" style="fill:none;stroke:#3389bd;stroke-width:0.5;"/>
    <path clip-path="url(#p7ec930b59f)" d="M 207.952271 105.220486 
L 207.952271 104.780623 
" style="fill:none;stroke:#3389bd;stroke-width:0.5;"/>
   </g>
   <g id="LineCollection_4">
    <path clip-path="url(#p7ec930b59f)" d="M 39.800779 97.936648 
L 39.800779 97.256379 
" style="fill:none;stroke:#50a9af;stroke-width:0.5;"/>
    <path clip-path="url(#p7ec930b59f)" d="M 73.431078 99.457709 
L 73.431078 98.833161 
" style="fill:none;stroke:#50a9af;stroke-width:0.5;"/>
    <path clip-path="url(#p7ec930b59f)" d="M 107.061376 101.050699 
L 107.061376 100.484152 
" style="fill:none;stroke:#50a9af;stroke-width:0.5;"/>
    <path clip-path="url(#p7ec930b59f)" d="M 140.691674 102.719818 
L 140.691674 102.213337 
" style="fill:none;stroke:#50a9af;stroke-width:0.5;"/>
    <path clip-path="url(#p7ec930b59f)" d="M 174.321973 104.466184 
L 174.321973 104.021498 
" style="fill:none;stroke:#50a9af;stroke-width:0.5;"/>
    <path clip-path="url(#p7ec930b59f)" d="M 207.952271 106.283938 
L 207.952271 105.90235 
" style="fill:none;stroke:#50a9af;stroke-width:0.5;"/>
   </g>
   <g id="LineCollection_5">
    <path clip-path="url(#p7ec930b59f)" d="M 39.800779 47.124618 
L 39.800779 44.528451 
" style="fill:none;stroke:#6bc4a5;stroke-width:0.5;"/>
    <path clip-path="url(#p7ec930b59f)" d="M 73.431078 52.059291 
L 73.431078 49.635157 
" style="fill:none;stroke:#6bc4a5;stroke-width:0.5;"/>
    <path clip-path="url(#p7ec930b59f)" d="M 107.061376 57.39906 
L 107.061376 55.167681 
" style="fill:none;stroke:#6bc4a5;stroke-width:0.5;"/>
    <path clip-path="url(#p7ec930b59f)" d="M 140.691674 63.181794 
L 140.691674 61.16408 
" style="fill:none;stroke:#6bc4a5;stroke-width:0.5;"/>
    <path clip-path="url(#p7ec930b59f)" d="M 174.321973 69.427994 
L 174.321973 67.643487 
" style="fill:none;stroke:#6bc4a5;stroke-width:0.5;"/>
    <path clip-path="url(#p7ec930b59f)" d="M 207.952271 76.113233 
L 207.952271 74.5781 
" style="fill:none;stroke:#6bc4a5;stroke-width:0.5;"/>
   </g>
   <g id="LineCollection_6">
    <path clip-path="url(#p7ec930b59f)" d="M 39.800779 5.129974 
L 39.800779 1.622207 
" style="fill:none;stroke:#91d3a4;stroke-width:0.5;"/>
    <path clip-path="url(#p7ec930b59f)" d="M 73.431078 13.038737 
L 73.431078 9.804718 
" style="fill:none;stroke:#91d3a4;stroke-width:0.5;"/>
    <path clip-path="url(#p7ec930b59f)" d="M 107.061376 21.591261 
L 107.061376 18.646106 
" style="fill:none;stroke:#91d3a4;stroke-width:0.5;"/>
    <path clip-path="url(#p7ec930b59f)" d="M 140.691674 30.857647 
L 140.691674 28.216387 
" style="fill:none;stroke:#91d3a4;stroke-width:0.5;"/>
    <path clip-path="url(#p7ec930b59f)" d="M 174.321973 40.864368 
L 174.321973 38.540542 
" style="fill:none;stroke:#91d3a4;stroke-width:0.5;"/>
    <path clip-path="url(#p7ec930b59f)" d="M 207.952271 51.548434 
L 207.952271 49.552891 
" style="fill:none;stroke:#91d3a4;stroke-width:0.5;"/>
   </g>
   <g id="line2d_12">
    <path clip-path="url(#p7ec930b59f)" d="M 39.800779 108.547753 
L 73.431078 109.249104 
L 107.061376 109.979727 
L 140.691674 110.741387 
L 174.321973 111.534718 
L 207.952271 112.357836 
" style="fill:none;stroke:#5e4fa2;stroke-dasharray:1.85,0.8;stroke-dashoffset:0;stroke-linecap:round;stroke-width:0.5;"/>
    <defs>
     <path d="M 0 1.5 
C 0.397805 1.5 0.77937 1.341951 1.06066 1.06066 
C 1.341951 0.77937 1.5 0.397805 1.5 0 
C 1.5 -0.397805 1.341951 -0.77937 1.06066 -1.06066 
C 0.77937 -1.341951 0.397805 -1.5 0 -1.5 
C -0.397805 -1.5 -0.77937 -1.341951 -1.06066 -1.06066 
C -1.341951 -0.77937 -1.5 -0.397805 -1.5 0 
C -1.5 0.397805 -1.341951 0.77937 -1.06066 1.06066 
C -0.77937 1.341951 -0.397805 1.5 0 1.5 
z
" id="m079d460c4a" style="stroke:#5e4fa2;stroke-width:0.5;"/>
    </defs>
    <g clip-path="url(#p7ec930b59f)">
     <use style="fill:#aea6d0;stroke:#5e4fa2;stroke-width:0.5;" x="39.800779" xlink:href="#m079d460c4a" y="108.547753"/>
     <use style="fill:#aea6d0;stroke:#5e4fa2;stroke-width:0.5;" x="73.431078" xlink:href="#m079d460c4a" y="109.249104"/>
     <use style="fill:#aea6d0;stroke:#5e4fa2;stroke-width:0.5;" x="107.061376" xlink:href="#m079d460c4a" y="109.979727"/>
     <use style="fill:#aea6d0;stroke:#5e4fa2;stroke-width:0.5;" x="140.691674" xlink:href="#m079d460c4a" y="110.741387"/>
     <use style="fill:#aea6d0;stroke:#5e4fa2;stroke-width:0.5;" x="174.321973" xlink:href="#m079d460c4a" y="111.534718"/>
     <use style="fill:#aea6d0;stroke:#5e4fa2;stroke-width:0.5;" x="207.952271" xlink:href="#m079d460c4a" y="112.357836"/>
    </g>
   </g>
   <g id="line2d_13">
    <path clip-path="url(#p7ec930b59f)" d="M 39.800779 109.040753 
L 73.431078 109.709353 
L 107.061376 110.404213 
L 140.691674 111.126667 
L 174.321973 111.876943 
L 207.952271 112.6529 
" style="fill:none;stroke:#486cb0;stroke-dasharray:1.85,0.8;stroke-dashoffset:0;stroke-linecap:round;stroke-width:0.5;"/>
    <defs>
     <path d="M 0 1.5 
C 0.397805 1.5 0.77937 1.341951 1.06066 1.06066 
C 1.341951 0.77937 1.5 0.397805 1.5 0 
C 1.5 -0.397805 1.341951 -0.77937 1.06066 -1.06066 
C 0.77937 -1.341951 0.397805 -1.5 0 -1.5 
C -0.397805 -1.5 -0.77937 -1.341951 -1.06066 -1.06066 
C -1.341951 -0.77937 -1.5 -0.397805 -1.5 0 
C -1.5 0.397805 -1.341951 0.77937 -1.06066 1.06066 
C -0.77937 1.341951 -0.397805 1.5 0 1.5 
z
" id="m8c21ad5179" style="stroke:#486cb0;stroke-width:0.5;"/>
    </defs>
    <g clip-path="url(#p7ec930b59f)">
     <use style="fill:#a3b5d7;stroke:#486cb0;stroke-width:0.5;" x="39.800779" xlink:href="#m8c21ad5179" y="109.040753"/>
     <use style="fill:#a3b5d7;stroke:#486cb0;stroke-width:0.5;" x="73.431078" xlink:href="#m8c21ad5179" y="109.709353"/>
     <use style="fill:#a3b5d7;stroke:#486cb0;stroke-width:0.5;" x="107.061376" xlink:href="#m8c21ad5179" y="110.404213"/>
     <use style="fill:#a3b5d7;stroke:#486cb0;stroke-width:0.5;" x="140.691674" xlink:href="#m8c21ad5179" y="111.126667"/>
     <use style="fill:#a3b5d7;stroke:#486cb0;stroke-width:0.5;" x="174.321973" xlink:href="#m8c21ad5179" y="111.876943"/>
     <use style="fill:#a3b5d7;stroke:#486cb0;stroke-width:0.5;" x="207.952271" xlink:href="#m8c21ad5179" y="112.6529"/>
    </g>
   </g>
   <g id="line2d_14">
    <path clip-path="url(#p7ec930b59f)" d="M 39.800779 95.818743 
L 73.431078 97.472467 
L 107.061376 99.213286 
L 140.691674 101.047595 
L 174.321973 102.978391 
L 207.952271 105.000554 
" style="fill:none;stroke:#3389bd;stroke-dasharray:1.85,0.8;stroke-dashoffset:0;stroke-linecap:round;stroke-width:0.5;"/>
    <defs>
     <path d="M 0 1.5 
C 0.397805 1.5 0.77937 1.341951 1.06066 1.06066 
C 1.341951 0.77937 1.5 0.397805 1.5 0 
C 1.5 -0.397805 1.341951 -0.77937 1.06066 -1.06066 
C 0.77937 -1.341951 0.397805 -1.5 0 -1.5 
C -0.397805 -1.5 -0.77937 -1.341951 -1.06066 -1.06066 
C -1.341951 -0.77937 -1.5 -0.397805 -1.5 0 
C -1.5 0.397805 -1.341951 0.77937 -1.06066 1.06066 
C -0.77937 1.341951 -0.397805 1.5 0 1.5 
z
" id="m403a9a30c4" style="stroke:#3389bd;stroke-width:0.5;"/>
    </defs>
    <g clip-path="url(#p7ec930b59f)">
     <use style="fill:#98c3dd;stroke:#3389bd;stroke-width:0.5;" x="39.800779" xlink:href="#m403a9a30c4" y="95.818743"/>
     <use style="fill:#98c3dd;stroke:#3389bd;stroke-width:0.5;" x="73.431078" xlink:href="#m403a9a30c4" y="97.472467"/>
     <use style="fill:#98c3dd;stroke:#3389bd;stroke-width:0.5;" x="107.061376" xlink:href="#m403a9a30c4" y="99.213286"/>
     <use style="fill:#98c3dd;stroke:#3389bd;stroke-width:0.5;" x="140.691674" xlink:href="#m403a9a30c4" y="101.047595"/>
     <use style="fill:#98c3dd;stroke:#3389bd;stroke-width:0.5;" x="174.321973" xlink:href="#m403a9a30c4" y="102.978391"/>
     <use style="fill:#98c3dd;stroke:#3389bd;stroke-width:0.5;" x="207.952271" xlink:href="#m403a9a30c4" y="105.000554"/>
    </g>
   </g>
   <g id="line2d_15">
    <path clip-path="url(#p7ec930b59f)" d="M 39.800779 97.596514 
L 73.431078 99.145435 
L 107.061376 100.767425 
L 140.691674 102.466578 
L 174.321973 104.243841 
L 207.952271 106.093144 
" style="fill:none;stroke:#50a9af;stroke-dasharray:1.85,0.8;stroke-dashoffset:0;stroke-linecap:round;stroke-width:0.5;"/>
    <defs>
     <path d="M 0 1.5 
C 0.397805 1.5 0.77937 1.341951 1.06066 1.06066 
C 1.341951 0.77937 1.5 0.397805 1.5 0 
C 1.5 -0.397805 1.341951 -0.77937 1.06066 -1.06066 
C 0.77937 -1.341951 0.397805 -1.5 0 -1.5 
C -0.397805 -1.5 -0.77937 -1.341951 -1.06066 -1.06066 
C -1.341951 -0.77937 -1.5 -0.397805 -1.5 0 
C -1.5 0.397805 -1.341951 0.77937 -1.06066 1.06066 
C -0.77937 1.341951 -0.397805 1.5 0 1.5 
z
" id="m38c5c4af45" style="stroke:#50a9af;stroke-width:0.5;"/>
    </defs>
    <g clip-path="url(#p7ec930b59f)">
     <use style="fill:#a7d3d6;stroke:#50a9af;stroke-width:0.5;" x="39.800779" xlink:href="#m38c5c4af45" y="97.596514"/>
     <use style="fill:#a7d3d6;stroke:#50a9af;stroke-width:0.5;" x="73.431078" xlink:href="#m38c5c4af45" y="99.145435"/>
     <use style="fill:#a7d3d6;stroke:#50a9af;stroke-width:0.5;" x="107.061376" xlink:href="#m38c5c4af45" y="100.767425"/>
     <use style="fill:#a7d3d6;stroke:#50a9af;stroke-width:0.5;" x="140.691674" xlink:href="#m38c5c4af45" y="102.466578"/>
     <use style="fill:#a7d3d6;stroke:#50a9af;stroke-width:0.5;" x="174.321973" xlink:href="#m38c5c4af45" y="104.243841"/>
     <use style="fill:#a7d3d6;stroke:#50a9af;stroke-width:0.5;" x="207.952271" xlink:href="#m38c5c4af45" y="106.093144"/>
    </g>
   </g>
   <g id="line2d_16">
    <path clip-path="url(#p7ec930b59f)" d="M 39.800779 45.826534 
L 73.431078 50.847224 
L 107.061376 56.28337 
L 140.691674 62.172937 
L 174.321973 68.53574 
L 207.952271 75.345666 
" style="fill:none;stroke:#6bc4a5;stroke-dasharray:1.85,0.8;stroke-dashoffset:0;stroke-linecap:round;stroke-width:0.5;"/>
    <defs>
     <path d="M 0 1.5 
C 0.397805 1.5 0.77937 1.341951 1.06066 1.06066 
C 1.341951 0.77937 1.5 0.397805 1.5 0 
C 1.5 -0.397805 1.341951 -0.77937 1.06066 -1.06066 
C 0.77937 -1.341951 0.397805 -1.5 0 -1.5 
C -0.397805 -1.5 -0.77937 -1.341951 -1.06066 -1.06066 
C -1.341951 -0.77937 -1.5 -0.397805 -1.5 0 
C -1.5 0.397805 -1.341951 0.77937 -1.06066 1.06066 
C -0.77937 1.341951 -0.397805 1.5 0 1.5 
z
" id="mc0bcf4f77f" style="stroke:#6bc4a5;stroke-width:0.5;"/>
    </defs>
    <g clip-path="url(#p7ec930b59f)">
     <use style="fill:#b4e1d1;stroke:#6bc4a5;stroke-width:0.5;" x="39.800779" xlink:href="#mc0bcf4f77f" y="45.826534"/>
     <use style="fill:#b4e1d1;stroke:#6bc4a5;stroke-width:0.5;" x="73.431078" xlink:href="#mc0bcf4f77f" y="50.847224"/>
     <use style="fill:#b4e1d1;stroke:#6bc4a5;stroke-width:0.5;" x="107.061376" xlink:href="#mc0bcf4f77f" y="56.28337"/>
     <use style="fill:#b4e1d1;stroke:#6bc4a5;stroke-width:0.5;" x="140.691674" xlink:href="#mc0bcf4f77f" y="62.172937"/>
     <use style="fill:#b4e1d1;stroke:#6bc4a5;stroke-width:0.5;" x="174.321973" xlink:href="#mc0bcf4f77f" y="68.53574"/>
     <use style="fill:#b4e1d1;stroke:#6bc4a5;stroke-width:0.5;" x="207.952271" xlink:href="#mc0bcf4f77f" y="75.345666"/>
    </g>
   </g>
   <g id="line2d_17">
    <path clip-path="url(#p7ec930b59f)" d="M 39.800779 3.376091 
L 73.431078 11.421728 
L 107.061376 20.118684 
L 140.691674 29.537017 
L 174.321973 39.702455 
L 207.952271 50.550663 
" style="fill:none;stroke:#91d3a4;stroke-dasharray:1.85,0.8;stroke-dashoffset:0;stroke-linecap:round;stroke-width:0.5;"/>
    <defs>
     <path d="M 0 1.5 
C 0.397805 1.5 0.77937 1.341951 1.06066 1.06066 
C 1.341951 0.77937 1.5 0.397805 1.5 0 
C 1.5 -0.397805 1.341951 -0.77937 1.06066 -1.06066 
C 0.77937 -1.341951 0.397805 -1.5 0 -1.5 
C -0.397805 -1.5 -0.77937 -1.341951 -1.06066 -1.06066 
C -1.341951 -0.77937 -1.5 -0.397805 -1.5 0 
C -1.5 0.397805 -1.341951 0.77937 -1.06066 1.06066 
C -0.77937 1.341951 -0.397805 1.5 0 1.5 
z
" id="m9dcb4b28c2" style="stroke:#91d3a4;stroke-width:0.5;"/>
    </defs>
    <g clip-path="url(#p7ec930b59f)">
     <use style="fill:#c7e8d1;stroke:#91d3a4;stroke-width:0.5;" x="39.800779" xlink:href="#m9dcb4b28c2" y="3.376091"/>
     <use style="fill:#c7e8d1;stroke:#91d3a4;stroke-width:0.5;" x="73.431078" xlink:href="#m9dcb4b28c2" y="11.421728"/>
     <use style="fill:#c7e8d1;stroke:#91d3a4;stroke-width:0.5;" x="107.061376" xlink:href="#m9dcb4b28c2" y="20.118684"/>
     <use style="fill:#c7e8d1;stroke:#91d3a4;stroke-width:0.5;" x="140.691674" xlink:href="#m9dcb4b28c2" y="29.537017"/>
     <use style="fill:#c7e8d1;stroke:#91d3a4;stroke-width:0.5;" x="174.321973" xlink:href="#m9dcb4b28c2" y="39.702455"/>
     <use style="fill:#c7e8d1;stroke:#91d3a4;stroke-width:0.5;" x="207.952271" xlink:href="#m9dcb4b28c2" y="50.550663"/>
    </g>
   </g>
   <g id="patch_3">
    <path d="M 30.88875 117.375513 
L 30.88875 0.744722 
" style="fill:none;stroke:#000000;stroke-linecap:square;stroke-linejoin:miter;stroke-width:0.35;"/>
   </g>
   <g id="patch_4">
    <path d="M 226.95339 117.375513 
L 226.95339 0.744722 
" style="fill:none;stroke:#000000;stroke-linecap:square;stroke-linejoin:miter;stroke-width:0.35;"/>
   </g>
   <g id="patch_5">
    <path d="M 30.88875 117.375513 
L 226.95339 117.375513 
" style="fill:none;stroke:#000000;stroke-linecap:square;stroke-linejoin:miter;stroke-width:0.35;"/>
   </g>
   <g id="patch_6">
    <path d="M 30.88875 0.744722 
L 226.95339 0.744722 
" style="fill:none;stroke:#000000;stroke-linecap:square;stroke-linejoin:miter;stroke-width:0.35;"/>
   </g>
   <g id="text_14">
    <!-- N = 12 -->
    <defs>
     <path d="M 7.625 71.734375 
L 19.09375 71.734375 
L 55.328125 13.625 
L 55.328125 71.734375 
L 64.546875 71.734375 
L 64.546875 0 
L 53.65625 0 
L 16.890625 58.0625 
L 16.890625 0 
L 7.625 0 
z
M 35.453125 71.734375 
z
" id="Helvetica-78"/>
     <path d="M 55.421875 40.140625 
L 55.421875 31.9375 
L 4.5 31.9375 
L 4.5 40.140625 
z
M 55.421875 19.1875 
L 55.421875 10.84375 
L 4.5 10.84375 
L 4.5 19.1875 
z
" id="Helvetica-61"/>
    </defs>
    <g transform="translate(195.583048 12.407801)scale(0.08 -0.08)">
     <use xlink:href="#Helvetica-78"/>
     <use x="72.216797" xlink:href="#Helvetica-32"/>
     <use x="100" xlink:href="#Helvetica-61"/>
     <use x="158.398438" xlink:href="#Helvetica-32"/>
     <use x="186.181641" xlink:href="#Helvetica-49"/>
     <use x="241.796875" xlink:href="#Helvetica-50"/>
    </g>
   </g>
   <g id="legend_1">
    <g id="LineCollection_7">
     <path d="M 232.15339 51.009379 
L 232.15339 43.009379 
" style="fill:none;stroke:#91d3a4;stroke-width:0.5;"/>
    </g>
    <g id="line2d_18">
     <path d="M 230.15339 47.009379 
L 234.15339 47.009379 
" style="fill:none;stroke:#91d3a4;stroke-dasharray:1.85,0.8;stroke-dashoffset:0;stroke-linecap:round;stroke-width:0.5;"/>
    </g>
    <g id="line2d_19">
     <g>
      <use style="fill:#c7e8d1;stroke:#91d3a4;stroke-width:0.5;" x="232.15339" xlink:href="#m9dcb4b28c2" y="47.009379"/>
     </g>
    </g>
    <g id="text_15">
     <!-- $V = +0.765$ -->
     <defs>
      <path d="M 13.28125 71.734375 
L 33.890625 10.640625 
L 54.25 71.734375 
L 65.140625 71.734375 
L 38.96875 0 
L 28.65625 0 
L 2.546875 71.734375 
z
" id="Helvetica-86"/>
      <path d="M 4.5 21.390625 
L 4.5 29.59375 
L 25.78125 29.59375 
L 25.78125 51.03125 
L 34.125 51.03125 
L 34.125 29.59375 
L 55.421875 29.59375 
L 55.421875 21.390625 
L 34.125 21.390625 
L 34.125 0 
L 25.78125 0 
L 25.78125 21.390625 
z
" id="Helvetica-43"/>
      <path d="M 52.296875 68.75 
L 52.296875 61.078125 
Q 48.921875 57.8125 43.328125 49.703125 
Q 37.75 41.609375 33.453125 32.234375 
Q 29.203125 23.09375 27 15.578125 
Q 25.59375 10.75 23.34375 0 
L 13.625 0 
Q 16.9375 20.015625 28.265625 39.84375 
Q 34.96875 51.46875 42.328125 59.90625 
L 3.65625 59.90625 
L 3.65625 68.75 
z
" id="Helvetica-55"/>
     </defs>
     <g transform="translate(238.15339 49.809379)scale(0.08 -0.08)">
      <use transform="translate(0 0.265625)" xlink:href="#Helvetica-86"/>
      <use transform="translate(83.359375 0.265625)" xlink:href="#Helvetica-61"/>
      <use transform="translate(175.078125 0.265625)" xlink:href="#Helvetica-43"/>
      <use transform="translate(250.136719 0.265625)" xlink:href="#Helvetica-48"/>
      <use transform="translate(305.751953 0.265625)" xlink:href="#Helvetica-46"/>
      <use transform="translate(333.535156 0.265625)" xlink:href="#Helvetica-55"/>
      <use transform="translate(389.150391 0.265625)" xlink:href="#Helvetica-54"/>
      <use transform="translate(444.765625 0.265625)" xlink:href="#Helvetica-53"/>
     </g>
    </g>
    <g id="LineCollection_8">
     <path d="M 232.15339 64.015629 
L 232.15339 56.015629 
" style="fill:none;stroke:#6bc4a5;stroke-width:0.5;"/>
    </g>
    <g id="line2d_20">
     <path d="M 230.15339 60.015629 
L 234.15339 60.015629 
" style="fill:none;stroke:#6bc4a5;stroke-dasharray:1.85,0.8;stroke-dashoffset:0;stroke-linecap:round;stroke-width:0.5;"/>
    </g>
    <g id="line2d_21">
     <g>
      <use style="fill:#b4e1d1;stroke:#6bc4a5;stroke-width:0.5;" x="232.15339" xlink:href="#mc0bcf4f77f" y="60.015629"/>
     </g>
    </g>
    <g id="text_16">
     <!-- $V = -0.500$ -->
     <defs>
      <path d="M 55.421875 29.59375 
L 55.421875 21.390625 
L 4.5 21.390625 
L 4.5 29.59375 
z
" id="Helvetica-8722"/>
     </defs>
     <g transform="translate(238.15339 62.815629)scale(0.08 -0.08)">
      <use transform="translate(0 0.265625)" xlink:href="#Helvetica-86"/>
      <use transform="translate(83.359375 0.265625)" xlink:href="#Helvetica-61"/>
      <use transform="translate(175.078125 0.265625)" xlink:href="#Helvetica-8722"/>
      <use transform="translate(250.136719 0.265625)" xlink:href="#Helvetica-48"/>
      <use transform="translate(305.751953 0.265625)" xlink:href="#Helvetica-46"/>
      <use transform="translate(333.535156 0.265625)" xlink:href="#Helvetica-53"/>
      <use transform="translate(389.150391 0.265625)" xlink:href="#Helvetica-48"/>
      <use transform="translate(444.765625 0.265625)" xlink:href="#Helvetica-48"/>
     </g>
    </g>
    <g id="LineCollection_9">
     <path d="M 232.15339 77.021879 
L 232.15339 69.021879 
" style="fill:none;stroke:#50a9af;stroke-width:0.5;"/>
    </g>
    <g id="line2d_22">
     <path d="M 230.15339 73.021879 
L 234.15339 73.021879 
" style="fill:none;stroke:#50a9af;stroke-dasharray:1.85,0.8;stroke-dashoffset:0;stroke-linecap:round;stroke-width:0.5;"/>
    </g>
    <g id="line2d_23">
     <g>
      <use style="fill:#a7d3d6;stroke:#50a9af;stroke-width:0.5;" x="232.15339" xlink:href="#m38c5c4af45" y="73.021879"/>
     </g>
    </g>
    <g id="text_17">
     <!-- $V = +0.250$ -->
     <g transform="translate(238.15339 75.821879)scale(0.08 -0.08)">
      <use transform="translate(0 0.265625)" xlink:href="#Helvetica-86"/>
      <use transform="translate(83.359375 0.265625)" xlink:href="#Helvetica-61"/>
      <use transform="translate(175.078125 0.265625)" xlink:href="#Helvetica-43"/>
      <use transform="translate(250.136719 0.265625)" xlink:href="#Helvetica-48"/>
      <use transform="translate(305.751953 0.265625)" xlink:href="#Helvetica-46"/>
      <use transform="translate(333.535156 0.265625)" xlink:href="#Helvetica-50"/>
      <use transform="translate(389.150391 0.265625)" xlink:href="#Helvetica-53"/>
      <use transform="translate(444.765625 0.265625)" xlink:href="#Helvetica-48"/>
     </g>
    </g>
    <g id="LineCollection_10">
     <path d="M 232.15339 90.028129 
L 232.15339 82.028129 
" style="fill:none;stroke:#3389bd;stroke-width:0.5;"/>
    </g>
    <g id="line2d_24">
     <path d="M 230.15339 86.028129 
L 234.15339 86.028129 
" style="fill:none;stroke:#3389bd;stroke-dasharray:1.85,0.8;stroke-dashoffset:0;stroke-linecap:round;stroke-width:0.5;"/>
    </g>
    <g id="line2d_25">
     <g>
      <use style="fill:#98c3dd;stroke:#3389bd;stroke-width:0.5;" x="232.15339" xlink:href="#m403a9a30c4" y="86.028129"/>
     </g>
    </g>
    <g id="text_18">
     <!-- $V = -0.250$ -->
     <g transform="translate(238.15339 88.828129)scale(0.08 -0.08)">
      <use transform="translate(0 0.265625)" xlink:href="#Helvetica-86"/>
      <use transform="translate(83.359375 0.265625)" xlink:href="#Helvetica-61"/>
      <use transform="translate(175.078125 0.265625)" xlink:href="#Helvetica-8722"/>
      <use transform="translate(250.136719 0.265625)" xlink:href="#Helvetica-48"/>
      <use transform="translate(305.751953 0.265625)" xlink:href="#Helvetica-46"/>
      <use transform="translate(333.535156 0.265625)" xlink:href="#Helvetica-50"/>
      <use transform="translate(389.150391 0.265625)" xlink:href="#Helvetica-53"/>
      <use transform="translate(444.765625 0.265625)" xlink:href="#Helvetica-48"/>
     </g>
    </g>
    <g id="LineCollection_11">
     <path d="M 232.15339 103.034379 
L 232.15339 95.034379 
" style="fill:none;stroke:#486cb0;stroke-width:0.5;"/>
    </g>
    <g id="line2d_26">
     <path d="M 230.15339 99.034379 
L 234.15339 99.034379 
" style="fill:none;stroke:#486cb0;stroke-dasharray:1.85,0.8;stroke-dashoffset:0;stroke-linecap:round;stroke-width:0.5;"/>
    </g>
    <g id="line2d_27">
     <g>
      <use style="fill:#a3b5d7;stroke:#486cb0;stroke-width:0.5;" x="232.15339" xlink:href="#m8c21ad5179" y="99.034379"/>
     </g>
    </g>
    <g id="text_19">
     <!-- $V = +0.150$ -->
     <g transform="translate(238.15339 101.834379)scale(0.08 -0.08)">
      <use transform="translate(0 0.265625)" xlink:href="#Helvetica-86"/>
      <use transform="translate(83.359375 0.265625)" xlink:href="#Helvetica-61"/>
      <use transform="translate(175.078125 0.265625)" xlink:href="#Helvetica-43"/>
      <use transform="translate(250.136719 0.265625)" xlink:href="#Helvetica-48"/>
      <use transform="translate(305.751953 0.265625)" xlink:href="#Helvetica-46"/>
      <use transform="translate(333.535156 0.265625)" xlink:href="#Helvetica-49"/>
      <use transform="translate(389.150391 0.265625)" xlink:href="#Helvetica-53"/>
      <use transform="translate(444.765625 0.265625)" xlink:href="#Helvetica-48"/>
     </g>
    </g>
    <g id="LineCollection_12">
     <path d="M 232.15339 116.040629 
L 232.15339 108.040629 
" style="fill:none;stroke:#5e4fa2;stroke-width:0.5;"/>
    </g>
    <g id="line2d_28">
     <path d="M 230.15339 112.040629 
L 234.15339 112.040629 
" style="fill:none;stroke:#5e4fa2;stroke-dasharray:1.85,0.8;stroke-dashoffset:0;stroke-linecap:round;stroke-width:0.5;"/>
    </g>
    <g id="line2d_29">
     <g>
      <use style="fill:#aea6d0;stroke:#5e4fa2;stroke-width:0.5;" x="232.15339" xlink:href="#m079d460c4a" y="112.040629"/>
     </g>
    </g>
    <g id="text_20">
     <!-- $V = -0.150$ -->
     <g transform="translate(238.15339 114.840629)scale(0.08 -0.08)">
      <use transform="translate(0 0.265625)" xlink:href="#Helvetica-86"/>
      <use transform="translate(83.359375 0.265625)" xlink:href="#Helvetica-61"/>
      <use transform="translate(175.078125 0.265625)" xlink:href="#Helvetica-8722"/>
      <use transform="translate(250.136719 0.265625)" xlink:href="#Helvetica-48"/>
      <use transform="translate(305.751953 0.265625)" xlink:href="#Helvetica-46"/>
      <use transform="translate(333.535156 0.265625)" xlink:href="#Helvetica-49"/>
      <use transform="translate(389.150391 0.265625)" xlink:href="#Helvetica-53"/>
      <use transform="translate(444.765625 0.265625)" xlink:href="#Helvetica-48"/>
     </g>
    </g>
   </g>
  </g>
 </g>
 <defs>
  <clipPath id="p7ec930b59f">
   <rect height="116.630791" width="196.06464" x="30.88875" y="0.744722"/>
  </clipPath>
 </defs>
</svg>
