<?xml version="1.0" encoding="utf-8" standalone="no"?>
<!DOCTYPE svg PUBLIC "-//W3C//DTD SVG 1.1//EN"
  "http://www.w3.org/Graphics/SVG/1.1/DTD/svg11.dtd">
<!-- Created with matplotlib (https://matplotlib.org/) -->
<svg height="139.883291pt" version="1.1" viewBox="0 0 232.28214 139.883291" width="232.28214pt" xmlns="http://www.w3.org/2000/svg" xmlns:xlink="http://www.w3.org/1999/xlink">
 <defs>
  <style type="text/css">
*{stroke-linecap:butt;stroke-linejoin:round;}
  </style>
 </defs>
 <g id="figure_1">
  <g id="patch_1">
   <path d="M 0 139.883291 
L 232.28214 139.883291 
L 232.28214 0 
L 0 0 
z
" style="fill:none;"/>
  </g>
  <g id="axes_1">
   <g id="patch_2">
    <path d="M 35.4975 117.350791 
L 231.56214 117.350791 
L 231.56214 0.72 
L 35.4975 0.72 
z
" style="fill:none;"/>
   </g>
   <g id="matplotlib.axis_1">
    <g id="xtick_1">
     <g id="line2d_1">
      <defs>
       <path d="M 0 0 
L 0 2 
" id="m2f4c2e2947" style="stroke:#000000;stroke-width:0.35;"/>
      </defs>
      <g>
       <use style="stroke:#000000;stroke-width:0.35;" x="35.4975" xlink:href="#m2f4c2e2947" y="117.350791"/>
      </g>
     </g>
     <g id="text_1">
      <!-- 0 -->
      <defs>
       <path d="M 27.046875 69.921875 
Q 40.625 69.921875 46.6875 58.734375 
Q 51.375 50.09375 51.375 35.0625 
Q 51.375 20.796875 47.125 11.46875 
Q 40.96875 -1.90625 27 -1.90625 
Q 14.40625 -1.90625 8.25 9.03125 
Q 3.125 18.171875 3.125 33.546875 
Q 3.125 45.453125 6.203125 54 
Q 11.96875 69.921875 27.046875 69.921875 
z
M 26.953125 6.109375 
Q 33.796875 6.109375 37.84375 12.15625 
Q 41.890625 18.21875 41.890625 34.71875 
Q 41.890625 46.625 38.953125 54.3125 
Q 36.03125 62.015625 27.59375 62.015625 
Q 19.828125 62.015625 16.234375 54.703125 
Q 12.640625 47.40625 12.640625 33.203125 
Q 12.640625 22.515625 14.9375 16.015625 
Q 18.453125 6.109375 26.953125 6.109375 
z
" id="Helvetica-48"/>
      </defs>
      <g transform="translate(33.273125 128.089541)scale(0.08 -0.08)">
       <use xlink:href="#Helvetica-48"/>
      </g>
     </g>
    </g>
    <g id="xtick_2">
     <g id="line2d_2">
      <g>
       <use style="stroke:#000000;stroke-width:0.35;" x="70.384447" xlink:href="#m2f4c2e2947" y="117.350791"/>
      </g>
     </g>
     <g id="text_2">
      <!-- 5 -->
      <defs>
       <path d="M 12.359375 17.828125 
Q 13.234375 10.296875 19.34375 7.421875 
Q 22.46875 5.953125 26.5625 5.953125 
Q 34.375 5.953125 38.125 10.9375 
Q 41.890625 15.921875 41.890625 21.96875 
Q 41.890625 29.296875 37.421875 33.296875 
Q 32.953125 37.3125 26.703125 37.3125 
Q 22.171875 37.3125 18.921875 35.546875 
Q 15.671875 33.796875 13.375 30.671875 
L 5.765625 31.109375 
L 11.078125 68.75 
L 47.40625 68.75 
L 47.40625 60.25 
L 17.671875 60.25 
L 14.703125 40.828125 
Q 17.140625 42.671875 19.34375 43.609375 
Q 23.25 45.21875 28.375 45.21875 
Q 37.984375 45.21875 44.671875 39.015625 
Q 51.375 32.8125 51.375 23.296875 
Q 51.375 13.375 45.234375 5.796875 
Q 39.109375 -1.765625 25.6875 -1.765625 
Q 17.140625 -1.765625 10.5625 3.046875 
Q 4 7.859375 3.21875 17.828125 
z
" id="Helvetica-53"/>
      </defs>
      <g transform="translate(68.160072 128.089541)scale(0.08 -0.08)">
       <use xlink:href="#Helvetica-53"/>
      </g>
     </g>
    </g>
    <g id="xtick_3">
     <g id="line2d_3">
      <g>
       <use style="stroke:#000000;stroke-width:0.35;" x="105.271393" xlink:href="#m2f4c2e2947" y="117.350791"/>
      </g>
     </g>
     <g id="text_3">
      <!-- 10 -->
      <defs>
       <path d="M 9.578125 49.515625 
L 9.578125 56.25 
Q 19.09375 57.171875 22.84375 59.34375 
Q 26.609375 61.53125 28.46875 69.625 
L 35.40625 69.625 
L 35.40625 0 
L 26.03125 0 
L 26.03125 49.515625 
z
" id="Helvetica-49"/>
      </defs>
      <g transform="translate(100.822643 128.089541)scale(0.08 -0.08)">
       <use xlink:href="#Helvetica-49"/>
       <use x="55.615234" xlink:href="#Helvetica-48"/>
      </g>
     </g>
    </g>
    <g id="xtick_4">
     <g id="line2d_4">
      <g>
       <use style="stroke:#000000;stroke-width:0.35;" x="140.15834" xlink:href="#m2f4c2e2947" y="117.350791"/>
      </g>
     </g>
     <g id="text_4">
      <!-- 15 -->
      <g transform="translate(135.70959 128.089541)scale(0.08 -0.08)">
       <use xlink:href="#Helvetica-49"/>
       <use x="55.615234" xlink:href="#Helvetica-53"/>
      </g>
     </g>
    </g>
    <g id="xtick_5">
     <g id="line2d_5">
      <g>
       <use style="stroke:#000000;stroke-width:0.35;" x="175.045286" xlink:href="#m2f4c2e2947" y="117.350791"/>
      </g>
     </g>
     <g id="text_5">
      <!-- 20 -->
      <defs>
       <path d="M 3.125 0 
Q 3.609375 9.03125 6.859375 15.71875 
Q 10.109375 22.40625 19.53125 27.875 
L 28.90625 33.296875 
Q 35.203125 36.96875 37.75 39.546875 
Q 41.75 43.609375 41.75 48.828125 
Q 41.75 54.9375 38.078125 58.515625 
Q 34.421875 62.109375 28.328125 62.109375 
Q 19.28125 62.109375 15.828125 55.28125 
Q 13.96875 51.609375 13.765625 45.125 
L 4.828125 45.125 
Q 4.984375 54.25 8.203125 60.015625 
Q 13.921875 70.171875 28.375 70.171875 
Q 40.375 70.171875 45.921875 63.671875 
Q 51.46875 57.171875 51.46875 49.21875 
Q 51.46875 40.828125 45.5625 34.859375 
Q 42.140625 31.390625 33.296875 26.46875 
L 26.609375 22.75 
Q 21.828125 20.125 19.09375 17.71875 
Q 14.203125 13.484375 12.9375 8.296875 
L 51.125 8.296875 
L 51.125 0 
L 3.125 0 
z
" id="Helvetica-50"/>
      </defs>
      <g transform="translate(170.596536 128.089541)scale(0.08 -0.08)">
       <use xlink:href="#Helvetica-50"/>
       <use x="55.615234" xlink:href="#Helvetica-48"/>
      </g>
     </g>
    </g>
    <g id="xtick_6">
     <g id="line2d_6">
      <g>
       <use style="stroke:#000000;stroke-width:0.35;" x="209.932233" xlink:href="#m2f4c2e2947" y="117.350791"/>
      </g>
     </g>
     <g id="text_6">
      <!-- 25 -->
      <g transform="translate(205.483483 128.089541)scale(0.08 -0.08)">
       <use xlink:href="#Helvetica-50"/>
       <use x="55.615234" xlink:href="#Helvetica-53"/>
      </g>
     </g>
    </g>
    <g id="text_7">
     <!-- Time   $t\cdot J$ -->
     <defs>
      <path d="M 59.8125 71.734375 
L 59.8125 63.1875 
L 35.640625 63.1875 
L 35.640625 0 
L 25.78125 0 
L 25.78125 63.1875 
L 1.609375 63.1875 
L 1.609375 71.734375 
z
" id="Helvetica-84"/>
      <path d="M 6.453125 52.046875 
L 15.375 52.046875 
L 15.375 0 
L 6.453125 0 
z
M 6.453125 71.734375 
L 15.375 71.734375 
L 15.375 61.765625 
L 6.453125 61.765625 
z
" id="Helvetica-105"/>
      <path d="M 6.453125 52.296875 
L 15.140625 52.296875 
L 15.140625 44.875 
Q 18.265625 48.734375 20.796875 50.484375 
Q 25.140625 53.46875 30.671875 53.46875 
Q 36.921875 53.46875 40.71875 50.390625 
Q 42.875 48.640625 44.625 45.21875 
Q 47.5625 49.421875 51.515625 51.4375 
Q 55.46875 53.46875 60.40625 53.46875 
Q 70.953125 53.46875 74.75 45.84375 
Q 76.8125 41.75 76.8125 34.8125 
L 76.8125 0 
L 67.671875 0 
L 67.671875 36.328125 
Q 67.671875 41.546875 65.0625 43.5 
Q 62.453125 45.453125 58.6875 45.453125 
Q 53.515625 45.453125 49.78125 41.984375 
Q 46.046875 38.53125 46.046875 30.421875 
L 46.046875 0 
L 37.109375 0 
L 37.109375 34.125 
Q 37.109375 39.453125 35.84375 41.890625 
Q 33.84375 45.5625 28.375 45.5625 
Q 23.390625 45.5625 19.3125 41.703125 
Q 15.234375 37.84375 15.234375 27.734375 
L 15.234375 0 
L 6.453125 0 
z
" id="Helvetica-109"/>
      <path d="M 28.21875 53.46875 
Q 33.796875 53.46875 39.015625 50.859375 
Q 44.234375 48.25 46.96875 44.09375 
Q 49.609375 40.140625 50.484375 34.859375 
Q 51.265625 31.25 51.265625 23.34375 
L 12.9375 23.34375 
Q 13.1875 15.375 16.703125 10.5625 
Q 20.21875 5.765625 27.59375 5.765625 
Q 34.46875 5.765625 38.578125 10.296875 
Q 40.921875 12.9375 41.890625 16.40625 
L 50.53125 16.40625 
Q 50.203125 13.53125 48.265625 9.984375 
Q 46.34375 6.453125 43.953125 4.203125 
Q 39.9375 0.296875 34.03125 -1.078125 
Q 30.859375 -1.859375 26.859375 -1.859375 
Q 17.09375 -1.859375 10.296875 5.25 
Q 3.515625 12.359375 3.515625 25.140625 
Q 3.515625 37.75 10.34375 45.609375 
Q 17.1875 53.46875 28.21875 53.46875 
z
M 42.234375 30.328125 
Q 41.703125 36.03125 39.75 39.453125 
Q 36.140625 45.796875 27.6875 45.796875 
Q 21.625 45.796875 17.515625 41.421875 
Q 13.421875 37.0625 13.1875 30.328125 
z
M 27.390625 53.5625 
z
" id="Helvetica-101"/>
      <path id="Helvetica-32"/>
      <path d="M 8.203125 66.890625 
L 17.09375 66.890625 
L 17.09375 52.296875 
L 25.4375 52.296875 
L 25.4375 45.125 
L 17.09375 45.125 
L 17.09375 10.984375 
Q 17.09375 8.25 18.953125 7.328125 
Q 19.96875 6.78125 22.359375 6.78125 
Q 23 6.78125 23.734375 6.8125 
Q 24.46875 6.84375 25.4375 6.9375 
L 25.4375 0 
Q 23.921875 -0.4375 22.28125 -0.625 
Q 20.65625 -0.828125 18.75 -0.828125 
Q 12.59375 -0.828125 10.390625 2.3125 
Q 8.203125 5.46875 8.203125 10.5 
L 8.203125 45.125 
L 1.125 45.125 
L 1.125 52.296875 
L 8.203125 52.296875 
z
" id="Helvetica-116"/>
      <path d="M 8.40625 25 
Q 8.40625 26.421875 9.125 27.6875 
Q 9.859375 28.953125 11.15625 29.734375 
Q 12.453125 30.515625 13.921875 30.515625 
Q 15.328125 30.515625 16.625 29.734375 
Q 17.921875 28.953125 18.65625 27.6875 
Q 19.390625 26.421875 19.390625 25 
Q 19.390625 22.75 17.796875 21.109375 
Q 16.21875 19.484375 13.921875 19.484375 
Q 11.671875 19.484375 10.03125 21.109375 
Q 8.40625 22.75 8.40625 25 
z
" id="Cmsy10-162"/>
      <path d="M 42.828125 21.390625 
Q 42.828125 12.3125 40.140625 7.28125 
Q 35.15625 -1.90625 21.1875 -1.90625 
Q 13.140625 -1.90625 7.421875 2.46875 
Q 1.703125 6.84375 1.703125 18.015625 
L 1.703125 23.140625 
L 10.84375 23.140625 
L 10.84375 18.015625 
Q 10.84375 12.15625 13.453125 9.203125 
Q 16.0625 6.25 21.578125 6.25 
Q 29.34375 6.25 31.734375 11.578125 
Q 33.203125 14.84375 33.203125 23.921875 
L 33.203125 71.734375 
L 42.828125 71.734375 
z
" id="Helvetica-74"/>
     </defs>
     <g transform="translate(115.72982 137.495791)scale(0.08 -0.08)">
      <use transform="translate(0 0.265625)" xlink:href="#Helvetica-84"/>
      <use transform="translate(61.083984 0.265625)" xlink:href="#Helvetica-105"/>
      <use transform="translate(83.300781 0.265625)" xlink:href="#Helvetica-109"/>
      <use transform="translate(166.601562 0.265625)" xlink:href="#Helvetica-101"/>
      <use transform="translate(222.216797 0.265625)" xlink:href="#Helvetica-32"/>
      <use transform="translate(250 0.265625)" xlink:href="#Helvetica-32"/>
      <use transform="translate(277.783203 0.265625)" xlink:href="#Helvetica-32"/>
      <use transform="translate(305.566406 0.265625)" xlink:href="#Helvetica-116"/>
      <use transform="translate(350.009766 0.265625)" xlink:href="#Cmsy10-162"/>
      <use transform="translate(394.355469 0.265625)" xlink:href="#Helvetica-74"/>
     </g>
    </g>
   </g>
   <g id="matplotlib.axis_2">
    <g id="ytick_1">
     <g id="line2d_7">
      <defs>
       <path d="M 0 0 
L -2 0 
" id="m4ef78acd4d" style="stroke:#000000;stroke-width:0.35;"/>
      </defs>
      <g>
       <use style="stroke:#000000;stroke-width:0.35;" x="35.4975" xlink:href="#m4ef78acd4d" y="117.350791"/>
      </g>
     </g>
     <g id="text_8">
      <!-- 0.000 -->
      <defs>
       <path d="M 8.546875 10.640625 
L 18.75 10.640625 
L 18.75 0 
L 8.546875 0 
z
" id="Helvetica-46"/>
      </defs>
      <g transform="translate(10.48 120.220166)scale(0.08 -0.08)">
       <use xlink:href="#Helvetica-48"/>
       <use x="55.615234" xlink:href="#Helvetica-46"/>
       <use x="83.398438" xlink:href="#Helvetica-48"/>
       <use x="139.013672" xlink:href="#Helvetica-48"/>
       <use x="194.628906" xlink:href="#Helvetica-48"/>
      </g>
     </g>
    </g>
    <g id="ytick_2">
     <g id="line2d_8">
      <g>
       <use style="stroke:#000000;stroke-width:0.35;" x="35.4975" xlink:href="#m4ef78acd4d" y="97.067175"/>
      </g>
     </g>
     <g id="text_9">
      <!-- 0.002 -->
      <g transform="translate(10.48 99.93655)scale(0.08 -0.08)">
       <use xlink:href="#Helvetica-48"/>
       <use x="55.615234" xlink:href="#Helvetica-46"/>
       <use x="83.398438" xlink:href="#Helvetica-48"/>
       <use x="139.013672" xlink:href="#Helvetica-48"/>
       <use x="194.628906" xlink:href="#Helvetica-50"/>
      </g>
     </g>
    </g>
    <g id="ytick_3">
     <g id="line2d_9">
      <g>
       <use style="stroke:#000000;stroke-width:0.35;" x="35.4975" xlink:href="#m4ef78acd4d" y="76.783559"/>
      </g>
     </g>
     <g id="text_10">
      <!-- 0.004 -->
      <defs>
       <path d="M 33.0625 24.75 
L 33.0625 56.453125 
L 10.640625 24.75 
z
M 33.203125 0 
L 33.203125 17.09375 
L 2.546875 17.09375 
L 2.546875 25.6875 
L 34.578125 70.125 
L 42 70.125 
L 42 24.75 
L 52.296875 24.75 
L 52.296875 17.09375 
L 42 17.09375 
L 42 0 
z
" id="Helvetica-52"/>
      </defs>
      <g transform="translate(10.48 79.652934)scale(0.08 -0.08)">
       <use xlink:href="#Helvetica-48"/>
       <use x="55.615234" xlink:href="#Helvetica-46"/>
       <use x="83.398438" xlink:href="#Helvetica-48"/>
       <use x="139.013672" xlink:href="#Helvetica-48"/>
       <use x="194.628906" xlink:href="#Helvetica-52"/>
      </g>
     </g>
    </g>
    <g id="ytick_4">
     <g id="line2d_10">
      <g>
       <use style="stroke:#000000;stroke-width:0.35;" x="35.4975" xlink:href="#m4ef78acd4d" y="56.499944"/>
      </g>
     </g>
     <g id="text_11">
      <!-- 0.006 -->
      <defs>
       <path d="M 29.25 70.21875 
Q 40.96875 70.21875 45.578125 64.140625 
Q 50.203125 58.0625 50.203125 51.609375 
L 41.5 51.609375 
Q 40.71875 55.765625 39.015625 58.109375 
Q 35.84375 62.5 29.390625 62.5 
Q 22.015625 62.5 17.671875 55.6875 
Q 13.328125 48.875 12.84375 36.1875 
Q 15.875 40.625 20.453125 42.828125 
Q 24.65625 44.78125 29.828125 44.78125 
Q 38.625 44.78125 45.15625 39.15625 
Q 51.703125 33.546875 51.703125 22.40625 
Q 51.703125 12.890625 45.5 5.53125 
Q 39.3125 -1.8125 27.828125 -1.8125 
Q 18.015625 -1.8125 10.890625 5.640625 
Q 3.765625 13.09375 3.765625 30.71875 
Q 3.765625 43.75 6.9375 52.828125 
Q 13.03125 70.21875 29.25 70.21875 
z
M 28.609375 6 
Q 35.546875 6 38.984375 10.65625 
Q 42.4375 15.328125 42.4375 21.6875 
Q 42.4375 27.046875 39.359375 31.90625 
Q 36.28125 36.765625 28.171875 36.765625 
Q 22.515625 36.765625 18.234375 33 
Q 13.96875 29.25 13.96875 21.6875 
Q 13.96875 15.046875 17.84375 10.515625 
Q 21.734375 6 28.609375 6 
z
" id="Helvetica-54"/>
      </defs>
      <g transform="translate(10.48 59.369319)scale(0.08 -0.08)">
       <use xlink:href="#Helvetica-48"/>
       <use x="55.615234" xlink:href="#Helvetica-46"/>
       <use x="83.398438" xlink:href="#Helvetica-48"/>
       <use x="139.013672" xlink:href="#Helvetica-48"/>
       <use x="194.628906" xlink:href="#Helvetica-54"/>
      </g>
     </g>
    </g>
    <g id="ytick_5">
     <g id="line2d_11">
      <g>
       <use style="stroke:#000000;stroke-width:0.35;" x="35.4975" xlink:href="#m4ef78acd4d" y="36.216328"/>
      </g>
     </g>
     <g id="text_12">
      <!-- 0.008 -->
      <defs>
       <path d="M 27.203125 40.625 
Q 33.015625 40.625 36.28125 43.875 
Q 39.546875 47.125 39.546875 51.609375 
Q 39.546875 55.515625 36.421875 58.78125 
Q 33.296875 62.0625 26.90625 62.0625 
Q 20.5625 62.0625 17.71875 58.78125 
Q 14.890625 55.515625 14.890625 51.125 
Q 14.890625 46.1875 18.546875 43.40625 
Q 22.21875 40.625 27.203125 40.625 
z
M 27.734375 6 
Q 33.84375 6 37.859375 9.296875 
Q 41.890625 12.59375 41.890625 19.140625 
Q 41.890625 25.921875 37.734375 29.4375 
Q 33.59375 32.953125 27.09375 32.953125 
Q 20.796875 32.953125 16.8125 29.359375 
Q 12.84375 25.78125 12.84375 19.4375 
Q 12.84375 13.96875 16.484375 9.984375 
Q 20.125 6 27.734375 6 
z
M 15.234375 37.25 
Q 11.578125 38.8125 9.515625 40.921875 
Q 5.671875 44.828125 5.671875 51.078125 
Q 5.671875 58.890625 11.328125 64.5 
Q 17 70.125 27.390625 70.125 
Q 37.453125 70.125 43.15625 64.8125 
Q 48.875 59.515625 48.875 52.4375 
Q 48.875 45.90625 45.5625 41.84375 
Q 43.703125 39.546875 39.796875 37.359375 
Q 44.140625 35.359375 46.625 32.765625 
Q 51.265625 27.875 51.265625 20.0625 
Q 51.265625 10.84375 45.0625 4.421875 
Q 38.875 -2 27.546875 -2 
Q 17.328125 -2 10.265625 3.53125 
Q 3.21875 9.078125 3.21875 19.625 
Q 3.21875 25.828125 6.25 30.34375 
Q 9.28125 34.859375 15.234375 37.25 
z
" id="Helvetica-56"/>
      </defs>
      <g transform="translate(10.48 39.085703)scale(0.08 -0.08)">
       <use xlink:href="#Helvetica-48"/>
       <use x="55.615234" xlink:href="#Helvetica-46"/>
       <use x="83.398438" xlink:href="#Helvetica-48"/>
       <use x="139.013672" xlink:href="#Helvetica-48"/>
       <use x="194.628906" xlink:href="#Helvetica-56"/>
      </g>
     </g>
    </g>
    <g id="ytick_6">
     <g id="line2d_12">
      <g>
       <use style="stroke:#000000;stroke-width:0.35;" x="35.4975" xlink:href="#m4ef78acd4d" y="15.932712"/>
      </g>
     </g>
     <g id="text_13">
      <!-- 0.010 -->
      <g transform="translate(10.48 18.802087)scale(0.08 -0.08)">
       <use xlink:href="#Helvetica-48"/>
       <use x="55.615234" xlink:href="#Helvetica-46"/>
       <use x="83.398438" xlink:href="#Helvetica-48"/>
       <use x="139.013672" xlink:href="#Helvetica-49"/>
       <use x="194.628906" xlink:href="#Helvetica-48"/>
      </g>
     </g>
    </g>
    <g id="text_14">
     <!-- Entanglement Entropy  $\Delta S(t) / n$ -->
     <defs>
      <path d="M 8.546875 71.734375 
L 60.84375 71.734375 
L 60.84375 62.9375 
L 18.015625 62.9375 
L 18.015625 41.15625 
L 57.625 41.15625 
L 57.625 32.859375 
L 18.015625 32.859375 
L 18.015625 8.546875 
L 61.578125 8.546875 
L 61.578125 0 
L 8.546875 0 
z
M 35.0625 71.734375 
z
" id="Helvetica-69"/>
      <path d="M 6.453125 52.296875 
L 14.796875 52.296875 
L 14.796875 44.875 
Q 18.5 49.46875 22.65625 51.46875 
Q 26.8125 53.46875 31.890625 53.46875 
Q 43.015625 53.46875 46.921875 45.703125 
Q 49.078125 41.453125 49.078125 33.546875 
L 49.078125 0 
L 40.140625 0 
L 40.140625 32.953125 
Q 40.140625 37.75 38.71875 40.671875 
Q 36.375 45.5625 30.21875 45.5625 
Q 27.09375 45.5625 25.09375 44.921875 
Q 21.484375 43.84375 18.75 40.625 
Q 16.546875 38.03125 15.890625 35.265625 
Q 15.234375 32.515625 15.234375 27.390625 
L 15.234375 0 
L 6.453125 0 
z
M 27.09375 53.5625 
z
" id="Helvetica-110"/>
      <path d="M 13.1875 13.921875 
Q 13.1875 10.109375 15.96875 7.90625 
Q 18.75 5.71875 22.5625 5.71875 
Q 27.203125 5.71875 31.546875 7.859375 
Q 38.875 11.421875 38.875 19.53125 
L 38.875 26.609375 
Q 37.25 25.59375 34.703125 24.90625 
Q 32.171875 24.21875 29.734375 23.921875 
L 24.421875 23.25 
Q 19.625 22.609375 17.234375 21.234375 
Q 13.1875 18.953125 13.1875 13.921875 
z
M 34.46875 31.6875 
Q 37.5 32.078125 38.53125 34.234375 
Q 39.109375 35.40625 39.109375 37.59375 
Q 39.109375 42.09375 35.90625 44.109375 
Q 32.71875 46.140625 26.765625 46.140625 
Q 19.875 46.140625 17 42.4375 
Q 15.375 40.375 14.890625 36.328125 
L 6.6875 36.328125 
Q 6.9375 46 12.96875 49.78125 
Q 19 53.5625 26.953125 53.5625 
Q 36.1875 53.5625 41.9375 50.046875 
Q 47.65625 46.53125 47.65625 39.109375 
L 47.65625 8.984375 
Q 47.65625 7.625 48.21875 6.78125 
Q 48.78125 5.953125 50.59375 5.953125 
Q 51.171875 5.953125 51.90625 6.03125 
Q 52.640625 6.109375 53.46875 6.25 
L 53.46875 -0.25 
Q 51.421875 -0.828125 50.34375 -0.96875 
Q 49.265625 -1.125 47.40625 -1.125 
Q 42.875 -1.125 40.828125 2.09375 
Q 39.75 3.8125 39.3125 6.9375 
Q 36.625 3.421875 31.59375 0.828125 
Q 26.5625 -1.765625 20.515625 -1.765625 
Q 13.234375 -1.765625 8.609375 2.65625 
Q 4 7.078125 4 13.71875 
Q 4 21 8.546875 25 
Q 13.09375 29 20.453125 29.9375 
z
M 27.203125 53.5625 
z
" id="Helvetica-97"/>
      <path d="M 24.90625 53.21875 
Q 31.0625 53.21875 35.640625 50.203125 
Q 38.140625 48.484375 40.71875 45.21875 
L 40.71875 51.8125 
L 48.828125 51.8125 
L 48.828125 4.25 
Q 48.828125 -5.71875 45.90625 -11.46875 
Q 40.4375 -22.125 25.25 -22.125 
Q 16.796875 -22.125 11.03125 -18.328125 
Q 5.28125 -14.546875 4.59375 -6.5 
L 13.53125 -6.5 
Q 14.15625 -10.015625 16.0625 -11.921875 
Q 19.046875 -14.84375 25.4375 -14.84375 
Q 35.546875 -14.84375 38.671875 -7.71875 
Q 40.53125 -3.515625 40.375 7.28125 
Q 37.75 3.265625 34.03125 1.3125 
Q 30.328125 -0.640625 24.21875 -0.640625 
Q 15.71875 -0.640625 9.34375 5.390625 
Q 2.984375 11.421875 2.984375 25.34375 
Q 2.984375 38.484375 9.40625 45.84375 
Q 15.828125 53.21875 24.90625 53.21875 
z
M 40.71875 26.375 
Q 40.71875 36.078125 36.71875 40.765625 
Q 32.71875 45.453125 26.515625 45.453125 
Q 17.234375 45.453125 13.8125 36.765625 
Q 12.015625 32.125 12.015625 24.609375 
Q 12.015625 15.765625 15.59375 11.15625 
Q 19.1875 6.546875 25.25 6.546875 
Q 34.71875 6.546875 38.578125 15.09375 
Q 40.71875 19.921875 40.71875 26.375 
z
M 25.921875 53.5625 
z
" id="Helvetica-103"/>
      <path d="M 6.6875 71.734375 
L 15.484375 71.734375 
L 15.484375 0 
L 6.6875 0 
z
" id="Helvetica-108"/>
      <path d="M 6.6875 52.296875 
L 15.046875 52.296875 
L 15.046875 43.265625 
Q 16.0625 45.90625 20.0625 49.6875 
Q 24.078125 53.46875 29.296875 53.46875 
Q 29.546875 53.46875 30.125 53.421875 
Q 30.71875 53.375 32.125 53.21875 
L 32.125 43.953125 
Q 31.34375 44.09375 30.6875 44.140625 
Q 30.03125 44.1875 29.25 44.1875 
Q 22.609375 44.1875 19.046875 39.90625 
Q 15.484375 35.640625 15.484375 30.078125 
L 15.484375 0 
L 6.6875 0 
z
" id="Helvetica-114"/>
      <path d="M 27.203125 5.671875 
Q 35.9375 5.671875 39.1875 12.28125 
Q 42.4375 18.890625 42.4375 27 
Q 42.4375 34.328125 40.09375 38.921875 
Q 36.375 46.140625 27.296875 46.140625 
Q 19.234375 46.140625 15.578125 39.984375 
Q 11.921875 33.84375 11.921875 25.140625 
Q 11.921875 16.796875 15.578125 11.234375 
Q 19.234375 5.671875 27.203125 5.671875 
z
M 27.546875 53.8125 
Q 37.640625 53.8125 44.625 47.0625 
Q 51.609375 40.328125 51.609375 27.25 
Q 51.609375 14.59375 45.453125 6.34375 
Q 39.3125 -1.90625 26.375 -1.90625 
Q 15.578125 -1.90625 9.21875 5.390625 
Q 2.875 12.703125 2.875 25 
Q 2.875 38.1875 9.5625 46 
Q 16.265625 53.8125 27.546875 53.8125 
z
M 27.25 53.5625 
z
" id="Helvetica-111"/>
      <path d="M 28.515625 5.90625 
Q 34.671875 5.90625 38.75 11.0625 
Q 42.828125 16.21875 42.828125 26.46875 
Q 42.828125 32.71875 41.015625 37.203125 
Q 37.59375 45.84375 28.515625 45.84375 
Q 19.390625 45.84375 16.015625 36.71875 
Q 14.203125 31.84375 14.203125 24.3125 
Q 14.203125 18.265625 16.015625 14.015625 
Q 19.4375 5.90625 28.515625 5.90625 
z
M 5.765625 52.046875 
L 14.3125 52.046875 
L 14.3125 45.125 
Q 16.9375 48.6875 20.0625 50.640625 
Q 24.515625 53.5625 30.515625 53.5625 
Q 39.40625 53.5625 45.609375 46.75 
Q 51.8125 39.9375 51.8125 27.296875 
Q 51.8125 10.203125 42.875 2.875 
Q 37.203125 -1.765625 29.6875 -1.765625 
Q 23.78125 -1.765625 19.78125 0.828125 
Q 17.4375 2.296875 14.546875 5.859375 
L 14.546875 -20.84375 
L 5.765625 -20.84375 
z
" id="Helvetica-112"/>
      <path d="M 39.109375 52.296875 
L 48.828125 52.296875 
Q 46.96875 47.265625 40.578125 29.34375 
Q 35.796875 15.875 32.5625 7.375 
Q 24.953125 -12.640625 21.828125 -17.03125 
Q 18.703125 -21.4375 11.078125 -21.4375 
Q 9.234375 -21.4375 8.234375 -21.28125 
Q 7.234375 -21.140625 5.765625 -20.75 
L 5.765625 -12.75 
Q 8.0625 -13.375 9.078125 -13.515625 
Q 10.109375 -13.671875 10.890625 -13.671875 
Q 13.328125 -13.671875 14.46875 -12.859375 
Q 15.625 -12.0625 16.40625 -10.890625 
Q 16.65625 -10.5 18.15625 -6.875 
Q 19.671875 -3.265625 20.359375 -1.515625 
L 1.03125 52.296875 
L 10.984375 52.296875 
L 25 9.71875 
z
M 24.953125 53.5625 
z
" id="Helvetica-121"/>
      <path d="M 14.40625 7.8125 
L 57.375 7.8125 
L 35.59375 61.578125 
z
M 30.71875 70.609375 
L 41.109375 70.609375 
L 70.21875 0 
L 2 0 
z
" id="Helvetica-916"/>
      <path d="M 13.96875 23.140625 
Q 14.3125 17.046875 16.84375 13.234375 
Q 21.6875 6.109375 33.890625 6.109375 
Q 39.359375 6.109375 43.84375 7.671875 
Q 52.546875 10.6875 52.546875 18.5 
Q 52.546875 24.359375 48.875 26.859375 
Q 45.171875 29.296875 37.25 31.109375 
L 27.546875 33.296875 
Q 18.015625 35.453125 14.0625 38.03125 
Q 7.234375 42.53125 7.234375 51.46875 
Q 7.234375 61.140625 13.921875 67.328125 
Q 20.609375 73.53125 32.859375 73.53125 
Q 44.140625 73.53125 52.015625 68.078125 
Q 59.90625 62.640625 59.90625 50.6875 
L 50.78125 50.6875 
Q 50.046875 56.453125 47.65625 59.515625 
Q 43.21875 65.140625 32.5625 65.140625 
Q 23.96875 65.140625 20.203125 61.515625 
Q 16.453125 57.90625 16.453125 53.125 
Q 16.453125 47.859375 20.84375 45.40625 
Q 23.734375 43.84375 33.890625 41.5 
L 43.953125 39.203125 
Q 51.21875 37.546875 55.171875 34.671875 
Q 62.015625 29.640625 62.015625 20.0625 
Q 62.015625 8.15625 53.34375 3.03125 
Q 44.671875 -2.09375 33.203125 -2.09375 
Q 19.828125 -2.09375 12.25 4.734375 
Q 4.6875 11.53125 4.828125 23.140625 
z
M 33.59375 73.6875 
z
" id="Helvetica-83"/>
      <path d="M 29.59375 72.90625 
Q 21.921875 58.015625 19.625 50.984375 
Q 16.15625 40.28125 16.15625 26.265625 
Q 16.15625 12.109375 20.125 0.390625 
Q 22.5625 -6.84375 29.734375 -20.40625 
L 23.828125 -20.40625 
Q 16.703125 -9.28125 14.984375 -6.203125 
Q 13.28125 -3.125 11.28125 2.15625 
Q 8.546875 9.375 7.46875 17.578125 
Q 6.9375 21.828125 6.9375 25.6875 
Q 6.9375 40.140625 11.46875 51.421875 
Q 14.359375 58.59375 23.484375 72.90625 
z
" id="Helvetica-40"/>
      <path d="M 3.46875 -20.40625 
Q 11.234375 -5.28125 13.484375 1.65625 
Q 16.890625 12.15625 16.890625 26.265625 
Q 16.890625 40.375 12.9375 52.09375 
Q 10.5 59.328125 3.328125 72.90625 
L 9.234375 72.90625 
Q 16.75 60.890625 18.328125 58.078125 
Q 19.921875 55.28125 21.78125 50.34375 
Q 24.125 44.234375 25.125 38.28125 
Q 26.125 32.328125 26.125 26.8125 
Q 26.125 12.359375 21.53125 1.03125 
Q 18.65625 -6.25 9.578125 -20.40625 
z
" id="Helvetica-41"/>
      <path d="M 22.75 71.734375 
L 30.171875 71.734375 
L 7.421875 0 
L 0 0 
z
" id="Helvetica-47"/>
     </defs>
     <g transform="translate(6.64 113.515396)rotate(-90)scale(0.08 -0.08)">
      <use transform="translate(0 0.3125)" xlink:href="#Helvetica-69"/>
      <use transform="translate(66.699219 0.3125)" xlink:href="#Helvetica-110"/>
      <use transform="translate(122.314453 0.3125)" xlink:href="#Helvetica-116"/>
      <use transform="translate(150.097656 0.3125)" xlink:href="#Helvetica-97"/>
      <use transform="translate(205.712891 0.3125)" xlink:href="#Helvetica-110"/>
      <use transform="translate(261.328125 0.3125)" xlink:href="#Helvetica-103"/>
      <use transform="translate(316.943359 0.3125)" xlink:href="#Helvetica-108"/>
      <use transform="translate(339.160156 0.3125)" xlink:href="#Helvetica-101"/>
      <use transform="translate(394.775391 0.3125)" xlink:href="#Helvetica-109"/>
      <use transform="translate(478.076172 0.3125)" xlink:href="#Helvetica-101"/>
      <use transform="translate(533.691406 0.3125)" xlink:href="#Helvetica-110"/>
      <use transform="translate(589.306641 0.3125)" xlink:href="#Helvetica-116"/>
      <use transform="translate(617.089844 0.3125)" xlink:href="#Helvetica-32"/>
      <use transform="translate(644.873047 0.3125)" xlink:href="#Helvetica-69"/>
      <use transform="translate(711.572266 0.3125)" xlink:href="#Helvetica-110"/>
      <use transform="translate(767.1875 0.3125)" xlink:href="#Helvetica-116"/>
      <use transform="translate(794.970703 0.3125)" xlink:href="#Helvetica-114"/>
      <use transform="translate(828.271484 0.3125)" xlink:href="#Helvetica-111"/>
      <use transform="translate(883.886719 0.3125)" xlink:href="#Helvetica-112"/>
      <use transform="translate(939.501953 0.3125)" xlink:href="#Helvetica-121"/>
      <use transform="translate(989.501953 0.3125)" xlink:href="#Helvetica-32"/>
      <use transform="translate(1017.285156 0.3125)" xlink:href="#Helvetica-32"/>
      <use transform="translate(1045.068359 0.3125)" xlink:href="#Helvetica-916"/>
      <use transform="translate(1117.285156 0.3125)" xlink:href="#Helvetica-83"/>
      <use transform="translate(1183.984375 0.3125)" xlink:href="#Helvetica-40"/>
      <use transform="translate(1217.285156 0.3125)" xlink:href="#Helvetica-116"/>
      <use transform="translate(1245.068359 0.3125)" xlink:href="#Helvetica-41"/>
      <use transform="translate(1278.369141 0.3125)" xlink:href="#Helvetica-47"/>
      <use transform="translate(1306.152344 0.3125)" xlink:href="#Helvetica-110"/>
     </g>
    </g>
   </g>
   <g id="line2d_13">
    <path clip-path="url(#p06ba3c63f9)" d="M 35.4975 117.350791 
L 36.195239 111.088383 
L 36.892978 96.615643 
L 38.986195 40.364886 
L 39.683934 26.636502 
L 40.381673 18.102439 
L 41.079411 14.910745 
L 41.77715 16.308852 
L 42.474889 20.870616 
L 43.870367 32.335405 
L 44.568106 36.122697 
L 45.265845 37.607663 
L 45.963584 36.978048 
L 46.661323 34.89999 
L 48.056801 29.676539 
L 48.75454 27.859749 
L 49.452279 27.026211 
L 50.150018 27.158814 
L 50.847757 28.02019 
L 52.940973 31.523884 
L 53.638712 32.106333 
L 54.336451 32.239295 
L 55.03419 31.984646 
L 57.825146 30.000905 
L 59.220624 29.749395 
L 60.616102 29.852148 
L 62.709318 30.415505 
L 64.104796 30.72416 
L 64.802535 30.658033 
L 66.895752 29.853056 
L 67.593491 29.836651 
L 68.29123 30.070205 
L 68.988969 30.519643 
L 70.384447 31.815792 
L 71.082186 32.676015 
L 71.779924 33.827625 
L 72.477663 35.416635 
L 73.175402 37.557289 
L 73.873141 40.314465 
L 74.57088 43.707112 
L 75.966358 52.314724 
L 78.757314 72.931705 
L 79.455053 76.718016 
L 80.152792 78.84646 
L 80.850531 78.826613 
L 81.54827 76.367582 
L 82.246008 71.422288 
L 82.943747 64.19604 
L 84.339225 44.848761 
L 85.734703 23.923866 
L 86.432442 15.048329 
L 87.130181 8.328015 
L 87.82792 4.377238 
L 88.525659 3.539449 
L 89.223398 5.82762 
L 89.921137 10.898199 
L 91.316615 26.351137 
L 92.712092 41.609942 
L 93.409831 46.375662 
L 94.10757 48.321075 
L 94.805309 47.449794 
L 95.503048 44.266841 
L 96.898526 34.268308 
L 97.596265 29.172798 
L 98.294004 24.951439 
L 98.991743 22.044377 
L 99.689482 20.651167 
L 100.387221 20.747092 
L 101.08496 22.123893 
L 101.782699 24.441004 
L 103.875915 32.76718 
L 104.573654 34.667392 
L 105.271393 35.682224 
L 105.969132 35.751802 
L 106.666871 34.967878 
L 107.36461 33.545577 
L 109.457827 28.526048 
L 110.155566 27.622965 
L 110.853305 27.476484 
L 111.551044 28.15905 
L 112.248783 29.620938 
L 112.946521 31.706071 
L 116.435216 44.022452 
L 117.830694 48.300765 
L 119.226172 53.443327 
L 122.017128 65.945298 
L 122.714867 68.045548 
L 123.412605 68.998774 
L 124.110344 68.505161 
L 124.808083 66.415449 
L 125.505822 62.776985 
L 126.203561 57.810641 
L 127.599039 45.262638 
L 129.692256 25.311747 
L 131.087734 14.654458 
L 131.785473 10.8361 
L 132.483212 8.341906 
L 133.180951 7.391241 
L 133.878689 8.147854 
L 134.576428 10.675224 
L 135.274167 14.889071 
L 135.971906 20.519187 
L 138.065123 40.343166 
L 138.762862 45.436109 
L 139.460601 48.561914 
L 140.15834 49.336995 
L 140.856079 47.783446 
L 141.553818 44.290375 
L 142.949296 34.0981 
L 144.344773 24.382025 
L 145.042512 21.115965 
L 145.740251 19.287307 
L 146.43799 18.912957 
L 147.135729 19.834319 
L 147.833468 21.77407 
L 149.228946 27.364534 
L 150.624424 33.156918 
L 151.322163 35.532864 
L 152.019902 37.349463 
L 152.717641 38.501857 
L 153.41538 38.932437 
L 154.113119 38.656469 
L 154.810857 37.80304 
L 156.206335 35.523387 
L 156.904074 34.857468 
L 157.601813 34.978622 
L 158.299552 36.106428 
L 158.997291 38.298003 
L 159.69503 41.435952 
L 162.485986 56.761193 
L 163.183725 59.418459 
L 163.881464 61.214593 
L 164.579202 62.239909 
L 165.276941 62.664834 
L 165.97468 62.646392 
L 166.672419 62.259209 
L 167.370158 61.462043 
L 168.067897 60.103375 
L 168.765636 57.965482 
L 169.463375 54.83877 
L 170.161114 50.598887 
L 170.858853 45.262135 
L 172.254331 32.2358 
L 173.649809 19.095457 
L 174.347548 13.817968 
L 175.045286 9.999901 
L 175.743025 7.896384 
L 176.440764 7.561828 
L 177.138503 8.856154 
L 177.836242 11.492171 
L 178.533981 15.111268 
L 179.929459 23.918211 
L 182.022676 37.047623 
L 182.720415 40.466932 
L 183.418154 43.006091 
L 184.115893 44.477552 
L 184.813632 44.780441 
L 185.51137 43.911133 
L 186.209109 41.971176 
L 186.906848 39.173859 
L 189.697804 26.102556 
L 190.395543 23.899865 
L 191.093282 22.445436 
L 191.791021 21.745239 
L 192.48876 21.773346 
L 193.186499 22.508854 
L 193.884238 23.943797 
L 194.581977 26.062123 
L 195.279716 28.805303 
L 196.675193 35.553618 
L 198.070671 42.220041 
L 198.76841 44.790007 
L 199.466149 46.603316 
L 200.163888 47.645549 
L 200.861627 48.03449 
L 201.559366 47.984717 
L 202.954844 47.59251 
L 203.652583 47.661782 
L 204.350322 48.038057 
L 205.048061 48.714893 
L 205.7458 49.649868 
L 206.443538 50.81721 
L 207.141277 52.235283 
L 208.536755 55.914401 
L 209.932233 59.930393 
L 210.629972 61.192116 
L 211.327711 61.262475 
L 212.02545 59.674852 
L 212.723189 56.169374 
L 213.420928 50.766156 
L 214.816406 35.876108 
L 216.211883 20.531084 
L 216.909622 14.703241 
L 217.607361 10.840492 
L 218.3051 9.110994 
L 219.002839 9.346408 
L 219.700578 11.086068 
L 221.793795 18.870237 
L 222.491534 20.710068 
L 224.584751 24.771656 
L 225.28249 27.060623 
L 225.980229 30.405497 
L 226.677967 34.807922 
L 228.073445 45.061844 
L 228.771184 49.306905 
L 229.468923 51.703477 
L 230.166662 51.552584 
L 230.864401 48.654386 
L 231.56214 43.401355 
L 232.259879 36.67353 
L 232.259879 36.67353 
" style="fill:none;stroke:#5e4fa2;stroke-linecap:round;"/>
   </g>
   <g id="line2d_14">
    <path clip-path="url(#p06ba3c63f9)" d="M 77.361836 36.690104 
L 233.28214 36.690104 
L 233.28214 36.690104 
" style="fill:none;stroke:#5e4fa2;stroke-dasharray:1,1.65;stroke-dashoffset:0;stroke-linecap:round;"/>
   </g>
   <g id="line2d_15">
    <path clip-path="url(#p06ba3c63f9)" d="M 35.4975 117.350791 
L 36.195239 117.018283 
L 36.892978 116.139597 
L 40.381673 110.132148 
L 41.77715 107.451501 
L 43.172628 104.384521 
L 44.568106 100.871926 
L 46.661323 94.839165 
L 50.150018 84.787094 
L 52.243234 79.366847 
L 53.638712 76.222653 
L 55.03419 73.586602 
L 58.522885 67.867699 
L 61.31384 62.12353 
L 62.011579 61.383276 
L 62.709318 61.245989 
L 63.407057 61.721103 
L 64.104796 62.70144 
L 71.082186 75.865052 
L 77.361836 88.379605 
L 78.757314 90.583314 
L 79.455053 91.470425 
L 80.152792 92.177032 
L 80.850531 92.686899 
L 81.54827 93.00558 
L 82.943747 93.207083 
L 85.036964 93.068481 
L 86.432442 92.812702 
L 87.130181 92.561782 
L 87.82792 92.190752 
L 89.223398 91.071507 
L 91.316615 88.841195 
L 93.409831 86.388373 
L 95.503048 83.52621 
L 98.294004 79.656581 
L 100.387221 76.704586 
L 101.782699 74.359718 
L 105.271393 67.935585 
L 105.969132 66.975468 
L 106.666871 66.325056 
L 107.36461 66.045743 
L 108.062349 66.148673 
L 108.760088 66.587368 
L 110.155566 68.064624 
L 111.551044 69.619151 
L 115.737477 73.805541 
L 121.319389 80.342286 
L 122.714867 81.4459 
L 124.110344 82.159585 
L 125.505822 82.491177 
L 128.994517 82.882945 
L 130.389995 83.147832 
L 131.785473 83.144984 
L 133.180951 82.728007 
L 134.576428 81.882947 
L 136.669645 80.346033 
L 138.065123 79.653269 
L 140.15834 78.782609 
L 140.856079 78.315647 
L 142.251557 76.94594 
L 143.647035 75.077093 
L 147.833468 68.872521 
L 149.228946 67.377717 
L 149.926685 66.855936 
L 150.624424 66.564302 
L 151.322163 66.561366 
L 152.019902 66.866861 
L 152.717641 67.438001 
L 155.508596 70.275367 
L 158.299552 72.717885 
L 163.881464 77.861644 
L 165.276941 78.630721 
L 166.672419 79.046587 
L 168.067897 79.162326 
L 171.556592 79.209703 
L 173.649809 78.998898 
L 175.045286 79.135193 
L 176.440764 79.373275 
L 177.836242 79.37096 
L 179.23172 79.114592 
L 181.324937 78.470661 
L 183.418154 77.598909 
L 184.813632 76.856236 
L 186.209109 75.825146 
L 186.906848 75.101801 
L 188.302326 73.180025 
L 189.697804 71.084478 
L 190.395543 70.236578 
L 191.093282 69.62133 
L 191.791021 69.247789 
L 192.48876 69.078705 
L 193.884238 69.124985 
L 195.279716 69.453235 
L 196.675193 70.099734 
L 198.070671 71.111808 
L 199.466149 72.152753 
L 200.861627 72.771711 
L 202.257105 73.16305 
L 202.954844 73.465188 
L 204.350322 74.429665 
L 206.443538 76.084845 
L 207.839016 76.798465 
L 209.932233 77.455036 
L 211.327711 77.739517 
L 212.723189 77.797143 
L 223.189273 76.857635 
L 225.980229 76.362482 
L 227.375706 75.947948 
L 228.771184 75.200795 
L 229.468923 74.643684 
L 230.864401 73.091442 
L 232.259879 71.084746 
L 232.259879 71.084746 
" style="fill:none;stroke:#d8434e;stroke-linecap:round;"/>
   </g>
   <g id="line2d_16">
    <path clip-path="url(#p06ba3c63f9)" d="M 77.361836 75.304829 
L 233.28214 75.304829 
L 233.28214 75.304829 
" style="fill:none;stroke:#d8434e;stroke-dasharray:1,1.65;stroke-dashoffset:0;stroke-linecap:round;"/>
   </g>
   <g id="patch_3">
    <path d="M 35.4975 117.350791 
L 35.4975 0.72 
" style="fill:none;stroke:#000000;stroke-linecap:square;stroke-linejoin:miter;stroke-width:0.35;"/>
   </g>
   <g id="patch_4">
    <path d="M 231.56214 117.350791 
L 231.56214 0.72 
" style="fill:none;stroke:#000000;stroke-linecap:square;stroke-linejoin:miter;stroke-width:0.35;"/>
   </g>
   <g id="patch_5">
    <path d="M 35.4975 117.350791 
L 231.56214 117.350791 
" style="fill:none;stroke:#000000;stroke-linecap:square;stroke-linejoin:miter;stroke-width:0.35;"/>
   </g>
   <g id="patch_6">
    <path d="M 35.4975 0.72 
L 231.56214 0.72 
" style="fill:none;stroke:#000000;stroke-linecap:square;stroke-linejoin:miter;stroke-width:0.35;"/>
   </g>
   <g id="text_15">
    <!-- $V = 0.250J$ -->
    <defs>
     <path d="M 13.28125 71.734375 
L 33.890625 10.640625 
L 54.25 71.734375 
L 65.140625 71.734375 
L 38.96875 0 
L 28.65625 0 
L 2.546875 71.734375 
z
" id="Helvetica-86"/>
     <path d="M 55.421875 40.140625 
L 55.421875 31.9375 
L 4.5 31.9375 
L 4.5 40.140625 
z
M 55.421875 19.1875 
L 55.421875 10.84375 
L 4.5 10.84375 
L 4.5 19.1875 
z
" id="Helvetica-61"/>
    </defs>
    <g transform="translate(49.222025 115.018175)scale(0.08 -0.08)">
     <use transform="translate(0 0.265625)" xlink:href="#Helvetica-86"/>
     <use transform="translate(83.359375 0.265625)" xlink:href="#Helvetica-61"/>
     <use transform="translate(158.417969 0.265625)" xlink:href="#Helvetica-48"/>
     <use transform="translate(214.033203 0.265625)" xlink:href="#Helvetica-46"/>
     <use transform="translate(241.816406 0.265625)" xlink:href="#Helvetica-50"/>
     <use transform="translate(297.431641 0.265625)" xlink:href="#Helvetica-53"/>
     <use transform="translate(353.046875 0.265625)" xlink:href="#Helvetica-48"/>
     <use transform="translate(408.662109 0.265625)" xlink:href="#Helvetica-74"/>
    </g>
   </g>
   <g id="text_16">
    <!-- $L = 26, N = 13, \ell = 13, n = 6$ -->
    <defs>
     <path d="M 7.625 71.734375 
L 17.328125 71.734375 
L 17.328125 8.546875 
L 53.65625 8.546875 
L 53.65625 0 
L 7.625 0 
z
" id="Helvetica-76"/>
     <path d="M 8.296875 -10.203125 
Q 11.671875 -9.625 13.03125 -5.46875 
Q 13.765625 -3.265625 13.765625 -1.21875 
Q 13.765625 -0.875 13.734375 -0.609375 
Q 13.71875 -0.34375 13.625 0 
L 8.296875 0 
L 8.296875 10.640625 
L 18.75 10.640625 
L 18.75 0.78125 
Q 18.75 -5.03125 16.40625 -9.421875 
Q 14.0625 -13.8125 8.296875 -14.84375 
z
" id="Helvetica-44"/>
     <path d="M 7.625 71.734375 
L 19.09375 71.734375 
L 55.328125 13.625 
L 55.328125 71.734375 
L 64.546875 71.734375 
L 64.546875 0 
L 53.65625 0 
L 16.890625 58.0625 
L 16.890625 0 
L 7.625 0 
z
M 35.453125 71.734375 
z
" id="Helvetica-78"/>
     <path d="M 25.984375 -1.90625 
Q 13.578125 -1.90625 7.984375 4.90625 
Q 2.390625 11.71875 2.390625 21.484375 
L 11.578125 21.484375 
Q 12.15625 14.703125 14.109375 11.625 
Q 17.53125 6.109375 26.46875 6.109375 
Q 33.40625 6.109375 37.59375 9.8125 
Q 41.796875 13.53125 41.796875 19.390625 
Q 41.796875 26.609375 37.375 29.484375 
Q 32.953125 32.375 25.09375 32.375 
Q 24.21875 32.375 23.3125 32.34375 
Q 22.40625 32.328125 21.484375 32.28125 
L 21.484375 40.046875 
Q 22.859375 39.890625 23.78125 39.84375 
Q 24.703125 39.796875 25.78125 39.796875 
Q 30.71875 39.796875 33.890625 41.359375 
Q 39.453125 44.09375 39.453125 51.125 
Q 39.453125 56.34375 35.734375 59.171875 
Q 32.03125 62.015625 27.09375 62.015625 
Q 18.3125 62.015625 14.9375 56.15625 
Q 13.09375 52.9375 12.84375 46.96875 
L 4.15625 46.96875 
Q 4.15625 54.78125 7.28125 60.25 
Q 12.640625 70.015625 26.171875 70.015625 
Q 36.859375 70.015625 42.71875 65.25 
Q 48.578125 60.5 48.578125 51.46875 
Q 48.578125 45.015625 45.125 41.015625 
Q 42.96875 38.53125 39.546875 37.109375 
Q 45.0625 35.59375 48.15625 31.265625 
Q 51.265625 26.953125 51.265625 20.703125 
Q 51.265625 10.6875 44.671875 4.390625 
Q 38.09375 -1.90625 25.984375 -1.90625 
z
" id="Helvetica-51"/>
     <path d="M 2.390625 7.421875 
Q 1.953125 7.421875 1.46875 7.953125 
Q 0.984375 8.5 0.984375 8.984375 
Q 0.984375 9.8125 9.28125 17.390625 
Q 9.28125 17.828125 9.25 18.109375 
Q 9.234375 18.40625 9.1875 18.703125 
Q 9.1875 23 9.859375 27.46875 
Q 10.546875 31.9375 11.734375 36.375 
Q 12.9375 40.828125 14.734375 45.65625 
Q 16.546875 50.484375 18.40625 54.109375 
Q 21.625 60.6875 25.4375 65.59375 
Q 29.25 70.515625 33.890625 70.515625 
Q 37.0625 70.515625 38.421875 68.328125 
Q 39.796875 66.15625 39.796875 62.890625 
Q 39.796875 44.578125 15.484375 19.828125 
Q 15.09375 15.53125 15.09375 13.71875 
Q 15.09375 1.21875 20.796875 1.21875 
Q 23.25 1.21875 25.65625 2.515625 
Q 28.078125 3.8125 29.8125 5.328125 
Q 31.546875 6.84375 34.625 9.8125 
Q 34.8125 10.015625 35.203125 10.015625 
Q 35.75 10.015625 36.234375 9.421875 
Q 36.71875 8.84375 36.71875 8.296875 
Q 36.71875 7.953125 36.28125 7.625 
Q 31.84375 3.265625 28.265625 0.875 
Q 24.703125 -1.515625 20.609375 -1.515625 
Q 15.328125 -1.515625 12.765625 3.015625 
Q 10.203125 7.5625 9.515625 13.8125 
Q 6.84375 11.140625 2.984375 7.625 
Q 2.875 7.421875 2.390625 7.421875 
z
M 16.3125 24.609375 
Q 21.625 30.28125 26.265625 36.53125 
Q 30.90625 42.78125 34 49.6875 
Q 37.109375 56.59375 37.109375 63.1875 
Q 37.109375 67.921875 33.796875 67.921875 
Q 30.21875 67.921875 26.5 59.390625 
Q 22.796875 50.875 20.15625 40.96875 
Q 17.53125 31.0625 16.3125 24.609375 
z
" id="Cmmi10-96"/>
    </defs>
    <g transform="translate(49.222025 105.687712)scale(0.08 -0.08)">
     <use transform="translate(0 0.265625)" xlink:href="#Helvetica-76"/>
     <use transform="translate(72.275391 0.265625)" xlink:href="#Helvetica-61"/>
     <use transform="translate(147.333984 0.265625)" xlink:href="#Helvetica-50"/>
     <use transform="translate(202.949219 0.265625)" xlink:href="#Helvetica-54"/>
     <use transform="translate(258.564453 0.265625)" xlink:href="#Helvetica-44"/>
     <use transform="translate(303.007812 0.265625)" xlink:href="#Helvetica-78"/>
     <use transform="translate(391.884766 0.265625)" xlink:href="#Helvetica-61"/>
     <use transform="translate(466.943359 0.265625)" xlink:href="#Helvetica-49"/>
     <use transform="translate(522.558594 0.265625)" xlink:href="#Helvetica-51"/>
     <use transform="translate(578.173828 0.265625)" xlink:href="#Helvetica-44"/>
     <use transform="translate(622.617188 0.265625)" xlink:href="#Cmmi10-96"/>
     <use transform="translate(680.878906 0.265625)" xlink:href="#Helvetica-61"/>
     <use transform="translate(755.9375 0.265625)" xlink:href="#Helvetica-49"/>
     <use transform="translate(811.552734 0.265625)" xlink:href="#Helvetica-51"/>
     <use transform="translate(867.167969 0.265625)" xlink:href="#Helvetica-44"/>
     <use transform="translate(911.611328 0.265625)" xlink:href="#Helvetica-110"/>
     <use transform="translate(983.886719 0.265625)" xlink:href="#Helvetica-61"/>
     <use transform="translate(1058.945312 0.265625)" xlink:href="#Helvetica-54"/>
    </g>
   </g>
   <g id="legend_1">
    <g id="line2d_17">
     <path d="M 175.942748 96.527579 
L 183.942748 96.527579 
" style="fill:none;stroke:#5e4fa2;stroke-linecap:round;"/>
    </g>
    <g id="line2d_18"/>
    <g id="text_17">
     <!-- particle -->
     <defs>
      <path d="M 26.609375 53.8125 
Q 35.453125 53.8125 40.984375 49.515625 
Q 46.53125 45.21875 47.65625 34.71875 
L 39.109375 34.71875 
Q 38.328125 39.546875 35.546875 42.75 
Q 32.765625 45.953125 26.609375 45.953125 
Q 18.21875 45.953125 14.59375 37.75 
Q 12.25 32.421875 12.25 24.609375 
Q 12.25 16.75 15.5625 11.375 
Q 18.890625 6 26.03125 6 
Q 31.5 6 34.6875 9.34375 
Q 37.890625 12.703125 39.109375 18.5 
L 47.65625 18.5 
Q 46.1875 8.109375 40.328125 3.296875 
Q 34.46875 -1.515625 25.34375 -1.515625 
Q 15.09375 -1.515625 8.984375 5.984375 
Q 2.875 13.484375 2.875 24.703125 
Q 2.875 38.484375 9.5625 46.140625 
Q 16.265625 53.8125 26.609375 53.8125 
z
M 25.25 53.5625 
z
" id="Helvetica-99"/>
     </defs>
     <g transform="translate(187.942748 99.327579)scale(0.08 -0.08)">
      <use xlink:href="#Helvetica-112"/>
      <use x="55.615234" xlink:href="#Helvetica-97"/>
      <use x="111.230469" xlink:href="#Helvetica-114"/>
      <use x="144.53125" xlink:href="#Helvetica-116"/>
      <use x="172.314453" xlink:href="#Helvetica-105"/>
      <use x="194.53125" xlink:href="#Helvetica-99"/>
      <use x="244.53125" xlink:href="#Helvetica-108"/>
      <use x="266.748047" xlink:href="#Helvetica-101"/>
     </g>
    </g>
    <g id="line2d_19">
     <path d="M 175.942748 107.933829 
L 183.942748 107.933829 
" style="fill:none;stroke:#d8434e;stroke-linecap:round;"/>
    </g>
    <g id="line2d_20"/>
    <g id="text_18">
     <!-- spatial -->
     <defs>
      <path d="M 11.671875 16.40625 
Q 12.0625 12.015625 13.875 9.671875 
Q 17.1875 5.421875 25.390625 5.421875 
Q 30.28125 5.421875 33.984375 7.546875 
Q 37.703125 9.671875 37.703125 14.109375 
Q 37.703125 17.484375 34.71875 19.234375 
Q 32.8125 20.3125 27.203125 21.734375 
L 20.21875 23.484375 
Q 13.53125 25.140625 10.359375 27.203125 
Q 4.6875 30.765625 4.6875 37.0625 
Q 4.6875 44.484375 10.03125 49.0625 
Q 15.375 53.65625 24.421875 53.65625 
Q 36.234375 53.65625 41.453125 46.734375 
Q 44.734375 42.328125 44.625 37.25 
L 36.328125 37.25 
Q 36.078125 40.234375 34.234375 42.671875 
Q 31.203125 46.140625 23.734375 46.140625 
Q 18.75 46.140625 16.1875 44.234375 
Q 13.625 42.328125 13.625 39.203125 
Q 13.625 35.796875 17 33.734375 
Q 18.953125 32.515625 22.75 31.59375 
L 28.5625 30.171875 
Q 38.03125 27.875 41.265625 25.734375 
Q 46.390625 22.359375 46.390625 15.140625 
Q 46.390625 8.15625 41.09375 3.078125 
Q 35.796875 -2 24.953125 -2 
Q 13.28125 -2 8.421875 3.296875 
Q 3.5625 8.59375 3.21875 16.40625 
z
M 24.65625 53.5625 
z
" id="Helvetica-115"/>
     </defs>
     <g transform="translate(187.942748 110.733829)scale(0.08 -0.08)">
      <use xlink:href="#Helvetica-115"/>
      <use x="50" xlink:href="#Helvetica-112"/>
      <use x="105.615234" xlink:href="#Helvetica-97"/>
      <use x="161.230469" xlink:href="#Helvetica-116"/>
      <use x="189.013672" xlink:href="#Helvetica-105"/>
      <use x="211.230469" xlink:href="#Helvetica-97"/>
      <use x="266.845703" xlink:href="#Helvetica-108"/>
     </g>
    </g>
   </g>
  </g>
 </g>
 <defs>
  <clipPath id="p06ba3c63f9">
   <rect height="116.630791" width="196.06464" x="35.4975" y="0.72"/>
  </clipPath>
 </defs>
</svg>
