<?xml version="1.0" encoding="utf-8" standalone="no"?>
<!DOCTYPE svg PUBLIC "-//W3C//DTD SVG 1.1//EN"
  "http://www.w3.org/Graphics/SVG/1.1/DTD/svg11.dtd">
<svg height="139.239886pt" version="1.1" viewBox="0 0 227.529624 139.239886" width="227.529624pt" xmlns="http://www.w3.org/2000/svg" xmlns:xlink="http://www.w3.org/1999/xlink">
 <metadata>
  <rdf:RDF xmlns:cc="http://creativecommons.org/ns#" xmlns:dc="http://purl.org/dc/elements/1.1/" xmlns:rdf="http://www.w3.org/1999/02/22-rdf-syntax-ns#">
   <cc:Work>
    <dc:type rdf:resource="http://purl.org/dc/dcmitype/StillImage"/>
    <dc:date>2021-07-20T13:52:05.979591</dc:date>
    <dc:format>image/svg+xml</dc:format>
    <dc:creator>
     <cc:Agent>
      <dc:title>Matplotlib v3.4.2, https://matplotlib.org/</dc:title>
     </cc:Agent>
    </dc:creator>
   </cc:Work>
  </rdf:RDF>
 </metadata>
 <defs>
  <style type="text/css">*{stroke-linecap:butt;stroke-linejoin:round;}</style>
 </defs>
 <g id="figure_1">
  <g id="patch_1">
   <path d="M 0 139.239886 
L 227.529624 139.239886 
L 227.529624 0 
L 0 0 
z
" style="fill:none;"/>
  </g>
  <g id="axes_1">
   <g id="patch_2">
    <path d="M 30.744984 117.350791 
L 226.809624 117.350791 
L 226.809624 0.72 
L 30.744984 0.72 
z
" style="fill:none;"/>
   </g>
   <g id="line2d_1">
    <path clip-path="url(#p4978415072)" d="M 72.60932 74.878688 
L 228.529624 74.878688 
L 228.529624 74.878688 
" style="fill:none;stroke:#d8434e;stroke-dasharray:1,1.65;stroke-dashoffset:0;stroke-linecap:round;"/>
   </g>
   <g id="matplotlib.axis_1">
    <g id="xtick_1">
     <g id="line2d_2">
      <defs>
       <path d="M 0 0 
L 0 2 
" id="m27de5f97ea" style="stroke:#000000;stroke-width:0.35;"/>
      </defs>
      <g>
       <use style="stroke:#000000;stroke-width:0.35;" x="30.744984" xlink:href="#m27de5f97ea" y="117.350791"/>
      </g>
     </g>
     <g id="text_1">
      <!-- $\mathdefault{0}$ -->
      <g transform="translate(28.627893 127.885593)scale(0.08 -0.08)">
       <defs>
        <path d="M 2688 2025 
C 2688 2416 2682 3080 2413 3591 
C 2176 4039 1798 4198 1466 4198 
C 1158 4198 768 4058 525 3597 
C 269 3118 243 2524 243 2025 
C 243 1661 250 1106 448 619 
C 723 -39 1216 -128 1466 -128 
C 1760 -128 2208 -7 2470 600 
C 2662 1042 2688 1559 2688 2025 
z
M 1466 -26 
C 1056 -26 813 325 723 812 
C 653 1188 653 1738 653 2096 
C 653 2588 653 2997 736 3387 
C 858 3929 1216 4096 1466 4096 
C 1728 4096 2067 3923 2189 3400 
C 2272 3036 2278 2607 2278 2096 
C 2278 1680 2278 1169 2202 792 
C 2067 95 1690 -26 1466 -26 
z
" id="CMR17-30" transform="scale(0.015625)"/>
       </defs>
       <use transform="scale(0.996264)" xlink:href="#CMR17-30"/>
      </g>
     </g>
    </g>
    <g id="xtick_2">
     <g id="line2d_3">
      <g>
       <use style="stroke:#000000;stroke-width:0.35;" x="65.631931" xlink:href="#m27de5f97ea" y="117.350791"/>
      </g>
     </g>
     <g id="text_2">
      <!-- $\mathdefault{5}$ -->
      <g transform="translate(63.51484 127.885593)scale(0.08 -0.08)">
       <defs>
        <path d="M 730 3692 
C 794 3666 1056 3584 1325 3584 
C 1920 3584 2246 3911 2432 4100 
C 2432 4157 2432 4192 2394 4192 
C 2387 4192 2374 4192 2323 4163 
C 2099 4058 1837 3973 1517 3973 
C 1325 3973 1037 3999 723 4139 
C 653 4171 640 4171 634 4171 
C 602 4171 595 4164 595 4037 
L 595 2203 
C 595 2089 595 2057 659 2057 
C 691 2057 704 2070 736 2114 
C 941 2401 1222 2522 1542 2522 
C 1766 2522 2246 2382 2246 1289 
C 2246 1085 2246 715 2054 421 
C 1894 159 1645 25 1370 25 
C 947 25 518 320 403 814 
C 429 807 480 795 506 795 
C 589 795 749 840 749 1038 
C 749 1210 627 1280 506 1280 
C 358 1280 262 1190 262 1011 
C 262 454 704 -128 1382 -128 
C 2042 -128 2669 440 2669 1264 
C 2669 2030 2170 2624 1549 2624 
C 1222 2624 947 2503 730 2274 
L 730 3692 
z
" id="CMR17-35" transform="scale(0.015625)"/>
       </defs>
       <use transform="scale(0.996264)" xlink:href="#CMR17-35"/>
      </g>
     </g>
    </g>
    <g id="xtick_3">
     <g id="line2d_4">
      <g>
       <use style="stroke:#000000;stroke-width:0.35;" x="100.518878" xlink:href="#m27de5f97ea" y="117.350791"/>
      </g>
     </g>
     <g id="text_3">
      <!-- $\mathdefault{10}$ -->
      <g transform="translate(96.284695 127.885593)scale(0.08 -0.08)">
       <defs>
        <path d="M 1702 4058 
C 1702 4192 1696 4192 1606 4192 
C 1357 3916 979 3827 621 3827 
C 602 3827 570 3827 563 3808 
C 557 3795 557 3782 557 3648 
C 755 3648 1088 3686 1344 3839 
L 1344 461 
C 1344 236 1331 160 781 160 
L 589 160 
L 589 0 
C 896 0 1216 0 1523 0 
C 1830 0 2150 0 2458 0 
L 2458 160 
L 2266 160 
C 1715 160 1702 230 1702 458 
L 1702 4058 
z
" id="CMR17-31" transform="scale(0.015625)"/>
       </defs>
       <use transform="scale(0.996264)" xlink:href="#CMR17-31"/>
       <use transform="translate(45.690477 0)scale(0.996264)" xlink:href="#CMR17-30"/>
      </g>
     </g>
    </g>
    <g id="xtick_4">
     <g id="line2d_5">
      <g>
       <use style="stroke:#000000;stroke-width:0.35;" x="135.405824" xlink:href="#m27de5f97ea" y="117.350791"/>
      </g>
     </g>
     <g id="text_4">
      <!-- $\mathdefault{15}$ -->
      <g transform="translate(131.171641 127.885593)scale(0.08 -0.08)">
       <use transform="scale(0.996264)" xlink:href="#CMR17-31"/>
       <use transform="translate(45.690477 0)scale(0.996264)" xlink:href="#CMR17-35"/>
      </g>
     </g>
    </g>
    <g id="xtick_5">
     <g id="line2d_6">
      <g>
       <use style="stroke:#000000;stroke-width:0.35;" x="170.292771" xlink:href="#m27de5f97ea" y="117.350791"/>
      </g>
     </g>
     <g id="text_5">
      <!-- $\mathdefault{20}$ -->
      <g transform="translate(166.058588 127.885593)scale(0.08 -0.08)">
       <defs>
        <path d="M 2669 989 
L 2554 989 
C 2490 536 2438 459 2413 420 
C 2381 369 1920 369 1830 369 
L 602 369 
C 832 619 1280 1072 1824 1597 
C 2214 1967 2669 2402 2669 3035 
C 2669 3790 2067 4224 1395 4224 
C 691 4224 262 3604 262 3030 
C 262 2780 448 2748 525 2748 
C 589 2748 781 2787 781 3010 
C 781 3207 614 3264 525 3264 
C 486 3264 448 3258 422 3245 
C 544 3790 915 4058 1306 4058 
C 1862 4058 2227 3617 2227 3035 
C 2227 2479 1901 2000 1536 1584 
L 262 146 
L 262 0 
L 2515 0 
L 2669 989 
z
" id="CMR17-32" transform="scale(0.015625)"/>
       </defs>
       <use transform="scale(0.996264)" xlink:href="#CMR17-32"/>
       <use transform="translate(45.690477 0)scale(0.996264)" xlink:href="#CMR17-30"/>
      </g>
     </g>
    </g>
    <g id="xtick_6">
     <g id="line2d_7">
      <g>
       <use style="stroke:#000000;stroke-width:0.35;" x="205.179718" xlink:href="#m27de5f97ea" y="117.350791"/>
      </g>
     </g>
     <g id="text_6">
      <!-- $\mathdefault{25}$ -->
      <g transform="translate(200.945535 127.885593)scale(0.08 -0.08)">
       <use transform="scale(0.996264)" xlink:href="#CMR17-32"/>
       <use transform="translate(45.690477 0)scale(0.996264)" xlink:href="#CMR17-35"/>
      </g>
     </g>
    </g>
    <g id="text_7">
     <!-- Time   $t\cdot J$ -->
     <g transform="translate(110.821468 136.97014)scale(0.08 -0.08)">
      <defs>
       <path d="M 3981 4326 
L 288 4326 
L 179 2918 
L 294 2918 
C 378 3976 467 4160 1453 4160 
C 1568 4160 1754 4160 1805 4154 
C 1926 4135 1926 4058 1926 3912 
L 1926 459 
C 1926 230 1907 160 1376 160 
L 1197 160 
L 1197 0 
C 1504 0 1824 0 2138 0 
C 2451 0 2771 0 3078 0 
L 3078 160 
L 2899 160 
C 2368 160 2349 230 2349 459 
L 2349 3912 
C 2349 4052 2349 4129 2464 4154 
C 2515 4160 2701 4160 2816 4160 
C 3795 4160 3891 3976 3974 2918 
L 4090 2918 
L 3981 4326 
z
" id="CMR17-54" transform="scale(0.015625)"/>
       <path d="M 992 3909 
C 992 4049 877 4170 730 4170 
C 589 4170 467 4056 467 3909 
C 467 3769 582 3648 730 3648 
C 870 3648 992 3763 992 3909 
z
M 243 2706 
L 243 2541 
C 602 2541 653 2502 653 2197 
L 653 427 
C 653 184 627 153 218 153 
L 218 -13 
C 371 0 646 0 806 0 
C 960 0 1222 0 1370 -13 
L 1370 153 
C 992 153 979 191 979 420 
L 979 2776 
L 243 2706 
z
" id="CMR17-69" transform="scale(0.015625)"/>
       <path d="M 4326 1933 
C 4326 2252 4269 2790 3507 2790 
C 3072 2790 2771 2496 2656 2151 
L 2650 2151 
C 2573 2676 2195 2790 1837 2790 
C 1331 2790 1069 2400 973 2144 
L 966 2144 
L 966 2790 
L 211 2720 
L 211 2554 
C 589 2554 646 2515 646 2208 
L 646 428 
C 646 184 621 153 211 153 
L 211 -13 
C 365 0 646 0 813 0 
C 979 0 1267 0 1421 -13 
L 1421 153 
C 1011 153 986 178 986 428 
L 986 1658 
C 986 2247 1344 2688 1792 2688 
C 2266 2688 2317 2266 2317 1958 
L 2317 428 
C 2317 184 2291 153 1882 153 
L 1882 -13 
C 2035 0 2317 0 2483 0 
C 2650 0 2938 0 3091 -13 
L 3091 153 
C 2682 153 2656 178 2656 428 
L 2656 1658 
C 2656 2247 3014 2688 3462 2688 
C 3936 2688 3987 2266 3987 1958 
L 3987 428 
C 3987 184 3962 153 3552 153 
L 3552 -13 
C 3706 0 3987 0 4154 0 
C 4320 0 4608 0 4762 -13 
L 4762 153 
C 4352 153 4326 178 4326 428 
L 4326 1933 
z
" id="CMR17-6d" transform="scale(0.015625)"/>
       <path d="M 2438 1472 
C 2464 1498 2464 1511 2464 1576 
C 2464 2238 2118 2816 1389 2816 
C 710 2816 173 2169 173 1383 
C 173 551 781 -64 1459 -64 
C 2176 -64 2458 607 2458 740 
C 2458 784 2419 784 2406 784 
C 2362 784 2355 771 2330 696 
C 2189 265 1837 51 1504 51 
C 1229 51 954 203 781 480 
C 582 803 582 1176 582 1472 
L 2438 1472 
z
M 589 1568 
C 634 2505 1126 2714 1382 2714 
C 1818 2714 2112 2297 2118 1568 
L 589 1568 
z
" id="CMR17-65" transform="scale(0.015625)"/>
       <path d="M 1286 2566 
L 1875 2566 
C 1997 2566 2061 2566 2061 2681 
C 2061 2752 2022 2752 1894 2752 
L 1331 2752 
L 1568 3692 
C 1594 3781 1594 3794 1594 3840 
C 1594 3943 1510 4000 1427 4000 
C 1376 4000 1229 3981 1178 3775 
L 928 2752 
L 326 2752 
C 198 2752 141 2752 141 2630 
C 141 2566 186 2566 307 2566 
L 877 2566 
L 454 881 
C 403 658 384 594 384 511 
C 384 211 595 -64 954 -64 
C 1600 -64 1946 868 1946 912 
C 1946 951 1920 970 1882 970 
C 1869 970 1843 970 1830 944 
C 1824 938 1818 931 1773 829 
C 1638 511 1344 64 973 64 
C 781 64 768 224 768 364 
C 768 370 768 492 787 568 
L 1286 2566 
z
" id="CMMI12-74" transform="scale(0.015625)"/>
       <path d="M 1229 1619 
C 1229 1805 1075 1958 890 1958 
C 704 1958 550 1805 550 1619 
C 550 1433 704 1280 890 1280 
C 1075 1280 1229 1433 1229 1619 
z
" id="CMSY10-1" transform="scale(0.015625)"/>
       <path d="M 3418 3912 
C 3469 4103 3482 4167 3795 4167 
C 3898 4167 3962 4167 3962 4282 
C 3962 4352 3904 4352 3878 4352 
C 3770 4352 3648 4352 3533 4352 
L 3181 4352 
C 2912 4352 2630 4352 2362 4352 
C 2304 4352 2227 4352 2227 4237 
C 2227 4173 2278 4173 2278 4167 
L 2438 4167 
C 2950 4167 2950 4116 2950 4020 
C 2950 4013 2950 3969 2925 3868 
L 2189 960 
C 2022 312 1594 0 1286 0 
C 1069 0 762 100 685 431 
C 710 424 742 418 768 418 
C 979 418 1146 603 1146 788 
C 1146 890 1082 1024 890 1024 
C 774 1024 506 961 506 549 
C 506 151 838 -128 1299 -128 
C 1882 -128 2509 311 2662 915 
L 3418 3912 
z
" id="CMMI12-4a" transform="scale(0.015625)"/>
      </defs>
      <use transform="scale(0.996264)" xlink:href="#CMR17-54"/>
      <use transform="translate(66.509881 0)scale(0.996264)" xlink:href="#CMR17-69"/>
      <use transform="translate(91.380939 0)scale(0.996264)" xlink:href="#CMR17-6d"/>
      <use transform="translate(168.300529 0)scale(0.996264)" xlink:href="#CMR17-65"/>
      <use transform="translate(238.862156 0)scale(0.996264)" xlink:href="#CMMI12-74"/>
      <use transform="translate(296.227693 0)scale(0.996264)" xlink:href="#CMSY10-1"/>
      <use transform="translate(346.040985 0)scale(0.996264)" xlink:href="#CMMI12-4a"/>
     </g>
    </g>
   </g>
   <g id="matplotlib.axis_2">
    <g id="ytick_1">
     <g id="line2d_8">
      <defs>
       <path d="M 0 0 
L -2 0 
" id="m20a830fcb0" style="stroke:#000000;stroke-width:0.35;"/>
      </defs>
      <g>
       <use style="stroke:#000000;stroke-width:0.35;" x="30.744984" xlink:href="#m20a830fcb0" y="117.350791"/>
      </g>
     </g>
     <g id="text_8">
      <!-- $\mathdefault{0.00}$ -->
      <g transform="translate(10.690112 120.118192)scale(0.08 -0.08)">
       <defs>
        <path d="M 1178 307 
C 1178 492 1024 619 870 619 
C 685 619 557 466 557 313 
C 557 128 710 0 864 0 
C 1050 0 1178 153 1178 307 
z
" id="CMMI12-3a" transform="scale(0.015625)"/>
       </defs>
       <use transform="scale(0.996264)" xlink:href="#CMR17-30"/>
       <use transform="translate(45.690477 0)scale(0.996264)" xlink:href="#CMMI12-3a"/>
       <use transform="translate(72.787654 0)scale(0.996264)" xlink:href="#CMR17-30"/>
       <use transform="translate(118.478131 0)scale(0.996264)" xlink:href="#CMR17-30"/>
      </g>
     </g>
    </g>
    <g id="ytick_2">
     <g id="line2d_9">
      <g>
       <use style="stroke:#000000;stroke-width:0.35;" x="30.744984" xlink:href="#m20a830fcb0" y="85.828956"/>
      </g>
     </g>
     <g id="text_9">
      <!-- $\mathdefault{0.02}$ -->
      <g transform="translate(10.690112 88.596357)scale(0.08 -0.08)">
       <use transform="scale(0.996264)" xlink:href="#CMR17-30"/>
       <use transform="translate(45.690477 0)scale(0.996264)" xlink:href="#CMMI12-3a"/>
       <use transform="translate(72.787654 0)scale(0.996264)" xlink:href="#CMR17-30"/>
       <use transform="translate(118.478131 0)scale(0.996264)" xlink:href="#CMR17-32"/>
      </g>
     </g>
    </g>
    <g id="ytick_3">
     <g id="line2d_10">
      <g>
       <use style="stroke:#000000;stroke-width:0.35;" x="30.744984" xlink:href="#m20a830fcb0" y="54.30712"/>
      </g>
     </g>
     <g id="text_10">
      <!-- $\mathdefault{0.04}$ -->
      <g transform="translate(10.690112 57.074521)scale(0.08 -0.08)">
       <defs>
        <path d="M 2150 4122 
C 2150 4256 2144 4256 2029 4256 
L 128 1254 
L 128 1088 
L 1779 1088 
L 1779 457 
C 1779 224 1766 160 1318 160 
L 1197 160 
L 1197 0 
C 1402 0 1747 0 1965 0 
C 2182 0 2528 0 2733 0 
L 2733 160 
L 2611 160 
C 2163 160 2150 224 2150 457 
L 2150 1088 
L 2803 1088 
L 2803 1254 
L 2150 1254 
L 2150 4122 
z
M 1798 3703 
L 1798 1254 
L 256 1254 
L 1798 3703 
z
" id="CMR17-34" transform="scale(0.015625)"/>
       </defs>
       <use transform="scale(0.996264)" xlink:href="#CMR17-30"/>
       <use transform="translate(45.690477 0)scale(0.996264)" xlink:href="#CMMI12-3a"/>
       <use transform="translate(72.787654 0)scale(0.996264)" xlink:href="#CMR17-30"/>
       <use transform="translate(118.478131 0)scale(0.996264)" xlink:href="#CMR17-34"/>
      </g>
     </g>
    </g>
    <g id="ytick_4">
     <g id="line2d_11">
      <g>
       <use style="stroke:#000000;stroke-width:0.35;" x="30.744984" xlink:href="#m20a830fcb0" y="22.785285"/>
      </g>
     </g>
     <g id="text_11">
      <!-- $\mathdefault{0.06}$ -->
      <g transform="translate(10.690112 25.552686)scale(0.08 -0.08)">
       <defs>
        <path d="M 678 2176 
C 678 3690 1395 4032 1811 4032 
C 1946 4032 2272 4009 2400 3776 
C 2298 3776 2106 3776 2106 3553 
C 2106 3381 2246 3323 2336 3323 
C 2394 3323 2566 3348 2566 3560 
C 2566 3954 2246 4179 1805 4179 
C 1043 4179 243 3390 243 1984 
C 243 253 966 -128 1478 -128 
C 2099 -128 2688 427 2688 1283 
C 2688 2081 2170 2662 1517 2662 
C 1126 2662 838 2407 678 1960 
L 678 2176 
z
M 1478 25 
C 691 25 691 1200 691 1436 
C 691 1896 909 2560 1504 2560 
C 1613 2560 1926 2560 2138 2120 
C 2253 1870 2253 1609 2253 1289 
C 2253 944 2253 690 2118 434 
C 1978 171 1773 25 1478 25 
z
" id="CMR17-36" transform="scale(0.015625)"/>
       </defs>
       <use transform="scale(0.996264)" xlink:href="#CMR17-30"/>
       <use transform="translate(45.690477 0)scale(0.996264)" xlink:href="#CMMI12-3a"/>
       <use transform="translate(72.787654 0)scale(0.996264)" xlink:href="#CMR17-30"/>
       <use transform="translate(118.478131 0)scale(0.996264)" xlink:href="#CMR17-36"/>
      </g>
     </g>
    </g>
    <g id="text_12">
     <!-- Entanglement Growth $\Delta S(t)$ -->
     <g transform="translate(6.697584 112.732021)rotate(-90)scale(0.08 -0.08)">
      <defs>
       <path d="M 3885 1615 
L 3770 1615 
C 3629 676 3546 166 2419 166 
L 1530 166 
C 1274 166 1261 197 1261 414 
L 1261 2176 
L 1862 2176 
C 2464 2176 2522 1960 2522 1430 
L 2637 1430 
L 2637 3081 
L 2522 3081 
C 2522 2557 2464 2342 1862 2342 
L 1261 2342 
L 1261 3913 
C 1261 4128 1274 4160 1530 4160 
L 2406 4160 
C 3398 4160 3514 3769 3603 2929 
L 3718 2929 
L 3565 4325 
L 326 4325 
L 326 4160 
C 768 4160 838 4160 838 3874 
L 838 451 
C 838 166 768 166 326 166 
L 326 0 
L 3654 0 
L 3885 1615 
z
" id="CMR17-45" transform="scale(0.015625)"/>
       <path d="M 2656 1933 
C 2656 2259 2592 2790 1837 2790 
C 1331 2790 1069 2400 973 2144 
L 966 2144 
L 966 2790 
L 211 2720 
L 211 2554 
C 589 2554 646 2515 646 2208 
L 646 428 
C 646 184 621 153 211 153 
L 211 -13 
C 365 0 646 0 813 0 
C 979 0 1267 0 1421 -13 
L 1421 153 
C 1011 153 986 178 986 428 
L 986 1658 
C 986 2247 1344 2688 1792 2688 
C 2266 2688 2317 2266 2317 1958 
L 2317 428 
C 2317 184 2291 153 1882 153 
L 1882 -13 
C 2035 0 2317 0 2483 0 
C 2650 0 2938 0 3091 -13 
L 3091 153 
C 2682 153 2656 178 2656 428 
L 2656 1933 
z
" id="CMR17-6e" transform="scale(0.015625)"/>
       <path d="M 966 2560 
L 1862 2560 
L 1862 2725 
L 966 2725 
L 966 3904 
L 851 3904 
C 838 3245 614 2668 70 2668 
L 70 2560 
L 627 2560 
L 627 771 
C 627 650 627 -64 1370 -64 
C 1747 -64 1965 306 1965 777 
L 1965 1140 
L 1850 1140 
L 1850 783 
C 1850 344 1677 51 1408 51 
C 1222 51 966 178 966 758 
L 966 2560 
z
" id="CMR17-74" transform="scale(0.015625)"/>
       <path d="M 2304 1653 
C 2304 2072 2304 2294 2035 2543 
C 1798 2752 1523 2816 1306 2816 
C 800 2816 435 2407 435 1971 
C 435 1728 627 1728 666 1728 
C 749 1728 896 1778 896 1954 
C 896 2112 774 2181 666 2181 
C 640 2181 608 2174 589 2168 
C 723 2592 1069 2714 1293 2714 
C 1613 2714 1965 2429 1965 1885 
L 1965 1600 
C 1587 1600 1133 1549 774 1357 
C 371 1133 256 813 256 570 
C 256 77 832 -64 1171 -64 
C 1523 -64 1850 139 1990 511 
C 2003 233 2182 -18 2464 -18 
C 2598 -18 2938 70 2938 567 
L 2938 920 
L 2822 920 
L 2822 562 
C 2822 178 2650 128 2566 128 
C 2304 128 2304 458 2304 738 
L 2304 1653 
z
M 1965 870 
C 1965 317 1568 38 1216 38 
C 896 38 646 275 646 570 
C 646 761 730 1100 1101 1305 
C 1408 1478 1760 1504 1965 1504 
L 1965 870 
z
" id="CMR17-61" transform="scale(0.015625)"/>
       <path d="M 710 1164 
C 832 1068 1043 960 1299 960 
C 1805 960 2240 1357 2240 1888 
C 2240 2054 2189 2310 1997 2509 
C 2176 2692 2438 2752 2586 2752 
C 2611 2752 2650 2752 2682 2734 
C 2656 2728 2598 2703 2598 2605 
C 2598 2527 2656 2471 2739 2471 
C 2835 2471 2886 2533 2886 2614 
C 2886 2731 2790 2854 2586 2854 
C 2330 2854 2106 2738 1926 2580 
C 1734 2753 1504 2816 1299 2816 
C 794 2816 358 2419 358 1888 
C 358 1522 570 1292 634 1228 
C 442 1004 442 743 442 711 
C 442 545 506 302 723 168 
C 390 85 128 -169 128 -486 
C 128 -943 736 -1280 1466 -1280 
C 2170 -1280 2803 -956 2803 -479 
C 2803 384 1856 384 1363 384 
C 1216 384 954 384 922 391 
C 723 423 589 602 589 826 
C 589 883 589 1024 710 1164 
z
M 1299 1068 
C 736 1068 736 1760 736 1889 
C 736 2016 736 2708 1299 2708 
C 1862 2708 1862 2016 1862 1889 
C 1862 1760 1862 1068 1299 1068 
z
M 1466 -1171 
C 826 -1171 384 -835 384 -486 
C 384 -289 493 -105 634 -4 
C 794 104 858 104 1293 104 
C 1818 104 2547 104 2547 -486 
C 2547 -835 2106 -1171 1466 -1171 
z
" id="CMR17-67" transform="scale(0.015625)"/>
       <path d="M 979 4396 
L 218 4326 
L 218 4160 
C 595 4160 653 4122 653 3817 
L 653 426 
C 653 184 627 153 218 153 
L 218 -13 
C 371 0 653 0 813 0 
C 979 0 1261 0 1414 -13 
L 1414 153 
C 1005 153 979 178 979 426 
L 979 4396 
z
" id="CMR17-6c" transform="scale(0.015625)"/>
       <path d="M 3974 1233 
C 3974 1473 3994 1505 4390 1505 
L 4390 1670 
C 4237 1664 3891 1664 3718 1664 
C 3539 1664 3040 1664 2797 1664 
L 2797 1505 
L 2989 1505 
C 3539 1505 3552 1434 3552 1201 
L 3552 774 
C 3552 63 2720 63 2522 63 
C 1862 63 781 511 781 2160 
C 781 3808 1843 4250 2464 4250 
C 3187 4250 3712 3626 3834 2741 
C 3846 2664 3846 2651 3904 2651 
C 3974 2651 3974 2664 3974 2779 
L 3974 4288 
C 3974 4402 3968 4409 3930 4409 
C 3904 4409 3898 4402 3853 4326 
L 3571 3791 
C 3258 4187 2874 4416 2381 4416 
C 1286 4416 294 3456 294 2148 
C 294 845 1267 -128 2394 -128 
C 2912 -128 3418 56 3616 417 
C 3725 158 3904 -20 3936 -20 
C 3968 -20 3974 -13 3974 100 
L 3974 1233 
z
" id="CMR17-47" transform="scale(0.015625)"/>
       <path d="M 960 1497 
C 960 2112 1222 2688 1702 2688 
C 1747 2688 1792 2682 1837 2662 
C 1837 2662 1696 2617 1696 2452 
C 1696 2298 1818 2234 1914 2234 
C 1990 2234 2131 2279 2131 2458 
C 2131 2663 1926 2790 1709 2790 
C 1222 2790 1011 2317 947 2093 
L 941 2093 
L 941 2790 
L 198 2720 
L 198 2554 
C 576 2554 634 2515 634 2208 
L 634 428 
C 634 184 608 153 198 153 
L 198 -13 
C 352 0 646 0 813 0 
C 998 0 1325 0 1498 -13 
L 1498 153 
C 1037 153 960 153 960 440 
L 960 1497 
z
" id="CMR17-72" transform="scale(0.015625)"/>
       <path d="M 2758 1356 
C 2758 2176 2163 2816 1466 2816 
C 768 2816 173 2176 173 1356 
C 173 551 768 -64 1466 -64 
C 2163 -64 2758 551 2758 1356 
z
M 1466 51 
C 1165 51 909 230 762 480 
C 602 767 582 1126 582 1408 
C 582 1677 595 2010 762 2298 
C 890 2509 1139 2714 1466 2714 
C 1754 2714 1997 2554 2150 2330 
C 2349 2029 2349 1607 2349 1408 
C 2349 1158 2336 775 2163 467 
C 1984 173 1709 51 1466 51 
z
" id="CMR17-6f" transform="scale(0.015625)"/>
       <path d="M 3725 2183 
C 3853 2560 4109 2560 4205 2560 
L 4205 2732 
C 4077 2732 3949 2732 3821 2732 
C 3699 2732 3424 2732 3315 2738 
L 3315 2560 
C 3514 2560 3622 2445 3622 2286 
C 3622 2241 3610 2184 3597 2140 
L 2995 407 
L 2342 2275 
C 2330 2319 2310 2370 2310 2395 
C 2310 2560 2528 2560 2630 2560 
L 2630 2738 
C 2483 2732 2214 2732 2061 2732 
C 1901 2732 1734 2732 1587 2738 
L 1587 2560 
C 1939 2560 1939 2547 2074 2149 
L 1485 451 
L 851 2281 
C 819 2363 819 2376 819 2395 
C 819 2560 1037 2560 1139 2560 
L 1139 2738 
C 986 2732 717 2732 557 2732 
C 416 2732 198 2732 64 2738 
L 64 2560 
C 346 2560 416 2541 486 2331 
L 1274 49 
C 1299 -33 1318 -52 1370 -52 
C 1414 -52 1440 -39 1472 56 
L 2131 1980 
L 2797 56 
C 2829 -39 2854 -52 2899 -52 
C 2950 -52 2970 -33 2995 50 
L 3725 2183 
z
" id="CMR17-77" transform="scale(0.015625)"/>
       <path d="M 2656 1933 
C 2656 2259 2592 2790 1837 2790 
C 1312 2790 1056 2368 979 2157 
L 973 2157 
L 973 4396 
L 211 4326 
L 211 4160 
C 589 4160 646 4122 646 3817 
L 646 426 
C 646 184 621 153 211 153 
L 211 -13 
C 365 0 646 0 813 0 
C 979 0 1267 0 1421 -13 
L 1421 153 
C 1011 153 986 178 986 428 
L 986 1658 
C 986 2247 1344 2688 1792 2688 
C 2266 2688 2317 2266 2317 1958 
L 2317 428 
C 2317 184 2291 153 1882 153 
L 1882 -13 
C 2035 0 2317 0 2483 0 
C 2650 0 2938 0 3091 -13 
L 3091 153 
C 2682 153 2656 178 2656 428 
L 2656 1933 
z
" id="CMR17-68" transform="scale(0.015625)"/>
       <path d="M 2598 4403 
C 2547 4512 2522 4512 2470 4512 
C 2394 4512 2387 4499 2342 4409 
L 269 109 
C 262 96 237 38 237 32 
C 237 6 243 0 358 0 
L 4576 0 
C 4691 0 4698 6 4698 32 
C 4698 38 4672 96 4666 109 
L 2598 4403 
z
M 2310 4038 
L 4083 358 
L 531 358 
L 2310 4038 
z
" id="CMR17-1" transform="scale(0.015625)"/>
       <path d="M 4064 4423 
C 4064 4480 4019 4480 4006 4480 
C 3981 4480 3974 4474 3898 4378 
C 3859 4333 3597 4001 3590 3995 
C 3379 4410 2957 4480 2688 4480 
C 1875 4480 1139 3743 1139 3025 
C 1139 2549 1427 2269 1741 2161 
C 1811 2135 2189 2033 2381 1989 
C 2707 1900 2790 1875 2925 1735 
C 2950 1703 3078 1557 3078 1258 
C 3078 667 2528 57 1888 57 
C 1363 57 781 280 781 991 
C 781 1112 806 1265 826 1328 
C 826 1348 832 1378 832 1391 
C 832 1417 819 1449 768 1449 
C 710 1449 704 1436 678 1328 
L 352 24 
C 352 18 326 -64 326 -71 
C 326 -128 378 -128 390 -128 
C 416 -128 422 -122 499 -26 
L 794 356 
C 947 126 1280 -128 1875 -128 
C 2701 -128 3456 666 3456 1460 
C 3456 1728 3392 1963 3149 2197 
C 3014 2331 2899 2363 2310 2516 
C 1882 2630 1824 2649 1709 2751 
C 1600 2858 1517 3011 1517 3227 
C 1517 3761 2061 4308 2669 4308 
C 3296 4308 3590 3926 3590 3323 
C 3590 3158 3558 2986 3558 2961 
C 3558 2903 3610 2903 3629 2903 
C 3686 2903 3693 2922 3718 3024 
L 4064 4423 
z
" id="CMMI12-53" transform="scale(0.015625)"/>
       <path d="M 1958 -1561 
C 1958 -1555 1958 -1542 1939 -1523 
C 1645 -1224 858 -407 858 1581 
C 858 3569 1632 4379 1946 4697 
C 1946 4704 1958 4717 1958 4736 
C 1958 4755 1939 4768 1914 4768 
C 1843 4768 1299 4296 986 3594 
C 666 2887 576 2199 576 1588 
C 576 1128 621 351 1005 -471 
C 1312 -1135 1837 -1600 1914 -1600 
C 1946 -1600 1958 -1587 1958 -1561 
z
" id="CMR17-28" transform="scale(0.015625)"/>
       <path d="M 1683 1581 
C 1683 2040 1638 2817 1254 3639 
C 947 4303 422 4768 346 4768 
C 326 4768 301 4761 301 4729 
C 301 4717 307 4710 314 4697 
C 621 4378 1402 3568 1402 1584 
C 1402 -407 627 -1217 314 -1537 
C 307 -1549 301 -1556 301 -1568 
C 301 -1600 326 -1600 346 -1600 
C 416 -1600 960 -1128 1274 -426 
C 1594 281 1683 969 1683 1581 
z
" id="CMR17-29" transform="scale(0.015625)"/>
      </defs>
      <use transform="scale(0.996264)" xlink:href="#CMR17-45"/>
      <use transform="translate(62.586301 0)scale(0.996264)" xlink:href="#CMR17-6e"/>
      <use transform="translate(110.879216 0)scale(0.996264)" xlink:href="#CMR17-74"/>
      <use transform="translate(146.159984 0)scale(0.996264)" xlink:href="#CMR17-61"/>
      <use transform="translate(191.850461 0)scale(0.996264)" xlink:href="#CMR17-6e"/>
      <use transform="translate(242.745831 0)scale(0.996264)" xlink:href="#CMR17-67"/>
      <use transform="translate(288.436308 0)scale(0.996264)" xlink:href="#CMR17-6c"/>
      <use transform="translate(313.307367 0)scale(0.996264)" xlink:href="#CMR17-65"/>
      <use transform="translate(353.793027 0)scale(0.996264)" xlink:href="#CMR17-6d"/>
      <use transform="translate(430.712617 0)scale(0.996264)" xlink:href="#CMR17-65"/>
      <use transform="translate(471.198277 0)scale(0.996264)" xlink:href="#CMR17-6e"/>
      <use transform="translate(519.491193 0)scale(0.996264)" xlink:href="#CMR17-74"/>
      <use transform="translate(584.847927 0)scale(0.996264)" xlink:href="#CMR17-47"/>
      <use transform="translate(657.203273 0)scale(0.996264)" xlink:href="#CMR17-72"/>
      <use transform="translate(692.484041 0)scale(0.996264)" xlink:href="#CMR17-6f"/>
      <use transform="translate(735.572064 0)scale(0.996264)" xlink:href="#CMR17-77"/>
      <use transform="translate(802.081945 0)scale(0.996264)" xlink:href="#CMR17-74"/>
      <use transform="translate(837.362713 0)scale(0.996264)" xlink:href="#CMR17-68"/>
      <use transform="translate(918.334049 0)scale(0.996264)" xlink:href="#CMR17-1"/>
      <use transform="translate(995.253639 0)scale(0.996264)" xlink:href="#CMMI12-53"/>
      <use transform="translate(1061.048078 0)scale(0.996264)" xlink:href="#CMR17-28"/>
      <use transform="translate(1096.328846 0)scale(0.996264)" xlink:href="#CMMI12-74"/>
      <use transform="translate(1131.555176 0)scale(0.996264)" xlink:href="#CMR17-29"/>
     </g>
    </g>
   </g>
   <g id="line2d_12">
    <path clip-path="url(#p4978415072)" d="M 30.744984 117.350791 
L 31.442723 111.062344 
L 32.140462 96.529426 
L 34.233679 40.044778 
L 34.931418 26.259312 
L 35.629157 17.689764 
L 36.326896 14.484799 
L 37.024635 15.88872 
L 37.722374 20.469451 
L 39.117852 31.981911 
L 39.815591 35.78495 
L 40.513329 37.276091 
L 41.211068 36.643857 
L 41.908807 34.557159 
L 43.304285 29.31199 
L 44.002024 27.487645 
L 44.699763 26.650641 
L 45.397502 26.783795 
L 46.095241 27.648753 
L 48.188458 31.167016 
L 48.886197 31.751886 
L 49.583936 31.885401 
L 50.281675 31.629693 
L 53.07263 29.637704 
L 54.468108 29.385148 
L 55.863586 29.488329 
L 57.956803 30.054028 
L 59.352281 30.363966 
L 60.05002 30.297564 
L 62.143236 29.48924 
L 62.840975 29.472767 
L 63.538714 29.707292 
L 64.236453 30.158599 
L 65.631931 31.460137 
L 66.32967 32.323937 
L 67.027409 33.480336 
L 67.725148 35.075953 
L 68.422887 37.225507 
L 69.120626 39.994148 
L 69.818365 43.400902 
L 71.213843 52.044304 
L 74.004798 72.74701 
L 74.702537 76.549065 
L 75.400276 78.686359 
L 76.098015 78.666429 
L 76.795754 76.197174 
L 77.493493 71.231317 
L 78.191232 63.975022 
L 79.58671 44.547297 
L 80.982188 23.535396 
L 81.679926 14.622955 
L 82.377665 7.874698 
L 83.075404 3.907493 
L 83.773143 3.066221 
L 84.470882 5.363906 
L 85.168621 10.455569 
L 86.564099 25.97276 
L 87.959577 41.295011 
L 88.657316 46.080547 
L 89.355055 48.03405 
L 90.052794 47.159145 
L 90.750533 43.962958 
L 92.14601 33.92285 
L 92.843749 28.806154 
L 93.541488 24.567242 
L 94.239227 21.648093 
L 94.936966 20.249089 
L 95.634705 20.345413 
L 96.332444 21.72794 
L 97.030183 24.054685 
L 99.1234 32.415481 
L 99.821139 34.323594 
L 100.518878 35.342645 
L 101.216617 35.412513 
L 101.914356 34.625329 
L 102.612094 33.197115 
L 104.705311 28.156715 
L 105.40305 27.249877 
L 106.100789 27.102786 
L 106.798528 27.788191 
L 107.496267 29.256157 
L 108.194006 31.34996 
L 111.682701 43.717552 
L 113.078178 48.013655 
L 114.473656 53.1776 
L 117.264612 65.731553 
L 117.962351 67.840536 
L 118.66009 68.797727 
L 119.357829 68.302061 
L 120.055568 66.203659 
L 120.753307 62.550067 
L 121.451046 57.563073 
L 122.846524 44.962896 
L 124.93974 24.929048 
L 126.335218 14.227447 
L 127.032957 10.393211 
L 127.730696 7.888647 
L 128.428435 6.934029 
L 129.126174 7.693788 
L 129.823913 10.231667 
L 130.521652 14.463035 
L 131.219391 20.116561 
L 133.312607 40.022968 
L 134.010346 45.137087 
L 134.708085 48.275889 
L 135.405824 49.054194 
L 136.103563 47.494184 
L 136.801302 43.986589 
L 138.19678 33.751935 
L 139.592258 23.99546 
L 140.289997 20.71582 
L 140.987736 18.879559 
L 141.685475 18.503652 
L 142.383214 19.428845 
L 143.080953 21.376662 
L 144.47643 26.990371 
L 145.871908 32.80684 
L 146.569647 35.192665 
L 147.267386 37.016817 
L 147.965125 38.174003 
L 148.662864 38.606373 
L 149.360603 38.329257 
L 150.058342 37.472281 
L 151.45382 35.183148 
L 152.151559 34.51446 
L 152.849298 34.636118 
L 153.547037 35.768613 
L 154.244775 37.969301 
L 154.942514 41.120297 
L 157.73347 56.509262 
L 158.431209 59.177576 
L 159.128948 60.981179 
L 159.826687 62.010757 
L 160.524426 62.43745 
L 161.222165 62.418931 
L 161.919904 62.030138 
L 162.617643 61.229657 
L 163.315382 59.86534 
L 164.013121 57.718558 
L 164.710859 54.578845 
L 165.408598 50.321332 
L 166.106337 44.96239 
L 167.501815 31.881891 
L 168.897293 18.686911 
L 169.595032 13.387478 
L 170.292771 9.553535 
L 170.99051 7.441272 
L 171.688249 7.105325 
L 172.385988 8.405033 
L 173.083727 11.052011 
L 173.781466 14.686155 
L 175.176943 23.529718 
L 177.27016 36.713722 
L 177.967899 40.147249 
L 178.665638 42.696965 
L 179.363377 44.174545 
L 180.061116 44.478694 
L 180.758855 43.60577 
L 181.456594 41.657747 
L 182.154333 38.848799 
L 184.945288 25.723146 
L 185.643027 23.511295 
L 186.340766 22.050819 
L 187.038505 21.347711 
L 187.736244 21.375935 
L 188.433983 22.114501 
L 189.131722 23.55541 
L 189.829461 25.682544 
L 190.5272 28.437131 
L 191.922678 35.213505 
L 193.318156 41.907647 
L 194.015895 44.488299 
L 194.713634 46.309148 
L 195.411372 47.355715 
L 196.109111 47.746273 
L 196.80685 47.696293 
L 198.202328 47.302455 
L 198.900067 47.372014 
L 199.597806 47.749854 
L 200.295545 48.429505 
L 200.993284 49.368368 
L 201.691023 50.540563 
L 202.388762 51.964532 
L 203.78424 55.658948 
L 205.179718 59.691639 
L 205.877456 60.958608 
L 206.575195 61.029259 
L 207.272934 59.435035 
L 207.970673 55.914982 
L 208.668412 50.489297 
L 210.06389 35.537336 
L 211.459368 20.128507 
L 212.157107 14.276432 
L 212.854846 10.397622 
L 213.552585 8.660932 
L 214.250324 8.897326 
L 214.948063 10.644219 
L 217.041279 18.460754 
L 217.739018 20.308236 
L 219.832235 24.386712 
L 220.529974 26.685197 
L 221.227713 30.043978 
L 221.925452 34.464709 
L 223.32093 44.761266 
L 224.018669 49.023979 
L 224.716408 51.430516 
L 225.414147 51.278995 
L 226.111886 48.368746 
L 226.809624 43.093873 
L 227.507363 36.338074 
L 227.507363 36.338074 
" style="fill:none;stroke:#5e4fa2;stroke-linecap:round;"/>
   </g>
   <g id="line2d_13">
    <path clip-path="url(#p4978415072)" d="M 72.60932 36.354717 
L 228.529624 36.354717 
L 228.529624 36.354717 
" style="fill:none;stroke:#5e4fa2;stroke-dasharray:1,1.65;stroke-dashoffset:0;stroke-linecap:round;"/>
   </g>
   <g id="line2d_14">
    <path clip-path="url(#p4978415072)" d="M 30.744984 117.350791 
L 31.442723 117.014913 
L 32.140462 116.127322 
L 35.629157 110.058986 
L 37.024635 107.35117 
L 38.420113 104.253106 
L 39.815591 100.704911 
L 41.908807 94.611007 
L 45.397502 84.457057 
L 47.490719 78.981874 
L 48.886197 75.805814 
L 50.281675 73.143046 
L 53.770369 67.366181 
L 56.561325 61.563795 
L 57.259064 60.816038 
L 57.956803 60.677359 
L 58.654542 61.157289 
L 59.352281 62.147561 
L 66.32967 75.444589 
L 72.60932 88.085978 
L 74.004798 90.312022 
L 74.702537 91.208124 
L 75.400276 91.921892 
L 76.098015 92.436927 
L 76.795754 92.758837 
L 77.493493 92.918109 
L 78.888971 92.941378 
L 80.982188 92.723215 
L 82.377665 92.310542 
L 83.075404 91.935752 
L 84.470882 90.805163 
L 86.564099 88.552246 
L 88.657316 86.074565 
L 90.750533 83.183394 
L 93.541488 79.274545 
L 95.634705 76.292631 
L 97.030183 73.923997 
L 100.518878 67.434756 
L 101.216617 66.464907 
L 101.914356 65.807904 
L 102.612094 65.52576 
L 103.309833 65.629733 
L 104.007572 66.072874 
L 105.40305 67.565102 
L 106.798528 69.135384 
L 110.984962 73.364204 
L 116.566873 79.9672 
L 117.962351 81.081999 
L 119.357829 81.802917 
L 120.753307 82.13787 
L 124.242001 82.533609 
L 125.637479 82.80118 
L 127.032957 82.798303 
L 128.428435 82.377101 
L 129.823913 81.523475 
L 131.91713 79.970984 
L 133.312607 79.2712 
L 135.405824 78.391715 
L 136.103563 77.920021 
L 137.499041 76.536431 
L 138.894519 74.648644 
L 143.080953 68.381187 
L 144.47643 66.871233 
L 145.174169 66.344164 
L 145.871908 66.049574 
L 146.569647 66.046608 
L 147.267386 66.3552 
L 147.965125 66.932128 
L 150.756081 69.798251 
L 153.547037 72.265525 
L 159.128948 77.461417 
L 160.524426 78.238288 
L 161.919904 78.658368 
L 163.315382 78.775281 
L 166.804076 78.823138 
L 168.897293 78.610196 
L 170.292771 78.747873 
L 171.688249 78.988368 
L 173.083727 78.98603 
L 174.479205 78.727063 
L 176.572421 78.076605 
L 178.665638 77.196018 
L 180.061116 76.445818 
L 181.456594 75.404278 
L 182.154333 74.673602 
L 183.549811 72.732348 
L 184.945288 70.615563 
L 185.643027 69.759069 
L 186.340766 69.137586 
L 187.038505 68.760258 
L 187.736244 68.589461 
L 189.131722 68.63621 
L 190.5272 68.967787 
L 191.922678 69.620838 
L 193.318156 70.64317 
L 194.713634 71.694665 
L 196.109111 72.319896 
L 197.504589 72.715201 
L 198.202328 73.020402 
L 199.597806 73.994654 
L 201.691023 75.666609 
L 203.086501 76.387462 
L 205.179718 77.050687 
L 206.575195 77.338051 
L 207.970673 77.396261 
L 218.436757 76.447231 
L 221.227713 75.94706 
L 222.623191 75.528325 
L 224.018669 74.773599 
L 224.716408 74.210841 
L 226.111886 72.642868 
L 227.507363 70.615834 
L 227.507363 70.615834 
" style="fill:none;stroke:#d8434e;stroke-linecap:round;"/>
   </g>
   <g id="patch_3">
    <path d="M 30.744984 117.350791 
L 30.744984 0.72 
" style="fill:none;stroke:#000000;stroke-linecap:square;stroke-linejoin:miter;stroke-width:0.35;"/>
   </g>
   <g id="patch_4">
    <path d="M 226.809624 117.350791 
L 226.809624 0.72 
" style="fill:none;stroke:#000000;stroke-linecap:square;stroke-linejoin:miter;stroke-width:0.35;"/>
   </g>
   <g id="patch_5">
    <path d="M 30.744984 117.350791 
L 226.809624 117.350791 
" style="fill:none;stroke:#000000;stroke-linecap:square;stroke-linejoin:miter;stroke-width:0.35;"/>
   </g>
   <g id="patch_6">
    <path d="M 30.744984 0.72 
L 226.809624 0.72 
" style="fill:none;stroke:#000000;stroke-linecap:square;stroke-linejoin:miter;stroke-width:0.35;"/>
   </g>
   <g id="text_13">
    <!-- $V = 0.250J,\; V^\prime = 0$ -->
    <g transform="translate(44.469509 115.018175)scale(0.08 -0.08)">
     <defs>
      <path d="M 3962 3640 
C 4179 3984 4378 4136 4704 4162 
C 4768 4168 4819 4168 4819 4282 
C 4819 4308 4806 4346 4749 4346 
C 4634 4346 4358 4346 4243 4346 
C 4058 4346 3866 4346 3686 4346 
C 3635 4346 3571 4346 3571 4226 
C 3571 4168 3629 4162 3654 4162 
C 3891 4143 3917 4029 3917 3952 
C 3917 3857 3827 3710 3821 3704 
L 1811 540 
L 1363 3969 
C 1363 4160 1696 4160 1766 4160 
C 1862 4160 1920 4160 1920 4282 
C 1920 4346 1850 4346 1830 4346 
C 1722 4346 1594 4346 1485 4346 
L 1126 4346 
C 659 4346 467 4346 461 4346 
C 422 4346 346 4346 346 4230 
C 346 4160 390 4160 493 4160 
C 819 4160 838 4102 858 3944 
L 1370 24 
C 1389 -109 1389 -128 1478 -128 
C 1555 -128 1587 -109 1651 -8 
L 3962 3640 
z
" id="CMMI12-56" transform="scale(0.015625)"/>
      <path d="M 4115 2017 
C 4211 2017 4307 2017 4307 2125 
C 4307 2240 4198 2240 4090 2240 
L 512 2240 
C 403 2240 294 2240 294 2125 
C 294 2017 390 2017 486 2017 
L 4115 2017 
z
M 4090 896 
C 4198 896 4307 896 4307 1011 
C 4307 1119 4211 1119 4115 1119 
L 486 1119 
C 390 1119 294 1119 294 1011 
C 294 896 403 896 512 896 
L 4090 896 
z
" id="CMR17-3d" transform="scale(0.015625)"/>
      <path d="M 1248 -31 
C 1248 343 1126 619 864 619 
C 659 619 557 453 557 313 
C 557 172 653 0 870 0 
C 954 0 1024 26 1082 83 
C 1094 96 1101 96 1107 96 
C 1120 96 1120 5 1120 -27 
C 1120 -240 1082 -659 710 -1080 
C 640 -1157 640 -1170 640 -1183 
C 640 -1216 672 -1248 704 -1248 
C 755 -1248 1248 -771 1248 -31 
z
" id="CMMI12-3b" transform="scale(0.015625)"/>
      <path d="M 1619 3040 
C 1651 3117 1677 3174 1677 3238 
C 1677 3424 1510 3578 1312 3578 
C 1133 3578 1018 3456 973 3290 
L 211 493 
C 211 480 186 410 186 403 
C 186 333 352 288 403 288 
C 442 288 448 307 486 390 
L 1619 3040 
z
" id="CMSY10-30" transform="scale(0.015625)"/>
     </defs>
     <use transform="scale(0.996264)" xlink:href="#CMMI12-56"/>
     <use transform="translate(106.221329 0)scale(0.996264)" xlink:href="#CMR17-3d"/>
     <use transform="translate(205.610127 0)scale(0.996264)" xlink:href="#CMR17-30"/>
     <use transform="translate(251.300604 0)scale(0.996264)" xlink:href="#CMMI12-3a"/>
     <use transform="translate(278.397781 0)scale(0.996264)" xlink:href="#CMR17-32"/>
     <use transform="translate(324.088258 0)scale(0.996264)" xlink:href="#CMR17-35"/>
     <use transform="translate(369.778735 0)scale(0.996264)" xlink:href="#CMR17-30"/>
     <use transform="translate(415.469212 0)scale(0.996264)" xlink:href="#CMMI12-4a"/>
     <use transform="translate(467.773012 0)scale(0.996264)" xlink:href="#CMMI12-3b"/>
     <use transform="translate(539.148603 0)scale(0.996264)" xlink:href="#CMMI12-56"/>
     <use transform="translate(617.695924 36.153639)scale(0.697382)" xlink:href="#CMSY10-30"/>
     <use transform="translate(665.046025 0)scale(0.996264)" xlink:href="#CMR17-3d"/>
     <use transform="translate(764.434822 0)scale(0.996264)" xlink:href="#CMR17-30"/>
    </g>
   </g>
   <g id="text_14">
    <!-- $L = 26, N = 13, \ell = 13, n = 6$ -->
    <g transform="translate(44.469509 105.687712)scale(0.08 -0.08)">
     <defs>
      <path d="M 2349 3861 
C 2406 4103 2426 4167 2989 4167 
C 3162 4167 3206 4167 3206 4288 
C 3206 4352 3136 4352 3110 4352 
C 2982 4352 2835 4352 2707 4352 
L 1850 4352 
C 1728 4352 1587 4352 1466 4352 
C 1414 4352 1344 4352 1344 4231 
C 1344 4167 1402 4167 1498 4167 
C 1888 4167 1888 4116 1888 4046 
C 1888 4034 1888 3995 1862 3899 
L 998 472 
C 941 249 928 185 480 185 
C 358 185 294 185 294 70 
C 294 0 333 0 461 0 
L 3328 0 
C 3469 0 3475 6 3520 121 
L 4013 1478 
C 4026 1510 4038 1548 4038 1567 
C 4038 1605 4006 1631 3974 1631 
C 3968 1631 3936 1631 3923 1605 
C 3910 1599 3910 1586 3859 1465 
C 3654 905 3366 185 2285 185 
L 1670 185 
C 1581 185 1568 185 1530 192 
C 1459 198 1453 211 1453 262 
C 1453 307 1466 345 1478 401 
L 2349 3861 
z
" id="CMMI12-4c" transform="scale(0.015625)"/>
      <path d="M 4736 3698 
C 4806 3974 4909 4166 5395 4166 
C 5414 4166 5491 4166 5491 4279 
C 5491 4352 5434 4352 5408 4352 
C 5280 4352 4954 4352 4826 4352 
L 4518 4352 
C 4429 4352 4314 4352 4224 4352 
C 4186 4352 4109 4352 4109 4230 
C 4109 4166 4160 4166 4205 4166 
C 4589 4166 4614 4019 4614 3903 
C 4614 3846 4608 3826 4589 3737 
L 3866 850 
L 2496 4249 
C 2451 4352 2445 4352 2304 4352 
L 1523 4352 
C 1395 4352 1338 4352 1338 4230 
C 1338 4166 1382 4166 1504 4166 
C 1536 4166 1914 4166 1914 4115 
C 1914 4102 1901 4051 1894 4032 
L 1043 635 
C 966 320 813 186 390 186 
C 358 186 294 186 294 67 
C 294 0 358 0 378 0 
C 506 0 832 0 960 0 
L 1267 0 
C 1357 0 1466 0 1555 0 
C 1600 0 1670 0 1670 122 
C 1670 180 1606 186 1581 186 
C 1370 186 1165 224 1165 454 
C 1165 505 1178 562 1190 613 
L 2054 4032 
C 2093 3968 2093 3956 2118 3898 
L 3642 115 
C 3674 38 3686 0 3744 0 
C 3808 0 3814 19 3840 128 
L 4736 3698 
z
" id="CMMI12-4e" transform="scale(0.015625)"/>
      <path d="M 1414 2157 
C 1984 2157 2234 1662 2234 1090 
C 2234 320 1824 25 1453 25 
C 1114 25 563 194 390 693 
C 422 680 454 680 486 680 
C 640 680 755 782 755 948 
C 755 1133 614 1216 486 1216 
C 378 1216 211 1165 211 926 
C 211 335 787 -128 1466 -128 
C 2176 -128 2720 430 2720 1085 
C 2720 1707 2208 2157 1600 2227 
C 2086 2328 2554 2756 2554 3329 
C 2554 3820 2048 4179 1472 4179 
C 890 4179 378 3829 378 3329 
C 378 3110 544 3072 627 3072 
C 762 3072 877 3155 877 3321 
C 877 3486 762 3569 627 3569 
C 602 3569 570 3569 544 3557 
C 730 3959 1235 4032 1459 4032 
C 1683 4032 2106 3925 2106 3320 
C 2106 3143 2080 2828 1862 2550 
C 1670 2304 1453 2304 1242 2284 
C 1210 2284 1062 2269 1037 2269 
C 992 2263 966 2257 966 2208 
C 966 2163 973 2157 1101 2157 
L 1414 2157 
z
" id="CMR17-33" transform="scale(0.015625)"/>
      <path d="M 589 1088 
C 186 692 83 597 83 572 
C 83 546 109 501 154 501 
C 186 501 550 851 602 909 
C 640 482 800 -73 1299 -73 
C 1555 -73 1786 86 1888 163 
C 1971 227 2278 488 2278 546 
C 2278 578 2246 616 2214 616 
C 2189 616 2093 520 2067 495 
C 1843 278 1562 55 1306 55 
C 960 55 915 552 915 897 
C 915 960 915 1228 960 1279 
C 1338 1667 2522 2886 2522 4014 
C 2522 4269 2426 4492 2150 4492 
C 1555 4492 1037 3178 947 2936 
C 922 2873 550 1891 589 1088 
z
M 973 1471 
C 979 1509 1267 3186 1805 4082 
C 1914 4255 2022 4364 2150 4364 
C 2368 4364 2381 4159 2381 4018 
C 2381 3794 2317 3218 1760 2412 
C 1594 2175 1338 1855 973 1471 
z
" id="CMMI12-60" transform="scale(0.015625)"/>
      <path d="M 1318 1871 
C 1331 1910 1491 2229 1728 2433 
C 1894 2586 2112 2689 2362 2689 
C 2618 2689 2707 2497 2707 2242 
C 2707 1878 2445 1150 2317 805 
C 2259 651 2227 568 2227 453 
C 2227 166 2426 -64 2733 -64 
C 3328 -64 3552 875 3552 913 
C 3552 945 3526 971 3488 971 
C 3430 971 3424 952 3392 843 
C 3245 319 3002 64 2752 64 
C 2688 64 2586 64 2586 269 
C 2586 429 2656 621 2694 710 
C 2822 1063 3091 1780 3091 2145 
C 3091 2528 2867 2816 2381 2816 
C 1811 2816 1510 2415 1395 2255 
C 1376 2618 1114 2816 832 2816 
C 627 2816 486 2695 378 2478 
C 262 2248 173 1865 173 1839 
C 173 1814 198 1782 243 1782 
C 294 1782 301 1788 339 1935 
C 442 2325 557 2689 813 2689 
C 960 2689 1011 2586 1011 2395 
C 1011 2254 947 2005 902 1807 
L 723 1118 
C 698 996 627 709 595 594 
C 550 428 480 128 480 96 
C 480 6 550 -64 646 -64 
C 723 -64 813 -26 864 70 
C 877 102 934 326 966 453 
L 1107 1028 
L 1318 1871 
z
" id="CMMI12-6e" transform="scale(0.015625)"/>
     </defs>
     <use transform="scale(0.996264)" xlink:href="#CMMI12-4c"/>
     <use transform="translate(94.044884 0)scale(0.996264)" xlink:href="#CMR17-3d"/>
     <use transform="translate(193.433681 0)scale(0.996264)" xlink:href="#CMR17-32"/>
     <use transform="translate(239.124158 0)scale(0.996264)" xlink:href="#CMR17-36"/>
     <use transform="translate(284.814636 0)scale(0.996264)" xlink:href="#CMMI12-3b"/>
     <use transform="translate(328.516218 0)scale(0.996264)" xlink:href="#CMMI12-4e"/>
     <use transform="translate(444.711999 0)scale(0.996264)" xlink:href="#CMR17-3d"/>
     <use transform="translate(544.100796 0)scale(0.996264)" xlink:href="#CMR17-31"/>
     <use transform="translate(589.791273 0)scale(0.996264)" xlink:href="#CMR17-33"/>
     <use transform="translate(635.481751 0)scale(0.996264)" xlink:href="#CMMI12-3b"/>
     <use transform="translate(679.183333 0)scale(0.996264)" xlink:href="#CMMI12-60"/>
     <use transform="translate(747.791561 0)scale(0.996264)" xlink:href="#CMR17-3d"/>
     <use transform="translate(847.180358 0)scale(0.996264)" xlink:href="#CMR17-31"/>
     <use transform="translate(892.870835 0)scale(0.996264)" xlink:href="#CMR17-33"/>
     <use transform="translate(938.561312 0)scale(0.996264)" xlink:href="#CMMI12-3b"/>
     <use transform="translate(982.262895 0)scale(0.996264)" xlink:href="#CMMI12-6e"/>
     <use transform="translate(1068.166951 0)scale(0.996264)" xlink:href="#CMR17-3d"/>
     <use transform="translate(1167.555748 0)scale(0.996264)" xlink:href="#CMR17-36"/>
    </g>
   </g>
   <g id="legend_1">
    <g id="line2d_15">
     <path d="M 171.190232 98.901838 
L 179.190232 98.901838 
" style="fill:none;stroke:#5e4fa2;stroke-linecap:round;"/>
    </g>
    <g id="line2d_16"/>
    <g id="text_15">
     <!-- particle -->
     <g transform="translate(183.190232 101.701838)scale(0.08 -0.08)">
      <defs>
       <path d="M 1408 -1063 
C 998 -1063 973 -1037 973 -789 
L 973 402 
C 1158 134 1427 -38 1766 -38 
C 2406 -38 3053 523 3053 1388 
C 3053 2191 2496 2802 1837 2802 
C 1453 2802 1139 2592 960 2338 
L 960 2802 
L 198 2732 
L 198 2567 
C 576 2567 634 2528 634 2223 
L 634 -789 
C 634 -1031 608 -1063 198 -1063 
L 198 -1228 
C 352 -1216 634 -1216 800 -1216 
C 966 -1216 1254 -1216 1408 -1228 
L 1408 -1063 
z
M 973 2012 
C 973 2102 973 2235 1222 2471 
C 1254 2497 1472 2688 1792 2688 
C 2259 2688 2643 2108 2643 1382 
C 2643 656 2234 64 1728 64 
C 1498 64 1248 172 1056 472 
C 973 612 973 650 973 752 
L 973 2012 
z
" id="CMR17-70" transform="scale(0.015625)"/>
       <path d="M 2234 2240 
C 2112 2240 1933 2240 1933 2017 
C 1933 1838 2080 1787 2163 1787 
C 2208 1787 2394 1807 2394 2024 
C 2394 2467 1958 2803 1466 2803 
C 787 2803 211 2178 211 1363 
C 211 516 813 -64 1466 -64 
C 2259 -64 2458 677 2458 748 
C 2458 774 2451 793 2406 793 
C 2362 793 2355 787 2330 703 
C 2163 180 1798 51 1523 51 
C 1114 51 621 427 621 1369 
C 621 2338 1094 2688 1472 2688 
C 1722 2688 2093 2573 2234 2240 
z
" id="CMR17-63" transform="scale(0.015625)"/>
      </defs>
      <use transform="scale(0.996264)" xlink:href="#CMR17-70"/>
      <use transform="translate(50.89537 0)scale(0.996264)" xlink:href="#CMR17-61"/>
      <use transform="translate(96.585847 0)scale(0.996264)" xlink:href="#CMR17-72"/>
      <use transform="translate(131.866615 0)scale(0.996264)" xlink:href="#CMR17-74"/>
      <use transform="translate(167.147382 0)scale(0.996264)" xlink:href="#CMR17-69"/>
      <use transform="translate(192.018441 0)scale(0.996264)" xlink:href="#CMR17-63"/>
      <use transform="translate(232.504101 0)scale(0.996264)" xlink:href="#CMR17-6c"/>
      <use transform="translate(257.37516 0)scale(0.996264)" xlink:href="#CMR17-65"/>
     </g>
    </g>
    <g id="line2d_17">
     <path d="M 171.190232 108.051584 
L 179.190232 108.051584 
" style="fill:none;stroke:#d8434e;stroke-linecap:round;"/>
    </g>
    <g id="line2d_18"/>
    <g id="text_16">
     <!-- spatial -->
     <g transform="translate(183.190232 110.851584)scale(0.08 -0.08)">
      <defs>
       <path d="M 1978 2697 
C 1978 2813 1971 2819 1933 2819 
C 1907 2819 1901 2813 1824 2717 
C 1805 2691 1747 2626 1728 2601 
C 1523 2819 1235 2819 1126 2819 
C 416 2819 160 2447 160 2076 
C 160 1498 813 1365 998 1325 
C 1402 1243 1542 1217 1677 1101 
C 1760 1025 1901 884 1901 654 
C 1901 384 1747 38 1158 38 
C 602 38 403 460 288 1021 
C 269 1110 269 1117 218 1117 
C 166 1117 160 1110 160 983 
L 160 63 
C 160 -51 166 -58 205 -58 
C 237 -58 243 -51 275 0 
C 314 57 410 211 448 276 
C 576 103 800 -64 1158 -64 
C 1792 -64 2131 283 2131 784 
C 2131 1112 1958 1285 1875 1362 
C 1683 1561 1459 1606 1190 1657 
C 838 1735 390 1825 390 2217 
C 390 2383 480 2737 1126 2737 
C 1811 2737 1850 2094 1862 1888 
C 1869 1856 1901 1849 1920 1849 
C 1978 1849 1978 1869 1978 1978 
L 1978 2697 
z
" id="CMR17-73" transform="scale(0.015625)"/>
      </defs>
      <use transform="scale(0.996264)" xlink:href="#CMR17-73"/>
      <use transform="translate(35.801338 0)scale(0.996264)" xlink:href="#CMR17-70"/>
      <use transform="translate(86.696707 0)scale(0.996264)" xlink:href="#CMR17-61"/>
      <use transform="translate(132.387185 0)scale(0.996264)" xlink:href="#CMR17-74"/>
      <use transform="translate(167.667952 0)scale(0.996264)" xlink:href="#CMR17-69"/>
      <use transform="translate(192.539011 0)scale(0.996264)" xlink:href="#CMR17-61"/>
      <use transform="translate(238.229488 0)scale(0.996264)" xlink:href="#CMR17-6c"/>
     </g>
    </g>
   </g>
  </g>
 </g>
 <defs>
  <clipPath id="p4978415072">
   <rect height="116.630791" width="196.06464" x="30.744984" y="0.72"/>
  </clipPath>
 </defs>
</svg>
