<?xml version="1.0" encoding="utf-8" standalone="no"?>
<!DOCTYPE svg PUBLIC "-//W3C//DTD SVG 1.1//EN"
  "http://www.w3.org/Graphics/SVG/1.1/DTD/svg11.dtd">
<!-- Created with matplotlib (https://matplotlib.org/) -->
<svg height="140.098638pt" version="1.1" viewBox="0 0 282.79089 140.098638" width="282.79089pt" xmlns="http://www.w3.org/2000/svg" xmlns:xlink="http://www.w3.org/1999/xlink">
 <defs>
  <style type="text/css">
*{stroke-linecap:butt;stroke-linejoin:round;}
  </style>
 </defs>
 <g id="figure_1">
  <g id="patch_1">
   <path d="M 0 140.098638 
L 282.79089 140.098638 
L 282.79089 0 
L 0 0 
z
" style="fill:none;"/>
  </g>
  <g id="axes_1">
   <g id="patch_2">
    <path d="M 30.80625 117.386138 
L 226.87089 117.386138 
L 226.87089 0.755347 
L 30.80625 0.755347 
z
" style="fill:none;"/>
   </g>
   <g id="PolyCollection_1">
    <defs>
     <path d="M 211.232801 -28.098611 
L 211.232801 -27.976552 
L 217.958861 -27.976552 
L 217.958861 -28.098611 
L 217.958861 -28.098611 
L 211.232801 -28.098611 
z
" id="mcb3e1e252b" style="stroke:#5e4fa2;stroke-opacity:0.6;"/>
    </defs>
    <g>
     <use style="fill:#5e4fa2;fill-opacity:0.6;stroke:#5e4fa2;stroke-opacity:0.6;" x="0" xlink:href="#mcb3e1e252b" y="140.098638"/>
    </g>
   </g>
   <g id="PolyCollection_2">
    <defs>
     <path d="M 211.232801 -27.74301 
L 211.232801 -27.650138 
L 217.958861 -27.650138 
L 217.958861 -27.74301 
L 217.958861 -27.74301 
L 211.232801 -27.74301 
z
" id="m74e5477912" style="stroke:#486cb0;stroke-opacity:0.6;"/>
    </defs>
    <g>
     <use style="fill:#486cb0;fill-opacity:0.6;stroke:#486cb0;stroke-opacity:0.6;" x="0" xlink:href="#m74e5477912" y="140.098638"/>
    </g>
   </g>
   <g id="PolyCollection_3">
    <defs>
     <path d="M 211.232801 -36.060237 
L 211.232801 -35.831049 
L 217.958861 -35.831049 
L 217.958861 -36.060237 
L 217.958861 -36.060237 
L 211.232801 -36.060237 
z
" id="m088d4296e7" style="stroke:#3389bd;stroke-opacity:0.6;"/>
    </defs>
    <g>
     <use style="fill:#3389bd;fill-opacity:0.6;stroke:#3389bd;stroke-opacity:0.6;" x="0" xlink:href="#m088d4296e7" y="140.098638"/>
    </g>
   </g>
   <g id="PolyCollection_4">
    <defs>
     <path d="M 211.232801 -34.659061 
L 211.232801 -34.507997 
L 217.958861 -34.507997 
L 217.958861 -34.659061 
L 217.958861 -34.659061 
L 211.232801 -34.659061 
z
" id="m5131ed8f96" style="stroke:#50a9af;stroke-opacity:0.6;"/>
    </defs>
    <g>
     <use style="fill:#50a9af;fill-opacity:0.6;stroke:#50a9af;stroke-opacity:0.6;" x="0" xlink:href="#m5131ed8f96" y="140.098638"/>
    </g>
   </g>
   <g id="PolyCollection_5">
    <defs>
     <path d="M 211.232801 -69.163296 
L 211.232801 -67.500787 
L 217.958861 -67.500787 
L 217.958861 -69.163296 
L 217.958861 -69.163296 
L 211.232801 -69.163296 
z
" id="maca35632c9" style="stroke:#6bc4a5;stroke-opacity:0.6;"/>
    </defs>
    <g>
     <use style="fill:#6bc4a5;fill-opacity:0.6;stroke:#6bc4a5;stroke-opacity:0.6;" x="0" xlink:href="#maca35632c9" y="140.098638"/>
    </g>
   </g>
   <g id="PolyCollection_6">
    <defs>
     <path d="M 211.232801 -95.568283 
L 211.232801 -94.547827 
L 217.958861 -94.547827 
L 217.958861 -95.568283 
L 217.958861 -95.568283 
L 211.232801 -95.568283 
z
" id="m673aac654d" style="stroke:#91d3a4;stroke-opacity:0.6;"/>
    </defs>
    <g>
     <use style="fill:#91d3a4;fill-opacity:0.6;stroke:#91d3a4;stroke-opacity:0.6;" x="0" xlink:href="#m673aac654d" y="140.098638"/>
    </g>
   </g>
   <g id="matplotlib.axis_1">
    <g id="xtick_1">
     <g id="line2d_1">
      <defs>
       <path d="M 0 0 
L 0 2 
" id="m6f53a5ec76" style="stroke:#000000;stroke-width:0.35;"/>
      </defs>
      <g>
       <use style="stroke:#000000;stroke-width:0.35;" x="39.718279" xlink:href="#m6f53a5ec76" y="117.386138"/>
      </g>
     </g>
     <g id="text_1">
      <!-- 1 -->
      <defs>
       <path d="M 30.203125 52.40625 
L 12 52.40625 
L 12 56.59375 
Q 16 56.90625 19.25 57.40625 
Q 22.5 57.90625 24.953125 59.296875 
Q 27.40625 60.703125 29.046875 63.34375 
Q 30.703125 66 31.5 70.5 
L 36.59375 70.5 
L 36.59375 0 
L 30.203125 0 
z
" id="Helvetica-Light-49"/>
      </defs>
      <g transform="translate(37.494529 128.146138)scale(0.08 -0.08)">
       <use xlink:href="#Helvetica-Light-49"/>
      </g>
     </g>
    </g>
    <g id="xtick_2">
     <g id="line2d_2">
      <g>
       <use style="stroke:#000000;stroke-width:0.35;" x="73.348578" xlink:href="#m6f53a5ec76" y="117.386138"/>
      </g>
     </g>
     <g id="text_2">
      <!-- 2 -->
      <defs>
       <path d="M 6.90625 47.40625 
Q 6.90625 52.59375 8.5 56.84375 
Q 10.09375 61.09375 13.09375 64.140625 
Q 16.09375 67.203125 20.34375 68.84375 
Q 24.59375 70.5 29.796875 70.5 
Q 35.09375 70.5 39.140625 68.953125 
Q 43.203125 67.40625 45.953125 64.796875 
Q 48.703125 62.203125 50.09375 58.59375 
Q 51.5 55 51.5 51 
Q 51.5 46.296875 49.953125 42.6875 
Q 48.40625 39.09375 45.84375 36.296875 
Q 43.296875 33.5 40.046875 31.296875 
Q 36.796875 29.09375 33.390625 27.140625 
Q 30 25.203125 26.703125 23.390625 
Q 23.40625 21.59375 20.796875 19.59375 
Q 19.09375 18.296875 17.5 16.84375 
Q 15.90625 15.40625 14.59375 13.703125 
Q 13.296875 12 12.5 9.953125 
Q 11.703125 7.90625 11.59375 5.40625 
L 50.90625 5.40625 
L 50.90625 0 
L 4.796875 0 
Q 4.90625 5.09375 5.90625 9.1875 
Q 6.90625 13.296875 10.296875 17.203125 
Q 14 21.40625 17.953125 24.40625 
Q 21.90625 27.40625 25.703125 29.75 
Q 29.5 32.09375 32.890625 34.046875 
Q 36.296875 36 38.890625 38.296875 
Q 41.5 40.59375 43 43.5 
Q 44.5 46.40625 44.5 50.59375 
Q 44.5 54 43.296875 56.703125 
Q 42.09375 59.40625 40 61.296875 
Q 37.90625 63.203125 35.09375 64.140625 
Q 32.296875 65.09375 29 65.09375 
Q 25.5 65.09375 22.640625 63.640625 
Q 19.796875 62.203125 17.75 59.796875 
Q 15.703125 57.40625 14.59375 54.203125 
Q 13.5 51 13.703125 47.40625 
z
" id="Helvetica-Light-50"/>
      </defs>
      <g transform="translate(71.124828 128.146138)scale(0.08 -0.08)">
       <use xlink:href="#Helvetica-Light-50"/>
      </g>
     </g>
    </g>
    <g id="xtick_3">
     <g id="line2d_3">
      <g>
       <use style="stroke:#000000;stroke-width:0.35;" x="106.978876" xlink:href="#m6f53a5ec76" y="117.386138"/>
      </g>
     </g>
     <g id="text_3">
      <!-- 3 -->
      <defs>
       <path d="M 22.09375 39.203125 
Q 26.59375 39.203125 30.296875 39.75 
Q 34 40.296875 36.640625 41.84375 
Q 39.296875 43.40625 40.796875 46 
Q 42.296875 48.59375 42.296875 52.703125 
Q 42.296875 56 41.09375 58.34375 
Q 39.90625 60.703125 37.84375 62.203125 
Q 35.796875 63.703125 33.046875 64.390625 
Q 30.296875 65.09375 27.296875 65.09375 
Q 23.90625 65.09375 21.15625 64 
Q 18.40625 62.90625 16.40625 60.84375 
Q 14.40625 58.796875 13.296875 56.046875 
Q 12.203125 53.296875 12.203125 50 
L 5.796875 50 
Q 5.796875 54.796875 7.4375 58.640625 
Q 9.09375 62.5 12.59375 65.796875 
Q 15.90625 68.796875 20.046875 69.640625 
Q 24.203125 70.5 28.59375 70.5 
Q 32.796875 70.5 36.4375 69.453125 
Q 40.09375 68.40625 42.796875 66.25 
Q 45.5 64.09375 47.09375 60.796875 
Q 48.703125 57.5 48.703125 53.09375 
Q 48.703125 47.59375 46.25 43.59375 
Q 43.796875 39.59375 38.703125 37.40625 
Q 42.5 36.203125 44.953125 34.25 
Q 47.40625 32.296875 48.796875 29.9375 
Q 50.203125 27.59375 50.703125 25 
Q 51.203125 22.40625 51.203125 20 
Q 51.203125 15.59375 49.703125 11.796875 
Q 48.203125 8 45.296875 5.09375 
Q 42.40625 2.203125 38.15625 0.453125 
Q 33.90625 -1.296875 28.5 -1.40625 
Q 22.40625 -1.40625 17.90625 -0.296875 
Q 13.40625 0.796875 10.40625 3.34375 
Q 7.40625 5.90625 5.703125 10.046875 
Q 4 14.203125 3.40625 20.40625 
L 9.796875 20.40625 
Q 9.796875 12.296875 14.640625 8.140625 
Q 19.5 4 27.296875 4 
Q 31.09375 4 34.390625 5.296875 
Q 37.703125 6.59375 40.046875 8.796875 
Q 42.40625 11 43.65625 13.890625 
Q 44.90625 16.796875 44.796875 19.90625 
Q 44.59375 24.203125 42.796875 27.046875 
Q 41 29.90625 37.953125 31.546875 
Q 34.90625 33.203125 30.796875 33.75 
Q 26.703125 34.296875 22.09375 34 
z
" id="Helvetica-Light-51"/>
      </defs>
      <g transform="translate(104.755126 128.146138)scale(0.08 -0.08)">
       <use xlink:href="#Helvetica-Light-51"/>
      </g>
     </g>
    </g>
    <g id="xtick_4">
     <g id="line2d_4">
      <g>
       <use style="stroke:#000000;stroke-width:0.35;" x="140.609174" xlink:href="#m6f53a5ec76" y="117.386138"/>
      </g>
     </g>
     <g id="text_4">
      <!-- 4 -->
      <defs>
       <path d="M 35.796875 17.40625 
L 3.59375 17.40625 
L 3.59375 22.90625 
L 36.40625 69.796875 
L 42.203125 69.796875 
L 42.203125 22.796875 
L 52 22.796875 
L 52 17.40625 
L 42.203125 17.40625 
L 42.203125 0 
L 35.796875 0 
z
M 9.90625 22.796875 
L 35.796875 22.796875 
L 35.796875 60.203125 
z
" id="Helvetica-Light-52"/>
      </defs>
      <g transform="translate(138.385424 128.146138)scale(0.08 -0.08)">
       <use xlink:href="#Helvetica-Light-52"/>
      </g>
     </g>
    </g>
    <g id="xtick_5">
     <g id="line2d_5">
      <g>
       <use style="stroke:#000000;stroke-width:0.35;" x="174.239473" xlink:href="#m6f53a5ec76" y="117.386138"/>
      </g>
     </g>
     <g id="text_5">
      <!-- 5 -->
      <defs>
       <path d="M 9.90625 18.296875 
Q 10.90625 11.09375 15.65625 7.546875 
Q 20.40625 4 27.296875 4 
Q 31.203125 4 34.34375 5.390625 
Q 37.5 6.796875 39.703125 9.25 
Q 41.90625 11.703125 43.046875 14.953125 
Q 44.203125 18.203125 44.203125 22 
Q 44.203125 25.90625 42.953125 29.203125 
Q 41.703125 32.5 39.453125 34.890625 
Q 37.203125 37.296875 33.953125 38.59375 
Q 30.703125 39.90625 26.703125 39.90625 
Q 21.90625 39.90625 18.09375 38.15625 
Q 14.296875 36.40625 11.40625 32.59375 
L 6.09375 33.296875 
L 11.796875 69.796875 
L 46.796875 69.796875 
L 46.796875 64.40625 
L 17.203125 64.40625 
L 12.796875 40.703125 
Q 14.90625 42 16.65625 42.890625 
Q 18.40625 43.796875 20.203125 44.34375 
Q 22 44.90625 23.953125 45.09375 
Q 25.90625 45.296875 28.296875 45.296875 
Q 33.09375 45.296875 37.1875 43.6875 
Q 41.296875 42.09375 44.296875 39.09375 
Q 47.296875 36.09375 48.9375 31.75 
Q 50.59375 27.40625 50.59375 22 
Q 50.59375 16.40625 48.75 12.046875 
Q 46.90625 7.703125 43.796875 4.703125 
Q 40.703125 1.703125 36.640625 0.140625 
Q 32.59375 -1.40625 28.296875 -1.40625 
Q 23.296875 -1.40625 18.9375 -0.40625 
Q 14.59375 0.59375 11.296875 2.9375 
Q 8 5.296875 5.953125 9.046875 
Q 3.90625 12.796875 3.5 18.296875 
z
" id="Helvetica-Light-53"/>
      </defs>
      <g transform="translate(172.015723 128.146138)scale(0.08 -0.08)">
       <use xlink:href="#Helvetica-Light-53"/>
      </g>
     </g>
    </g>
    <g id="xtick_6">
     <g id="line2d_6">
      <g>
       <use style="stroke:#000000;stroke-width:0.35;" x="207.869771" xlink:href="#m6f53a5ec76" y="117.386138"/>
      </g>
     </g>
     <g id="text_6">
      <!-- 6 -->
      <defs>
       <path d="M 43.703125 53.203125 
Q 42.59375 58.59375 39.296875 61.84375 
Q 36 65.09375 30.296875 65.09375 
Q 23.796875 65.09375 20.046875 62 
Q 16.296875 58.90625 14.296875 54.15625 
Q 12.296875 49.40625 11.59375 43.796875 
Q 10.90625 38.203125 10.5 33.203125 
Q 12 35.203125 13.640625 37.203125 
Q 15.296875 39.203125 17.390625 40.75 
Q 19.5 42.296875 22.296875 43.25 
Q 25.09375 44.203125 29 44.203125 
Q 39.703125 44.203125 45.546875 38.140625 
Q 51.40625 32.09375 51.40625 21.5 
Q 51.40625 10.796875 45.5 4.6875 
Q 39.59375 -1.40625 28.796875 -1.40625 
Q 23.5 -1.40625 19 0.34375 
Q 14.5 2.09375 11.203125 6.09375 
Q 7.90625 10.09375 6 16.546875 
Q 4.09375 23 4.09375 32.296875 
Q 4.09375 38.59375 5.1875 45.34375 
Q 6.296875 52.09375 9.140625 57.6875 
Q 12 63.296875 16.953125 66.890625 
Q 21.90625 70.5 29.703125 70.5 
Q 38.09375 70.5 43.6875 66.09375 
Q 49.296875 61.703125 50.296875 53.203125 
z
M 28.796875 38.796875 
Q 25.09375 38.796875 22.140625 37.390625 
Q 19.203125 36 17.140625 33.59375 
Q 15.09375 31.203125 14 28.046875 
Q 12.90625 24.90625 12.90625 21.296875 
Q 12.90625 18.296875 13.75 15.25 
Q 14.59375 12.203125 16.546875 9.703125 
Q 18.5 7.203125 21.5 5.59375 
Q 24.5 4 28.90625 4 
Q 33.40625 4 36.453125 5.546875 
Q 39.5 7.09375 41.390625 9.640625 
Q 43.296875 12.203125 44.140625 15.34375 
Q 45 18.5 45 21.703125 
Q 45 29.90625 41.046875 34.34375 
Q 37.09375 38.796875 28.796875 38.796875 
z
" id="Helvetica-Light-54"/>
      </defs>
      <g transform="translate(205.646021 128.146138)scale(0.08 -0.08)">
       <use xlink:href="#Helvetica-Light-54"/>
      </g>
     </g>
    </g>
    <g id="text_7">
     <!-- Bipartition Size  $n$ -->
     <defs>
      <path d="M 14.90625 5.796875 
L 32.203125 5.796875 
Q 37.796875 5.796875 41.9375 6.296875 
Q 46.09375 6.796875 48.796875 8.34375 
Q 51.5 9.90625 52.84375 12.75 
Q 54.203125 15.59375 54.203125 20.296875 
Q 54.203125 24.796875 52.703125 27.546875 
Q 51.203125 30.296875 48.390625 31.796875 
Q 45.59375 33.296875 41.6875 33.84375 
Q 37.796875 34.40625 33 34.40625 
L 14.90625 34.40625 
z
M 14.90625 40.203125 
L 32.09375 40.203125 
Q 37.40625 40.203125 41 41.09375 
Q 44.59375 42 46.796875 43.75 
Q 49 45.5 49.953125 48.046875 
Q 50.90625 50.59375 50.90625 53.90625 
Q 50.90625 57.296875 49.796875 59.640625 
Q 48.703125 62 46.296875 63.453125 
Q 43.90625 64.90625 40.046875 65.546875 
Q 36.203125 66.203125 30.59375 66.203125 
L 14.90625 66.203125 
z
M 8.09375 0 
L 8.09375 72 
L 34.09375 72 
Q 40.40625 72 44.90625 70.703125 
Q 49.40625 69.40625 52.25 67 
Q 55.09375 64.59375 56.390625 61.25 
Q 57.703125 57.90625 57.703125 53.90625 
Q 57.703125 50.09375 56.703125 47.34375 
Q 55.703125 44.59375 54.09375 42.75 
Q 52.5 40.90625 50.453125 39.84375 
Q 48.40625 38.796875 46.203125 38.40625 
L 46.203125 38.203125 
Q 53.703125 37.09375 57.34375 32.296875 
Q 61 27.5 61 20.296875 
Q 61 14.703125 59.25 10.796875 
Q 57.5 6.90625 54.390625 4.5 
Q 51.296875 2.09375 46.9375 1.046875 
Q 42.59375 0 37.5 0 
z
" id="Helvetica-Light-66"/>
      <path d="M 8.09375 0 
L 8.09375 51.796875 
L 14.09375 51.796875 
L 14.09375 0 
z
M 7.796875 63.09375 
L 7.796875 72 
L 14.40625 72 
L 14.40625 63.09375 
z
" id="Helvetica-Light-105"/>
      <path d="M 13.90625 25.703125 
Q 13.90625 21.296875 15.09375 17.34375 
Q 16.296875 13.40625 18.546875 10.453125 
Q 20.796875 7.5 24.046875 5.75 
Q 27.296875 4 31.40625 4 
Q 36 4 39.453125 5.84375 
Q 42.90625 7.703125 45.09375 10.890625 
Q 47.296875 14.09375 48.296875 18.34375 
Q 49.296875 22.59375 49.09375 27.5 
Q 49.09375 32.40625 47.75 36.15625 
Q 46.40625 39.90625 44 42.5 
Q 41.59375 45.09375 38.390625 46.4375 
Q 35.203125 47.796875 31.40625 47.796875 
Q 27.203125 47.796875 23.890625 46.09375 
Q 20.59375 44.40625 18.390625 41.453125 
Q 16.203125 38.5 15.046875 34.453125 
Q 13.90625 30.40625 13.90625 25.703125 
z
M 13.90625 -20.40625 
L 7.90625 -20.40625 
L 7.90625 51.796875 
L 13.90625 51.796875 
L 13.90625 42.703125 
L 14.09375 42.703125 
Q 15.40625 45.203125 17.453125 47.203125 
Q 19.5 49.203125 21.953125 50.5 
Q 24.40625 51.796875 27 52.5 
Q 29.59375 53.203125 32.09375 53.203125 
Q 38.40625 53.203125 42.796875 51.09375 
Q 47.203125 49 50.046875 45.34375 
Q 52.90625 41.703125 54.203125 36.703125 
Q 55.5 31.703125 55.5 26 
Q 55.5 20.59375 54.09375 15.59375 
Q 52.703125 10.59375 49.84375 6.84375 
Q 47 3.09375 42.640625 0.84375 
Q 38.296875 -1.40625 32.40625 -1.40625 
Q 26.90625 -1.40625 21.84375 1.046875 
Q 16.796875 3.5 13.90625 8.296875 
z
" id="Helvetica-Light-112"/>
      <path d="M 41.09375 27.203125 
Q 37.296875 25.59375 33.390625 25.09375 
Q 29.5 24.59375 25.59375 24.296875 
Q 18.703125 23.796875 14.84375 21.1875 
Q 11 18.59375 11 13.296875 
Q 11 10.90625 11.953125 9.15625 
Q 12.90625 7.40625 14.453125 6.25 
Q 16 5.09375 18.046875 4.546875 
Q 20.09375 4 22.203125 4 
Q 25.796875 4 29.1875 4.890625 
Q 32.59375 5.796875 35.25 7.640625 
Q 37.90625 9.5 39.5 12.34375 
Q 41.09375 15.203125 41.09375 19.09375 
z
M 31 30.203125 
Q 32.703125 30.40625 35.046875 30.796875 
Q 37.40625 31.203125 38.90625 31.90625 
Q 40.40625 32.59375 40.75 34.25 
Q 41.09375 35.90625 41.09375 37.296875 
Q 41.09375 41.90625 38.140625 44.84375 
Q 35.203125 47.796875 28.203125 47.796875 
Q 25.09375 47.796875 22.5 47.25 
Q 19.90625 46.703125 17.953125 45.34375 
Q 16 44 14.75 41.75 
Q 13.5 39.5 13.09375 36.09375 
L 7 36.09375 
Q 7.296875 40.703125 9.09375 43.953125 
Q 10.90625 47.203125 13.75 49.25 
Q 16.59375 51.296875 20.34375 52.25 
Q 24.09375 53.203125 28.296875 53.203125 
Q 32.203125 53.203125 35.640625 52.34375 
Q 39.09375 51.5 41.640625 49.640625 
Q 44.203125 47.796875 45.640625 44.6875 
Q 47.09375 41.59375 47.09375 37.09375 
L 47.09375 8.90625 
Q 47.09375 5.40625 48.34375 4.453125 
Q 49.59375 3.5 53.40625 4.90625 
L 53.40625 0.203125 
Q 52.703125 0 51.34375 -0.390625 
Q 50 -0.796875 48.703125 -0.796875 
Q 47.296875 -0.796875 46 -0.5 
Q 44.5 -0.296875 43.59375 0.453125 
Q 42.703125 1.203125 42.140625 2.25 
Q 41.59375 3.296875 41.390625 4.546875 
Q 41.203125 5.796875 41.203125 7.203125 
Q 37.40625 3 32.5 0.796875 
Q 27.59375 -1.40625 21.90625 -1.40625 
Q 18.5 -1.40625 15.34375 -0.5 
Q 12.203125 0.40625 9.796875 2.296875 
Q 7.40625 4.203125 6 6.953125 
Q 4.59375 9.703125 4.59375 13.5 
Q 4.59375 26.703125 22.703125 29.09375 
z
" id="Helvetica-Light-97"/>
      <path d="M 13.5 0 
L 7.5 0 
L 7.5 51.796875 
L 13.5 51.796875 
L 13.5 42.09375 
L 13.703125 42.09375 
Q 16.203125 48.296875 20.140625 50.75 
Q 24.09375 53.203125 30.59375 53.203125 
L 30.59375 46.703125 
Q 25.5 46.796875 22.203125 45.09375 
Q 18.90625 43.40625 16.953125 40.5 
Q 15 37.59375 14.25 33.640625 
Q 13.5 29.703125 13.5 25.40625 
z
" id="Helvetica-Light-114"/>
      <path d="M 25.40625 -0.203125 
Q 24.296875 -0.40625 22.5 -0.90625 
Q 20.703125 -1.40625 18.5 -1.40625 
Q 14 -1.40625 11.640625 0.84375 
Q 9.296875 3.09375 9.296875 8.90625 
L 9.296875 46.796875 
L 2 46.796875 
L 2 51.796875 
L 9.296875 51.796875 
L 9.296875 66.203125 
L 15.296875 66.203125 
L 15.296875 51.796875 
L 25 51.796875 
L 25 46.796875 
L 15.296875 46.796875 
L 15.296875 11.296875 
Q 15.296875 9.40625 15.390625 8 
Q 15.5 6.59375 16 5.6875 
Q 16.5 4.796875 17.546875 4.390625 
Q 18.59375 4 20.5 4 
Q 21.703125 4 22.953125 4.203125 
Q 24.203125 4.40625 25.40625 4.703125 
z
" id="Helvetica-Light-116"/>
      <path d="M 27.796875 -1.40625 
Q 22.796875 -1.296875 18.4375 0.390625 
Q 14.09375 2.09375 10.84375 5.5 
Q 7.59375 8.90625 5.6875 14 
Q 3.796875 19.09375 3.796875 25.90625 
Q 3.796875 31.59375 5.296875 36.546875 
Q 6.796875 41.5 9.796875 45.203125 
Q 12.796875 48.90625 17.296875 51.046875 
Q 21.796875 53.203125 27.796875 53.203125 
Q 33.90625 53.203125 38.40625 51.046875 
Q 42.90625 48.90625 45.90625 45.25 
Q 48.90625 41.59375 50.34375 36.59375 
Q 51.796875 31.59375 51.796875 25.90625 
Q 51.796875 19.703125 50.09375 14.703125 
Q 48.40625 9.703125 45.25 6.09375 
Q 42.09375 2.5 37.640625 0.546875 
Q 33.203125 -1.40625 27.796875 -1.40625 
z
M 45.40625 25.90625 
Q 45.40625 30.5 44.40625 34.5 
Q 43.40625 38.5 41.296875 41.453125 
Q 39.203125 44.40625 35.890625 46.09375 
Q 32.59375 47.796875 27.796875 47.796875 
Q 23.09375 47.796875 19.75 45.9375 
Q 16.40625 44.09375 14.296875 41.046875 
Q 12.203125 38 11.203125 34.046875 
Q 10.203125 30.09375 10.203125 25.90625 
Q 10.203125 21.09375 11.34375 17.046875 
Q 12.5 13 14.703125 10.09375 
Q 16.90625 7.203125 20.203125 5.59375 
Q 23.5 4 27.796875 4 
Q 32.5 4 35.84375 5.84375 
Q 39.203125 7.703125 41.296875 10.796875 
Q 43.40625 13.90625 44.40625 17.796875 
Q 45.40625 21.703125 45.40625 25.90625 
z
" id="Helvetica-Light-111"/>
      <path d="M 13.203125 0 
L 7.203125 0 
L 7.203125 51.796875 
L 13.203125 51.796875 
L 13.203125 44.59375 
Q 16.796875 48.40625 20.640625 50.796875 
Q 24.5 53.203125 29.90625 53.203125 
Q 34.703125 53.203125 38.796875 51.546875 
Q 42.90625 49.90625 45.703125 45.796875 
Q 47.59375 43 47.9375 40.046875 
Q 48.296875 37.09375 48.296875 33.90625 
L 48.296875 0 
L 42.296875 0 
L 42.296875 33.796875 
Q 42.296875 40.796875 39.1875 44.296875 
Q 36.09375 47.796875 28.90625 47.796875 
Q 26.09375 47.796875 23.796875 46.9375 
Q 21.5 46.09375 19.640625 44.6875 
Q 17.796875 43.296875 16.5 41.5 
Q 15.203125 39.703125 14.5 37.703125 
Q 13.59375 35.203125 13.390625 32.890625 
Q 13.203125 30.59375 13.203125 27.90625 
z
" id="Helvetica-Light-110"/>
      <path id="Helvetica-Light-32"/>
      <path d="M 10.90625 21.5 
Q 11.296875 16.703125 13.046875 13.34375 
Q 14.796875 10 17.546875 7.890625 
Q 20.296875 5.796875 23.890625 4.84375 
Q 27.5 3.90625 31.59375 3.90625 
Q 36.40625 3.90625 39.90625 5.09375 
Q 43.40625 6.296875 45.59375 8.34375 
Q 47.796875 10.40625 48.84375 13.09375 
Q 49.90625 15.796875 49.90625 18.796875 
Q 49.90625 23 48 25.59375 
Q 46.09375 28.203125 43.046875 29.84375 
Q 40 31.5 36.046875 32.5 
Q 32.09375 33.5 27.9375 34.453125 
Q 23.796875 35.40625 19.84375 36.703125 
Q 15.90625 38 12.84375 40.203125 
Q 9.796875 42.40625 7.890625 45.84375 
Q 6 49.296875 6 54.59375 
Q 6 58.296875 7.546875 61.796875 
Q 9.09375 65.296875 12.140625 68 
Q 15.203125 70.703125 19.796875 72.296875 
Q 24.40625 73.90625 30.40625 73.90625 
Q 36.5 73.90625 41.046875 72.203125 
Q 45.59375 70.5 48.59375 67.546875 
Q 51.59375 64.59375 53.09375 60.6875 
Q 54.59375 56.796875 54.59375 52.40625 
L 48.09375 52.40625 
Q 48.09375 56.5 46.640625 59.5 
Q 45.203125 62.5 42.703125 64.390625 
Q 40.203125 66.296875 37 67.1875 
Q 33.796875 68.09375 30.40625 68.09375 
Q 25.203125 68.09375 21.640625 66.640625 
Q 18.09375 65.203125 16 62.890625 
Q 13.90625 60.59375 13.09375 57.796875 
Q 12.296875 55 12.796875 52.203125 
Q 13.40625 48.703125 15.59375 46.59375 
Q 17.796875 44.5 21 43.140625 
Q 24.203125 41.796875 28.046875 40.9375 
Q 31.90625 40.09375 35.90625 39.140625 
Q 39.90625 38.203125 43.65625 36.890625 
Q 47.40625 35.59375 50.296875 33.390625 
Q 53.203125 31.203125 54.953125 27.75 
Q 56.703125 24.296875 56.703125 19.09375 
Q 56.703125 9.09375 49.796875 3.59375 
Q 42.90625 -1.90625 30.40625 -1.90625 
Q 24.796875 -1.90625 20 -0.453125 
Q 15.203125 1 11.703125 3.953125 
Q 8.203125 6.90625 6.25 11.25 
Q 4.296875 15.59375 4.296875 21.5 
z
" id="Helvetica-Light-83"/>
      <path d="M 3.296875 0 
L 3.296875 5.296875 
L 37.703125 46.796875 
L 5.59375 46.796875 
L 5.59375 51.796875 
L 45.40625 51.796875 
L 45.40625 46.5 
L 11 5 
L 46.703125 5 
L 46.703125 0 
z
" id="Helvetica-Light-122"/>
      <path d="M 44.703125 29.5 
Q 44.703125 33.296875 43.640625 36.640625 
Q 42.59375 40 40.546875 42.453125 
Q 38.5 44.90625 35.390625 46.34375 
Q 32.296875 47.796875 28.296875 47.796875 
Q 24.296875 47.796875 21.25 46.296875 
Q 18.203125 44.796875 16.046875 42.296875 
Q 13.90625 39.796875 12.59375 36.5 
Q 11.296875 33.203125 10.90625 29.5 
z
M 10.90625 24.5 
Q 10.90625 20.296875 12 16.546875 
Q 13.09375 12.796875 15.25 10.046875 
Q 17.40625 7.296875 20.703125 5.640625 
Q 24 4 28.296875 4 
Q 34.203125 4 38.390625 7.09375 
Q 42.59375 10.203125 44 15.90625 
L 50.703125 15.90625 
Q 49.59375 12.203125 47.796875 9.046875 
Q 46 5.90625 43.296875 3.546875 
Q 40.59375 1.203125 36.890625 -0.09375 
Q 33.203125 -1.40625 28.296875 -1.40625 
Q 22.09375 -1.40625 17.59375 0.6875 
Q 13.09375 2.796875 10.1875 6.4375 
Q 7.296875 10.09375 5.890625 15.046875 
Q 4.5 20 4.5 25.703125 
Q 4.5 31.40625 6.140625 36.40625 
Q 7.796875 41.40625 10.84375 45.15625 
Q 13.90625 48.90625 18.296875 51.046875 
Q 22.703125 53.203125 28.296875 53.203125 
Q 39 53.203125 45.09375 45.84375 
Q 51.203125 38.5 51.09375 24.5 
z
" id="Helvetica-Light-101"/>
      <path d="M 13.203125 0 
L 7.203125 0 
L 18.203125 51.796875 
L 24.203125 51.796875 
L 22.703125 44.59375 
Q 27.09375 48.40625 31.4375 50.796875 
Q 35.796875 53.203125 41.203125 53.203125 
Q 46 53.203125 49.75 51.546875 
Q 53.5 49.90625 55.40625 45.796875 
Q 56.703125 43 56.453125 40.046875 
Q 56.203125 37.09375 55.5 33.90625 
L 48.296875 0 
L 42.296875 0 
L 49.5 33.796875 
Q 51 40.796875 48.640625 44.296875 
Q 46.296875 47.796875 39.09375 47.796875 
Q 36.296875 47.796875 33.796875 46.9375 
Q 31.296875 46.09375 29.140625 44.6875 
Q 27 43.296875 25.296875 41.5 
Q 23.59375 39.703125 22.5 37.703125 
Q 21.09375 35.203125 20.390625 32.890625 
Q 19.703125 30.59375 19.09375 27.90625 
z
" id="Helvetica-LightOblique-110"/>
     </defs>
     <g transform="translate(97.71857 137.698638)scale(0.08 -0.08)">
      <use transform="translate(0 0.09375)" xlink:href="#Helvetica-Light-66"/>
      <use transform="translate(66.699997 0.09375)" xlink:href="#Helvetica-Light-105"/>
      <use transform="translate(88.899994 0.09375)" xlink:href="#Helvetica-Light-112"/>
      <use transform="translate(149.999985 0.09375)" xlink:href="#Helvetica-Light-97"/>
      <use transform="translate(205.599976 0.09375)" xlink:href="#Helvetica-Light-114"/>
      <use transform="translate(238.899963 0.09375)" xlink:href="#Helvetica-Light-116"/>
      <use transform="translate(266.699951 0.09375)" xlink:href="#Helvetica-Light-105"/>
      <use transform="translate(288.899948 0.09375)" xlink:href="#Helvetica-Light-116"/>
      <use transform="translate(316.699936 0.09375)" xlink:href="#Helvetica-Light-105"/>
      <use transform="translate(338.899933 0.09375)" xlink:href="#Helvetica-Light-111"/>
      <use transform="translate(394.499924 0.09375)" xlink:href="#Helvetica-Light-110"/>
      <use transform="translate(450.099915 0.09375)" xlink:href="#Helvetica-Light-32"/>
      <use transform="translate(477.899902 0.09375)" xlink:href="#Helvetica-Light-83"/>
      <use transform="translate(538.999893 0.09375)" xlink:href="#Helvetica-Light-105"/>
      <use transform="translate(561.19989 0.09375)" xlink:href="#Helvetica-Light-122"/>
      <use transform="translate(611.199875 0.09375)" xlink:href="#Helvetica-Light-101"/>
      <use transform="translate(666.799866 0.09375)" xlink:href="#Helvetica-Light-32"/>
      <use transform="translate(694.599854 0.09375)" xlink:href="#Helvetica-Light-32"/>
      <use transform="translate(722.399841 0.09375)" xlink:href="#Helvetica-LightOblique-110"/>
     </g>
    </g>
   </g>
   <g id="matplotlib.axis_2">
    <g id="ytick_1">
     <g id="line2d_7">
      <defs>
       <path d="M 0 0 
L -2 0 
" id="m94b1eab119" style="stroke:#000000;stroke-width:0.35;"/>
      </defs>
      <g>
       <use style="stroke:#000000;stroke-width:0.35;" x="30.80625" xlink:href="#m94b1eab119" y="117.386138"/>
      </g>
     </g>
     <g id="text_8">
      <!-- 0.00 -->
      <defs>
       <path d="M 45.203125 34.703125 
Q 45.203125 40.40625 44.546875 45.84375 
Q 43.90625 51.296875 42 55.59375 
Q 40.09375 59.90625 36.640625 62.5 
Q 33.203125 65.09375 27.59375 65.09375 
Q 22.296875 65.09375 18.9375 62.4375 
Q 15.59375 59.796875 13.6875 55.390625 
Q 11.796875 51 11.046875 45.390625 
Q 10.296875 39.796875 10.296875 34 
Q 10.296875 27.203125 11.140625 21.640625 
Q 12 16.09375 14 12.1875 
Q 16 8.296875 19.34375 6.140625 
Q 22.703125 4 27.796875 4 
Q 33.5 4 36.953125 6.796875 
Q 40.40625 9.59375 42.203125 14 
Q 44 18.40625 44.59375 23.90625 
Q 45.203125 29.40625 45.203125 34.703125 
z
M 27.796875 70.5 
Q 33 70.5 36.796875 68.953125 
Q 40.59375 67.40625 43.25 64.703125 
Q 45.90625 62 47.546875 58.390625 
Q 49.203125 54.796875 50.09375 50.75 
Q 51 46.703125 51.296875 42.390625 
Q 51.59375 38.09375 51.59375 34 
Q 51.59375 27 50.59375 20.59375 
Q 49.59375 14.203125 46.9375 9.296875 
Q 44.296875 4.40625 39.6875 1.5 
Q 35.09375 -1.40625 27.796875 -1.40625 
Q 20.5 -1.40625 15.84375 1.5 
Q 11.203125 4.40625 8.546875 9.34375 
Q 5.90625 14.296875 4.90625 20.84375 
Q 3.90625 27.40625 3.90625 34.703125 
Q 3.90625 41.40625 4.796875 47.796875 
Q 5.703125 54.203125 8.25 59.25 
Q 10.796875 64.296875 15.5 67.390625 
Q 20.203125 70.5 27.796875 70.5 
z
" id="Helvetica-Light-48"/>
       <path d="M 10.203125 0 
L 10.203125 8.796875 
L 17.5 8.796875 
L 17.5 0 
z
" id="Helvetica-Light-46"/>
      </defs>
      <g transform="translate(10.24 120.266138)scale(0.08 -0.08)">
       <use xlink:href="#Helvetica-Light-48"/>
       <use x="55.599991" xlink:href="#Helvetica-Light-46"/>
       <use x="83.399979" xlink:href="#Helvetica-Light-48"/>
       <use x="138.999969" xlink:href="#Helvetica-Light-48"/>
      </g>
     </g>
    </g>
    <g id="ytick_2">
     <g id="line2d_8">
      <g>
       <use style="stroke:#000000;stroke-width:0.35;" x="30.80625" xlink:href="#m94b1eab119" y="88.939603"/>
      </g>
     </g>
     <g id="text_9">
      <!-- 0.02 -->
      <g transform="translate(10.24 91.819603)scale(0.08 -0.08)">
       <use xlink:href="#Helvetica-Light-48"/>
       <use x="55.599991" xlink:href="#Helvetica-Light-46"/>
       <use x="83.399979" xlink:href="#Helvetica-Light-48"/>
       <use x="138.999969" xlink:href="#Helvetica-Light-50"/>
      </g>
     </g>
    </g>
    <g id="ytick_3">
     <g id="line2d_9">
      <g>
       <use style="stroke:#000000;stroke-width:0.35;" x="30.80625" xlink:href="#m94b1eab119" y="60.493069"/>
      </g>
     </g>
     <g id="text_10">
      <!-- 0.04 -->
      <g transform="translate(10.24 63.373069)scale(0.08 -0.08)">
       <use xlink:href="#Helvetica-Light-48"/>
       <use x="55.599991" xlink:href="#Helvetica-Light-46"/>
       <use x="83.399979" xlink:href="#Helvetica-Light-48"/>
       <use x="138.999969" xlink:href="#Helvetica-Light-52"/>
      </g>
     </g>
    </g>
    <g id="ytick_4">
     <g id="line2d_10">
      <g>
       <use style="stroke:#000000;stroke-width:0.35;" x="30.80625" xlink:href="#m94b1eab119" y="32.046534"/>
      </g>
     </g>
     <g id="text_11">
      <!-- 0.06 -->
      <g transform="translate(10.24 34.926534)scale(0.08 -0.08)">
       <use xlink:href="#Helvetica-Light-48"/>
       <use x="55.599991" xlink:href="#Helvetica-Light-46"/>
       <use x="83.399979" xlink:href="#Helvetica-Light-48"/>
       <use x="138.999969" xlink:href="#Helvetica-Light-54"/>
      </g>
     </g>
    </g>
    <g id="ytick_5">
     <g id="line2d_11">
      <g>
       <use style="stroke:#000000;stroke-width:0.35;" x="30.80625" xlink:href="#m94b1eab119" y="3.6"/>
      </g>
     </g>
     <g id="text_12">
      <!-- 0.08 -->
      <defs>
       <path d="M 27.90625 34.5 
Q 24.203125 34.5 21.09375 33.59375 
Q 18 32.703125 15.703125 30.84375 
Q 13.40625 29 12.09375 26.140625 
Q 10.796875 23.296875 10.796875 19.40625 
Q 10.796875 16.09375 12.046875 13.296875 
Q 13.296875 10.5 15.546875 8.453125 
Q 17.796875 6.40625 21.046875 5.203125 
Q 24.296875 4 28.296875 4 
Q 31.796875 4 34.796875 5.140625 
Q 37.796875 6.296875 40.046875 8.390625 
Q 42.296875 10.5 43.546875 13.390625 
Q 44.796875 16.296875 44.796875 19.796875 
Q 44.796875 23.5 43.5 26.25 
Q 42.203125 29 39.890625 30.84375 
Q 37.59375 32.703125 34.5 33.59375 
Q 31.40625 34.5 27.90625 34.5 
z
M 27.59375 65.09375 
Q 24.59375 65.09375 22 64.296875 
Q 19.40625 63.5 17.453125 61.890625 
Q 15.5 60.296875 14.390625 57.890625 
Q 13.296875 55.5 13.296875 52.40625 
Q 13.296875 49.09375 14.546875 46.75 
Q 15.796875 44.40625 17.890625 42.90625 
Q 20 41.40625 22.703125 40.65625 
Q 25.40625 39.90625 28.296875 39.90625 
Q 31.203125 39.90625 33.703125 40.65625 
Q 36.203125 41.40625 38 43.09375 
Q 39.796875 44.796875 40.84375 47.390625 
Q 41.90625 50 41.90625 53.796875 
Q 41.90625 59.203125 38.40625 62.140625 
Q 34.90625 65.09375 27.59375 65.09375 
z
M 16.703125 37.90625 
Q 14.09375 39.5 12.25 40.953125 
Q 10.40625 42.40625 9.203125 44.09375 
Q 8 45.796875 7.453125 47.9375 
Q 6.90625 50.09375 6.90625 53.296875 
Q 6.90625 56.90625 8.5 60.09375 
Q 10.09375 63.296875 12.796875 65.640625 
Q 15.5 68 19.140625 69.296875 
Q 22.796875 70.59375 27 70.5 
Q 31 70.5 34.84375 69.5 
Q 38.703125 68.5 41.703125 66.390625 
Q 44.703125 64.296875 46.5 61.046875 
Q 48.296875 57.796875 48.296875 53.296875 
Q 48.296875 47.796875 46.046875 43.890625 
Q 43.796875 40 38.703125 37.5 
Q 44.5 35.40625 47.84375 30.796875 
Q 51.203125 26.203125 51.203125 20 
Q 51.203125 14.796875 49.453125 10.796875 
Q 47.703125 6.796875 44.453125 4.09375 
Q 41.203125 1.40625 36.59375 0 
Q 32 -1.40625 26.40625 -1.40625 
Q 22.59375 -1.40625 18.640625 -0.09375 
Q 14.703125 1.203125 11.546875 3.796875 
Q 8.40625 6.40625 6.40625 10.296875 
Q 4.40625 14.203125 4.40625 19.40625 
Q 4.40625 25.703125 7.546875 30.640625 
Q 10.703125 35.59375 16.703125 37.90625 
z
" id="Helvetica-Light-56"/>
      </defs>
      <g transform="translate(10.24 6.48)scale(0.08 -0.08)">
       <use xlink:href="#Helvetica-Light-48"/>
       <use x="55.599991" xlink:href="#Helvetica-Light-46"/>
       <use x="83.399979" xlink:href="#Helvetica-Light-48"/>
       <use x="138.999969" xlink:href="#Helvetica-Light-56"/>
      </g>
     </g>
    </g>
    <g id="text_13">
     <!-- $\Delta S(t\to\infty;n)/n$ -->
     <defs>
      <path d="M 33.296875 63 
L 12 7.203125 
L 55 7.203125 
z
M 1.296875 0 
L 29.203125 71.40625 
L 37.5 71.40625 
L 66.203125 0 
z
" id="Helvetica-Light-916"/>
      <path d="M 15.5 21.5 
Q 14.90625 16.703125 15.90625 13.34375 
Q 16.90625 10 19.203125 7.890625 
Q 21.5 5.796875 24.890625 4.84375 
Q 28.296875 3.90625 32.40625 3.90625 
Q 37.203125 3.90625 40.953125 5.09375 
Q 44.703125 6.296875 47.34375 8.34375 
Q 50 10.40625 51.640625 13.09375 
Q 53.296875 15.796875 53.90625 18.796875 
Q 54.796875 23 53.4375 25.59375 
Q 52.09375 28.203125 49.34375 29.84375 
Q 46.59375 31.5 42.890625 32.5 
Q 39.203125 33.5 35.296875 34.453125 
Q 31.40625 35.40625 27.703125 36.703125 
Q 24 38 21.390625 40.203125 
Q 18.796875 42.40625 17.640625 45.84375 
Q 16.5 49.296875 17.59375 54.59375 
Q 18.40625 58.296875 20.703125 61.796875 
Q 23 65.296875 26.59375 68 
Q 30.203125 70.703125 35.140625 72.296875 
Q 40.09375 73.90625 46.09375 73.90625 
Q 52.203125 73.90625 56.34375 72.203125 
Q 60.5 70.5 62.890625 67.546875 
Q 65.296875 64.59375 66 60.6875 
Q 66.703125 56.796875 65.703125 52.40625 
L 59.203125 52.40625 
Q 60.09375 56.5 59.25 59.5 
Q 58.40625 62.5 56.40625 64.390625 
Q 54.40625 66.296875 51.34375 67.1875 
Q 48.296875 68.09375 44.90625 68.09375 
Q 39.703125 68.09375 35.84375 66.640625 
Q 32 65.203125 29.390625 62.890625 
Q 26.796875 60.59375 25.390625 57.796875 
Q 24 55 23.90625 52.203125 
Q 23.703125 48.703125 25.453125 46.59375 
Q 27.203125 44.5 30.09375 43.140625 
Q 33 41.796875 36.703125 40.9375 
Q 40.40625 40.09375 44.203125 39.140625 
Q 48 38.203125 51.5 36.890625 
Q 55 35.59375 57.390625 33.390625 
Q 59.796875 31.203125 60.84375 27.75 
Q 61.90625 24.296875 60.796875 19.09375 
Q 58.703125 9.09375 50.59375 3.59375 
Q 42.5 -1.90625 30 -1.90625 
Q 24.40625 -1.90625 19.90625 -0.453125 
Q 15.40625 1 12.546875 3.953125 
Q 9.703125 6.90625 8.703125 11.25 
Q 7.703125 15.59375 8.90625 21.5 
z
" id="Helvetica-LightOblique-83"/>
      <path d="M 27.703125 73.90625 
Q 20.5 63.5 16.453125 51.640625 
Q 12.40625 39.796875 12.40625 27.09375 
Q 12.40625 14.59375 16.59375 2.890625 
Q 20.796875 -8.796875 27.703125 -19.09375 
L 22.59375 -19.09375 
Q 18.5 -13.40625 15.296875 -8.046875 
Q 12.09375 -2.703125 9.890625 2.84375 
Q 7.703125 8.40625 6.59375 14.453125 
Q 5.5 20.5 5.5 27.59375 
Q 5.5 34.5 6.640625 40.546875 
Q 7.796875 46.59375 10 52.1875 
Q 12.203125 57.796875 15.34375 63.140625 
Q 18.5 68.5 22.59375 73.90625 
z
" id="Helvetica-Light-40"/>
      <path d="M 25.40625 -0.203125 
Q 24.296875 -0.40625 22.34375 -0.90625 
Q 20.40625 -1.40625 18.203125 -1.40625 
Q 13.703125 -1.40625 11.84375 0.84375 
Q 10 3.09375 11.203125 8.90625 
L 19.203125 46.796875 
L 11.90625 46.796875 
L 13 51.796875 
L 20.296875 51.796875 
L 23.40625 66.203125 
L 29.40625 66.203125 
L 26.296875 51.796875 
L 36 51.796875 
L 34.90625 46.796875 
L 25.203125 46.796875 
L 17.703125 11.296875 
Q 17.296875 9.40625 17.09375 8 
Q 16.90625 6.59375 17.25 5.6875 
Q 17.59375 4.796875 18.546875 4.390625 
Q 19.5 4 21.40625 4 
Q 22.59375 4 23.84375 4.203125 
Q 25.09375 4.40625 26.40625 4.703125 
z
" id="Helvetica-LightOblique-116"/>
      <path d="M 85.59375 25.796875 
L 85.59375 24.796875 
Q 74.09375 19.90625 61.796875 5.703125 
L 59.796875 7.59375 
Q 62.59375 11.59375 68 17.203125 
Q 69.40625 18.59375 69.40625 20 
Q 69.40625 22 66.796875 22 
L 7 22 
L 7 28.59375 
L 66.90625 28.59375 
Q 67.703125 28.59375 68.59375 29.34375 
Q 69.5 30.09375 69.5 30.796875 
Q 69.5 31.90625 68.09375 33.296875 
Q 63 38.203125 59.90625 42.90625 
L 61.90625 44.796875 
Q 74.296875 30.5 85.59375 25.796875 
z
" id="STIXGeneral-Regular-8594"/>
      <path d="M 72.203125 28.796875 
Q 72.203125 25.296875 70.953125 22.4375 
Q 69.703125 19.59375 67.640625 17.59375 
Q 65.59375 15.59375 62.890625 14.5 
Q 60.203125 13.40625 57.296875 13.40625 
Q 54.90625 13.40625 52.703125 14.203125 
Q 50.5 15 48.296875 16.546875 
Q 46.09375 18.09375 43.796875 20.34375 
Q 41.5 22.59375 38.796875 25.5 
Q 36.796875 23.203125 34.75 21.046875 
Q 32.703125 18.90625 30.390625 17.203125 
Q 28.09375 15.5 25.5 14.453125 
Q 22.90625 13.40625 19.796875 13.40625 
Q 16.796875 13.40625 14.140625 14.546875 
Q 11.5 15.703125 9.5 17.75 
Q 7.5 19.796875 6.34375 22.5 
Q 5.203125 25.203125 5.203125 28.40625 
Q 5.203125 31.703125 6.34375 34.5 
Q 7.5 37.296875 9.5 39.390625 
Q 11.5 41.5 14.34375 42.640625 
Q 17.203125 43.796875 20.5 43.796875 
Q 23.296875 43.796875 25.796875 42.75 
Q 28.296875 41.703125 30.59375 40 
Q 32.90625 38.296875 35.046875 36.09375 
Q 37.203125 33.90625 39.203125 31.59375 
Q 41.296875 33.90625 43.296875 36.09375 
Q 45.296875 38.296875 47.546875 40 
Q 49.796875 41.703125 52.34375 42.75 
Q 54.90625 43.796875 58 43.796875 
Q 64.59375 43.796875 68.390625 39.640625 
Q 72.203125 35.5 72.203125 28.90625 
z
M 20.5 17.296875 
Q 23 17.296875 25.203125 18.390625 
Q 27.40625 19.5 29.40625 21.140625 
Q 31.40625 22.796875 33.203125 24.75 
Q 35 26.703125 36.59375 28.296875 
Q 34.90625 30.296875 33.046875 32.390625 
Q 31.203125 34.5 29.203125 36.203125 
Q 27.203125 37.90625 24.84375 38.953125 
Q 22.5 40 19.703125 40 
Q 17.296875 40 15.34375 39.046875 
Q 13.40625 38.09375 12.09375 36.4375 
Q 10.796875 34.796875 10.140625 32.6875 
Q 9.5 30.59375 9.5 28.296875 
Q 9.5 26 10.25 24 
Q 11 22 12.453125 20.5 
Q 13.90625 19 15.90625 18.140625 
Q 17.90625 17.296875 20.40625 17.296875 
z
M 57.5 40 
Q 54.90625 40 52.546875 38.75 
Q 50.203125 37.5 48.140625 35.703125 
Q 46.09375 33.90625 44.34375 31.953125 
Q 42.59375 30 41.296875 28.703125 
Q 46.40625 23.203125 50 20.25 
Q 53.59375 17.296875 57.703125 17.296875 
Q 60.09375 17.296875 62.046875 18.296875 
Q 64 19.296875 65.296875 20.84375 
Q 66.59375 22.40625 67.296875 24.40625 
Q 68 26.40625 68 28.5 
Q 68 34.09375 65.046875 37.046875 
Q 62.09375 40 57.59375 40 
z
" id="Helvetica-Light-8734"/>
      <path d="M 17.5 -3 
Q 17.5 -7.40625 15.453125 -10.046875 
Q 13.40625 -12.703125 10.203125 -13.703125 
L 10.203125 -10 
Q 11.40625 -9.203125 12.5 -7.796875 
Q 13.59375 -6.40625 13.59375 -3.40625 
L 13.59375 0 
L 10.203125 0 
L 10.203125 8.796875 
L 17.5 8.796875 
z
M 10.203125 40.40625 
L 10.203125 49.203125 
L 17.5 49.203125 
L 17.5 40.40625 
z
" id="Helvetica-Light-59"/>
      <path d="M 5.59375 -19.09375 
Q 12.796875 -8.703125 16.84375 3.140625 
Q 20.90625 15 20.90625 27.703125 
Q 20.90625 40.203125 16.703125 51.890625 
Q 12.5 63.59375 5.59375 73.90625 
L 10.703125 73.90625 
Q 14.796875 68.203125 18 62.84375 
Q 21.203125 57.5 23.34375 51.953125 
Q 25.5 46.40625 26.640625 40.34375 
Q 27.796875 34.296875 27.796875 27.203125 
Q 27.796875 20.296875 26.640625 14.25 
Q 25.5 8.203125 23.296875 2.59375 
Q 21.09375 -3 17.890625 -8.34375 
Q 14.703125 -13.703125 10.703125 -19.09375 
z
" id="Helvetica-Light-41"/>
      <path d="M 5.296875 -9 
L -0.296875 -9 
L 23.203125 73.90625 
L 28.796875 73.90625 
z
" id="Helvetica-Light-47"/>
     </defs>
     <g transform="translate(6.6075 82.150742)rotate(-90)scale(0.08 -0.08)">
      <use transform="translate(0 0.09375)" xlink:href="#Helvetica-Light-916"/>
      <use transform="translate(67.399994 0.09375)" xlink:href="#Helvetica-LightOblique-83"/>
      <use transform="translate(128.499985 0.09375)" xlink:href="#Helvetica-Light-40"/>
      <use transform="translate(161.799973 0.09375)" xlink:href="#Helvetica-LightOblique-116"/>
      <use transform="translate(189.59996 0.09375)" xlink:href="#STIXGeneral-Regular-8594"/>
      <use transform="translate(282.199951 0.09375)" xlink:href="#Helvetica-Light-8734"/>
      <use transform="translate(359.599945 0.09375)" xlink:href="#Helvetica-Light-59"/>
      <use transform="translate(404.05993 0.09375)" xlink:href="#Helvetica-LightOblique-110"/>
      <use transform="translate(459.659921 0.09375)" xlink:href="#Helvetica-Light-41"/>
      <use transform="translate(492.959909 0.09375)" xlink:href="#Helvetica-Light-47"/>
      <use transform="translate(520.759897 0.09375)" xlink:href="#Helvetica-LightOblique-110"/>
     </g>
    </g>
   </g>
   <g id="LineCollection_1">
    <path clip-path="url(#pb532d00c97)" d="M 39.718279 108.75108 
L 39.718279 108.365676 
" style="fill:none;stroke:#5e4fa2;stroke-width:0.5;"/>
    <path clip-path="url(#pb532d00c97)" d="M 73.348578 109.436596 
L 73.348578 109.082862 
" style="fill:none;stroke:#5e4fa2;stroke-width:0.5;"/>
    <path clip-path="url(#pb532d00c97)" d="M 106.978876 110.150765 
L 106.978876 109.829939 
" style="fill:none;stroke:#5e4fa2;stroke-width:0.5;"/>
    <path clip-path="url(#pb532d00c97)" d="M 140.609174 110.895401 
L 140.609174 110.608623 
" style="fill:none;stroke:#5e4fa2;stroke-width:0.5;"/>
    <path clip-path="url(#pb532d00c97)" d="M 174.239473 111.671226 
L 174.239473 111.419459 
" style="fill:none;stroke:#5e4fa2;stroke-width:0.5;"/>
    <path clip-path="url(#pb532d00c97)" d="M 207.869771 112.476478 
L 207.869771 112.260444 
" style="fill:none;stroke:#5e4fa2;stroke-width:0.5;"/>
   </g>
   <g id="LineCollection_2">
    <path clip-path="url(#pb532d00c97)" d="M 39.718279 109.198568 
L 39.718279 108.904187 
" style="fill:none;stroke:#486cb0;stroke-width:0.5;"/>
    <path clip-path="url(#pb532d00c97)" d="M 73.348578 109.854774 
L 73.348578 109.585182 
" style="fill:none;stroke:#486cb0;stroke-width:0.5;"/>
    <path clip-path="url(#pb532d00c97)" d="M 106.978876 110.53684 
L 106.978876 110.292837 
" style="fill:none;stroke:#486cb0;stroke-width:0.5;"/>
    <path clip-path="url(#pb532d00c97)" d="M 140.609174 111.246158 
L 140.609174 111.028426 
" style="fill:none;stroke:#486cb0;stroke-width:0.5;"/>
    <path clip-path="url(#pb532d00c97)" d="M 174.239473 111.983035 
L 174.239473 111.792101 
" style="fill:none;stroke:#486cb0;stroke-width:0.5;"/>
    <path clip-path="url(#pb532d00c97)" d="M 207.869771 112.745411 
L 207.869771 112.581639 
" style="fill:none;stroke:#486cb0;stroke-width:0.5;"/>
   </g>
   <g id="LineCollection_3">
    <path clip-path="url(#pb532d00c97)" d="M 39.718279 96.216394 
L 39.718279 95.442342 
" style="fill:none;stroke:#3389bd;stroke-width:0.5;"/>
    <path clip-path="url(#pb532d00c97)" d="M 73.348578 97.839924 
L 73.348578 97.126259 
" style="fill:none;stroke:#3389bd;stroke-width:0.5;"/>
    <path clip-path="url(#pb532d00c97)" d="M 106.978876 99.548784 
L 106.978876 98.899037 
" style="fill:none;stroke:#3389bd;stroke-width:0.5;"/>
    <path clip-path="url(#pb532d00c97)" d="M 140.609174 101.349463 
L 140.609174 100.766977 
" style="fill:none;stroke:#3389bd;stroke-width:0.5;"/>
    <path clip-path="url(#pb532d00c97)" d="M 174.239473 103.245168 
L 174.239473 102.732864 
" style="fill:none;stroke:#3389bd;stroke-width:0.5;"/>
    <path clip-path="url(#pb532d00c97)" d="M 207.869771 105.231111 
L 207.869771 104.791248 
" style="fill:none;stroke:#3389bd;stroke-width:0.5;"/>
   </g>
   <g id="LineCollection_4">
    <path clip-path="url(#pb532d00c97)" d="M 39.718279 97.947273 
L 39.718279 97.267004 
" style="fill:none;stroke:#50a9af;stroke-width:0.5;"/>
    <path clip-path="url(#pb532d00c97)" d="M 73.348578 99.468334 
L 73.348578 98.843786 
" style="fill:none;stroke:#50a9af;stroke-width:0.5;"/>
    <path clip-path="url(#pb532d00c97)" d="M 106.978876 101.061324 
L 106.978876 100.494777 
" style="fill:none;stroke:#50a9af;stroke-width:0.5;"/>
    <path clip-path="url(#pb532d00c97)" d="M 140.609174 102.730443 
L 140.609174 102.223962 
" style="fill:none;stroke:#50a9af;stroke-width:0.5;"/>
    <path clip-path="url(#pb532d00c97)" d="M 174.239473 104.476809 
L 174.239473 104.032123 
" style="fill:none;stroke:#50a9af;stroke-width:0.5;"/>
    <path clip-path="url(#pb532d00c97)" d="M 207.869771 106.294563 
L 207.869771 105.912975 
" style="fill:none;stroke:#50a9af;stroke-width:0.5;"/>
   </g>
   <g id="LineCollection_5">
    <path clip-path="url(#pb532d00c97)" d="M 39.718279 47.135243 
L 39.718279 44.539076 
" style="fill:none;stroke:#6bc4a5;stroke-width:0.5;"/>
    <path clip-path="url(#pb532d00c97)" d="M 73.348578 52.069916 
L 73.348578 49.645782 
" style="fill:none;stroke:#6bc4a5;stroke-width:0.5;"/>
    <path clip-path="url(#pb532d00c97)" d="M 106.978876 57.409685 
L 106.978876 55.178306 
" style="fill:none;stroke:#6bc4a5;stroke-width:0.5;"/>
    <path clip-path="url(#pb532d00c97)" d="M 140.609174 63.192419 
L 140.609174 61.174705 
" style="fill:none;stroke:#6bc4a5;stroke-width:0.5;"/>
    <path clip-path="url(#pb532d00c97)" d="M 174.239473 69.438619 
L 174.239473 67.654112 
" style="fill:none;stroke:#6bc4a5;stroke-width:0.5;"/>
    <path clip-path="url(#pb532d00c97)" d="M 207.869771 76.123858 
L 207.869771 74.588725 
" style="fill:none;stroke:#6bc4a5;stroke-width:0.5;"/>
   </g>
   <g id="LineCollection_6">
    <path clip-path="url(#pb532d00c97)" d="M 39.718279 5.140599 
L 39.718279 1.632832 
" style="fill:none;stroke:#91d3a4;stroke-width:0.5;"/>
    <path clip-path="url(#pb532d00c97)" d="M 73.348578 13.049362 
L 73.348578 9.815343 
" style="fill:none;stroke:#91d3a4;stroke-width:0.5;"/>
    <path clip-path="url(#pb532d00c97)" d="M 106.978876 21.601886 
L 106.978876 18.656731 
" style="fill:none;stroke:#91d3a4;stroke-width:0.5;"/>
    <path clip-path="url(#pb532d00c97)" d="M 140.609174 30.868272 
L 140.609174 28.227012 
" style="fill:none;stroke:#91d3a4;stroke-width:0.5;"/>
    <path clip-path="url(#pb532d00c97)" d="M 174.239473 40.874993 
L 174.239473 38.551167 
" style="fill:none;stroke:#91d3a4;stroke-width:0.5;"/>
    <path clip-path="url(#pb532d00c97)" d="M 207.869771 51.559059 
L 207.869771 49.563516 
" style="fill:none;stroke:#91d3a4;stroke-width:0.5;"/>
   </g>
   <g id="line2d_12">
    <path clip-path="url(#pb532d00c97)" d="M 39.718279 108.558378 
L 73.348578 109.259729 
L 106.978876 109.990352 
L 140.609174 110.752012 
L 174.239473 111.545343 
L 207.869771 112.368461 
" style="fill:none;stroke:#5e4fa2;stroke-dasharray:1.85,0.8;stroke-dashoffset:0;stroke-linecap:round;stroke-width:0.5;"/>
    <defs>
     <path d="M 0 1.5 
C 0.397805 1.5 0.77937 1.341951 1.06066 1.06066 
C 1.341951 0.77937 1.5 0.397805 1.5 0 
C 1.5 -0.397805 1.341951 -0.77937 1.06066 -1.06066 
C 0.77937 -1.341951 0.397805 -1.5 0 -1.5 
C -0.397805 -1.5 -0.77937 -1.341951 -1.06066 -1.06066 
C -1.341951 -0.77937 -1.5 -0.397805 -1.5 0 
C -1.5 0.397805 -1.341951 0.77937 -1.06066 1.06066 
C -0.77937 1.341951 -0.397805 1.5 0 1.5 
z
" id="m2e1c93a227" style="stroke:#5e4fa2;stroke-width:0.5;"/>
    </defs>
    <g clip-path="url(#pb532d00c97)">
     <use style="fill:#aea6d0;stroke:#5e4fa2;stroke-width:0.5;" x="39.718279" xlink:href="#m2e1c93a227" y="108.558378"/>
     <use style="fill:#aea6d0;stroke:#5e4fa2;stroke-width:0.5;" x="73.348578" xlink:href="#m2e1c93a227" y="109.259729"/>
     <use style="fill:#aea6d0;stroke:#5e4fa2;stroke-width:0.5;" x="106.978876" xlink:href="#m2e1c93a227" y="109.990352"/>
     <use style="fill:#aea6d0;stroke:#5e4fa2;stroke-width:0.5;" x="140.609174" xlink:href="#m2e1c93a227" y="110.752012"/>
     <use style="fill:#aea6d0;stroke:#5e4fa2;stroke-width:0.5;" x="174.239473" xlink:href="#m2e1c93a227" y="111.545343"/>
     <use style="fill:#aea6d0;stroke:#5e4fa2;stroke-width:0.5;" x="207.869771" xlink:href="#m2e1c93a227" y="112.368461"/>
    </g>
   </g>
   <g id="line2d_13">
    <path clip-path="url(#pb532d00c97)" d="M 39.718279 109.051378 
L 73.348578 109.719978 
L 106.978876 110.414838 
L 140.609174 111.137292 
L 174.239473 111.887568 
L 207.869771 112.663525 
" style="fill:none;stroke:#486cb0;stroke-dasharray:1.85,0.8;stroke-dashoffset:0;stroke-linecap:round;stroke-width:0.5;"/>
    <defs>
     <path d="M 0 1.5 
C 0.397805 1.5 0.77937 1.341951 1.06066 1.06066 
C 1.341951 0.77937 1.5 0.397805 1.5 0 
C 1.5 -0.397805 1.341951 -0.77937 1.06066 -1.06066 
C 0.77937 -1.341951 0.397805 -1.5 0 -1.5 
C -0.397805 -1.5 -0.77937 -1.341951 -1.06066 -1.06066 
C -1.341951 -0.77937 -1.5 -0.397805 -1.5 0 
C -1.5 0.397805 -1.341951 0.77937 -1.06066 1.06066 
C -0.77937 1.341951 -0.397805 1.5 0 1.5 
z
" id="me7d9e19b99" style="stroke:#486cb0;stroke-width:0.5;"/>
    </defs>
    <g clip-path="url(#pb532d00c97)">
     <use style="fill:#a3b5d7;stroke:#486cb0;stroke-width:0.5;" x="39.718279" xlink:href="#me7d9e19b99" y="109.051378"/>
     <use style="fill:#a3b5d7;stroke:#486cb0;stroke-width:0.5;" x="73.348578" xlink:href="#me7d9e19b99" y="109.719978"/>
     <use style="fill:#a3b5d7;stroke:#486cb0;stroke-width:0.5;" x="106.978876" xlink:href="#me7d9e19b99" y="110.414838"/>
     <use style="fill:#a3b5d7;stroke:#486cb0;stroke-width:0.5;" x="140.609174" xlink:href="#me7d9e19b99" y="111.137292"/>
     <use style="fill:#a3b5d7;stroke:#486cb0;stroke-width:0.5;" x="174.239473" xlink:href="#me7d9e19b99" y="111.887568"/>
     <use style="fill:#a3b5d7;stroke:#486cb0;stroke-width:0.5;" x="207.869771" xlink:href="#me7d9e19b99" y="112.663525"/>
    </g>
   </g>
   <g id="line2d_14">
    <path clip-path="url(#pb532d00c97)" d="M 39.718279 95.829368 
L 73.348578 97.483092 
L 106.978876 99.223911 
L 140.609174 101.05822 
L 174.239473 102.989016 
L 207.869771 105.011179 
" style="fill:none;stroke:#3389bd;stroke-dasharray:1.85,0.8;stroke-dashoffset:0;stroke-linecap:round;stroke-width:0.5;"/>
    <defs>
     <path d="M 0 1.5 
C 0.397805 1.5 0.77937 1.341951 1.06066 1.06066 
C 1.341951 0.77937 1.5 0.397805 1.5 0 
C 1.5 -0.397805 1.341951 -0.77937 1.06066 -1.06066 
C 0.77937 -1.341951 0.397805 -1.5 0 -1.5 
C -0.397805 -1.5 -0.77937 -1.341951 -1.06066 -1.06066 
C -1.341951 -0.77937 -1.5 -0.397805 -1.5 0 
C -1.5 0.397805 -1.341951 0.77937 -1.06066 1.06066 
C -0.77937 1.341951 -0.397805 1.5 0 1.5 
z
" id="m33d78f6652" style="stroke:#3389bd;stroke-width:0.5;"/>
    </defs>
    <g clip-path="url(#pb532d00c97)">
     <use style="fill:#98c3dd;stroke:#3389bd;stroke-width:0.5;" x="39.718279" xlink:href="#m33d78f6652" y="95.829368"/>
     <use style="fill:#98c3dd;stroke:#3389bd;stroke-width:0.5;" x="73.348578" xlink:href="#m33d78f6652" y="97.483092"/>
     <use style="fill:#98c3dd;stroke:#3389bd;stroke-width:0.5;" x="106.978876" xlink:href="#m33d78f6652" y="99.223911"/>
     <use style="fill:#98c3dd;stroke:#3389bd;stroke-width:0.5;" x="140.609174" xlink:href="#m33d78f6652" y="101.05822"/>
     <use style="fill:#98c3dd;stroke:#3389bd;stroke-width:0.5;" x="174.239473" xlink:href="#m33d78f6652" y="102.989016"/>
     <use style="fill:#98c3dd;stroke:#3389bd;stroke-width:0.5;" x="207.869771" xlink:href="#m33d78f6652" y="105.011179"/>
    </g>
   </g>
   <g id="line2d_15">
    <path clip-path="url(#pb532d00c97)" d="M 39.718279 97.607139 
L 73.348578 99.15606 
L 106.978876 100.77805 
L 140.609174 102.477203 
L 174.239473 104.254466 
L 207.869771 106.103769 
" style="fill:none;stroke:#50a9af;stroke-dasharray:1.85,0.8;stroke-dashoffset:0;stroke-linecap:round;stroke-width:0.5;"/>
    <defs>
     <path d="M 0 1.5 
C 0.397805 1.5 0.77937 1.341951 1.06066 1.06066 
C 1.341951 0.77937 1.5 0.397805 1.5 0 
C 1.5 -0.397805 1.341951 -0.77937 1.06066 -1.06066 
C 0.77937 -1.341951 0.397805 -1.5 0 -1.5 
C -0.397805 -1.5 -0.77937 -1.341951 -1.06066 -1.06066 
C -1.341951 -0.77937 -1.5 -0.397805 -1.5 0 
C -1.5 0.397805 -1.341951 0.77937 -1.06066 1.06066 
C -0.77937 1.341951 -0.397805 1.5 0 1.5 
z
" id="m84bc3612bd" style="stroke:#50a9af;stroke-width:0.5;"/>
    </defs>
    <g clip-path="url(#pb532d00c97)">
     <use style="fill:#a7d3d6;stroke:#50a9af;stroke-width:0.5;" x="39.718279" xlink:href="#m84bc3612bd" y="97.607139"/>
     <use style="fill:#a7d3d6;stroke:#50a9af;stroke-width:0.5;" x="73.348578" xlink:href="#m84bc3612bd" y="99.15606"/>
     <use style="fill:#a7d3d6;stroke:#50a9af;stroke-width:0.5;" x="106.978876" xlink:href="#m84bc3612bd" y="100.77805"/>
     <use style="fill:#a7d3d6;stroke:#50a9af;stroke-width:0.5;" x="140.609174" xlink:href="#m84bc3612bd" y="102.477203"/>
     <use style="fill:#a7d3d6;stroke:#50a9af;stroke-width:0.5;" x="174.239473" xlink:href="#m84bc3612bd" y="104.254466"/>
     <use style="fill:#a7d3d6;stroke:#50a9af;stroke-width:0.5;" x="207.869771" xlink:href="#m84bc3612bd" y="106.103769"/>
    </g>
   </g>
   <g id="line2d_16">
    <path clip-path="url(#pb532d00c97)" d="M 39.718279 45.837159 
L 73.348578 50.857849 
L 106.978876 56.293995 
L 140.609174 62.183562 
L 174.239473 68.546365 
L 207.869771 75.356291 
" style="fill:none;stroke:#6bc4a5;stroke-dasharray:1.85,0.8;stroke-dashoffset:0;stroke-linecap:round;stroke-width:0.5;"/>
    <defs>
     <path d="M 0 1.5 
C 0.397805 1.5 0.77937 1.341951 1.06066 1.06066 
C 1.341951 0.77937 1.5 0.397805 1.5 0 
C 1.5 -0.397805 1.341951 -0.77937 1.06066 -1.06066 
C 0.77937 -1.341951 0.397805 -1.5 0 -1.5 
C -0.397805 -1.5 -0.77937 -1.341951 -1.06066 -1.06066 
C -1.341951 -0.77937 -1.5 -0.397805 -1.5 0 
C -1.5 0.397805 -1.341951 0.77937 -1.06066 1.06066 
C -0.77937 1.341951 -0.397805 1.5 0 1.5 
z
" id="m137ef0f3bd" style="stroke:#6bc4a5;stroke-width:0.5;"/>
    </defs>
    <g clip-path="url(#pb532d00c97)">
     <use style="fill:#b4e1d1;stroke:#6bc4a5;stroke-width:0.5;" x="39.718279" xlink:href="#m137ef0f3bd" y="45.837159"/>
     <use style="fill:#b4e1d1;stroke:#6bc4a5;stroke-width:0.5;" x="73.348578" xlink:href="#m137ef0f3bd" y="50.857849"/>
     <use style="fill:#b4e1d1;stroke:#6bc4a5;stroke-width:0.5;" x="106.978876" xlink:href="#m137ef0f3bd" y="56.293995"/>
     <use style="fill:#b4e1d1;stroke:#6bc4a5;stroke-width:0.5;" x="140.609174" xlink:href="#m137ef0f3bd" y="62.183562"/>
     <use style="fill:#b4e1d1;stroke:#6bc4a5;stroke-width:0.5;" x="174.239473" xlink:href="#m137ef0f3bd" y="68.546365"/>
     <use style="fill:#b4e1d1;stroke:#6bc4a5;stroke-width:0.5;" x="207.869771" xlink:href="#m137ef0f3bd" y="75.356291"/>
    </g>
   </g>
   <g id="line2d_17">
    <path clip-path="url(#pb532d00c97)" d="M 39.718279 3.386716 
L 73.348578 11.432353 
L 106.978876 20.129309 
L 140.609174 29.547642 
L 174.239473 39.71308 
L 207.869771 50.561288 
" style="fill:none;stroke:#91d3a4;stroke-dasharray:1.85,0.8;stroke-dashoffset:0;stroke-linecap:round;stroke-width:0.5;"/>
    <defs>
     <path d="M 0 1.5 
C 0.397805 1.5 0.77937 1.341951 1.06066 1.06066 
C 1.341951 0.77937 1.5 0.397805 1.5 0 
C 1.5 -0.397805 1.341951 -0.77937 1.06066 -1.06066 
C 0.77937 -1.341951 0.397805 -1.5 0 -1.5 
C -0.397805 -1.5 -0.77937 -1.341951 -1.06066 -1.06066 
C -1.341951 -0.77937 -1.5 -0.397805 -1.5 0 
C -1.5 0.397805 -1.341951 0.77937 -1.06066 1.06066 
C -0.77937 1.341951 -0.397805 1.5 0 1.5 
z
" id="me3e902bee2" style="stroke:#91d3a4;stroke-width:0.5;"/>
    </defs>
    <g clip-path="url(#pb532d00c97)">
     <use style="fill:#c7e8d1;stroke:#91d3a4;stroke-width:0.5;" x="39.718279" xlink:href="#me3e902bee2" y="3.386716"/>
     <use style="fill:#c7e8d1;stroke:#91d3a4;stroke-width:0.5;" x="73.348578" xlink:href="#me3e902bee2" y="11.432353"/>
     <use style="fill:#c7e8d1;stroke:#91d3a4;stroke-width:0.5;" x="106.978876" xlink:href="#me3e902bee2" y="20.129309"/>
     <use style="fill:#c7e8d1;stroke:#91d3a4;stroke-width:0.5;" x="140.609174" xlink:href="#me3e902bee2" y="29.547642"/>
     <use style="fill:#c7e8d1;stroke:#91d3a4;stroke-width:0.5;" x="174.239473" xlink:href="#me3e902bee2" y="39.71308"/>
     <use style="fill:#c7e8d1;stroke:#91d3a4;stroke-width:0.5;" x="207.869771" xlink:href="#me3e902bee2" y="50.561288"/>
    </g>
   </g>
   <g id="patch_3">
    <path d="M 30.80625 117.386138 
L 30.80625 0.755347 
" style="fill:none;stroke:#000000;stroke-linecap:square;stroke-linejoin:miter;stroke-width:0.35;"/>
   </g>
   <g id="patch_4">
    <path d="M 226.87089 117.386138 
L 226.87089 0.755347 
" style="fill:none;stroke:#000000;stroke-linecap:square;stroke-linejoin:miter;stroke-width:0.35;"/>
   </g>
   <g id="patch_5">
    <path d="M 30.80625 117.386138 
L 226.87089 117.386138 
" style="fill:none;stroke:#000000;stroke-linecap:square;stroke-linejoin:miter;stroke-width:0.35;"/>
   </g>
   <g id="patch_6">
    <path d="M 30.80625 0.755347 
L 226.87089 0.755347 
" style="fill:none;stroke:#000000;stroke-linecap:square;stroke-linejoin:miter;stroke-width:0.35;"/>
   </g>
   <g id="text_14">
    <!-- N = 12 -->
    <defs>
     <path d="M 14.90625 62.796875 
L 14.703125 62.796875 
L 14.703125 0 
L 7.90625 0 
L 7.90625 72 
L 15.59375 72 
L 57.203125 9.09375 
L 57.40625 9.09375 
L 57.40625 72 
L 64.203125 72 
L 64.203125 0 
L 56.296875 0 
z
" id="Helvetica-Light-78"/>
     <path d="M 58 31.796875 
L 8 31.796875 
L 8 37.796875 
L 58 37.796875 
z
M 58 12.40625 
L 8 12.40625 
L 8 18.40625 
L 58 18.40625 
z
" id="Helvetica-Light-61"/>
    </defs>
    <g transform="translate(195.500548 12.418426)scale(0.08 -0.08)">
     <use xlink:href="#Helvetica-Light-78"/>
     <use x="72.199982" xlink:href="#Helvetica-Light-32"/>
     <use x="99.999969" xlink:href="#Helvetica-Light-61"/>
     <use x="165.999954" xlink:href="#Helvetica-Light-32"/>
     <use x="193.799942" xlink:href="#Helvetica-Light-49"/>
     <use x="249.399933" xlink:href="#Helvetica-Light-50"/>
    </g>
   </g>
   <g id="legend_1">
    <g id="LineCollection_7">
     <path d="M 232.07089 51.123754 
L 232.07089 43.123754 
" style="fill:none;stroke:#91d3a4;stroke-width:0.5;"/>
    </g>
    <g id="line2d_18">
     <path d="M 230.07089 47.123754 
L 234.07089 47.123754 
" style="fill:none;stroke:#91d3a4;stroke-dasharray:1.85,0.8;stroke-dashoffset:0;stroke-linecap:round;stroke-width:0.5;"/>
    </g>
    <g id="line2d_19">
     <g>
      <use style="fill:#c7e8d1;stroke:#91d3a4;stroke-width:0.5;" x="232.07089" xlink:href="#me3e902bee2" y="47.123754"/>
     </g>
    </g>
    <g id="text_15">
     <!-- $V = +0.765$ -->
     <defs>
      <path d="M 17.09375 72 
L 24.203125 72 
L 32.296875 8 
L 67.5 72 
L 74.59375 72 
L 34.296875 0 
L 26.796875 0 
z
" id="Helvetica-LightOblique-86"/>
      <path d="M 30 50 
L 36 50 
L 36 28 
L 58 28 
L 58 22 
L 36 22 
L 36 0 
L 30 0 
L 30 22 
L 8 22 
L 8 28 
L 30 28 
z
" id="Helvetica-Light-43"/>
      <path d="M 5.90625 69.796875 
L 50.796875 69.796875 
L 50.796875 63.796875 
Q 43.203125 55.203125 37.890625 46.140625 
Q 32.59375 37.09375 29.1875 28.546875 
Q 25.796875 20 24.140625 12.59375 
Q 22.5 5.203125 22.203125 0 
L 15.203125 0 
Q 15.703125 7.59375 18.25 16.140625 
Q 20.796875 24.703125 24.59375 33.09375 
Q 28.40625 41.5 33.203125 49.34375 
Q 38 57.203125 43.09375 63.40625 
L 5.90625 63.40625 
z
" id="Helvetica-Light-55"/>
     </defs>
     <g transform="translate(238.07089 49.923754)scale(0.08 -0.08)">
      <use xlink:href="#Helvetica-LightOblique-86"/>
      <use transform="translate(77.759988 0)" xlink:href="#Helvetica-Light-61"/>
      <use transform="translate(177.079968 0)" xlink:href="#Helvetica-Light-43"/>
      <use transform="translate(259.739951 0)" xlink:href="#Helvetica-Light-48"/>
      <use transform="translate(315.339941 0)" xlink:href="#Helvetica-Light-46"/>
      <use transform="translate(343.139929 0)" xlink:href="#Helvetica-Light-55"/>
      <use transform="translate(398.73992 0)" xlink:href="#Helvetica-Light-54"/>
      <use transform="translate(454.339911 0)" xlink:href="#Helvetica-Light-53"/>
     </g>
    </g>
    <g id="LineCollection_8">
     <path d="M 232.07089 64.116254 
L 232.07089 56.116254 
" style="fill:none;stroke:#6bc4a5;stroke-width:0.5;"/>
    </g>
    <g id="line2d_20">
     <path d="M 230.07089 60.116254 
L 234.07089 60.116254 
" style="fill:none;stroke:#6bc4a5;stroke-dasharray:1.85,0.8;stroke-dashoffset:0;stroke-linecap:round;stroke-width:0.5;"/>
    </g>
    <g id="line2d_21">
     <g>
      <use style="fill:#b4e1d1;stroke:#6bc4a5;stroke-width:0.5;" x="232.07089" xlink:href="#m137ef0f3bd" y="60.116254"/>
     </g>
    </g>
    <g id="text_16">
     <!-- $V = -0.500$ -->
     <defs>
      <path d="M 8 28 
L 58 28 
L 58 22 
L 8 22 
z
" id="Helvetica-Light-8722"/>
     </defs>
     <g transform="translate(238.07089 62.916254)scale(0.08 -0.08)">
      <use xlink:href="#Helvetica-LightOblique-86"/>
      <use transform="translate(77.759988 0)" xlink:href="#Helvetica-Light-61"/>
      <use transform="translate(177.079968 0)" xlink:href="#Helvetica-Light-8722"/>
      <use transform="translate(259.739951 0)" xlink:href="#Helvetica-Light-48"/>
      <use transform="translate(315.339941 0)" xlink:href="#Helvetica-Light-46"/>
      <use transform="translate(343.139929 0)" xlink:href="#Helvetica-Light-53"/>
      <use transform="translate(398.73992 0)" xlink:href="#Helvetica-Light-48"/>
      <use transform="translate(454.339911 0)" xlink:href="#Helvetica-Light-48"/>
     </g>
    </g>
    <g id="LineCollection_9">
     <path d="M 232.07089 77.108754 
L 232.07089 69.108754 
" style="fill:none;stroke:#50a9af;stroke-width:0.5;"/>
    </g>
    <g id="line2d_22">
     <path d="M 230.07089 73.108754 
L 234.07089 73.108754 
" style="fill:none;stroke:#50a9af;stroke-dasharray:1.85,0.8;stroke-dashoffset:0;stroke-linecap:round;stroke-width:0.5;"/>
    </g>
    <g id="line2d_23">
     <g>
      <use style="fill:#a7d3d6;stroke:#50a9af;stroke-width:0.5;" x="232.07089" xlink:href="#m84bc3612bd" y="73.108754"/>
     </g>
    </g>
    <g id="text_17">
     <!-- $V = +0.250$ -->
     <g transform="translate(238.07089 75.908754)scale(0.08 -0.08)">
      <use xlink:href="#Helvetica-LightOblique-86"/>
      <use transform="translate(77.759988 0)" xlink:href="#Helvetica-Light-61"/>
      <use transform="translate(177.079968 0)" xlink:href="#Helvetica-Light-43"/>
      <use transform="translate(259.739951 0)" xlink:href="#Helvetica-Light-48"/>
      <use transform="translate(315.339941 0)" xlink:href="#Helvetica-Light-46"/>
      <use transform="translate(343.139929 0)" xlink:href="#Helvetica-Light-50"/>
      <use transform="translate(398.73992 0)" xlink:href="#Helvetica-Light-53"/>
      <use transform="translate(454.339911 0)" xlink:href="#Helvetica-Light-48"/>
     </g>
    </g>
    <g id="LineCollection_10">
     <path d="M 232.07089 90.101254 
L 232.07089 82.101254 
" style="fill:none;stroke:#3389bd;stroke-width:0.5;"/>
    </g>
    <g id="line2d_24">
     <path d="M 230.07089 86.101254 
L 234.07089 86.101254 
" style="fill:none;stroke:#3389bd;stroke-dasharray:1.85,0.8;stroke-dashoffset:0;stroke-linecap:round;stroke-width:0.5;"/>
    </g>
    <g id="line2d_25">
     <g>
      <use style="fill:#98c3dd;stroke:#3389bd;stroke-width:0.5;" x="232.07089" xlink:href="#m33d78f6652" y="86.101254"/>
     </g>
    </g>
    <g id="text_18">
     <!-- $V = -0.250$ -->
     <g transform="translate(238.07089 88.901254)scale(0.08 -0.08)">
      <use xlink:href="#Helvetica-LightOblique-86"/>
      <use transform="translate(77.759988 0)" xlink:href="#Helvetica-Light-61"/>
      <use transform="translate(177.079968 0)" xlink:href="#Helvetica-Light-8722"/>
      <use transform="translate(259.739951 0)" xlink:href="#Helvetica-Light-48"/>
      <use transform="translate(315.339941 0)" xlink:href="#Helvetica-Light-46"/>
      <use transform="translate(343.139929 0)" xlink:href="#Helvetica-Light-50"/>
      <use transform="translate(398.73992 0)" xlink:href="#Helvetica-Light-53"/>
      <use transform="translate(454.339911 0)" xlink:href="#Helvetica-Light-48"/>
     </g>
    </g>
    <g id="LineCollection_11">
     <path d="M 232.07089 103.093754 
L 232.07089 95.093754 
" style="fill:none;stroke:#486cb0;stroke-width:0.5;"/>
    </g>
    <g id="line2d_26">
     <path d="M 230.07089 99.093754 
L 234.07089 99.093754 
" style="fill:none;stroke:#486cb0;stroke-dasharray:1.85,0.8;stroke-dashoffset:0;stroke-linecap:round;stroke-width:0.5;"/>
    </g>
    <g id="line2d_27">
     <g>
      <use style="fill:#a3b5d7;stroke:#486cb0;stroke-width:0.5;" x="232.07089" xlink:href="#me7d9e19b99" y="99.093754"/>
     </g>
    </g>
    <g id="text_19">
     <!-- $V = +0.150$ -->
     <g transform="translate(238.07089 101.893754)scale(0.08 -0.08)">
      <use xlink:href="#Helvetica-LightOblique-86"/>
      <use transform="translate(77.759988 0)" xlink:href="#Helvetica-Light-61"/>
      <use transform="translate(177.079968 0)" xlink:href="#Helvetica-Light-43"/>
      <use transform="translate(259.739951 0)" xlink:href="#Helvetica-Light-48"/>
      <use transform="translate(315.339941 0)" xlink:href="#Helvetica-Light-46"/>
      <use transform="translate(343.139929 0)" xlink:href="#Helvetica-Light-49"/>
      <use transform="translate(398.73992 0)" xlink:href="#Helvetica-Light-53"/>
      <use transform="translate(454.339911 0)" xlink:href="#Helvetica-Light-48"/>
     </g>
    </g>
    <g id="LineCollection_12">
     <path d="M 232.07089 116.086254 
L 232.07089 108.086254 
" style="fill:none;stroke:#5e4fa2;stroke-width:0.5;"/>
    </g>
    <g id="line2d_28">
     <path d="M 230.07089 112.086254 
L 234.07089 112.086254 
" style="fill:none;stroke:#5e4fa2;stroke-dasharray:1.85,0.8;stroke-dashoffset:0;stroke-linecap:round;stroke-width:0.5;"/>
    </g>
    <g id="line2d_29">
     <g>
      <use style="fill:#aea6d0;stroke:#5e4fa2;stroke-width:0.5;" x="232.07089" xlink:href="#m2e1c93a227" y="112.086254"/>
     </g>
    </g>
    <g id="text_20">
     <!-- $V = -0.150$ -->
     <g transform="translate(238.07089 114.886254)scale(0.08 -0.08)">
      <use xlink:href="#Helvetica-LightOblique-86"/>
      <use transform="translate(77.759988 0)" xlink:href="#Helvetica-Light-61"/>
      <use transform="translate(177.079968 0)" xlink:href="#Helvetica-Light-8722"/>
      <use transform="translate(259.739951 0)" xlink:href="#Helvetica-Light-48"/>
      <use transform="translate(315.339941 0)" xlink:href="#Helvetica-Light-46"/>
      <use transform="translate(343.139929 0)" xlink:href="#Helvetica-Light-49"/>
      <use transform="translate(398.73992 0)" xlink:href="#Helvetica-Light-53"/>
      <use transform="translate(454.339911 0)" xlink:href="#Helvetica-Light-48"/>
     </g>
    </g>
   </g>
  </g>
 </g>
 <defs>
  <clipPath id="pb532d00c97">
   <rect height="116.630791" width="196.06464" x="30.80625" y="0.755347"/>
  </clipPath>
 </defs>
</svg>
