<?xml version="1.0" encoding="utf-8" standalone="no"?>
<!DOCTYPE svg PUBLIC "-//W3C//DTD SVG 1.1//EN"
  "http://www.w3.org/Graphics/SVG/1.1/DTD/svg11.dtd">
<!-- Created with matplotlib (https://matplotlib.org/) -->
<svg height="145.858638pt" version="1.1" viewBox="0 0 233.22339 145.858638" width="233.22339pt" xmlns="http://www.w3.org/2000/svg" xmlns:xlink="http://www.w3.org/1999/xlink">
 <defs>
  <style type="text/css">
*{stroke-linecap:butt;stroke-linejoin:round;}
  </style>
 </defs>
 <g id="figure_1">
  <g id="patch_1">
   <path d="M 0 145.858638 
L 233.22339 145.858638 
L 233.22339 0 
L 0 0 
z
" style="fill:none;"/>
  </g>
  <g id="axes_1">
   <g id="patch_2">
    <path d="M 33.55875 120.266138 
L 229.62339 120.266138 
L 229.62339 3.635347 
L 33.55875 3.635347 
z
" style="fill:none;"/>
   </g>
   <g id="PolyCollection_1">
    <defs>
     <path d="M 213.985301 -30.978611 
L 213.985301 -30.856552 
L 220.711361 -30.856552 
L 220.711361 -30.978611 
L 220.711361 -30.978611 
L 213.985301 -30.978611 
z
" id="m8206d717fc" style="stroke:#5e4fa2;stroke-opacity:0.6;"/>
    </defs>
    <g>
     <use style="fill:#5e4fa2;fill-opacity:0.6;stroke:#5e4fa2;stroke-opacity:0.6;" x="0" xlink:href="#m8206d717fc" y="145.858638"/>
    </g>
   </g>
   <g id="PolyCollection_2">
    <defs>
     <path d="M 213.985301 -30.62301 
L 213.985301 -30.530138 
L 220.711361 -30.530138 
L 220.711361 -30.62301 
L 220.711361 -30.62301 
L 213.985301 -30.62301 
z
" id="md92af180b2" style="stroke:#486cb0;stroke-opacity:0.6;"/>
    </defs>
    <g>
     <use style="fill:#486cb0;fill-opacity:0.6;stroke:#486cb0;stroke-opacity:0.6;" x="0" xlink:href="#md92af180b2" y="145.858638"/>
    </g>
   </g>
   <g id="PolyCollection_3">
    <defs>
     <path d="M 213.985301 -38.940237 
L 213.985301 -38.711049 
L 220.711361 -38.711049 
L 220.711361 -38.940237 
L 220.711361 -38.940237 
L 213.985301 -38.940237 
z
" id="m43e5215ec7" style="stroke:#3389bd;stroke-opacity:0.6;"/>
    </defs>
    <g>
     <use style="fill:#3389bd;fill-opacity:0.6;stroke:#3389bd;stroke-opacity:0.6;" x="0" xlink:href="#m43e5215ec7" y="145.858638"/>
    </g>
   </g>
   <g id="PolyCollection_4">
    <defs>
     <path d="M 213.985301 -37.539061 
L 213.985301 -37.387997 
L 220.711361 -37.387997 
L 220.711361 -37.539061 
L 220.711361 -37.539061 
L 213.985301 -37.539061 
z
" id="mb40a18a233" style="stroke:#50a9af;stroke-opacity:0.6;"/>
    </defs>
    <g>
     <use style="fill:#50a9af;fill-opacity:0.6;stroke:#50a9af;stroke-opacity:0.6;" x="0" xlink:href="#mb40a18a233" y="145.858638"/>
    </g>
   </g>
   <g id="PolyCollection_5">
    <defs>
     <path d="M 213.985301 -72.043297 
L 213.985301 -70.380787 
L 220.711361 -70.380787 
L 220.711361 -72.043297 
L 220.711361 -72.043297 
L 213.985301 -72.043297 
z
" id="mf2be8bc886" style="stroke:#6bc4a5;stroke-opacity:0.6;"/>
    </defs>
    <g>
     <use style="fill:#6bc4a5;fill-opacity:0.6;stroke:#6bc4a5;stroke-opacity:0.6;" x="0" xlink:href="#mf2be8bc886" y="145.858638"/>
    </g>
   </g>
   <g id="PolyCollection_6">
    <defs>
     <path d="M 213.985301 -97.211431 
L 213.985301 -96.89735 
L 220.711361 -96.89735 
L 220.711361 -97.211431 
L 220.711361 -97.211431 
L 213.985301 -97.211431 
z
" id="mad6b8c013a" style="stroke:#91d3a4;stroke-opacity:0.6;"/>
    </defs>
    <g>
     <use style="fill:#91d3a4;fill-opacity:0.6;stroke:#91d3a4;stroke-opacity:0.6;" x="0" xlink:href="#mad6b8c013a" y="145.858638"/>
    </g>
   </g>
   <g id="matplotlib.axis_1">
    <g id="xtick_1">
     <g id="line2d_1">
      <defs>
       <path d="M 0 0 
L 0 2 
" id="md72a418972" style="stroke:#000000;stroke-width:0.35;"/>
      </defs>
      <g>
       <use style="stroke:#000000;stroke-width:0.35;" x="42.470779" xlink:href="#md72a418972" y="120.266138"/>
      </g>
     </g>
     <g id="text_1">
      <!-- 1 -->
      <defs>
       <path d="M 30.203125 52.40625 
L 12 52.40625 
L 12 56.59375 
Q 16 56.90625 19.25 57.40625 
Q 22.5 57.90625 24.953125 59.296875 
Q 27.40625 60.703125 29.046875 63.34375 
Q 30.703125 66 31.5 70.5 
L 36.59375 70.5 
L 36.59375 0 
L 30.203125 0 
z
" id="Helvetica-Light-49"/>
      </defs>
      <g transform="translate(40.247029 131.026138)scale(0.08 -0.08)">
       <use xlink:href="#Helvetica-Light-49"/>
      </g>
     </g>
    </g>
    <g id="xtick_2">
     <g id="line2d_2">
      <g>
       <use style="stroke:#000000;stroke-width:0.35;" x="76.101078" xlink:href="#md72a418972" y="120.266138"/>
      </g>
     </g>
     <g id="text_2">
      <!-- 2 -->
      <defs>
       <path d="M 6.90625 47.40625 
Q 6.90625 52.59375 8.5 56.84375 
Q 10.09375 61.09375 13.09375 64.140625 
Q 16.09375 67.203125 20.34375 68.84375 
Q 24.59375 70.5 29.796875 70.5 
Q 35.09375 70.5 39.140625 68.953125 
Q 43.203125 67.40625 45.953125 64.796875 
Q 48.703125 62.203125 50.09375 58.59375 
Q 51.5 55 51.5 51 
Q 51.5 46.296875 49.953125 42.6875 
Q 48.40625 39.09375 45.84375 36.296875 
Q 43.296875 33.5 40.046875 31.296875 
Q 36.796875 29.09375 33.390625 27.140625 
Q 30 25.203125 26.703125 23.390625 
Q 23.40625 21.59375 20.796875 19.59375 
Q 19.09375 18.296875 17.5 16.84375 
Q 15.90625 15.40625 14.59375 13.703125 
Q 13.296875 12 12.5 9.953125 
Q 11.703125 7.90625 11.59375 5.40625 
L 50.90625 5.40625 
L 50.90625 0 
L 4.796875 0 
Q 4.90625 5.09375 5.90625 9.1875 
Q 6.90625 13.296875 10.296875 17.203125 
Q 14 21.40625 17.953125 24.40625 
Q 21.90625 27.40625 25.703125 29.75 
Q 29.5 32.09375 32.890625 34.046875 
Q 36.296875 36 38.890625 38.296875 
Q 41.5 40.59375 43 43.5 
Q 44.5 46.40625 44.5 50.59375 
Q 44.5 54 43.296875 56.703125 
Q 42.09375 59.40625 40 61.296875 
Q 37.90625 63.203125 35.09375 64.140625 
Q 32.296875 65.09375 29 65.09375 
Q 25.5 65.09375 22.640625 63.640625 
Q 19.796875 62.203125 17.75 59.796875 
Q 15.703125 57.40625 14.59375 54.203125 
Q 13.5 51 13.703125 47.40625 
z
" id="Helvetica-Light-50"/>
      </defs>
      <g transform="translate(73.877328 131.026138)scale(0.08 -0.08)">
       <use xlink:href="#Helvetica-Light-50"/>
      </g>
     </g>
    </g>
    <g id="xtick_3">
     <g id="line2d_3">
      <g>
       <use style="stroke:#000000;stroke-width:0.35;" x="109.731376" xlink:href="#md72a418972" y="120.266138"/>
      </g>
     </g>
     <g id="text_3">
      <!-- 3 -->
      <defs>
       <path d="M 22.09375 39.203125 
Q 26.59375 39.203125 30.296875 39.75 
Q 34 40.296875 36.640625 41.84375 
Q 39.296875 43.40625 40.796875 46 
Q 42.296875 48.59375 42.296875 52.703125 
Q 42.296875 56 41.09375 58.34375 
Q 39.90625 60.703125 37.84375 62.203125 
Q 35.796875 63.703125 33.046875 64.390625 
Q 30.296875 65.09375 27.296875 65.09375 
Q 23.90625 65.09375 21.15625 64 
Q 18.40625 62.90625 16.40625 60.84375 
Q 14.40625 58.796875 13.296875 56.046875 
Q 12.203125 53.296875 12.203125 50 
L 5.796875 50 
Q 5.796875 54.796875 7.4375 58.640625 
Q 9.09375 62.5 12.59375 65.796875 
Q 15.90625 68.796875 20.046875 69.640625 
Q 24.203125 70.5 28.59375 70.5 
Q 32.796875 70.5 36.4375 69.453125 
Q 40.09375 68.40625 42.796875 66.25 
Q 45.5 64.09375 47.09375 60.796875 
Q 48.703125 57.5 48.703125 53.09375 
Q 48.703125 47.59375 46.25 43.59375 
Q 43.796875 39.59375 38.703125 37.40625 
Q 42.5 36.203125 44.953125 34.25 
Q 47.40625 32.296875 48.796875 29.9375 
Q 50.203125 27.59375 50.703125 25 
Q 51.203125 22.40625 51.203125 20 
Q 51.203125 15.59375 49.703125 11.796875 
Q 48.203125 8 45.296875 5.09375 
Q 42.40625 2.203125 38.15625 0.453125 
Q 33.90625 -1.296875 28.5 -1.40625 
Q 22.40625 -1.40625 17.90625 -0.296875 
Q 13.40625 0.796875 10.40625 3.34375 
Q 7.40625 5.90625 5.703125 10.046875 
Q 4 14.203125 3.40625 20.40625 
L 9.796875 20.40625 
Q 9.796875 12.296875 14.640625 8.140625 
Q 19.5 4 27.296875 4 
Q 31.09375 4 34.390625 5.296875 
Q 37.703125 6.59375 40.046875 8.796875 
Q 42.40625 11 43.65625 13.890625 
Q 44.90625 16.796875 44.796875 19.90625 
Q 44.59375 24.203125 42.796875 27.046875 
Q 41 29.90625 37.953125 31.546875 
Q 34.90625 33.203125 30.796875 33.75 
Q 26.703125 34.296875 22.09375 34 
z
" id="Helvetica-Light-51"/>
      </defs>
      <g transform="translate(107.507626 131.026138)scale(0.08 -0.08)">
       <use xlink:href="#Helvetica-Light-51"/>
      </g>
     </g>
    </g>
    <g id="xtick_4">
     <g id="line2d_4">
      <g>
       <use style="stroke:#000000;stroke-width:0.35;" x="143.361674" xlink:href="#md72a418972" y="120.266138"/>
      </g>
     </g>
     <g id="text_4">
      <!-- 4 -->
      <defs>
       <path d="M 35.796875 17.40625 
L 3.59375 17.40625 
L 3.59375 22.90625 
L 36.40625 69.796875 
L 42.203125 69.796875 
L 42.203125 22.796875 
L 52 22.796875 
L 52 17.40625 
L 42.203125 17.40625 
L 42.203125 0 
L 35.796875 0 
z
M 9.90625 22.796875 
L 35.796875 22.796875 
L 35.796875 60.203125 
z
" id="Helvetica-Light-52"/>
      </defs>
      <g transform="translate(141.137924 131.026138)scale(0.08 -0.08)">
       <use xlink:href="#Helvetica-Light-52"/>
      </g>
     </g>
    </g>
    <g id="xtick_5">
     <g id="line2d_5">
      <g>
       <use style="stroke:#000000;stroke-width:0.35;" x="176.991973" xlink:href="#md72a418972" y="120.266138"/>
      </g>
     </g>
     <g id="text_5">
      <!-- 5 -->
      <defs>
       <path d="M 9.90625 18.296875 
Q 10.90625 11.09375 15.65625 7.546875 
Q 20.40625 4 27.296875 4 
Q 31.203125 4 34.34375 5.390625 
Q 37.5 6.796875 39.703125 9.25 
Q 41.90625 11.703125 43.046875 14.953125 
Q 44.203125 18.203125 44.203125 22 
Q 44.203125 25.90625 42.953125 29.203125 
Q 41.703125 32.5 39.453125 34.890625 
Q 37.203125 37.296875 33.953125 38.59375 
Q 30.703125 39.90625 26.703125 39.90625 
Q 21.90625 39.90625 18.09375 38.15625 
Q 14.296875 36.40625 11.40625 32.59375 
L 6.09375 33.296875 
L 11.796875 69.796875 
L 46.796875 69.796875 
L 46.796875 64.40625 
L 17.203125 64.40625 
L 12.796875 40.703125 
Q 14.90625 42 16.65625 42.890625 
Q 18.40625 43.796875 20.203125 44.34375 
Q 22 44.90625 23.953125 45.09375 
Q 25.90625 45.296875 28.296875 45.296875 
Q 33.09375 45.296875 37.1875 43.6875 
Q 41.296875 42.09375 44.296875 39.09375 
Q 47.296875 36.09375 48.9375 31.75 
Q 50.59375 27.40625 50.59375 22 
Q 50.59375 16.40625 48.75 12.046875 
Q 46.90625 7.703125 43.796875 4.703125 
Q 40.703125 1.703125 36.640625 0.140625 
Q 32.59375 -1.40625 28.296875 -1.40625 
Q 23.296875 -1.40625 18.9375 -0.40625 
Q 14.59375 0.59375 11.296875 2.9375 
Q 8 5.296875 5.953125 9.046875 
Q 3.90625 12.796875 3.5 18.296875 
z
" id="Helvetica-Light-53"/>
      </defs>
      <g transform="translate(174.768223 131.026138)scale(0.08 -0.08)">
       <use xlink:href="#Helvetica-Light-53"/>
      </g>
     </g>
    </g>
    <g id="xtick_6">
     <g id="line2d_6">
      <g>
       <use style="stroke:#000000;stroke-width:0.35;" x="210.622271" xlink:href="#md72a418972" y="120.266138"/>
      </g>
     </g>
     <g id="text_6">
      <!-- 6 -->
      <defs>
       <path d="M 43.703125 53.203125 
Q 42.59375 58.59375 39.296875 61.84375 
Q 36 65.09375 30.296875 65.09375 
Q 23.796875 65.09375 20.046875 62 
Q 16.296875 58.90625 14.296875 54.15625 
Q 12.296875 49.40625 11.59375 43.796875 
Q 10.90625 38.203125 10.5 33.203125 
Q 12 35.203125 13.640625 37.203125 
Q 15.296875 39.203125 17.390625 40.75 
Q 19.5 42.296875 22.296875 43.25 
Q 25.09375 44.203125 29 44.203125 
Q 39.703125 44.203125 45.546875 38.140625 
Q 51.40625 32.09375 51.40625 21.5 
Q 51.40625 10.796875 45.5 4.6875 
Q 39.59375 -1.40625 28.796875 -1.40625 
Q 23.5 -1.40625 19 0.34375 
Q 14.5 2.09375 11.203125 6.09375 
Q 7.90625 10.09375 6 16.546875 
Q 4.09375 23 4.09375 32.296875 
Q 4.09375 38.59375 5.1875 45.34375 
Q 6.296875 52.09375 9.140625 57.6875 
Q 12 63.296875 16.953125 66.890625 
Q 21.90625 70.5 29.703125 70.5 
Q 38.09375 70.5 43.6875 66.09375 
Q 49.296875 61.703125 50.296875 53.203125 
z
M 28.796875 38.796875 
Q 25.09375 38.796875 22.140625 37.390625 
Q 19.203125 36 17.140625 33.59375 
Q 15.09375 31.203125 14 28.046875 
Q 12.90625 24.90625 12.90625 21.296875 
Q 12.90625 18.296875 13.75 15.25 
Q 14.59375 12.203125 16.546875 9.703125 
Q 18.5 7.203125 21.5 5.59375 
Q 24.5 4 28.90625 4 
Q 33.40625 4 36.453125 5.546875 
Q 39.5 7.09375 41.390625 9.640625 
Q 43.296875 12.203125 44.140625 15.34375 
Q 45 18.5 45 21.703125 
Q 45 29.90625 41.046875 34.34375 
Q 37.09375 38.796875 28.796875 38.796875 
z
" id="Helvetica-Light-54"/>
      </defs>
      <g transform="translate(208.398521 131.026138)scale(0.08 -0.08)">
       <use xlink:href="#Helvetica-Light-54"/>
      </g>
     </g>
    </g>
    <g id="text_7">
     <!-- Bipartition Size  $n$ -->
     <defs>
      <path d="M 14.90625 5.796875 
L 32.203125 5.796875 
Q 37.796875 5.796875 41.9375 6.296875 
Q 46.09375 6.796875 48.796875 8.34375 
Q 51.5 9.90625 52.84375 12.75 
Q 54.203125 15.59375 54.203125 20.296875 
Q 54.203125 24.796875 52.703125 27.546875 
Q 51.203125 30.296875 48.390625 31.796875 
Q 45.59375 33.296875 41.6875 33.84375 
Q 37.796875 34.40625 33 34.40625 
L 14.90625 34.40625 
z
M 14.90625 40.203125 
L 32.09375 40.203125 
Q 37.40625 40.203125 41 41.09375 
Q 44.59375 42 46.796875 43.75 
Q 49 45.5 49.953125 48.046875 
Q 50.90625 50.59375 50.90625 53.90625 
Q 50.90625 57.296875 49.796875 59.640625 
Q 48.703125 62 46.296875 63.453125 
Q 43.90625 64.90625 40.046875 65.546875 
Q 36.203125 66.203125 30.59375 66.203125 
L 14.90625 66.203125 
z
M 8.09375 0 
L 8.09375 72 
L 34.09375 72 
Q 40.40625 72 44.90625 70.703125 
Q 49.40625 69.40625 52.25 67 
Q 55.09375 64.59375 56.390625 61.25 
Q 57.703125 57.90625 57.703125 53.90625 
Q 57.703125 50.09375 56.703125 47.34375 
Q 55.703125 44.59375 54.09375 42.75 
Q 52.5 40.90625 50.453125 39.84375 
Q 48.40625 38.796875 46.203125 38.40625 
L 46.203125 38.203125 
Q 53.703125 37.09375 57.34375 32.296875 
Q 61 27.5 61 20.296875 
Q 61 14.703125 59.25 10.796875 
Q 57.5 6.90625 54.390625 4.5 
Q 51.296875 2.09375 46.9375 1.046875 
Q 42.59375 0 37.5 0 
z
" id="Helvetica-Light-66"/>
      <path d="M 8.09375 0 
L 8.09375 51.796875 
L 14.09375 51.796875 
L 14.09375 0 
z
M 7.796875 63.09375 
L 7.796875 72 
L 14.40625 72 
L 14.40625 63.09375 
z
" id="Helvetica-Light-105"/>
      <path d="M 13.90625 25.703125 
Q 13.90625 21.296875 15.09375 17.34375 
Q 16.296875 13.40625 18.546875 10.453125 
Q 20.796875 7.5 24.046875 5.75 
Q 27.296875 4 31.40625 4 
Q 36 4 39.453125 5.84375 
Q 42.90625 7.703125 45.09375 10.890625 
Q 47.296875 14.09375 48.296875 18.34375 
Q 49.296875 22.59375 49.09375 27.5 
Q 49.09375 32.40625 47.75 36.15625 
Q 46.40625 39.90625 44 42.5 
Q 41.59375 45.09375 38.390625 46.4375 
Q 35.203125 47.796875 31.40625 47.796875 
Q 27.203125 47.796875 23.890625 46.09375 
Q 20.59375 44.40625 18.390625 41.453125 
Q 16.203125 38.5 15.046875 34.453125 
Q 13.90625 30.40625 13.90625 25.703125 
z
M 13.90625 -20.40625 
L 7.90625 -20.40625 
L 7.90625 51.796875 
L 13.90625 51.796875 
L 13.90625 42.703125 
L 14.09375 42.703125 
Q 15.40625 45.203125 17.453125 47.203125 
Q 19.5 49.203125 21.953125 50.5 
Q 24.40625 51.796875 27 52.5 
Q 29.59375 53.203125 32.09375 53.203125 
Q 38.40625 53.203125 42.796875 51.09375 
Q 47.203125 49 50.046875 45.34375 
Q 52.90625 41.703125 54.203125 36.703125 
Q 55.5 31.703125 55.5 26 
Q 55.5 20.59375 54.09375 15.59375 
Q 52.703125 10.59375 49.84375 6.84375 
Q 47 3.09375 42.640625 0.84375 
Q 38.296875 -1.40625 32.40625 -1.40625 
Q 26.90625 -1.40625 21.84375 1.046875 
Q 16.796875 3.5 13.90625 8.296875 
z
" id="Helvetica-Light-112"/>
      <path d="M 41.09375 27.203125 
Q 37.296875 25.59375 33.390625 25.09375 
Q 29.5 24.59375 25.59375 24.296875 
Q 18.703125 23.796875 14.84375 21.1875 
Q 11 18.59375 11 13.296875 
Q 11 10.90625 11.953125 9.15625 
Q 12.90625 7.40625 14.453125 6.25 
Q 16 5.09375 18.046875 4.546875 
Q 20.09375 4 22.203125 4 
Q 25.796875 4 29.1875 4.890625 
Q 32.59375 5.796875 35.25 7.640625 
Q 37.90625 9.5 39.5 12.34375 
Q 41.09375 15.203125 41.09375 19.09375 
z
M 31 30.203125 
Q 32.703125 30.40625 35.046875 30.796875 
Q 37.40625 31.203125 38.90625 31.90625 
Q 40.40625 32.59375 40.75 34.25 
Q 41.09375 35.90625 41.09375 37.296875 
Q 41.09375 41.90625 38.140625 44.84375 
Q 35.203125 47.796875 28.203125 47.796875 
Q 25.09375 47.796875 22.5 47.25 
Q 19.90625 46.703125 17.953125 45.34375 
Q 16 44 14.75 41.75 
Q 13.5 39.5 13.09375 36.09375 
L 7 36.09375 
Q 7.296875 40.703125 9.09375 43.953125 
Q 10.90625 47.203125 13.75 49.25 
Q 16.59375 51.296875 20.34375 52.25 
Q 24.09375 53.203125 28.296875 53.203125 
Q 32.203125 53.203125 35.640625 52.34375 
Q 39.09375 51.5 41.640625 49.640625 
Q 44.203125 47.796875 45.640625 44.6875 
Q 47.09375 41.59375 47.09375 37.09375 
L 47.09375 8.90625 
Q 47.09375 5.40625 48.34375 4.453125 
Q 49.59375 3.5 53.40625 4.90625 
L 53.40625 0.203125 
Q 52.703125 0 51.34375 -0.390625 
Q 50 -0.796875 48.703125 -0.796875 
Q 47.296875 -0.796875 46 -0.5 
Q 44.5 -0.296875 43.59375 0.453125 
Q 42.703125 1.203125 42.140625 2.25 
Q 41.59375 3.296875 41.390625 4.546875 
Q 41.203125 5.796875 41.203125 7.203125 
Q 37.40625 3 32.5 0.796875 
Q 27.59375 -1.40625 21.90625 -1.40625 
Q 18.5 -1.40625 15.34375 -0.5 
Q 12.203125 0.40625 9.796875 2.296875 
Q 7.40625 4.203125 6 6.953125 
Q 4.59375 9.703125 4.59375 13.5 
Q 4.59375 26.703125 22.703125 29.09375 
z
" id="Helvetica-Light-97"/>
      <path d="M 13.5 0 
L 7.5 0 
L 7.5 51.796875 
L 13.5 51.796875 
L 13.5 42.09375 
L 13.703125 42.09375 
Q 16.203125 48.296875 20.140625 50.75 
Q 24.09375 53.203125 30.59375 53.203125 
L 30.59375 46.703125 
Q 25.5 46.796875 22.203125 45.09375 
Q 18.90625 43.40625 16.953125 40.5 
Q 15 37.59375 14.25 33.640625 
Q 13.5 29.703125 13.5 25.40625 
z
" id="Helvetica-Light-114"/>
      <path d="M 25.40625 -0.203125 
Q 24.296875 -0.40625 22.5 -0.90625 
Q 20.703125 -1.40625 18.5 -1.40625 
Q 14 -1.40625 11.640625 0.84375 
Q 9.296875 3.09375 9.296875 8.90625 
L 9.296875 46.796875 
L 2 46.796875 
L 2 51.796875 
L 9.296875 51.796875 
L 9.296875 66.203125 
L 15.296875 66.203125 
L 15.296875 51.796875 
L 25 51.796875 
L 25 46.796875 
L 15.296875 46.796875 
L 15.296875 11.296875 
Q 15.296875 9.40625 15.390625 8 
Q 15.5 6.59375 16 5.6875 
Q 16.5 4.796875 17.546875 4.390625 
Q 18.59375 4 20.5 4 
Q 21.703125 4 22.953125 4.203125 
Q 24.203125 4.40625 25.40625 4.703125 
z
" id="Helvetica-Light-116"/>
      <path d="M 27.796875 -1.40625 
Q 22.796875 -1.296875 18.4375 0.390625 
Q 14.09375 2.09375 10.84375 5.5 
Q 7.59375 8.90625 5.6875 14 
Q 3.796875 19.09375 3.796875 25.90625 
Q 3.796875 31.59375 5.296875 36.546875 
Q 6.796875 41.5 9.796875 45.203125 
Q 12.796875 48.90625 17.296875 51.046875 
Q 21.796875 53.203125 27.796875 53.203125 
Q 33.90625 53.203125 38.40625 51.046875 
Q 42.90625 48.90625 45.90625 45.25 
Q 48.90625 41.59375 50.34375 36.59375 
Q 51.796875 31.59375 51.796875 25.90625 
Q 51.796875 19.703125 50.09375 14.703125 
Q 48.40625 9.703125 45.25 6.09375 
Q 42.09375 2.5 37.640625 0.546875 
Q 33.203125 -1.40625 27.796875 -1.40625 
z
M 45.40625 25.90625 
Q 45.40625 30.5 44.40625 34.5 
Q 43.40625 38.5 41.296875 41.453125 
Q 39.203125 44.40625 35.890625 46.09375 
Q 32.59375 47.796875 27.796875 47.796875 
Q 23.09375 47.796875 19.75 45.9375 
Q 16.40625 44.09375 14.296875 41.046875 
Q 12.203125 38 11.203125 34.046875 
Q 10.203125 30.09375 10.203125 25.90625 
Q 10.203125 21.09375 11.34375 17.046875 
Q 12.5 13 14.703125 10.09375 
Q 16.90625 7.203125 20.203125 5.59375 
Q 23.5 4 27.796875 4 
Q 32.5 4 35.84375 5.84375 
Q 39.203125 7.703125 41.296875 10.796875 
Q 43.40625 13.90625 44.40625 17.796875 
Q 45.40625 21.703125 45.40625 25.90625 
z
" id="Helvetica-Light-111"/>
      <path d="M 13.203125 0 
L 7.203125 0 
L 7.203125 51.796875 
L 13.203125 51.796875 
L 13.203125 44.59375 
Q 16.796875 48.40625 20.640625 50.796875 
Q 24.5 53.203125 29.90625 53.203125 
Q 34.703125 53.203125 38.796875 51.546875 
Q 42.90625 49.90625 45.703125 45.796875 
Q 47.59375 43 47.9375 40.046875 
Q 48.296875 37.09375 48.296875 33.90625 
L 48.296875 0 
L 42.296875 0 
L 42.296875 33.796875 
Q 42.296875 40.796875 39.1875 44.296875 
Q 36.09375 47.796875 28.90625 47.796875 
Q 26.09375 47.796875 23.796875 46.9375 
Q 21.5 46.09375 19.640625 44.6875 
Q 17.796875 43.296875 16.5 41.5 
Q 15.203125 39.703125 14.5 37.703125 
Q 13.59375 35.203125 13.390625 32.890625 
Q 13.203125 30.59375 13.203125 27.90625 
z
" id="Helvetica-Light-110"/>
      <path id="Helvetica-Light-32"/>
      <path d="M 10.90625 21.5 
Q 11.296875 16.703125 13.046875 13.34375 
Q 14.796875 10 17.546875 7.890625 
Q 20.296875 5.796875 23.890625 4.84375 
Q 27.5 3.90625 31.59375 3.90625 
Q 36.40625 3.90625 39.90625 5.09375 
Q 43.40625 6.296875 45.59375 8.34375 
Q 47.796875 10.40625 48.84375 13.09375 
Q 49.90625 15.796875 49.90625 18.796875 
Q 49.90625 23 48 25.59375 
Q 46.09375 28.203125 43.046875 29.84375 
Q 40 31.5 36.046875 32.5 
Q 32.09375 33.5 27.9375 34.453125 
Q 23.796875 35.40625 19.84375 36.703125 
Q 15.90625 38 12.84375 40.203125 
Q 9.796875 42.40625 7.890625 45.84375 
Q 6 49.296875 6 54.59375 
Q 6 58.296875 7.546875 61.796875 
Q 9.09375 65.296875 12.140625 68 
Q 15.203125 70.703125 19.796875 72.296875 
Q 24.40625 73.90625 30.40625 73.90625 
Q 36.5 73.90625 41.046875 72.203125 
Q 45.59375 70.5 48.59375 67.546875 
Q 51.59375 64.59375 53.09375 60.6875 
Q 54.59375 56.796875 54.59375 52.40625 
L 48.09375 52.40625 
Q 48.09375 56.5 46.640625 59.5 
Q 45.203125 62.5 42.703125 64.390625 
Q 40.203125 66.296875 37 67.1875 
Q 33.796875 68.09375 30.40625 68.09375 
Q 25.203125 68.09375 21.640625 66.640625 
Q 18.09375 65.203125 16 62.890625 
Q 13.90625 60.59375 13.09375 57.796875 
Q 12.296875 55 12.796875 52.203125 
Q 13.40625 48.703125 15.59375 46.59375 
Q 17.796875 44.5 21 43.140625 
Q 24.203125 41.796875 28.046875 40.9375 
Q 31.90625 40.09375 35.90625 39.140625 
Q 39.90625 38.203125 43.65625 36.890625 
Q 47.40625 35.59375 50.296875 33.390625 
Q 53.203125 31.203125 54.953125 27.75 
Q 56.703125 24.296875 56.703125 19.09375 
Q 56.703125 9.09375 49.796875 3.59375 
Q 42.90625 -1.90625 30.40625 -1.90625 
Q 24.796875 -1.90625 20 -0.453125 
Q 15.203125 1 11.703125 3.953125 
Q 8.203125 6.90625 6.25 11.25 
Q 4.296875 15.59375 4.296875 21.5 
z
" id="Helvetica-Light-83"/>
      <path d="M 3.296875 0 
L 3.296875 5.296875 
L 37.703125 46.796875 
L 5.59375 46.796875 
L 5.59375 51.796875 
L 45.40625 51.796875 
L 45.40625 46.5 
L 11 5 
L 46.703125 5 
L 46.703125 0 
z
" id="Helvetica-Light-122"/>
      <path d="M 44.703125 29.5 
Q 44.703125 33.296875 43.640625 36.640625 
Q 42.59375 40 40.546875 42.453125 
Q 38.5 44.90625 35.390625 46.34375 
Q 32.296875 47.796875 28.296875 47.796875 
Q 24.296875 47.796875 21.25 46.296875 
Q 18.203125 44.796875 16.046875 42.296875 
Q 13.90625 39.796875 12.59375 36.5 
Q 11.296875 33.203125 10.90625 29.5 
z
M 10.90625 24.5 
Q 10.90625 20.296875 12 16.546875 
Q 13.09375 12.796875 15.25 10.046875 
Q 17.40625 7.296875 20.703125 5.640625 
Q 24 4 28.296875 4 
Q 34.203125 4 38.390625 7.09375 
Q 42.59375 10.203125 44 15.90625 
L 50.703125 15.90625 
Q 49.59375 12.203125 47.796875 9.046875 
Q 46 5.90625 43.296875 3.546875 
Q 40.59375 1.203125 36.890625 -0.09375 
Q 33.203125 -1.40625 28.296875 -1.40625 
Q 22.09375 -1.40625 17.59375 0.6875 
Q 13.09375 2.796875 10.1875 6.4375 
Q 7.296875 10.09375 5.890625 15.046875 
Q 4.5 20 4.5 25.703125 
Q 4.5 31.40625 6.140625 36.40625 
Q 7.796875 41.40625 10.84375 45.15625 
Q 13.90625 48.90625 18.296875 51.046875 
Q 22.703125 53.203125 28.296875 53.203125 
Q 39 53.203125 45.09375 45.84375 
Q 51.203125 38.5 51.09375 24.5 
z
" id="Helvetica-Light-101"/>
      <path d="M 55.71875 33.015625 
L 49.3125 0 
L 40.28125 0 
L 46.6875 32.671875 
Q 47.125 34.96875 47.359375 36.71875 
Q 47.609375 38.484375 47.609375 39.5 
Q 47.609375 43.609375 45.015625 45.890625 
Q 42.4375 48.1875 37.796875 48.1875 
Q 30.5625 48.1875 25.34375 43.375 
Q 20.125 38.578125 18.5 30.328125 
L 12.5 0 
L 3.515625 0 
L 14.109375 54.6875 
L 23.09375 54.6875 
L 21.296875 46.09375 
Q 25.046875 50.828125 30.3125 53.40625 
Q 35.59375 56 41.40625 56 
Q 48.640625 56 52.609375 52.09375 
Q 56.59375 48.1875 56.59375 41.109375 
Q 56.59375 39.359375 56.375 37.359375 
Q 56.15625 35.359375 55.71875 33.015625 
z
" id="DejaVuSans-Oblique-110"/>
     </defs>
     <g transform="translate(100.15107 140.578638)scale(0.08 -0.08)">
      <use transform="translate(0 0.09375)" xlink:href="#Helvetica-Light-66"/>
      <use transform="translate(66.699997 0.09375)" xlink:href="#Helvetica-Light-105"/>
      <use transform="translate(88.899994 0.09375)" xlink:href="#Helvetica-Light-112"/>
      <use transform="translate(149.999985 0.09375)" xlink:href="#Helvetica-Light-97"/>
      <use transform="translate(205.599976 0.09375)" xlink:href="#Helvetica-Light-114"/>
      <use transform="translate(238.899963 0.09375)" xlink:href="#Helvetica-Light-116"/>
      <use transform="translate(266.699951 0.09375)" xlink:href="#Helvetica-Light-105"/>
      <use transform="translate(288.899948 0.09375)" xlink:href="#Helvetica-Light-116"/>
      <use transform="translate(316.699936 0.09375)" xlink:href="#Helvetica-Light-105"/>
      <use transform="translate(338.899933 0.09375)" xlink:href="#Helvetica-Light-111"/>
      <use transform="translate(394.499924 0.09375)" xlink:href="#Helvetica-Light-110"/>
      <use transform="translate(450.099915 0.09375)" xlink:href="#Helvetica-Light-32"/>
      <use transform="translate(477.899902 0.09375)" xlink:href="#Helvetica-Light-83"/>
      <use transform="translate(538.999893 0.09375)" xlink:href="#Helvetica-Light-105"/>
      <use transform="translate(561.19989 0.09375)" xlink:href="#Helvetica-Light-122"/>
      <use transform="translate(611.199875 0.09375)" xlink:href="#Helvetica-Light-101"/>
      <use transform="translate(666.799866 0.09375)" xlink:href="#Helvetica-Light-32"/>
      <use transform="translate(694.599854 0.09375)" xlink:href="#Helvetica-Light-32"/>
      <use transform="translate(722.399841 0.09375)" xlink:href="#DejaVuSans-Oblique-110"/>
     </g>
    </g>
   </g>
   <g id="matplotlib.axis_2">
    <g id="ytick_1">
     <g id="line2d_7">
      <defs>
       <path d="M 0 0 
L -2 0 
" id="mdaa550f2a5" style="stroke:#000000;stroke-width:0.35;"/>
      </defs>
      <g>
       <use style="stroke:#000000;stroke-width:0.35;" x="33.55875" xlink:href="#mdaa550f2a5" y="120.266138"/>
      </g>
     </g>
     <g id="text_8">
      <!-- 0.00 -->
      <defs>
       <path d="M 45.203125 34.703125 
Q 45.203125 40.40625 44.546875 45.84375 
Q 43.90625 51.296875 42 55.59375 
Q 40.09375 59.90625 36.640625 62.5 
Q 33.203125 65.09375 27.59375 65.09375 
Q 22.296875 65.09375 18.9375 62.4375 
Q 15.59375 59.796875 13.6875 55.390625 
Q 11.796875 51 11.046875 45.390625 
Q 10.296875 39.796875 10.296875 34 
Q 10.296875 27.203125 11.140625 21.640625 
Q 12 16.09375 14 12.1875 
Q 16 8.296875 19.34375 6.140625 
Q 22.703125 4 27.796875 4 
Q 33.5 4 36.953125 6.796875 
Q 40.40625 9.59375 42.203125 14 
Q 44 18.40625 44.59375 23.90625 
Q 45.203125 29.40625 45.203125 34.703125 
z
M 27.796875 70.5 
Q 33 70.5 36.796875 68.953125 
Q 40.59375 67.40625 43.25 64.703125 
Q 45.90625 62 47.546875 58.390625 
Q 49.203125 54.796875 50.09375 50.75 
Q 51 46.703125 51.296875 42.390625 
Q 51.59375 38.09375 51.59375 34 
Q 51.59375 27 50.59375 20.59375 
Q 49.59375 14.203125 46.9375 9.296875 
Q 44.296875 4.40625 39.6875 1.5 
Q 35.09375 -1.40625 27.796875 -1.40625 
Q 20.5 -1.40625 15.84375 1.5 
Q 11.203125 4.40625 8.546875 9.34375 
Q 5.90625 14.296875 4.90625 20.84375 
Q 3.90625 27.40625 3.90625 34.703125 
Q 3.90625 41.40625 4.796875 47.796875 
Q 5.703125 54.203125 8.25 59.25 
Q 10.796875 64.296875 15.5 67.390625 
Q 20.203125 70.5 27.796875 70.5 
z
" id="Helvetica-Light-48"/>
       <path d="M 10.203125 0 
L 10.203125 8.796875 
L 17.5 8.796875 
L 17.5 0 
z
" id="Helvetica-Light-46"/>
      </defs>
      <g transform="translate(12.9925 123.146138)scale(0.08 -0.08)">
       <use xlink:href="#Helvetica-Light-48"/>
       <use x="55.599991" xlink:href="#Helvetica-Light-46"/>
       <use x="83.399979" xlink:href="#Helvetica-Light-48"/>
       <use x="138.999969" xlink:href="#Helvetica-Light-48"/>
      </g>
     </g>
    </g>
    <g id="ytick_2">
     <g id="line2d_8">
      <g>
       <use style="stroke:#000000;stroke-width:0.35;" x="33.55875" xlink:href="#mdaa550f2a5" y="91.819603"/>
      </g>
     </g>
     <g id="text_9">
      <!-- 0.02 -->
      <g transform="translate(12.9925 94.699603)scale(0.08 -0.08)">
       <use xlink:href="#Helvetica-Light-48"/>
       <use x="55.599991" xlink:href="#Helvetica-Light-46"/>
       <use x="83.399979" xlink:href="#Helvetica-Light-48"/>
       <use x="138.999969" xlink:href="#Helvetica-Light-50"/>
      </g>
     </g>
    </g>
    <g id="ytick_3">
     <g id="line2d_9">
      <g>
       <use style="stroke:#000000;stroke-width:0.35;" x="33.55875" xlink:href="#mdaa550f2a5" y="63.373069"/>
      </g>
     </g>
     <g id="text_10">
      <!-- 0.04 -->
      <g transform="translate(12.9925 66.253069)scale(0.08 -0.08)">
       <use xlink:href="#Helvetica-Light-48"/>
       <use x="55.599991" xlink:href="#Helvetica-Light-46"/>
       <use x="83.399979" xlink:href="#Helvetica-Light-48"/>
       <use x="138.999969" xlink:href="#Helvetica-Light-52"/>
      </g>
     </g>
    </g>
    <g id="ytick_4">
     <g id="line2d_10">
      <g>
       <use style="stroke:#000000;stroke-width:0.35;" x="33.55875" xlink:href="#mdaa550f2a5" y="34.926534"/>
      </g>
     </g>
     <g id="text_11">
      <!-- 0.06 -->
      <g transform="translate(12.9925 37.806534)scale(0.08 -0.08)">
       <use xlink:href="#Helvetica-Light-48"/>
       <use x="55.599991" xlink:href="#Helvetica-Light-46"/>
       <use x="83.399979" xlink:href="#Helvetica-Light-48"/>
       <use x="138.999969" xlink:href="#Helvetica-Light-54"/>
      </g>
     </g>
    </g>
    <g id="ytick_5">
     <g id="line2d_11">
      <g>
       <use style="stroke:#000000;stroke-width:0.35;" x="33.55875" xlink:href="#mdaa550f2a5" y="6.48"/>
      </g>
     </g>
     <g id="text_12">
      <!-- 0.08 -->
      <defs>
       <path d="M 27.90625 34.5 
Q 24.203125 34.5 21.09375 33.59375 
Q 18 32.703125 15.703125 30.84375 
Q 13.40625 29 12.09375 26.140625 
Q 10.796875 23.296875 10.796875 19.40625 
Q 10.796875 16.09375 12.046875 13.296875 
Q 13.296875 10.5 15.546875 8.453125 
Q 17.796875 6.40625 21.046875 5.203125 
Q 24.296875 4 28.296875 4 
Q 31.796875 4 34.796875 5.140625 
Q 37.796875 6.296875 40.046875 8.390625 
Q 42.296875 10.5 43.546875 13.390625 
Q 44.796875 16.296875 44.796875 19.796875 
Q 44.796875 23.5 43.5 26.25 
Q 42.203125 29 39.890625 30.84375 
Q 37.59375 32.703125 34.5 33.59375 
Q 31.40625 34.5 27.90625 34.5 
z
M 27.59375 65.09375 
Q 24.59375 65.09375 22 64.296875 
Q 19.40625 63.5 17.453125 61.890625 
Q 15.5 60.296875 14.390625 57.890625 
Q 13.296875 55.5 13.296875 52.40625 
Q 13.296875 49.09375 14.546875 46.75 
Q 15.796875 44.40625 17.890625 42.90625 
Q 20 41.40625 22.703125 40.65625 
Q 25.40625 39.90625 28.296875 39.90625 
Q 31.203125 39.90625 33.703125 40.65625 
Q 36.203125 41.40625 38 43.09375 
Q 39.796875 44.796875 40.84375 47.390625 
Q 41.90625 50 41.90625 53.796875 
Q 41.90625 59.203125 38.40625 62.140625 
Q 34.90625 65.09375 27.59375 65.09375 
z
M 16.703125 37.90625 
Q 14.09375 39.5 12.25 40.953125 
Q 10.40625 42.40625 9.203125 44.09375 
Q 8 45.796875 7.453125 47.9375 
Q 6.90625 50.09375 6.90625 53.296875 
Q 6.90625 56.90625 8.5 60.09375 
Q 10.09375 63.296875 12.796875 65.640625 
Q 15.5 68 19.140625 69.296875 
Q 22.796875 70.59375 27 70.5 
Q 31 70.5 34.84375 69.5 
Q 38.703125 68.5 41.703125 66.390625 
Q 44.703125 64.296875 46.5 61.046875 
Q 48.296875 57.796875 48.296875 53.296875 
Q 48.296875 47.796875 46.046875 43.890625 
Q 43.796875 40 38.703125 37.5 
Q 44.5 35.40625 47.84375 30.796875 
Q 51.203125 26.203125 51.203125 20 
Q 51.203125 14.796875 49.453125 10.796875 
Q 47.703125 6.796875 44.453125 4.09375 
Q 41.203125 1.40625 36.59375 0 
Q 32 -1.40625 26.40625 -1.40625 
Q 22.59375 -1.40625 18.640625 -0.09375 
Q 14.703125 1.203125 11.546875 3.796875 
Q 8.40625 6.40625 6.40625 10.296875 
Q 4.40625 14.203125 4.40625 19.40625 
Q 4.40625 25.703125 7.546875 30.640625 
Q 10.703125 35.59375 16.703125 37.90625 
z
" id="Helvetica-Light-56"/>
      </defs>
      <g transform="translate(12.9925 9.36)scale(0.08 -0.08)">
       <use xlink:href="#Helvetica-Light-48"/>
       <use x="55.599991" xlink:href="#Helvetica-Light-46"/>
       <use x="83.399979" xlink:href="#Helvetica-Light-48"/>
       <use x="138.999969" xlink:href="#Helvetica-Light-56"/>
      </g>
     </g>
    </g>
    <g id="text_13">
     <!-- $\Delta S(t\to\infty;n)/n$ -->
     <defs>
      <path d="M 34.1875 63.1875 
L 14.15625 8.203125 
L 54.25 8.203125 
z
M 0.78125 0 
L 28.609375 72.90625 
L 39.796875 72.90625 
L 67.578125 0 
z
" id="DejaVuSans-916"/>
      <path d="M 60.296875 70.515625 
L 58.40625 60.890625 
Q 53.46875 63.53125 48.609375 64.875 
Q 43.75 66.21875 39.203125 66.21875 
Q 30.375 66.21875 25.140625 62.359375 
Q 19.921875 58.5 19.921875 52.09375 
Q 19.921875 48.578125 21.84375 46.703125 
Q 23.78125 44.828125 31.78125 42.671875 
L 37.703125 41.21875 
Q 47.703125 38.625 51.609375 34.640625 
Q 55.515625 30.671875 55.515625 23.484375 
Q 55.515625 12.453125 46.84375 5.515625 
Q 38.1875 -1.421875 24.03125 -1.421875 
Q 18.21875 -1.421875 12.359375 -0.265625 
Q 6.5 0.875 0.59375 3.21875 
L 2.59375 13.375 
Q 8.015625 10.015625 13.453125 8.296875 
Q 18.890625 6.59375 24.3125 6.59375 
Q 33.546875 6.59375 39.109375 10.6875 
Q 44.671875 14.796875 44.671875 21.390625 
Q 44.671875 25.78125 42.453125 28.046875 
Q 40.234375 30.328125 32.90625 32.171875 
L 27 33.6875 
Q 16.890625 36.328125 13.203125 39.765625 
Q 9.515625 43.21875 9.515625 49.421875 
Q 9.515625 60.296875 17.890625 67.25 
Q 26.265625 74.21875 39.703125 74.21875 
Q 44.921875 74.21875 50.046875 73.28125 
Q 55.171875 72.359375 60.296875 70.515625 
z
" id="DejaVuSans-Oblique-83"/>
      <path d="M 31 75.875 
Q 24.46875 64.65625 21.28125 53.65625 
Q 18.109375 42.671875 18.109375 31.390625 
Q 18.109375 20.125 21.3125 9.0625 
Q 24.515625 -2 31 -13.1875 
L 23.1875 -13.1875 
Q 15.875 -1.703125 12.234375 9.375 
Q 8.59375 20.453125 8.59375 31.390625 
Q 8.59375 42.28125 12.203125 53.3125 
Q 15.828125 64.359375 23.1875 75.875 
z
" id="DejaVuSans-40"/>
      <path d="M 42.28125 54.6875 
L 40.921875 47.703125 
L 23 47.703125 
L 17.1875 18.015625 
Q 16.890625 16.359375 16.75 15.234375 
Q 16.609375 14.109375 16.609375 13.484375 
Q 16.609375 10.359375 18.484375 8.9375 
Q 20.359375 7.515625 24.515625 7.515625 
L 33.59375 7.515625 
L 32.078125 0 
L 23.484375 0 
Q 15.484375 0 11.546875 3.125 
Q 7.625 6.25 7.625 12.59375 
Q 7.625 13.71875 7.765625 15.0625 
Q 7.90625 16.40625 8.203125 18.015625 
L 14.015625 47.703125 
L 6.390625 47.703125 
L 7.8125 54.6875 
L 15.28125 54.6875 
L 18.3125 70.21875 
L 27.296875 70.21875 
L 24.3125 54.6875 
z
" id="DejaVuSans-Oblique-116"/>
      <path d="M 78.90625 33.546875 
L 78.90625 29.15625 
L 59.71875 9.96875 
L 53.859375 15.828125 
L 65.234375 27.203125 
L 5.71875 27.203125 
L 5.71875 35.5 
L 65.234375 35.5 
L 53.859375 46.875 
L 59.71875 52.734375 
z
" id="DejaVuSans-8594"/>
      <path d="M 45.5625 17.046875 
Q 44.046875 18.796875 41.65625 22.90625 
Q 38.375 17.046875 35.5 14.453125 
Q 31.890625 11.328125 26.265625 11.328125 
Q 19.671875 11.328125 15.328125 16.265625 
Q 10.75 21.4375 10.75 29.984375 
Q 10.75 38.1875 15.328125 43.75 
Q 19.4375 48.6875 26.375 48.6875 
Q 29.9375 48.6875 32.5625 47.21875 
Q 35.640625 45.609375 37.75 42.828125 
Q 39.703125 40.328125 41.65625 36.96875 
Q 44.921875 42.828125 47.796875 45.40625 
Q 51.421875 48.53125 57.03125 48.53125 
Q 63.625 48.53125 67.96875 43.609375 
Q 72.5625 38.421875 72.5625 29.890625 
Q 72.5625 21.6875 67.96875 16.109375 
Q 63.875 11.1875 56.9375 11.1875 
Q 53.375 11.1875 50.734375 12.640625 
Q 48.09375 13.96875 45.5625 17.046875 
z
M 25.734375 17.71875 
Q 33.796875 17.71875 38.625 29.4375 
Q 32.421875 42.234375 25.734375 42.234375 
Q 20.84375 42.234375 18.359375 38.71875 
Q 15.671875 34.96875 15.671875 29.984375 
Q 15.671875 24.515625 18.359375 21.140625 
Q 21.09375 17.71875 25.734375 17.71875 
z
M 57.5625 42.140625 
Q 50.296875 42.140625 44.671875 30.421875 
Q 50.828125 17.625 57.5625 17.625 
Q 62.453125 17.625 64.9375 21.140625 
Q 67.625 24.90625 67.625 29.890625 
Q 67.625 35.359375 64.9375 38.71875 
Q 62.203125 42.140625 57.5625 42.140625 
z
" id="DejaVuSans-8734"/>
      <path d="M 11.71875 51.703125 
L 22.015625 51.703125 
L 22.015625 39.3125 
L 11.71875 39.3125 
z
M 11.71875 12.40625 
L 22.015625 12.40625 
L 22.015625 4 
L 14.015625 -11.625 
L 7.71875 -11.625 
L 11.71875 4 
z
" id="DejaVuSans-59"/>
      <path d="M 8.015625 75.875 
L 15.828125 75.875 
Q 23.140625 64.359375 26.78125 53.3125 
Q 30.421875 42.28125 30.421875 31.390625 
Q 30.421875 20.453125 26.78125 9.375 
Q 23.140625 -1.703125 15.828125 -13.1875 
L 8.015625 -13.1875 
Q 14.5 -2 17.703125 9.0625 
Q 20.90625 20.125 20.90625 31.390625 
Q 20.90625 42.671875 17.703125 53.65625 
Q 14.5 64.65625 8.015625 75.875 
z
" id="DejaVuSans-41"/>
      <path d="M 25.390625 72.90625 
L 33.6875 72.90625 
L 8.296875 -9.28125 
L 0 -9.28125 
z
" id="DejaVuSans-47"/>
     </defs>
     <g transform="translate(9.36 87.150742)rotate(-90)scale(0.08 -0.08)">
      <use transform="translate(0 0.125)" xlink:href="#DejaVuSans-916"/>
      <use transform="translate(68.408203 0.125)" xlink:href="#DejaVuSans-Oblique-83"/>
      <use transform="translate(131.884766 0.125)" xlink:href="#DejaVuSans-40"/>
      <use transform="translate(170.898438 0.125)" xlink:href="#DejaVuSans-Oblique-116"/>
      <use transform="translate(210.107422 0.125)" xlink:href="#DejaVuSans-8594"/>
      <use transform="translate(293.896484 0.125)" xlink:href="#DejaVuSans-8734"/>
      <use transform="translate(377.197266 0.125)" xlink:href="#DejaVuSans-59"/>
      <use transform="translate(430.371094 0.125)" xlink:href="#DejaVuSans-Oblique-110"/>
      <use transform="translate(493.75 0.125)" xlink:href="#DejaVuSans-41"/>
      <use transform="translate(532.763672 0.125)" xlink:href="#DejaVuSans-47"/>
      <use transform="translate(566.455078 0.125)" xlink:href="#DejaVuSans-Oblique-110"/>
     </g>
    </g>
   </g>
   <g id="LineCollection_1">
    <path clip-path="url(#p4aedac8f22)" d="M 42.470779 111.63108 
L 42.470779 111.245676 
" style="fill:none;stroke:#5e4fa2;stroke-width:0.5;"/>
    <path clip-path="url(#p4aedac8f22)" d="M 76.101078 112.316596 
L 76.101078 111.962862 
" style="fill:none;stroke:#5e4fa2;stroke-width:0.5;"/>
    <path clip-path="url(#p4aedac8f22)" d="M 109.731376 113.030765 
L 109.731376 112.709939 
" style="fill:none;stroke:#5e4fa2;stroke-width:0.5;"/>
    <path clip-path="url(#p4aedac8f22)" d="M 143.361674 113.775401 
L 143.361674 113.488623 
" style="fill:none;stroke:#5e4fa2;stroke-width:0.5;"/>
    <path clip-path="url(#p4aedac8f22)" d="M 176.991973 114.551226 
L 176.991973 114.299459 
" style="fill:none;stroke:#5e4fa2;stroke-width:0.5;"/>
    <path clip-path="url(#p4aedac8f22)" d="M 210.622271 115.356478 
L 210.622271 115.140444 
" style="fill:none;stroke:#5e4fa2;stroke-width:0.5;"/>
   </g>
   <g id="LineCollection_2">
    <path clip-path="url(#p4aedac8f22)" d="M 42.470779 112.078568 
L 42.470779 111.784187 
" style="fill:none;stroke:#486cb0;stroke-width:0.5;"/>
    <path clip-path="url(#p4aedac8f22)" d="M 76.101078 112.734774 
L 76.101078 112.465182 
" style="fill:none;stroke:#486cb0;stroke-width:0.5;"/>
    <path clip-path="url(#p4aedac8f22)" d="M 109.731376 113.41684 
L 109.731376 113.172837 
" style="fill:none;stroke:#486cb0;stroke-width:0.5;"/>
    <path clip-path="url(#p4aedac8f22)" d="M 143.361674 114.126158 
L 143.361674 113.908426 
" style="fill:none;stroke:#486cb0;stroke-width:0.5;"/>
    <path clip-path="url(#p4aedac8f22)" d="M 176.991973 114.863035 
L 176.991973 114.672101 
" style="fill:none;stroke:#486cb0;stroke-width:0.5;"/>
    <path clip-path="url(#p4aedac8f22)" d="M 210.622271 115.625411 
L 210.622271 115.461639 
" style="fill:none;stroke:#486cb0;stroke-width:0.5;"/>
   </g>
   <g id="LineCollection_3">
    <path clip-path="url(#p4aedac8f22)" d="M 42.470779 99.096394 
L 42.470779 98.322342 
" style="fill:none;stroke:#3389bd;stroke-width:0.5;"/>
    <path clip-path="url(#p4aedac8f22)" d="M 76.101078 100.719924 
L 76.101078 100.006259 
" style="fill:none;stroke:#3389bd;stroke-width:0.5;"/>
    <path clip-path="url(#p4aedac8f22)" d="M 109.731376 102.428784 
L 109.731376 101.779037 
" style="fill:none;stroke:#3389bd;stroke-width:0.5;"/>
    <path clip-path="url(#p4aedac8f22)" d="M 143.361674 104.229463 
L 143.361674 103.646977 
" style="fill:none;stroke:#3389bd;stroke-width:0.5;"/>
    <path clip-path="url(#p4aedac8f22)" d="M 176.991973 106.125168 
L 176.991973 105.612864 
" style="fill:none;stroke:#3389bd;stroke-width:0.5;"/>
    <path clip-path="url(#p4aedac8f22)" d="M 210.622271 108.111111 
L 210.622271 107.671248 
" style="fill:none;stroke:#3389bd;stroke-width:0.5;"/>
   </g>
   <g id="LineCollection_4">
    <path clip-path="url(#p4aedac8f22)" d="M 42.470779 100.827273 
L 42.470779 100.147004 
" style="fill:none;stroke:#50a9af;stroke-width:0.5;"/>
    <path clip-path="url(#p4aedac8f22)" d="M 76.101078 102.348334 
L 76.101078 101.723786 
" style="fill:none;stroke:#50a9af;stroke-width:0.5;"/>
    <path clip-path="url(#p4aedac8f22)" d="M 109.731376 103.941324 
L 109.731376 103.374777 
" style="fill:none;stroke:#50a9af;stroke-width:0.5;"/>
    <path clip-path="url(#p4aedac8f22)" d="M 143.361674 105.610443 
L 143.361674 105.103962 
" style="fill:none;stroke:#50a9af;stroke-width:0.5;"/>
    <path clip-path="url(#p4aedac8f22)" d="M 176.991973 107.356809 
L 176.991973 106.912123 
" style="fill:none;stroke:#50a9af;stroke-width:0.5;"/>
    <path clip-path="url(#p4aedac8f22)" d="M 210.622271 109.174563 
L 210.622271 108.792975 
" style="fill:none;stroke:#50a9af;stroke-width:0.5;"/>
   </g>
   <g id="LineCollection_5">
    <path clip-path="url(#p4aedac8f22)" d="M 42.470779 50.015243 
L 42.470779 47.419076 
" style="fill:none;stroke:#6bc4a5;stroke-width:0.5;"/>
    <path clip-path="url(#p4aedac8f22)" d="M 76.101078 54.949916 
L 76.101078 52.525782 
" style="fill:none;stroke:#6bc4a5;stroke-width:0.5;"/>
    <path clip-path="url(#p4aedac8f22)" d="M 109.731376 60.289685 
L 109.731376 58.058306 
" style="fill:none;stroke:#6bc4a5;stroke-width:0.5;"/>
    <path clip-path="url(#p4aedac8f22)" d="M 143.361674 66.072419 
L 143.361674 64.054705 
" style="fill:none;stroke:#6bc4a5;stroke-width:0.5;"/>
    <path clip-path="url(#p4aedac8f22)" d="M 176.991973 72.318619 
L 176.991973 70.534112 
" style="fill:none;stroke:#6bc4a5;stroke-width:0.5;"/>
    <path clip-path="url(#p4aedac8f22)" d="M 210.622271 79.003858 
L 210.622271 77.468725 
" style="fill:none;stroke:#6bc4a5;stroke-width:0.5;"/>
   </g>
   <g id="LineCollection_6">
    <path clip-path="url(#p4aedac8f22)" d="M 42.470779 8.020599 
L 42.470779 4.512832 
" style="fill:none;stroke:#91d3a4;stroke-width:0.5;"/>
    <path clip-path="url(#p4aedac8f22)" d="M 76.101078 15.929362 
L 76.101078 12.695343 
" style="fill:none;stroke:#91d3a4;stroke-width:0.5;"/>
    <path clip-path="url(#p4aedac8f22)" d="M 109.731376 24.481886 
L 109.731376 21.536731 
" style="fill:none;stroke:#91d3a4;stroke-width:0.5;"/>
    <path clip-path="url(#p4aedac8f22)" d="M 143.361674 33.748272 
L 143.361674 31.107012 
" style="fill:none;stroke:#91d3a4;stroke-width:0.5;"/>
    <path clip-path="url(#p4aedac8f22)" d="M 176.991973 43.754993 
L 176.991973 41.431167 
" style="fill:none;stroke:#91d3a4;stroke-width:0.5;"/>
    <path clip-path="url(#p4aedac8f22)" d="M 210.622271 54.439059 
L 210.622271 52.443516 
" style="fill:none;stroke:#91d3a4;stroke-width:0.5;"/>
   </g>
   <g id="line2d_12">
    <path clip-path="url(#p4aedac8f22)" d="M 42.470779 111.438378 
L 76.101078 112.139729 
L 109.731376 112.870352 
L 143.361674 113.632012 
L 176.991973 114.425343 
L 210.622271 115.248461 
" style="fill:none;stroke:#5e4fa2;stroke-linecap:round;stroke-width:0.5;"/>
    <defs>
     <path d="M 0 1.5 
C 0.397805 1.5 0.77937 1.341951 1.06066 1.06066 
C 1.341951 0.77937 1.5 0.397805 1.5 0 
C 1.5 -0.397805 1.341951 -0.77937 1.06066 -1.06066 
C 0.77937 -1.341951 0.397805 -1.5 0 -1.5 
C -0.397805 -1.5 -0.77937 -1.341951 -1.06066 -1.06066 
C -1.341951 -0.77937 -1.5 -0.397805 -1.5 0 
C -1.5 0.397805 -1.341951 0.77937 -1.06066 1.06066 
C -0.77937 1.341951 -0.397805 1.5 0 1.5 
z
" id="m9ae1c685cb" style="stroke:#5e4fa2;stroke-width:0.5;"/>
    </defs>
    <g clip-path="url(#p4aedac8f22)">
     <use style="fill:#aea6d0;stroke:#5e4fa2;stroke-width:0.5;" x="42.470779" xlink:href="#m9ae1c685cb" y="111.438378"/>
     <use style="fill:#aea6d0;stroke:#5e4fa2;stroke-width:0.5;" x="76.101078" xlink:href="#m9ae1c685cb" y="112.139729"/>
     <use style="fill:#aea6d0;stroke:#5e4fa2;stroke-width:0.5;" x="109.731376" xlink:href="#m9ae1c685cb" y="112.870352"/>
     <use style="fill:#aea6d0;stroke:#5e4fa2;stroke-width:0.5;" x="143.361674" xlink:href="#m9ae1c685cb" y="113.632012"/>
     <use style="fill:#aea6d0;stroke:#5e4fa2;stroke-width:0.5;" x="176.991973" xlink:href="#m9ae1c685cb" y="114.425343"/>
     <use style="fill:#aea6d0;stroke:#5e4fa2;stroke-width:0.5;" x="210.622271" xlink:href="#m9ae1c685cb" y="115.248461"/>
    </g>
   </g>
   <g id="line2d_13">
    <path clip-path="url(#p4aedac8f22)" d="M 42.470779 111.931378 
L 76.101078 112.599978 
L 109.731376 113.294838 
L 143.361674 114.017292 
L 176.991973 114.767568 
L 210.622271 115.543525 
" style="fill:none;stroke:#486cb0;stroke-linecap:round;stroke-width:0.5;"/>
    <defs>
     <path d="M 0 1.5 
C 0.397805 1.5 0.77937 1.341951 1.06066 1.06066 
C 1.341951 0.77937 1.5 0.397805 1.5 0 
C 1.5 -0.397805 1.341951 -0.77937 1.06066 -1.06066 
C 0.77937 -1.341951 0.397805 -1.5 0 -1.5 
C -0.397805 -1.5 -0.77937 -1.341951 -1.06066 -1.06066 
C -1.341951 -0.77937 -1.5 -0.397805 -1.5 0 
C -1.5 0.397805 -1.341951 0.77937 -1.06066 1.06066 
C -0.77937 1.341951 -0.397805 1.5 0 1.5 
z
" id="m1326f5358f" style="stroke:#486cb0;stroke-width:0.5;"/>
    </defs>
    <g clip-path="url(#p4aedac8f22)">
     <use style="fill:#a3b5d7;stroke:#486cb0;stroke-width:0.5;" x="42.470779" xlink:href="#m1326f5358f" y="111.931378"/>
     <use style="fill:#a3b5d7;stroke:#486cb0;stroke-width:0.5;" x="76.101078" xlink:href="#m1326f5358f" y="112.599978"/>
     <use style="fill:#a3b5d7;stroke:#486cb0;stroke-width:0.5;" x="109.731376" xlink:href="#m1326f5358f" y="113.294838"/>
     <use style="fill:#a3b5d7;stroke:#486cb0;stroke-width:0.5;" x="143.361674" xlink:href="#m1326f5358f" y="114.017292"/>
     <use style="fill:#a3b5d7;stroke:#486cb0;stroke-width:0.5;" x="176.991973" xlink:href="#m1326f5358f" y="114.767568"/>
     <use style="fill:#a3b5d7;stroke:#486cb0;stroke-width:0.5;" x="210.622271" xlink:href="#m1326f5358f" y="115.543525"/>
    </g>
   </g>
   <g id="line2d_14">
    <path clip-path="url(#p4aedac8f22)" d="M 42.470779 98.709368 
L 76.101078 100.363092 
L 109.731376 102.103911 
L 143.361674 103.93822 
L 176.991973 105.869016 
L 210.622271 107.891179 
" style="fill:none;stroke:#3389bd;stroke-linecap:round;stroke-width:0.5;"/>
    <defs>
     <path d="M 0 1.5 
C 0.397805 1.5 0.77937 1.341951 1.06066 1.06066 
C 1.341951 0.77937 1.5 0.397805 1.5 0 
C 1.5 -0.397805 1.341951 -0.77937 1.06066 -1.06066 
C 0.77937 -1.341951 0.397805 -1.5 0 -1.5 
C -0.397805 -1.5 -0.77937 -1.341951 -1.06066 -1.06066 
C -1.341951 -0.77937 -1.5 -0.397805 -1.5 0 
C -1.5 0.397805 -1.341951 0.77937 -1.06066 1.06066 
C -0.77937 1.341951 -0.397805 1.5 0 1.5 
z
" id="mc88ebc73fb" style="stroke:#3389bd;stroke-width:0.5;"/>
    </defs>
    <g clip-path="url(#p4aedac8f22)">
     <use style="fill:#98c3dd;stroke:#3389bd;stroke-width:0.5;" x="42.470779" xlink:href="#mc88ebc73fb" y="98.709368"/>
     <use style="fill:#98c3dd;stroke:#3389bd;stroke-width:0.5;" x="76.101078" xlink:href="#mc88ebc73fb" y="100.363092"/>
     <use style="fill:#98c3dd;stroke:#3389bd;stroke-width:0.5;" x="109.731376" xlink:href="#mc88ebc73fb" y="102.103911"/>
     <use style="fill:#98c3dd;stroke:#3389bd;stroke-width:0.5;" x="143.361674" xlink:href="#mc88ebc73fb" y="103.93822"/>
     <use style="fill:#98c3dd;stroke:#3389bd;stroke-width:0.5;" x="176.991973" xlink:href="#mc88ebc73fb" y="105.869016"/>
     <use style="fill:#98c3dd;stroke:#3389bd;stroke-width:0.5;" x="210.622271" xlink:href="#mc88ebc73fb" y="107.891179"/>
    </g>
   </g>
   <g id="line2d_15">
    <path clip-path="url(#p4aedac8f22)" d="M 42.470779 100.487139 
L 76.101078 102.03606 
L 109.731376 103.65805 
L 143.361674 105.357203 
L 176.991973 107.134466 
L 210.622271 108.983769 
" style="fill:none;stroke:#50a9af;stroke-linecap:round;stroke-width:0.5;"/>
    <defs>
     <path d="M 0 1.5 
C 0.397805 1.5 0.77937 1.341951 1.06066 1.06066 
C 1.341951 0.77937 1.5 0.397805 1.5 0 
C 1.5 -0.397805 1.341951 -0.77937 1.06066 -1.06066 
C 0.77937 -1.341951 0.397805 -1.5 0 -1.5 
C -0.397805 -1.5 -0.77937 -1.341951 -1.06066 -1.06066 
C -1.341951 -0.77937 -1.5 -0.397805 -1.5 0 
C -1.5 0.397805 -1.341951 0.77937 -1.06066 1.06066 
C -0.77937 1.341951 -0.397805 1.5 0 1.5 
z
" id="m0a70657cf2" style="stroke:#50a9af;stroke-width:0.5;"/>
    </defs>
    <g clip-path="url(#p4aedac8f22)">
     <use style="fill:#a7d3d6;stroke:#50a9af;stroke-width:0.5;" x="42.470779" xlink:href="#m0a70657cf2" y="100.487139"/>
     <use style="fill:#a7d3d6;stroke:#50a9af;stroke-width:0.5;" x="76.101078" xlink:href="#m0a70657cf2" y="102.03606"/>
     <use style="fill:#a7d3d6;stroke:#50a9af;stroke-width:0.5;" x="109.731376" xlink:href="#m0a70657cf2" y="103.65805"/>
     <use style="fill:#a7d3d6;stroke:#50a9af;stroke-width:0.5;" x="143.361674" xlink:href="#m0a70657cf2" y="105.357203"/>
     <use style="fill:#a7d3d6;stroke:#50a9af;stroke-width:0.5;" x="176.991973" xlink:href="#m0a70657cf2" y="107.134466"/>
     <use style="fill:#a7d3d6;stroke:#50a9af;stroke-width:0.5;" x="210.622271" xlink:href="#m0a70657cf2" y="108.983769"/>
    </g>
   </g>
   <g id="line2d_16">
    <path clip-path="url(#p4aedac8f22)" d="M 42.470779 48.717159 
L 76.101078 53.737849 
L 109.731376 59.173995 
L 143.361674 65.063562 
L 176.991973 71.426365 
L 210.622271 78.236291 
" style="fill:none;stroke:#6bc4a5;stroke-linecap:round;stroke-width:0.5;"/>
    <defs>
     <path d="M 0 1.5 
C 0.397805 1.5 0.77937 1.341951 1.06066 1.06066 
C 1.341951 0.77937 1.5 0.397805 1.5 0 
C 1.5 -0.397805 1.341951 -0.77937 1.06066 -1.06066 
C 0.77937 -1.341951 0.397805 -1.5 0 -1.5 
C -0.397805 -1.5 -0.77937 -1.341951 -1.06066 -1.06066 
C -1.341951 -0.77937 -1.5 -0.397805 -1.5 0 
C -1.5 0.397805 -1.341951 0.77937 -1.06066 1.06066 
C -0.77937 1.341951 -0.397805 1.5 0 1.5 
z
" id="mcf1b45385f" style="stroke:#6bc4a5;stroke-width:0.5;"/>
    </defs>
    <g clip-path="url(#p4aedac8f22)">
     <use style="fill:#b4e1d1;stroke:#6bc4a5;stroke-width:0.5;" x="42.470779" xlink:href="#mcf1b45385f" y="48.717159"/>
     <use style="fill:#b4e1d1;stroke:#6bc4a5;stroke-width:0.5;" x="76.101078" xlink:href="#mcf1b45385f" y="53.737849"/>
     <use style="fill:#b4e1d1;stroke:#6bc4a5;stroke-width:0.5;" x="109.731376" xlink:href="#mcf1b45385f" y="59.173995"/>
     <use style="fill:#b4e1d1;stroke:#6bc4a5;stroke-width:0.5;" x="143.361674" xlink:href="#mcf1b45385f" y="65.063562"/>
     <use style="fill:#b4e1d1;stroke:#6bc4a5;stroke-width:0.5;" x="176.991973" xlink:href="#mcf1b45385f" y="71.426365"/>
     <use style="fill:#b4e1d1;stroke:#6bc4a5;stroke-width:0.5;" x="210.622271" xlink:href="#mcf1b45385f" y="78.236291"/>
    </g>
   </g>
   <g id="line2d_17">
    <path clip-path="url(#p4aedac8f22)" d="M 42.470779 6.266716 
L 76.101078 14.312353 
L 109.731376 23.009309 
L 143.361674 32.427642 
L 176.991973 42.59308 
L 210.622271 53.441288 
" style="fill:none;stroke:#91d3a4;stroke-linecap:round;stroke-width:0.5;"/>
    <defs>
     <path d="M 0 1.5 
C 0.397805 1.5 0.77937 1.341951 1.06066 1.06066 
C 1.341951 0.77937 1.5 0.397805 1.5 0 
C 1.5 -0.397805 1.341951 -0.77937 1.06066 -1.06066 
C 0.77937 -1.341951 0.397805 -1.5 0 -1.5 
C -0.397805 -1.5 -0.77937 -1.341951 -1.06066 -1.06066 
C -1.341951 -0.77937 -1.5 -0.397805 -1.5 0 
C -1.5 0.397805 -1.341951 0.77937 -1.06066 1.06066 
C -0.77937 1.341951 -0.397805 1.5 0 1.5 
z
" id="m7a492d6c31" style="stroke:#91d3a4;stroke-width:0.5;"/>
    </defs>
    <g clip-path="url(#p4aedac8f22)">
     <use style="fill:#c7e8d1;stroke:#91d3a4;stroke-width:0.5;" x="42.470779" xlink:href="#m7a492d6c31" y="6.266716"/>
     <use style="fill:#c7e8d1;stroke:#91d3a4;stroke-width:0.5;" x="76.101078" xlink:href="#m7a492d6c31" y="14.312353"/>
     <use style="fill:#c7e8d1;stroke:#91d3a4;stroke-width:0.5;" x="109.731376" xlink:href="#m7a492d6c31" y="23.009309"/>
     <use style="fill:#c7e8d1;stroke:#91d3a4;stroke-width:0.5;" x="143.361674" xlink:href="#m7a492d6c31" y="32.427642"/>
     <use style="fill:#c7e8d1;stroke:#91d3a4;stroke-width:0.5;" x="176.991973" xlink:href="#m7a492d6c31" y="42.59308"/>
     <use style="fill:#c7e8d1;stroke:#91d3a4;stroke-width:0.5;" x="210.622271" xlink:href="#m7a492d6c31" y="53.441288"/>
    </g>
   </g>
   <g id="patch_3">
    <path d="M 33.55875 120.266138 
L 33.55875 3.635347 
" style="fill:none;stroke:#000000;stroke-linecap:square;stroke-linejoin:miter;stroke-width:0.35;"/>
   </g>
   <g id="patch_4">
    <path d="M 229.62339 120.266138 
L 229.62339 3.635347 
" style="fill:none;stroke:#000000;stroke-linecap:square;stroke-linejoin:miter;stroke-width:0.35;"/>
   </g>
   <g id="patch_5">
    <path d="M 33.55875 120.266138 
L 229.62339 120.266138 
" style="fill:none;stroke:#000000;stroke-linecap:square;stroke-linejoin:miter;stroke-width:0.35;"/>
   </g>
   <g id="patch_6">
    <path d="M 33.55875 3.635347 
L 229.62339 3.635347 
" style="fill:none;stroke:#000000;stroke-linecap:square;stroke-linejoin:miter;stroke-width:0.35;"/>
   </g>
   <g id="text_14">
    <!-- N = 12 -->
    <defs>
     <path d="M 14.90625 62.796875 
L 14.703125 62.796875 
L 14.703125 0 
L 7.90625 0 
L 7.90625 72 
L 15.59375 72 
L 57.203125 9.09375 
L 57.40625 9.09375 
L 57.40625 72 
L 64.203125 72 
L 64.203125 0 
L 56.296875 0 
z
" id="Helvetica-Light-78"/>
     <path d="M 58 31.796875 
L 8 31.796875 
L 8 37.796875 
L 58 37.796875 
z
M 58 12.40625 
L 8 12.40625 
L 8 18.40625 
L 58 18.40625 
z
" id="Helvetica-Light-61"/>
    </defs>
    <g transform="translate(198.253048 15.298426)scale(0.08 -0.08)">
     <use xlink:href="#Helvetica-Light-78"/>
     <use x="72.199982" xlink:href="#Helvetica-Light-32"/>
     <use x="99.999969" xlink:href="#Helvetica-Light-61"/>
     <use x="165.999954" xlink:href="#Helvetica-Light-32"/>
     <use x="193.799942" xlink:href="#Helvetica-Light-49"/>
     <use x="249.399933" xlink:href="#Helvetica-Light-50"/>
    </g>
   </g>
   <g id="legend_1">
    <g id="LineCollection_7">
     <path d="M 38.75875 77.438249 
L 38.75875 69.438249 
" style="fill:none;stroke:#5e4fa2;stroke-width:0.5;"/>
    </g>
    <g id="line2d_18">
     <path d="M 36.75875 73.438249 
L 40.75875 73.438249 
" style="fill:none;stroke:#5e4fa2;stroke-linecap:round;stroke-width:0.5;"/>
    </g>
    <g id="line2d_19">
     <g>
      <use style="fill:#aea6d0;stroke:#5e4fa2;stroke-width:0.5;" x="38.75875" xlink:href="#m9ae1c685cb" y="73.438249"/>
     </g>
    </g>
    <g id="text_15">
     <!-- $V = -0.15$ -->
     <defs>
      <path d="M 20.609375 0 
L 7.8125 72.90625 
L 17.484375 72.90625 
L 28.078125 10.203125 
L 63.484375 72.90625 
L 74.21875 72.90625 
L 32.078125 0 
z
" id="DejaVuSans-Oblique-86"/>
      <path d="M 10.59375 45.40625 
L 73.1875 45.40625 
L 73.1875 37.203125 
L 10.59375 37.203125 
z
M 10.59375 25.484375 
L 73.1875 25.484375 
L 73.1875 17.1875 
L 10.59375 17.1875 
z
" id="DejaVuSans-61"/>
      <path d="M 10.59375 35.5 
L 73.1875 35.5 
L 73.1875 27.203125 
L 10.59375 27.203125 
z
" id="DejaVuSans-8722"/>
      <path d="M 31.78125 66.40625 
Q 24.171875 66.40625 20.328125 58.90625 
Q 16.5 51.421875 16.5 36.375 
Q 16.5 21.390625 20.328125 13.890625 
Q 24.171875 6.390625 31.78125 6.390625 
Q 39.453125 6.390625 43.28125 13.890625 
Q 47.125 21.390625 47.125 36.375 
Q 47.125 51.421875 43.28125 58.90625 
Q 39.453125 66.40625 31.78125 66.40625 
z
M 31.78125 74.21875 
Q 44.046875 74.21875 50.515625 64.515625 
Q 56.984375 54.828125 56.984375 36.375 
Q 56.984375 17.96875 50.515625 8.265625 
Q 44.046875 -1.421875 31.78125 -1.421875 
Q 19.53125 -1.421875 13.0625 8.265625 
Q 6.59375 17.96875 6.59375 36.375 
Q 6.59375 54.828125 13.0625 64.515625 
Q 19.53125 74.21875 31.78125 74.21875 
z
" id="DejaVuSans-48"/>
      <path d="M 10.6875 12.40625 
L 21 12.40625 
L 21 0 
L 10.6875 0 
z
" id="DejaVuSans-46"/>
      <path d="M 12.40625 8.296875 
L 28.515625 8.296875 
L 28.515625 63.921875 
L 10.984375 60.40625 
L 10.984375 69.390625 
L 28.421875 72.90625 
L 38.28125 72.90625 
L 38.28125 8.296875 
L 54.390625 8.296875 
L 54.390625 0 
L 12.40625 0 
z
" id="DejaVuSans-49"/>
      <path d="M 10.796875 72.90625 
L 49.515625 72.90625 
L 49.515625 64.59375 
L 19.828125 64.59375 
L 19.828125 46.734375 
Q 21.96875 47.46875 24.109375 47.828125 
Q 26.265625 48.1875 28.421875 48.1875 
Q 40.625 48.1875 47.75 41.5 
Q 54.890625 34.8125 54.890625 23.390625 
Q 54.890625 11.625 47.5625 5.09375 
Q 40.234375 -1.421875 26.90625 -1.421875 
Q 22.3125 -1.421875 17.546875 -0.640625 
Q 12.796875 0.140625 7.71875 1.703125 
L 7.71875 11.625 
Q 12.109375 9.234375 16.796875 8.0625 
Q 21.484375 6.890625 26.703125 6.890625 
Q 35.15625 6.890625 40.078125 11.328125 
Q 45.015625 15.765625 45.015625 23.390625 
Q 45.015625 31 40.078125 35.4375 
Q 35.15625 39.890625 26.703125 39.890625 
Q 22.75 39.890625 18.8125 39.015625 
Q 14.890625 38.140625 10.796875 36.28125 
z
" id="DejaVuSans-53"/>
     </defs>
     <g transform="translate(44.75875 76.238249)scale(0.08 -0.08)">
      <use transform="translate(0 0.78125)" xlink:href="#DejaVuSans-Oblique-86"/>
      <use transform="translate(87.890625 0.78125)" xlink:href="#DejaVuSans-61"/>
      <use transform="translate(210.644531 0.78125)" xlink:href="#DejaVuSans-8722"/>
      <use transform="translate(313.916016 0.78125)" xlink:href="#DejaVuSans-48"/>
      <use transform="translate(377.539062 0.78125)" xlink:href="#DejaVuSans-46"/>
      <use transform="translate(409.326172 0.78125)" xlink:href="#DejaVuSans-49"/>
      <use transform="translate(472.949219 0.78125)" xlink:href="#DejaVuSans-53"/>
     </g>
    </g>
    <g id="LineCollection_8">
     <path d="M 38.75875 86.830749 
L 38.75875 78.830749 
" style="fill:none;stroke:#486cb0;stroke-width:0.5;"/>
    </g>
    <g id="line2d_20">
     <path d="M 36.75875 82.830749 
L 40.75875 82.830749 
" style="fill:none;stroke:#486cb0;stroke-linecap:round;stroke-width:0.5;"/>
    </g>
    <g id="line2d_21">
     <g>
      <use style="fill:#a3b5d7;stroke:#486cb0;stroke-width:0.5;" x="38.75875" xlink:href="#m1326f5358f" y="82.830749"/>
     </g>
    </g>
    <g id="text_16">
     <!-- $V = +0.15$ -->
     <defs>
      <path d="M 46 62.703125 
L 46 35.5 
L 73.1875 35.5 
L 73.1875 27.203125 
L 46 27.203125 
L 46 0 
L 37.796875 0 
L 37.796875 27.203125 
L 10.59375 27.203125 
L 10.59375 35.5 
L 37.796875 35.5 
L 37.796875 62.703125 
z
" id="DejaVuSans-43"/>
     </defs>
     <g transform="translate(44.75875 85.630749)scale(0.08 -0.08)">
      <use transform="translate(0 0.78125)" xlink:href="#DejaVuSans-Oblique-86"/>
      <use transform="translate(87.890625 0.78125)" xlink:href="#DejaVuSans-61"/>
      <use transform="translate(210.644531 0.78125)" xlink:href="#DejaVuSans-43"/>
      <use transform="translate(313.916016 0.78125)" xlink:href="#DejaVuSans-48"/>
      <use transform="translate(377.539062 0.78125)" xlink:href="#DejaVuSans-46"/>
      <use transform="translate(409.326172 0.78125)" xlink:href="#DejaVuSans-49"/>
      <use transform="translate(472.949219 0.78125)" xlink:href="#DejaVuSans-53"/>
     </g>
    </g>
    <g id="LineCollection_9">
     <path d="M 38.75875 96.223249 
L 38.75875 88.223249 
" style="fill:none;stroke:#3389bd;stroke-width:0.5;"/>
    </g>
    <g id="line2d_22">
     <path d="M 36.75875 92.223249 
L 40.75875 92.223249 
" style="fill:none;stroke:#3389bd;stroke-linecap:round;stroke-width:0.5;"/>
    </g>
    <g id="line2d_23">
     <g>
      <use style="fill:#98c3dd;stroke:#3389bd;stroke-width:0.5;" x="38.75875" xlink:href="#mc88ebc73fb" y="92.223249"/>
     </g>
    </g>
    <g id="text_17">
     <!-- $V = -0.25$ -->
     <defs>
      <path d="M 19.1875 8.296875 
L 53.609375 8.296875 
L 53.609375 0 
L 7.328125 0 
L 7.328125 8.296875 
Q 12.9375 14.109375 22.625 23.890625 
Q 32.328125 33.6875 34.8125 36.53125 
Q 39.546875 41.84375 41.421875 45.53125 
Q 43.3125 49.21875 43.3125 52.78125 
Q 43.3125 58.59375 39.234375 62.25 
Q 35.15625 65.921875 28.609375 65.921875 
Q 23.96875 65.921875 18.8125 64.3125 
Q 13.671875 62.703125 7.8125 59.421875 
L 7.8125 69.390625 
Q 13.765625 71.78125 18.9375 73 
Q 24.125 74.21875 28.421875 74.21875 
Q 39.75 74.21875 46.484375 68.546875 
Q 53.21875 62.890625 53.21875 53.421875 
Q 53.21875 48.921875 51.53125 44.890625 
Q 49.859375 40.875 45.40625 35.40625 
Q 44.1875 33.984375 37.640625 27.21875 
Q 31.109375 20.453125 19.1875 8.296875 
z
" id="DejaVuSans-50"/>
     </defs>
     <g transform="translate(44.75875 95.023249)scale(0.08 -0.08)">
      <use transform="translate(0 0.78125)" xlink:href="#DejaVuSans-Oblique-86"/>
      <use transform="translate(87.890625 0.78125)" xlink:href="#DejaVuSans-61"/>
      <use transform="translate(210.644531 0.78125)" xlink:href="#DejaVuSans-8722"/>
      <use transform="translate(313.916016 0.78125)" xlink:href="#DejaVuSans-48"/>
      <use transform="translate(377.539062 0.78125)" xlink:href="#DejaVuSans-46"/>
      <use transform="translate(409.248047 0.78125)" xlink:href="#DejaVuSans-50"/>
      <use transform="translate(472.871094 0.78125)" xlink:href="#DejaVuSans-53"/>
     </g>
    </g>
    <g id="LineCollection_10">
     <path d="M 96.11875 77.438249 
L 96.11875 69.438249 
" style="fill:none;stroke:#50a9af;stroke-width:0.5;"/>
    </g>
    <g id="line2d_24">
     <path d="M 94.11875 73.438249 
L 98.11875 73.438249 
" style="fill:none;stroke:#50a9af;stroke-linecap:round;stroke-width:0.5;"/>
    </g>
    <g id="line2d_25">
     <g>
      <use style="fill:#a7d3d6;stroke:#50a9af;stroke-width:0.5;" x="96.11875" xlink:href="#m0a70657cf2" y="73.438249"/>
     </g>
    </g>
    <g id="text_18">
     <!-- $V = +0.25$ -->
     <g transform="translate(102.11875 76.238249)scale(0.08 -0.08)">
      <use transform="translate(0 0.78125)" xlink:href="#DejaVuSans-Oblique-86"/>
      <use transform="translate(87.890625 0.78125)" xlink:href="#DejaVuSans-61"/>
      <use transform="translate(210.644531 0.78125)" xlink:href="#DejaVuSans-43"/>
      <use transform="translate(313.916016 0.78125)" xlink:href="#DejaVuSans-48"/>
      <use transform="translate(377.539062 0.78125)" xlink:href="#DejaVuSans-46"/>
      <use transform="translate(409.248047 0.78125)" xlink:href="#DejaVuSans-50"/>
      <use transform="translate(472.871094 0.78125)" xlink:href="#DejaVuSans-53"/>
     </g>
    </g>
    <g id="LineCollection_11">
     <path d="M 96.11875 86.830749 
L 96.11875 78.830749 
" style="fill:none;stroke:#6bc4a5;stroke-width:0.5;"/>
    </g>
    <g id="line2d_26">
     <path d="M 94.11875 82.830749 
L 98.11875 82.830749 
" style="fill:none;stroke:#6bc4a5;stroke-linecap:round;stroke-width:0.5;"/>
    </g>
    <g id="line2d_27">
     <g>
      <use style="fill:#b4e1d1;stroke:#6bc4a5;stroke-width:0.5;" x="96.11875" xlink:href="#mcf1b45385f" y="82.830749"/>
     </g>
    </g>
    <g id="text_19">
     <!-- $V = -0.50$ -->
     <g transform="translate(102.11875 85.630749)scale(0.08 -0.08)">
      <use transform="translate(0 0.78125)" xlink:href="#DejaVuSans-Oblique-86"/>
      <use transform="translate(87.890625 0.78125)" xlink:href="#DejaVuSans-61"/>
      <use transform="translate(210.644531 0.78125)" xlink:href="#DejaVuSans-8722"/>
      <use transform="translate(313.916016 0.78125)" xlink:href="#DejaVuSans-48"/>
      <use transform="translate(377.539062 0.78125)" xlink:href="#DejaVuSans-46"/>
      <use transform="translate(409.326172 0.78125)" xlink:href="#DejaVuSans-53"/>
      <use transform="translate(472.949219 0.78125)" xlink:href="#DejaVuSans-48"/>
     </g>
    </g>
    <g id="LineCollection_12">
     <path d="M 96.11875 96.223249 
L 96.11875 88.223249 
" style="fill:none;stroke:#91d3a4;stroke-width:0.5;"/>
    </g>
    <g id="line2d_28">
     <path d="M 94.11875 92.223249 
L 98.11875 92.223249 
" style="fill:none;stroke:#91d3a4;stroke-linecap:round;stroke-width:0.5;"/>
    </g>
    <g id="line2d_29">
     <g>
      <use style="fill:#c7e8d1;stroke:#91d3a4;stroke-width:0.5;" x="96.11875" xlink:href="#m7a492d6c31" y="92.223249"/>
     </g>
    </g>
    <g id="text_20">
     <!-- $V = +0.77$ -->
     <defs>
      <path d="M 8.203125 72.90625 
L 55.078125 72.90625 
L 55.078125 68.703125 
L 28.609375 0 
L 18.3125 0 
L 43.21875 64.59375 
L 8.203125 64.59375 
z
" id="DejaVuSans-55"/>
     </defs>
     <g transform="translate(102.11875 95.023249)scale(0.08 -0.08)">
      <use transform="translate(0 0.78125)" xlink:href="#DejaVuSans-Oblique-86"/>
      <use transform="translate(87.890625 0.78125)" xlink:href="#DejaVuSans-61"/>
      <use transform="translate(210.644531 0.78125)" xlink:href="#DejaVuSans-43"/>
      <use transform="translate(313.916016 0.78125)" xlink:href="#DejaVuSans-48"/>
      <use transform="translate(377.539062 0.78125)" xlink:href="#DejaVuSans-46"/>
      <use transform="translate(409.216797 0.78125)" xlink:href="#DejaVuSans-55"/>
      <use transform="translate(472.824219 0.78125)" xlink:href="#DejaVuSans-55"/>
     </g>
    </g>
   </g>
  </g>
 </g>
 <defs>
  <clipPath id="p4aedac8f22">
   <rect height="116.630791" width="196.06464" x="33.55875" y="3.635347"/>
  </clipPath>
 </defs>
</svg>
