<?xml version="1.0" encoding="utf-8" standalone="no"?>
<!DOCTYPE svg PUBLIC "-//W3C//DTD SVG 1.1//EN"
  "http://www.w3.org/Graphics/SVG/1.1/DTD/svg11.dtd">
<svg height="146.90808pt" version="1.1" viewBox="0 0 240.52032 146.90808" width="240.52032pt" xmlns="http://www.w3.org/2000/svg" xmlns:xlink="http://www.w3.org/1999/xlink">
 <metadata>
  <rdf:RDF xmlns:cc="http://creativecommons.org/ns#" xmlns:dc="http://purl.org/dc/elements/1.1/" xmlns:rdf="http://www.w3.org/1999/02/22-rdf-syntax-ns#">
   <cc:Work>
    <dc:type rdf:resource="http://purl.org/dc/dcmitype/StillImage"/>
    <dc:date>2021-10-01T13:34:03.780254</dc:date>
    <dc:format>image/svg+xml</dc:format>
    <dc:creator>
     <cc:Agent>
      <dc:title>Matplotlib v3.4.2, https://matplotlib.org/</dc:title>
     </cc:Agent>
    </dc:creator>
   </cc:Work>
  </rdf:RDF>
 </metadata>
 <defs>
  <style type="text/css">*{stroke-linecap:butt;stroke-linejoin:round;}</style>
 </defs>
 <g id="figure_1">
  <g id="patch_1">
   <path d="M 0 146.90808 
L 240.52032 146.90808 
L 240.52032 0 
L 0 0 
z
" style="fill:none;"/>
  </g>
  <g id="axes_1">
   <g id="patch_2">
    <path d="M 30.744984 125.018985 
L 239.80032 125.018985 
L 239.80032 0.72 
L 30.744984 0.72 
z
" style="fill:none;"/>
   </g>
   <g id="PolyCollection_1">
    <defs>
     <path d="M 223.126095 -27.749901 
L 223.126095 -27.621167 
L 230.297805 -27.621167 
L 230.297805 -27.749901 
L 230.297805 -27.749901 
L 223.126095 -27.749901 
z
" id="m05025a521f" style="stroke:#5e4fa2;stroke-opacity:0.6;"/>
    </defs>
    <g>
     <use style="fill:#5e4fa2;fill-opacity:0.6;stroke:#5e4fa2;stroke-opacity:0.6;" x="0" xlink:href="#m05025a521f" y="146.90808"/>
    </g>
   </g>
   <g id="PolyCollection_2">
    <defs>
     <path d="M 223.126095 -27.235175 
L 223.126095 -27.088676 
L 230.297805 -27.088676 
L 230.297805 -27.235175 
L 230.297805 -27.235175 
L 223.126095 -27.235175 
z
" id="m8faf1ffca4" style="stroke:#486cb0;stroke-opacity:0.6;"/>
    </defs>
    <g>
     <use style="fill:#486cb0;fill-opacity:0.6;stroke:#486cb0;stroke-opacity:0.6;" x="0" xlink:href="#m8faf1ffca4" y="146.90808"/>
    </g>
   </g>
   <g id="PolyCollection_3">
    <defs>
     <path d="M 223.126095 -36.17998 
L 223.126095 -35.59366 
L 230.297805 -35.59366 
L 230.297805 -36.17998 
L 230.297805 -36.17998 
L 223.126095 -36.17998 
z
" id="m3188d1eeeb" style="stroke:#3389bd;stroke-opacity:0.6;"/>
    </defs>
    <g>
     <use style="fill:#3389bd;fill-opacity:0.6;stroke:#3389bd;stroke-opacity:0.6;" x="0" xlink:href="#m3188d1eeeb" y="146.90808"/>
    </g>
   </g>
   <g id="PolyCollection_4">
    <defs>
     <path d="M 223.126095 -34.865054 
L 223.126095 -34.612775 
L 230.297805 -34.612775 
L 230.297805 -34.865054 
L 230.297805 -34.865054 
L 223.126095 -34.865054 
z
" id="md3ab1f03eb" style="stroke:#50a9af;stroke-opacity:0.6;"/>
    </defs>
    <g>
     <use style="fill:#50a9af;fill-opacity:0.6;stroke:#50a9af;stroke-opacity:0.6;" x="0" xlink:href="#md3ab1f03eb" y="146.90808"/>
    </g>
   </g>
   <g id="PolyCollection_5">
    <defs>
     <path d="M 223.126095 -73.124185 
L 223.126095 -69.104426 
L 230.297805 -69.104426 
L 230.297805 -73.124185 
L 230.297805 -73.124185 
L 223.126095 -73.124185 
z
" id="m3111502ca6" style="stroke:#6bc4a5;stroke-opacity:0.6;"/>
    </defs>
    <g>
     <use style="fill:#6bc4a5;fill-opacity:0.6;stroke:#6bc4a5;stroke-opacity:0.6;" x="0" xlink:href="#m3111502ca6" y="146.90808"/>
    </g>
   </g>
   <g id="PolyCollection_6">
    <defs>
     <path d="M 223.126095 -101.501263 
L 223.126095 -98.865779 
L 230.297805 -98.865779 
L 230.297805 -101.501263 
L 230.297805 -101.501263 
L 223.126095 -101.501263 
z
" id="me3182b09cf" style="stroke:#91d3a4;stroke-opacity:0.6;"/>
    </defs>
    <g>
     <use style="fill:#91d3a4;fill-opacity:0.6;stroke:#91d3a4;stroke-opacity:0.6;" x="0" xlink:href="#me3182b09cf" y="146.90808"/>
    </g>
   </g>
   <g id="matplotlib.axis_1">
    <g id="xtick_1">
     <g id="line2d_1">
      <defs>
       <path d="M 0 0 
L 0 2 
" id="m72bb7821df" style="stroke:#000000;stroke-width:0.35;"/>
      </defs>
      <g>
       <use style="stroke:#000000;stroke-width:0.35;" x="40.2475" xlink:href="#m72bb7821df" y="125.018985"/>
      </g>
     </g>
     <g id="text_1">
      <!-- $\mathdefault{1}$ -->
      <g transform="translate(38.130408 135.553787)scale(0.08 -0.08)">
       <defs>
        <path d="M 1702 4083 
C 1702 4217 1696 4224 1606 4224 
C 1357 3927 979 3833 621 3820 
C 602 3820 570 3820 563 3808 
C 557 3795 557 3782 557 3648 
C 755 3648 1088 3686 1344 3839 
L 1344 467 
C 1344 243 1331 166 781 166 
L 589 166 
L 589 0 
C 896 6 1216 12 1523 12 
C 1830 12 2150 6 2458 0 
L 2458 166 
L 2266 166 
C 1715 166 1702 236 1702 467 
L 1702 4083 
z
" id="CMR17-31" transform="scale(0.015625)"/>
       </defs>
       <use transform="scale(0.996264)" xlink:href="#CMR17-31"/>
      </g>
     </g>
    </g>
    <g id="xtick_2">
     <g id="line2d_2">
      <g>
       <use style="stroke:#000000;stroke-width:0.35;" x="76.106048" xlink:href="#m72bb7821df" y="125.018985"/>
      </g>
     </g>
     <g id="text_2">
      <!-- $\mathdefault{2}$ -->
      <g transform="translate(73.988956 135.553787)scale(0.08 -0.08)">
       <defs>
        <path d="M 2669 990 
L 2554 990 
C 2490 537 2438 460 2413 422 
C 2381 371 1920 371 1830 371 
L 602 371 
C 832 620 1280 1073 1824 1596 
C 2214 1966 2669 2400 2669 3033 
C 2669 3788 2067 4224 1395 4224 
C 691 4224 262 3603 262 3027 
C 262 2777 448 2745 525 2745 
C 589 2745 781 2783 781 3007 
C 781 3206 614 3264 525 3264 
C 486 3264 448 3257 422 3244 
C 544 3788 915 4057 1306 4057 
C 1862 4057 2227 3616 2227 3033 
C 2227 2477 1901 1998 1536 1583 
L 262 147 
L 262 0 
L 2515 0 
L 2669 990 
z
" id="CMR17-32" transform="scale(0.015625)"/>
       </defs>
       <use transform="scale(0.996264)" xlink:href="#CMR17-32"/>
      </g>
     </g>
    </g>
    <g id="xtick_3">
     <g id="line2d_3">
      <g>
       <use style="stroke:#000000;stroke-width:0.35;" x="111.964596" xlink:href="#m72bb7821df" y="125.018985"/>
      </g>
     </g>
     <g id="text_3">
      <!-- $\mathdefault{3}$ -->
      <g transform="translate(109.847505 135.553787)scale(0.08 -0.08)">
       <defs>
        <path d="M 1414 2176 
C 1984 2176 2234 1673 2234 1094 
C 2234 322 1824 25 1453 25 
C 1114 25 563 193 390 691 
C 422 678 454 678 486 678 
C 640 678 755 780 755 947 
C 755 1132 614 1216 486 1216 
C 378 1216 211 1164 211 927 
C 211 335 787 -128 1466 -128 
C 2176 -128 2720 432 2720 1087 
C 2720 1718 2208 2176 1600 2246 
C 2086 2347 2554 2776 2554 3353 
C 2554 3856 2048 4224 1472 4224 
C 890 4224 378 3862 378 3347 
C 378 3123 544 3084 627 3084 
C 762 3084 877 3167 877 3334 
C 877 3500 762 3584 627 3584 
C 602 3584 570 3584 544 3571 
C 730 3999 1235 4076 1459 4076 
C 1683 4076 2106 3966 2106 3347 
C 2106 3167 2080 2851 1862 2574 
C 1670 2329 1453 2316 1242 2297 
C 1210 2297 1062 2284 1037 2284 
C 992 2278 966 2272 966 2227 
C 966 2182 973 2176 1101 2176 
L 1414 2176 
z
" id="CMR17-33" transform="scale(0.015625)"/>
       </defs>
       <use transform="scale(0.996264)" xlink:href="#CMR17-33"/>
      </g>
     </g>
    </g>
    <g id="xtick_4">
     <g id="line2d_4">
      <g>
       <use style="stroke:#000000;stroke-width:0.35;" x="147.823144" xlink:href="#m72bb7821df" y="125.018985"/>
      </g>
     </g>
     <g id="text_4">
      <!-- $\mathdefault{4}$ -->
      <g transform="translate(145.706053 135.553787)scale(0.08 -0.08)">
       <defs>
        <path d="M 2150 4147 
C 2150 4281 2144 4288 2029 4288 
L 128 1254 
L 128 1088 
L 1779 1088 
L 1779 460 
C 1779 230 1766 166 1318 166 
L 1197 166 
L 1197 0 
C 1402 12 1747 12 1965 12 
C 2182 12 2528 12 2733 0 
L 2733 166 
L 2611 166 
C 2163 166 2150 230 2150 460 
L 2150 1088 
L 2803 1088 
L 2803 1254 
L 2150 1254 
L 2150 4147 
z
M 1798 3723 
L 1798 1254 
L 256 1254 
L 1798 3723 
z
" id="CMR17-34" transform="scale(0.015625)"/>
       </defs>
       <use transform="scale(0.996264)" xlink:href="#CMR17-34"/>
      </g>
     </g>
    </g>
    <g id="xtick_5">
     <g id="line2d_5">
      <g>
       <use style="stroke:#000000;stroke-width:0.35;" x="183.681692" xlink:href="#m72bb7821df" y="125.018985"/>
      </g>
     </g>
     <g id="text_5">
      <!-- $\mathdefault{5}$ -->
      <g transform="translate(181.564601 135.553787)scale(0.08 -0.08)">
       <defs>
        <path d="M 730 3750 
C 794 3724 1056 3641 1325 3641 
C 1920 3641 2246 3961 2432 4140 
C 2432 4191 2432 4224 2394 4224 
C 2387 4224 2374 4224 2323 4198 
C 2099 4102 1837 4032 1517 4032 
C 1325 4032 1037 4055 723 4191 
C 653 4224 640 4224 634 4224 
C 602 4224 595 4217 595 4090 
L 595 2231 
C 595 2113 595 2080 659 2080 
C 691 2080 704 2093 736 2139 
C 941 2435 1222 2560 1542 2560 
C 1766 2560 2246 2415 2246 1293 
C 2246 1087 2246 716 2054 422 
C 1894 159 1645 25 1370 25 
C 947 25 518 319 403 812 
C 429 806 480 793 506 793 
C 589 793 749 838 749 1036 
C 749 1209 627 1280 506 1280 
C 358 1280 262 1190 262 1011 
C 262 454 704 -128 1382 -128 
C 2042 -128 2669 441 2669 1267 
C 2669 2054 2170 2662 1549 2662 
C 1222 2662 947 2540 730 2304 
L 730 3750 
z
" id="CMR17-35" transform="scale(0.015625)"/>
       </defs>
       <use transform="scale(0.996264)" xlink:href="#CMR17-35"/>
      </g>
     </g>
    </g>
    <g id="xtick_6">
     <g id="line2d_6">
      <g>
       <use style="stroke:#000000;stroke-width:0.35;" x="219.54024" xlink:href="#m72bb7821df" y="125.018985"/>
      </g>
     </g>
     <g id="text_6">
      <!-- $\mathdefault{6}$ -->
      <g transform="translate(217.423149 135.553787)scale(0.08 -0.08)">
       <defs>
        <path d="M 678 2198 
C 678 3712 1395 4076 1811 4076 
C 1946 4076 2272 4049 2400 3782 
C 2298 3782 2106 3782 2106 3558 
C 2106 3385 2246 3328 2336 3328 
C 2394 3328 2566 3353 2566 3571 
C 2566 3987 2246 4224 1805 4224 
C 1043 4224 243 3411 243 2011 
C 243 257 966 -128 1478 -128 
C 2099 -128 2688 431 2688 1295 
C 2688 2101 2170 2688 1517 2688 
C 1126 2688 838 2430 678 1979 
L 678 2198 
z
M 1478 25 
C 691 25 691 1212 691 1450 
C 691 1914 909 2585 1504 2585 
C 1613 2585 1926 2585 2138 2140 
C 2253 1889 2253 1624 2253 1302 
C 2253 954 2253 696 2118 438 
C 1978 173 1773 25 1478 25 
z
" id="CMR17-36" transform="scale(0.015625)"/>
       </defs>
       <use transform="scale(0.996264)" xlink:href="#CMR17-36"/>
      </g>
     </g>
    </g>
    <g id="text_7">
     <!-- Bipartition Size  $\;n$ -->
     <g transform="translate(101.004604 144.638334)scale(0.08 -0.08)">
      <defs>
       <path d="M 333 4352 
L 333 4185 
C 774 4185 845 4185 845 3897 
L 845 451 
C 845 166 774 166 333 166 
L 333 0 
L 2534 0 
C 3354 0 3885 578 3885 1155 
C 3885 1726 3360 2214 2675 2259 
C 3290 2380 3718 2790 3718 3276 
C 3718 3808 3194 4352 2368 4352 
L 333 4352 
z
M 1248 2304 
L 1248 3936 
C 1248 4153 1261 4185 1517 4185 
L 2336 4185 
C 2970 4185 3251 3673 3251 3276 
C 3251 2790 2861 2304 2170 2304 
L 1248 2304 
z
M 1517 166 
C 1261 166 1248 198 1248 413 
L 1248 2201 
L 2432 2201 
C 3091 2201 3411 1624 3411 1161 
C 3411 698 3046 166 2349 166 
L 1517 166 
z
" id="CMR17-42" transform="scale(0.015625)"/>
       <path d="M 992 3961 
C 992 4102 877 4224 730 4224 
C 589 4224 467 4108 467 3961 
C 467 3820 582 3699 730 3699 
C 870 3699 992 3814 992 3961 
z
M 243 2745 
L 243 2579 
C 602 2579 653 2540 653 2231 
L 653 443 
C 653 198 627 166 218 166 
L 218 0 
C 371 12 646 12 806 12 
C 960 12 1222 12 1370 0 
L 1370 166 
C 992 166 979 205 979 436 
L 979 2816 
L 243 2745 
z
" id="CMR17-69" transform="scale(0.015625)"/>
       <path d="M 1408 -1114 
C 998 -1114 973 -1088 973 -834 
L 973 380 
C 1158 109 1427 -64 1766 -64 
C 2406 -64 3053 503 3053 1382 
C 3053 2196 2496 2816 1837 2816 
C 1453 2816 1139 2603 960 2345 
L 960 2816 
L 198 2745 
L 198 2577 
C 576 2577 634 2539 634 2228 
L 634 -834 
C 634 -1081 608 -1114 198 -1114 
L 198 -1280 
C 352 -1268 634 -1268 800 -1268 
C 966 -1268 1254 -1268 1408 -1280 
L 1408 -1114 
z
M 973 2015 
C 973 2106 973 2241 1222 2481 
C 1254 2506 1472 2700 1792 2700 
C 2259 2700 2643 2112 2643 1376 
C 2643 639 2234 38 1728 38 
C 1498 38 1248 148 1056 451 
C 973 594 973 632 973 736 
L 973 2015 
z
" id="CMR17-70" transform="scale(0.015625)"/>
       <path d="M 2304 1656 
C 2304 2048 2304 2275 2035 2534 
C 1798 2751 1523 2816 1306 2816 
C 800 2816 435 2408 435 1977 
C 435 1740 627 1728 666 1728 
C 749 1728 896 1779 896 1958 
C 896 2118 774 2188 666 2188 
C 640 2188 608 2182 589 2176 
C 723 2594 1069 2713 1293 2713 
C 1613 2713 1965 2421 1965 1875 
L 1965 1632 
C 1587 1619 1133 1568 774 1373 
C 371 1147 256 822 256 576 
C 256 77 832 -64 1171 -64 
C 1523 -64 1850 135 1990 505 
C 2003 219 2182 -39 2464 -39 
C 2598 -39 2938 51 2938 563 
L 2938 926 
L 2822 926 
L 2822 557 
C 2822 161 2650 109 2566 109 
C 2304 109 2304 446 2304 732 
L 2304 1656 
z
M 1965 887 
C 1965 323 1568 38 1216 38 
C 896 38 646 278 646 576 
C 646 771 730 1114 1101 1322 
C 1408 1497 1760 1523 1965 1536 
L 1965 887 
z
" id="CMR17-61" transform="scale(0.015625)"/>
       <path d="M 960 1517 
C 960 2134 1222 2713 1702 2713 
C 1747 2713 1792 2707 1837 2687 
C 1837 2687 1696 2642 1696 2475 
C 1696 2321 1818 2257 1914 2257 
C 1990 2257 2131 2302 2131 2482 
C 2131 2687 1926 2816 1709 2816 
C 1222 2816 1011 2340 947 2115 
L 941 2115 
L 941 2816 
L 198 2745 
L 198 2578 
C 576 2578 634 2540 634 2231 
L 634 443 
C 634 198 608 166 198 166 
L 198 0 
C 352 12 646 12 813 12 
C 998 12 1325 12 1498 0 
L 1498 166 
C 1037 166 960 166 960 455 
L 960 1517 
z
" id="CMR17-72" transform="scale(0.015625)"/>
       <path d="M 966 2585 
L 1862 2585 
L 1862 2752 
L 966 2752 
L 966 3968 
L 851 3968 
C 838 3292 614 2700 70 2687 
L 70 2585 
L 627 2585 
L 627 778 
C 627 655 627 -64 1370 -64 
C 1747 -64 1965 308 1965 784 
L 1965 1151 
L 1850 1151 
L 1850 790 
C 1850 347 1677 51 1408 51 
C 1222 51 966 179 966 765 
L 966 2585 
z
" id="CMR17-74" transform="scale(0.015625)"/>
       <path d="M 2758 1356 
C 2758 2176 2163 2816 1466 2816 
C 768 2816 173 2176 173 1356 
C 173 550 768 -64 1466 -64 
C 2163 -64 2758 550 2758 1356 
z
M 1466 51 
C 1165 51 909 230 762 480 
C 602 768 582 1126 582 1408 
C 582 1676 595 2009 762 2297 
C 890 2508 1139 2713 1466 2713 
C 1754 2713 1997 2553 2150 2329 
C 2349 2028 2349 1606 2349 1408 
C 2349 1158 2336 774 2163 467 
C 1984 172 1709 51 1466 51 
z
" id="CMR17-6f" transform="scale(0.015625)"/>
       <path d="M 2656 1954 
C 2656 2282 2592 2816 1837 2816 
C 1331 2816 1069 2424 973 2166 
L 966 2166 
L 966 2816 
L 211 2745 
L 211 2578 
C 589 2578 646 2540 646 2231 
L 646 443 
C 646 198 621 166 211 166 
L 211 0 
C 365 12 646 12 813 12 
C 979 12 1267 12 1421 0 
L 1421 166 
C 1011 166 986 192 986 443 
L 986 1678 
C 986 2269 1344 2713 1792 2713 
C 2266 2713 2317 2289 2317 1980 
L 2317 443 
C 2317 198 2291 166 1882 166 
L 1882 0 
C 2035 12 2317 12 2483 12 
C 2650 12 2938 12 3091 0 
L 3091 166 
C 2682 166 2656 192 2656 443 
L 2656 1954 
z
" id="CMR17-6e" transform="scale(0.015625)"/>
       <path d="M 2803 4351 
C 2803 4467 2797 4473 2758 4473 
C 2720 4473 2707 4447 2682 4390 
L 2490 3965 
C 2246 4320 1875 4480 1472 4480 
C 819 4480 294 3958 294 3301 
C 294 3101 339 2817 557 2546 
C 794 2250 1018 2198 1530 2063 
C 1722 2011 2042 1927 2106 1901 
C 2470 1747 2662 1360 2662 999 
C 2662 534 2336 38 1779 38 
C 1094 38 454 425 410 1328 
C 403 1431 397 1437 352 1437 
C 301 1437 294 1431 294 1302 
L 294 0 
C 294 -116 301 -122 339 -122 
C 384 -122 397 -90 486 109 
C 493 128 493 141 614 386 
C 934 -39 1472 -128 1779 -128 
C 2477 -128 2970 457 2970 1141 
C 2970 1476 2848 1734 2778 1850 
C 2509 2263 2221 2340 1914 2417 
C 1869 2437 1856 2437 1498 2527 
C 1152 2617 1005 2662 845 2836 
C 666 3036 602 3243 602 3449 
C 602 3868 934 4326 1478 4326 
C 2157 4326 2579 3842 2675 3036 
C 2694 2920 2701 2914 2746 2914 
C 2803 2914 2803 2933 2803 3043 
L 2803 4351 
z
" id="CMR17-53" transform="scale(0.015625)"/>
       <path d="M 2310 2604 
C 2362 2668 2362 2681 2362 2694 
C 2362 2752 2336 2752 2221 2752 
L 275 2752 
L 211 1760 
L 326 1760 
C 371 2380 442 2649 1178 2649 
L 1958 2649 
L 128 96 
C 128 6 134 0 269 0 
L 2291 0 
L 2381 1152 
L 2266 1152 
C 2214 441 2131 115 1350 115 
L 531 115 
L 2310 2604 
z
" id="CMR17-7a" transform="scale(0.015625)"/>
       <path d="M 2438 1503 
C 2464 1529 2464 1542 2464 1606 
C 2464 2251 2118 2816 1389 2816 
C 710 2816 173 2175 173 1394 
C 173 554 781 -64 1459 -64 
C 2176 -64 2458 619 2458 755 
C 2458 800 2419 800 2406 800 
C 2362 800 2355 787 2330 709 
C 2189 270 1837 51 1504 51 
C 1229 51 954 206 781 490 
C 582 819 582 1200 582 1503 
L 2438 1503 
z
M 589 1600 
C 634 2511 1126 2713 1382 2713 
C 1818 2713 2112 2308 2118 1600 
L 589 1600 
z
" id="CMR17-65" transform="scale(0.015625)"/>
       <path d="M 1318 1870 
C 1331 1909 1491 2228 1728 2432 
C 1894 2585 2112 2687 2362 2687 
C 2618 2687 2707 2496 2707 2241 
C 2707 1877 2445 1149 2317 804 
C 2259 651 2227 568 2227 453 
C 2227 166 2426 -64 2733 -64 
C 3328 -64 3552 874 3552 913 
C 3552 945 3526 970 3488 970 
C 3430 970 3424 951 3392 842 
C 3245 319 3002 64 2752 64 
C 2688 64 2586 70 2586 274 
C 2586 434 2656 625 2694 715 
C 2822 1066 3091 1781 3091 2145 
C 3091 2528 2867 2816 2381 2816 
C 1811 2816 1510 2413 1395 2253 
C 1376 2617 1114 2816 832 2816 
C 627 2816 486 2694 378 2477 
C 262 2247 173 1864 173 1838 
C 173 1813 198 1781 243 1781 
C 294 1781 301 1787 339 1934 
C 442 2324 557 2687 813 2687 
C 960 2687 1011 2585 1011 2394 
C 1011 2253 947 2004 902 1807 
L 723 1117 
C 698 996 627 708 595 593 
C 550 427 480 127 480 95 
C 480 6 550 -64 646 -64 
C 723 -64 813 -26 864 70 
C 877 102 934 325 966 453 
L 1107 1028 
L 1318 1870 
z
" id="CMMI12-6e" transform="scale(0.015625)"/>
      </defs>
      <use transform="scale(0.996264)" xlink:href="#CMR17-42"/>
      <use transform="translate(65.188754 0)scale(0.996264)" xlink:href="#CMR17-69"/>
      <use transform="translate(90.059813 0)scale(0.996264)" xlink:href="#CMR17-70"/>
      <use transform="translate(140.955183 0)scale(0.996264)" xlink:href="#CMR17-61"/>
      <use transform="translate(186.64566 0)scale(0.996264)" xlink:href="#CMR17-72"/>
      <use transform="translate(221.926428 0)scale(0.996264)" xlink:href="#CMR17-74"/>
      <use transform="translate(257.207195 0)scale(0.996264)" xlink:href="#CMR17-69"/>
      <use transform="translate(282.078254 0)scale(0.996264)" xlink:href="#CMR17-74"/>
      <use transform="translate(317.359022 0)scale(0.996264)" xlink:href="#CMR17-69"/>
      <use transform="translate(342.23008 0)scale(0.996264)" xlink:href="#CMR17-6f"/>
      <use transform="translate(387.920557 0)scale(0.996264)" xlink:href="#CMR17-6e"/>
      <use transform="translate(468.891893 0)scale(0.996264)" xlink:href="#CMR17-53"/>
      <use transform="translate(519.787263 0)scale(0.996264)" xlink:href="#CMR17-69"/>
      <use transform="translate(544.658322 0)scale(0.996264)" xlink:href="#CMR17-7a"/>
      <use transform="translate(585.143982 0)scale(0.996264)" xlink:href="#CMR17-65"/>
      <use transform="translate(683.379618 0)scale(0.996264)" xlink:href="#CMMI12-6e"/>
     </g>
    </g>
   </g>
   <g id="matplotlib.axis_2">
    <g id="ytick_1">
     <g id="line2d_7">
      <defs>
       <path d="M 0 0 
L -2 0 
" id="m9e0ae3b7f2" style="stroke:#000000;stroke-width:0.35;"/>
      </defs>
      <g>
       <use style="stroke:#000000;stroke-width:0.35;" x="30.744984" xlink:href="#m9e0ae3b7f2" y="125.018985"/>
      </g>
     </g>
     <g id="text_8">
      <!-- $\mathdefault{0.00}$ -->
      <g transform="translate(10.690112 127.786386)scale(0.08 -0.08)">
       <defs>
        <path d="M 2688 2038 
C 2688 2430 2682 3099 2413 3613 
C 2176 4063 1798 4224 1466 4224 
C 1158 4224 768 4082 525 3620 
C 269 3137 243 2539 243 2038 
C 243 1671 250 1112 448 623 
C 723 -39 1216 -128 1466 -128 
C 1760 -128 2208 -7 2470 604 
C 2662 1048 2688 1568 2688 2038 
z
M 1466 -26 
C 1056 -26 813 328 723 816 
C 653 1196 653 1749 653 2109 
C 653 2604 653 3015 736 3407 
C 858 3954 1216 4121 1466 4121 
C 1728 4121 2067 3947 2189 3420 
C 2272 3054 2278 2623 2278 2109 
C 2278 1691 2278 1176 2202 797 
C 2067 96 1690 -26 1466 -26 
z
" id="CMR17-30" transform="scale(0.015625)"/>
        <path d="M 1178 307 
C 1178 492 1024 620 870 620 
C 685 620 557 467 557 313 
C 557 128 710 0 864 0 
C 1050 0 1178 153 1178 307 
z
" id="CMMI12-3a" transform="scale(0.015625)"/>
       </defs>
       <use transform="scale(0.996264)" xlink:href="#CMR17-30"/>
       <use transform="translate(45.690477 0)scale(0.996264)" xlink:href="#CMMI12-3a"/>
       <use transform="translate(72.787654 0)scale(0.996264)" xlink:href="#CMR17-30"/>
       <use transform="translate(118.478131 0)scale(0.996264)" xlink:href="#CMR17-30"/>
      </g>
     </g>
    </g>
    <g id="ytick_2">
     <g id="line2d_8">
      <g>
       <use style="stroke:#000000;stroke-width:0.35;" x="30.744984" xlink:href="#m9e0ae3b7f2" y="94.702159"/>
      </g>
     </g>
     <g id="text_9">
      <!-- $\mathdefault{0.02}$ -->
      <g transform="translate(10.690112 97.46956)scale(0.08 -0.08)">
       <use transform="scale(0.996264)" xlink:href="#CMR17-30"/>
       <use transform="translate(45.690477 0)scale(0.996264)" xlink:href="#CMMI12-3a"/>
       <use transform="translate(72.787654 0)scale(0.996264)" xlink:href="#CMR17-30"/>
       <use transform="translate(118.478131 0)scale(0.996264)" xlink:href="#CMR17-32"/>
      </g>
     </g>
    </g>
    <g id="ytick_3">
     <g id="line2d_9">
      <g>
       <use style="stroke:#000000;stroke-width:0.35;" x="30.744984" xlink:href="#m9e0ae3b7f2" y="64.385334"/>
      </g>
     </g>
     <g id="text_10">
      <!-- $\mathdefault{0.04}$ -->
      <g transform="translate(10.690112 67.152735)scale(0.08 -0.08)">
       <use transform="scale(0.996264)" xlink:href="#CMR17-30"/>
       <use transform="translate(45.690477 0)scale(0.996264)" xlink:href="#CMMI12-3a"/>
       <use transform="translate(72.787654 0)scale(0.996264)" xlink:href="#CMR17-30"/>
       <use transform="translate(118.478131 0)scale(0.996264)" xlink:href="#CMR17-34"/>
      </g>
     </g>
    </g>
    <g id="ytick_4">
     <g id="line2d_10">
      <g>
       <use style="stroke:#000000;stroke-width:0.35;" x="30.744984" xlink:href="#m9e0ae3b7f2" y="34.068508"/>
      </g>
     </g>
     <g id="text_11">
      <!-- $\mathdefault{0.06}$ -->
      <g transform="translate(10.690112 36.835909)scale(0.08 -0.08)">
       <use transform="scale(0.996264)" xlink:href="#CMR17-30"/>
       <use transform="translate(45.690477 0)scale(0.996264)" xlink:href="#CMMI12-3a"/>
       <use transform="translate(72.787654 0)scale(0.996264)" xlink:href="#CMR17-30"/>
       <use transform="translate(118.478131 0)scale(0.996264)" xlink:href="#CMR17-36"/>
      </g>
     </g>
    </g>
    <g id="ytick_5">
     <g id="line2d_11">
      <g>
       <use style="stroke:#000000;stroke-width:0.35;" x="30.744984" xlink:href="#m9e0ae3b7f2" y="3.751683"/>
      </g>
     </g>
     <g id="text_12">
      <!-- $\mathdefault{0.08}$ -->
      <g transform="translate(10.690112 6.519083)scale(0.08 -0.08)">
       <defs>
        <path d="M 1741 2289 
C 2144 2494 2554 2803 2554 3298 
C 2554 3884 1990 4224 1472 4224 
C 890 4224 378 3800 378 3215 
C 378 3054 416 2777 666 2533 
C 730 2469 998 2276 1171 2154 
C 883 2006 211 1652 211 945 
C 211 282 838 -128 1459 -128 
C 2144 -128 2720 366 2720 1022 
C 2720 1607 2330 1877 2074 2051 
L 1741 2289 
z
M 902 2855 
C 851 2887 595 3086 595 3388 
C 595 3781 998 4076 1459 4076 
C 1965 4076 2336 3716 2336 3298 
C 2336 2700 1670 2359 1638 2359 
C 1632 2359 1626 2359 1574 2398 
L 902 2855 
z
M 2080 1536 
C 2176 1466 2483 1253 2483 861 
C 2483 385 2010 25 1472 25 
C 890 25 448 443 448 951 
C 448 1459 838 1884 1280 2083 
L 2080 1536 
z
" id="CMR17-38" transform="scale(0.015625)"/>
       </defs>
       <use transform="scale(0.996264)" xlink:href="#CMR17-30"/>
       <use transform="translate(45.690477 0)scale(0.996264)" xlink:href="#CMMI12-3a"/>
       <use transform="translate(72.787654 0)scale(0.996264)" xlink:href="#CMR17-30"/>
       <use transform="translate(118.478131 0)scale(0.996264)" xlink:href="#CMR17-38"/>
      </g>
     </g>
    </g>
    <g id="text_13">
     <!-- $\Delta S(t\to\infty;n)/n$ -->
     <g transform="translate(6.697584 93.975957)rotate(-90)scale(0.08 -0.08)">
      <defs>
       <path d="M 2598 4435 
C 2547 4544 2522 4544 2470 4544 
C 2394 4544 2387 4531 2342 4441 
L 269 108 
C 262 96 237 38 237 32 
C 237 6 243 0 358 0 
L 4576 0 
C 4691 0 4698 6 4698 32 
C 4698 38 4672 96 4666 108 
L 2598 4435 
z
M 2310 4056 
L 4083 358 
L 531 358 
L 2310 4056 
z
" id="CMR17-1" transform="scale(0.015625)"/>
       <path d="M 4064 4422 
C 4064 4480 4019 4480 4006 4480 
C 3981 4480 3974 4473 3898 4377 
C 3859 4332 3597 4002 3590 3996 
C 3379 4409 2957 4480 2688 4480 
C 1875 4480 1139 3742 1139 3024 
C 1139 2547 1427 2268 1741 2160 
C 1811 2134 2189 2033 2381 1988 
C 2707 1899 2790 1874 2925 1734 
C 2950 1702 3078 1556 3078 1258 
C 3078 667 2528 57 1888 57 
C 1363 57 781 279 781 991 
C 781 1112 806 1264 826 1328 
C 826 1347 832 1378 832 1391 
C 832 1417 819 1448 768 1448 
C 710 1448 704 1436 678 1328 
L 352 25 
C 352 19 326 -64 326 -71 
C 326 -128 378 -128 390 -128 
C 416 -128 422 -122 499 -26 
L 794 356 
C 947 127 1280 -128 1875 -128 
C 2701 -128 3456 667 3456 1461 
C 3456 1728 3392 1963 3149 2198 
C 3014 2331 2899 2363 2310 2516 
C 1882 2630 1824 2649 1709 2751 
C 1600 2859 1517 3011 1517 3227 
C 1517 3761 2061 4307 2669 4307 
C 3296 4307 3590 3926 3590 3322 
C 3590 3157 3558 2986 3558 2960 
C 3558 2903 3610 2903 3629 2903 
C 3686 2903 3693 2922 3718 3024 
L 4064 4422 
z
" id="CMMI12-53" transform="scale(0.015625)"/>
       <path d="M 1958 -1562 
C 1958 -1556 1958 -1543 1939 -1524 
C 1645 -1223 858 -403 858 1596 
C 858 3595 1632 4408 1946 4729 
C 1946 4735 1958 4748 1958 4767 
C 1958 4787 1939 4800 1914 4800 
C 1843 4800 1299 4325 986 3620 
C 666 2909 576 2218 576 1603 
C 576 1141 621 360 1005 -467 
C 1312 -1133 1837 -1600 1914 -1600 
C 1946 -1600 1958 -1588 1958 -1562 
z
" id="CMR17-28" transform="scale(0.015625)"/>
       <path d="M 1286 2566 
L 1875 2566 
C 1997 2566 2061 2566 2061 2681 
C 2061 2752 2022 2752 1894 2752 
L 1331 2752 
L 1568 3664 
C 1594 3752 1594 3764 1594 3808 
C 1594 3910 1510 3968 1427 3968 
C 1376 3968 1229 3948 1178 3746 
L 928 2752 
L 326 2752 
C 198 2752 141 2752 141 2630 
C 141 2566 186 2566 307 2566 
L 877 2566 
L 454 881 
C 403 657 384 593 384 510 
C 384 210 595 -64 954 -64 
C 1600 -64 1946 868 1946 913 
C 1946 951 1920 970 1882 970 
C 1869 970 1843 970 1830 944 
C 1824 938 1818 932 1773 830 
C 1638 510 1344 64 973 64 
C 781 64 768 223 768 364 
C 768 370 768 491 787 568 
L 1286 2566 
z
" id="CMMI12-74" transform="scale(0.015625)"/>
       <path d="M 5338 1472 
C 4986 1203 4813 940 4762 857 
C 4474 415 4422 12 4422 6 
C 4422 -71 4499 -71 4550 -71 
C 4659 -71 4666 -58 4691 57 
C 4838 684 5216 1222 5939 1516 
C 6016 1542 6035 1555 6035 1600 
C 6035 1644 5997 1664 5984 1670 
C 5702 1779 4928 2099 4685 3174 
C 4666 3251 4659 3270 4550 3270 
C 4499 3270 4422 3270 4422 3193 
C 4422 3180 4480 2777 4749 2348 
C 4877 2156 5062 1932 5338 1728 
L 582 1728 
C 467 1728 352 1728 352 1600 
C 352 1472 467 1472 582 1472 
L 5338 1472 
z
" id="CMSY10-21" transform="scale(0.015625)"/>
       <path d="M 3251 1736 
C 2906 2170 2829 2266 2630 2426 
C 2272 2713 1914 2828 1587 2828 
C 838 2828 352 2126 352 1379 
C 352 645 826 -64 1562 -64 
C 2298 -64 2829 517 3142 1028 
C 3488 594 3565 498 3763 338 
C 4122 51 4480 -64 4806 -64 
C 5555 -64 6042 638 6042 1385 
C 6042 2119 5568 2828 4832 2828 
C 4096 2828 3565 2247 3251 1736 
z
M 3418 1519 
C 3680 1979 4154 2624 4877 2624 
C 5555 2624 5901 1960 5901 1385 
C 5901 760 5472 242 4909 242 
C 4538 242 4250 511 4115 645 
C 3955 817 3808 1015 3418 1519 
z
M 2976 1245 
C 2714 785 2240 140 1517 140 
C 838 140 493 804 493 1379 
C 493 2004 922 2521 1485 2521 
C 1856 2521 2144 2253 2278 2119 
C 2438 1947 2586 1749 2976 1245 
z
" id="CMSY10-31" transform="scale(0.015625)"/>
       <path d="M 1062 2489 
C 1062 2649 934 2752 800 2752 
C 672 2752 538 2649 538 2489 
C 538 2329 666 2227 800 2227 
C 928 2227 1062 2329 1062 2489 
z
M 979 -69 
C 979 -469 851 -795 634 -1095 
C 595 -1140 595 -1152 595 -1159 
C 595 -1191 621 -1216 646 -1216 
C 678 -1216 1082 -782 1082 -57 
C 1082 192 1062 524 800 524 
C 659 524 538 428 538 262 
C 538 96 659 0 800 0 
C 864 0 934 19 979 64 
L 979 -69 
z
" id="CMR17-3b" transform="scale(0.015625)"/>
       <path d="M 1683 1596 
C 1683 2057 1638 2839 1254 3665 
C 947 4332 422 4800 346 4800 
C 326 4800 301 4793 301 4761 
C 301 4748 307 4742 314 4729 
C 621 4408 1402 3595 1402 1603 
C 1402 -396 627 -1210 314 -1530 
C 307 -1543 301 -1549 301 -1562 
C 301 -1594 326 -1600 346 -1600 
C 416 -1600 960 -1127 1274 -422 
C 1594 289 1683 981 1683 1596 
z
" id="CMR17-29" transform="scale(0.015625)"/>
       <path d="M 2746 4563 
C 2746 4569 2784 4665 2784 4678 
C 2784 4755 2720 4800 2669 4800 
C 2637 4800 2579 4800 2528 4659 
L 384 -1364 
C 384 -1370 346 -1466 346 -1479 
C 346 -1556 410 -1600 461 -1600 
C 499 -1600 557 -1594 602 -1460 
L 2746 4563 
z
" id="CMMI12-3d" transform="scale(0.015625)"/>
      </defs>
      <use transform="scale(0.996264)" xlink:href="#CMR17-1"/>
      <use transform="translate(76.91959 0)scale(0.996264)" xlink:href="#CMMI12-53"/>
      <use transform="translate(142.714029 0)scale(0.996264)" xlink:href="#CMR17-28"/>
      <use transform="translate(177.994797 0)scale(0.996264)" xlink:href="#CMMI12-74"/>
      <use transform="translate(240.895136 0)scale(0.996264)" xlink:href="#CMSY10-21"/>
      <use transform="translate(368.195819 0)scale(0.996264)" xlink:href="#CMSY10-31"/>
      <use transform="translate(467.822494 0)scale(0.996264)" xlink:href="#CMR17-3b"/>
      <use transform="translate(509.297957 0)scale(0.996264)" xlink:href="#CMMI12-6e"/>
      <use transform="translate(567.528005 0)scale(0.996264)" xlink:href="#CMR17-29"/>
      <use transform="translate(602.808773 0)scale(0.996264)" xlink:href="#CMMI12-3d"/>
      <use transform="translate(651.583691 0)scale(0.996264)" xlink:href="#CMMI12-6e"/>
     </g>
    </g>
   </g>
   <g id="LineCollection_1">
    <path clip-path="url(#pb30c170b94)" d="M 40.2475 115.816193 
L 40.2475 115.40545 
" style="fill:none;stroke:#5e4fa2;stroke-width:0.5;"/>
    <path clip-path="url(#pb30c170b94)" d="M 76.106048 116.546781 
L 76.106048 116.169789 
" style="fill:none;stroke:#5e4fa2;stroke-width:0.5;"/>
    <path clip-path="url(#pb30c170b94)" d="M 111.964596 117.307904 
L 111.964596 116.965984 
" style="fill:none;stroke:#5e4fa2;stroke-width:0.5;"/>
    <path clip-path="url(#pb30c170b94)" d="M 147.823144 118.101498 
L 147.823144 117.795865 
" style="fill:none;stroke:#5e4fa2;stroke-width:0.5;"/>
    <path clip-path="url(#pb30c170b94)" d="M 183.681692 118.928332 
L 183.681692 118.660012 
" style="fill:none;stroke:#5e4fa2;stroke-width:0.5;"/>
    <path clip-path="url(#pb30c170b94)" d="M 219.54024 119.786528 
L 219.54024 119.556289 
" style="fill:none;stroke:#5e4fa2;stroke-width:0.5;"/>
   </g>
   <g id="LineCollection_2">
    <path clip-path="url(#pb30c170b94)" d="M 40.2475 116.293103 
L 40.2475 115.979366 
" style="fill:none;stroke:#486cb0;stroke-width:0.5;"/>
    <path clip-path="url(#pb30c170b94)" d="M 76.106048 116.992453 
L 76.106048 116.705135 
" style="fill:none;stroke:#486cb0;stroke-width:0.5;"/>
    <path clip-path="url(#pb30c170b94)" d="M 111.964596 117.719363 
L 111.964596 117.459316 
" style="fill:none;stroke:#486cb0;stroke-width:0.5;"/>
    <path clip-path="url(#pb30c170b94)" d="M 147.823144 118.475317 
L 147.823144 118.243269 
" style="fill:none;stroke:#486cb0;stroke-width:0.5;"/>
    <path clip-path="url(#pb30c170b94)" d="M 183.681692 119.260641 
L 183.681692 119.057154 
" style="fill:none;stroke:#486cb0;stroke-width:0.5;"/>
    <path clip-path="url(#pb30c170b94)" d="M 219.54024 120.073142 
L 219.54024 119.898602 
" style="fill:none;stroke:#486cb0;stroke-width:0.5;"/>
   </g>
   <g id="LineCollection_3">
    <path clip-path="url(#pb30c170b94)" d="M 40.2475 102.457382 
L 40.2475 101.632438 
" style="fill:none;stroke:#3389bd;stroke-width:0.5;"/>
    <path clip-path="url(#pb30c170b94)" d="M 76.106048 104.187655 
L 76.106048 103.427068 
" style="fill:none;stroke:#3389bd;stroke-width:0.5;"/>
    <path clip-path="url(#pb30c170b94)" d="M 111.964596 106.008868 
L 111.964596 105.316402 
" style="fill:none;stroke:#3389bd;stroke-width:0.5;"/>
    <path clip-path="url(#pb30c170b94)" d="M 147.823144 107.927938 
L 147.823144 107.307155 
" style="fill:none;stroke:#3389bd;stroke-width:0.5;"/>
    <path clip-path="url(#pb30c170b94)" d="M 183.681692 109.948281 
L 183.681692 109.402294 
" style="fill:none;stroke:#3389bd;stroke-width:0.5;"/>
    <path clip-path="url(#pb30c170b94)" d="M 219.54024 112.064794 
L 219.54024 111.596012 
" style="fill:none;stroke:#3389bd;stroke-width:0.5;"/>
   </g>
   <g id="LineCollection_4">
    <path clip-path="url(#pb30c170b94)" d="M 40.2475 104.302062 
L 40.2475 103.577067 
" style="fill:none;stroke:#50a9af;stroke-width:0.5;"/>
    <path clip-path="url(#pb30c170b94)" d="M 76.106048 105.923129 
L 76.106048 105.257518 
" style="fill:none;stroke:#50a9af;stroke-width:0.5;"/>
    <path clip-path="url(#pb30c170b94)" d="M 111.964596 107.620854 
L 111.964596 107.017058 
" style="fill:none;stroke:#50a9af;stroke-width:0.5;"/>
    <path clip-path="url(#pb30c170b94)" d="M 147.823144 109.399714 
L 147.823144 108.859933 
" style="fill:none;stroke:#50a9af;stroke-width:0.5;"/>
    <path clip-path="url(#pb30c170b94)" d="M 183.681692 111.260899 
L 183.681692 110.786976 
" style="fill:none;stroke:#50a9af;stroke-width:0.5;"/>
    <path clip-path="url(#pb30c170b94)" d="M 219.54024 113.198165 
L 219.54024 112.791489 
" style="fill:none;stroke:#50a9af;stroke-width:0.5;"/>
   </g>
   <g id="LineCollection_5">
    <path clip-path="url(#pb30c170b94)" d="M 40.2475 50.149263 
L 40.2475 47.382404 
" style="fill:none;stroke:#6bc4a5;stroke-width:0.5;"/>
    <path clip-path="url(#pb30c170b94)" d="M 76.106048 55.408379 
L 76.106048 52.824864 
" style="fill:none;stroke:#6bc4a5;stroke-width:0.5;"/>
    <path clip-path="url(#pb30c170b94)" d="M 111.964596 61.099225 
L 111.964596 58.721138 
" style="fill:none;stroke:#6bc4a5;stroke-width:0.5;"/>
    <path clip-path="url(#pb30c170b94)" d="M 147.823144 67.26216 
L 147.823144 65.111786 
" style="fill:none;stroke:#6bc4a5;stroke-width:0.5;"/>
    <path clip-path="url(#pb30c170b94)" d="M 183.681692 73.919032 
L 183.681692 72.017198 
" style="fill:none;stroke:#6bc4a5;stroke-width:0.5;"/>
    <path clip-path="url(#pb30c170b94)" d="M 219.54024 81.043809 
L 219.54024 79.407745 
" style="fill:none;stroke:#6bc4a5;stroke-width:0.5;"/>
   </g>
   <g id="LineCollection_6">
    <path clip-path="url(#pb30c170b94)" d="M 40.2475 5.393572 
L 40.2475 1.655179 
" style="fill:none;stroke:#91d3a4;stroke-width:0.5;"/>
    <path clip-path="url(#pb30c170b94)" d="M 76.106048 13.822318 
L 76.106048 10.375669 
" style="fill:none;stroke:#91d3a4;stroke-width:0.5;"/>
    <path clip-path="url(#pb30c170b94)" d="M 111.964596 22.93715 
L 111.964596 19.798358 
" style="fill:none;stroke:#91d3a4;stroke-width:0.5;"/>
    <path clip-path="url(#pb30c170b94)" d="M 147.823144 32.812778 
L 147.823144 29.997862 
" style="fill:none;stroke:#91d3a4;stroke-width:0.5;"/>
    <path clip-path="url(#pb30c170b94)" d="M 183.681692 43.477416 
L 183.681692 41.000804 
" style="fill:none;stroke:#91d3a4;stroke-width:0.5;"/>
    <path clip-path="url(#pb30c170b94)" d="M 219.54024 54.863935 
L 219.54024 52.737189 
" style="fill:none;stroke:#91d3a4;stroke-width:0.5;"/>
   </g>
   <g id="line2d_12">
    <path clip-path="url(#pb30c170b94)" d="M 40.2475 115.610822 
L 76.106048 116.358285 
L 111.964596 117.136944 
L 147.823144 117.948682 
L 183.681692 118.794172 
L 219.54024 119.671408 
" style="fill:none;stroke:#5e4fa2;stroke-dasharray:1.85,0.8;stroke-dashoffset:0;stroke-linecap:round;stroke-width:0.5;"/>
    <defs>
     <path d="M 0 1.5 
C 0.397805 1.5 0.77937 1.341951 1.06066 1.06066 
C 1.341951 0.77937 1.5 0.397805 1.5 0 
C 1.5 -0.397805 1.341951 -0.77937 1.06066 -1.06066 
C 0.77937 -1.341951 0.397805 -1.5 0 -1.5 
C -0.397805 -1.5 -0.77937 -1.341951 -1.06066 -1.06066 
C -1.341951 -0.77937 -1.5 -0.397805 -1.5 0 
C -1.5 0.397805 -1.341951 0.77937 -1.06066 1.06066 
C -0.77937 1.341951 -0.397805 1.5 0 1.5 
z
" id="m0f5d6945b6" style="stroke:#5e4fa2;stroke-width:0.5;"/>
    </defs>
    <g clip-path="url(#pb30c170b94)">
     <use style="fill:#5d4ea1;fill-opacity:0.533333;stroke:#5e4fa2;stroke-width:0.5;" x="40.2475" xlink:href="#m0f5d6945b6" y="115.610822"/>
     <use style="fill:#5d4ea1;fill-opacity:0.533333;stroke:#5e4fa2;stroke-width:0.5;" x="76.106048" xlink:href="#m0f5d6945b6" y="116.358285"/>
     <use style="fill:#5d4ea1;fill-opacity:0.533333;stroke:#5e4fa2;stroke-width:0.5;" x="111.964596" xlink:href="#m0f5d6945b6" y="117.136944"/>
     <use style="fill:#5d4ea1;fill-opacity:0.533333;stroke:#5e4fa2;stroke-width:0.5;" x="147.823144" xlink:href="#m0f5d6945b6" y="117.948682"/>
     <use style="fill:#5d4ea1;fill-opacity:0.533333;stroke:#5e4fa2;stroke-width:0.5;" x="183.681692" xlink:href="#m0f5d6945b6" y="118.794172"/>
     <use style="fill:#5d4ea1;fill-opacity:0.533333;stroke:#5e4fa2;stroke-width:0.5;" x="219.54024" xlink:href="#m0f5d6945b6" y="119.671408"/>
    </g>
   </g>
   <g id="line2d_13">
    <path clip-path="url(#pb30c170b94)" d="M 40.2475 116.136235 
L 76.106048 116.848794 
L 111.964596 117.589339 
L 147.823144 118.359293 
L 183.681692 119.158897 
L 219.54024 119.985872 
" style="fill:none;stroke:#486cb0;stroke-dasharray:1.85,0.8;stroke-dashoffset:0;stroke-linecap:round;stroke-width:0.5;"/>
    <defs>
     <path d="M 0 1.5 
C 0.397805 1.5 0.77937 1.341951 1.06066 1.06066 
C 1.341951 0.77937 1.5 0.397805 1.5 0 
C 1.5 -0.397805 1.341951 -0.77937 1.06066 -1.06066 
C 0.77937 -1.341951 0.397805 -1.5 0 -1.5 
C -0.397805 -1.5 -0.77937 -1.341951 -1.06066 -1.06066 
C -1.341951 -0.77937 -1.5 -0.397805 -1.5 0 
C -1.5 0.397805 -1.341951 0.77937 -1.06066 1.06066 
C -0.77937 1.341951 -0.397805 1.5 0 1.5 
z
" id="mcace4c68b1" style="stroke:#486cb0;stroke-width:0.5;"/>
    </defs>
    <g clip-path="url(#pb30c170b94)">
     <use style="fill:#476baf;fill-opacity:0.533333;stroke:#486cb0;stroke-width:0.5;" x="40.2475" xlink:href="#mcace4c68b1" y="116.136235"/>
     <use style="fill:#476baf;fill-opacity:0.533333;stroke:#486cb0;stroke-width:0.5;" x="76.106048" xlink:href="#mcace4c68b1" y="116.848794"/>
     <use style="fill:#476baf;fill-opacity:0.533333;stroke:#486cb0;stroke-width:0.5;" x="111.964596" xlink:href="#mcace4c68b1" y="117.589339"/>
     <use style="fill:#476baf;fill-opacity:0.533333;stroke:#486cb0;stroke-width:0.5;" x="147.823144" xlink:href="#mcace4c68b1" y="118.359293"/>
     <use style="fill:#476baf;fill-opacity:0.533333;stroke:#486cb0;stroke-width:0.5;" x="183.681692" xlink:href="#mcace4c68b1" y="119.158897"/>
     <use style="fill:#476baf;fill-opacity:0.533333;stroke:#486cb0;stroke-width:0.5;" x="219.54024" xlink:href="#mcace4c68b1" y="119.985872"/>
    </g>
   </g>
   <g id="line2d_14">
    <path clip-path="url(#pb30c170b94)" d="M 40.2475 102.04491 
L 76.106048 103.807362 
L 111.964596 105.662635 
L 147.823144 107.617546 
L 183.681692 109.675287 
L 219.54024 111.830403 
" style="fill:none;stroke:#3389bd;stroke-dasharray:1.85,0.8;stroke-dashoffset:0;stroke-linecap:round;stroke-width:0.5;"/>
    <defs>
     <path d="M 0 1.5 
C 0.397805 1.5 0.77937 1.341951 1.06066 1.06066 
C 1.341951 0.77937 1.5 0.397805 1.5 0 
C 1.5 -0.397805 1.341951 -0.77937 1.06066 -1.06066 
C 0.77937 -1.341951 0.397805 -1.5 0 -1.5 
C -0.397805 -1.5 -0.77937 -1.341951 -1.06066 -1.06066 
C -1.341951 -0.77937 -1.5 -0.397805 -1.5 0 
C -1.5 0.397805 -1.341951 0.77937 -1.06066 1.06066 
C -0.77937 1.341951 -0.397805 1.5 0 1.5 
z
" id="m097ec79c51" style="stroke:#3389bd;stroke-width:0.5;"/>
    </defs>
    <g clip-path="url(#pb30c170b94)">
     <use style="fill:#3288bc;fill-opacity:0.533333;stroke:#3389bd;stroke-width:0.5;" x="40.2475" xlink:href="#m097ec79c51" y="102.04491"/>
     <use style="fill:#3288bc;fill-opacity:0.533333;stroke:#3389bd;stroke-width:0.5;" x="76.106048" xlink:href="#m097ec79c51" y="103.807362"/>
     <use style="fill:#3288bc;fill-opacity:0.533333;stroke:#3389bd;stroke-width:0.5;" x="111.964596" xlink:href="#m097ec79c51" y="105.662635"/>
     <use style="fill:#3288bc;fill-opacity:0.533333;stroke:#3389bd;stroke-width:0.5;" x="147.823144" xlink:href="#m097ec79c51" y="107.617546"/>
     <use style="fill:#3288bc;fill-opacity:0.533333;stroke:#3389bd;stroke-width:0.5;" x="183.681692" xlink:href="#m097ec79c51" y="109.675287"/>
     <use style="fill:#3288bc;fill-opacity:0.533333;stroke:#3389bd;stroke-width:0.5;" x="219.54024" xlink:href="#m097ec79c51" y="111.830403"/>
    </g>
   </g>
   <g id="line2d_15">
    <path clip-path="url(#pb30c170b94)" d="M 40.2475 103.939565 
L 76.106048 105.590323 
L 111.964596 107.318956 
L 147.823144 109.129823 
L 183.681692 111.023937 
L 219.54024 112.994827 
" style="fill:none;stroke:#50a9af;stroke-dasharray:1.85,0.8;stroke-dashoffset:0;stroke-linecap:round;stroke-width:0.5;"/>
    <defs>
     <path d="M 0 1.5 
C 0.397805 1.5 0.77937 1.341951 1.06066 1.06066 
C 1.341951 0.77937 1.5 0.397805 1.5 0 
C 1.5 -0.397805 1.341951 -0.77937 1.06066 -1.06066 
C 0.77937 -1.341951 0.397805 -1.5 0 -1.5 
C -0.397805 -1.5 -0.77937 -1.341951 -1.06066 -1.06066 
C -1.341951 -0.77937 -1.5 -0.397805 -1.5 0 
C -1.5 0.397805 -1.341951 0.77937 -1.06066 1.06066 
C -0.77937 1.341951 -0.397805 1.5 0 1.5 
z
" id="mfb6eb05407" style="stroke:#50a9af;stroke-width:0.5;"/>
    </defs>
    <g clip-path="url(#pb30c170b94)">
     <use style="fill:#4fa8ae;fill-opacity:0.533333;stroke:#50a9af;stroke-width:0.5;" x="40.2475" xlink:href="#mfb6eb05407" y="103.939565"/>
     <use style="fill:#4fa8ae;fill-opacity:0.533333;stroke:#50a9af;stroke-width:0.5;" x="76.106048" xlink:href="#mfb6eb05407" y="105.590323"/>
     <use style="fill:#4fa8ae;fill-opacity:0.533333;stroke:#50a9af;stroke-width:0.5;" x="111.964596" xlink:href="#mfb6eb05407" y="107.318956"/>
     <use style="fill:#4fa8ae;fill-opacity:0.533333;stroke:#50a9af;stroke-width:0.5;" x="147.823144" xlink:href="#mfb6eb05407" y="109.129823"/>
     <use style="fill:#4fa8ae;fill-opacity:0.533333;stroke:#50a9af;stroke-width:0.5;" x="183.681692" xlink:href="#mfb6eb05407" y="111.023937"/>
     <use style="fill:#4fa8ae;fill-opacity:0.533333;stroke:#50a9af;stroke-width:0.5;" x="219.54024" xlink:href="#mfb6eb05407" y="112.994827"/>
    </g>
   </g>
   <g id="line2d_16">
    <path clip-path="url(#pb30c170b94)" d="M 40.2475 48.765834 
L 76.106048 54.116622 
L 111.964596 59.910181 
L 147.823144 66.186973 
L 183.681692 72.968115 
L 219.54024 80.225777 
" style="fill:none;stroke:#6bc4a5;stroke-dasharray:1.85,0.8;stroke-dashoffset:0;stroke-linecap:round;stroke-width:0.5;"/>
    <defs>
     <path d="M 0 1.5 
C 0.397805 1.5 0.77937 1.341951 1.06066 1.06066 
C 1.341951 0.77937 1.5 0.397805 1.5 0 
C 1.5 -0.397805 1.341951 -0.77937 1.06066 -1.06066 
C 0.77937 -1.341951 0.397805 -1.5 0 -1.5 
C -0.397805 -1.5 -0.77937 -1.341951 -1.06066 -1.06066 
C -1.341951 -0.77937 -1.5 -0.397805 -1.5 0 
C -1.5 0.397805 -1.341951 0.77937 -1.06066 1.06066 
C -0.77937 1.341951 -0.397805 1.5 0 1.5 
z
" id="m99b7852ab7" style="stroke:#6bc4a5;stroke-width:0.5;"/>
    </defs>
    <g clip-path="url(#pb30c170b94)">
     <use style="fill:#6ac3a4;fill-opacity:0.533333;stroke:#6bc4a5;stroke-width:0.5;" x="40.2475" xlink:href="#m99b7852ab7" y="48.765834"/>
     <use style="fill:#6ac3a4;fill-opacity:0.533333;stroke:#6bc4a5;stroke-width:0.5;" x="76.106048" xlink:href="#m99b7852ab7" y="54.116622"/>
     <use style="fill:#6ac3a4;fill-opacity:0.533333;stroke:#6bc4a5;stroke-width:0.5;" x="111.964596" xlink:href="#m99b7852ab7" y="59.910181"/>
     <use style="fill:#6ac3a4;fill-opacity:0.533333;stroke:#6bc4a5;stroke-width:0.5;" x="147.823144" xlink:href="#m99b7852ab7" y="66.186973"/>
     <use style="fill:#6ac3a4;fill-opacity:0.533333;stroke:#6bc4a5;stroke-width:0.5;" x="183.681692" xlink:href="#m99b7852ab7" y="72.968115"/>
     <use style="fill:#6ac3a4;fill-opacity:0.533333;stroke:#6bc4a5;stroke-width:0.5;" x="219.54024" xlink:href="#m99b7852ab7" y="80.225777"/>
    </g>
   </g>
   <g id="line2d_17">
    <path clip-path="url(#pb30c170b94)" d="M 40.2475 3.524375 
L 76.106048 12.098994 
L 111.964596 21.367754 
L 147.823144 31.40532 
L 183.681692 42.23911 
L 219.54024 53.800562 
" style="fill:none;stroke:#91d3a4;stroke-dasharray:1.85,0.8;stroke-dashoffset:0;stroke-linecap:round;stroke-width:0.5;"/>
    <defs>
     <path d="M 0 1.5 
C 0.397805 1.5 0.77937 1.341951 1.06066 1.06066 
C 1.341951 0.77937 1.5 0.397805 1.5 0 
C 1.5 -0.397805 1.341951 -0.77937 1.06066 -1.06066 
C 0.77937 -1.341951 0.397805 -1.5 0 -1.5 
C -0.397805 -1.5 -0.77937 -1.341951 -1.06066 -1.06066 
C -1.341951 -0.77937 -1.5 -0.397805 -1.5 0 
C -1.5 0.397805 -1.341951 0.77937 -1.06066 1.06066 
C -0.77937 1.341951 -0.397805 1.5 0 1.5 
z
" id="m552103aa88" style="stroke:#91d3a4;stroke-width:0.5;"/>
    </defs>
    <g clip-path="url(#pb30c170b94)">
     <use style="fill:#90d2a3;fill-opacity:0.533333;stroke:#91d3a4;stroke-width:0.5;" x="40.2475" xlink:href="#m552103aa88" y="3.524375"/>
     <use style="fill:#90d2a3;fill-opacity:0.533333;stroke:#91d3a4;stroke-width:0.5;" x="76.106048" xlink:href="#m552103aa88" y="12.098994"/>
     <use style="fill:#90d2a3;fill-opacity:0.533333;stroke:#91d3a4;stroke-width:0.5;" x="111.964596" xlink:href="#m552103aa88" y="21.367754"/>
     <use style="fill:#90d2a3;fill-opacity:0.533333;stroke:#91d3a4;stroke-width:0.5;" x="147.823144" xlink:href="#m552103aa88" y="31.40532"/>
     <use style="fill:#90d2a3;fill-opacity:0.533333;stroke:#91d3a4;stroke-width:0.5;" x="183.681692" xlink:href="#m552103aa88" y="42.23911"/>
     <use style="fill:#90d2a3;fill-opacity:0.533333;stroke:#91d3a4;stroke-width:0.5;" x="219.54024" xlink:href="#m552103aa88" y="53.800562"/>
    </g>
   </g>
   <g id="patch_3">
    <path d="M 30.744984 125.018985 
L 30.744984 0.72 
" style="fill:none;stroke:#000000;stroke-linecap:square;stroke-linejoin:miter;stroke-width:0.35;"/>
   </g>
   <g id="patch_4">
    <path d="M 239.80032 125.018985 
L 239.80032 0.72 
" style="fill:none;stroke:#000000;stroke-linecap:square;stroke-linejoin:miter;stroke-width:0.35;"/>
   </g>
   <g id="patch_5">
    <path d="M 30.744984 125.018985 
L 239.80032 125.018985 
" style="fill:none;stroke:#000000;stroke-linecap:square;stroke-linejoin:miter;stroke-width:0.35;"/>
   </g>
   <g id="patch_6">
    <path d="M 30.744984 0.72 
L 239.80032 0.72 
" style="fill:none;stroke:#000000;stroke-linecap:square;stroke-linejoin:miter;stroke-width:0.35;"/>
   </g>
   <g id="text_14">
    <!-- $N = 12$ -->
    <g transform="translate(210.379941 8.740781)scale(0.08 -0.08)">
     <defs>
      <path d="M 4736 3682 
C 4806 3956 4909 4147 5395 4166 
C 5414 4166 5491 4172 5491 4281 
C 5491 4352 5434 4352 5408 4352 
C 5280 4352 4954 4339 4826 4339 
L 4518 4339 
C 4429 4339 4314 4352 4224 4352 
C 4186 4352 4109 4352 4109 4230 
C 4109 4166 4160 4166 4205 4166 
C 4589 4153 4614 4007 4614 3892 
C 4614 3835 4608 3816 4589 3726 
L 3866 854 
L 2496 4243 
C 2451 4345 2445 4352 2304 4352 
L 1523 4352 
C 1395 4352 1338 4352 1338 4230 
C 1338 4166 1382 4166 1504 4166 
C 1536 4166 1914 4166 1914 4109 
C 1914 4096 1901 4045 1894 4026 
L 1043 650 
C 966 338 813 204 390 185 
C 358 185 294 179 294 64 
C 294 0 358 0 378 0 
C 506 0 832 12 960 12 
L 1267 12 
C 1357 12 1466 0 1555 0 
C 1600 0 1670 0 1670 121 
C 1670 179 1606 185 1581 185 
C 1370 191 1165 230 1165 459 
C 1165 510 1178 567 1190 618 
L 2054 4026 
C 2093 3962 2093 3949 2118 3892 
L 3642 115 
C 3674 38 3686 0 3744 0 
C 3808 0 3814 19 3840 128 
L 4736 3682 
z
" id="CMMI12-4e" transform="scale(0.015625)"/>
      <path d="M 4115 2048 
C 4211 2048 4307 2048 4307 2156 
C 4307 2272 4198 2272 4090 2272 
L 512 2272 
C 403 2272 294 2272 294 2156 
C 294 2048 390 2048 486 2048 
L 4115 2048 
z
M 4090 927 
C 4198 927 4307 927 4307 1043 
C 4307 1152 4211 1152 4115 1152 
L 486 1152 
C 390 1152 294 1152 294 1043 
C 294 927 403 927 512 927 
L 4090 927 
z
" id="CMR17-3d" transform="scale(0.015625)"/>
     </defs>
     <use transform="scale(0.996264)" xlink:href="#CMMI12-4e"/>
     <use transform="translate(116.195781 0)scale(0.996264)" xlink:href="#CMR17-3d"/>
     <use transform="translate(215.584578 0)scale(0.996264)" xlink:href="#CMR17-31"/>
     <use transform="translate(261.275056 0)scale(0.996264)" xlink:href="#CMR17-32"/>
    </g>
   </g>
   <g id="text_15">
    <!-- $V^\prime = 0$ -->
    <g transform="translate(208.505508 17.44171)scale(0.08 -0.08)">
     <defs>
      <path d="M 3962 3644 
C 4179 3987 4378 4140 4704 4166 
C 4768 4172 4819 4172 4819 4287 
C 4819 4313 4806 4352 4749 4352 
C 4634 4352 4358 4339 4243 4339 
C 4058 4339 3866 4352 3686 4352 
C 3635 4352 3571 4352 3571 4230 
C 3571 4172 3629 4166 3654 4166 
C 3891 4146 3917 4032 3917 3956 
C 3917 3860 3827 3714 3821 3708 
L 1811 540 
L 1363 3968 
C 1363 4153 1696 4166 1766 4166 
C 1862 4166 1920 4166 1920 4287 
C 1920 4352 1850 4352 1830 4352 
C 1722 4352 1594 4339 1485 4339 
L 1126 4339 
C 659 4339 467 4352 461 4352 
C 422 4352 346 4352 346 4236 
C 346 4166 390 4166 493 4166 
C 819 4166 838 4108 858 3949 
L 1370 25 
C 1389 -109 1389 -128 1478 -128 
C 1555 -128 1587 -109 1651 -7 
L 3962 3644 
z
" id="CMMI12-56" transform="scale(0.015625)"/>
      <path d="M 1619 3048 
C 1651 3125 1677 3182 1677 3246 
C 1677 3430 1510 3584 1312 3584 
C 1133 3584 1018 3462 973 3297 
L 211 517 
C 211 505 186 435 186 428 
C 186 358 352 313 403 313 
C 442 313 448 332 486 415 
L 1619 3048 
z
" id="CMSY10-30" transform="scale(0.015625)"/>
     </defs>
     <use transform="scale(0.996264)" xlink:href="#CMMI12-56"/>
     <use transform="translate(78.547321 36.153639)scale(0.697382)" xlink:href="#CMSY10-30"/>
     <use transform="translate(125.897422 0)scale(0.996264)" xlink:href="#CMR17-3d"/>
     <use transform="translate(225.286219 0)scale(0.996264)" xlink:href="#CMR17-30"/>
    </g>
   </g>
   <g id="legend_1">
    <g id="LineCollection_7">
     <path d="M 35.944984 78.309951 
L 35.944984 70.309951 
" style="fill:none;stroke:#5e4fa2;stroke-width:0.5;"/>
    </g>
    <g id="line2d_18">
     <path d="M 33.944984 74.309951 
L 37.944984 74.309951 
" style="fill:none;stroke:#5e4fa2;stroke-dasharray:1.85,0.8;stroke-dashoffset:0;stroke-linecap:round;stroke-width:0.5;"/>
    </g>
    <g id="line2d_19">
     <g>
      <use style="fill:#5d4ea1;fill-opacity:0.533333;stroke:#5e4fa2;stroke-width:0.5;" x="35.944984" xlink:href="#m0f5d6945b6" y="74.309951"/>
     </g>
    </g>
    <g id="text_16">
     <!-- $V = -0.150J$ -->
     <g transform="translate(41.944984 77.109951)scale(0.08 -0.08)">
      <defs>
       <path d="M 4218 1472 
C 4326 1472 4442 1472 4442 1600 
C 4442 1728 4326 1728 4218 1728 
L 755 1728 
C 646 1728 531 1728 531 1600 
C 531 1472 646 1472 755 1472 
L 4218 1472 
z
" id="CMSY10-0" transform="scale(0.015625)"/>
       <path d="M 3418 3911 
C 3469 4102 3482 4166 3795 4166 
C 3898 4166 3962 4166 3962 4281 
C 3962 4352 3904 4352 3878 4352 
C 3770 4352 3648 4339 3533 4339 
L 3181 4339 
C 2912 4339 2630 4352 2362 4352 
C 2304 4352 2227 4352 2227 4236 
C 2227 4172 2278 4172 2278 4166 
L 2438 4166 
C 2950 4166 2950 4115 2950 4019 
C 2950 4013 2950 3968 2925 3866 
L 2189 953 
C 2022 304 1594 0 1286 0 
C 1069 0 762 99 685 428 
C 710 422 742 415 768 415 
C 979 415 1146 601 1146 787 
C 1146 889 1082 1024 890 1024 
C 774 1024 506 959 506 543 
C 506 149 838 -128 1299 -128 
C 1882 -128 2509 304 2662 908 
L 3418 3911 
z
" id="CMMI12-4a" transform="scale(0.015625)"/>
      </defs>
      <use transform="scale(0.996264)" xlink:href="#CMMI12-56"/>
      <use transform="translate(106.221329 0)scale(0.996264)" xlink:href="#CMR17-3d"/>
      <use transform="translate(205.610127 0)scale(0.996264)" xlink:href="#CMSY10-0"/>
      <use transform="translate(283.097594 0)scale(0.996264)" xlink:href="#CMR17-30"/>
      <use transform="translate(328.788071 0)scale(0.996264)" xlink:href="#CMMI12-3a"/>
      <use transform="translate(355.885248 0)scale(0.996264)" xlink:href="#CMR17-31"/>
      <use transform="translate(401.575726 0)scale(0.996264)" xlink:href="#CMR17-35"/>
      <use transform="translate(447.266203 0)scale(0.996264)" xlink:href="#CMR17-30"/>
      <use transform="translate(492.95668 0)scale(0.996264)" xlink:href="#CMMI12-4a"/>
     </g>
    </g>
    <g id="LineCollection_8">
     <path d="M 35.944984 87.459697 
L 35.944984 79.459697 
" style="fill:none;stroke:#486cb0;stroke-width:0.5;"/>
    </g>
    <g id="line2d_20">
     <path d="M 33.944984 83.459697 
L 37.944984 83.459697 
" style="fill:none;stroke:#486cb0;stroke-dasharray:1.85,0.8;stroke-dashoffset:0;stroke-linecap:round;stroke-width:0.5;"/>
    </g>
    <g id="line2d_21">
     <g>
      <use style="fill:#476baf;fill-opacity:0.533333;stroke:#486cb0;stroke-width:0.5;" x="35.944984" xlink:href="#mcace4c68b1" y="83.459697"/>
     </g>
    </g>
    <g id="text_17">
     <!-- $V = +0.150J$ -->
     <g transform="translate(41.944984 86.259697)scale(0.08 -0.08)">
      <defs>
       <path d="M 2413 1472 
L 4109 1472 
C 4198 1472 4307 1472 4307 1580 
C 4307 1696 4205 1696 4109 1696 
L 2413 1696 
L 2413 3385 
C 2413 3475 2413 3584 2304 3584 
C 2189 3584 2189 3481 2189 3385 
L 2189 1696 
L 493 1696 
C 403 1696 294 1696 294 1587 
C 294 1472 397 1472 493 1472 
L 2189 1472 
L 2189 -194 
C 2189 -282 2189 -391 2298 -391 
C 2413 -391 2413 -289 2413 -194 
L 2413 1472 
z
" id="CMR17-2b" transform="scale(0.015625)"/>
      </defs>
      <use transform="scale(0.996264)" xlink:href="#CMMI12-56"/>
      <use transform="translate(106.221329 0)scale(0.996264)" xlink:href="#CMR17-3d"/>
      <use transform="translate(205.610127 0)scale(0.996264)" xlink:href="#CMR17-2b"/>
      <use transform="translate(277.324915 0)scale(0.996264)" xlink:href="#CMR17-30"/>
      <use transform="translate(323.015392 0)scale(0.996264)" xlink:href="#CMMI12-3a"/>
      <use transform="translate(350.112569 0)scale(0.996264)" xlink:href="#CMR17-31"/>
      <use transform="translate(395.803046 0)scale(0.996264)" xlink:href="#CMR17-35"/>
      <use transform="translate(441.493523 0)scale(0.996264)" xlink:href="#CMR17-30"/>
      <use transform="translate(487.184001 0)scale(0.996264)" xlink:href="#CMMI12-4a"/>
     </g>
    </g>
    <g id="LineCollection_9">
     <path d="M 35.944984 96.609442 
L 35.944984 88.609442 
" style="fill:none;stroke:#3389bd;stroke-width:0.5;"/>
    </g>
    <g id="line2d_22">
     <path d="M 33.944984 92.609442 
L 37.944984 92.609442 
" style="fill:none;stroke:#3389bd;stroke-dasharray:1.85,0.8;stroke-dashoffset:0;stroke-linecap:round;stroke-width:0.5;"/>
    </g>
    <g id="line2d_23">
     <g>
      <use style="fill:#3288bc;fill-opacity:0.533333;stroke:#3389bd;stroke-width:0.5;" x="35.944984" xlink:href="#m097ec79c51" y="92.609442"/>
     </g>
    </g>
    <g id="text_18">
     <!-- $V = -0.250J$ -->
     <g transform="translate(41.944984 95.409442)scale(0.08 -0.08)">
      <use transform="scale(0.996264)" xlink:href="#CMMI12-56"/>
      <use transform="translate(106.221329 0)scale(0.996264)" xlink:href="#CMR17-3d"/>
      <use transform="translate(205.610127 0)scale(0.996264)" xlink:href="#CMSY10-0"/>
      <use transform="translate(283.097594 0)scale(0.996264)" xlink:href="#CMR17-30"/>
      <use transform="translate(328.788071 0)scale(0.996264)" xlink:href="#CMMI12-3a"/>
      <use transform="translate(355.885248 0)scale(0.996264)" xlink:href="#CMR17-32"/>
      <use transform="translate(401.575726 0)scale(0.996264)" xlink:href="#CMR17-35"/>
      <use transform="translate(447.266203 0)scale(0.996264)" xlink:href="#CMR17-30"/>
      <use transform="translate(492.95668 0)scale(0.996264)" xlink:href="#CMMI12-4a"/>
     </g>
    </g>
    <g id="LineCollection_10">
     <path d="M 98.950905 78.309951 
L 98.950905 70.309951 
" style="fill:none;stroke:#50a9af;stroke-width:0.5;"/>
    </g>
    <g id="line2d_24">
     <path d="M 96.950905 74.309951 
L 100.950905 74.309951 
" style="fill:none;stroke:#50a9af;stroke-dasharray:1.85,0.8;stroke-dashoffset:0;stroke-linecap:round;stroke-width:0.5;"/>
    </g>
    <g id="line2d_25">
     <g>
      <use style="fill:#4fa8ae;fill-opacity:0.533333;stroke:#50a9af;stroke-width:0.5;" x="98.950905" xlink:href="#mfb6eb05407" y="74.309951"/>
     </g>
    </g>
    <g id="text_19">
     <!-- $V = +0.250J$ -->
     <g transform="translate(104.950905 77.109951)scale(0.08 -0.08)">
      <use transform="scale(0.996264)" xlink:href="#CMMI12-56"/>
      <use transform="translate(106.221329 0)scale(0.996264)" xlink:href="#CMR17-3d"/>
      <use transform="translate(205.610127 0)scale(0.996264)" xlink:href="#CMR17-2b"/>
      <use transform="translate(277.324915 0)scale(0.996264)" xlink:href="#CMR17-30"/>
      <use transform="translate(323.015392 0)scale(0.996264)" xlink:href="#CMMI12-3a"/>
      <use transform="translate(350.112569 0)scale(0.996264)" xlink:href="#CMR17-32"/>
      <use transform="translate(395.803046 0)scale(0.996264)" xlink:href="#CMR17-35"/>
      <use transform="translate(441.493523 0)scale(0.996264)" xlink:href="#CMR17-30"/>
      <use transform="translate(487.184001 0)scale(0.996264)" xlink:href="#CMMI12-4a"/>
     </g>
    </g>
    <g id="LineCollection_11">
     <path d="M 98.950905 87.459697 
L 98.950905 79.459697 
" style="fill:none;stroke:#6bc4a5;stroke-width:0.5;"/>
    </g>
    <g id="line2d_26">
     <path d="M 96.950905 83.459697 
L 100.950905 83.459697 
" style="fill:none;stroke:#6bc4a5;stroke-dasharray:1.85,0.8;stroke-dashoffset:0;stroke-linecap:round;stroke-width:0.5;"/>
    </g>
    <g id="line2d_27">
     <g>
      <use style="fill:#6ac3a4;fill-opacity:0.533333;stroke:#6bc4a5;stroke-width:0.5;" x="98.950905" xlink:href="#m99b7852ab7" y="83.459697"/>
     </g>
    </g>
    <g id="text_20">
     <!-- $V = -0.500J$ -->
     <g transform="translate(104.950905 86.259697)scale(0.08 -0.08)">
      <use transform="scale(0.996264)" xlink:href="#CMMI12-56"/>
      <use transform="translate(106.221329 0)scale(0.996264)" xlink:href="#CMR17-3d"/>
      <use transform="translate(205.610127 0)scale(0.996264)" xlink:href="#CMSY10-0"/>
      <use transform="translate(283.097594 0)scale(0.996264)" xlink:href="#CMR17-30"/>
      <use transform="translate(328.788071 0)scale(0.996264)" xlink:href="#CMMI12-3a"/>
      <use transform="translate(355.885248 0)scale(0.996264)" xlink:href="#CMR17-35"/>
      <use transform="translate(401.575726 0)scale(0.996264)" xlink:href="#CMR17-30"/>
      <use transform="translate(447.266203 0)scale(0.996264)" xlink:href="#CMR17-30"/>
      <use transform="translate(492.95668 0)scale(0.996264)" xlink:href="#CMMI12-4a"/>
     </g>
    </g>
    <g id="LineCollection_12">
     <path d="M 98.950905 96.609442 
L 98.950905 88.609442 
" style="fill:none;stroke:#91d3a4;stroke-width:0.5;"/>
    </g>
    <g id="line2d_28">
     <path d="M 96.950905 92.609442 
L 100.950905 92.609442 
" style="fill:none;stroke:#91d3a4;stroke-dasharray:1.85,0.8;stroke-dashoffset:0;stroke-linecap:round;stroke-width:0.5;"/>
    </g>
    <g id="line2d_29">
     <g>
      <use style="fill:#90d2a3;fill-opacity:0.533333;stroke:#91d3a4;stroke-width:0.5;" x="98.950905" xlink:href="#m552103aa88" y="92.609442"/>
     </g>
    </g>
    <g id="text_21">
     <!-- $V = +0.765J$ -->
     <g transform="translate(104.950905 95.409442)scale(0.08 -0.08)">
      <defs>
       <path d="M 2886 3955 
L 2886 4096 
L 1382 4096 
C 634 4096 621 4166 595 4288 
L 480 4288 
L 294 3104 
L 410 3104 
C 429 3226 474 3552 550 3673 
C 589 3724 1062 3724 1171 3724 
L 2579 3724 
L 1869 2670 
C 1395 1961 1069 1003 1069 166 
C 1069 89 1069 -128 1299 -128 
C 1530 -128 1530 89 1530 172 
L 1530 466 
C 1530 1514 1709 2204 2003 2644 
L 2886 3955 
z
" id="CMR17-37" transform="scale(0.015625)"/>
      </defs>
      <use transform="scale(0.996264)" xlink:href="#CMMI12-56"/>
      <use transform="translate(106.221329 0)scale(0.996264)" xlink:href="#CMR17-3d"/>
      <use transform="translate(205.610127 0)scale(0.996264)" xlink:href="#CMR17-2b"/>
      <use transform="translate(277.324915 0)scale(0.996264)" xlink:href="#CMR17-30"/>
      <use transform="translate(323.015392 0)scale(0.996264)" xlink:href="#CMMI12-3a"/>
      <use transform="translate(350.112569 0)scale(0.996264)" xlink:href="#CMR17-37"/>
      <use transform="translate(395.803046 0)scale(0.996264)" xlink:href="#CMR17-36"/>
      <use transform="translate(441.493523 0)scale(0.996264)" xlink:href="#CMR17-35"/>
      <use transform="translate(487.184001 0)scale(0.996264)" xlink:href="#CMMI12-4a"/>
     </g>
    </g>
   </g>
  </g>
 </g>
 <defs>
  <clipPath id="pb30c170b94">
   <rect height="124.298985" width="209.055336" x="30.744984" y="0.72"/>
  </clipPath>
 </defs>
</svg>
