<?xml version="1.0" encoding="utf-8" standalone="no"?>
<!DOCTYPE svg PUBLIC "-//W3C//DTD SVG 1.1//EN"
  "http://www.w3.org/Graphics/SVG/1.1/DTD/svg11.dtd">
<!-- Created with matplotlib (https://matplotlib.org/) -->
<svg height="145.743291pt" version="1.1" viewBox="0 0 238.11839 145.743291" width="238.11839pt" xmlns="http://www.w3.org/2000/svg" xmlns:xlink="http://www.w3.org/1999/xlink">
 <defs>
  <style type="text/css">
*{stroke-linecap:butt;stroke-linejoin:round;}
  </style>
 </defs>
 <g id="figure_1">
  <g id="patch_1">
   <path d="M 0 145.743291 
L 238.11839 145.743291 
L 238.11839 0 
L 0 0 
z
" style="fill:none;"/>
  </g>
  <g id="axes_1">
   <g id="patch_2">
    <path d="M 38.45375 120.230791 
L 234.51839 120.230791 
L 234.51839 3.6 
L 38.45375 3.6 
z
" style="fill:none;"/>
   </g>
   <g id="matplotlib.axis_1">
    <g id="xtick_1">
     <g id="line2d_1">
      <defs>
       <path d="M 0 0 
L 0 2 
" id="m37b7cbee1f" style="stroke:#000000;stroke-width:0.35;"/>
      </defs>
      <g>
       <use style="stroke:#000000;stroke-width:0.35;" x="38.45375" xlink:href="#m37b7cbee1f" y="120.230791"/>
      </g>
     </g>
     <g id="text_1">
      <!-- 0 -->
      <defs>
       <path d="M 45.203125 34.703125 
Q 45.203125 40.40625 44.546875 45.84375 
Q 43.90625 51.296875 42 55.59375 
Q 40.09375 59.90625 36.640625 62.5 
Q 33.203125 65.09375 27.59375 65.09375 
Q 22.296875 65.09375 18.9375 62.4375 
Q 15.59375 59.796875 13.6875 55.390625 
Q 11.796875 51 11.046875 45.390625 
Q 10.296875 39.796875 10.296875 34 
Q 10.296875 27.203125 11.140625 21.640625 
Q 12 16.09375 14 12.1875 
Q 16 8.296875 19.34375 6.140625 
Q 22.703125 4 27.796875 4 
Q 33.5 4 36.953125 6.796875 
Q 40.40625 9.59375 42.203125 14 
Q 44 18.40625 44.59375 23.90625 
Q 45.203125 29.40625 45.203125 34.703125 
z
M 27.796875 70.5 
Q 33 70.5 36.796875 68.953125 
Q 40.59375 67.40625 43.25 64.703125 
Q 45.90625 62 47.546875 58.390625 
Q 49.203125 54.796875 50.09375 50.75 
Q 51 46.703125 51.296875 42.390625 
Q 51.59375 38.09375 51.59375 34 
Q 51.59375 27 50.59375 20.59375 
Q 49.59375 14.203125 46.9375 9.296875 
Q 44.296875 4.40625 39.6875 1.5 
Q 35.09375 -1.40625 27.796875 -1.40625 
Q 20.5 -1.40625 15.84375 1.5 
Q 11.203125 4.40625 8.546875 9.34375 
Q 5.90625 14.296875 4.90625 20.84375 
Q 3.90625 27.40625 3.90625 34.703125 
Q 3.90625 41.40625 4.796875 47.796875 
Q 5.703125 54.203125 8.25 59.25 
Q 10.796875 64.296875 15.5 67.390625 
Q 20.203125 70.5 27.796875 70.5 
z
" id="Helvetica-Light-48"/>
      </defs>
      <g transform="translate(36.23 130.990791)scale(0.08 -0.08)">
       <use xlink:href="#Helvetica-Light-48"/>
      </g>
     </g>
    </g>
    <g id="xtick_2">
     <g id="line2d_2">
      <g>
       <use style="stroke:#000000;stroke-width:0.35;" x="73.340697" xlink:href="#m37b7cbee1f" y="120.230791"/>
      </g>
     </g>
     <g id="text_2">
      <!-- 5 -->
      <defs>
       <path d="M 9.90625 18.296875 
Q 10.90625 11.09375 15.65625 7.546875 
Q 20.40625 4 27.296875 4 
Q 31.203125 4 34.34375 5.390625 
Q 37.5 6.796875 39.703125 9.25 
Q 41.90625 11.703125 43.046875 14.953125 
Q 44.203125 18.203125 44.203125 22 
Q 44.203125 25.90625 42.953125 29.203125 
Q 41.703125 32.5 39.453125 34.890625 
Q 37.203125 37.296875 33.953125 38.59375 
Q 30.703125 39.90625 26.703125 39.90625 
Q 21.90625 39.90625 18.09375 38.15625 
Q 14.296875 36.40625 11.40625 32.59375 
L 6.09375 33.296875 
L 11.796875 69.796875 
L 46.796875 69.796875 
L 46.796875 64.40625 
L 17.203125 64.40625 
L 12.796875 40.703125 
Q 14.90625 42 16.65625 42.890625 
Q 18.40625 43.796875 20.203125 44.34375 
Q 22 44.90625 23.953125 45.09375 
Q 25.90625 45.296875 28.296875 45.296875 
Q 33.09375 45.296875 37.1875 43.6875 
Q 41.296875 42.09375 44.296875 39.09375 
Q 47.296875 36.09375 48.9375 31.75 
Q 50.59375 27.40625 50.59375 22 
Q 50.59375 16.40625 48.75 12.046875 
Q 46.90625 7.703125 43.796875 4.703125 
Q 40.703125 1.703125 36.640625 0.140625 
Q 32.59375 -1.40625 28.296875 -1.40625 
Q 23.296875 -1.40625 18.9375 -0.40625 
Q 14.59375 0.59375 11.296875 2.9375 
Q 8 5.296875 5.953125 9.046875 
Q 3.90625 12.796875 3.5 18.296875 
z
" id="Helvetica-Light-53"/>
      </defs>
      <g transform="translate(71.116947 130.990791)scale(0.08 -0.08)">
       <use xlink:href="#Helvetica-Light-53"/>
      </g>
     </g>
    </g>
    <g id="xtick_3">
     <g id="line2d_3">
      <g>
       <use style="stroke:#000000;stroke-width:0.35;" x="108.227643" xlink:href="#m37b7cbee1f" y="120.230791"/>
      </g>
     </g>
     <g id="text_3">
      <!-- 10 -->
      <defs>
       <path d="M 30.203125 52.40625 
L 12 52.40625 
L 12 56.59375 
Q 16 56.90625 19.25 57.40625 
Q 22.5 57.90625 24.953125 59.296875 
Q 27.40625 60.703125 29.046875 63.34375 
Q 30.703125 66 31.5 70.5 
L 36.59375 70.5 
L 36.59375 0 
L 30.203125 0 
z
" id="Helvetica-Light-49"/>
      </defs>
      <g transform="translate(103.780143 130.990791)scale(0.08 -0.08)">
       <use xlink:href="#Helvetica-Light-49"/>
       <use x="55.599991" xlink:href="#Helvetica-Light-48"/>
      </g>
     </g>
    </g>
    <g id="xtick_4">
     <g id="line2d_4">
      <g>
       <use style="stroke:#000000;stroke-width:0.35;" x="143.11459" xlink:href="#m37b7cbee1f" y="120.230791"/>
      </g>
     </g>
     <g id="text_4">
      <!-- 15 -->
      <g transform="translate(138.66709 130.990791)scale(0.08 -0.08)">
       <use xlink:href="#Helvetica-Light-49"/>
       <use x="55.599991" xlink:href="#Helvetica-Light-53"/>
      </g>
     </g>
    </g>
    <g id="xtick_5">
     <g id="line2d_5">
      <g>
       <use style="stroke:#000000;stroke-width:0.35;" x="178.001536" xlink:href="#m37b7cbee1f" y="120.230791"/>
      </g>
     </g>
     <g id="text_5">
      <!-- 20 -->
      <defs>
       <path d="M 6.90625 47.40625 
Q 6.90625 52.59375 8.5 56.84375 
Q 10.09375 61.09375 13.09375 64.140625 
Q 16.09375 67.203125 20.34375 68.84375 
Q 24.59375 70.5 29.796875 70.5 
Q 35.09375 70.5 39.140625 68.953125 
Q 43.203125 67.40625 45.953125 64.796875 
Q 48.703125 62.203125 50.09375 58.59375 
Q 51.5 55 51.5 51 
Q 51.5 46.296875 49.953125 42.6875 
Q 48.40625 39.09375 45.84375 36.296875 
Q 43.296875 33.5 40.046875 31.296875 
Q 36.796875 29.09375 33.390625 27.140625 
Q 30 25.203125 26.703125 23.390625 
Q 23.40625 21.59375 20.796875 19.59375 
Q 19.09375 18.296875 17.5 16.84375 
Q 15.90625 15.40625 14.59375 13.703125 
Q 13.296875 12 12.5 9.953125 
Q 11.703125 7.90625 11.59375 5.40625 
L 50.90625 5.40625 
L 50.90625 0 
L 4.796875 0 
Q 4.90625 5.09375 5.90625 9.1875 
Q 6.90625 13.296875 10.296875 17.203125 
Q 14 21.40625 17.953125 24.40625 
Q 21.90625 27.40625 25.703125 29.75 
Q 29.5 32.09375 32.890625 34.046875 
Q 36.296875 36 38.890625 38.296875 
Q 41.5 40.59375 43 43.5 
Q 44.5 46.40625 44.5 50.59375 
Q 44.5 54 43.296875 56.703125 
Q 42.09375 59.40625 40 61.296875 
Q 37.90625 63.203125 35.09375 64.140625 
Q 32.296875 65.09375 29 65.09375 
Q 25.5 65.09375 22.640625 63.640625 
Q 19.796875 62.203125 17.75 59.796875 
Q 15.703125 57.40625 14.59375 54.203125 
Q 13.5 51 13.703125 47.40625 
z
" id="Helvetica-Light-50"/>
      </defs>
      <g transform="translate(173.554036 130.990791)scale(0.08 -0.08)">
       <use xlink:href="#Helvetica-Light-50"/>
       <use x="55.599991" xlink:href="#Helvetica-Light-48"/>
      </g>
     </g>
    </g>
    <g id="xtick_6">
     <g id="line2d_6">
      <g>
       <use style="stroke:#000000;stroke-width:0.35;" x="212.888483" xlink:href="#m37b7cbee1f" y="120.230791"/>
      </g>
     </g>
     <g id="text_6">
      <!-- 25 -->
      <g transform="translate(208.440983 130.990791)scale(0.08 -0.08)">
       <use xlink:href="#Helvetica-Light-50"/>
       <use x="55.599991" xlink:href="#Helvetica-Light-53"/>
      </g>
     </g>
    </g>
    <g id="text_7">
     <!-- Time   $t\cdot J$ -->
     <defs>
      <path d="M 1.59375 72 
L 54 72 
L 54 66.203125 
L 31.203125 66.203125 
L 31.203125 0 
L 24.40625 0 
L 24.40625 66.203125 
L 1.59375 66.203125 
z
" id="Helvetica-Light-84"/>
      <path d="M 8.09375 0 
L 8.09375 51.796875 
L 14.09375 51.796875 
L 14.09375 0 
z
M 7.796875 63.09375 
L 7.796875 72 
L 14.40625 72 
L 14.40625 63.09375 
z
" id="Helvetica-Light-105"/>
      <path d="M 12.40625 0 
L 6.40625 0 
L 6.40625 51.796875 
L 12.40625 51.796875 
L 12.40625 44 
L 12.59375 44 
Q 14.90625 48.5 19.203125 50.84375 
Q 23.5 53.203125 28.59375 53.203125 
Q 32.203125 53.203125 34.703125 52.390625 
Q 37.203125 51.59375 38.953125 50.25 
Q 40.703125 48.90625 41.84375 47.09375 
Q 43 45.296875 43.796875 43.203125 
Q 46.40625 48.296875 50.75 50.75 
Q 55.09375 53.203125 60.703125 53.203125 
Q 66 53.203125 69.140625 51.453125 
Q 72.296875 49.703125 74 46.84375 
Q 75.703125 44 76.25 40.296875 
Q 76.796875 36.59375 76.796875 32.703125 
L 76.796875 0 
L 70.796875 0 
L 70.796875 35.796875 
Q 70.796875 41.40625 68.4375 44.59375 
Q 66.09375 47.796875 59.703125 47.796875 
Q 56.40625 47.796875 53.34375 46.34375 
Q 50.296875 44.90625 48 41.90625 
Q 47 40.59375 46.34375 38.84375 
Q 45.703125 37.09375 45.296875 35.1875 
Q 44.90625 33.296875 44.75 31.390625 
Q 44.59375 29.5 44.59375 27.90625 
L 44.59375 0 
L 38.59375 0 
L 38.59375 35.796875 
Q 38.59375 41.40625 36.25 44.59375 
Q 33.90625 47.796875 27.5 47.796875 
Q 24.203125 47.796875 21.140625 46.34375 
Q 18.09375 44.90625 15.796875 41.90625 
Q 14.796875 40.59375 14.140625 38.84375 
Q 13.5 37.09375 13.09375 35.1875 
Q 12.703125 33.296875 12.546875 31.390625 
Q 12.40625 29.5 12.40625 27.90625 
z
" id="Helvetica-Light-109"/>
      <path d="M 44.703125 29.5 
Q 44.703125 33.296875 43.640625 36.640625 
Q 42.59375 40 40.546875 42.453125 
Q 38.5 44.90625 35.390625 46.34375 
Q 32.296875 47.796875 28.296875 47.796875 
Q 24.296875 47.796875 21.25 46.296875 
Q 18.203125 44.796875 16.046875 42.296875 
Q 13.90625 39.796875 12.59375 36.5 
Q 11.296875 33.203125 10.90625 29.5 
z
M 10.90625 24.5 
Q 10.90625 20.296875 12 16.546875 
Q 13.09375 12.796875 15.25 10.046875 
Q 17.40625 7.296875 20.703125 5.640625 
Q 24 4 28.296875 4 
Q 34.203125 4 38.390625 7.09375 
Q 42.59375 10.203125 44 15.90625 
L 50.703125 15.90625 
Q 49.59375 12.203125 47.796875 9.046875 
Q 46 5.90625 43.296875 3.546875 
Q 40.59375 1.203125 36.890625 -0.09375 
Q 33.203125 -1.40625 28.296875 -1.40625 
Q 22.09375 -1.40625 17.59375 0.6875 
Q 13.09375 2.796875 10.1875 6.4375 
Q 7.296875 10.09375 5.890625 15.046875 
Q 4.5 20 4.5 25.703125 
Q 4.5 31.40625 6.140625 36.40625 
Q 7.796875 41.40625 10.84375 45.15625 
Q 13.90625 48.90625 18.296875 51.046875 
Q 22.703125 53.203125 28.296875 53.203125 
Q 39 53.203125 45.09375 45.84375 
Q 51.203125 38.5 51.09375 24.5 
z
" id="Helvetica-Light-101"/>
      <path id="Helvetica-Light-32"/>
      <path d="M 42.28125 54.6875 
L 40.921875 47.703125 
L 23 47.703125 
L 17.1875 18.015625 
Q 16.890625 16.359375 16.75 15.234375 
Q 16.609375 14.109375 16.609375 13.484375 
Q 16.609375 10.359375 18.484375 8.9375 
Q 20.359375 7.515625 24.515625 7.515625 
L 33.59375 7.515625 
L 32.078125 0 
L 23.484375 0 
Q 15.484375 0 11.546875 3.125 
Q 7.625 6.25 7.625 12.59375 
Q 7.625 13.71875 7.765625 15.0625 
Q 7.90625 16.40625 8.203125 18.015625 
L 14.015625 47.703125 
L 6.390625 47.703125 
L 7.8125 54.6875 
L 15.28125 54.6875 
L 18.3125 70.21875 
L 27.296875 70.21875 
L 24.3125 54.6875 
z
" id="DejaVuSans-Oblique-116"/>
      <path d="M 10.6875 40.921875 
L 21 40.921875 
L 21 28.515625 
L 10.6875 28.515625 
z
" id="DejaVuSans-8901"/>
      <path d="M 16.703125 72.90625 
L 26.609375 72.90625 
L 13.375 5.078125 
Q 10.796875 -8.15625 4.65625 -14.078125 
Q -1.46875 -20.015625 -12.5 -20.015625 
L -16.40625 -20.015625 
L -14.796875 -11.71875 
L -11.71875 -11.71875 
Q -5.125 -11.71875 -1.703125 -7.953125 
Q 1.703125 -4.203125 3.515625 5.078125 
z
" id="DejaVuSans-Oblique-74"/>
     </defs>
     <g transform="translate(118.88607 140.463291)scale(0.08 -0.08)">
      <use transform="translate(0 0.09375)" xlink:href="#Helvetica-Light-84"/>
      <use transform="translate(55.599991 0.09375)" xlink:href="#Helvetica-Light-105"/>
      <use transform="translate(77.799988 0.09375)" xlink:href="#Helvetica-Light-109"/>
      <use transform="translate(161.099976 0.09375)" xlink:href="#Helvetica-Light-101"/>
      <use transform="translate(216.699966 0.09375)" xlink:href="#Helvetica-Light-32"/>
      <use transform="translate(244.499954 0.09375)" xlink:href="#Helvetica-Light-32"/>
      <use transform="translate(272.299942 0.09375)" xlink:href="#Helvetica-Light-32"/>
      <use transform="translate(300.09993 0.09375)" xlink:href="#DejaVuSans-Oblique-116"/>
      <use transform="translate(358.791336 0.09375)" xlink:href="#DejaVuSans-8901"/>
      <use transform="translate(410.060867 0.09375)" xlink:href="#DejaVuSans-Oblique-74"/>
     </g>
    </g>
   </g>
   <g id="matplotlib.axis_2">
    <g id="ytick_1">
     <g id="line2d_7">
      <defs>
       <path d="M 0 0 
L -2 0 
" id="m639395be58" style="stroke:#000000;stroke-width:0.35;"/>
      </defs>
      <g>
       <use style="stroke:#000000;stroke-width:0.35;" x="38.45375" xlink:href="#m639395be58" y="114.929392"/>
      </g>
     </g>
     <g id="text_8">
      <!-- 0.000 -->
      <defs>
       <path d="M 10.203125 0 
L 10.203125 8.796875 
L 17.5 8.796875 
L 17.5 0 
z
" id="Helvetica-Light-46"/>
      </defs>
      <g transform="translate(13.44 117.809392)scale(0.08 -0.08)">
       <use xlink:href="#Helvetica-Light-48"/>
       <use x="55.599991" xlink:href="#Helvetica-Light-46"/>
       <use x="83.399979" xlink:href="#Helvetica-Light-48"/>
       <use x="138.999969" xlink:href="#Helvetica-Light-48"/>
       <use x="194.59996" xlink:href="#Helvetica-Light-48"/>
      </g>
     </g>
    </g>
    <g id="ytick_2">
     <g id="line2d_8">
      <g>
       <use style="stroke:#000000;stroke-width:0.35;" x="38.45375" xlink:href="#m639395be58" y="94.417391"/>
      </g>
     </g>
     <g id="text_9">
      <!-- 0.001 -->
      <g transform="translate(13.44 97.297391)scale(0.08 -0.08)">
       <use xlink:href="#Helvetica-Light-48"/>
       <use x="55.599991" xlink:href="#Helvetica-Light-46"/>
       <use x="83.399979" xlink:href="#Helvetica-Light-48"/>
       <use x="138.999969" xlink:href="#Helvetica-Light-48"/>
       <use x="194.59996" xlink:href="#Helvetica-Light-49"/>
      </g>
     </g>
    </g>
    <g id="ytick_3">
     <g id="line2d_9">
      <g>
       <use style="stroke:#000000;stroke-width:0.35;" x="38.45375" xlink:href="#m639395be58" y="73.905391"/>
      </g>
     </g>
     <g id="text_10">
      <!-- 0.002 -->
      <g transform="translate(13.44 76.785391)scale(0.08 -0.08)">
       <use xlink:href="#Helvetica-Light-48"/>
       <use x="55.599991" xlink:href="#Helvetica-Light-46"/>
       <use x="83.399979" xlink:href="#Helvetica-Light-48"/>
       <use x="138.999969" xlink:href="#Helvetica-Light-48"/>
       <use x="194.59996" xlink:href="#Helvetica-Light-50"/>
      </g>
     </g>
    </g>
    <g id="ytick_4">
     <g id="line2d_10">
      <g>
       <use style="stroke:#000000;stroke-width:0.35;" x="38.45375" xlink:href="#m639395be58" y="53.393391"/>
      </g>
     </g>
     <g id="text_11">
      <!-- 0.003 -->
      <defs>
       <path d="M 22.09375 39.203125 
Q 26.59375 39.203125 30.296875 39.75 
Q 34 40.296875 36.640625 41.84375 
Q 39.296875 43.40625 40.796875 46 
Q 42.296875 48.59375 42.296875 52.703125 
Q 42.296875 56 41.09375 58.34375 
Q 39.90625 60.703125 37.84375 62.203125 
Q 35.796875 63.703125 33.046875 64.390625 
Q 30.296875 65.09375 27.296875 65.09375 
Q 23.90625 65.09375 21.15625 64 
Q 18.40625 62.90625 16.40625 60.84375 
Q 14.40625 58.796875 13.296875 56.046875 
Q 12.203125 53.296875 12.203125 50 
L 5.796875 50 
Q 5.796875 54.796875 7.4375 58.640625 
Q 9.09375 62.5 12.59375 65.796875 
Q 15.90625 68.796875 20.046875 69.640625 
Q 24.203125 70.5 28.59375 70.5 
Q 32.796875 70.5 36.4375 69.453125 
Q 40.09375 68.40625 42.796875 66.25 
Q 45.5 64.09375 47.09375 60.796875 
Q 48.703125 57.5 48.703125 53.09375 
Q 48.703125 47.59375 46.25 43.59375 
Q 43.796875 39.59375 38.703125 37.40625 
Q 42.5 36.203125 44.953125 34.25 
Q 47.40625 32.296875 48.796875 29.9375 
Q 50.203125 27.59375 50.703125 25 
Q 51.203125 22.40625 51.203125 20 
Q 51.203125 15.59375 49.703125 11.796875 
Q 48.203125 8 45.296875 5.09375 
Q 42.40625 2.203125 38.15625 0.453125 
Q 33.90625 -1.296875 28.5 -1.40625 
Q 22.40625 -1.40625 17.90625 -0.296875 
Q 13.40625 0.796875 10.40625 3.34375 
Q 7.40625 5.90625 5.703125 10.046875 
Q 4 14.203125 3.40625 20.40625 
L 9.796875 20.40625 
Q 9.796875 12.296875 14.640625 8.140625 
Q 19.5 4 27.296875 4 
Q 31.09375 4 34.390625 5.296875 
Q 37.703125 6.59375 40.046875 8.796875 
Q 42.40625 11 43.65625 13.890625 
Q 44.90625 16.796875 44.796875 19.90625 
Q 44.59375 24.203125 42.796875 27.046875 
Q 41 29.90625 37.953125 31.546875 
Q 34.90625 33.203125 30.796875 33.75 
Q 26.703125 34.296875 22.09375 34 
z
" id="Helvetica-Light-51"/>
      </defs>
      <g transform="translate(13.44 56.273391)scale(0.08 -0.08)">
       <use xlink:href="#Helvetica-Light-48"/>
       <use x="55.599991" xlink:href="#Helvetica-Light-46"/>
       <use x="83.399979" xlink:href="#Helvetica-Light-48"/>
       <use x="138.999969" xlink:href="#Helvetica-Light-48"/>
       <use x="194.59996" xlink:href="#Helvetica-Light-51"/>
      </g>
     </g>
    </g>
    <g id="ytick_5">
     <g id="line2d_11">
      <g>
       <use style="stroke:#000000;stroke-width:0.35;" x="38.45375" xlink:href="#m639395be58" y="32.881391"/>
      </g>
     </g>
     <g id="text_12">
      <!-- 0.004 -->
      <defs>
       <path d="M 35.796875 17.40625 
L 3.59375 17.40625 
L 3.59375 22.90625 
L 36.40625 69.796875 
L 42.203125 69.796875 
L 42.203125 22.796875 
L 52 22.796875 
L 52 17.40625 
L 42.203125 17.40625 
L 42.203125 0 
L 35.796875 0 
z
M 9.90625 22.796875 
L 35.796875 22.796875 
L 35.796875 60.203125 
z
" id="Helvetica-Light-52"/>
      </defs>
      <g transform="translate(13.44 35.761391)scale(0.08 -0.08)">
       <use xlink:href="#Helvetica-Light-48"/>
       <use x="55.599991" xlink:href="#Helvetica-Light-46"/>
       <use x="83.399979" xlink:href="#Helvetica-Light-48"/>
       <use x="138.999969" xlink:href="#Helvetica-Light-48"/>
       <use x="194.59996" xlink:href="#Helvetica-Light-52"/>
      </g>
     </g>
    </g>
    <g id="ytick_6">
     <g id="line2d_12">
      <g>
       <use style="stroke:#000000;stroke-width:0.35;" x="38.45375" xlink:href="#m639395be58" y="12.36939"/>
      </g>
     </g>
     <g id="text_13">
      <!-- 0.005 -->
      <g transform="translate(13.44 15.24939)scale(0.08 -0.08)">
       <use xlink:href="#Helvetica-Light-48"/>
       <use x="55.599991" xlink:href="#Helvetica-Light-46"/>
       <use x="83.399979" xlink:href="#Helvetica-Light-48"/>
       <use x="138.999969" xlink:href="#Helvetica-Light-48"/>
       <use x="194.59996" xlink:href="#Helvetica-Light-53"/>
      </g>
     </g>
    </g>
    <g id="text_14">
     <!-- Entanglement Entropy  $\Delta S(t) / n$ -->
     <defs>
      <path d="M 8.09375 0 
L 8.09375 72 
L 56 72 
L 56 66.203125 
L 14.90625 66.203125 
L 14.90625 40.203125 
L 52 40.203125 
L 52 34.40625 
L 14.90625 34.40625 
L 14.90625 5.796875 
L 57 5.796875 
L 57 0 
z
" id="Helvetica-Light-69"/>
      <path d="M 13.203125 0 
L 7.203125 0 
L 7.203125 51.796875 
L 13.203125 51.796875 
L 13.203125 44.59375 
Q 16.796875 48.40625 20.640625 50.796875 
Q 24.5 53.203125 29.90625 53.203125 
Q 34.703125 53.203125 38.796875 51.546875 
Q 42.90625 49.90625 45.703125 45.796875 
Q 47.59375 43 47.9375 40.046875 
Q 48.296875 37.09375 48.296875 33.90625 
L 48.296875 0 
L 42.296875 0 
L 42.296875 33.796875 
Q 42.296875 40.796875 39.1875 44.296875 
Q 36.09375 47.796875 28.90625 47.796875 
Q 26.09375 47.796875 23.796875 46.9375 
Q 21.5 46.09375 19.640625 44.6875 
Q 17.796875 43.296875 16.5 41.5 
Q 15.203125 39.703125 14.5 37.703125 
Q 13.59375 35.203125 13.390625 32.890625 
Q 13.203125 30.59375 13.203125 27.90625 
z
" id="Helvetica-Light-110"/>
      <path d="M 25.40625 -0.203125 
Q 24.296875 -0.40625 22.5 -0.90625 
Q 20.703125 -1.40625 18.5 -1.40625 
Q 14 -1.40625 11.640625 0.84375 
Q 9.296875 3.09375 9.296875 8.90625 
L 9.296875 46.796875 
L 2 46.796875 
L 2 51.796875 
L 9.296875 51.796875 
L 9.296875 66.203125 
L 15.296875 66.203125 
L 15.296875 51.796875 
L 25 51.796875 
L 25 46.796875 
L 15.296875 46.796875 
L 15.296875 11.296875 
Q 15.296875 9.40625 15.390625 8 
Q 15.5 6.59375 16 5.6875 
Q 16.5 4.796875 17.546875 4.390625 
Q 18.59375 4 20.5 4 
Q 21.703125 4 22.953125 4.203125 
Q 24.203125 4.40625 25.40625 4.703125 
z
" id="Helvetica-Light-116"/>
      <path d="M 41.09375 27.203125 
Q 37.296875 25.59375 33.390625 25.09375 
Q 29.5 24.59375 25.59375 24.296875 
Q 18.703125 23.796875 14.84375 21.1875 
Q 11 18.59375 11 13.296875 
Q 11 10.90625 11.953125 9.15625 
Q 12.90625 7.40625 14.453125 6.25 
Q 16 5.09375 18.046875 4.546875 
Q 20.09375 4 22.203125 4 
Q 25.796875 4 29.1875 4.890625 
Q 32.59375 5.796875 35.25 7.640625 
Q 37.90625 9.5 39.5 12.34375 
Q 41.09375 15.203125 41.09375 19.09375 
z
M 31 30.203125 
Q 32.703125 30.40625 35.046875 30.796875 
Q 37.40625 31.203125 38.90625 31.90625 
Q 40.40625 32.59375 40.75 34.25 
Q 41.09375 35.90625 41.09375 37.296875 
Q 41.09375 41.90625 38.140625 44.84375 
Q 35.203125 47.796875 28.203125 47.796875 
Q 25.09375 47.796875 22.5 47.25 
Q 19.90625 46.703125 17.953125 45.34375 
Q 16 44 14.75 41.75 
Q 13.5 39.5 13.09375 36.09375 
L 7 36.09375 
Q 7.296875 40.703125 9.09375 43.953125 
Q 10.90625 47.203125 13.75 49.25 
Q 16.59375 51.296875 20.34375 52.25 
Q 24.09375 53.203125 28.296875 53.203125 
Q 32.203125 53.203125 35.640625 52.34375 
Q 39.09375 51.5 41.640625 49.640625 
Q 44.203125 47.796875 45.640625 44.6875 
Q 47.09375 41.59375 47.09375 37.09375 
L 47.09375 8.90625 
Q 47.09375 5.40625 48.34375 4.453125 
Q 49.59375 3.5 53.40625 4.90625 
L 53.40625 0.203125 
Q 52.703125 0 51.34375 -0.390625 
Q 50 -0.796875 48.703125 -0.796875 
Q 47.296875 -0.796875 46 -0.5 
Q 44.5 -0.296875 43.59375 0.453125 
Q 42.703125 1.203125 42.140625 2.25 
Q 41.59375 3.296875 41.390625 4.546875 
Q 41.203125 5.796875 41.203125 7.203125 
Q 37.40625 3 32.5 0.796875 
Q 27.59375 -1.40625 21.90625 -1.40625 
Q 18.5 -1.40625 15.34375 -0.5 
Q 12.203125 0.40625 9.796875 2.296875 
Q 7.40625 4.203125 6 6.953125 
Q 4.59375 9.703125 4.59375 13.5 
Q 4.59375 26.703125 22.703125 29.09375 
z
" id="Helvetica-Light-97"/>
      <path d="M 47.203125 25.703125 
Q 47.203125 30.40625 46.046875 34.453125 
Q 44.90625 38.5 42.703125 41.453125 
Q 40.5 44.40625 37.203125 46.09375 
Q 33.90625 47.796875 29.703125 47.796875 
Q 25.90625 47.796875 22.703125 46.4375 
Q 19.5 45.09375 17.09375 42.5 
Q 14.703125 39.90625 13.34375 36.15625 
Q 12 32.40625 12 27.5 
Q 11.796875 22.59375 12.796875 18.34375 
Q 13.796875 14.09375 16 10.890625 
Q 18.203125 7.703125 21.59375 5.84375 
Q 25 4 29.703125 4 
Q 33.796875 4 37.046875 5.75 
Q 40.296875 7.5 42.546875 10.453125 
Q 44.796875 13.40625 46 17.34375 
Q 47.203125 21.296875 47.203125 25.703125 
z
M 47.203125 51.796875 
L 53.203125 51.796875 
L 53.203125 5 
Q 53.203125 -0.203125 52.140625 -4.953125 
Q 51.09375 -9.703125 48.390625 -13.296875 
Q 45.703125 -16.90625 41 -19.046875 
Q 36.296875 -21.203125 28.90625 -21.203125 
Q 23.203125 -21.203125 19.09375 -19.75 
Q 15 -18.296875 12.390625 -16.09375 
Q 9.796875 -13.90625 8.4375 -11.25 
Q 7.09375 -8.59375 7 -6.296875 
L 13.40625 -6.296875 
Q 14.09375 -9.203125 15.59375 -11.046875 
Q 17.09375 -12.90625 19.140625 -13.953125 
Q 21.203125 -15 23.703125 -15.390625 
Q 26.203125 -15.796875 28.90625 -15.796875 
Q 35 -15.796875 38.703125 -13.6875 
Q 42.40625 -11.59375 44.296875 -8.1875 
Q 46.203125 -4.796875 46.75 -0.5 
Q 47.296875 3.796875 47.203125 8.296875 
Q 44.296875 3.5 39.25 1.046875 
Q 34.203125 -1.40625 28.703125 -1.40625 
Q 22.796875 -1.40625 18.4375 0.84375 
Q 14.09375 3.09375 11.25 6.84375 
Q 8.40625 10.59375 7 15.59375 
Q 5.59375 20.59375 5.59375 26 
Q 5.59375 31.703125 6.890625 36.703125 
Q 8.203125 41.703125 11.046875 45.34375 
Q 13.90625 49 18.296875 51.09375 
Q 22.703125 53.203125 29 53.203125 
Q 31.5 53.203125 34.09375 52.5 
Q 36.703125 51.796875 39.140625 50.5 
Q 41.59375 49.203125 43.640625 47.203125 
Q 45.703125 45.203125 47 42.703125 
L 47.203125 42.703125 
z
" id="Helvetica-Light-103"/>
      <path d="M 8.09375 0 
L 8.09375 72 
L 14.09375 72 
L 14.09375 0 
z
" id="Helvetica-Light-108"/>
      <path d="M 13.5 0 
L 7.5 0 
L 7.5 51.796875 
L 13.5 51.796875 
L 13.5 42.09375 
L 13.703125 42.09375 
Q 16.203125 48.296875 20.140625 50.75 
Q 24.09375 53.203125 30.59375 53.203125 
L 30.59375 46.703125 
Q 25.5 46.796875 22.203125 45.09375 
Q 18.90625 43.40625 16.953125 40.5 
Q 15 37.59375 14.25 33.640625 
Q 13.5 29.703125 13.5 25.40625 
z
" id="Helvetica-Light-114"/>
      <path d="M 27.796875 -1.40625 
Q 22.796875 -1.296875 18.4375 0.390625 
Q 14.09375 2.09375 10.84375 5.5 
Q 7.59375 8.90625 5.6875 14 
Q 3.796875 19.09375 3.796875 25.90625 
Q 3.796875 31.59375 5.296875 36.546875 
Q 6.796875 41.5 9.796875 45.203125 
Q 12.796875 48.90625 17.296875 51.046875 
Q 21.796875 53.203125 27.796875 53.203125 
Q 33.90625 53.203125 38.40625 51.046875 
Q 42.90625 48.90625 45.90625 45.25 
Q 48.90625 41.59375 50.34375 36.59375 
Q 51.796875 31.59375 51.796875 25.90625 
Q 51.796875 19.703125 50.09375 14.703125 
Q 48.40625 9.703125 45.25 6.09375 
Q 42.09375 2.5 37.640625 0.546875 
Q 33.203125 -1.40625 27.796875 -1.40625 
z
M 45.40625 25.90625 
Q 45.40625 30.5 44.40625 34.5 
Q 43.40625 38.5 41.296875 41.453125 
Q 39.203125 44.40625 35.890625 46.09375 
Q 32.59375 47.796875 27.796875 47.796875 
Q 23.09375 47.796875 19.75 45.9375 
Q 16.40625 44.09375 14.296875 41.046875 
Q 12.203125 38 11.203125 34.046875 
Q 10.203125 30.09375 10.203125 25.90625 
Q 10.203125 21.09375 11.34375 17.046875 
Q 12.5 13 14.703125 10.09375 
Q 16.90625 7.203125 20.203125 5.59375 
Q 23.5 4 27.796875 4 
Q 32.5 4 35.84375 5.84375 
Q 39.203125 7.703125 41.296875 10.796875 
Q 43.40625 13.90625 44.40625 17.796875 
Q 45.40625 21.703125 45.40625 25.90625 
z
" id="Helvetica-Light-111"/>
      <path d="M 13.90625 25.703125 
Q 13.90625 21.296875 15.09375 17.34375 
Q 16.296875 13.40625 18.546875 10.453125 
Q 20.796875 7.5 24.046875 5.75 
Q 27.296875 4 31.40625 4 
Q 36 4 39.453125 5.84375 
Q 42.90625 7.703125 45.09375 10.890625 
Q 47.296875 14.09375 48.296875 18.34375 
Q 49.296875 22.59375 49.09375 27.5 
Q 49.09375 32.40625 47.75 36.15625 
Q 46.40625 39.90625 44 42.5 
Q 41.59375 45.09375 38.390625 46.4375 
Q 35.203125 47.796875 31.40625 47.796875 
Q 27.203125 47.796875 23.890625 46.09375 
Q 20.59375 44.40625 18.390625 41.453125 
Q 16.203125 38.5 15.046875 34.453125 
Q 13.90625 30.40625 13.90625 25.703125 
z
M 13.90625 -20.40625 
L 7.90625 -20.40625 
L 7.90625 51.796875 
L 13.90625 51.796875 
L 13.90625 42.703125 
L 14.09375 42.703125 
Q 15.40625 45.203125 17.453125 47.203125 
Q 19.5 49.203125 21.953125 50.5 
Q 24.40625 51.796875 27 52.5 
Q 29.59375 53.203125 32.09375 53.203125 
Q 38.40625 53.203125 42.796875 51.09375 
Q 47.203125 49 50.046875 45.34375 
Q 52.90625 41.703125 54.203125 36.703125 
Q 55.5 31.703125 55.5 26 
Q 55.5 20.59375 54.09375 15.59375 
Q 52.703125 10.59375 49.84375 6.84375 
Q 47 3.09375 42.640625 0.84375 
Q 38.296875 -1.40625 32.40625 -1.40625 
Q 26.90625 -1.40625 21.84375 1.046875 
Q 16.796875 3.5 13.90625 8.296875 
z
" id="Helvetica-Light-112"/>
      <path d="M 6.796875 -14.09375 
Q 8 -14.296875 9.25 -14.5 
Q 10.5 -14.703125 11.796875 -14.703125 
Q 14.296875 -14.703125 15.890625 -13.09375 
Q 17.5 -11.5 18.546875 -9.25 
Q 19.59375 -7 20.296875 -4.546875 
Q 21 -2.09375 21.90625 -0.40625 
L 1.796875 51.796875 
L 8.5 51.796875 
L 25.09375 7.296875 
L 41.703125 51.796875 
L 48.203125 51.796875 
L 28.90625 0.703125 
Q 27.09375 -4.203125 25.4375 -8.09375 
Q 23.796875 -12 21.9375 -14.75 
Q 20.09375 -17.5 17.84375 -18.953125 
Q 15.59375 -20.40625 12.5 -20.40625 
Q 10.90625 -20.40625 9.453125 -20.203125 
Q 8 -20 6.796875 -19.703125 
z
" id="Helvetica-Light-121"/>
      <path d="M 34.1875 63.1875 
L 14.15625 8.203125 
L 54.25 8.203125 
z
M 0.78125 0 
L 28.609375 72.90625 
L 39.796875 72.90625 
L 67.578125 0 
z
" id="DejaVuSans-916"/>
      <path d="M 60.296875 70.515625 
L 58.40625 60.890625 
Q 53.46875 63.53125 48.609375 64.875 
Q 43.75 66.21875 39.203125 66.21875 
Q 30.375 66.21875 25.140625 62.359375 
Q 19.921875 58.5 19.921875 52.09375 
Q 19.921875 48.578125 21.84375 46.703125 
Q 23.78125 44.828125 31.78125 42.671875 
L 37.703125 41.21875 
Q 47.703125 38.625 51.609375 34.640625 
Q 55.515625 30.671875 55.515625 23.484375 
Q 55.515625 12.453125 46.84375 5.515625 
Q 38.1875 -1.421875 24.03125 -1.421875 
Q 18.21875 -1.421875 12.359375 -0.265625 
Q 6.5 0.875 0.59375 3.21875 
L 2.59375 13.375 
Q 8.015625 10.015625 13.453125 8.296875 
Q 18.890625 6.59375 24.3125 6.59375 
Q 33.546875 6.59375 39.109375 10.6875 
Q 44.671875 14.796875 44.671875 21.390625 
Q 44.671875 25.78125 42.453125 28.046875 
Q 40.234375 30.328125 32.90625 32.171875 
L 27 33.6875 
Q 16.890625 36.328125 13.203125 39.765625 
Q 9.515625 43.21875 9.515625 49.421875 
Q 9.515625 60.296875 17.890625 67.25 
Q 26.265625 74.21875 39.703125 74.21875 
Q 44.921875 74.21875 50.046875 73.28125 
Q 55.171875 72.359375 60.296875 70.515625 
z
" id="DejaVuSans-Oblique-83"/>
      <path d="M 31 75.875 
Q 24.46875 64.65625 21.28125 53.65625 
Q 18.109375 42.671875 18.109375 31.390625 
Q 18.109375 20.125 21.3125 9.0625 
Q 24.515625 -2 31 -13.1875 
L 23.1875 -13.1875 
Q 15.875 -1.703125 12.234375 9.375 
Q 8.59375 20.453125 8.59375 31.390625 
Q 8.59375 42.28125 12.203125 53.3125 
Q 15.828125 64.359375 23.1875 75.875 
z
" id="DejaVuSans-40"/>
      <path d="M 8.015625 75.875 
L 15.828125 75.875 
Q 23.140625 64.359375 26.78125 53.3125 
Q 30.421875 42.28125 30.421875 31.390625 
Q 30.421875 20.453125 26.78125 9.375 
Q 23.140625 -1.703125 15.828125 -13.1875 
L 8.015625 -13.1875 
Q 14.5 -2 17.703125 9.0625 
Q 20.90625 20.125 20.90625 31.390625 
Q 20.90625 42.671875 17.703125 53.65625 
Q 14.5 64.65625 8.015625 75.875 
z
" id="DejaVuSans-41"/>
      <path d="M 25.390625 72.90625 
L 33.6875 72.90625 
L 8.296875 -9.28125 
L 0 -9.28125 
z
" id="DejaVuSans-47"/>
      <path d="M 55.71875 33.015625 
L 49.3125 0 
L 40.28125 0 
L 46.6875 32.671875 
Q 47.125 34.96875 47.359375 36.71875 
Q 47.609375 38.484375 47.609375 39.5 
Q 47.609375 43.609375 45.015625 45.890625 
Q 42.4375 48.1875 37.796875 48.1875 
Q 30.5625 48.1875 25.34375 43.375 
Q 20.125 38.578125 18.5 30.328125 
L 12.5 0 
L 3.515625 0 
L 14.109375 54.6875 
L 23.09375 54.6875 
L 21.296875 46.09375 
Q 25.046875 50.828125 30.3125 53.40625 
Q 35.59375 56 41.40625 56 
Q 48.640625 56 52.609375 52.09375 
Q 56.59375 48.1875 56.59375 41.109375 
Q 56.59375 39.359375 56.375 37.359375 
Q 56.15625 35.359375 55.71875 33.015625 
z
" id="DejaVuSans-Oblique-110"/>
     </defs>
     <g transform="translate(9.68 117.555396)rotate(-90)scale(0.08 -0.08)">
      <use transform="translate(0 0.125)" xlink:href="#Helvetica-Light-69"/>
      <use transform="translate(61.099991 0.125)" xlink:href="#Helvetica-Light-110"/>
      <use transform="translate(116.699982 0.125)" xlink:href="#Helvetica-Light-116"/>
      <use transform="translate(144.499969 0.125)" xlink:href="#Helvetica-Light-97"/>
      <use transform="translate(200.09996 0.125)" xlink:href="#Helvetica-Light-110"/>
      <use transform="translate(255.699951 0.125)" xlink:href="#Helvetica-Light-103"/>
      <use transform="translate(316.799942 0.125)" xlink:href="#Helvetica-Light-108"/>
      <use transform="translate(338.999939 0.125)" xlink:href="#Helvetica-Light-101"/>
      <use transform="translate(394.59993 0.125)" xlink:href="#Helvetica-Light-109"/>
      <use transform="translate(477.899918 0.125)" xlink:href="#Helvetica-Light-101"/>
      <use transform="translate(533.499908 0.125)" xlink:href="#Helvetica-Light-110"/>
      <use transform="translate(589.099899 0.125)" xlink:href="#Helvetica-Light-116"/>
      <use transform="translate(616.899887 0.125)" xlink:href="#Helvetica-Light-32"/>
      <use transform="translate(644.699875 0.125)" xlink:href="#Helvetica-Light-69"/>
      <use transform="translate(705.799866 0.125)" xlink:href="#Helvetica-Light-110"/>
      <use transform="translate(761.399857 0.125)" xlink:href="#Helvetica-Light-116"/>
      <use transform="translate(789.199844 0.125)" xlink:href="#Helvetica-Light-114"/>
      <use transform="translate(822.499832 0.125)" xlink:href="#Helvetica-Light-111"/>
      <use transform="translate(878.099823 0.125)" xlink:href="#Helvetica-Light-112"/>
      <use transform="translate(939.199814 0.125)" xlink:href="#Helvetica-Light-121"/>
      <use transform="translate(989.199799 0.125)" xlink:href="#Helvetica-Light-32"/>
      <use transform="translate(1016.999786 0.125)" xlink:href="#Helvetica-Light-32"/>
      <use transform="translate(1044.799774 0.125)" xlink:href="#DejaVuSans-916"/>
      <use transform="translate(1113.207977 0.125)" xlink:href="#DejaVuSans-Oblique-83"/>
      <use transform="translate(1176.68454 0.125)" xlink:href="#DejaVuSans-40"/>
      <use transform="translate(1215.698212 0.125)" xlink:href="#DejaVuSans-Oblique-116"/>
      <use transform="translate(1254.907196 0.125)" xlink:href="#DejaVuSans-41"/>
      <use transform="translate(1293.920868 0.125)" xlink:href="#DejaVuSans-47"/>
      <use transform="translate(1327.612274 0.125)" xlink:href="#DejaVuSans-Oblique-110"/>
     </g>
    </g>
   </g>
   <g id="line2d_13">
    <path clip-path="url(#p1c5941638b)" d="M 38.45375 114.929392 
L 39.151489 109.870926 
L 39.849228 97.945244 
L 41.942445 50.403875 
L 42.640184 38.536526 
L 43.337923 31.016056 
L 44.035661 28.004155 
L 44.7334 28.880708 
L 45.431139 32.447903 
L 46.826617 41.696496 
L 47.524356 44.816886 
L 48.222095 46.100129 
L 48.919834 45.675681 
L 49.617573 44.059184 
L 51.013051 39.872803 
L 51.71079 38.385798 
L 52.408529 37.67096 
L 53.106268 37.718399 
L 53.804007 38.357137 
L 55.897223 41.25872 
L 56.594962 41.835524 
L 57.292701 42.043607 
L 57.99044 41.902782 
L 59.385918 41.006133 
L 60.781396 40.004078 
L 61.479135 39.62895 
L 62.176874 39.426976 
L 62.874613 39.434264 
L 63.572352 39.638251 
L 66.363307 40.901265 
L 67.061046 40.841597 
L 68.456524 40.41755 
L 69.154263 40.348517 
L 69.852002 40.510371 
L 70.549741 40.932056 
L 71.24748 41.599744 
L 71.945219 42.500192 
L 72.642958 43.673247 
L 73.340697 45.21558 
L 74.038436 47.237605 
L 74.736174 49.826129 
L 75.433913 53.025529 
L 76.829391 61.180865 
L 79.620347 80.020156 
L 80.318086 83.165121 
L 81.015825 84.651198 
L 81.713564 84.046487 
L 82.411303 81.128209 
L 83.109042 75.928511 
L 83.806781 68.73376 
L 85.202258 50.555452 
L 86.597736 32.287411 
L 87.295475 25.092241 
L 87.993214 20.075373 
L 88.690953 17.657787 
L 89.388692 17.989366 
L 90.086431 20.914202 
L 90.78417 25.970847 
L 93.575126 50.899688 
L 94.272865 53.907986 
L 94.970604 54.618261 
L 95.668342 53.219931 
L 96.366081 50.231707 
L 98.459298 38.440672 
L 99.157037 35.489151 
L 99.854776 33.599764 
L 100.552515 32.846121 
L 101.250254 33.151001 
L 101.947993 34.326977 
L 102.645732 36.118384 
L 104.738949 42.349383 
L 105.436688 43.862879 
L 106.134426 44.791922 
L 106.832165 45.06432 
L 107.529904 44.695241 
L 108.227643 43.787344 
L 110.32086 40.092746 
L 111.018599 39.55466 
L 111.716338 39.813628 
L 112.414077 40.988821 
L 113.111816 43.061445 
L 113.809555 45.883173 
L 117.298249 62.277752 
L 118.693727 66.977239 
L 120.089205 70.778939 
L 120.786944 72.377878 
L 121.484683 73.640607 
L 122.182422 74.347405 
L 122.880161 74.203013 
L 123.5779 72.891381 
L 124.275639 70.159839 
L 124.973378 65.900657 
L 125.671117 60.201682 
L 127.066594 45.882392 
L 128.462072 31.520072 
L 129.159811 25.88869 
L 129.85755 21.931989 
L 130.555289 19.890572 
L 131.253028 19.780918 
L 131.950767 21.41145 
L 132.648506 24.4308 
L 134.043984 32.859148 
L 135.439462 41.726284 
L 136.137201 45.565367 
L 136.834939 48.738369 
L 137.532678 51.089717 
L 138.230417 52.48822 
L 138.928156 52.836459 
L 139.625895 52.087961 
L 140.323634 50.269433 
L 141.021373 47.511816 
L 143.812329 33.672066 
L 144.510068 31.575194 
L 145.207807 30.661914 
L 145.905546 31.009786 
L 146.603285 32.530051 
L 147.301023 34.993256 
L 150.091979 47.565834 
L 150.789718 49.840717 
L 151.487457 51.350639 
L 152.185196 52.028699 
L 152.882935 51.924126 
L 153.580674 51.2125 
L 154.976152 49.191523 
L 155.673891 48.651934 
L 156.37163 48.946157 
L 157.069369 50.36816 
L 157.767107 53.046215 
L 158.464846 56.886475 
L 160.558063 71.013747 
L 161.255802 74.417238 
L 161.953541 76.151894 
L 162.65128 75.955877 
L 163.349019 73.904239 
L 164.046758 70.355322 
L 165.442236 60.896947 
L 166.837714 51.516128 
L 168.233191 43.900524 
L 170.326408 33.525562 
L 172.419625 22.627505 
L 173.117364 20.194017 
L 173.815103 19.176653 
L 174.512842 19.951788 
L 175.210581 22.679553 
L 175.90832 27.246554 
L 177.303798 40.057941 
L 178.699275 52.742544 
L 179.397014 56.963521 
L 180.094753 58.946361 
L 180.792492 58.526038 
L 181.490231 55.970174 
L 182.18797 51.874924 
L 184.281187 37.938648 
L 184.978926 34.820467 
L 185.676665 33.032152 
L 186.374404 32.593218 
L 187.072143 33.333706 
L 187.769882 34.941361 
L 189.863098 41.170574 
L 190.560837 42.751078 
L 191.258576 43.942786 
L 192.654054 45.825946 
L 193.351793 47.016716 
L 194.049532 48.668984 
L 194.747271 50.878174 
L 196.142749 56.627698 
L 197.538227 62.381276 
L 198.235966 64.418796 
L 198.933704 65.561672 
L 199.631443 65.764116 
L 200.329182 65.188046 
L 202.422399 62.158452 
L 203.120138 61.68296 
L 203.817877 61.61762 
L 205.213355 61.987367 
L 205.911094 61.831181 
L 206.608833 61.019096 
L 207.306572 59.287353 
L 208.004311 56.473136 
L 208.70205 52.540641 
L 210.097527 41.907401 
L 211.493005 30.044554 
L 212.190744 24.919232 
L 212.888483 21.004073 
L 213.586222 18.676779 
L 214.283961 18.14016 
L 214.9817 19.388002 
L 215.679439 22.202986 
L 216.377178 26.187861 
L 218.470395 40.014049 
L 219.168133 43.810813 
L 219.865872 46.874458 
L 220.563611 49.231894 
L 221.26135 50.961327 
L 221.959089 52.122782 
L 222.656828 52.723839 
L 223.354567 52.724166 
L 224.052306 52.069259 
L 224.750045 50.733162 
L 225.447784 48.758207 
L 226.843262 43.465356 
L 228.23874 37.904057 
L 228.936479 35.66831 
L 229.634217 34.10629 
L 230.331956 33.388843 
L 231.029695 33.626218 
L 231.727434 34.872479 
L 232.425173 37.122304 
L 233.122912 40.295282 
L 234.51839 48.646268 
L 235.216129 53.238361 
L 235.216129 53.238361 
" style="fill:none;stroke:#5e4fa2;stroke-linecap:round;"/>
   </g>
   <g id="line2d_14">
    <path clip-path="url(#p1c5941638b)" d="M 78.224869 46.822517 
L 239.11839 46.822517 
L 239.11839 46.822517 
" style="fill:none;stroke:#5e4fa2;stroke-dasharray:1,1.65;stroke-dashoffset:0;stroke-linecap:round;"/>
   </g>
   <g id="line2d_15">
    <path clip-path="url(#p1c5941638b)" d="M 38.45375 114.929392 
L 39.151489 114.666338 
L 39.849228 113.966146 
L 43.337923 109.111826 
L 44.7334 106.974725 
L 46.128878 104.534857 
L 47.524356 101.714553 
L 49.617573 96.748597 
L 53.106268 88.286481 
L 54.501745 85.308841 
L 55.897223 82.769509 
L 57.292701 80.732045 
L 60.083657 77.05976 
L 61.479135 74.518819 
L 62.874613 72.046306 
L 63.572352 71.310412 
L 64.27009 71.118618 
L 64.967829 71.500808 
L 65.665568 72.364984 
L 69.852002 79.202658 
L 71.945219 82.444937 
L 77.52713 91.774713 
L 78.922608 93.75988 
L 80.318086 95.284981 
L 81.015825 95.834449 
L 81.713564 96.218696 
L 82.411303 96.434391 
L 83.806781 96.479559 
L 86.597736 96.177674 
L 87.993214 95.757078 
L 89.388692 94.939455 
L 91.481909 93.213578 
L 94.272865 90.570326 
L 97.06382 87.647577 
L 99.854776 84.42315 
L 101.250254 82.439963 
L 104.738949 76.810595 
L 105.436688 76.067753 
L 106.134426 75.585298 
L 106.832165 75.397225 
L 107.529904 75.512872 
L 108.227643 75.901384 
L 109.623121 77.162922 
L 111.018599 78.434735 
L 114.507294 81.233666 
L 116.60051 83.552509 
L 118.693727 85.800578 
L 120.089205 86.933508 
L 121.484683 87.779301 
L 122.880161 88.356047 
L 124.275639 88.618731 
L 129.159811 88.824431 
L 130.555289 88.789393 
L 131.950767 88.504548 
L 133.346245 87.926287 
L 136.137201 86.546693 
L 138.928156 85.509824 
L 140.323634 84.49974 
L 141.719112 82.941984 
L 143.11459 80.8619 
L 144.510068 78.707729 
L 145.905546 77.03361 
L 146.603285 76.462858 
L 147.301023 76.106648 
L 147.998762 76.001371 
L 148.696501 76.166742 
L 149.39424 76.578042 
L 152.882935 79.393674 
L 155.673891 80.88614 
L 157.767107 82.484859 
L 160.558063 84.671299 
L 161.953541 85.487678 
L 162.65128 85.690607 
L 164.046758 85.676696 
L 166.139975 85.464128 
L 168.233191 85.626381 
L 170.326408 85.76547 
L 173.117364 85.649436 
L 179.397014 85.165338 
L 180.094753 84.936507 
L 180.792492 84.555883 
L 181.490231 84.005229 
L 182.885709 82.452702 
L 187.072143 77.010381 
L 187.769882 76.554931 
L 188.46762 76.414064 
L 189.165359 76.599043 
L 189.863098 77.054591 
L 192.654054 79.388543 
L 199.631443 83.734788 
L 201.72466 84.812646 
L 203.120138 85.277321 
L 204.515616 85.342023 
L 206.608833 85.278151 
L 208.70205 85.534923 
L 210.097527 85.381752 
L 211.493005 85.161881 
L 212.888483 85.265574 
L 214.283961 85.426354 
L 219.865872 85.375072 
L 221.26135 84.919778 
L 221.959089 84.534419 
L 223.354567 83.369223 
L 224.750045 81.75986 
L 226.843262 79.258928 
L 227.541001 78.609581 
L 228.23874 78.1213 
L 228.936479 77.813039 
L 229.634217 77.683841 
L 230.331956 77.713322 
L 231.727434 78.09328 
L 235.216129 79.319749 
L 235.216129 79.319749 
" style="fill:none;stroke:#d8434e;stroke-linecap:round;"/>
   </g>
   <g id="line2d_16">
    <path clip-path="url(#p1c5941638b)" d="M 78.224869 83.396281 
L 239.11839 83.396281 
L 239.11839 83.396281 
" style="fill:none;stroke:#d8434e;stroke-dasharray:1,1.65;stroke-dashoffset:0;stroke-linecap:round;"/>
   </g>
   <g id="patch_3">
    <path d="M 38.45375 120.230791 
L 38.45375 3.6 
" style="fill:none;stroke:#000000;stroke-linecap:square;stroke-linejoin:miter;stroke-width:0.35;"/>
   </g>
   <g id="patch_4">
    <path d="M 234.51839 120.230791 
L 234.51839 3.6 
" style="fill:none;stroke:#000000;stroke-linecap:square;stroke-linejoin:miter;stroke-width:0.35;"/>
   </g>
   <g id="patch_5">
    <path d="M 38.45375 120.230791 
L 234.51839 120.230791 
" style="fill:none;stroke:#000000;stroke-linecap:square;stroke-linejoin:miter;stroke-width:0.35;"/>
   </g>
   <g id="patch_6">
    <path d="M 38.45375 3.6 
L 234.51839 3.6 
" style="fill:none;stroke:#000000;stroke-linecap:square;stroke-linejoin:miter;stroke-width:0.35;"/>
   </g>
   <g id="text_15">
    <!-- $V = 0.150$ -->
    <defs>
     <path d="M 20.609375 0 
L 7.8125 72.90625 
L 17.484375 72.90625 
L 28.078125 10.203125 
L 63.484375 72.90625 
L 74.21875 72.90625 
L 32.078125 0 
z
" id="DejaVuSans-Oblique-86"/>
     <path d="M 10.59375 45.40625 
L 73.1875 45.40625 
L 73.1875 37.203125 
L 10.59375 37.203125 
z
M 10.59375 25.484375 
L 73.1875 25.484375 
L 73.1875 17.1875 
L 10.59375 17.1875 
z
" id="DejaVuSans-61"/>
     <path d="M 31.78125 66.40625 
Q 24.171875 66.40625 20.328125 58.90625 
Q 16.5 51.421875 16.5 36.375 
Q 16.5 21.390625 20.328125 13.890625 
Q 24.171875 6.390625 31.78125 6.390625 
Q 39.453125 6.390625 43.28125 13.890625 
Q 47.125 21.390625 47.125 36.375 
Q 47.125 51.421875 43.28125 58.90625 
Q 39.453125 66.40625 31.78125 66.40625 
z
M 31.78125 74.21875 
Q 44.046875 74.21875 50.515625 64.515625 
Q 56.984375 54.828125 56.984375 36.375 
Q 56.984375 17.96875 50.515625 8.265625 
Q 44.046875 -1.421875 31.78125 -1.421875 
Q 19.53125 -1.421875 13.0625 8.265625 
Q 6.59375 17.96875 6.59375 36.375 
Q 6.59375 54.828125 13.0625 64.515625 
Q 19.53125 74.21875 31.78125 74.21875 
z
" id="DejaVuSans-48"/>
     <path d="M 10.6875 12.40625 
L 21 12.40625 
L 21 0 
L 10.6875 0 
z
" id="DejaVuSans-46"/>
     <path d="M 12.40625 8.296875 
L 28.515625 8.296875 
L 28.515625 63.921875 
L 10.984375 60.40625 
L 10.984375 69.390625 
L 28.421875 72.90625 
L 38.28125 72.90625 
L 38.28125 8.296875 
L 54.390625 8.296875 
L 54.390625 0 
L 12.40625 0 
z
" id="DejaVuSans-49"/>
     <path d="M 10.796875 72.90625 
L 49.515625 72.90625 
L 49.515625 64.59375 
L 19.828125 64.59375 
L 19.828125 46.734375 
Q 21.96875 47.46875 24.109375 47.828125 
Q 26.265625 48.1875 28.421875 48.1875 
Q 40.625 48.1875 47.75 41.5 
Q 54.890625 34.8125 54.890625 23.390625 
Q 54.890625 11.625 47.5625 5.09375 
Q 40.234375 -1.421875 26.90625 -1.421875 
Q 22.3125 -1.421875 17.546875 -0.640625 
Q 12.796875 0.140625 7.71875 1.703125 
L 7.71875 11.625 
Q 12.109375 9.234375 16.796875 8.0625 
Q 21.484375 6.890625 26.703125 6.890625 
Q 35.15625 6.890625 40.078125 11.328125 
Q 45.015625 15.765625 45.015625 23.390625 
Q 45.015625 31 40.078125 35.4375 
Q 35.15625 39.890625 26.703125 39.890625 
Q 22.75 39.890625 18.8125 39.015625 
Q 14.890625 38.140625 10.796875 36.28125 
z
" id="DejaVuSans-53"/>
    </defs>
    <g transform="translate(43.355366 24.593542)scale(0.08 -0.08)">
     <use transform="translate(0 0.78125)" xlink:href="#DejaVuSans-Oblique-86"/>
     <use transform="translate(87.890625 0.78125)" xlink:href="#DejaVuSans-61"/>
     <use transform="translate(191.162109 0.78125)" xlink:href="#DejaVuSans-48"/>
     <use transform="translate(254.785156 0.78125)" xlink:href="#DejaVuSans-46"/>
     <use transform="translate(286.572266 0.78125)" xlink:href="#DejaVuSans-49"/>
     <use transform="translate(350.195312 0.78125)" xlink:href="#DejaVuSans-53"/>
     <use transform="translate(413.818359 0.78125)" xlink:href="#DejaVuSans-48"/>
    </g>
   </g>
   <g id="text_16">
    <!-- $L = 24, N = 12, \ell = 12, n = 6$ -->
    <defs>
     <path d="M 16.796875 72.90625 
L 26.703125 72.90625 
L 14.203125 8.203125 
L 49.703125 8.203125 
L 48.09375 0 
L 2.6875 0 
z
" id="DejaVuSans-Oblique-76"/>
     <path d="M 19.1875 8.296875 
L 53.609375 8.296875 
L 53.609375 0 
L 7.328125 0 
L 7.328125 8.296875 
Q 12.9375 14.109375 22.625 23.890625 
Q 32.328125 33.6875 34.8125 36.53125 
Q 39.546875 41.84375 41.421875 45.53125 
Q 43.3125 49.21875 43.3125 52.78125 
Q 43.3125 58.59375 39.234375 62.25 
Q 35.15625 65.921875 28.609375 65.921875 
Q 23.96875 65.921875 18.8125 64.3125 
Q 13.671875 62.703125 7.8125 59.421875 
L 7.8125 69.390625 
Q 13.765625 71.78125 18.9375 73 
Q 24.125 74.21875 28.421875 74.21875 
Q 39.75 74.21875 46.484375 68.546875 
Q 53.21875 62.890625 53.21875 53.421875 
Q 53.21875 48.921875 51.53125 44.890625 
Q 49.859375 40.875 45.40625 35.40625 
Q 44.1875 33.984375 37.640625 27.21875 
Q 31.109375 20.453125 19.1875 8.296875 
z
" id="DejaVuSans-50"/>
     <path d="M 37.796875 64.3125 
L 12.890625 25.390625 
L 37.796875 25.390625 
z
M 35.203125 72.90625 
L 47.609375 72.90625 
L 47.609375 25.390625 
L 58.015625 25.390625 
L 58.015625 17.1875 
L 47.609375 17.1875 
L 47.609375 0 
L 37.796875 0 
L 37.796875 17.1875 
L 4.890625 17.1875 
L 4.890625 26.703125 
z
" id="DejaVuSans-52"/>
     <path d="M 11.71875 12.40625 
L 22.015625 12.40625 
L 22.015625 4 
L 14.015625 -11.625 
L 7.71875 -11.625 
L 11.71875 4 
z
" id="DejaVuSans-44"/>
     <path d="M 16.890625 72.90625 
L 30.171875 72.90625 
L 50.296875 10.40625 
L 62.5 72.90625 
L 72.125 72.90625 
L 57.90625 0 
L 44.578125 0 
L 24.515625 62.890625 
L 12.3125 0 
L 2.6875 0 
z
" id="DejaVuSans-Oblique-78"/>
     <path d="M 14.84375 13.09375 
Q 16.84375 3.328125 21.09375 3.328125 
Q 23.921875 3.328125 27.59375 8.9375 
L 34.078125 8.9375 
Q 31.15625 3.953125 27.734375 1.375 
Q 24.03125 -1.421875 20.609375 -1.421875 
Q 12.984375 -1.421875 9.90625 5.375 
L 6.25 0 
L -1.375 0 
Q 3.90625 7.171875 7.8125 13.875 
Q 7.328125 17.671875 7.328125 21.828125 
Q 7.328125 29.25 8.84375 36.671875 
Q 14.546875 64.546875 19.625 70.265625 
Q 23.140625 74.21875 29.15625 74.21875 
Q 35.25 74.21875 35.25 65.765625 
Q 35.203125 61.96875 34.328125 57.421875 
Q 30.8125 38.8125 14.84375 13.09375 
z
M 14.796875 25.875 
Q 23.921875 42.875 26.703125 56.453125 
Q 28.171875 63.625 28.171875 65.484375 
Q 28.171875 68.84375 26.953125 68.84375 
Q 21.625 64.59375 16.890625 39.3125 
Q 15.578125 32.234375 14.796875 25.875 
z
" id="DejaVuSans-Oblique-8467"/>
     <path d="M 33.015625 40.375 
Q 26.375 40.375 22.484375 35.828125 
Q 18.609375 31.296875 18.609375 23.390625 
Q 18.609375 15.53125 22.484375 10.953125 
Q 26.375 6.390625 33.015625 6.390625 
Q 39.65625 6.390625 43.53125 10.953125 
Q 47.40625 15.53125 47.40625 23.390625 
Q 47.40625 31.296875 43.53125 35.828125 
Q 39.65625 40.375 33.015625 40.375 
z
M 52.59375 71.296875 
L 52.59375 62.3125 
Q 48.875 64.0625 45.09375 64.984375 
Q 41.3125 65.921875 37.59375 65.921875 
Q 27.828125 65.921875 22.671875 59.328125 
Q 17.53125 52.734375 16.796875 39.40625 
Q 19.671875 43.65625 24.015625 45.921875 
Q 28.375 48.1875 33.59375 48.1875 
Q 44.578125 48.1875 50.953125 41.515625 
Q 57.328125 34.859375 57.328125 23.390625 
Q 57.328125 12.15625 50.6875 5.359375 
Q 44.046875 -1.421875 33.015625 -1.421875 
Q 20.359375 -1.421875 13.671875 8.265625 
Q 6.984375 17.96875 6.984375 36.375 
Q 6.984375 53.65625 15.1875 63.9375 
Q 23.390625 74.21875 37.203125 74.21875 
Q 40.921875 74.21875 44.703125 73.484375 
Q 48.484375 72.75 52.59375 71.296875 
z
" id="DejaVuSans-54"/>
    </defs>
    <g transform="translate(43.355366 12.930463)scale(0.08 -0.08)">
     <use transform="translate(0 0.78125)" xlink:href="#DejaVuSans-Oblique-76"/>
     <use transform="translate(75.195312 0.78125)" xlink:href="#DejaVuSans-61"/>
     <use transform="translate(178.466797 0.78125)" xlink:href="#DejaVuSans-50"/>
     <use transform="translate(242.089844 0.78125)" xlink:href="#DejaVuSans-52"/>
     <use transform="translate(305.712891 0.78125)" xlink:href="#DejaVuSans-44"/>
     <use transform="translate(356.982422 0.78125)" xlink:href="#DejaVuSans-Oblique-78"/>
     <use transform="translate(451.269531 0.78125)" xlink:href="#DejaVuSans-61"/>
     <use transform="translate(554.541016 0.78125)" xlink:href="#DejaVuSans-49"/>
     <use transform="translate(618.164062 0.78125)" xlink:href="#DejaVuSans-50"/>
     <use transform="translate(681.787109 0.78125)" xlink:href="#DejaVuSans-44"/>
     <use transform="translate(733.056641 0.78125)" xlink:href="#DejaVuSans-Oblique-8467"/>
     <use transform="translate(793.847656 0.78125)" xlink:href="#DejaVuSans-61"/>
     <use transform="translate(897.119141 0.78125)" xlink:href="#DejaVuSans-49"/>
     <use transform="translate(960.742188 0.78125)" xlink:href="#DejaVuSans-50"/>
     <use transform="translate(1024.365234 0.78125)" xlink:href="#DejaVuSans-44"/>
     <use transform="translate(1075.634766 0.78125)" xlink:href="#DejaVuSans-Oblique-110"/>
     <use transform="translate(1158.496094 0.78125)" xlink:href="#DejaVuSans-61"/>
     <use transform="translate(1261.767578 0.78125)" xlink:href="#DejaVuSans-54"/>
    </g>
   </g>
   <g id="legend_1">
    <g id="line2d_17">
     <path d="M 178.898998 99.456329 
L 186.898998 99.456329 
" style="fill:none;stroke:#5e4fa2;stroke-linecap:round;"/>
    </g>
    <g id="line2d_18"/>
    <g id="text_17">
     <!-- particle -->
     <defs>
      <path d="M 43.90625 35.5 
Q 42.296875 41.296875 38.390625 44.546875 
Q 34.5 47.796875 28.5 47.796875 
Q 23.90625 47.796875 20.59375 45.890625 
Q 17.296875 44 15.1875 40.84375 
Q 13.09375 37.703125 12.09375 33.75 
Q 11.09375 29.796875 11.09375 25.796875 
Q 11.09375 21.703125 12.046875 17.796875 
Q 13 13.90625 15.09375 10.796875 
Q 17.203125 7.703125 20.5 5.84375 
Q 23.796875 4 28.5 4 
Q 35.203125 4 39.25 7.703125 
Q 43.296875 11.40625 44.40625 17.90625 
L 50.796875 17.90625 
Q 50 13.59375 48.25 10.046875 
Q 46.5 6.5 43.75 3.953125 
Q 41 1.40625 37.203125 0 
Q 33.40625 -1.40625 28.5 -1.40625 
Q 22.296875 -1.40625 17.796875 0.6875 
Q 13.296875 2.796875 10.390625 6.4375 
Q 7.5 10.09375 6.09375 15.09375 
Q 4.703125 20.09375 4.703125 25.796875 
Q 4.703125 31.203125 6.25 36.140625 
Q 7.796875 41.09375 10.796875 44.890625 
Q 13.796875 48.703125 18.25 50.953125 
Q 22.703125 53.203125 28.5 53.203125 
Q 37.5 53.203125 43.046875 48.890625 
Q 48.59375 44.59375 50 35.5 
z
" id="Helvetica-Light-99"/>
     </defs>
     <g transform="translate(190.898998 102.256329)scale(0.08 -0.08)">
      <use xlink:href="#Helvetica-Light-112"/>
      <use x="61.099991" xlink:href="#Helvetica-Light-97"/>
      <use x="116.699982" xlink:href="#Helvetica-Light-114"/>
      <use x="149.999969" xlink:href="#Helvetica-Light-116"/>
      <use x="177.799957" xlink:href="#Helvetica-Light-105"/>
      <use x="199.999954" xlink:href="#Helvetica-Light-99"/>
      <use x="255.599945" xlink:href="#Helvetica-Light-108"/>
      <use x="277.799942" xlink:href="#Helvetica-Light-101"/>
     </g>
    </g>
    <g id="line2d_19">
     <path d="M 178.898998 110.848829 
L 186.898998 110.848829 
" style="fill:none;stroke:#d8434e;stroke-linecap:round;"/>
    </g>
    <g id="line2d_20"/>
    <g id="text_18">
     <!-- spatial -->
     <defs>
      <path d="M 10.703125 16.203125 
Q 12.09375 9.5 15.75 6.75 
Q 19.40625 4 26.203125 4 
Q 29.5 4 31.890625 4.796875 
Q 34.296875 5.59375 35.84375 6.9375 
Q 37.40625 8.296875 38.203125 10 
Q 39 11.703125 39 13.59375 
Q 39 17.40625 36.546875 19.25 
Q 34.09375 21.09375 30.390625 22.140625 
Q 26.703125 23.203125 22.390625 23.953125 
Q 18.09375 24.703125 14.390625 26.203125 
Q 10.703125 27.703125 8.25 30.5 
Q 5.796875 33.296875 5.796875 38.40625 
Q 5.796875 44.90625 10.546875 49.046875 
Q 15.296875 53.203125 24 53.203125 
Q 32.40625 53.203125 37.65625 49.453125 
Q 42.90625 45.703125 44 36.90625 
L 37.90625 36.90625 
Q 37.09375 42.90625 33.34375 45.34375 
Q 29.59375 47.796875 23.90625 47.796875 
Q 18.203125 47.796875 15.203125 45.34375 
Q 12.203125 42.90625 12.203125 38.90625 
Q 12.203125 35.40625 14.640625 33.546875 
Q 17.09375 31.703125 20.796875 30.546875 
Q 24.5 29.40625 28.796875 28.5 
Q 33.09375 27.59375 36.796875 25.9375 
Q 40.5 24.296875 42.953125 21.5 
Q 45.40625 18.703125 45.40625 13.703125 
Q 45.40625 10 43.796875 7.140625 
Q 42.203125 4.296875 39.390625 2.390625 
Q 36.59375 0.5 32.75 -0.453125 
Q 28.90625 -1.40625 24.296875 -1.40625 
Q 19.703125 -1.40625 16.140625 -0.046875 
Q 12.59375 1.296875 10.09375 3.6875 
Q 7.59375 6.09375 6.1875 9.296875 
Q 4.796875 12.5 4.59375 16.203125 
z
" id="Helvetica-Light-115"/>
     </defs>
     <g transform="translate(190.898998 113.648829)scale(0.08 -0.08)">
      <use xlink:href="#Helvetica-Light-115"/>
      <use x="49.999985" xlink:href="#Helvetica-Light-112"/>
      <use x="111.099976" xlink:href="#Helvetica-Light-97"/>
      <use x="166.699966" xlink:href="#Helvetica-Light-116"/>
      <use x="194.499954" xlink:href="#Helvetica-Light-105"/>
      <use x="216.699951" xlink:href="#Helvetica-Light-97"/>
      <use x="272.299942" xlink:href="#Helvetica-Light-108"/>
     </g>
    </g>
   </g>
  </g>
 </g>
 <defs>
  <clipPath id="p1c5941638b">
   <rect height="116.630791" width="196.06464" x="38.45375" y="3.6"/>
  </clipPath>
 </defs>
</svg>
