<?xml version="1.0" encoding="utf-8" standalone="no"?>
<!DOCTYPE svg PUBLIC "-//W3C//DTD SVG 1.1//EN"
  "http://www.w3.org/Graphics/SVG/1.1/DTD/svg11.dtd">
<!-- Created with matplotlib (https://matplotlib.org/) -->
<svg height="139.855791pt" version="1.1" viewBox="0 0 232.19839 139.855791" width="232.19839pt" xmlns="http://www.w3.org/2000/svg" xmlns:xlink="http://www.w3.org/1999/xlink">
 <defs>
  <style type="text/css">
*{stroke-linecap:butt;stroke-linejoin:round;}
  </style>
 </defs>
 <g id="figure_1">
  <g id="patch_1">
   <path d="M 0 139.855791 
L 232.19839 139.855791 
L 232.19839 0 
L 0 0 
z
" style="fill:none;"/>
  </g>
  <g id="axes_1">
   <g id="patch_2">
    <path d="M 35.41375 117.350791 
L 231.47839 117.350791 
L 231.47839 0.72 
L 35.41375 0.72 
z
" style="fill:none;"/>
   </g>
   <g id="matplotlib.axis_1">
    <g id="xtick_1">
     <g id="line2d_1">
      <defs>
       <path d="M 0 0 
L 0 2 
" id="m253f4a1b5b" style="stroke:#000000;stroke-width:0.35;"/>
      </defs>
      <g>
       <use style="stroke:#000000;stroke-width:0.35;" x="35.41375" xlink:href="#m253f4a1b5b" y="117.350791"/>
      </g>
     </g>
     <g id="text_1">
      <!-- 0 -->
      <defs>
       <path d="M 45.203125 34.703125 
Q 45.203125 40.40625 44.546875 45.84375 
Q 43.90625 51.296875 42 55.59375 
Q 40.09375 59.90625 36.640625 62.5 
Q 33.203125 65.09375 27.59375 65.09375 
Q 22.296875 65.09375 18.9375 62.4375 
Q 15.59375 59.796875 13.6875 55.390625 
Q 11.796875 51 11.046875 45.390625 
Q 10.296875 39.796875 10.296875 34 
Q 10.296875 27.203125 11.140625 21.640625 
Q 12 16.09375 14 12.1875 
Q 16 8.296875 19.34375 6.140625 
Q 22.703125 4 27.796875 4 
Q 33.5 4 36.953125 6.796875 
Q 40.40625 9.59375 42.203125 14 
Q 44 18.40625 44.59375 23.90625 
Q 45.203125 29.40625 45.203125 34.703125 
z
M 27.796875 70.5 
Q 33 70.5 36.796875 68.953125 
Q 40.59375 67.40625 43.25 64.703125 
Q 45.90625 62 47.546875 58.390625 
Q 49.203125 54.796875 50.09375 50.75 
Q 51 46.703125 51.296875 42.390625 
Q 51.59375 38.09375 51.59375 34 
Q 51.59375 27 50.59375 20.59375 
Q 49.59375 14.203125 46.9375 9.296875 
Q 44.296875 4.40625 39.6875 1.5 
Q 35.09375 -1.40625 27.796875 -1.40625 
Q 20.5 -1.40625 15.84375 1.5 
Q 11.203125 4.40625 8.546875 9.34375 
Q 5.90625 14.296875 4.90625 20.84375 
Q 3.90625 27.40625 3.90625 34.703125 
Q 3.90625 41.40625 4.796875 47.796875 
Q 5.703125 54.203125 8.25 59.25 
Q 10.796875 64.296875 15.5 67.390625 
Q 20.203125 70.5 27.796875 70.5 
z
" id="Helvetica-Light-48"/>
      </defs>
      <g transform="translate(33.19 128.110791)scale(0.08 -0.08)">
       <use xlink:href="#Helvetica-Light-48"/>
      </g>
     </g>
    </g>
    <g id="xtick_2">
     <g id="line2d_2">
      <g>
       <use style="stroke:#000000;stroke-width:0.35;" x="70.300697" xlink:href="#m253f4a1b5b" y="117.350791"/>
      </g>
     </g>
     <g id="text_2">
      <!-- 5 -->
      <defs>
       <path d="M 9.90625 18.296875 
Q 10.90625 11.09375 15.65625 7.546875 
Q 20.40625 4 27.296875 4 
Q 31.203125 4 34.34375 5.390625 
Q 37.5 6.796875 39.703125 9.25 
Q 41.90625 11.703125 43.046875 14.953125 
Q 44.203125 18.203125 44.203125 22 
Q 44.203125 25.90625 42.953125 29.203125 
Q 41.703125 32.5 39.453125 34.890625 
Q 37.203125 37.296875 33.953125 38.59375 
Q 30.703125 39.90625 26.703125 39.90625 
Q 21.90625 39.90625 18.09375 38.15625 
Q 14.296875 36.40625 11.40625 32.59375 
L 6.09375 33.296875 
L 11.796875 69.796875 
L 46.796875 69.796875 
L 46.796875 64.40625 
L 17.203125 64.40625 
L 12.796875 40.703125 
Q 14.90625 42 16.65625 42.890625 
Q 18.40625 43.796875 20.203125 44.34375 
Q 22 44.90625 23.953125 45.09375 
Q 25.90625 45.296875 28.296875 45.296875 
Q 33.09375 45.296875 37.1875 43.6875 
Q 41.296875 42.09375 44.296875 39.09375 
Q 47.296875 36.09375 48.9375 31.75 
Q 50.59375 27.40625 50.59375 22 
Q 50.59375 16.40625 48.75 12.046875 
Q 46.90625 7.703125 43.796875 4.703125 
Q 40.703125 1.703125 36.640625 0.140625 
Q 32.59375 -1.40625 28.296875 -1.40625 
Q 23.296875 -1.40625 18.9375 -0.40625 
Q 14.59375 0.59375 11.296875 2.9375 
Q 8 5.296875 5.953125 9.046875 
Q 3.90625 12.796875 3.5 18.296875 
z
" id="Helvetica-Light-53"/>
      </defs>
      <g transform="translate(68.076947 128.110791)scale(0.08 -0.08)">
       <use xlink:href="#Helvetica-Light-53"/>
      </g>
     </g>
    </g>
    <g id="xtick_3">
     <g id="line2d_3">
      <g>
       <use style="stroke:#000000;stroke-width:0.35;" x="105.187643" xlink:href="#m253f4a1b5b" y="117.350791"/>
      </g>
     </g>
     <g id="text_3">
      <!-- 10 -->
      <defs>
       <path d="M 30.203125 52.40625 
L 12 52.40625 
L 12 56.59375 
Q 16 56.90625 19.25 57.40625 
Q 22.5 57.90625 24.953125 59.296875 
Q 27.40625 60.703125 29.046875 63.34375 
Q 30.703125 66 31.5 70.5 
L 36.59375 70.5 
L 36.59375 0 
L 30.203125 0 
z
" id="Helvetica-Light-49"/>
      </defs>
      <g transform="translate(100.740143 128.110791)scale(0.08 -0.08)">
       <use xlink:href="#Helvetica-Light-49"/>
       <use x="55.599991" xlink:href="#Helvetica-Light-48"/>
      </g>
     </g>
    </g>
    <g id="xtick_4">
     <g id="line2d_4">
      <g>
       <use style="stroke:#000000;stroke-width:0.35;" x="140.07459" xlink:href="#m253f4a1b5b" y="117.350791"/>
      </g>
     </g>
     <g id="text_4">
      <!-- 15 -->
      <g transform="translate(135.62709 128.110791)scale(0.08 -0.08)">
       <use xlink:href="#Helvetica-Light-49"/>
       <use x="55.599991" xlink:href="#Helvetica-Light-53"/>
      </g>
     </g>
    </g>
    <g id="xtick_5">
     <g id="line2d_5">
      <g>
       <use style="stroke:#000000;stroke-width:0.35;" x="174.961536" xlink:href="#m253f4a1b5b" y="117.350791"/>
      </g>
     </g>
     <g id="text_5">
      <!-- 20 -->
      <defs>
       <path d="M 6.90625 47.40625 
Q 6.90625 52.59375 8.5 56.84375 
Q 10.09375 61.09375 13.09375 64.140625 
Q 16.09375 67.203125 20.34375 68.84375 
Q 24.59375 70.5 29.796875 70.5 
Q 35.09375 70.5 39.140625 68.953125 
Q 43.203125 67.40625 45.953125 64.796875 
Q 48.703125 62.203125 50.09375 58.59375 
Q 51.5 55 51.5 51 
Q 51.5 46.296875 49.953125 42.6875 
Q 48.40625 39.09375 45.84375 36.296875 
Q 43.296875 33.5 40.046875 31.296875 
Q 36.796875 29.09375 33.390625 27.140625 
Q 30 25.203125 26.703125 23.390625 
Q 23.40625 21.59375 20.796875 19.59375 
Q 19.09375 18.296875 17.5 16.84375 
Q 15.90625 15.40625 14.59375 13.703125 
Q 13.296875 12 12.5 9.953125 
Q 11.703125 7.90625 11.59375 5.40625 
L 50.90625 5.40625 
L 50.90625 0 
L 4.796875 0 
Q 4.90625 5.09375 5.90625 9.1875 
Q 6.90625 13.296875 10.296875 17.203125 
Q 14 21.40625 17.953125 24.40625 
Q 21.90625 27.40625 25.703125 29.75 
Q 29.5 32.09375 32.890625 34.046875 
Q 36.296875 36 38.890625 38.296875 
Q 41.5 40.59375 43 43.5 
Q 44.5 46.40625 44.5 50.59375 
Q 44.5 54 43.296875 56.703125 
Q 42.09375 59.40625 40 61.296875 
Q 37.90625 63.203125 35.09375 64.140625 
Q 32.296875 65.09375 29 65.09375 
Q 25.5 65.09375 22.640625 63.640625 
Q 19.796875 62.203125 17.75 59.796875 
Q 15.703125 57.40625 14.59375 54.203125 
Q 13.5 51 13.703125 47.40625 
z
" id="Helvetica-Light-50"/>
      </defs>
      <g transform="translate(170.514036 128.110791)scale(0.08 -0.08)">
       <use xlink:href="#Helvetica-Light-50"/>
       <use x="55.599991" xlink:href="#Helvetica-Light-48"/>
      </g>
     </g>
    </g>
    <g id="xtick_6">
     <g id="line2d_6">
      <g>
       <use style="stroke:#000000;stroke-width:0.35;" x="209.848483" xlink:href="#m253f4a1b5b" y="117.350791"/>
      </g>
     </g>
     <g id="text_6">
      <!-- 25 -->
      <g transform="translate(205.400983 128.110791)scale(0.08 -0.08)">
       <use xlink:href="#Helvetica-Light-50"/>
       <use x="55.599991" xlink:href="#Helvetica-Light-53"/>
      </g>
     </g>
    </g>
    <g id="text_7">
     <!-- Time   $t\cdot J$ -->
     <defs>
      <path d="M 1.59375 72 
L 54 72 
L 54 66.203125 
L 31.203125 66.203125 
L 31.203125 0 
L 24.40625 0 
L 24.40625 66.203125 
L 1.59375 66.203125 
z
" id="Helvetica-Light-84"/>
      <path d="M 8.09375 0 
L 8.09375 51.796875 
L 14.09375 51.796875 
L 14.09375 0 
z
M 7.796875 63.09375 
L 7.796875 72 
L 14.40625 72 
L 14.40625 63.09375 
z
" id="Helvetica-Light-105"/>
      <path d="M 12.40625 0 
L 6.40625 0 
L 6.40625 51.796875 
L 12.40625 51.796875 
L 12.40625 44 
L 12.59375 44 
Q 14.90625 48.5 19.203125 50.84375 
Q 23.5 53.203125 28.59375 53.203125 
Q 32.203125 53.203125 34.703125 52.390625 
Q 37.203125 51.59375 38.953125 50.25 
Q 40.703125 48.90625 41.84375 47.09375 
Q 43 45.296875 43.796875 43.203125 
Q 46.40625 48.296875 50.75 50.75 
Q 55.09375 53.203125 60.703125 53.203125 
Q 66 53.203125 69.140625 51.453125 
Q 72.296875 49.703125 74 46.84375 
Q 75.703125 44 76.25 40.296875 
Q 76.796875 36.59375 76.796875 32.703125 
L 76.796875 0 
L 70.796875 0 
L 70.796875 35.796875 
Q 70.796875 41.40625 68.4375 44.59375 
Q 66.09375 47.796875 59.703125 47.796875 
Q 56.40625 47.796875 53.34375 46.34375 
Q 50.296875 44.90625 48 41.90625 
Q 47 40.59375 46.34375 38.84375 
Q 45.703125 37.09375 45.296875 35.1875 
Q 44.90625 33.296875 44.75 31.390625 
Q 44.59375 29.5 44.59375 27.90625 
L 44.59375 0 
L 38.59375 0 
L 38.59375 35.796875 
Q 38.59375 41.40625 36.25 44.59375 
Q 33.90625 47.796875 27.5 47.796875 
Q 24.203125 47.796875 21.140625 46.34375 
Q 18.09375 44.90625 15.796875 41.90625 
Q 14.796875 40.59375 14.140625 38.84375 
Q 13.5 37.09375 13.09375 35.1875 
Q 12.703125 33.296875 12.546875 31.390625 
Q 12.40625 29.5 12.40625 27.90625 
z
" id="Helvetica-Light-109"/>
      <path d="M 44.703125 29.5 
Q 44.703125 33.296875 43.640625 36.640625 
Q 42.59375 40 40.546875 42.453125 
Q 38.5 44.90625 35.390625 46.34375 
Q 32.296875 47.796875 28.296875 47.796875 
Q 24.296875 47.796875 21.25 46.296875 
Q 18.203125 44.796875 16.046875 42.296875 
Q 13.90625 39.796875 12.59375 36.5 
Q 11.296875 33.203125 10.90625 29.5 
z
M 10.90625 24.5 
Q 10.90625 20.296875 12 16.546875 
Q 13.09375 12.796875 15.25 10.046875 
Q 17.40625 7.296875 20.703125 5.640625 
Q 24 4 28.296875 4 
Q 34.203125 4 38.390625 7.09375 
Q 42.59375 10.203125 44 15.90625 
L 50.703125 15.90625 
Q 49.59375 12.203125 47.796875 9.046875 
Q 46 5.90625 43.296875 3.546875 
Q 40.59375 1.203125 36.890625 -0.09375 
Q 33.203125 -1.40625 28.296875 -1.40625 
Q 22.09375 -1.40625 17.59375 0.6875 
Q 13.09375 2.796875 10.1875 6.4375 
Q 7.296875 10.09375 5.890625 15.046875 
Q 4.5 20 4.5 25.703125 
Q 4.5 31.40625 6.140625 36.40625 
Q 7.796875 41.40625 10.84375 45.15625 
Q 13.90625 48.90625 18.296875 51.046875 
Q 22.703125 53.203125 28.296875 53.203125 
Q 39 53.203125 45.09375 45.84375 
Q 51.203125 38.5 51.09375 24.5 
z
" id="Helvetica-Light-101"/>
      <path id="Helvetica-Light-32"/>
      <path d="M 25.40625 -0.203125 
Q 24.296875 -0.40625 22.34375 -0.90625 
Q 20.40625 -1.40625 18.203125 -1.40625 
Q 13.703125 -1.40625 11.84375 0.84375 
Q 10 3.09375 11.203125 8.90625 
L 19.203125 46.796875 
L 11.90625 46.796875 
L 13 51.796875 
L 20.296875 51.796875 
L 23.40625 66.203125 
L 29.40625 66.203125 
L 26.296875 51.796875 
L 36 51.796875 
L 34.90625 46.796875 
L 25.203125 46.796875 
L 17.703125 11.296875 
Q 17.296875 9.40625 17.09375 8 
Q 16.90625 6.59375 17.25 5.6875 
Q 17.59375 4.796875 18.546875 4.390625 
Q 19.5 4 21.40625 4 
Q 22.59375 4 23.84375 4.203125 
Q 25.09375 4.40625 26.40625 4.703125 
z
" id="Helvetica-LightOblique-116"/>
      <path d="M 16.796875 31.296875 
Q 20.296875 27.703125 20.296875 25.296875 
Q 20.296875 22.90625 18.546875 21.09375 
Q 16.796875 19.296875 14.390625 19.296875 
Q 12 19.296875 10.140625 21.140625 
Q 8.296875 23 8.296875 25.296875 
Q 8.296875 27.59375 10.140625 29.4375 
Q 12 31.296875 14.390625 31.296875 
Q 16.796875 31.296875 20.296875 27.703125 
z
" id="STIXGeneral-Regular-8901"/>
      <path d="M 13.796875 22.796875 
Q 13 19.40625 12.59375 16.09375 
Q 12.203125 12.796875 12.890625 10.140625 
Q 13.59375 7.5 15.890625 5.890625 
Q 18.203125 4.296875 22.90625 4.296875 
Q 29.90625 4.296875 33.59375 8.296875 
Q 37.296875 12.296875 38.90625 19.90625 
L 50 72 
L 56.796875 72 
L 45.703125 19.703125 
Q 43.40625 9.203125 37.34375 3.640625 
Q 31.296875 -1.90625 20.796875 -1.90625 
Q 14.703125 -1.90625 11.390625 0.140625 
Q 8.09375 2.203125 6.796875 5.640625 
Q 5.5 9.09375 5.75 13.546875 
Q 6 18 7 22.796875 
z
" id="Helvetica-LightOblique-74"/>
     </defs>
     <g transform="translate(115.84607 137.503291)scale(0.08 -0.08)">
      <use xlink:href="#Helvetica-Light-84"/>
      <use transform="translate(55.599991 0)" xlink:href="#Helvetica-Light-105"/>
      <use transform="translate(77.799988 0)" xlink:href="#Helvetica-Light-109"/>
      <use transform="translate(161.099976 0)" xlink:href="#Helvetica-Light-101"/>
      <use transform="translate(216.699966 0)" xlink:href="#Helvetica-Light-32"/>
      <use transform="translate(244.499954 0)" xlink:href="#Helvetica-Light-32"/>
      <use transform="translate(272.299942 0)" xlink:href="#Helvetica-Light-32"/>
      <use transform="translate(300.09993 0)" xlink:href="#Helvetica-LightOblique-116"/>
      <use transform="translate(344.559915 0)" xlink:href="#STIXGeneral-Regular-8901"/>
      <use transform="translate(389.819904 0)" xlink:href="#Helvetica-LightOblique-74"/>
     </g>
    </g>
   </g>
   <g id="matplotlib.axis_2">
    <g id="ytick_1">
     <g id="line2d_7">
      <defs>
       <path d="M 0 0 
L -2 0 
" id="me386aedab1" style="stroke:#000000;stroke-width:0.35;"/>
      </defs>
      <g>
       <use style="stroke:#000000;stroke-width:0.35;" x="35.41375" xlink:href="#me386aedab1" y="117.350791"/>
      </g>
     </g>
     <g id="text_8">
      <!-- 0.000 -->
      <defs>
       <path d="M 10.203125 0 
L 10.203125 8.796875 
L 17.5 8.796875 
L 17.5 0 
z
" id="Helvetica-Light-46"/>
      </defs>
      <g transform="translate(10.4 120.230791)scale(0.08 -0.08)">
       <use xlink:href="#Helvetica-Light-48"/>
       <use x="55.599991" xlink:href="#Helvetica-Light-46"/>
       <use x="83.399979" xlink:href="#Helvetica-Light-48"/>
       <use x="138.999969" xlink:href="#Helvetica-Light-48"/>
       <use x="194.59996" xlink:href="#Helvetica-Light-48"/>
      </g>
     </g>
    </g>
    <g id="ytick_2">
     <g id="line2d_8">
      <g>
       <use style="stroke:#000000;stroke-width:0.35;" x="35.41375" xlink:href="#me386aedab1" y="97.067175"/>
      </g>
     </g>
     <g id="text_9">
      <!-- 0.002 -->
      <g transform="translate(10.4 99.947175)scale(0.08 -0.08)">
       <use xlink:href="#Helvetica-Light-48"/>
       <use x="55.599991" xlink:href="#Helvetica-Light-46"/>
       <use x="83.399979" xlink:href="#Helvetica-Light-48"/>
       <use x="138.999969" xlink:href="#Helvetica-Light-48"/>
       <use x="194.59996" xlink:href="#Helvetica-Light-50"/>
      </g>
     </g>
    </g>
    <g id="ytick_3">
     <g id="line2d_9">
      <g>
       <use style="stroke:#000000;stroke-width:0.35;" x="35.41375" xlink:href="#me386aedab1" y="76.783559"/>
      </g>
     </g>
     <g id="text_10">
      <!-- 0.004 -->
      <defs>
       <path d="M 35.796875 17.40625 
L 3.59375 17.40625 
L 3.59375 22.90625 
L 36.40625 69.796875 
L 42.203125 69.796875 
L 42.203125 22.796875 
L 52 22.796875 
L 52 17.40625 
L 42.203125 17.40625 
L 42.203125 0 
L 35.796875 0 
z
M 9.90625 22.796875 
L 35.796875 22.796875 
L 35.796875 60.203125 
z
" id="Helvetica-Light-52"/>
      </defs>
      <g transform="translate(10.4 79.663559)scale(0.08 -0.08)">
       <use xlink:href="#Helvetica-Light-48"/>
       <use x="55.599991" xlink:href="#Helvetica-Light-46"/>
       <use x="83.399979" xlink:href="#Helvetica-Light-48"/>
       <use x="138.999969" xlink:href="#Helvetica-Light-48"/>
       <use x="194.59996" xlink:href="#Helvetica-Light-52"/>
      </g>
     </g>
    </g>
    <g id="ytick_4">
     <g id="line2d_10">
      <g>
       <use style="stroke:#000000;stroke-width:0.35;" x="35.41375" xlink:href="#me386aedab1" y="56.499944"/>
      </g>
     </g>
     <g id="text_11">
      <!-- 0.006 -->
      <defs>
       <path d="M 43.703125 53.203125 
Q 42.59375 58.59375 39.296875 61.84375 
Q 36 65.09375 30.296875 65.09375 
Q 23.796875 65.09375 20.046875 62 
Q 16.296875 58.90625 14.296875 54.15625 
Q 12.296875 49.40625 11.59375 43.796875 
Q 10.90625 38.203125 10.5 33.203125 
Q 12 35.203125 13.640625 37.203125 
Q 15.296875 39.203125 17.390625 40.75 
Q 19.5 42.296875 22.296875 43.25 
Q 25.09375 44.203125 29 44.203125 
Q 39.703125 44.203125 45.546875 38.140625 
Q 51.40625 32.09375 51.40625 21.5 
Q 51.40625 10.796875 45.5 4.6875 
Q 39.59375 -1.40625 28.796875 -1.40625 
Q 23.5 -1.40625 19 0.34375 
Q 14.5 2.09375 11.203125 6.09375 
Q 7.90625 10.09375 6 16.546875 
Q 4.09375 23 4.09375 32.296875 
Q 4.09375 38.59375 5.1875 45.34375 
Q 6.296875 52.09375 9.140625 57.6875 
Q 12 63.296875 16.953125 66.890625 
Q 21.90625 70.5 29.703125 70.5 
Q 38.09375 70.5 43.6875 66.09375 
Q 49.296875 61.703125 50.296875 53.203125 
z
M 28.796875 38.796875 
Q 25.09375 38.796875 22.140625 37.390625 
Q 19.203125 36 17.140625 33.59375 
Q 15.09375 31.203125 14 28.046875 
Q 12.90625 24.90625 12.90625 21.296875 
Q 12.90625 18.296875 13.75 15.25 
Q 14.59375 12.203125 16.546875 9.703125 
Q 18.5 7.203125 21.5 5.59375 
Q 24.5 4 28.90625 4 
Q 33.40625 4 36.453125 5.546875 
Q 39.5 7.09375 41.390625 9.640625 
Q 43.296875 12.203125 44.140625 15.34375 
Q 45 18.5 45 21.703125 
Q 45 29.90625 41.046875 34.34375 
Q 37.09375 38.796875 28.796875 38.796875 
z
" id="Helvetica-Light-54"/>
      </defs>
      <g transform="translate(10.4 59.379944)scale(0.08 -0.08)">
       <use xlink:href="#Helvetica-Light-48"/>
       <use x="55.599991" xlink:href="#Helvetica-Light-46"/>
       <use x="83.399979" xlink:href="#Helvetica-Light-48"/>
       <use x="138.999969" xlink:href="#Helvetica-Light-48"/>
       <use x="194.59996" xlink:href="#Helvetica-Light-54"/>
      </g>
     </g>
    </g>
    <g id="ytick_5">
     <g id="line2d_11">
      <g>
       <use style="stroke:#000000;stroke-width:0.35;" x="35.41375" xlink:href="#me386aedab1" y="36.216328"/>
      </g>
     </g>
     <g id="text_12">
      <!-- 0.008 -->
      <defs>
       <path d="M 27.90625 34.5 
Q 24.203125 34.5 21.09375 33.59375 
Q 18 32.703125 15.703125 30.84375 
Q 13.40625 29 12.09375 26.140625 
Q 10.796875 23.296875 10.796875 19.40625 
Q 10.796875 16.09375 12.046875 13.296875 
Q 13.296875 10.5 15.546875 8.453125 
Q 17.796875 6.40625 21.046875 5.203125 
Q 24.296875 4 28.296875 4 
Q 31.796875 4 34.796875 5.140625 
Q 37.796875 6.296875 40.046875 8.390625 
Q 42.296875 10.5 43.546875 13.390625 
Q 44.796875 16.296875 44.796875 19.796875 
Q 44.796875 23.5 43.5 26.25 
Q 42.203125 29 39.890625 30.84375 
Q 37.59375 32.703125 34.5 33.59375 
Q 31.40625 34.5 27.90625 34.5 
z
M 27.59375 65.09375 
Q 24.59375 65.09375 22 64.296875 
Q 19.40625 63.5 17.453125 61.890625 
Q 15.5 60.296875 14.390625 57.890625 
Q 13.296875 55.5 13.296875 52.40625 
Q 13.296875 49.09375 14.546875 46.75 
Q 15.796875 44.40625 17.890625 42.90625 
Q 20 41.40625 22.703125 40.65625 
Q 25.40625 39.90625 28.296875 39.90625 
Q 31.203125 39.90625 33.703125 40.65625 
Q 36.203125 41.40625 38 43.09375 
Q 39.796875 44.796875 40.84375 47.390625 
Q 41.90625 50 41.90625 53.796875 
Q 41.90625 59.203125 38.40625 62.140625 
Q 34.90625 65.09375 27.59375 65.09375 
z
M 16.703125 37.90625 
Q 14.09375 39.5 12.25 40.953125 
Q 10.40625 42.40625 9.203125 44.09375 
Q 8 45.796875 7.453125 47.9375 
Q 6.90625 50.09375 6.90625 53.296875 
Q 6.90625 56.90625 8.5 60.09375 
Q 10.09375 63.296875 12.796875 65.640625 
Q 15.5 68 19.140625 69.296875 
Q 22.796875 70.59375 27 70.5 
Q 31 70.5 34.84375 69.5 
Q 38.703125 68.5 41.703125 66.390625 
Q 44.703125 64.296875 46.5 61.046875 
Q 48.296875 57.796875 48.296875 53.296875 
Q 48.296875 47.796875 46.046875 43.890625 
Q 43.796875 40 38.703125 37.5 
Q 44.5 35.40625 47.84375 30.796875 
Q 51.203125 26.203125 51.203125 20 
Q 51.203125 14.796875 49.453125 10.796875 
Q 47.703125 6.796875 44.453125 4.09375 
Q 41.203125 1.40625 36.59375 0 
Q 32 -1.40625 26.40625 -1.40625 
Q 22.59375 -1.40625 18.640625 -0.09375 
Q 14.703125 1.203125 11.546875 3.796875 
Q 8.40625 6.40625 6.40625 10.296875 
Q 4.40625 14.203125 4.40625 19.40625 
Q 4.40625 25.703125 7.546875 30.640625 
Q 10.703125 35.59375 16.703125 37.90625 
z
" id="Helvetica-Light-56"/>
      </defs>
      <g transform="translate(10.4 39.096328)scale(0.08 -0.08)">
       <use xlink:href="#Helvetica-Light-48"/>
       <use x="55.599991" xlink:href="#Helvetica-Light-46"/>
       <use x="83.399979" xlink:href="#Helvetica-Light-48"/>
       <use x="138.999969" xlink:href="#Helvetica-Light-48"/>
       <use x="194.59996" xlink:href="#Helvetica-Light-56"/>
      </g>
     </g>
    </g>
    <g id="ytick_6">
     <g id="line2d_12">
      <g>
       <use style="stroke:#000000;stroke-width:0.35;" x="35.41375" xlink:href="#me386aedab1" y="15.932712"/>
      </g>
     </g>
     <g id="text_13">
      <!-- 0.010 -->
      <g transform="translate(10.4 18.812712)scale(0.08 -0.08)">
       <use xlink:href="#Helvetica-Light-48"/>
       <use x="55.599991" xlink:href="#Helvetica-Light-46"/>
       <use x="83.399979" xlink:href="#Helvetica-Light-48"/>
       <use x="138.999969" xlink:href="#Helvetica-Light-49"/>
       <use x="194.59996" xlink:href="#Helvetica-Light-48"/>
      </g>
     </g>
    </g>
    <g id="text_14">
     <!-- Entanglement Entropy  $\Delta S(t) / n$ -->
     <defs>
      <path d="M 8.09375 0 
L 8.09375 72 
L 56 72 
L 56 66.203125 
L 14.90625 66.203125 
L 14.90625 40.203125 
L 52 40.203125 
L 52 34.40625 
L 14.90625 34.40625 
L 14.90625 5.796875 
L 57 5.796875 
L 57 0 
z
" id="Helvetica-Light-69"/>
      <path d="M 13.203125 0 
L 7.203125 0 
L 7.203125 51.796875 
L 13.203125 51.796875 
L 13.203125 44.59375 
Q 16.796875 48.40625 20.640625 50.796875 
Q 24.5 53.203125 29.90625 53.203125 
Q 34.703125 53.203125 38.796875 51.546875 
Q 42.90625 49.90625 45.703125 45.796875 
Q 47.59375 43 47.9375 40.046875 
Q 48.296875 37.09375 48.296875 33.90625 
L 48.296875 0 
L 42.296875 0 
L 42.296875 33.796875 
Q 42.296875 40.796875 39.1875 44.296875 
Q 36.09375 47.796875 28.90625 47.796875 
Q 26.09375 47.796875 23.796875 46.9375 
Q 21.5 46.09375 19.640625 44.6875 
Q 17.796875 43.296875 16.5 41.5 
Q 15.203125 39.703125 14.5 37.703125 
Q 13.59375 35.203125 13.390625 32.890625 
Q 13.203125 30.59375 13.203125 27.90625 
z
" id="Helvetica-Light-110"/>
      <path d="M 25.40625 -0.203125 
Q 24.296875 -0.40625 22.5 -0.90625 
Q 20.703125 -1.40625 18.5 -1.40625 
Q 14 -1.40625 11.640625 0.84375 
Q 9.296875 3.09375 9.296875 8.90625 
L 9.296875 46.796875 
L 2 46.796875 
L 2 51.796875 
L 9.296875 51.796875 
L 9.296875 66.203125 
L 15.296875 66.203125 
L 15.296875 51.796875 
L 25 51.796875 
L 25 46.796875 
L 15.296875 46.796875 
L 15.296875 11.296875 
Q 15.296875 9.40625 15.390625 8 
Q 15.5 6.59375 16 5.6875 
Q 16.5 4.796875 17.546875 4.390625 
Q 18.59375 4 20.5 4 
Q 21.703125 4 22.953125 4.203125 
Q 24.203125 4.40625 25.40625 4.703125 
z
" id="Helvetica-Light-116"/>
      <path d="M 41.09375 27.203125 
Q 37.296875 25.59375 33.390625 25.09375 
Q 29.5 24.59375 25.59375 24.296875 
Q 18.703125 23.796875 14.84375 21.1875 
Q 11 18.59375 11 13.296875 
Q 11 10.90625 11.953125 9.15625 
Q 12.90625 7.40625 14.453125 6.25 
Q 16 5.09375 18.046875 4.546875 
Q 20.09375 4 22.203125 4 
Q 25.796875 4 29.1875 4.890625 
Q 32.59375 5.796875 35.25 7.640625 
Q 37.90625 9.5 39.5 12.34375 
Q 41.09375 15.203125 41.09375 19.09375 
z
M 31 30.203125 
Q 32.703125 30.40625 35.046875 30.796875 
Q 37.40625 31.203125 38.90625 31.90625 
Q 40.40625 32.59375 40.75 34.25 
Q 41.09375 35.90625 41.09375 37.296875 
Q 41.09375 41.90625 38.140625 44.84375 
Q 35.203125 47.796875 28.203125 47.796875 
Q 25.09375 47.796875 22.5 47.25 
Q 19.90625 46.703125 17.953125 45.34375 
Q 16 44 14.75 41.75 
Q 13.5 39.5 13.09375 36.09375 
L 7 36.09375 
Q 7.296875 40.703125 9.09375 43.953125 
Q 10.90625 47.203125 13.75 49.25 
Q 16.59375 51.296875 20.34375 52.25 
Q 24.09375 53.203125 28.296875 53.203125 
Q 32.203125 53.203125 35.640625 52.34375 
Q 39.09375 51.5 41.640625 49.640625 
Q 44.203125 47.796875 45.640625 44.6875 
Q 47.09375 41.59375 47.09375 37.09375 
L 47.09375 8.90625 
Q 47.09375 5.40625 48.34375 4.453125 
Q 49.59375 3.5 53.40625 4.90625 
L 53.40625 0.203125 
Q 52.703125 0 51.34375 -0.390625 
Q 50 -0.796875 48.703125 -0.796875 
Q 47.296875 -0.796875 46 -0.5 
Q 44.5 -0.296875 43.59375 0.453125 
Q 42.703125 1.203125 42.140625 2.25 
Q 41.59375 3.296875 41.390625 4.546875 
Q 41.203125 5.796875 41.203125 7.203125 
Q 37.40625 3 32.5 0.796875 
Q 27.59375 -1.40625 21.90625 -1.40625 
Q 18.5 -1.40625 15.34375 -0.5 
Q 12.203125 0.40625 9.796875 2.296875 
Q 7.40625 4.203125 6 6.953125 
Q 4.59375 9.703125 4.59375 13.5 
Q 4.59375 26.703125 22.703125 29.09375 
z
" id="Helvetica-Light-97"/>
      <path d="M 47.203125 25.703125 
Q 47.203125 30.40625 46.046875 34.453125 
Q 44.90625 38.5 42.703125 41.453125 
Q 40.5 44.40625 37.203125 46.09375 
Q 33.90625 47.796875 29.703125 47.796875 
Q 25.90625 47.796875 22.703125 46.4375 
Q 19.5 45.09375 17.09375 42.5 
Q 14.703125 39.90625 13.34375 36.15625 
Q 12 32.40625 12 27.5 
Q 11.796875 22.59375 12.796875 18.34375 
Q 13.796875 14.09375 16 10.890625 
Q 18.203125 7.703125 21.59375 5.84375 
Q 25 4 29.703125 4 
Q 33.796875 4 37.046875 5.75 
Q 40.296875 7.5 42.546875 10.453125 
Q 44.796875 13.40625 46 17.34375 
Q 47.203125 21.296875 47.203125 25.703125 
z
M 47.203125 51.796875 
L 53.203125 51.796875 
L 53.203125 5 
Q 53.203125 -0.203125 52.140625 -4.953125 
Q 51.09375 -9.703125 48.390625 -13.296875 
Q 45.703125 -16.90625 41 -19.046875 
Q 36.296875 -21.203125 28.90625 -21.203125 
Q 23.203125 -21.203125 19.09375 -19.75 
Q 15 -18.296875 12.390625 -16.09375 
Q 9.796875 -13.90625 8.4375 -11.25 
Q 7.09375 -8.59375 7 -6.296875 
L 13.40625 -6.296875 
Q 14.09375 -9.203125 15.59375 -11.046875 
Q 17.09375 -12.90625 19.140625 -13.953125 
Q 21.203125 -15 23.703125 -15.390625 
Q 26.203125 -15.796875 28.90625 -15.796875 
Q 35 -15.796875 38.703125 -13.6875 
Q 42.40625 -11.59375 44.296875 -8.1875 
Q 46.203125 -4.796875 46.75 -0.5 
Q 47.296875 3.796875 47.203125 8.296875 
Q 44.296875 3.5 39.25 1.046875 
Q 34.203125 -1.40625 28.703125 -1.40625 
Q 22.796875 -1.40625 18.4375 0.84375 
Q 14.09375 3.09375 11.25 6.84375 
Q 8.40625 10.59375 7 15.59375 
Q 5.59375 20.59375 5.59375 26 
Q 5.59375 31.703125 6.890625 36.703125 
Q 8.203125 41.703125 11.046875 45.34375 
Q 13.90625 49 18.296875 51.09375 
Q 22.703125 53.203125 29 53.203125 
Q 31.5 53.203125 34.09375 52.5 
Q 36.703125 51.796875 39.140625 50.5 
Q 41.59375 49.203125 43.640625 47.203125 
Q 45.703125 45.203125 47 42.703125 
L 47.203125 42.703125 
z
" id="Helvetica-Light-103"/>
      <path d="M 8.09375 0 
L 8.09375 72 
L 14.09375 72 
L 14.09375 0 
z
" id="Helvetica-Light-108"/>
      <path d="M 13.5 0 
L 7.5 0 
L 7.5 51.796875 
L 13.5 51.796875 
L 13.5 42.09375 
L 13.703125 42.09375 
Q 16.203125 48.296875 20.140625 50.75 
Q 24.09375 53.203125 30.59375 53.203125 
L 30.59375 46.703125 
Q 25.5 46.796875 22.203125 45.09375 
Q 18.90625 43.40625 16.953125 40.5 
Q 15 37.59375 14.25 33.640625 
Q 13.5 29.703125 13.5 25.40625 
z
" id="Helvetica-Light-114"/>
      <path d="M 27.796875 -1.40625 
Q 22.796875 -1.296875 18.4375 0.390625 
Q 14.09375 2.09375 10.84375 5.5 
Q 7.59375 8.90625 5.6875 14 
Q 3.796875 19.09375 3.796875 25.90625 
Q 3.796875 31.59375 5.296875 36.546875 
Q 6.796875 41.5 9.796875 45.203125 
Q 12.796875 48.90625 17.296875 51.046875 
Q 21.796875 53.203125 27.796875 53.203125 
Q 33.90625 53.203125 38.40625 51.046875 
Q 42.90625 48.90625 45.90625 45.25 
Q 48.90625 41.59375 50.34375 36.59375 
Q 51.796875 31.59375 51.796875 25.90625 
Q 51.796875 19.703125 50.09375 14.703125 
Q 48.40625 9.703125 45.25 6.09375 
Q 42.09375 2.5 37.640625 0.546875 
Q 33.203125 -1.40625 27.796875 -1.40625 
z
M 45.40625 25.90625 
Q 45.40625 30.5 44.40625 34.5 
Q 43.40625 38.5 41.296875 41.453125 
Q 39.203125 44.40625 35.890625 46.09375 
Q 32.59375 47.796875 27.796875 47.796875 
Q 23.09375 47.796875 19.75 45.9375 
Q 16.40625 44.09375 14.296875 41.046875 
Q 12.203125 38 11.203125 34.046875 
Q 10.203125 30.09375 10.203125 25.90625 
Q 10.203125 21.09375 11.34375 17.046875 
Q 12.5 13 14.703125 10.09375 
Q 16.90625 7.203125 20.203125 5.59375 
Q 23.5 4 27.796875 4 
Q 32.5 4 35.84375 5.84375 
Q 39.203125 7.703125 41.296875 10.796875 
Q 43.40625 13.90625 44.40625 17.796875 
Q 45.40625 21.703125 45.40625 25.90625 
z
" id="Helvetica-Light-111"/>
      <path d="M 13.90625 25.703125 
Q 13.90625 21.296875 15.09375 17.34375 
Q 16.296875 13.40625 18.546875 10.453125 
Q 20.796875 7.5 24.046875 5.75 
Q 27.296875 4 31.40625 4 
Q 36 4 39.453125 5.84375 
Q 42.90625 7.703125 45.09375 10.890625 
Q 47.296875 14.09375 48.296875 18.34375 
Q 49.296875 22.59375 49.09375 27.5 
Q 49.09375 32.40625 47.75 36.15625 
Q 46.40625 39.90625 44 42.5 
Q 41.59375 45.09375 38.390625 46.4375 
Q 35.203125 47.796875 31.40625 47.796875 
Q 27.203125 47.796875 23.890625 46.09375 
Q 20.59375 44.40625 18.390625 41.453125 
Q 16.203125 38.5 15.046875 34.453125 
Q 13.90625 30.40625 13.90625 25.703125 
z
M 13.90625 -20.40625 
L 7.90625 -20.40625 
L 7.90625 51.796875 
L 13.90625 51.796875 
L 13.90625 42.703125 
L 14.09375 42.703125 
Q 15.40625 45.203125 17.453125 47.203125 
Q 19.5 49.203125 21.953125 50.5 
Q 24.40625 51.796875 27 52.5 
Q 29.59375 53.203125 32.09375 53.203125 
Q 38.40625 53.203125 42.796875 51.09375 
Q 47.203125 49 50.046875 45.34375 
Q 52.90625 41.703125 54.203125 36.703125 
Q 55.5 31.703125 55.5 26 
Q 55.5 20.59375 54.09375 15.59375 
Q 52.703125 10.59375 49.84375 6.84375 
Q 47 3.09375 42.640625 0.84375 
Q 38.296875 -1.40625 32.40625 -1.40625 
Q 26.90625 -1.40625 21.84375 1.046875 
Q 16.796875 3.5 13.90625 8.296875 
z
" id="Helvetica-Light-112"/>
      <path d="M 6.796875 -14.09375 
Q 8 -14.296875 9.25 -14.5 
Q 10.5 -14.703125 11.796875 -14.703125 
Q 14.296875 -14.703125 15.890625 -13.09375 
Q 17.5 -11.5 18.546875 -9.25 
Q 19.59375 -7 20.296875 -4.546875 
Q 21 -2.09375 21.90625 -0.40625 
L 1.796875 51.796875 
L 8.5 51.796875 
L 25.09375 7.296875 
L 41.703125 51.796875 
L 48.203125 51.796875 
L 28.90625 0.703125 
Q 27.09375 -4.203125 25.4375 -8.09375 
Q 23.796875 -12 21.9375 -14.75 
Q 20.09375 -17.5 17.84375 -18.953125 
Q 15.59375 -20.40625 12.5 -20.40625 
Q 10.90625 -20.40625 9.453125 -20.203125 
Q 8 -20 6.796875 -19.703125 
z
" id="Helvetica-Light-121"/>
      <path d="M 33.296875 63 
L 12 7.203125 
L 55 7.203125 
z
M 1.296875 0 
L 29.203125 71.40625 
L 37.5 71.40625 
L 66.203125 0 
z
" id="Helvetica-Light-916"/>
      <path d="M 15.5 21.5 
Q 14.90625 16.703125 15.90625 13.34375 
Q 16.90625 10 19.203125 7.890625 
Q 21.5 5.796875 24.890625 4.84375 
Q 28.296875 3.90625 32.40625 3.90625 
Q 37.203125 3.90625 40.953125 5.09375 
Q 44.703125 6.296875 47.34375 8.34375 
Q 50 10.40625 51.640625 13.09375 
Q 53.296875 15.796875 53.90625 18.796875 
Q 54.796875 23 53.4375 25.59375 
Q 52.09375 28.203125 49.34375 29.84375 
Q 46.59375 31.5 42.890625 32.5 
Q 39.203125 33.5 35.296875 34.453125 
Q 31.40625 35.40625 27.703125 36.703125 
Q 24 38 21.390625 40.203125 
Q 18.796875 42.40625 17.640625 45.84375 
Q 16.5 49.296875 17.59375 54.59375 
Q 18.40625 58.296875 20.703125 61.796875 
Q 23 65.296875 26.59375 68 
Q 30.203125 70.703125 35.140625 72.296875 
Q 40.09375 73.90625 46.09375 73.90625 
Q 52.203125 73.90625 56.34375 72.203125 
Q 60.5 70.5 62.890625 67.546875 
Q 65.296875 64.59375 66 60.6875 
Q 66.703125 56.796875 65.703125 52.40625 
L 59.203125 52.40625 
Q 60.09375 56.5 59.25 59.5 
Q 58.40625 62.5 56.40625 64.390625 
Q 54.40625 66.296875 51.34375 67.1875 
Q 48.296875 68.09375 44.90625 68.09375 
Q 39.703125 68.09375 35.84375 66.640625 
Q 32 65.203125 29.390625 62.890625 
Q 26.796875 60.59375 25.390625 57.796875 
Q 24 55 23.90625 52.203125 
Q 23.703125 48.703125 25.453125 46.59375 
Q 27.203125 44.5 30.09375 43.140625 
Q 33 41.796875 36.703125 40.9375 
Q 40.40625 40.09375 44.203125 39.140625 
Q 48 38.203125 51.5 36.890625 
Q 55 35.59375 57.390625 33.390625 
Q 59.796875 31.203125 60.84375 27.75 
Q 61.90625 24.296875 60.796875 19.09375 
Q 58.703125 9.09375 50.59375 3.59375 
Q 42.5 -1.90625 30 -1.90625 
Q 24.40625 -1.90625 19.90625 -0.453125 
Q 15.40625 1 12.546875 3.953125 
Q 9.703125 6.90625 8.703125 11.25 
Q 7.703125 15.59375 8.90625 21.5 
z
" id="Helvetica-LightOblique-83"/>
      <path d="M 27.703125 73.90625 
Q 20.5 63.5 16.453125 51.640625 
Q 12.40625 39.796875 12.40625 27.09375 
Q 12.40625 14.59375 16.59375 2.890625 
Q 20.796875 -8.796875 27.703125 -19.09375 
L 22.59375 -19.09375 
Q 18.5 -13.40625 15.296875 -8.046875 
Q 12.09375 -2.703125 9.890625 2.84375 
Q 7.703125 8.40625 6.59375 14.453125 
Q 5.5 20.5 5.5 27.59375 
Q 5.5 34.5 6.640625 40.546875 
Q 7.796875 46.59375 10 52.1875 
Q 12.203125 57.796875 15.34375 63.140625 
Q 18.5 68.5 22.59375 73.90625 
z
" id="Helvetica-Light-40"/>
      <path d="M 5.59375 -19.09375 
Q 12.796875 -8.703125 16.84375 3.140625 
Q 20.90625 15 20.90625 27.703125 
Q 20.90625 40.203125 16.703125 51.890625 
Q 12.5 63.59375 5.59375 73.90625 
L 10.703125 73.90625 
Q 14.796875 68.203125 18 62.84375 
Q 21.203125 57.5 23.34375 51.953125 
Q 25.5 46.40625 26.640625 40.34375 
Q 27.796875 34.296875 27.796875 27.203125 
Q 27.796875 20.296875 26.640625 14.25 
Q 25.5 8.203125 23.296875 2.59375 
Q 21.09375 -3 17.890625 -8.34375 
Q 14.703125 -13.703125 10.703125 -19.09375 
z
" id="Helvetica-Light-41"/>
      <path d="M 5.296875 -9 
L -0.296875 -9 
L 23.203125 73.90625 
L 28.796875 73.90625 
z
" id="Helvetica-Light-47"/>
      <path d="M 13.203125 0 
L 7.203125 0 
L 18.203125 51.796875 
L 24.203125 51.796875 
L 22.703125 44.59375 
Q 27.09375 48.40625 31.4375 50.796875 
Q 35.796875 53.203125 41.203125 53.203125 
Q 46 53.203125 49.75 51.546875 
Q 53.5 49.90625 55.40625 45.796875 
Q 56.703125 43 56.453125 40.046875 
Q 56.203125 37.09375 55.5 33.90625 
L 48.296875 0 
L 42.296875 0 
L 49.5 33.796875 
Q 51 40.796875 48.640625 44.296875 
Q 46.296875 47.796875 39.09375 47.796875 
Q 36.296875 47.796875 33.796875 46.9375 
Q 31.296875 46.09375 29.140625 44.6875 
Q 27 43.296875 25.296875 41.5 
Q 23.59375 39.703125 22.5 37.703125 
Q 21.09375 35.203125 20.390625 32.890625 
Q 19.703125 30.59375 19.09375 27.90625 
z
" id="Helvetica-LightOblique-110"/>
     </defs>
     <g transform="translate(6.64 113.115396)rotate(-90)scale(0.08 -0.08)">
      <use transform="translate(0 0.09375)" xlink:href="#Helvetica-Light-69"/>
      <use transform="translate(61.099991 0.09375)" xlink:href="#Helvetica-Light-110"/>
      <use transform="translate(116.699982 0.09375)" xlink:href="#Helvetica-Light-116"/>
      <use transform="translate(144.499969 0.09375)" xlink:href="#Helvetica-Light-97"/>
      <use transform="translate(200.09996 0.09375)" xlink:href="#Helvetica-Light-110"/>
      <use transform="translate(255.699951 0.09375)" xlink:href="#Helvetica-Light-103"/>
      <use transform="translate(316.799942 0.09375)" xlink:href="#Helvetica-Light-108"/>
      <use transform="translate(338.999939 0.09375)" xlink:href="#Helvetica-Light-101"/>
      <use transform="translate(394.59993 0.09375)" xlink:href="#Helvetica-Light-109"/>
      <use transform="translate(477.899918 0.09375)" xlink:href="#Helvetica-Light-101"/>
      <use transform="translate(533.499908 0.09375)" xlink:href="#Helvetica-Light-110"/>
      <use transform="translate(589.099899 0.09375)" xlink:href="#Helvetica-Light-116"/>
      <use transform="translate(616.899887 0.09375)" xlink:href="#Helvetica-Light-32"/>
      <use transform="translate(644.699875 0.09375)" xlink:href="#Helvetica-Light-69"/>
      <use transform="translate(705.799866 0.09375)" xlink:href="#Helvetica-Light-110"/>
      <use transform="translate(761.399857 0.09375)" xlink:href="#Helvetica-Light-116"/>
      <use transform="translate(789.199844 0.09375)" xlink:href="#Helvetica-Light-114"/>
      <use transform="translate(822.499832 0.09375)" xlink:href="#Helvetica-Light-111"/>
      <use transform="translate(878.099823 0.09375)" xlink:href="#Helvetica-Light-112"/>
      <use transform="translate(939.199814 0.09375)" xlink:href="#Helvetica-Light-121"/>
      <use transform="translate(989.199799 0.09375)" xlink:href="#Helvetica-Light-32"/>
      <use transform="translate(1016.999786 0.09375)" xlink:href="#Helvetica-Light-32"/>
      <use transform="translate(1044.799774 0.09375)" xlink:href="#Helvetica-Light-916"/>
      <use transform="translate(1112.199768 0.09375)" xlink:href="#Helvetica-LightOblique-83"/>
      <use transform="translate(1173.299759 0.09375)" xlink:href="#Helvetica-Light-40"/>
      <use transform="translate(1206.599747 0.09375)" xlink:href="#Helvetica-LightOblique-116"/>
      <use transform="translate(1234.399734 0.09375)" xlink:href="#Helvetica-Light-41"/>
      <use transform="translate(1267.699722 0.09375)" xlink:href="#Helvetica-Light-47"/>
      <use transform="translate(1295.49971 0.09375)" xlink:href="#Helvetica-LightOblique-110"/>
     </g>
    </g>
   </g>
   <g id="line2d_13">
    <path clip-path="url(#p56c8005916)" d="M 35.41375 117.350791 
L 36.111489 111.088383 
L 36.809228 96.615643 
L 38.902445 40.364886 
L 39.600184 26.636502 
L 40.297923 18.102439 
L 40.995661 14.910745 
L 41.6934 16.308852 
L 42.391139 20.870616 
L 43.786617 32.335405 
L 44.484356 36.122697 
L 45.182095 37.607663 
L 45.879834 36.978048 
L 46.577573 34.89999 
L 47.973051 29.676539 
L 48.67079 27.859749 
L 49.368529 27.026211 
L 50.066268 27.158814 
L 50.764007 28.02019 
L 52.857223 31.523884 
L 53.554962 32.106333 
L 54.252701 32.239295 
L 54.95044 31.984646 
L 57.741396 30.000905 
L 59.136874 29.749395 
L 60.532352 29.852148 
L 62.625568 30.415505 
L 64.021046 30.72416 
L 64.718785 30.658033 
L 66.812002 29.853056 
L 67.509741 29.836651 
L 68.20748 30.070205 
L 68.905219 30.519643 
L 70.300697 31.815792 
L 70.998436 32.676015 
L 71.696174 33.827625 
L 72.393913 35.416635 
L 73.091652 37.557289 
L 73.789391 40.314465 
L 74.48713 43.707112 
L 75.882608 52.314724 
L 78.673564 72.931705 
L 79.371303 76.718016 
L 80.069042 78.84646 
L 80.766781 78.826613 
L 81.46452 76.367582 
L 82.162258 71.422288 
L 82.859997 64.19604 
L 84.255475 44.848761 
L 85.650953 23.923866 
L 86.348692 15.048329 
L 87.046431 8.328015 
L 87.74417 4.377238 
L 88.441909 3.539449 
L 89.139648 5.82762 
L 89.837387 10.898199 
L 91.232865 26.351137 
L 92.628342 41.609942 
L 93.326081 46.375662 
L 94.02382 48.321075 
L 94.721559 47.449794 
L 95.419298 44.266841 
L 96.814776 34.268308 
L 97.512515 29.172798 
L 98.210254 24.951439 
L 98.907993 22.044377 
L 99.605732 20.651167 
L 100.303471 20.747092 
L 101.00121 22.123893 
L 101.698949 24.441004 
L 103.792165 32.76718 
L 104.489904 34.667392 
L 105.187643 35.682224 
L 105.885382 35.751802 
L 106.583121 34.967878 
L 107.28086 33.545577 
L 109.374077 28.526048 
L 110.071816 27.622965 
L 110.769555 27.476484 
L 111.467294 28.15905 
L 112.165033 29.620938 
L 112.862771 31.706071 
L 116.351466 44.022452 
L 117.746944 48.300765 
L 119.142422 53.443327 
L 121.933378 65.945298 
L 122.631117 68.045548 
L 123.328855 68.998774 
L 124.026594 68.505161 
L 124.724333 66.415449 
L 125.422072 62.776985 
L 126.119811 57.810641 
L 127.515289 45.262638 
L 129.608506 25.311747 
L 131.003984 14.654458 
L 131.701723 10.8361 
L 132.399462 8.341906 
L 133.097201 7.391241 
L 133.794939 8.147854 
L 134.492678 10.675224 
L 135.190417 14.889071 
L 135.888156 20.519187 
L 137.981373 40.343166 
L 138.679112 45.436109 
L 139.376851 48.561914 
L 140.07459 49.336995 
L 140.772329 47.783446 
L 141.470068 44.290375 
L 142.865546 34.0981 
L 144.261023 24.382025 
L 144.958762 21.115965 
L 145.656501 19.287307 
L 146.35424 18.912957 
L 147.051979 19.834319 
L 147.749718 21.77407 
L 149.145196 27.364534 
L 150.540674 33.156918 
L 151.238413 35.532864 
L 151.936152 37.349463 
L 152.633891 38.501857 
L 153.33163 38.932437 
L 154.029369 38.656469 
L 154.727107 37.80304 
L 156.122585 35.523387 
L 156.820324 34.857468 
L 157.518063 34.978622 
L 158.215802 36.106428 
L 158.913541 38.298003 
L 159.61128 41.435952 
L 162.402236 56.761193 
L 163.099975 59.418459 
L 163.797714 61.214593 
L 164.495452 62.239909 
L 165.193191 62.664834 
L 165.89093 62.646392 
L 166.588669 62.259209 
L 167.286408 61.462043 
L 167.984147 60.103375 
L 168.681886 57.965482 
L 169.379625 54.83877 
L 170.077364 50.598887 
L 170.775103 45.262135 
L 172.170581 32.2358 
L 173.566059 19.095457 
L 174.263798 13.817968 
L 174.961536 9.999901 
L 175.659275 7.896384 
L 176.357014 7.561828 
L 177.054753 8.856154 
L 177.752492 11.492171 
L 178.450231 15.111268 
L 179.845709 23.918211 
L 181.938926 37.047623 
L 182.636665 40.466932 
L 183.334404 43.006091 
L 184.032143 44.477552 
L 184.729882 44.780441 
L 185.42762 43.911133 
L 186.125359 41.971176 
L 186.823098 39.173859 
L 189.614054 26.102556 
L 190.311793 23.899865 
L 191.009532 22.445436 
L 191.707271 21.745239 
L 192.40501 21.773346 
L 193.102749 22.508854 
L 193.800488 23.943797 
L 194.498227 26.062123 
L 195.195966 28.805303 
L 196.591443 35.553618 
L 197.986921 42.220041 
L 198.68466 44.790007 
L 199.382399 46.603316 
L 200.080138 47.645549 
L 200.777877 48.03449 
L 201.475616 47.984717 
L 202.871094 47.59251 
L 203.568833 47.661782 
L 204.266572 48.038057 
L 204.964311 48.714893 
L 205.66205 49.649868 
L 206.359788 50.81721 
L 207.057527 52.235283 
L 208.453005 55.914401 
L 209.848483 59.930393 
L 210.546222 61.192116 
L 211.243961 61.262475 
L 211.9417 59.674852 
L 212.639439 56.169374 
L 213.337178 50.766156 
L 214.732656 35.876108 
L 216.128133 20.531084 
L 216.825872 14.703241 
L 217.523611 10.840492 
L 218.22135 9.110994 
L 218.919089 9.346408 
L 219.616828 11.086068 
L 221.710045 18.870237 
L 222.407784 20.710068 
L 224.501001 24.771656 
L 225.19874 27.060623 
L 225.896479 30.405497 
L 226.594217 34.807922 
L 227.989695 45.061844 
L 228.687434 49.306905 
L 229.385173 51.703477 
L 230.082912 51.552584 
L 230.780651 48.654386 
L 231.47839 43.401355 
L 232.176129 36.67353 
L 232.176129 36.67353 
" style="fill:none;stroke:#5e4fa2;stroke-linecap:round;"/>
   </g>
   <g id="line2d_14">
    <path clip-path="url(#p56c8005916)" d="M 77.278086 36.690104 
L 233.19839 36.690104 
L 233.19839 36.690104 
" style="fill:none;stroke:#5e4fa2;stroke-dasharray:1,1.65;stroke-dashoffset:0;stroke-linecap:round;"/>
   </g>
   <g id="line2d_15">
    <path clip-path="url(#p56c8005916)" d="M 35.41375 117.350791 
L 36.111489 117.018283 
L 36.809228 116.139597 
L 40.297923 110.132148 
L 41.6934 107.451501 
L 43.088878 104.384521 
L 44.484356 100.871926 
L 46.577573 94.839165 
L 50.066268 84.787094 
L 52.159484 79.366847 
L 53.554962 76.222653 
L 54.95044 73.586602 
L 58.439135 67.867699 
L 61.23009 62.12353 
L 61.927829 61.383276 
L 62.625568 61.245989 
L 63.323307 61.721103 
L 64.021046 62.70144 
L 70.998436 75.865052 
L 77.278086 88.379605 
L 78.673564 90.583314 
L 79.371303 91.470425 
L 80.069042 92.177032 
L 80.766781 92.686899 
L 81.46452 93.00558 
L 82.859997 93.207083 
L 84.953214 93.068481 
L 86.348692 92.812702 
L 87.046431 92.561782 
L 87.74417 92.190752 
L 89.139648 91.071507 
L 91.232865 88.841195 
L 93.326081 86.388373 
L 95.419298 83.52621 
L 98.210254 79.656581 
L 100.303471 76.704586 
L 101.698949 74.359718 
L 105.187643 67.935585 
L 105.885382 66.975468 
L 106.583121 66.325056 
L 107.28086 66.045743 
L 107.978599 66.148673 
L 108.676338 66.587368 
L 110.071816 68.064624 
L 111.467294 69.619151 
L 115.653727 73.805541 
L 121.235639 80.342286 
L 122.631117 81.4459 
L 124.026594 82.159585 
L 125.422072 82.491177 
L 128.910767 82.882945 
L 130.306245 83.147832 
L 131.701723 83.144984 
L 133.097201 82.728007 
L 134.492678 81.882947 
L 136.585895 80.346033 
L 137.981373 79.653269 
L 140.07459 78.782609 
L 140.772329 78.315647 
L 142.167807 76.94594 
L 143.563285 75.077093 
L 147.749718 68.872521 
L 149.145196 67.377717 
L 149.842935 66.855936 
L 150.540674 66.564302 
L 151.238413 66.561366 
L 151.936152 66.866861 
L 152.633891 67.438001 
L 155.424846 70.275367 
L 158.215802 72.717885 
L 163.797714 77.861644 
L 165.193191 78.630721 
L 166.588669 79.046587 
L 167.984147 79.162326 
L 171.472842 79.209703 
L 173.566059 78.998898 
L 174.961536 79.135193 
L 176.357014 79.373275 
L 177.752492 79.37096 
L 179.14797 79.114592 
L 181.241187 78.470661 
L 183.334404 77.598909 
L 184.729882 76.856236 
L 186.125359 75.825146 
L 186.823098 75.101801 
L 188.218576 73.180025 
L 189.614054 71.084478 
L 190.311793 70.236578 
L 191.009532 69.62133 
L 191.707271 69.247789 
L 192.40501 69.078705 
L 193.800488 69.124985 
L 195.195966 69.453235 
L 196.591443 70.099734 
L 197.986921 71.111808 
L 199.382399 72.152753 
L 200.777877 72.771711 
L 202.173355 73.16305 
L 202.871094 73.465188 
L 204.266572 74.429665 
L 206.359788 76.084845 
L 207.755266 76.798465 
L 209.848483 77.455036 
L 211.243961 77.739517 
L 212.639439 77.797143 
L 223.105523 76.857635 
L 225.896479 76.362482 
L 227.291956 75.947948 
L 228.687434 75.200795 
L 229.385173 74.643684 
L 230.780651 73.091442 
L 232.176129 71.084746 
L 232.176129 71.084746 
" style="fill:none;stroke:#d8434e;stroke-linecap:round;"/>
   </g>
   <g id="line2d_16">
    <path clip-path="url(#p56c8005916)" d="M 77.278086 75.304829 
L 233.19839 75.304829 
L 233.19839 75.304829 
" style="fill:none;stroke:#d8434e;stroke-dasharray:1,1.65;stroke-dashoffset:0;stroke-linecap:round;"/>
   </g>
   <g id="patch_3">
    <path d="M 35.41375 117.350791 
L 35.41375 0.72 
" style="fill:none;stroke:#000000;stroke-linecap:square;stroke-linejoin:miter;stroke-width:0.35;"/>
   </g>
   <g id="patch_4">
    <path d="M 231.47839 117.350791 
L 231.47839 0.72 
" style="fill:none;stroke:#000000;stroke-linecap:square;stroke-linejoin:miter;stroke-width:0.35;"/>
   </g>
   <g id="patch_5">
    <path d="M 35.41375 117.350791 
L 231.47839 117.350791 
" style="fill:none;stroke:#000000;stroke-linecap:square;stroke-linejoin:miter;stroke-width:0.35;"/>
   </g>
   <g id="patch_6">
    <path d="M 35.41375 0.72 
L 231.47839 0.72 
" style="fill:none;stroke:#000000;stroke-linecap:square;stroke-linejoin:miter;stroke-width:0.35;"/>
   </g>
   <g id="text_15">
    <!-- $V = 0.250$ -->
    <defs>
     <path d="M 17.09375 72 
L 24.203125 72 
L 32.296875 8 
L 67.5 72 
L 74.59375 72 
L 34.296875 0 
L 26.796875 0 
z
" id="Helvetica-LightOblique-86"/>
     <path d="M 58 31.796875 
L 8 31.796875 
L 8 37.796875 
L 58 37.796875 
z
M 58 12.40625 
L 8 12.40625 
L 8 18.40625 
L 58 18.40625 
z
" id="Helvetica-Light-61"/>
    </defs>
    <g transform="translate(49.138275 115.018175)scale(0.08 -0.08)">
     <use xlink:href="#Helvetica-LightOblique-86"/>
     <use transform="translate(77.759988 0)" xlink:href="#Helvetica-Light-61"/>
     <use transform="translate(160.419971 0)" xlink:href="#Helvetica-Light-48"/>
     <use transform="translate(216.019962 0)" xlink:href="#Helvetica-Light-46"/>
     <use transform="translate(243.819949 0)" xlink:href="#Helvetica-Light-50"/>
     <use transform="translate(299.41994 0)" xlink:href="#Helvetica-Light-53"/>
     <use transform="translate(355.019931 0)" xlink:href="#Helvetica-Light-48"/>
    </g>
   </g>
   <g id="text_16">
    <!-- $L = 26, N = 13, \ell = 13, n = 6$ -->
    <defs>
     <path d="M 8.09375 0 
L 23.40625 72 
L 30.203125 72 
L 16.09375 5.796875 
L 54.703125 5.796875 
L 53.5 0 
z
" id="Helvetica-LightOblique-76"/>
     <path d="M 17.5 -3 
Q 17.5 -7.40625 15.453125 -10.046875 
Q 13.40625 -12.703125 10.203125 -13.703125 
L 10.203125 -10 
Q 11.40625 -9.203125 12.5 -7.796875 
Q 13.59375 -6.40625 13.59375 -3.40625 
L 13.59375 0 
L 10.203125 0 
L 10.203125 8.796875 
L 17.5 8.796875 
z
" id="Helvetica-Light-44"/>
     <path d="M 28.203125 62.796875 
L 28 62.796875 
L 14.703125 0 
L 7.90625 0 
L 23.203125 72 
L 30.90625 72 
L 59.09375 9.09375 
L 59.296875 9.09375 
L 72.703125 72 
L 79.5 72 
L 64.203125 0 
L 56.296875 0 
z
" id="Helvetica-LightOblique-78"/>
     <path d="M 22.09375 39.203125 
Q 26.59375 39.203125 30.296875 39.75 
Q 34 40.296875 36.640625 41.84375 
Q 39.296875 43.40625 40.796875 46 
Q 42.296875 48.59375 42.296875 52.703125 
Q 42.296875 56 41.09375 58.34375 
Q 39.90625 60.703125 37.84375 62.203125 
Q 35.796875 63.703125 33.046875 64.390625 
Q 30.296875 65.09375 27.296875 65.09375 
Q 23.90625 65.09375 21.15625 64 
Q 18.40625 62.90625 16.40625 60.84375 
Q 14.40625 58.796875 13.296875 56.046875 
Q 12.203125 53.296875 12.203125 50 
L 5.796875 50 
Q 5.796875 54.796875 7.4375 58.640625 
Q 9.09375 62.5 12.59375 65.796875 
Q 15.90625 68.796875 20.046875 69.640625 
Q 24.203125 70.5 28.59375 70.5 
Q 32.796875 70.5 36.4375 69.453125 
Q 40.09375 68.40625 42.796875 66.25 
Q 45.5 64.09375 47.09375 60.796875 
Q 48.703125 57.5 48.703125 53.09375 
Q 48.703125 47.59375 46.25 43.59375 
Q 43.796875 39.59375 38.703125 37.40625 
Q 42.5 36.203125 44.953125 34.25 
Q 47.40625 32.296875 48.796875 29.9375 
Q 50.203125 27.59375 50.703125 25 
Q 51.203125 22.40625 51.203125 20 
Q 51.203125 15.59375 49.703125 11.796875 
Q 48.203125 8 45.296875 5.09375 
Q 42.40625 2.203125 38.15625 0.453125 
Q 33.90625 -1.296875 28.5 -1.40625 
Q 22.40625 -1.40625 17.90625 -0.296875 
Q 13.40625 0.796875 10.40625 3.34375 
Q 7.40625 5.90625 5.703125 10.046875 
Q 4 14.203125 3.40625 20.40625 
L 9.796875 20.40625 
Q 9.796875 12.296875 14.640625 8.140625 
Q 19.5 4 27.296875 4 
Q 31.09375 4 34.390625 5.296875 
Q 37.703125 6.59375 40.046875 8.796875 
Q 42.40625 11 43.65625 13.890625 
Q 44.90625 16.796875 44.796875 19.90625 
Q 44.59375 24.203125 42.796875 27.046875 
Q 41 29.90625 37.953125 31.546875 
Q 34.90625 33.203125 30.796875 33.75 
Q 26.703125 34.296875 22.09375 34 
z
" id="Helvetica-Light-51"/>
     <path d="M 47.40625 11.203125 
Q 43 5.296875 37.84375 2.1875 
Q 32.703125 -0.90625 26.90625 -0.90625 
Q 22.703125 -0.90625 20 0.640625 
Q 17.296875 2.203125 15.9375 4.796875 
Q 14.59375 7.40625 14.34375 10.84375 
Q 14.09375 14.296875 14.796875 18.09375 
L 15.09375 19.40625 
Q 13.5 18.296875 11.703125 17.046875 
Q 9.90625 15.796875 8.203125 14.5 
L 6.90625 18.09375 
Q 9.5 19.90625 11.796875 21.546875 
Q 14.09375 23.203125 16.296875 25 
L 22.203125 52.90625 
Q 23.703125 59.703125 25.953125 64.203125 
Q 28.203125 68.703125 30.84375 71.34375 
Q 33.5 74 36.296875 75.09375 
Q 39.09375 76.203125 41.703125 76.203125 
Q 44.703125 76.203125 46.703125 74.953125 
Q 48.703125 73.703125 49.703125 71.59375 
Q 50.703125 69.5 50.84375 66.640625 
Q 51 63.796875 50.296875 60.59375 
Q 49.296875 55.796875 46.75 51.09375 
Q 44.203125 46.40625 40.453125 41.796875 
Q 36.703125 37.203125 31.890625 32.640625 
Q 27.09375 28.09375 21.40625 23.5 
L 20.796875 20.5 
Q 19.90625 15.90625 20.203125 12.703125 
Q 20.5 9.5 21.703125 7.5 
Q 22.90625 5.5 24.75 4.59375 
Q 26.59375 3.703125 28.90625 3.703125 
Q 31.40625 3.703125 33.703125 4.59375 
Q 36 5.5 38.09375 6.953125 
Q 40.203125 8.40625 41.890625 10.15625 
Q 43.59375 11.90625 44.90625 13.59375 
z
M 22.59375 29.40625 
Q 26.90625 33.09375 30.75 36.890625 
Q 34.59375 40.703125 37.6875 44.546875 
Q 40.796875 48.40625 42.890625 52.34375 
Q 45 56.296875 45.90625 60.296875 
Q 47 65.40625 45.953125 68.59375 
Q 44.90625 71.796875 40.703125 71.796875 
Q 39.203125 71.796875 37.390625 70.84375 
Q 35.59375 69.90625 33.84375 67.75 
Q 32.09375 65.59375 30.5 62.09375 
Q 28.90625 58.59375 27.796875 53.5 
z
" id="Helvetica-LightOblique-8467"/>
    </defs>
    <g transform="translate(49.138275 105.687712)scale(0.08 -0.08)">
     <use transform="translate(0 0.796875)" xlink:href="#Helvetica-LightOblique-76"/>
     <use transform="translate(72.259988 0.796875)" xlink:href="#Helvetica-Light-61"/>
     <use transform="translate(154.919971 0.796875)" xlink:href="#Helvetica-Light-50"/>
     <use transform="translate(210.519962 0.796875)" xlink:href="#Helvetica-Light-54"/>
     <use transform="translate(266.119952 0.796875)" xlink:href="#Helvetica-Light-44"/>
     <use transform="translate(310.579938 0.796875)" xlink:href="#Helvetica-LightOblique-78"/>
     <use transform="translate(399.439917 0.796875)" xlink:href="#Helvetica-Light-61"/>
     <use transform="translate(482.099899 0.796875)" xlink:href="#Helvetica-Light-49"/>
     <use transform="translate(537.69989 0.796875)" xlink:href="#Helvetica-Light-51"/>
     <use transform="translate(593.299881 0.796875)" xlink:href="#Helvetica-Light-44"/>
     <use transform="translate(637.759866 0.796875)" xlink:href="#Helvetica-LightOblique-8467"/>
     <use transform="translate(701.919849 0.796875)" xlink:href="#Helvetica-Light-61"/>
     <use transform="translate(784.579831 0.796875)" xlink:href="#Helvetica-Light-49"/>
     <use transform="translate(840.179822 0.796875)" xlink:href="#Helvetica-Light-51"/>
     <use transform="translate(895.779813 0.796875)" xlink:href="#Helvetica-Light-44"/>
     <use transform="translate(940.239798 0.796875)" xlink:href="#Helvetica-LightOblique-110"/>
     <use transform="translate(1012.499786 0.796875)" xlink:href="#Helvetica-Light-61"/>
     <use transform="translate(1095.159769 0.796875)" xlink:href="#Helvetica-Light-54"/>
    </g>
   </g>
   <g id="legend_1">
    <g id="line2d_17">
     <path d="M 175.858998 96.576329 
L 183.858998 96.576329 
" style="fill:none;stroke:#5e4fa2;stroke-linecap:round;"/>
    </g>
    <g id="line2d_18"/>
    <g id="text_17">
     <!-- particle -->
     <defs>
      <path d="M 43.90625 35.5 
Q 42.296875 41.296875 38.390625 44.546875 
Q 34.5 47.796875 28.5 47.796875 
Q 23.90625 47.796875 20.59375 45.890625 
Q 17.296875 44 15.1875 40.84375 
Q 13.09375 37.703125 12.09375 33.75 
Q 11.09375 29.796875 11.09375 25.796875 
Q 11.09375 21.703125 12.046875 17.796875 
Q 13 13.90625 15.09375 10.796875 
Q 17.203125 7.703125 20.5 5.84375 
Q 23.796875 4 28.5 4 
Q 35.203125 4 39.25 7.703125 
Q 43.296875 11.40625 44.40625 17.90625 
L 50.796875 17.90625 
Q 50 13.59375 48.25 10.046875 
Q 46.5 6.5 43.75 3.953125 
Q 41 1.40625 37.203125 0 
Q 33.40625 -1.40625 28.5 -1.40625 
Q 22.296875 -1.40625 17.796875 0.6875 
Q 13.296875 2.796875 10.390625 6.4375 
Q 7.5 10.09375 6.09375 15.09375 
Q 4.703125 20.09375 4.703125 25.796875 
Q 4.703125 31.203125 6.25 36.140625 
Q 7.796875 41.09375 10.796875 44.890625 
Q 13.796875 48.703125 18.25 50.953125 
Q 22.703125 53.203125 28.5 53.203125 
Q 37.5 53.203125 43.046875 48.890625 
Q 48.59375 44.59375 50 35.5 
z
" id="Helvetica-Light-99"/>
     </defs>
     <g transform="translate(187.858998 99.376329)scale(0.08 -0.08)">
      <use xlink:href="#Helvetica-Light-112"/>
      <use x="61.099991" xlink:href="#Helvetica-Light-97"/>
      <use x="116.699982" xlink:href="#Helvetica-Light-114"/>
      <use x="149.999969" xlink:href="#Helvetica-Light-116"/>
      <use x="177.799957" xlink:href="#Helvetica-Light-105"/>
      <use x="199.999954" xlink:href="#Helvetica-Light-99"/>
      <use x="255.599945" xlink:href="#Helvetica-Light-108"/>
      <use x="277.799942" xlink:href="#Helvetica-Light-101"/>
     </g>
    </g>
    <g id="line2d_19">
     <path d="M 175.858998 107.968829 
L 183.858998 107.968829 
" style="fill:none;stroke:#d8434e;stroke-linecap:round;"/>
    </g>
    <g id="line2d_20"/>
    <g id="text_18">
     <!-- spatial -->
     <defs>
      <path d="M 10.703125 16.203125 
Q 12.09375 9.5 15.75 6.75 
Q 19.40625 4 26.203125 4 
Q 29.5 4 31.890625 4.796875 
Q 34.296875 5.59375 35.84375 6.9375 
Q 37.40625 8.296875 38.203125 10 
Q 39 11.703125 39 13.59375 
Q 39 17.40625 36.546875 19.25 
Q 34.09375 21.09375 30.390625 22.140625 
Q 26.703125 23.203125 22.390625 23.953125 
Q 18.09375 24.703125 14.390625 26.203125 
Q 10.703125 27.703125 8.25 30.5 
Q 5.796875 33.296875 5.796875 38.40625 
Q 5.796875 44.90625 10.546875 49.046875 
Q 15.296875 53.203125 24 53.203125 
Q 32.40625 53.203125 37.65625 49.453125 
Q 42.90625 45.703125 44 36.90625 
L 37.90625 36.90625 
Q 37.09375 42.90625 33.34375 45.34375 
Q 29.59375 47.796875 23.90625 47.796875 
Q 18.203125 47.796875 15.203125 45.34375 
Q 12.203125 42.90625 12.203125 38.90625 
Q 12.203125 35.40625 14.640625 33.546875 
Q 17.09375 31.703125 20.796875 30.546875 
Q 24.5 29.40625 28.796875 28.5 
Q 33.09375 27.59375 36.796875 25.9375 
Q 40.5 24.296875 42.953125 21.5 
Q 45.40625 18.703125 45.40625 13.703125 
Q 45.40625 10 43.796875 7.140625 
Q 42.203125 4.296875 39.390625 2.390625 
Q 36.59375 0.5 32.75 -0.453125 
Q 28.90625 -1.40625 24.296875 -1.40625 
Q 19.703125 -1.40625 16.140625 -0.046875 
Q 12.59375 1.296875 10.09375 3.6875 
Q 7.59375 6.09375 6.1875 9.296875 
Q 4.796875 12.5 4.59375 16.203125 
z
" id="Helvetica-Light-115"/>
     </defs>
     <g transform="translate(187.858998 110.768829)scale(0.08 -0.08)">
      <use xlink:href="#Helvetica-Light-115"/>
      <use x="49.999985" xlink:href="#Helvetica-Light-112"/>
      <use x="111.099976" xlink:href="#Helvetica-Light-97"/>
      <use x="166.699966" xlink:href="#Helvetica-Light-116"/>
      <use x="194.499954" xlink:href="#Helvetica-Light-105"/>
      <use x="216.699951" xlink:href="#Helvetica-Light-97"/>
      <use x="272.299942" xlink:href="#Helvetica-Light-108"/>
     </g>
    </g>
   </g>
  </g>
 </g>
 <defs>
  <clipPath id="p56c8005916">
   <rect height="116.630791" width="196.06464" x="35.41375" y="0.72"/>
  </clipPath>
 </defs>
</svg>
