<?xml version="1.0" encoding="utf-8" standalone="no"?>
<!DOCTYPE svg PUBLIC "-//W3C//DTD SVG 1.1//EN"
  "http://www.w3.org/Graphics/SVG/1.1/DTD/svg11.dtd">
<!-- Created with matplotlib (https://matplotlib.org/) -->
<svg height="142.863291pt" version="1.1" viewBox="0 0 227.52714 142.863291" width="227.52714pt" xmlns="http://www.w3.org/2000/svg" xmlns:xlink="http://www.w3.org/1999/xlink">
 <defs>
  <style type="text/css">
*{stroke-linecap:butt;stroke-linejoin:round;}
  </style>
 </defs>
 <g id="figure_1">
  <g id="patch_1">
   <path d="M 0 142.863291 
L 227.52714 142.863291 
L 227.52714 0 
L 0 0 
z
" style="fill:none;"/>
  </g>
  <g id="axes_1">
   <g id="patch_2">
    <path d="M 30.7425 120.230791 
L 226.80714 120.230791 
L 226.80714 3.6 
L 30.7425 3.6 
z
" style="fill:none;"/>
   </g>
   <g id="PolyCollection_1">
    <path clip-path="url(#p0c953a1a4d)" d="M 17.374456 5.820375 
L 17.374456 -37.083531 
L 19.624969 -31.227351 
L 21.875481 -25.482466 
L 24.125994 -19.848348 
L 26.376506 -14.324501 
L 28.627018 -8.910458 
L 30.877531 -3.605781 
L 33.128043 1.589934 
L 35.378556 6.677064 
L 37.629068 11.65595 
L 39.87958 16.526905 
L 42.130093 21.290208 
L 44.380605 25.946105 
L 46.631118 30.494809 
L 48.88163 34.936499 
L 51.132142 39.271316 
L 53.382655 43.499367 
L 55.633167 47.620721 
L 57.88368 51.635408 
L 60.134192 55.543417 
L 62.384704 59.344695 
L 64.635217 63.039145 
L 66.885729 66.626623 
L 69.136241 70.106939 
L 71.386754 73.479847 
L 73.637266 76.745049 
L 75.887779 79.90219 
L 78.138291 82.950849 
L 80.388803 85.89054 
L 82.639316 88.720704 
L 84.889828 91.440704 
L 87.140341 94.049815 
L 89.390853 96.547219 
L 91.641365 98.931991 
L 93.891878 101.203091 
L 96.14239 103.359348 
L 98.392903 105.399442 
L 100.643415 107.321881 
L 102.893927 109.124981 
L 105.14444 110.806826 
L 107.394952 112.365226 
L 109.645465 113.797666 
L 111.895977 115.101225 
L 114.146489 116.272474 
L 116.397002 117.307323 
L 118.647514 118.200788 
L 120.898027 118.946619 
L 123.148539 119.536615 
L 125.399051 119.959198 
L 127.649564 120.195322 
L 129.900076 120.195488 
L 132.150589 119.962948 
L 134.401101 119.552389 
L 136.651613 118.987032 
L 138.902126 118.282131 
L 141.152638 117.449216 
L 143.403151 116.497604 
L 145.653663 115.435133 
L 147.904175 114.268575 
L 150.154688 113.003891 
L 152.4052 111.646403 
L 154.655713 110.200915 
L 156.906225 108.671804 
L 159.156737 107.063083 
L 161.40725 105.378454 
L 163.657762 103.621351 
L 165.908275 101.794972 
L 168.158787 99.902302 
L 170.409299 97.946144 
L 172.659812 95.929131 
L 174.910324 93.853746 
L 177.160837 91.722332 
L 179.411349 89.537109 
L 181.661861 87.300182 
L 183.912374 85.013549 
L 186.162886 82.679109 
L 188.413399 80.298674 
L 190.663911 77.87397 
L 192.914423 75.406644 
L 195.164936 72.898271 
L 197.415448 70.350357 
L 199.66596 67.764345 
L 201.916473 65.141617 
L 204.166985 62.483499 
L 206.417498 59.791262 
L 208.66801 57.066128 
L 210.918522 54.309272 
L 213.169035 51.521822 
L 215.419547 48.704865 
L 217.67006 45.859446 
L 219.920572 42.986574 
L 222.171084 40.087217 
L 224.421597 37.162313 
L 226.672109 34.212764 
L 228.922622 31.239441 
L 231.173134 28.243184 
L 233.423646 25.224807 
L 235.674159 22.185092 
L 237.924671 19.124798 
L 240.175184 16.044658 
L 240.175184 44.459058 
L 240.175184 44.459058 
L 237.924671 46.69916 
L 235.674159 48.924828 
L 233.423646 51.13553 
L 231.173134 53.330714 
L 228.922622 55.509809 
L 226.672109 57.672226 
L 224.421597 59.817353 
L 222.171084 61.944556 
L 219.920572 64.053178 
L 217.67006 66.14254 
L 215.419547 68.211936 
L 213.169035 70.260632 
L 210.918522 72.287868 
L 208.66801 74.292855 
L 206.417498 76.27477 
L 204.166985 78.23276 
L 201.916473 80.165937 
L 199.66596 82.073376 
L 197.415448 83.954112 
L 195.164936 85.80714 
L 192.914423 87.631411 
L 190.663911 89.42583 
L 188.413399 91.189252 
L 186.162886 92.920477 
L 183.912374 94.618251 
L 181.661861 96.281257 
L 179.411349 97.908114 
L 177.160837 99.497366 
L 174.910324 101.047485 
L 172.659812 102.556857 
L 170.409299 104.023775 
L 168.158787 105.446435 
L 165.908275 106.822922 
L 163.657762 108.151199 
L 161.40725 109.429092 
L 159.156737 110.654276 
L 156.906225 111.824255 
L 154.655713 112.936336 
L 152.4052 113.987599 
L 150.154688 114.974864 
L 147.904175 115.894634 
L 145.653663 116.74304 
L 143.403151 117.515746 
L 141.152638 118.207827 
L 138.902126 118.813584 
L 136.651613 119.326239 
L 134.401101 119.737408 
L 132.150589 120.035996 
L 129.900076 120.205116 
L 127.649564 120.204996 
L 125.399051 120.033269 
L 123.148539 119.725936 
L 120.898027 119.296847 
L 118.647514 118.754425 
L 116.397002 118.104632 
L 114.146489 117.352015 
L 111.895977 116.500198 
L 109.645465 115.552155 
L 107.394952 114.51038 
L 105.14444 113.376998 
L 102.893927 112.153839 
L 100.643415 110.842493 
L 98.392903 109.444355 
L 96.14239 107.960651 
L 93.891878 106.392464 
L 91.641365 104.740755 
L 89.390853 103.006375 
L 87.140341 101.190081 
L 84.889828 99.292546 
L 82.639316 97.314364 
L 80.388803 95.256063 
L 78.138291 93.118106 
L 75.887779 90.900899 
L 73.637266 88.604797 
L 71.386754 86.230104 
L 69.136241 83.77708 
L 66.885729 81.245942 
L 64.635217 78.636866 
L 62.384704 75.949994 
L 60.134192 73.185428 
L 57.88368 70.34324 
L 55.633167 67.423467 
L 53.382655 64.426119 
L 51.132142 61.351173 
L 48.88163 58.198578 
L 46.631118 54.968259 
L 44.380605 51.66011 
L 42.130093 48.274003 
L 39.87958 44.809783 
L 37.629068 41.26727 
L 35.378556 37.646262 
L 33.128043 33.946532 
L 30.877531 30.16783 
L 28.627018 26.309883 
L 26.376506 22.372397 
L 24.125994 18.355053 
L 21.875481 14.257513 
L 19.624969 10.079415 
L 17.374456 5.820375 
z
" style="fill:#9fa2b2;fill-opacity:0.4;stroke:#9fa2b2;stroke-opacity:0.4;"/>
   </g>
   <g id="matplotlib.axis_1">
    <g id="xtick_1">
     <g id="line2d_1">
      <defs>
       <path d="M 0 0 
L 0 2 
" id="mce118221a3" style="stroke:#000000;stroke-width:0.35;"/>
      </defs>
      <g>
       <use style="stroke:#000000;stroke-width:0.35;" x="39.654529" xlink:href="#mce118221a3" y="120.230791"/>
      </g>
     </g>
     <g id="text_1">
      <!-- 0.8 -->
      <defs>
       <path d="M 45.203125 34.703125 
Q 45.203125 40.40625 44.546875 45.84375 
Q 43.90625 51.296875 42 55.59375 
Q 40.09375 59.90625 36.640625 62.5 
Q 33.203125 65.09375 27.59375 65.09375 
Q 22.296875 65.09375 18.9375 62.4375 
Q 15.59375 59.796875 13.6875 55.390625 
Q 11.796875 51 11.046875 45.390625 
Q 10.296875 39.796875 10.296875 34 
Q 10.296875 27.203125 11.140625 21.640625 
Q 12 16.09375 14 12.1875 
Q 16 8.296875 19.34375 6.140625 
Q 22.703125 4 27.796875 4 
Q 33.5 4 36.953125 6.796875 
Q 40.40625 9.59375 42.203125 14 
Q 44 18.40625 44.59375 23.90625 
Q 45.203125 29.40625 45.203125 34.703125 
z
M 27.796875 70.5 
Q 33 70.5 36.796875 68.953125 
Q 40.59375 67.40625 43.25 64.703125 
Q 45.90625 62 47.546875 58.390625 
Q 49.203125 54.796875 50.09375 50.75 
Q 51 46.703125 51.296875 42.390625 
Q 51.59375 38.09375 51.59375 34 
Q 51.59375 27 50.59375 20.59375 
Q 49.59375 14.203125 46.9375 9.296875 
Q 44.296875 4.40625 39.6875 1.5 
Q 35.09375 -1.40625 27.796875 -1.40625 
Q 20.5 -1.40625 15.84375 1.5 
Q 11.203125 4.40625 8.546875 9.34375 
Q 5.90625 14.296875 4.90625 20.84375 
Q 3.90625 27.40625 3.90625 34.703125 
Q 3.90625 41.40625 4.796875 47.796875 
Q 5.703125 54.203125 8.25 59.25 
Q 10.796875 64.296875 15.5 67.390625 
Q 20.203125 70.5 27.796875 70.5 
z
" id="Helvetica-Light-48"/>
       <path d="M 10.203125 0 
L 10.203125 8.796875 
L 17.5 8.796875 
L 17.5 0 
z
" id="Helvetica-Light-46"/>
       <path d="M 27.90625 34.5 
Q 24.203125 34.5 21.09375 33.59375 
Q 18 32.703125 15.703125 30.84375 
Q 13.40625 29 12.09375 26.140625 
Q 10.796875 23.296875 10.796875 19.40625 
Q 10.796875 16.09375 12.046875 13.296875 
Q 13.296875 10.5 15.546875 8.453125 
Q 17.796875 6.40625 21.046875 5.203125 
Q 24.296875 4 28.296875 4 
Q 31.796875 4 34.796875 5.140625 
Q 37.796875 6.296875 40.046875 8.390625 
Q 42.296875 10.5 43.546875 13.390625 
Q 44.796875 16.296875 44.796875 19.796875 
Q 44.796875 23.5 43.5 26.25 
Q 42.203125 29 39.890625 30.84375 
Q 37.59375 32.703125 34.5 33.59375 
Q 31.40625 34.5 27.90625 34.5 
z
M 27.59375 65.09375 
Q 24.59375 65.09375 22 64.296875 
Q 19.40625 63.5 17.453125 61.890625 
Q 15.5 60.296875 14.390625 57.890625 
Q 13.296875 55.5 13.296875 52.40625 
Q 13.296875 49.09375 14.546875 46.75 
Q 15.796875 44.40625 17.890625 42.90625 
Q 20 41.40625 22.703125 40.65625 
Q 25.40625 39.90625 28.296875 39.90625 
Q 31.203125 39.90625 33.703125 40.65625 
Q 36.203125 41.40625 38 43.09375 
Q 39.796875 44.796875 40.84375 47.390625 
Q 41.90625 50 41.90625 53.796875 
Q 41.90625 59.203125 38.40625 62.140625 
Q 34.90625 65.09375 27.59375 65.09375 
z
M 16.703125 37.90625 
Q 14.09375 39.5 12.25 40.953125 
Q 10.40625 42.40625 9.203125 44.09375 
Q 8 45.796875 7.453125 47.9375 
Q 6.90625 50.09375 6.90625 53.296875 
Q 6.90625 56.90625 8.5 60.09375 
Q 10.09375 63.296875 12.796875 65.640625 
Q 15.5 68 19.140625 69.296875 
Q 22.796875 70.59375 27 70.5 
Q 31 70.5 34.84375 69.5 
Q 38.703125 68.5 41.703125 66.390625 
Q 44.703125 64.296875 46.5 61.046875 
Q 48.296875 57.796875 48.296875 53.296875 
Q 48.296875 47.796875 46.046875 43.890625 
Q 43.796875 40 38.703125 37.5 
Q 44.5 35.40625 47.84375 30.796875 
Q 51.203125 26.203125 51.203125 20 
Q 51.203125 14.796875 49.453125 10.796875 
Q 47.703125 6.796875 44.453125 4.09375 
Q 41.203125 1.40625 36.59375 0 
Q 32 -1.40625 26.40625 -1.40625 
Q 22.59375 -1.40625 18.640625 -0.09375 
Q 14.703125 1.203125 11.546875 3.796875 
Q 8.40625 6.40625 6.40625 10.296875 
Q 4.40625 14.203125 4.40625 19.40625 
Q 4.40625 25.703125 7.546875 30.640625 
Q 10.703125 35.59375 16.703125 37.90625 
z
" id="Helvetica-Light-56"/>
      </defs>
      <g transform="translate(34.095154 130.990791)scale(0.08 -0.08)">
       <use xlink:href="#Helvetica-Light-48"/>
       <use x="55.599991" xlink:href="#Helvetica-Light-46"/>
       <use x="83.399979" xlink:href="#Helvetica-Light-56"/>
      </g>
     </g>
    </g>
    <g id="xtick_2">
     <g id="line2d_2">
      <g>
       <use style="stroke:#000000;stroke-width:0.35;" x="84.214675" xlink:href="#mce118221a3" y="120.230791"/>
      </g>
     </g>
     <g id="text_2">
      <!-- 0.9 -->
      <defs>
       <path d="M 11.796875 15.5 
Q 12.90625 9.796875 16.25 6.890625 
Q 19.59375 4 25.5 4 
Q 31.796875 4 35.546875 7.09375 
Q 39.296875 10.203125 41.34375 14.890625 
Q 43.40625 19.59375 44.15625 25.046875 
Q 44.90625 30.5 45.09375 35.296875 
L 44.90625 35.5 
Q 41.703125 30.09375 36.953125 27.296875 
Q 32.203125 24.5 25.90625 24.5 
Q 20.90625 24.5 16.90625 26.09375 
Q 12.90625 27.703125 10.046875 30.703125 
Q 7.203125 33.703125 5.640625 37.890625 
Q 4.09375 42.09375 4.09375 47.203125 
Q 4.09375 52.203125 5.5 56.453125 
Q 6.90625 60.703125 9.703125 63.84375 
Q 12.5 67 16.75 68.75 
Q 21 70.5 26.796875 70.5 
Q 33.90625 70.5 38.65625 67.703125 
Q 43.40625 64.90625 46.25 60.09375 
Q 49.09375 55.296875 50.296875 48.796875 
Q 51.5 42.296875 51.5 34.90625 
Q 51.5 25.90625 49.59375 19.15625 
Q 47.703125 12.40625 44.25 7.796875 
Q 40.796875 3.203125 36.09375 0.890625 
Q 31.40625 -1.40625 25.796875 -1.40625 
Q 21.703125 -1.40625 18.09375 -0.40625 
Q 14.5 0.59375 11.796875 2.6875 
Q 9.09375 4.796875 7.390625 8 
Q 5.703125 11.203125 5.296875 15.5 
z
M 26.796875 65.09375 
Q 18.703125 64.90625 14.59375 60.09375 
Q 10.5 55.296875 10.5 47 
Q 10.5 38.90625 14.75 34.40625 
Q 19 29.90625 26.796875 29.90625 
Q 30.5 29.90625 33.453125 31.296875 
Q 36.40625 32.703125 38.453125 35.09375 
Q 40.5 37.5 41.546875 40.640625 
Q 42.59375 43.796875 42.59375 47.40625 
Q 42.59375 55.203125 38.390625 60.046875 
Q 34.203125 64.90625 26.796875 65.09375 
z
" id="Helvetica-Light-57"/>
      </defs>
      <g transform="translate(78.6553 130.990791)scale(0.08 -0.08)">
       <use xlink:href="#Helvetica-Light-48"/>
       <use x="55.599991" xlink:href="#Helvetica-Light-46"/>
       <use x="83.399979" xlink:href="#Helvetica-Light-57"/>
      </g>
     </g>
    </g>
    <g id="xtick_3">
     <g id="line2d_3">
      <g>
       <use style="stroke:#000000;stroke-width:0.35;" x="128.77482" xlink:href="#mce118221a3" y="120.230791"/>
      </g>
     </g>
     <g id="text_3">
      <!-- 1.0 -->
      <defs>
       <path d="M 30.203125 52.40625 
L 12 52.40625 
L 12 56.59375 
Q 16 56.90625 19.25 57.40625 
Q 22.5 57.90625 24.953125 59.296875 
Q 27.40625 60.703125 29.046875 63.34375 
Q 30.703125 66 31.5 70.5 
L 36.59375 70.5 
L 36.59375 0 
L 30.203125 0 
z
" id="Helvetica-Light-49"/>
      </defs>
      <g transform="translate(123.215445 130.990791)scale(0.08 -0.08)">
       <use xlink:href="#Helvetica-Light-49"/>
       <use x="55.599991" xlink:href="#Helvetica-Light-46"/>
       <use x="83.399979" xlink:href="#Helvetica-Light-48"/>
      </g>
     </g>
    </g>
    <g id="xtick_4">
     <g id="line2d_4">
      <g>
       <use style="stroke:#000000;stroke-width:0.35;" x="173.334965" xlink:href="#mce118221a3" y="120.230791"/>
      </g>
     </g>
     <g id="text_4">
      <!-- 1.1 -->
      <g transform="translate(167.77559 130.990791)scale(0.08 -0.08)">
       <use xlink:href="#Helvetica-Light-49"/>
       <use x="55.599991" xlink:href="#Helvetica-Light-46"/>
       <use x="83.399979" xlink:href="#Helvetica-Light-49"/>
      </g>
     </g>
    </g>
    <g id="xtick_5">
     <g id="line2d_5">
      <g>
       <use style="stroke:#000000;stroke-width:0.35;" x="217.895111" xlink:href="#mce118221a3" y="120.230791"/>
      </g>
     </g>
     <g id="text_5">
      <!-- 1.2 -->
      <defs>
       <path d="M 6.90625 47.40625 
Q 6.90625 52.59375 8.5 56.84375 
Q 10.09375 61.09375 13.09375 64.140625 
Q 16.09375 67.203125 20.34375 68.84375 
Q 24.59375 70.5 29.796875 70.5 
Q 35.09375 70.5 39.140625 68.953125 
Q 43.203125 67.40625 45.953125 64.796875 
Q 48.703125 62.203125 50.09375 58.59375 
Q 51.5 55 51.5 51 
Q 51.5 46.296875 49.953125 42.6875 
Q 48.40625 39.09375 45.84375 36.296875 
Q 43.296875 33.5 40.046875 31.296875 
Q 36.796875 29.09375 33.390625 27.140625 
Q 30 25.203125 26.703125 23.390625 
Q 23.40625 21.59375 20.796875 19.59375 
Q 19.09375 18.296875 17.5 16.84375 
Q 15.90625 15.40625 14.59375 13.703125 
Q 13.296875 12 12.5 9.953125 
Q 11.703125 7.90625 11.59375 5.40625 
L 50.90625 5.40625 
L 50.90625 0 
L 4.796875 0 
Q 4.90625 5.09375 5.90625 9.1875 
Q 6.90625 13.296875 10.296875 17.203125 
Q 14 21.40625 17.953125 24.40625 
Q 21.90625 27.40625 25.703125 29.75 
Q 29.5 32.09375 32.890625 34.046875 
Q 36.296875 36 38.890625 38.296875 
Q 41.5 40.59375 43 43.5 
Q 44.5 46.40625 44.5 50.59375 
Q 44.5 54 43.296875 56.703125 
Q 42.09375 59.40625 40 61.296875 
Q 37.90625 63.203125 35.09375 64.140625 
Q 32.296875 65.09375 29 65.09375 
Q 25.5 65.09375 22.640625 63.640625 
Q 19.796875 62.203125 17.75 59.796875 
Q 15.703125 57.40625 14.59375 54.203125 
Q 13.5 51 13.703125 47.40625 
z
" id="Helvetica-Light-50"/>
      </defs>
      <g transform="translate(212.335736 130.990791)scale(0.08 -0.08)">
       <use xlink:href="#Helvetica-Light-49"/>
       <use x="55.599991" xlink:href="#Helvetica-Light-46"/>
       <use x="83.399979" xlink:href="#Helvetica-Light-50"/>
      </g>
     </g>
    </g>
    <g id="text_6">
     <!-- Luttinger Parameter  $K$ -->
     <defs>
      <path d="M 8.09375 0 
L 8.09375 72 
L 14.90625 72 
L 14.90625 5.796875 
L 53.5 5.796875 
L 53.5 0 
z
" id="Helvetica-Light-76"/>
      <path d="M 42.296875 51.796875 
L 48.296875 51.796875 
L 48.296875 0 
L 42.296875 0 
L 42.296875 7.203125 
Q 41.09375 5.796875 39.59375 4.296875 
Q 38.09375 2.796875 36.140625 1.546875 
Q 34.203125 0.296875 31.59375 -0.546875 
Q 29 -1.40625 25.59375 -1.40625 
Q 20.40625 -1.40625 16.90625 0.046875 
Q 13.40625 1.5 11.25 4.09375 
Q 9.09375 6.703125 8.140625 10.140625 
Q 7.203125 13.59375 7.203125 17.703125 
L 7.203125 51.796875 
L 13.203125 51.796875 
L 13.203125 17.796875 
Q 13.203125 11.09375 16.296875 7.546875 
Q 19.40625 4 26.5 4 
Q 30.203125 4 33.140625 5.453125 
Q 36.09375 6.90625 38.09375 9.5 
Q 40.09375 12.09375 41.1875 15.6875 
Q 42.296875 19.296875 42.296875 23.59375 
z
" id="Helvetica-Light-117"/>
      <path d="M 25.40625 -0.203125 
Q 24.296875 -0.40625 22.5 -0.90625 
Q 20.703125 -1.40625 18.5 -1.40625 
Q 14 -1.40625 11.640625 0.84375 
Q 9.296875 3.09375 9.296875 8.90625 
L 9.296875 46.796875 
L 2 46.796875 
L 2 51.796875 
L 9.296875 51.796875 
L 9.296875 66.203125 
L 15.296875 66.203125 
L 15.296875 51.796875 
L 25 51.796875 
L 25 46.796875 
L 15.296875 46.796875 
L 15.296875 11.296875 
Q 15.296875 9.40625 15.390625 8 
Q 15.5 6.59375 16 5.6875 
Q 16.5 4.796875 17.546875 4.390625 
Q 18.59375 4 20.5 4 
Q 21.703125 4 22.953125 4.203125 
Q 24.203125 4.40625 25.40625 4.703125 
z
" id="Helvetica-Light-116"/>
      <path d="M 8.09375 0 
L 8.09375 51.796875 
L 14.09375 51.796875 
L 14.09375 0 
z
M 7.796875 63.09375 
L 7.796875 72 
L 14.40625 72 
L 14.40625 63.09375 
z
" id="Helvetica-Light-105"/>
      <path d="M 13.203125 0 
L 7.203125 0 
L 7.203125 51.796875 
L 13.203125 51.796875 
L 13.203125 44.59375 
Q 16.796875 48.40625 20.640625 50.796875 
Q 24.5 53.203125 29.90625 53.203125 
Q 34.703125 53.203125 38.796875 51.546875 
Q 42.90625 49.90625 45.703125 45.796875 
Q 47.59375 43 47.9375 40.046875 
Q 48.296875 37.09375 48.296875 33.90625 
L 48.296875 0 
L 42.296875 0 
L 42.296875 33.796875 
Q 42.296875 40.796875 39.1875 44.296875 
Q 36.09375 47.796875 28.90625 47.796875 
Q 26.09375 47.796875 23.796875 46.9375 
Q 21.5 46.09375 19.640625 44.6875 
Q 17.796875 43.296875 16.5 41.5 
Q 15.203125 39.703125 14.5 37.703125 
Q 13.59375 35.203125 13.390625 32.890625 
Q 13.203125 30.59375 13.203125 27.90625 
z
" id="Helvetica-Light-110"/>
      <path d="M 47.203125 25.703125 
Q 47.203125 30.40625 46.046875 34.453125 
Q 44.90625 38.5 42.703125 41.453125 
Q 40.5 44.40625 37.203125 46.09375 
Q 33.90625 47.796875 29.703125 47.796875 
Q 25.90625 47.796875 22.703125 46.4375 
Q 19.5 45.09375 17.09375 42.5 
Q 14.703125 39.90625 13.34375 36.15625 
Q 12 32.40625 12 27.5 
Q 11.796875 22.59375 12.796875 18.34375 
Q 13.796875 14.09375 16 10.890625 
Q 18.203125 7.703125 21.59375 5.84375 
Q 25 4 29.703125 4 
Q 33.796875 4 37.046875 5.75 
Q 40.296875 7.5 42.546875 10.453125 
Q 44.796875 13.40625 46 17.34375 
Q 47.203125 21.296875 47.203125 25.703125 
z
M 47.203125 51.796875 
L 53.203125 51.796875 
L 53.203125 5 
Q 53.203125 -0.203125 52.140625 -4.953125 
Q 51.09375 -9.703125 48.390625 -13.296875 
Q 45.703125 -16.90625 41 -19.046875 
Q 36.296875 -21.203125 28.90625 -21.203125 
Q 23.203125 -21.203125 19.09375 -19.75 
Q 15 -18.296875 12.390625 -16.09375 
Q 9.796875 -13.90625 8.4375 -11.25 
Q 7.09375 -8.59375 7 -6.296875 
L 13.40625 -6.296875 
Q 14.09375 -9.203125 15.59375 -11.046875 
Q 17.09375 -12.90625 19.140625 -13.953125 
Q 21.203125 -15 23.703125 -15.390625 
Q 26.203125 -15.796875 28.90625 -15.796875 
Q 35 -15.796875 38.703125 -13.6875 
Q 42.40625 -11.59375 44.296875 -8.1875 
Q 46.203125 -4.796875 46.75 -0.5 
Q 47.296875 3.796875 47.203125 8.296875 
Q 44.296875 3.5 39.25 1.046875 
Q 34.203125 -1.40625 28.703125 -1.40625 
Q 22.796875 -1.40625 18.4375 0.84375 
Q 14.09375 3.09375 11.25 6.84375 
Q 8.40625 10.59375 7 15.59375 
Q 5.59375 20.59375 5.59375 26 
Q 5.59375 31.703125 6.890625 36.703125 
Q 8.203125 41.703125 11.046875 45.34375 
Q 13.90625 49 18.296875 51.09375 
Q 22.703125 53.203125 29 53.203125 
Q 31.5 53.203125 34.09375 52.5 
Q 36.703125 51.796875 39.140625 50.5 
Q 41.59375 49.203125 43.640625 47.203125 
Q 45.703125 45.203125 47 42.703125 
L 47.203125 42.703125 
z
" id="Helvetica-Light-103"/>
      <path d="M 44.703125 29.5 
Q 44.703125 33.296875 43.640625 36.640625 
Q 42.59375 40 40.546875 42.453125 
Q 38.5 44.90625 35.390625 46.34375 
Q 32.296875 47.796875 28.296875 47.796875 
Q 24.296875 47.796875 21.25 46.296875 
Q 18.203125 44.796875 16.046875 42.296875 
Q 13.90625 39.796875 12.59375 36.5 
Q 11.296875 33.203125 10.90625 29.5 
z
M 10.90625 24.5 
Q 10.90625 20.296875 12 16.546875 
Q 13.09375 12.796875 15.25 10.046875 
Q 17.40625 7.296875 20.703125 5.640625 
Q 24 4 28.296875 4 
Q 34.203125 4 38.390625 7.09375 
Q 42.59375 10.203125 44 15.90625 
L 50.703125 15.90625 
Q 49.59375 12.203125 47.796875 9.046875 
Q 46 5.90625 43.296875 3.546875 
Q 40.59375 1.203125 36.890625 -0.09375 
Q 33.203125 -1.40625 28.296875 -1.40625 
Q 22.09375 -1.40625 17.59375 0.6875 
Q 13.09375 2.796875 10.1875 6.4375 
Q 7.296875 10.09375 5.890625 15.046875 
Q 4.5 20 4.5 25.703125 
Q 4.5 31.40625 6.140625 36.40625 
Q 7.796875 41.40625 10.84375 45.15625 
Q 13.90625 48.90625 18.296875 51.046875 
Q 22.703125 53.203125 28.296875 53.203125 
Q 39 53.203125 45.09375 45.84375 
Q 51.203125 38.5 51.09375 24.5 
z
" id="Helvetica-Light-101"/>
      <path d="M 13.5 0 
L 7.5 0 
L 7.5 51.796875 
L 13.5 51.796875 
L 13.5 42.09375 
L 13.703125 42.09375 
Q 16.203125 48.296875 20.140625 50.75 
Q 24.09375 53.203125 30.59375 53.203125 
L 30.59375 46.703125 
Q 25.5 46.796875 22.203125 45.09375 
Q 18.90625 43.40625 16.953125 40.5 
Q 15 37.59375 14.25 33.640625 
Q 13.5 29.703125 13.5 25.40625 
z
" id="Helvetica-Light-114"/>
      <path id="Helvetica-Light-32"/>
      <path d="M 7.796875 0 
L 7.796875 72 
L 34.09375 72 
Q 41.09375 72 45.640625 70.390625 
Q 50.203125 68.796875 52.84375 66 
Q 55.5 63.203125 56.546875 59.546875 
Q 57.59375 55.90625 57.59375 51.90625 
Q 57.59375 45.90625 55.140625 42 
Q 52.703125 38.09375 48.796875 35.84375 
Q 44.90625 33.59375 39.953125 32.6875 
Q 35 31.796875 30 31.796875 
L 14.59375 31.796875 
L 14.59375 0 
z
M 30.203125 37.59375 
Q 35 37.59375 38.796875 38.1875 
Q 42.59375 38.796875 45.25 40.4375 
Q 47.90625 42.09375 49.34375 44.9375 
Q 50.796875 47.796875 50.796875 52.40625 
Q 50.796875 59.203125 46.34375 62.703125 
Q 41.90625 66.203125 32.203125 66.203125 
L 14.59375 66.203125 
L 14.59375 37.59375 
z
" id="Helvetica-Light-80"/>
      <path d="M 41.09375 27.203125 
Q 37.296875 25.59375 33.390625 25.09375 
Q 29.5 24.59375 25.59375 24.296875 
Q 18.703125 23.796875 14.84375 21.1875 
Q 11 18.59375 11 13.296875 
Q 11 10.90625 11.953125 9.15625 
Q 12.90625 7.40625 14.453125 6.25 
Q 16 5.09375 18.046875 4.546875 
Q 20.09375 4 22.203125 4 
Q 25.796875 4 29.1875 4.890625 
Q 32.59375 5.796875 35.25 7.640625 
Q 37.90625 9.5 39.5 12.34375 
Q 41.09375 15.203125 41.09375 19.09375 
z
M 31 30.203125 
Q 32.703125 30.40625 35.046875 30.796875 
Q 37.40625 31.203125 38.90625 31.90625 
Q 40.40625 32.59375 40.75 34.25 
Q 41.09375 35.90625 41.09375 37.296875 
Q 41.09375 41.90625 38.140625 44.84375 
Q 35.203125 47.796875 28.203125 47.796875 
Q 25.09375 47.796875 22.5 47.25 
Q 19.90625 46.703125 17.953125 45.34375 
Q 16 44 14.75 41.75 
Q 13.5 39.5 13.09375 36.09375 
L 7 36.09375 
Q 7.296875 40.703125 9.09375 43.953125 
Q 10.90625 47.203125 13.75 49.25 
Q 16.59375 51.296875 20.34375 52.25 
Q 24.09375 53.203125 28.296875 53.203125 
Q 32.203125 53.203125 35.640625 52.34375 
Q 39.09375 51.5 41.640625 49.640625 
Q 44.203125 47.796875 45.640625 44.6875 
Q 47.09375 41.59375 47.09375 37.09375 
L 47.09375 8.90625 
Q 47.09375 5.40625 48.34375 4.453125 
Q 49.59375 3.5 53.40625 4.90625 
L 53.40625 0.203125 
Q 52.703125 0 51.34375 -0.390625 
Q 50 -0.796875 48.703125 -0.796875 
Q 47.296875 -0.796875 46 -0.5 
Q 44.5 -0.296875 43.59375 0.453125 
Q 42.703125 1.203125 42.140625 2.25 
Q 41.59375 3.296875 41.390625 4.546875 
Q 41.203125 5.796875 41.203125 7.203125 
Q 37.40625 3 32.5 0.796875 
Q 27.59375 -1.40625 21.90625 -1.40625 
Q 18.5 -1.40625 15.34375 -0.5 
Q 12.203125 0.40625 9.796875 2.296875 
Q 7.40625 4.203125 6 6.953125 
Q 4.59375 9.703125 4.59375 13.5 
Q 4.59375 26.703125 22.703125 29.09375 
z
" id="Helvetica-Light-97"/>
      <path d="M 12.40625 0 
L 6.40625 0 
L 6.40625 51.796875 
L 12.40625 51.796875 
L 12.40625 44 
L 12.59375 44 
Q 14.90625 48.5 19.203125 50.84375 
Q 23.5 53.203125 28.59375 53.203125 
Q 32.203125 53.203125 34.703125 52.390625 
Q 37.203125 51.59375 38.953125 50.25 
Q 40.703125 48.90625 41.84375 47.09375 
Q 43 45.296875 43.796875 43.203125 
Q 46.40625 48.296875 50.75 50.75 
Q 55.09375 53.203125 60.703125 53.203125 
Q 66 53.203125 69.140625 51.453125 
Q 72.296875 49.703125 74 46.84375 
Q 75.703125 44 76.25 40.296875 
Q 76.796875 36.59375 76.796875 32.703125 
L 76.796875 0 
L 70.796875 0 
L 70.796875 35.796875 
Q 70.796875 41.40625 68.4375 44.59375 
Q 66.09375 47.796875 59.703125 47.796875 
Q 56.40625 47.796875 53.34375 46.34375 
Q 50.296875 44.90625 48 41.90625 
Q 47 40.59375 46.34375 38.84375 
Q 45.703125 37.09375 45.296875 35.1875 
Q 44.90625 33.296875 44.75 31.390625 
Q 44.59375 29.5 44.59375 27.90625 
L 44.59375 0 
L 38.59375 0 
L 38.59375 35.796875 
Q 38.59375 41.40625 36.25 44.59375 
Q 33.90625 47.796875 27.5 47.796875 
Q 24.203125 47.796875 21.140625 46.34375 
Q 18.09375 44.90625 15.796875 41.90625 
Q 14.796875 40.59375 14.140625 38.84375 
Q 13.5 37.09375 13.09375 35.1875 
Q 12.703125 33.296875 12.546875 31.390625 
Q 12.40625 29.5 12.40625 27.90625 
z
" id="Helvetica-Light-109"/>
      <path d="M 8.5 0 
L 23.796875 72 
L 30.59375 72 
L 22.703125 34.703125 
L 67.5 72 
L 75.203125 72 
L 40.703125 43.296875 
L 64.90625 0 
L 56.59375 0 
L 34.90625 39.09375 
L 21.203125 27.796875 
L 15.296875 0 
z
" id="Helvetica-LightOblique-75"/>
     </defs>
     <g transform="translate(88.53482 140.383291)scale(0.08 -0.08)">
      <use xlink:href="#Helvetica-Light-76"/>
      <use transform="translate(55.599991 0)" xlink:href="#Helvetica-Light-117"/>
      <use transform="translate(111.199982 0)" xlink:href="#Helvetica-Light-116"/>
      <use transform="translate(138.999969 0)" xlink:href="#Helvetica-Light-116"/>
      <use transform="translate(166.799957 0)" xlink:href="#Helvetica-Light-105"/>
      <use transform="translate(188.999954 0)" xlink:href="#Helvetica-Light-110"/>
      <use transform="translate(244.599945 0)" xlink:href="#Helvetica-Light-103"/>
      <use transform="translate(305.699936 0)" xlink:href="#Helvetica-Light-101"/>
      <use transform="translate(361.299927 0)" xlink:href="#Helvetica-Light-114"/>
      <use transform="translate(394.599915 0)" xlink:href="#Helvetica-Light-32"/>
      <use transform="translate(422.399902 0)" xlink:href="#Helvetica-Light-80"/>
      <use transform="translate(483.499893 0)" xlink:href="#Helvetica-Light-97"/>
      <use transform="translate(539.099884 0)" xlink:href="#Helvetica-Light-114"/>
      <use transform="translate(572.399872 0)" xlink:href="#Helvetica-Light-97"/>
      <use transform="translate(627.999863 0)" xlink:href="#Helvetica-Light-109"/>
      <use transform="translate(711.29985 0)" xlink:href="#Helvetica-Light-101"/>
      <use transform="translate(766.899841 0)" xlink:href="#Helvetica-Light-116"/>
      <use transform="translate(794.699829 0)" xlink:href="#Helvetica-Light-101"/>
      <use transform="translate(850.29982 0)" xlink:href="#Helvetica-Light-114"/>
      <use transform="translate(883.599808 0)" xlink:href="#Helvetica-Light-32"/>
      <use transform="translate(911.399796 0)" xlink:href="#Helvetica-Light-32"/>
      <use transform="translate(939.199783 0)" xlink:href="#Helvetica-LightOblique-75"/>
     </g>
    </g>
   </g>
   <g id="matplotlib.axis_2">
    <g id="ytick_1">
     <g id="line2d_6">
      <defs>
       <path d="M 0 0 
L -2 0 
" id="m0d276d1819" style="stroke:#000000;stroke-width:0.35;"/>
      </defs>
      <g>
       <use style="stroke:#000000;stroke-width:0.35;" x="30.7425" xlink:href="#m0d276d1819" y="120.230791"/>
      </g>
     </g>
     <g id="text_7">
      <!-- 0.00 -->
      <g transform="translate(10.17625 123.110791)scale(0.08 -0.08)">
       <use xlink:href="#Helvetica-Light-48"/>
       <use x="55.599991" xlink:href="#Helvetica-Light-46"/>
       <use x="83.399979" xlink:href="#Helvetica-Light-48"/>
       <use x="138.999969" xlink:href="#Helvetica-Light-48"/>
      </g>
     </g>
    </g>
    <g id="ytick_2">
     <g id="line2d_7">
      <g>
       <use style="stroke:#000000;stroke-width:0.35;" x="30.7425" xlink:href="#m0d276d1819" y="100.792326"/>
      </g>
     </g>
     <g id="text_8">
      <!-- 0.01 -->
      <g transform="translate(10.17625 103.672326)scale(0.08 -0.08)">
       <use xlink:href="#Helvetica-Light-48"/>
       <use x="55.599991" xlink:href="#Helvetica-Light-46"/>
       <use x="83.399979" xlink:href="#Helvetica-Light-48"/>
       <use x="138.999969" xlink:href="#Helvetica-Light-49"/>
      </g>
     </g>
    </g>
    <g id="ytick_3">
     <g id="line2d_8">
      <g>
       <use style="stroke:#000000;stroke-width:0.35;" x="30.7425" xlink:href="#m0d276d1819" y="81.353861"/>
      </g>
     </g>
     <g id="text_9">
      <!-- 0.02 -->
      <g transform="translate(10.17625 84.233861)scale(0.08 -0.08)">
       <use xlink:href="#Helvetica-Light-48"/>
       <use x="55.599991" xlink:href="#Helvetica-Light-46"/>
       <use x="83.399979" xlink:href="#Helvetica-Light-48"/>
       <use x="138.999969" xlink:href="#Helvetica-Light-50"/>
      </g>
     </g>
    </g>
    <g id="ytick_4">
     <g id="line2d_9">
      <g>
       <use style="stroke:#000000;stroke-width:0.35;" x="30.7425" xlink:href="#m0d276d1819" y="61.915396"/>
      </g>
     </g>
     <g id="text_10">
      <!-- 0.03 -->
      <defs>
       <path d="M 22.09375 39.203125 
Q 26.59375 39.203125 30.296875 39.75 
Q 34 40.296875 36.640625 41.84375 
Q 39.296875 43.40625 40.796875 46 
Q 42.296875 48.59375 42.296875 52.703125 
Q 42.296875 56 41.09375 58.34375 
Q 39.90625 60.703125 37.84375 62.203125 
Q 35.796875 63.703125 33.046875 64.390625 
Q 30.296875 65.09375 27.296875 65.09375 
Q 23.90625 65.09375 21.15625 64 
Q 18.40625 62.90625 16.40625 60.84375 
Q 14.40625 58.796875 13.296875 56.046875 
Q 12.203125 53.296875 12.203125 50 
L 5.796875 50 
Q 5.796875 54.796875 7.4375 58.640625 
Q 9.09375 62.5 12.59375 65.796875 
Q 15.90625 68.796875 20.046875 69.640625 
Q 24.203125 70.5 28.59375 70.5 
Q 32.796875 70.5 36.4375 69.453125 
Q 40.09375 68.40625 42.796875 66.25 
Q 45.5 64.09375 47.09375 60.796875 
Q 48.703125 57.5 48.703125 53.09375 
Q 48.703125 47.59375 46.25 43.59375 
Q 43.796875 39.59375 38.703125 37.40625 
Q 42.5 36.203125 44.953125 34.25 
Q 47.40625 32.296875 48.796875 29.9375 
Q 50.203125 27.59375 50.703125 25 
Q 51.203125 22.40625 51.203125 20 
Q 51.203125 15.59375 49.703125 11.796875 
Q 48.203125 8 45.296875 5.09375 
Q 42.40625 2.203125 38.15625 0.453125 
Q 33.90625 -1.296875 28.5 -1.40625 
Q 22.40625 -1.40625 17.90625 -0.296875 
Q 13.40625 0.796875 10.40625 3.34375 
Q 7.40625 5.90625 5.703125 10.046875 
Q 4 14.203125 3.40625 20.40625 
L 9.796875 20.40625 
Q 9.796875 12.296875 14.640625 8.140625 
Q 19.5 4 27.296875 4 
Q 31.09375 4 34.390625 5.296875 
Q 37.703125 6.59375 40.046875 8.796875 
Q 42.40625 11 43.65625 13.890625 
Q 44.90625 16.796875 44.796875 19.90625 
Q 44.59375 24.203125 42.796875 27.046875 
Q 41 29.90625 37.953125 31.546875 
Q 34.90625 33.203125 30.796875 33.75 
Q 26.703125 34.296875 22.09375 34 
z
" id="Helvetica-Light-51"/>
      </defs>
      <g transform="translate(10.17625 64.795396)scale(0.08 -0.08)">
       <use xlink:href="#Helvetica-Light-48"/>
       <use x="55.599991" xlink:href="#Helvetica-Light-46"/>
       <use x="83.399979" xlink:href="#Helvetica-Light-48"/>
       <use x="138.999969" xlink:href="#Helvetica-Light-51"/>
      </g>
     </g>
    </g>
    <g id="ytick_5">
     <g id="line2d_10">
      <g>
       <use style="stroke:#000000;stroke-width:0.35;" x="30.7425" xlink:href="#m0d276d1819" y="42.47693"/>
      </g>
     </g>
     <g id="text_11">
      <!-- 0.04 -->
      <defs>
       <path d="M 35.796875 17.40625 
L 3.59375 17.40625 
L 3.59375 22.90625 
L 36.40625 69.796875 
L 42.203125 69.796875 
L 42.203125 22.796875 
L 52 22.796875 
L 52 17.40625 
L 42.203125 17.40625 
L 42.203125 0 
L 35.796875 0 
z
M 9.90625 22.796875 
L 35.796875 22.796875 
L 35.796875 60.203125 
z
" id="Helvetica-Light-52"/>
      </defs>
      <g transform="translate(10.17625 45.35693)scale(0.08 -0.08)">
       <use xlink:href="#Helvetica-Light-48"/>
       <use x="55.599991" xlink:href="#Helvetica-Light-46"/>
       <use x="83.399979" xlink:href="#Helvetica-Light-48"/>
       <use x="138.999969" xlink:href="#Helvetica-Light-52"/>
      </g>
     </g>
    </g>
    <g id="ytick_6">
     <g id="line2d_11">
      <g>
       <use style="stroke:#000000;stroke-width:0.35;" x="30.7425" xlink:href="#m0d276d1819" y="23.038465"/>
      </g>
     </g>
     <g id="text_12">
      <!-- 0.05 -->
      <defs>
       <path d="M 9.90625 18.296875 
Q 10.90625 11.09375 15.65625 7.546875 
Q 20.40625 4 27.296875 4 
Q 31.203125 4 34.34375 5.390625 
Q 37.5 6.796875 39.703125 9.25 
Q 41.90625 11.703125 43.046875 14.953125 
Q 44.203125 18.203125 44.203125 22 
Q 44.203125 25.90625 42.953125 29.203125 
Q 41.703125 32.5 39.453125 34.890625 
Q 37.203125 37.296875 33.953125 38.59375 
Q 30.703125 39.90625 26.703125 39.90625 
Q 21.90625 39.90625 18.09375 38.15625 
Q 14.296875 36.40625 11.40625 32.59375 
L 6.09375 33.296875 
L 11.796875 69.796875 
L 46.796875 69.796875 
L 46.796875 64.40625 
L 17.203125 64.40625 
L 12.796875 40.703125 
Q 14.90625 42 16.65625 42.890625 
Q 18.40625 43.796875 20.203125 44.34375 
Q 22 44.90625 23.953125 45.09375 
Q 25.90625 45.296875 28.296875 45.296875 
Q 33.09375 45.296875 37.1875 43.6875 
Q 41.296875 42.09375 44.296875 39.09375 
Q 47.296875 36.09375 48.9375 31.75 
Q 50.59375 27.40625 50.59375 22 
Q 50.59375 16.40625 48.75 12.046875 
Q 46.90625 7.703125 43.796875 4.703125 
Q 40.703125 1.703125 36.640625 0.140625 
Q 32.59375 -1.40625 28.296875 -1.40625 
Q 23.296875 -1.40625 18.9375 -0.40625 
Q 14.59375 0.59375 11.296875 2.9375 
Q 8 5.296875 5.953125 9.046875 
Q 3.90625 12.796875 3.5 18.296875 
z
" id="Helvetica-Light-53"/>
      </defs>
      <g transform="translate(10.17625 25.918465)scale(0.08 -0.08)">
       <use xlink:href="#Helvetica-Light-48"/>
       <use x="55.599991" xlink:href="#Helvetica-Light-46"/>
       <use x="83.399979" xlink:href="#Helvetica-Light-48"/>
       <use x="138.999969" xlink:href="#Helvetica-Light-53"/>
      </g>
     </g>
    </g>
    <g id="ytick_7">
     <g id="line2d_12">
      <g>
       <use style="stroke:#000000;stroke-width:0.35;" x="30.7425" xlink:href="#m0d276d1819" y="3.6"/>
      </g>
     </g>
     <g id="text_13">
      <!-- 0.06 -->
      <defs>
       <path d="M 43.703125 53.203125 
Q 42.59375 58.59375 39.296875 61.84375 
Q 36 65.09375 30.296875 65.09375 
Q 23.796875 65.09375 20.046875 62 
Q 16.296875 58.90625 14.296875 54.15625 
Q 12.296875 49.40625 11.59375 43.796875 
Q 10.90625 38.203125 10.5 33.203125 
Q 12 35.203125 13.640625 37.203125 
Q 15.296875 39.203125 17.390625 40.75 
Q 19.5 42.296875 22.296875 43.25 
Q 25.09375 44.203125 29 44.203125 
Q 39.703125 44.203125 45.546875 38.140625 
Q 51.40625 32.09375 51.40625 21.5 
Q 51.40625 10.796875 45.5 4.6875 
Q 39.59375 -1.40625 28.796875 -1.40625 
Q 23.5 -1.40625 19 0.34375 
Q 14.5 2.09375 11.203125 6.09375 
Q 7.90625 10.09375 6 16.546875 
Q 4.09375 23 4.09375 32.296875 
Q 4.09375 38.59375 5.1875 45.34375 
Q 6.296875 52.09375 9.140625 57.6875 
Q 12 63.296875 16.953125 66.890625 
Q 21.90625 70.5 29.703125 70.5 
Q 38.09375 70.5 43.6875 66.09375 
Q 49.296875 61.703125 50.296875 53.203125 
z
M 28.796875 38.796875 
Q 25.09375 38.796875 22.140625 37.390625 
Q 19.203125 36 17.140625 33.59375 
Q 15.09375 31.203125 14 28.046875 
Q 12.90625 24.90625 12.90625 21.296875 
Q 12.90625 18.296875 13.75 15.25 
Q 14.59375 12.203125 16.546875 9.703125 
Q 18.5 7.203125 21.5 5.59375 
Q 24.5 4 28.90625 4 
Q 33.40625 4 36.453125 5.546875 
Q 39.5 7.09375 41.390625 9.640625 
Q 43.296875 12.203125 44.140625 15.34375 
Q 45 18.5 45 21.703125 
Q 45 29.90625 41.046875 34.34375 
Q 37.09375 38.796875 28.796875 38.796875 
z
" id="Helvetica-Light-54"/>
      </defs>
      <g transform="translate(10.17625 6.48)scale(0.08 -0.08)">
       <use xlink:href="#Helvetica-Light-48"/>
       <use x="55.599991" xlink:href="#Helvetica-Light-46"/>
       <use x="83.399979" xlink:href="#Helvetica-Light-48"/>
       <use x="138.999969" xlink:href="#Helvetica-Light-54"/>
      </g>
     </g>
    </g>
    <g id="text_14">
     <!-- Entanglement Entropy Density -->
     <defs>
      <path d="M 8.09375 0 
L 8.09375 72 
L 56 72 
L 56 66.203125 
L 14.90625 66.203125 
L 14.90625 40.203125 
L 52 40.203125 
L 52 34.40625 
L 14.90625 34.40625 
L 14.90625 5.796875 
L 57 5.796875 
L 57 0 
z
" id="Helvetica-Light-69"/>
      <path d="M 8.09375 0 
L 8.09375 72 
L 14.09375 72 
L 14.09375 0 
z
" id="Helvetica-Light-108"/>
      <path d="M 27.796875 -1.40625 
Q 22.796875 -1.296875 18.4375 0.390625 
Q 14.09375 2.09375 10.84375 5.5 
Q 7.59375 8.90625 5.6875 14 
Q 3.796875 19.09375 3.796875 25.90625 
Q 3.796875 31.59375 5.296875 36.546875 
Q 6.796875 41.5 9.796875 45.203125 
Q 12.796875 48.90625 17.296875 51.046875 
Q 21.796875 53.203125 27.796875 53.203125 
Q 33.90625 53.203125 38.40625 51.046875 
Q 42.90625 48.90625 45.90625 45.25 
Q 48.90625 41.59375 50.34375 36.59375 
Q 51.796875 31.59375 51.796875 25.90625 
Q 51.796875 19.703125 50.09375 14.703125 
Q 48.40625 9.703125 45.25 6.09375 
Q 42.09375 2.5 37.640625 0.546875 
Q 33.203125 -1.40625 27.796875 -1.40625 
z
M 45.40625 25.90625 
Q 45.40625 30.5 44.40625 34.5 
Q 43.40625 38.5 41.296875 41.453125 
Q 39.203125 44.40625 35.890625 46.09375 
Q 32.59375 47.796875 27.796875 47.796875 
Q 23.09375 47.796875 19.75 45.9375 
Q 16.40625 44.09375 14.296875 41.046875 
Q 12.203125 38 11.203125 34.046875 
Q 10.203125 30.09375 10.203125 25.90625 
Q 10.203125 21.09375 11.34375 17.046875 
Q 12.5 13 14.703125 10.09375 
Q 16.90625 7.203125 20.203125 5.59375 
Q 23.5 4 27.796875 4 
Q 32.5 4 35.84375 5.84375 
Q 39.203125 7.703125 41.296875 10.796875 
Q 43.40625 13.90625 44.40625 17.796875 
Q 45.40625 21.703125 45.40625 25.90625 
z
" id="Helvetica-Light-111"/>
      <path d="M 13.90625 25.703125 
Q 13.90625 21.296875 15.09375 17.34375 
Q 16.296875 13.40625 18.546875 10.453125 
Q 20.796875 7.5 24.046875 5.75 
Q 27.296875 4 31.40625 4 
Q 36 4 39.453125 5.84375 
Q 42.90625 7.703125 45.09375 10.890625 
Q 47.296875 14.09375 48.296875 18.34375 
Q 49.296875 22.59375 49.09375 27.5 
Q 49.09375 32.40625 47.75 36.15625 
Q 46.40625 39.90625 44 42.5 
Q 41.59375 45.09375 38.390625 46.4375 
Q 35.203125 47.796875 31.40625 47.796875 
Q 27.203125 47.796875 23.890625 46.09375 
Q 20.59375 44.40625 18.390625 41.453125 
Q 16.203125 38.5 15.046875 34.453125 
Q 13.90625 30.40625 13.90625 25.703125 
z
M 13.90625 -20.40625 
L 7.90625 -20.40625 
L 7.90625 51.796875 
L 13.90625 51.796875 
L 13.90625 42.703125 
L 14.09375 42.703125 
Q 15.40625 45.203125 17.453125 47.203125 
Q 19.5 49.203125 21.953125 50.5 
Q 24.40625 51.796875 27 52.5 
Q 29.59375 53.203125 32.09375 53.203125 
Q 38.40625 53.203125 42.796875 51.09375 
Q 47.203125 49 50.046875 45.34375 
Q 52.90625 41.703125 54.203125 36.703125 
Q 55.5 31.703125 55.5 26 
Q 55.5 20.59375 54.09375 15.59375 
Q 52.703125 10.59375 49.84375 6.84375 
Q 47 3.09375 42.640625 0.84375 
Q 38.296875 -1.40625 32.40625 -1.40625 
Q 26.90625 -1.40625 21.84375 1.046875 
Q 16.796875 3.5 13.90625 8.296875 
z
" id="Helvetica-Light-112"/>
      <path d="M 6.796875 -14.09375 
Q 8 -14.296875 9.25 -14.5 
Q 10.5 -14.703125 11.796875 -14.703125 
Q 14.296875 -14.703125 15.890625 -13.09375 
Q 17.5 -11.5 18.546875 -9.25 
Q 19.59375 -7 20.296875 -4.546875 
Q 21 -2.09375 21.90625 -0.40625 
L 1.796875 51.796875 
L 8.5 51.796875 
L 25.09375 7.296875 
L 41.703125 51.796875 
L 48.203125 51.796875 
L 28.90625 0.703125 
Q 27.09375 -4.203125 25.4375 -8.09375 
Q 23.796875 -12 21.9375 -14.75 
Q 20.09375 -17.5 17.84375 -18.953125 
Q 15.59375 -20.40625 12.5 -20.40625 
Q 10.90625 -20.40625 9.453125 -20.203125 
Q 8 -20 6.796875 -19.703125 
z
" id="Helvetica-Light-121"/>
      <path d="M 8.09375 0 
L 8.09375 72 
L 32.703125 72 
Q 35.703125 72 38.59375 71.84375 
Q 41.5 71.703125 44.296875 71.140625 
Q 47.09375 70.59375 49.75 69.5 
Q 52.40625 68.40625 54.90625 66.59375 
Q 58.5 64 60.796875 60.25 
Q 63.09375 56.5 64.4375 52.34375 
Q 65.796875 48.203125 66.34375 43.953125 
Q 66.90625 39.703125 66.90625 36.09375 
Q 66.90625 32.5 66.453125 28.796875 
Q 66 25.09375 65 21.546875 
Q 64 18 62.34375 14.75 
Q 60.703125 11.5 58.203125 8.796875 
Q 55.703125 6 52.75 4.296875 
Q 49.796875 2.59375 46.546875 1.640625 
Q 43.296875 0.703125 39.796875 0.34375 
Q 36.296875 0 32.703125 0 
z
M 14.90625 5.796875 
L 31.203125 5.796875 
Q 35.796875 5.796875 39.84375 6.34375 
Q 43.90625 6.90625 48.09375 9.09375 
Q 51.703125 10.90625 54 14 
Q 56.296875 17.09375 57.640625 20.75 
Q 59 24.40625 59.546875 28.40625 
Q 60.09375 32.40625 60.09375 36.09375 
Q 60.09375 40 59.59375 44.046875 
Q 59.09375 48.09375 57.6875 51.75 
Q 56.296875 55.40625 53.890625 58.453125 
Q 51.5 61.5 47.703125 63.5 
Q 44.5 65.203125 40.09375 65.703125 
Q 35.703125 66.203125 31.203125 66.203125 
L 14.90625 66.203125 
z
" id="Helvetica-Light-68"/>
      <path d="M 10.703125 16.203125 
Q 12.09375 9.5 15.75 6.75 
Q 19.40625 4 26.203125 4 
Q 29.5 4 31.890625 4.796875 
Q 34.296875 5.59375 35.84375 6.9375 
Q 37.40625 8.296875 38.203125 10 
Q 39 11.703125 39 13.59375 
Q 39 17.40625 36.546875 19.25 
Q 34.09375 21.09375 30.390625 22.140625 
Q 26.703125 23.203125 22.390625 23.953125 
Q 18.09375 24.703125 14.390625 26.203125 
Q 10.703125 27.703125 8.25 30.5 
Q 5.796875 33.296875 5.796875 38.40625 
Q 5.796875 44.90625 10.546875 49.046875 
Q 15.296875 53.203125 24 53.203125 
Q 32.40625 53.203125 37.65625 49.453125 
Q 42.90625 45.703125 44 36.90625 
L 37.90625 36.90625 
Q 37.09375 42.90625 33.34375 45.34375 
Q 29.59375 47.796875 23.90625 47.796875 
Q 18.203125 47.796875 15.203125 45.34375 
Q 12.203125 42.90625 12.203125 38.90625 
Q 12.203125 35.40625 14.640625 33.546875 
Q 17.09375 31.703125 20.796875 30.546875 
Q 24.5 29.40625 28.796875 28.5 
Q 33.09375 27.59375 36.796875 25.9375 
Q 40.5 24.296875 42.953125 21.5 
Q 45.40625 18.703125 45.40625 13.703125 
Q 45.40625 10 43.796875 7.140625 
Q 42.203125 4.296875 39.390625 2.390625 
Q 36.59375 0.5 32.75 -0.453125 
Q 28.90625 -1.40625 24.296875 -1.40625 
Q 19.703125 -1.40625 16.140625 -0.046875 
Q 12.59375 1.296875 10.09375 3.6875 
Q 7.59375 6.09375 6.1875 9.296875 
Q 4.796875 12.5 4.59375 16.203125 
z
" id="Helvetica-Light-115"/>
     </defs>
     <g transform="translate(6.48 115.927271)rotate(-90)scale(0.08 -0.08)">
      <use xlink:href="#Helvetica-Light-69"/>
      <use x="61.099991" xlink:href="#Helvetica-Light-110"/>
      <use x="116.699982" xlink:href="#Helvetica-Light-116"/>
      <use x="144.499969" xlink:href="#Helvetica-Light-97"/>
      <use x="200.09996" xlink:href="#Helvetica-Light-110"/>
      <use x="255.699951" xlink:href="#Helvetica-Light-103"/>
      <use x="316.799942" xlink:href="#Helvetica-Light-108"/>
      <use x="338.999939" xlink:href="#Helvetica-Light-101"/>
      <use x="394.59993" xlink:href="#Helvetica-Light-109"/>
      <use x="477.899918" xlink:href="#Helvetica-Light-101"/>
      <use x="533.499908" xlink:href="#Helvetica-Light-110"/>
      <use x="589.099899" xlink:href="#Helvetica-Light-116"/>
      <use x="616.899887" xlink:href="#Helvetica-Light-32"/>
      <use x="644.699875" xlink:href="#Helvetica-Light-69"/>
      <use x="705.799866" xlink:href="#Helvetica-Light-110"/>
      <use x="761.399857" xlink:href="#Helvetica-Light-116"/>
      <use x="789.199844" xlink:href="#Helvetica-Light-114"/>
      <use x="822.499832" xlink:href="#Helvetica-Light-111"/>
      <use x="878.099823" xlink:href="#Helvetica-Light-112"/>
      <use x="939.199814" xlink:href="#Helvetica-Light-121"/>
      <use x="989.199799" xlink:href="#Helvetica-Light-32"/>
      <use x="1016.999786" xlink:href="#Helvetica-Light-68"/>
      <use x="1089.199768" xlink:href="#Helvetica-Light-101"/>
      <use x="1144.799759" xlink:href="#Helvetica-Light-110"/>
      <use x="1200.39975" xlink:href="#Helvetica-Light-115"/>
      <use x="1250.399734" xlink:href="#Helvetica-Light-105"/>
      <use x="1272.599731" xlink:href="#Helvetica-Light-116"/>
      <use x="1300.399719" xlink:href="#Helvetica-Light-121"/>
     </g>
    </g>
   </g>
   <g id="LineCollection_1">
    <path clip-path="url(#p0c953a1a4d)" d="M 214.195741 59.020132 
L 214.195741 56.748037 
" style="fill:none;stroke:#5e4fa2;stroke-width:0.5;"/>
    <path clip-path="url(#p0c953a1a4d)" d="M 167.410227 102.302107 
L 167.410227 101.988883 
" style="fill:none;stroke:#5e4fa2;stroke-width:0.5;"/>
    <path clip-path="url(#p0c953a1a4d)" d="M 151.13956 113.036587 
L 151.13956 112.869773 
" style="fill:none;stroke:#5e4fa2;stroke-width:0.5;"/>
    <path clip-path="url(#p0c953a1a4d)" d="M 128.77482 120.230791 
L 128.77482 120.230791 
" style="fill:none;stroke:#5e4fa2;stroke-width:0.5;"/>
    <path clip-path="url(#p0c953a1a4d)" d="M 108.450259 113.482686 
L 108.450259 113.355761 
" style="fill:none;stroke:#5e4fa2;stroke-width:0.5;"/>
    <path clip-path="url(#p0c953a1a4d)" d="M 95.849009 104.110279 
L 95.849009 103.903824 
" style="fill:none;stroke:#5e4fa2;stroke-width:0.5;"/>
    <path clip-path="url(#p0c953a1a4d)" d="M 39.690578 22.055844 
L 39.690578 20.661221 
" style="fill:none;stroke:#5e4fa2;stroke-width:0.5;"/>
   </g>
   <g id="LineCollection_2">
    <path clip-path="url(#p0c953a1a4d)" d="M 214.195741 62.976246 
L 214.195741 60.698207 
" style="fill:none;stroke:#d8434e;stroke-width:0.5;"/>
    <path clip-path="url(#p0c953a1a4d)" d="M 167.410227 102.529687 
L 167.410227 101.788499 
" style="fill:none;stroke:#d8434e;stroke-width:0.5;"/>
    <path clip-path="url(#p0c953a1a4d)" d="M 151.13956 113.202095 
L 151.13956 112.94193 
" style="fill:none;stroke:#d8434e;stroke-width:0.5;"/>
    <path clip-path="url(#p0c953a1a4d)" d="M 128.77482 120.230791 
L 128.77482 120.230791 
" style="fill:none;stroke:#d8434e;stroke-width:0.5;"/>
    <path clip-path="url(#p0c953a1a4d)" d="M 108.450259 113.857626 
L 108.450259 113.590062 
" style="fill:none;stroke:#d8434e;stroke-width:0.5;"/>
    <path clip-path="url(#p0c953a1a4d)" d="M 95.849009 104.460858 
L 95.849009 103.819652 
" style="fill:none;stroke:#d8434e;stroke-width:0.5;"/>
    <path clip-path="url(#p0c953a1a4d)" d="M 39.690578 21.936921 
L 39.690578 18.873089 
" style="fill:none;stroke:#d8434e;stroke-width:0.5;"/>
   </g>
   <g id="line2d_13">
    <defs>
     <path d="M 0 1.5 
C 0.397805 1.5 0.77937 1.341951 1.06066 1.06066 
C 1.341951 0.77937 1.5 0.397805 1.5 0 
C 1.5 -0.397805 1.341951 -0.77937 1.06066 -1.06066 
C 0.77937 -1.341951 0.397805 -1.5 0 -1.5 
C -0.397805 -1.5 -0.77937 -1.341951 -1.06066 -1.06066 
C -1.341951 -0.77937 -1.5 -0.397805 -1.5 0 
C -1.5 0.397805 -1.341951 0.77937 -1.06066 1.06066 
C -0.77937 1.341951 -0.397805 1.5 0 1.5 
z
" id="m9165924d80" style="stroke:#5e4fa2;stroke-width:0.5;"/>
    </defs>
    <g clip-path="url(#p0c953a1a4d)">
     <use style="fill:#aea6d0;stroke:#5e4fa2;stroke-width:0.5;" x="214.195741" xlink:href="#m9165924d80" y="57.884085"/>
     <use style="fill:#aea6d0;stroke:#5e4fa2;stroke-width:0.5;" x="167.410227" xlink:href="#m9165924d80" y="102.145495"/>
     <use style="fill:#aea6d0;stroke:#5e4fa2;stroke-width:0.5;" x="151.13956" xlink:href="#m9165924d80" y="112.95318"/>
     <use style="fill:#aea6d0;stroke:#5e4fa2;stroke-width:0.5;" x="128.77482" xlink:href="#m9165924d80" y="120.230791"/>
     <use style="fill:#aea6d0;stroke:#5e4fa2;stroke-width:0.5;" x="108.450259" xlink:href="#m9165924d80" y="113.419223"/>
     <use style="fill:#aea6d0;stroke:#5e4fa2;stroke-width:0.5;" x="95.849009" xlink:href="#m9165924d80" y="104.007051"/>
     <use style="fill:#aea6d0;stroke:#5e4fa2;stroke-width:0.5;" x="39.690578" xlink:href="#m9165924d80" y="21.358533"/>
    </g>
   </g>
   <g id="line2d_14">
    <defs>
     <path d="M 0 1.5 
C 0.397805 1.5 0.77937 1.341951 1.06066 1.06066 
C 1.341951 0.77937 1.5 0.397805 1.5 0 
C 1.5 -0.397805 1.341951 -0.77937 1.06066 -1.06066 
C 0.77937 -1.341951 0.397805 -1.5 0 -1.5 
C -0.397805 -1.5 -0.77937 -1.341951 -1.06066 -1.06066 
C -1.341951 -0.77937 -1.5 -0.397805 -1.5 0 
C -1.5 0.397805 -1.341951 0.77937 -1.06066 1.06066 
C -0.77937 1.341951 -0.397805 1.5 0 1.5 
z
" id="m3bb1715732" style="stroke:#d8434e;stroke-width:0.5;"/>
    </defs>
    <g clip-path="url(#p0c953a1a4d)">
     <use style="fill:#eba0a6;stroke:#d8434e;stroke-width:0.5;" x="214.195741" xlink:href="#m3bb1715732" y="61.837226"/>
     <use style="fill:#eba0a6;stroke:#d8434e;stroke-width:0.5;" x="167.410227" xlink:href="#m3bb1715732" y="102.159093"/>
     <use style="fill:#eba0a6;stroke:#d8434e;stroke-width:0.5;" x="151.13956" xlink:href="#m3bb1715732" y="113.072012"/>
     <use style="fill:#eba0a6;stroke:#d8434e;stroke-width:0.5;" x="128.77482" xlink:href="#m3bb1715732" y="120.230791"/>
     <use style="fill:#eba0a6;stroke:#d8434e;stroke-width:0.5;" x="108.450259" xlink:href="#m3bb1715732" y="113.723844"/>
     <use style="fill:#eba0a6;stroke:#d8434e;stroke-width:0.5;" x="95.849009" xlink:href="#m3bb1715732" y="104.140255"/>
     <use style="fill:#eba0a6;stroke:#d8434e;stroke-width:0.5;" x="39.690578" xlink:href="#m3bb1715732" y="20.405005"/>
    </g>
   </g>
   <g id="patch_3">
    <path d="M 30.7425 120.230791 
L 30.7425 3.6 
" style="fill:none;stroke:#000000;stroke-linecap:square;stroke-linejoin:miter;stroke-width:0.35;"/>
   </g>
   <g id="patch_4">
    <path d="M 226.80714 120.230791 
L 226.80714 3.6 
" style="fill:none;stroke:#000000;stroke-linecap:square;stroke-linejoin:miter;stroke-width:0.35;"/>
   </g>
   <g id="patch_5">
    <path d="M 30.7425 120.230791 
L 226.80714 120.230791 
" style="fill:none;stroke:#000000;stroke-linecap:square;stroke-linejoin:miter;stroke-width:0.35;"/>
   </g>
   <g id="patch_6">
    <path d="M 30.7425 3.6 
L 226.80714 3.6 
" style="fill:none;stroke:#000000;stroke-linecap:square;stroke-linejoin:miter;stroke-width:0.35;"/>
   </g>
   <g id="legend_1">
    <g id="patch_7">
     <path d="M 124.74839 16.56 
L 144.74839 16.56 
L 144.74839 10.96 
L 124.74839 10.96 
z
" style="fill:#9fa2b2;opacity:0.4;stroke:#9fa2b2;stroke-linejoin:miter;"/>
    </g>
    <g id="text_15">
     <!-- diagonal ensemble -->
     <defs>
      <path d="M 47.203125 26.09375 
Q 47.203125 30.5 46 34.453125 
Q 44.796875 38.40625 42.546875 41.34375 
Q 40.296875 44.296875 37.046875 46.046875 
Q 33.796875 47.796875 29.703125 47.796875 
Q 25 47.796875 21.59375 45.9375 
Q 18.203125 44.09375 16 40.890625 
Q 13.796875 37.703125 12.796875 33.453125 
Q 11.796875 29.203125 12 24.296875 
Q 12 19.40625 13.34375 15.65625 
Q 14.703125 11.90625 17.09375 9.296875 
Q 19.5 6.703125 22.703125 5.34375 
Q 25.90625 4 29.703125 4 
Q 33.90625 4 37.203125 5.703125 
Q 40.5 7.40625 42.703125 10.34375 
Q 44.90625 13.296875 46.046875 17.34375 
Q 47.203125 21.40625 47.203125 26.09375 
z
M 47.203125 72 
L 53.203125 72 
L 53.203125 0 
L 47.203125 0 
L 47.203125 9.09375 
L 47 9.09375 
Q 45.703125 6.5 43.640625 4.546875 
Q 41.59375 2.59375 39.140625 1.296875 
Q 36.703125 0 34.09375 -0.703125 
Q 31.5 -1.40625 29 -1.40625 
Q 22.703125 -1.40625 18.296875 0.6875 
Q 13.90625 2.796875 11.046875 6.4375 
Q 8.203125 10.09375 6.890625 15.09375 
Q 5.59375 20.09375 5.59375 25.796875 
Q 5.59375 31.203125 7 36.203125 
Q 8.40625 41.203125 11.25 44.953125 
Q 14.09375 48.703125 18.4375 50.953125 
Q 22.796875 53.203125 28.703125 53.203125 
Q 34.203125 53.203125 39.25 50.75 
Q 44.296875 48.296875 47.203125 43.5 
z
" id="Helvetica-Light-100"/>
      <path d="M 13.90625 26.09375 
Q 13.90625 21.40625 15.046875 17.34375 
Q 16.203125 13.296875 18.390625 10.34375 
Q 20.59375 7.40625 23.890625 5.703125 
Q 27.203125 4 31.40625 4 
Q 35.203125 4 38.390625 5.34375 
Q 41.59375 6.703125 44 9.296875 
Q 46.40625 11.90625 47.75 15.65625 
Q 49.09375 19.40625 49.09375 24.296875 
Q 49.296875 29.203125 48.296875 33.453125 
Q 47.296875 37.703125 45.09375 40.890625 
Q 42.90625 44.09375 39.453125 45.9375 
Q 36 47.796875 31.40625 47.796875 
Q 27.296875 47.796875 24.046875 46.046875 
Q 20.796875 44.296875 18.546875 41.34375 
Q 16.296875 38.40625 15.09375 34.453125 
Q 13.90625 30.5 13.90625 26.09375 
z
M 13.90625 0 
L 7.90625 0 
L 7.90625 72 
L 13.90625 72 
L 13.90625 43.5 
Q 16.796875 48.296875 21.84375 50.75 
Q 26.90625 53.203125 32.40625 53.203125 
Q 38.296875 53.203125 42.640625 50.953125 
Q 47 48.703125 49.84375 44.953125 
Q 52.703125 41.203125 54.09375 36.203125 
Q 55.5 31.203125 55.5 25.796875 
Q 55.5 20.09375 54.203125 15.09375 
Q 52.90625 10.09375 50.046875 6.4375 
Q 47.203125 2.796875 42.796875 0.6875 
Q 38.40625 -1.40625 32.09375 -1.40625 
Q 29.59375 -1.40625 27 -0.703125 
Q 24.40625 0 21.953125 1.296875 
Q 19.5 2.59375 17.453125 4.546875 
Q 15.40625 6.5 14.09375 9.09375 
L 13.90625 9.09375 
z
" id="Helvetica-Light-98"/>
     </defs>
     <g transform="translate(151.14839 16.56)scale(0.08 -0.08)">
      <use xlink:href="#Helvetica-Light-100"/>
      <use x="61.099991" xlink:href="#Helvetica-Light-105"/>
      <use x="83.299988" xlink:href="#Helvetica-Light-97"/>
      <use x="138.899979" xlink:href="#Helvetica-Light-103"/>
      <use x="199.999969" xlink:href="#Helvetica-Light-111"/>
      <use x="255.59996" xlink:href="#Helvetica-Light-110"/>
      <use x="311.199951" xlink:href="#Helvetica-Light-97"/>
      <use x="366.799942" xlink:href="#Helvetica-Light-108"/>
      <use x="388.999939" xlink:href="#Helvetica-Light-32"/>
      <use x="416.799927" xlink:href="#Helvetica-Light-101"/>
      <use x="472.399918" xlink:href="#Helvetica-Light-110"/>
      <use x="527.999908" xlink:href="#Helvetica-Light-115"/>
      <use x="577.999893" xlink:href="#Helvetica-Light-101"/>
      <use x="633.599884" xlink:href="#Helvetica-Light-109"/>
      <use x="716.899872" xlink:href="#Helvetica-Light-98"/>
      <use x="777.999863" xlink:href="#Helvetica-Light-108"/>
      <use x="800.19986" xlink:href="#Helvetica-Light-101"/>
     </g>
    </g>
    <g id="LineCollection_3">
     <path d="M 134.74839 29.21625 
L 134.74839 21.21625 
" style="fill:none;stroke:#5e4fa2;stroke-width:0.5;"/>
    </g>
    <g id="line2d_15"/>
    <g id="line2d_16">
     <g>
      <use style="fill:#aea6d0;stroke:#5e4fa2;stroke-width:0.5;" x="134.74839" xlink:href="#m9165924d80" y="25.21625"/>
     </g>
    </g>
    <g id="text_16">
     <!-- particle -->
     <defs>
      <path d="M 43.90625 35.5 
Q 42.296875 41.296875 38.390625 44.546875 
Q 34.5 47.796875 28.5 47.796875 
Q 23.90625 47.796875 20.59375 45.890625 
Q 17.296875 44 15.1875 40.84375 
Q 13.09375 37.703125 12.09375 33.75 
Q 11.09375 29.796875 11.09375 25.796875 
Q 11.09375 21.703125 12.046875 17.796875 
Q 13 13.90625 15.09375 10.796875 
Q 17.203125 7.703125 20.5 5.84375 
Q 23.796875 4 28.5 4 
Q 35.203125 4 39.25 7.703125 
Q 43.296875 11.40625 44.40625 17.90625 
L 50.796875 17.90625 
Q 50 13.59375 48.25 10.046875 
Q 46.5 6.5 43.75 3.953125 
Q 41 1.40625 37.203125 0 
Q 33.40625 -1.40625 28.5 -1.40625 
Q 22.296875 -1.40625 17.796875 0.6875 
Q 13.296875 2.796875 10.390625 6.4375 
Q 7.5 10.09375 6.09375 15.09375 
Q 4.703125 20.09375 4.703125 25.796875 
Q 4.703125 31.203125 6.25 36.140625 
Q 7.796875 41.09375 10.796875 44.890625 
Q 13.796875 48.703125 18.25 50.953125 
Q 22.703125 53.203125 28.5 53.203125 
Q 37.5 53.203125 43.046875 48.890625 
Q 48.59375 44.59375 50 35.5 
z
" id="Helvetica-Light-99"/>
     </defs>
     <g transform="translate(151.14839 28.01625)scale(0.08 -0.08)">
      <use xlink:href="#Helvetica-Light-112"/>
      <use x="61.099991" xlink:href="#Helvetica-Light-97"/>
      <use x="116.699982" xlink:href="#Helvetica-Light-114"/>
      <use x="149.999969" xlink:href="#Helvetica-Light-116"/>
      <use x="177.799957" xlink:href="#Helvetica-Light-105"/>
      <use x="199.999954" xlink:href="#Helvetica-Light-99"/>
      <use x="255.599945" xlink:href="#Helvetica-Light-108"/>
      <use x="277.799942" xlink:href="#Helvetica-Light-101"/>
     </g>
    </g>
    <g id="LineCollection_4">
     <path d="M 134.74839 40.60875 
L 134.74839 32.60875 
" style="fill:none;stroke:#d8434e;stroke-width:0.5;"/>
    </g>
    <g id="line2d_17"/>
    <g id="line2d_18">
     <g>
      <use style="fill:#eba0a6;stroke:#d8434e;stroke-width:0.5;" x="134.74839" xlink:href="#m3bb1715732" y="36.60875"/>
     </g>
    </g>
    <g id="text_17">
     <!-- spatial -->
     <g transform="translate(151.14839 39.40875)scale(0.08 -0.08)">
      <use xlink:href="#Helvetica-Light-115"/>
      <use x="49.999985" xlink:href="#Helvetica-Light-112"/>
      <use x="111.099976" xlink:href="#Helvetica-Light-97"/>
      <use x="166.699966" xlink:href="#Helvetica-Light-116"/>
      <use x="194.499954" xlink:href="#Helvetica-Light-105"/>
      <use x="216.699951" xlink:href="#Helvetica-Light-97"/>
      <use x="272.299942" xlink:href="#Helvetica-Light-108"/>
     </g>
    </g>
   </g>
  </g>
 </g>
 <defs>
  <clipPath id="p0c953a1a4d">
   <rect height="116.630791" width="196.06464" x="30.7425" y="3.6"/>
  </clipPath>
 </defs>
</svg>
