<?xml version="1.0" encoding="utf-8" standalone="no"?>
<!DOCTYPE svg PUBLIC "-//W3C//DTD SVG 1.1//EN"
  "http://www.w3.org/Graphics/SVG/1.1/DTD/svg11.dtd">
<!-- Created with matplotlib (https://matplotlib.org/) -->
<svg height="142.946416pt" version="1.1" viewBox="0 0 227.58214 142.946416" width="227.58214pt" xmlns="http://www.w3.org/2000/svg" xmlns:xlink="http://www.w3.org/1999/xlink">
 <defs>
  <style type="text/css">
*{stroke-linecap:butt;stroke-linejoin:round;}
  </style>
 </defs>
 <g id="figure_1">
  <g id="patch_1">
   <path d="M 0 142.946416 
L 227.58214 142.946416 
L 227.58214 0 
L 0 0 
z
" style="fill:none;"/>
  </g>
  <g id="axes_1">
   <g id="patch_2">
    <path d="M 30.7975 120.220166 
L 226.86214 120.220166 
L 226.86214 3.589375 
L 30.7975 3.589375 
z
" style="fill:none;"/>
   </g>
   <g id="PolyCollection_1">
    <path clip-path="url(#p58b966d6c1)" d="M 17.429456 5.80975 
L 17.429456 -37.094156 
L 19.679969 -31.237976 
L 21.930481 -25.493091 
L 24.180994 -19.858973 
L 26.431506 -14.335126 
L 28.682018 -8.921083 
L 30.932531 -3.616406 
L 33.183043 1.579309 
L 35.433556 6.666439 
L 37.684068 11.645325 
L 39.93458 16.51628 
L 42.185093 21.279583 
L 44.435605 25.93548 
L 46.686118 30.484184 
L 48.93663 34.925874 
L 51.187142 39.260691 
L 53.437655 43.488742 
L 55.688167 47.610096 
L 57.93868 51.624783 
L 60.189192 55.532792 
L 62.439704 59.33407 
L 64.690217 63.02852 
L 66.940729 66.615998 
L 69.191241 70.096314 
L 71.441754 73.469222 
L 73.692266 76.734424 
L 75.942779 79.891565 
L 78.193291 82.940224 
L 80.443803 85.879915 
L 82.694316 88.710079 
L 84.944828 91.430079 
L 87.195341 94.03919 
L 89.445853 96.536594 
L 91.696365 98.921366 
L 93.946878 101.192466 
L 96.19739 103.348723 
L 98.447903 105.388817 
L 100.698415 107.311256 
L 102.948927 109.114356 
L 105.19944 110.796201 
L 107.449952 112.354601 
L 109.700465 113.787041 
L 111.950977 115.0906 
L 114.201489 116.261849 
L 116.452002 117.296698 
L 118.702514 118.190163 
L 120.953027 118.935994 
L 123.203539 119.52599 
L 125.454051 119.948573 
L 127.704564 120.184697 
L 129.955076 120.184863 
L 132.205589 119.952323 
L 134.456101 119.541764 
L 136.706613 118.976407 
L 138.957126 118.271506 
L 141.207638 117.438591 
L 143.458151 116.486979 
L 145.708663 115.424508 
L 147.959175 114.25795 
L 150.209688 112.993266 
L 152.4602 111.635778 
L 154.710713 110.19029 
L 156.961225 108.661179 
L 159.211737 107.052458 
L 161.46225 105.367829 
L 163.712762 103.610726 
L 165.963275 101.784347 
L 168.213787 99.891677 
L 170.464299 97.935519 
L 172.714812 95.918506 
L 174.965324 93.843121 
L 177.215837 91.711707 
L 179.466349 89.526484 
L 181.716861 87.289557 
L 183.967374 85.002924 
L 186.217886 82.668484 
L 188.468399 80.288049 
L 190.718911 77.863345 
L 192.969423 75.396019 
L 195.219936 72.887646 
L 197.470448 70.339732 
L 199.72096 67.75372 
L 201.971473 65.130992 
L 204.221985 62.472874 
L 206.472498 59.780637 
L 208.72301 57.055503 
L 210.973522 54.298647 
L 213.224035 51.511197 
L 215.474547 48.69424 
L 217.72506 45.848821 
L 219.975572 42.975949 
L 222.226084 40.076592 
L 224.476597 37.151688 
L 226.727109 34.202139 
L 228.977622 31.228816 
L 231.228134 28.232559 
L 233.478646 25.214182 
L 235.729159 22.174467 
L 237.979671 19.114173 
L 240.230184 16.034033 
L 240.230184 44.448433 
L 240.230184 44.448433 
L 237.979671 46.688535 
L 235.729159 48.914203 
L 233.478646 51.124905 
L 231.228134 53.320089 
L 228.977622 55.499184 
L 226.727109 57.661601 
L 224.476597 59.806728 
L 222.226084 61.933931 
L 219.975572 64.042553 
L 217.72506 66.131915 
L 215.474547 68.201311 
L 213.224035 70.250007 
L 210.973522 72.277243 
L 208.72301 74.28223 
L 206.472498 76.264145 
L 204.221985 78.222135 
L 201.971473 80.155312 
L 199.72096 82.062751 
L 197.470448 83.943487 
L 195.219936 85.796515 
L 192.969423 87.620786 
L 190.718911 89.415205 
L 188.468399 91.178627 
L 186.217886 92.909852 
L 183.967374 94.607626 
L 181.716861 96.270632 
L 179.466349 97.897489 
L 177.215837 99.486741 
L 174.965324 101.03686 
L 172.714812 102.546232 
L 170.464299 104.01315 
L 168.213787 105.43581 
L 165.963275 106.812297 
L 163.712762 108.140574 
L 161.46225 109.418467 
L 159.211737 110.643651 
L 156.961225 111.81363 
L 154.710713 112.925711 
L 152.4602 113.976974 
L 150.209688 114.964239 
L 147.959175 115.884009 
L 145.708663 116.732415 
L 143.458151 117.505121 
L 141.207638 118.197202 
L 138.957126 118.802959 
L 136.706613 119.315614 
L 134.456101 119.726783 
L 132.205589 120.025371 
L 129.955076 120.194491 
L 127.704564 120.194371 
L 125.454051 120.022644 
L 123.203539 119.715311 
L 120.953027 119.286222 
L 118.702514 118.7438 
L 116.452002 118.094007 
L 114.201489 117.34139 
L 111.950977 116.489573 
L 109.700465 115.54153 
L 107.449952 114.499755 
L 105.19944 113.366373 
L 102.948927 112.143214 
L 100.698415 110.831868 
L 98.447903 109.43373 
L 96.19739 107.950026 
L 93.946878 106.381839 
L 91.696365 104.73013 
L 89.445853 102.99575 
L 87.195341 101.179456 
L 84.944828 99.281921 
L 82.694316 97.303739 
L 80.443803 95.245438 
L 78.193291 93.107481 
L 75.942779 90.890274 
L 73.692266 88.594172 
L 71.441754 86.219479 
L 69.191241 83.766455 
L 66.940729 81.235317 
L 64.690217 78.626241 
L 62.439704 75.939369 
L 60.189192 73.174803 
L 57.93868 70.332615 
L 55.688167 67.412842 
L 53.437655 64.415494 
L 51.187142 61.340548 
L 48.93663 58.187953 
L 46.686118 54.957634 
L 44.435605 51.649485 
L 42.185093 48.263378 
L 39.93458 44.799158 
L 37.684068 41.256645 
L 35.433556 37.635637 
L 33.183043 33.935907 
L 30.932531 30.157205 
L 28.682018 26.299258 
L 26.431506 22.361772 
L 24.180994 18.344428 
L 21.930481 14.246888 
L 19.679969 10.06879 
L 17.429456 5.80975 
z
" style="fill:#9fa2b2;fill-opacity:0.4;stroke:#9fa2b2;stroke-opacity:0.4;"/>
   </g>
   <g id="matplotlib.axis_1">
    <g id="xtick_1">
     <g id="line2d_1">
      <defs>
       <path d="M 0 0 
L 0 2 
" id="me6a9b186a9" style="stroke:#000000;stroke-width:0.35;"/>
      </defs>
      <g>
       <use style="stroke:#000000;stroke-width:0.35;" x="39.709529" xlink:href="#me6a9b186a9" y="120.220166"/>
      </g>
     </g>
     <g id="text_1">
      <!-- 0.8 -->
      <defs>
       <path d="M 27.046875 69.921875 
Q 40.625 69.921875 46.6875 58.734375 
Q 51.375 50.09375 51.375 35.0625 
Q 51.375 20.796875 47.125 11.46875 
Q 40.96875 -1.90625 27 -1.90625 
Q 14.40625 -1.90625 8.25 9.03125 
Q 3.125 18.171875 3.125 33.546875 
Q 3.125 45.453125 6.203125 54 
Q 11.96875 69.921875 27.046875 69.921875 
z
M 26.953125 6.109375 
Q 33.796875 6.109375 37.84375 12.15625 
Q 41.890625 18.21875 41.890625 34.71875 
Q 41.890625 46.625 38.953125 54.3125 
Q 36.03125 62.015625 27.59375 62.015625 
Q 19.828125 62.015625 16.234375 54.703125 
Q 12.640625 47.40625 12.640625 33.203125 
Q 12.640625 22.515625 14.9375 16.015625 
Q 18.453125 6.109375 26.953125 6.109375 
z
" id="Helvetica-48"/>
       <path d="M 8.546875 10.640625 
L 18.75 10.640625 
L 18.75 0 
L 8.546875 0 
z
" id="Helvetica-46"/>
       <path d="M 27.203125 40.625 
Q 33.015625 40.625 36.28125 43.875 
Q 39.546875 47.125 39.546875 51.609375 
Q 39.546875 55.515625 36.421875 58.78125 
Q 33.296875 62.0625 26.90625 62.0625 
Q 20.5625 62.0625 17.71875 58.78125 
Q 14.890625 55.515625 14.890625 51.125 
Q 14.890625 46.1875 18.546875 43.40625 
Q 22.21875 40.625 27.203125 40.625 
z
M 27.734375 6 
Q 33.84375 6 37.859375 9.296875 
Q 41.890625 12.59375 41.890625 19.140625 
Q 41.890625 25.921875 37.734375 29.4375 
Q 33.59375 32.953125 27.09375 32.953125 
Q 20.796875 32.953125 16.8125 29.359375 
Q 12.84375 25.78125 12.84375 19.4375 
Q 12.84375 13.96875 16.484375 9.984375 
Q 20.125 6 27.734375 6 
z
M 15.234375 37.25 
Q 11.578125 38.8125 9.515625 40.921875 
Q 5.671875 44.828125 5.671875 51.078125 
Q 5.671875 58.890625 11.328125 64.5 
Q 17 70.125 27.390625 70.125 
Q 37.453125 70.125 43.15625 64.8125 
Q 48.875 59.515625 48.875 52.4375 
Q 48.875 45.90625 45.5625 41.84375 
Q 43.703125 39.546875 39.796875 37.359375 
Q 44.140625 35.359375 46.625 32.765625 
Q 51.265625 27.875 51.265625 20.0625 
Q 51.265625 10.84375 45.0625 4.421875 
Q 38.875 -2 27.546875 -2 
Q 17.328125 -2 10.265625 3.53125 
Q 3.21875 9.078125 3.21875 19.625 
Q 3.21875 25.828125 6.25 30.34375 
Q 9.28125 34.859375 15.234375 37.25 
z
" id="Helvetica-56"/>
      </defs>
      <g transform="translate(34.149529 130.958916)scale(0.08 -0.08)">
       <use xlink:href="#Helvetica-48"/>
       <use x="55.615234" xlink:href="#Helvetica-46"/>
       <use x="83.398438" xlink:href="#Helvetica-56"/>
      </g>
     </g>
    </g>
    <g id="xtick_2">
     <g id="line2d_2">
      <g>
       <use style="stroke:#000000;stroke-width:0.35;" x="84.269675" xlink:href="#me6a9b186a9" y="120.220166"/>
      </g>
     </g>
     <g id="text_2">
      <!-- 0.9 -->
      <defs>
       <path d="M 13.28125 16.890625 
Q 13.671875 9.625 18.890625 6.84375 
Q 21.578125 5.375 24.953125 5.375 
Q 31.25 5.375 35.6875 10.625 
Q 40.140625 15.875 42 31.9375 
Q 39.0625 27.296875 34.734375 25.40625 
Q 30.421875 23.53125 25.4375 23.53125 
Q 15.328125 23.53125 9.4375 29.828125 
Q 3.5625 36.140625 3.5625 46.046875 
Q 3.5625 55.5625 9.375 62.78125 
Q 15.1875 70.015625 26.515625 70.015625 
Q 41.796875 70.015625 47.609375 56.25 
Q 50.828125 48.6875 50.828125 37.3125 
Q 50.828125 24.46875 46.96875 14.546875 
Q 40.578125 -1.953125 25.296875 -1.953125 
Q 15.046875 -1.953125 9.71875 3.421875 
Q 4.390625 8.796875 4.390625 16.890625 
z
M 26.609375 31.25 
Q 31.84375 31.25 36.15625 34.6875 
Q 40.484375 38.140625 40.484375 46.734375 
Q 40.484375 54.4375 36.59375 58.21875 
Q 32.71875 62.015625 26.703125 62.015625 
Q 20.265625 62.015625 16.484375 57.6875 
Q 12.703125 53.375 12.703125 46.140625 
Q 12.703125 39.3125 16.015625 35.28125 
Q 19.34375 31.25 26.609375 31.25 
z
" id="Helvetica-57"/>
      </defs>
      <g transform="translate(78.709675 130.958916)scale(0.08 -0.08)">
       <use xlink:href="#Helvetica-48"/>
       <use x="55.615234" xlink:href="#Helvetica-46"/>
       <use x="83.398438" xlink:href="#Helvetica-57"/>
      </g>
     </g>
    </g>
    <g id="xtick_3">
     <g id="line2d_3">
      <g>
       <use style="stroke:#000000;stroke-width:0.35;" x="128.82982" xlink:href="#me6a9b186a9" y="120.220166"/>
      </g>
     </g>
     <g id="text_3">
      <!-- 1.0 -->
      <defs>
       <path d="M 9.578125 49.515625 
L 9.578125 56.25 
Q 19.09375 57.171875 22.84375 59.34375 
Q 26.609375 61.53125 28.46875 69.625 
L 35.40625 69.625 
L 35.40625 0 
L 26.03125 0 
L 26.03125 49.515625 
z
" id="Helvetica-49"/>
      </defs>
      <g transform="translate(123.26982 130.958916)scale(0.08 -0.08)">
       <use xlink:href="#Helvetica-49"/>
       <use x="55.615234" xlink:href="#Helvetica-46"/>
       <use x="83.398438" xlink:href="#Helvetica-48"/>
      </g>
     </g>
    </g>
    <g id="xtick_4">
     <g id="line2d_4">
      <g>
       <use style="stroke:#000000;stroke-width:0.35;" x="173.389965" xlink:href="#me6a9b186a9" y="120.220166"/>
      </g>
     </g>
     <g id="text_4">
      <!-- 1.1 -->
      <g transform="translate(167.829965 130.958916)scale(0.08 -0.08)">
       <use xlink:href="#Helvetica-49"/>
       <use x="55.615234" xlink:href="#Helvetica-46"/>
       <use x="83.398438" xlink:href="#Helvetica-49"/>
      </g>
     </g>
    </g>
    <g id="xtick_5">
     <g id="line2d_5">
      <g>
       <use style="stroke:#000000;stroke-width:0.35;" x="217.950111" xlink:href="#me6a9b186a9" y="120.220166"/>
      </g>
     </g>
     <g id="text_5">
      <!-- 1.2 -->
      <defs>
       <path d="M 3.125 0 
Q 3.609375 9.03125 6.859375 15.71875 
Q 10.109375 22.40625 19.53125 27.875 
L 28.90625 33.296875 
Q 35.203125 36.96875 37.75 39.546875 
Q 41.75 43.609375 41.75 48.828125 
Q 41.75 54.9375 38.078125 58.515625 
Q 34.421875 62.109375 28.328125 62.109375 
Q 19.28125 62.109375 15.828125 55.28125 
Q 13.96875 51.609375 13.765625 45.125 
L 4.828125 45.125 
Q 4.984375 54.25 8.203125 60.015625 
Q 13.921875 70.171875 28.375 70.171875 
Q 40.375 70.171875 45.921875 63.671875 
Q 51.46875 57.171875 51.46875 49.21875 
Q 51.46875 40.828125 45.5625 34.859375 
Q 42.140625 31.390625 33.296875 26.46875 
L 26.609375 22.75 
Q 21.828125 20.125 19.09375 17.71875 
Q 14.203125 13.484375 12.9375 8.296875 
L 51.125 8.296875 
L 51.125 0 
L 3.125 0 
z
" id="Helvetica-50"/>
      </defs>
      <g transform="translate(212.390111 130.958916)scale(0.08 -0.08)">
       <use xlink:href="#Helvetica-49"/>
       <use x="55.615234" xlink:href="#Helvetica-46"/>
       <use x="83.398438" xlink:href="#Helvetica-50"/>
      </g>
     </g>
    </g>
    <g id="text_6">
     <!-- Luttinger Parameter  $K$ -->
     <defs>
      <path d="M 7.625 71.734375 
L 17.328125 71.734375 
L 17.328125 8.546875 
L 53.65625 8.546875 
L 53.65625 0 
L 7.625 0 
z
" id="Helvetica-76"/>
      <path d="M 15.234375 52.296875 
L 15.234375 17.578125 
Q 15.234375 13.578125 16.5 11.03125 
Q 18.84375 6.34375 25.25 6.34375 
Q 34.421875 6.34375 37.75 14.546875 
Q 39.546875 18.953125 39.546875 26.609375 
L 39.546875 52.296875 
L 48.34375 52.296875 
L 48.34375 0 
L 40.046875 0 
L 40.140625 7.71875 
Q 38.421875 4.734375 35.890625 2.6875 
Q 30.859375 -1.421875 23.6875 -1.421875 
Q 12.5 -1.421875 8.453125 6.0625 
Q 6.25 10.0625 6.25 16.75 
L 6.25 52.296875 
z
M 27.296875 53.5625 
z
" id="Helvetica-117"/>
      <path d="M 8.203125 66.890625 
L 17.09375 66.890625 
L 17.09375 52.296875 
L 25.4375 52.296875 
L 25.4375 45.125 
L 17.09375 45.125 
L 17.09375 10.984375 
Q 17.09375 8.25 18.953125 7.328125 
Q 19.96875 6.78125 22.359375 6.78125 
Q 23 6.78125 23.734375 6.8125 
Q 24.46875 6.84375 25.4375 6.9375 
L 25.4375 0 
Q 23.921875 -0.4375 22.28125 -0.625 
Q 20.65625 -0.828125 18.75 -0.828125 
Q 12.59375 -0.828125 10.390625 2.3125 
Q 8.203125 5.46875 8.203125 10.5 
L 8.203125 45.125 
L 1.125 45.125 
L 1.125 52.296875 
L 8.203125 52.296875 
z
" id="Helvetica-116"/>
      <path d="M 6.453125 52.046875 
L 15.375 52.046875 
L 15.375 0 
L 6.453125 0 
z
M 6.453125 71.734375 
L 15.375 71.734375 
L 15.375 61.765625 
L 6.453125 61.765625 
z
" id="Helvetica-105"/>
      <path d="M 6.453125 52.296875 
L 14.796875 52.296875 
L 14.796875 44.875 
Q 18.5 49.46875 22.65625 51.46875 
Q 26.8125 53.46875 31.890625 53.46875 
Q 43.015625 53.46875 46.921875 45.703125 
Q 49.078125 41.453125 49.078125 33.546875 
L 49.078125 0 
L 40.140625 0 
L 40.140625 32.953125 
Q 40.140625 37.75 38.71875 40.671875 
Q 36.375 45.5625 30.21875 45.5625 
Q 27.09375 45.5625 25.09375 44.921875 
Q 21.484375 43.84375 18.75 40.625 
Q 16.546875 38.03125 15.890625 35.265625 
Q 15.234375 32.515625 15.234375 27.390625 
L 15.234375 0 
L 6.453125 0 
z
M 27.09375 53.5625 
z
" id="Helvetica-110"/>
      <path d="M 24.90625 53.21875 
Q 31.0625 53.21875 35.640625 50.203125 
Q 38.140625 48.484375 40.71875 45.21875 
L 40.71875 51.8125 
L 48.828125 51.8125 
L 48.828125 4.25 
Q 48.828125 -5.71875 45.90625 -11.46875 
Q 40.4375 -22.125 25.25 -22.125 
Q 16.796875 -22.125 11.03125 -18.328125 
Q 5.28125 -14.546875 4.59375 -6.5 
L 13.53125 -6.5 
Q 14.15625 -10.015625 16.0625 -11.921875 
Q 19.046875 -14.84375 25.4375 -14.84375 
Q 35.546875 -14.84375 38.671875 -7.71875 
Q 40.53125 -3.515625 40.375 7.28125 
Q 37.75 3.265625 34.03125 1.3125 
Q 30.328125 -0.640625 24.21875 -0.640625 
Q 15.71875 -0.640625 9.34375 5.390625 
Q 2.984375 11.421875 2.984375 25.34375 
Q 2.984375 38.484375 9.40625 45.84375 
Q 15.828125 53.21875 24.90625 53.21875 
z
M 40.71875 26.375 
Q 40.71875 36.078125 36.71875 40.765625 
Q 32.71875 45.453125 26.515625 45.453125 
Q 17.234375 45.453125 13.8125 36.765625 
Q 12.015625 32.125 12.015625 24.609375 
Q 12.015625 15.765625 15.59375 11.15625 
Q 19.1875 6.546875 25.25 6.546875 
Q 34.71875 6.546875 38.578125 15.09375 
Q 40.71875 19.921875 40.71875 26.375 
z
M 25.921875 53.5625 
z
" id="Helvetica-103"/>
      <path d="M 28.21875 53.46875 
Q 33.796875 53.46875 39.015625 50.859375 
Q 44.234375 48.25 46.96875 44.09375 
Q 49.609375 40.140625 50.484375 34.859375 
Q 51.265625 31.25 51.265625 23.34375 
L 12.9375 23.34375 
Q 13.1875 15.375 16.703125 10.5625 
Q 20.21875 5.765625 27.59375 5.765625 
Q 34.46875 5.765625 38.578125 10.296875 
Q 40.921875 12.9375 41.890625 16.40625 
L 50.53125 16.40625 
Q 50.203125 13.53125 48.265625 9.984375 
Q 46.34375 6.453125 43.953125 4.203125 
Q 39.9375 0.296875 34.03125 -1.078125 
Q 30.859375 -1.859375 26.859375 -1.859375 
Q 17.09375 -1.859375 10.296875 5.25 
Q 3.515625 12.359375 3.515625 25.140625 
Q 3.515625 37.75 10.34375 45.609375 
Q 17.1875 53.46875 28.21875 53.46875 
z
M 42.234375 30.328125 
Q 41.703125 36.03125 39.75 39.453125 
Q 36.140625 45.796875 27.6875 45.796875 
Q 21.625 45.796875 17.515625 41.421875 
Q 13.421875 37.0625 13.1875 30.328125 
z
M 27.390625 53.5625 
z
" id="Helvetica-101"/>
      <path d="M 6.6875 52.296875 
L 15.046875 52.296875 
L 15.046875 43.265625 
Q 16.0625 45.90625 20.0625 49.6875 
Q 24.078125 53.46875 29.296875 53.46875 
Q 29.546875 53.46875 30.125 53.421875 
Q 30.71875 53.375 32.125 53.21875 
L 32.125 43.953125 
Q 31.34375 44.09375 30.6875 44.140625 
Q 30.03125 44.1875 29.25 44.1875 
Q 22.609375 44.1875 19.046875 39.90625 
Q 15.484375 35.640625 15.484375 30.078125 
L 15.484375 0 
L 6.6875 0 
z
" id="Helvetica-114"/>
      <path id="Helvetica-32"/>
      <path d="M 8.546875 71.734375 
L 40.828125 71.734375 
Q 50.390625 71.734375 56.25 66.328125 
Q 62.109375 60.9375 62.109375 51.171875 
Q 62.109375 42.78125 56.875 36.546875 
Q 51.65625 30.328125 40.828125 30.328125 
L 18.265625 30.328125 
L 18.265625 0 
L 8.546875 0 
z
M 52.296875 51.125 
Q 52.296875 59.03125 46.4375 61.859375 
Q 43.21875 63.375 37.59375 63.375 
L 18.265625 63.375 
L 18.265625 38.53125 
L 37.59375 38.53125 
Q 44.140625 38.53125 48.21875 41.3125 
Q 52.296875 44.09375 52.296875 51.125 
z
" id="Helvetica-80"/>
      <path d="M 13.1875 13.921875 
Q 13.1875 10.109375 15.96875 7.90625 
Q 18.75 5.71875 22.5625 5.71875 
Q 27.203125 5.71875 31.546875 7.859375 
Q 38.875 11.421875 38.875 19.53125 
L 38.875 26.609375 
Q 37.25 25.59375 34.703125 24.90625 
Q 32.171875 24.21875 29.734375 23.921875 
L 24.421875 23.25 
Q 19.625 22.609375 17.234375 21.234375 
Q 13.1875 18.953125 13.1875 13.921875 
z
M 34.46875 31.6875 
Q 37.5 32.078125 38.53125 34.234375 
Q 39.109375 35.40625 39.109375 37.59375 
Q 39.109375 42.09375 35.90625 44.109375 
Q 32.71875 46.140625 26.765625 46.140625 
Q 19.875 46.140625 17 42.4375 
Q 15.375 40.375 14.890625 36.328125 
L 6.6875 36.328125 
Q 6.9375 46 12.96875 49.78125 
Q 19 53.5625 26.953125 53.5625 
Q 36.1875 53.5625 41.9375 50.046875 
Q 47.65625 46.53125 47.65625 39.109375 
L 47.65625 8.984375 
Q 47.65625 7.625 48.21875 6.78125 
Q 48.78125 5.953125 50.59375 5.953125 
Q 51.171875 5.953125 51.90625 6.03125 
Q 52.640625 6.109375 53.46875 6.25 
L 53.46875 -0.25 
Q 51.421875 -0.828125 50.34375 -0.96875 
Q 49.265625 -1.125 47.40625 -1.125 
Q 42.875 -1.125 40.828125 2.09375 
Q 39.75 3.8125 39.3125 6.9375 
Q 36.625 3.421875 31.59375 0.828125 
Q 26.5625 -1.765625 20.515625 -1.765625 
Q 13.234375 -1.765625 8.609375 2.65625 
Q 4 7.078125 4 13.71875 
Q 4 21 8.546875 25 
Q 13.09375 29 20.453125 29.9375 
z
M 27.203125 53.5625 
z
" id="Helvetica-97"/>
      <path d="M 6.453125 52.296875 
L 15.140625 52.296875 
L 15.140625 44.875 
Q 18.265625 48.734375 20.796875 50.484375 
Q 25.140625 53.46875 30.671875 53.46875 
Q 36.921875 53.46875 40.71875 50.390625 
Q 42.875 48.640625 44.625 45.21875 
Q 47.5625 49.421875 51.515625 51.4375 
Q 55.46875 53.46875 60.40625 53.46875 
Q 70.953125 53.46875 74.75 45.84375 
Q 76.8125 41.75 76.8125 34.8125 
L 76.8125 0 
L 67.671875 0 
L 67.671875 36.328125 
Q 67.671875 41.546875 65.0625 43.5 
Q 62.453125 45.453125 58.6875 45.453125 
Q 53.515625 45.453125 49.78125 41.984375 
Q 46.046875 38.53125 46.046875 30.421875 
L 46.046875 0 
L 37.109375 0 
L 37.109375 34.125 
Q 37.109375 39.453125 35.84375 41.890625 
Q 33.84375 45.5625 28.375 45.5625 
Q 23.390625 45.5625 19.3125 41.703125 
Q 15.234375 37.84375 15.234375 27.734375 
L 15.234375 0 
L 6.453125 0 
z
" id="Helvetica-109"/>
      <path d="M 7.625 71.734375 
L 17.09375 71.734375 
L 17.09375 36.765625 
L 52.046875 71.734375 
L 65.484375 71.734375 
L 35.640625 42.828125 
L 66.3125 0 
L 53.65625 0 
L 28.5625 35.984375 
L 17.09375 25 
L 17.09375 0 
L 7.625 0 
z
" id="Helvetica-75"/>
     </defs>
     <g transform="translate(88.54982 140.386416)scale(0.08 -0.08)">
      <use transform="translate(0 0.265625)" xlink:href="#Helvetica-76"/>
      <use transform="translate(55.615234 0.265625)" xlink:href="#Helvetica-117"/>
      <use transform="translate(111.230469 0.265625)" xlink:href="#Helvetica-116"/>
      <use transform="translate(139.013672 0.265625)" xlink:href="#Helvetica-116"/>
      <use transform="translate(166.796875 0.265625)" xlink:href="#Helvetica-105"/>
      <use transform="translate(189.013672 0.265625)" xlink:href="#Helvetica-110"/>
      <use transform="translate(244.628906 0.265625)" xlink:href="#Helvetica-103"/>
      <use transform="translate(300.244141 0.265625)" xlink:href="#Helvetica-101"/>
      <use transform="translate(355.859375 0.265625)" xlink:href="#Helvetica-114"/>
      <use transform="translate(389.160156 0.265625)" xlink:href="#Helvetica-32"/>
      <use transform="translate(416.943359 0.265625)" xlink:href="#Helvetica-80"/>
      <use transform="translate(483.642578 0.265625)" xlink:href="#Helvetica-97"/>
      <use transform="translate(539.257812 0.265625)" xlink:href="#Helvetica-114"/>
      <use transform="translate(572.558594 0.265625)" xlink:href="#Helvetica-97"/>
      <use transform="translate(628.173828 0.265625)" xlink:href="#Helvetica-109"/>
      <use transform="translate(711.474609 0.265625)" xlink:href="#Helvetica-101"/>
      <use transform="translate(767.089844 0.265625)" xlink:href="#Helvetica-116"/>
      <use transform="translate(794.873047 0.265625)" xlink:href="#Helvetica-101"/>
      <use transform="translate(850.488281 0.265625)" xlink:href="#Helvetica-114"/>
      <use transform="translate(883.789062 0.265625)" xlink:href="#Helvetica-32"/>
      <use transform="translate(911.572266 0.265625)" xlink:href="#Helvetica-32"/>
      <use transform="translate(939.355469 0.265625)" xlink:href="#Helvetica-75"/>
     </g>
    </g>
   </g>
   <g id="matplotlib.axis_2">
    <g id="ytick_1">
     <g id="line2d_6">
      <defs>
       <path d="M 0 0 
L -2 0 
" id="m88f78767fc" style="stroke:#000000;stroke-width:0.35;"/>
      </defs>
      <g>
       <use style="stroke:#000000;stroke-width:0.35;" x="30.7975" xlink:href="#m88f78767fc" y="120.220166"/>
      </g>
     </g>
     <g id="text_7">
      <!-- 0.00 -->
      <g transform="translate(10.22875 123.089541)scale(0.08 -0.08)">
       <use xlink:href="#Helvetica-48"/>
       <use x="55.615234" xlink:href="#Helvetica-46"/>
       <use x="83.398438" xlink:href="#Helvetica-48"/>
       <use x="139.013672" xlink:href="#Helvetica-48"/>
      </g>
     </g>
    </g>
    <g id="ytick_2">
     <g id="line2d_7">
      <g>
       <use style="stroke:#000000;stroke-width:0.35;" x="30.7975" xlink:href="#m88f78767fc" y="100.781701"/>
      </g>
     </g>
     <g id="text_8">
      <!-- 0.01 -->
      <g transform="translate(10.22875 103.651076)scale(0.08 -0.08)">
       <use xlink:href="#Helvetica-48"/>
       <use x="55.615234" xlink:href="#Helvetica-46"/>
       <use x="83.398438" xlink:href="#Helvetica-48"/>
       <use x="139.013672" xlink:href="#Helvetica-49"/>
      </g>
     </g>
    </g>
    <g id="ytick_3">
     <g id="line2d_8">
      <g>
       <use style="stroke:#000000;stroke-width:0.35;" x="30.7975" xlink:href="#m88f78767fc" y="81.343236"/>
      </g>
     </g>
     <g id="text_9">
      <!-- 0.02 -->
      <g transform="translate(10.22875 84.212611)scale(0.08 -0.08)">
       <use xlink:href="#Helvetica-48"/>
       <use x="55.615234" xlink:href="#Helvetica-46"/>
       <use x="83.398438" xlink:href="#Helvetica-48"/>
       <use x="139.013672" xlink:href="#Helvetica-50"/>
      </g>
     </g>
    </g>
    <g id="ytick_4">
     <g id="line2d_9">
      <g>
       <use style="stroke:#000000;stroke-width:0.35;" x="30.7975" xlink:href="#m88f78767fc" y="61.904771"/>
      </g>
     </g>
     <g id="text_10">
      <!-- 0.03 -->
      <defs>
       <path d="M 25.984375 -1.90625 
Q 13.578125 -1.90625 7.984375 4.90625 
Q 2.390625 11.71875 2.390625 21.484375 
L 11.578125 21.484375 
Q 12.15625 14.703125 14.109375 11.625 
Q 17.53125 6.109375 26.46875 6.109375 
Q 33.40625 6.109375 37.59375 9.8125 
Q 41.796875 13.53125 41.796875 19.390625 
Q 41.796875 26.609375 37.375 29.484375 
Q 32.953125 32.375 25.09375 32.375 
Q 24.21875 32.375 23.3125 32.34375 
Q 22.40625 32.328125 21.484375 32.28125 
L 21.484375 40.046875 
Q 22.859375 39.890625 23.78125 39.84375 
Q 24.703125 39.796875 25.78125 39.796875 
Q 30.71875 39.796875 33.890625 41.359375 
Q 39.453125 44.09375 39.453125 51.125 
Q 39.453125 56.34375 35.734375 59.171875 
Q 32.03125 62.015625 27.09375 62.015625 
Q 18.3125 62.015625 14.9375 56.15625 
Q 13.09375 52.9375 12.84375 46.96875 
L 4.15625 46.96875 
Q 4.15625 54.78125 7.28125 60.25 
Q 12.640625 70.015625 26.171875 70.015625 
Q 36.859375 70.015625 42.71875 65.25 
Q 48.578125 60.5 48.578125 51.46875 
Q 48.578125 45.015625 45.125 41.015625 
Q 42.96875 38.53125 39.546875 37.109375 
Q 45.0625 35.59375 48.15625 31.265625 
Q 51.265625 26.953125 51.265625 20.703125 
Q 51.265625 10.6875 44.671875 4.390625 
Q 38.09375 -1.90625 25.984375 -1.90625 
z
" id="Helvetica-51"/>
      </defs>
      <g transform="translate(10.22875 64.774146)scale(0.08 -0.08)">
       <use xlink:href="#Helvetica-48"/>
       <use x="55.615234" xlink:href="#Helvetica-46"/>
       <use x="83.398438" xlink:href="#Helvetica-48"/>
       <use x="139.013672" xlink:href="#Helvetica-51"/>
      </g>
     </g>
    </g>
    <g id="ytick_5">
     <g id="line2d_10">
      <g>
       <use style="stroke:#000000;stroke-width:0.35;" x="30.7975" xlink:href="#m88f78767fc" y="42.466305"/>
      </g>
     </g>
     <g id="text_11">
      <!-- 0.04 -->
      <defs>
       <path d="M 33.0625 24.75 
L 33.0625 56.453125 
L 10.640625 24.75 
z
M 33.203125 0 
L 33.203125 17.09375 
L 2.546875 17.09375 
L 2.546875 25.6875 
L 34.578125 70.125 
L 42 70.125 
L 42 24.75 
L 52.296875 24.75 
L 52.296875 17.09375 
L 42 17.09375 
L 42 0 
z
" id="Helvetica-52"/>
      </defs>
      <g transform="translate(10.22875 45.33568)scale(0.08 -0.08)">
       <use xlink:href="#Helvetica-48"/>
       <use x="55.615234" xlink:href="#Helvetica-46"/>
       <use x="83.398438" xlink:href="#Helvetica-48"/>
       <use x="139.013672" xlink:href="#Helvetica-52"/>
      </g>
     </g>
    </g>
    <g id="ytick_6">
     <g id="line2d_11">
      <g>
       <use style="stroke:#000000;stroke-width:0.35;" x="30.7975" xlink:href="#m88f78767fc" y="23.02784"/>
      </g>
     </g>
     <g id="text_12">
      <!-- 0.05 -->
      <defs>
       <path d="M 12.359375 17.828125 
Q 13.234375 10.296875 19.34375 7.421875 
Q 22.46875 5.953125 26.5625 5.953125 
Q 34.375 5.953125 38.125 10.9375 
Q 41.890625 15.921875 41.890625 21.96875 
Q 41.890625 29.296875 37.421875 33.296875 
Q 32.953125 37.3125 26.703125 37.3125 
Q 22.171875 37.3125 18.921875 35.546875 
Q 15.671875 33.796875 13.375 30.671875 
L 5.765625 31.109375 
L 11.078125 68.75 
L 47.40625 68.75 
L 47.40625 60.25 
L 17.671875 60.25 
L 14.703125 40.828125 
Q 17.140625 42.671875 19.34375 43.609375 
Q 23.25 45.21875 28.375 45.21875 
Q 37.984375 45.21875 44.671875 39.015625 
Q 51.375 32.8125 51.375 23.296875 
Q 51.375 13.375 45.234375 5.796875 
Q 39.109375 -1.765625 25.6875 -1.765625 
Q 17.140625 -1.765625 10.5625 3.046875 
Q 4 7.859375 3.21875 17.828125 
z
" id="Helvetica-53"/>
      </defs>
      <g transform="translate(10.22875 25.897215)scale(0.08 -0.08)">
       <use xlink:href="#Helvetica-48"/>
       <use x="55.615234" xlink:href="#Helvetica-46"/>
       <use x="83.398438" xlink:href="#Helvetica-48"/>
       <use x="139.013672" xlink:href="#Helvetica-53"/>
      </g>
     </g>
    </g>
    <g id="ytick_7">
     <g id="line2d_12">
      <g>
       <use style="stroke:#000000;stroke-width:0.35;" x="30.7975" xlink:href="#m88f78767fc" y="3.589375"/>
      </g>
     </g>
     <g id="text_13">
      <!-- 0.06 -->
      <defs>
       <path d="M 29.25 70.21875 
Q 40.96875 70.21875 45.578125 64.140625 
Q 50.203125 58.0625 50.203125 51.609375 
L 41.5 51.609375 
Q 40.71875 55.765625 39.015625 58.109375 
Q 35.84375 62.5 29.390625 62.5 
Q 22.015625 62.5 17.671875 55.6875 
Q 13.328125 48.875 12.84375 36.1875 
Q 15.875 40.625 20.453125 42.828125 
Q 24.65625 44.78125 29.828125 44.78125 
Q 38.625 44.78125 45.15625 39.15625 
Q 51.703125 33.546875 51.703125 22.40625 
Q 51.703125 12.890625 45.5 5.53125 
Q 39.3125 -1.8125 27.828125 -1.8125 
Q 18.015625 -1.8125 10.890625 5.640625 
Q 3.765625 13.09375 3.765625 30.71875 
Q 3.765625 43.75 6.9375 52.828125 
Q 13.03125 70.21875 29.25 70.21875 
z
M 28.609375 6 
Q 35.546875 6 38.984375 10.65625 
Q 42.4375 15.328125 42.4375 21.6875 
Q 42.4375 27.046875 39.359375 31.90625 
Q 36.28125 36.765625 28.171875 36.765625 
Q 22.515625 36.765625 18.234375 33 
Q 13.96875 29.25 13.96875 21.6875 
Q 13.96875 15.046875 17.84375 10.515625 
Q 21.734375 6 28.609375 6 
z
" id="Helvetica-54"/>
      </defs>
      <g transform="translate(10.22875 6.45875)scale(0.08 -0.08)">
       <use xlink:href="#Helvetica-48"/>
       <use x="55.615234" xlink:href="#Helvetica-46"/>
       <use x="83.398438" xlink:href="#Helvetica-48"/>
       <use x="139.013672" xlink:href="#Helvetica-54"/>
      </g>
     </g>
    </g>
    <g id="text_14">
     <!-- Entanglement Entropy Density -->
     <defs>
      <path d="M 8.546875 71.734375 
L 60.84375 71.734375 
L 60.84375 62.9375 
L 18.015625 62.9375 
L 18.015625 41.15625 
L 57.625 41.15625 
L 57.625 32.859375 
L 18.015625 32.859375 
L 18.015625 8.546875 
L 61.578125 8.546875 
L 61.578125 0 
L 8.546875 0 
z
M 35.0625 71.734375 
z
" id="Helvetica-69"/>
      <path d="M 6.6875 71.734375 
L 15.484375 71.734375 
L 15.484375 0 
L 6.6875 0 
z
" id="Helvetica-108"/>
      <path d="M 27.203125 5.671875 
Q 35.9375 5.671875 39.1875 12.28125 
Q 42.4375 18.890625 42.4375 27 
Q 42.4375 34.328125 40.09375 38.921875 
Q 36.375 46.140625 27.296875 46.140625 
Q 19.234375 46.140625 15.578125 39.984375 
Q 11.921875 33.84375 11.921875 25.140625 
Q 11.921875 16.796875 15.578125 11.234375 
Q 19.234375 5.671875 27.203125 5.671875 
z
M 27.546875 53.8125 
Q 37.640625 53.8125 44.625 47.0625 
Q 51.609375 40.328125 51.609375 27.25 
Q 51.609375 14.59375 45.453125 6.34375 
Q 39.3125 -1.90625 26.375 -1.90625 
Q 15.578125 -1.90625 9.21875 5.390625 
Q 2.875 12.703125 2.875 25 
Q 2.875 38.1875 9.5625 46 
Q 16.265625 53.8125 27.546875 53.8125 
z
M 27.25 53.5625 
z
" id="Helvetica-111"/>
      <path d="M 28.515625 5.90625 
Q 34.671875 5.90625 38.75 11.0625 
Q 42.828125 16.21875 42.828125 26.46875 
Q 42.828125 32.71875 41.015625 37.203125 
Q 37.59375 45.84375 28.515625 45.84375 
Q 19.390625 45.84375 16.015625 36.71875 
Q 14.203125 31.84375 14.203125 24.3125 
Q 14.203125 18.265625 16.015625 14.015625 
Q 19.4375 5.90625 28.515625 5.90625 
z
M 5.765625 52.046875 
L 14.3125 52.046875 
L 14.3125 45.125 
Q 16.9375 48.6875 20.0625 50.640625 
Q 24.515625 53.5625 30.515625 53.5625 
Q 39.40625 53.5625 45.609375 46.75 
Q 51.8125 39.9375 51.8125 27.296875 
Q 51.8125 10.203125 42.875 2.875 
Q 37.203125 -1.765625 29.6875 -1.765625 
Q 23.78125 -1.765625 19.78125 0.828125 
Q 17.4375 2.296875 14.546875 5.859375 
L 14.546875 -20.84375 
L 5.765625 -20.84375 
z
" id="Helvetica-112"/>
      <path d="M 39.109375 52.296875 
L 48.828125 52.296875 
Q 46.96875 47.265625 40.578125 29.34375 
Q 35.796875 15.875 32.5625 7.375 
Q 24.953125 -12.640625 21.828125 -17.03125 
Q 18.703125 -21.4375 11.078125 -21.4375 
Q 9.234375 -21.4375 8.234375 -21.28125 
Q 7.234375 -21.140625 5.765625 -20.75 
L 5.765625 -12.75 
Q 8.0625 -13.375 9.078125 -13.515625 
Q 10.109375 -13.671875 10.890625 -13.671875 
Q 13.328125 -13.671875 14.46875 -12.859375 
Q 15.625 -12.0625 16.40625 -10.890625 
Q 16.65625 -10.5 18.15625 -6.875 
Q 19.671875 -3.265625 20.359375 -1.515625 
L 1.03125 52.296875 
L 10.984375 52.296875 
L 25 9.71875 
z
M 24.953125 53.5625 
z
" id="Helvetica-121"/>
      <path d="M 35.15625 8.296875 
Q 40.09375 8.296875 43.265625 9.328125 
Q 48.921875 11.234375 52.546875 16.65625 
Q 55.421875 21 56.6875 27.78125 
Q 57.421875 31.84375 57.421875 35.296875 
Q 57.421875 48.640625 52.125 56 
Q 46.828125 63.375 35.0625 63.375 
L 17.828125 63.375 
L 17.828125 8.296875 
z
M 8.0625 71.734375 
L 37.109375 71.734375 
Q 51.90625 71.734375 60.0625 61.234375 
Q 67.328125 51.765625 67.328125 36.96875 
Q 67.328125 25.53125 63.03125 16.3125 
Q 55.46875 0 37.015625 0 
L 8.0625 0 
z
" id="Helvetica-68"/>
      <path d="M 11.671875 16.40625 
Q 12.0625 12.015625 13.875 9.671875 
Q 17.1875 5.421875 25.390625 5.421875 
Q 30.28125 5.421875 33.984375 7.546875 
Q 37.703125 9.671875 37.703125 14.109375 
Q 37.703125 17.484375 34.71875 19.234375 
Q 32.8125 20.3125 27.203125 21.734375 
L 20.21875 23.484375 
Q 13.53125 25.140625 10.359375 27.203125 
Q 4.6875 30.765625 4.6875 37.0625 
Q 4.6875 44.484375 10.03125 49.0625 
Q 15.375 53.65625 24.421875 53.65625 
Q 36.234375 53.65625 41.453125 46.734375 
Q 44.734375 42.328125 44.625 37.25 
L 36.328125 37.25 
Q 36.078125 40.234375 34.234375 42.671875 
Q 31.203125 46.140625 23.734375 46.140625 
Q 18.75 46.140625 16.1875 44.234375 
Q 13.625 42.328125 13.625 39.203125 
Q 13.625 35.796875 17 33.734375 
Q 18.953125 32.515625 22.75 31.59375 
L 28.5625 30.171875 
Q 38.03125 27.875 41.265625 25.734375 
Q 46.390625 22.359375 46.390625 15.140625 
Q 46.390625 8.15625 41.09375 3.078125 
Q 35.796875 -2 24.953125 -2 
Q 13.28125 -2 8.421875 3.296875 
Q 3.5625 8.59375 3.21875 16.40625 
z
M 24.65625 53.5625 
z
" id="Helvetica-115"/>
     </defs>
     <g transform="translate(6.45875 115.931021)rotate(-90)scale(0.08 -0.08)">
      <use xlink:href="#Helvetica-69"/>
      <use x="66.699219" xlink:href="#Helvetica-110"/>
      <use x="122.314453" xlink:href="#Helvetica-116"/>
      <use x="150.097656" xlink:href="#Helvetica-97"/>
      <use x="205.712891" xlink:href="#Helvetica-110"/>
      <use x="261.328125" xlink:href="#Helvetica-103"/>
      <use x="316.943359" xlink:href="#Helvetica-108"/>
      <use x="339.160156" xlink:href="#Helvetica-101"/>
      <use x="394.775391" xlink:href="#Helvetica-109"/>
      <use x="478.076172" xlink:href="#Helvetica-101"/>
      <use x="533.691406" xlink:href="#Helvetica-110"/>
      <use x="589.306641" xlink:href="#Helvetica-116"/>
      <use x="617.089844" xlink:href="#Helvetica-32"/>
      <use x="644.873047" xlink:href="#Helvetica-69"/>
      <use x="711.572266" xlink:href="#Helvetica-110"/>
      <use x="767.1875" xlink:href="#Helvetica-116"/>
      <use x="794.970703" xlink:href="#Helvetica-114"/>
      <use x="828.271484" xlink:href="#Helvetica-111"/>
      <use x="883.886719" xlink:href="#Helvetica-112"/>
      <use x="939.501953" xlink:href="#Helvetica-121"/>
      <use x="989.501953" xlink:href="#Helvetica-32"/>
      <use x="1017.285156" xlink:href="#Helvetica-68"/>
      <use x="1089.501953" xlink:href="#Helvetica-101"/>
      <use x="1145.117188" xlink:href="#Helvetica-110"/>
      <use x="1200.732422" xlink:href="#Helvetica-115"/>
      <use x="1250.732422" xlink:href="#Helvetica-105"/>
      <use x="1272.949219" xlink:href="#Helvetica-116"/>
      <use x="1300.732422" xlink:href="#Helvetica-121"/>
     </g>
    </g>
   </g>
   <g id="LineCollection_1">
    <path clip-path="url(#p58b966d6c1)" d="M 214.250741 59.009507 
L 214.250741 56.737412 
" style="fill:none;stroke:#5e4fa2;stroke-width:0.5;"/>
    <path clip-path="url(#p58b966d6c1)" d="M 167.465227 102.291482 
L 167.465227 101.978258 
" style="fill:none;stroke:#5e4fa2;stroke-width:0.5;"/>
    <path clip-path="url(#p58b966d6c1)" d="M 151.19456 113.025962 
L 151.19456 112.859148 
" style="fill:none;stroke:#5e4fa2;stroke-width:0.5;"/>
    <path clip-path="url(#p58b966d6c1)" d="M 128.82982 120.220166 
L 128.82982 120.220166 
" style="fill:none;stroke:#5e4fa2;stroke-width:0.5;"/>
    <path clip-path="url(#p58b966d6c1)" d="M 108.505259 113.472061 
L 108.505259 113.345136 
" style="fill:none;stroke:#5e4fa2;stroke-width:0.5;"/>
    <path clip-path="url(#p58b966d6c1)" d="M 95.904009 104.099654 
L 95.904009 103.893199 
" style="fill:none;stroke:#5e4fa2;stroke-width:0.5;"/>
    <path clip-path="url(#p58b966d6c1)" d="M 39.745578 22.770205 
L 39.745578 22.340961 
" style="fill:none;stroke:#5e4fa2;stroke-width:0.5;"/>
   </g>
   <g id="LineCollection_2">
    <path clip-path="url(#p58b966d6c1)" d="M 214.250741 62.965621 
L 214.250741 60.687582 
" style="fill:none;stroke:#d8434e;stroke-width:0.5;"/>
    <path clip-path="url(#p58b966d6c1)" d="M 167.465227 102.519062 
L 167.465227 101.777874 
" style="fill:none;stroke:#d8434e;stroke-width:0.5;"/>
    <path clip-path="url(#p58b966d6c1)" d="M 151.19456 113.19147 
L 151.19456 112.931305 
" style="fill:none;stroke:#d8434e;stroke-width:0.5;"/>
    <path clip-path="url(#p58b966d6c1)" d="M 128.82982 120.220166 
L 128.82982 120.220166 
" style="fill:none;stroke:#d8434e;stroke-width:0.5;"/>
    <path clip-path="url(#p58b966d6c1)" d="M 108.505259 113.847001 
L 108.505259 113.579437 
" style="fill:none;stroke:#d8434e;stroke-width:0.5;"/>
    <path clip-path="url(#p58b966d6c1)" d="M 95.904009 104.450233 
L 95.904009 103.809027 
" style="fill:none;stroke:#d8434e;stroke-width:0.5;"/>
    <path clip-path="url(#p58b966d6c1)" d="M 39.745578 21.926296 
L 39.745578 18.862464 
" style="fill:none;stroke:#d8434e;stroke-width:0.5;"/>
   </g>
   <g id="line2d_13">
    <defs>
     <path d="M 0 1.5 
C 0.397805 1.5 0.77937 1.341951 1.06066 1.06066 
C 1.341951 0.77937 1.5 0.397805 1.5 0 
C 1.5 -0.397805 1.341951 -0.77937 1.06066 -1.06066 
C 0.77937 -1.341951 0.397805 -1.5 0 -1.5 
C -0.397805 -1.5 -0.77937 -1.341951 -1.06066 -1.06066 
C -1.341951 -0.77937 -1.5 -0.397805 -1.5 0 
C -1.5 0.397805 -1.341951 0.77937 -1.06066 1.06066 
C -0.77937 1.341951 -0.397805 1.5 0 1.5 
z
" id="m88e440a5e7" style="stroke:#5e4fa2;stroke-width:0.5;"/>
    </defs>
    <g clip-path="url(#p58b966d6c1)">
     <use style="fill:#aea6d0;stroke:#5e4fa2;stroke-width:0.5;" x="214.250741" xlink:href="#m88e440a5e7" y="57.87346"/>
     <use style="fill:#aea6d0;stroke:#5e4fa2;stroke-width:0.5;" x="167.465227" xlink:href="#m88e440a5e7" y="102.13487"/>
     <use style="fill:#aea6d0;stroke:#5e4fa2;stroke-width:0.5;" x="151.19456" xlink:href="#m88e440a5e7" y="112.942555"/>
     <use style="fill:#aea6d0;stroke:#5e4fa2;stroke-width:0.5;" x="128.82982" xlink:href="#m88e440a5e7" y="120.220166"/>
     <use style="fill:#aea6d0;stroke:#5e4fa2;stroke-width:0.5;" x="108.505259" xlink:href="#m88e440a5e7" y="113.408598"/>
     <use style="fill:#aea6d0;stroke:#5e4fa2;stroke-width:0.5;" x="95.904009" xlink:href="#m88e440a5e7" y="103.996426"/>
     <use style="fill:#aea6d0;stroke:#5e4fa2;stroke-width:0.5;" x="39.745578" xlink:href="#m88e440a5e7" y="22.555583"/>
    </g>
   </g>
   <g id="line2d_14">
    <defs>
     <path d="M 0 1.5 
C 0.397805 1.5 0.77937 1.341951 1.06066 1.06066 
C 1.341951 0.77937 1.5 0.397805 1.5 0 
C 1.5 -0.397805 1.341951 -0.77937 1.06066 -1.06066 
C 0.77937 -1.341951 0.397805 -1.5 0 -1.5 
C -0.397805 -1.5 -0.77937 -1.341951 -1.06066 -1.06066 
C -1.341951 -0.77937 -1.5 -0.397805 -1.5 0 
C -1.5 0.397805 -1.341951 0.77937 -1.06066 1.06066 
C -0.77937 1.341951 -0.397805 1.5 0 1.5 
z
" id="m2bac44d4ea" style="stroke:#d8434e;stroke-width:0.5;"/>
    </defs>
    <g clip-path="url(#p58b966d6c1)">
     <use style="fill:#eba0a6;stroke:#d8434e;stroke-width:0.5;" x="214.250741" xlink:href="#m2bac44d4ea" y="61.826601"/>
     <use style="fill:#eba0a6;stroke:#d8434e;stroke-width:0.5;" x="167.465227" xlink:href="#m2bac44d4ea" y="102.148468"/>
     <use style="fill:#eba0a6;stroke:#d8434e;stroke-width:0.5;" x="151.19456" xlink:href="#m2bac44d4ea" y="113.061387"/>
     <use style="fill:#eba0a6;stroke:#d8434e;stroke-width:0.5;" x="128.82982" xlink:href="#m2bac44d4ea" y="120.220166"/>
     <use style="fill:#eba0a6;stroke:#d8434e;stroke-width:0.5;" x="108.505259" xlink:href="#m2bac44d4ea" y="113.713219"/>
     <use style="fill:#eba0a6;stroke:#d8434e;stroke-width:0.5;" x="95.904009" xlink:href="#m2bac44d4ea" y="104.12963"/>
     <use style="fill:#eba0a6;stroke:#d8434e;stroke-width:0.5;" x="39.745578" xlink:href="#m2bac44d4ea" y="20.39438"/>
    </g>
   </g>
   <g id="patch_3">
    <path d="M 30.7975 120.220166 
L 30.7975 3.589375 
" style="fill:none;stroke:#000000;stroke-linecap:square;stroke-linejoin:miter;stroke-width:0.35;"/>
   </g>
   <g id="patch_4">
    <path d="M 226.86214 120.220166 
L 226.86214 3.589375 
" style="fill:none;stroke:#000000;stroke-linecap:square;stroke-linejoin:miter;stroke-width:0.35;"/>
   </g>
   <g id="patch_5">
    <path d="M 30.7975 120.220166 
L 226.86214 120.220166 
" style="fill:none;stroke:#000000;stroke-linecap:square;stroke-linejoin:miter;stroke-width:0.35;"/>
   </g>
   <g id="patch_6">
    <path d="M 30.7975 3.589375 
L 226.86214 3.589375 
" style="fill:none;stroke:#000000;stroke-linecap:square;stroke-linejoin:miter;stroke-width:0.35;"/>
   </g>
   <g id="legend_1">
    <g id="patch_7">
     <path d="M 126.10714 16.546875 
L 146.10714 16.546875 
L 146.10714 10.946875 
L 126.10714 10.946875 
z
" style="fill:#9fa2b2;opacity:0.4;stroke:#9fa2b2;stroke-linejoin:miter;"/>
    </g>
    <g id="text_15">
     <!-- diagonal ensemble -->
     <defs>
      <path d="M 12.015625 25.53125 
Q 12.015625 17.140625 15.578125 11.46875 
Q 19.140625 5.8125 27 5.8125 
Q 33.109375 5.8125 37.03125 11.0625 
Q 40.96875 16.3125 40.96875 26.125 
Q 40.96875 36.03125 36.90625 40.796875 
Q 32.859375 45.5625 26.90625 45.5625 
Q 20.265625 45.5625 16.140625 40.484375 
Q 12.015625 35.40625 12.015625 25.53125 
z
M 25.25 53.21875 
Q 31.25 53.21875 35.296875 50.6875 
Q 37.640625 49.21875 40.625 45.5625 
L 40.625 71.96875 
L 49.078125 71.96875 
L 49.078125 0 
L 41.15625 0 
L 41.15625 7.28125 
Q 38.09375 2.4375 33.890625 0.28125 
Q 29.6875 -1.859375 24.265625 -1.859375 
Q 15.53125 -1.859375 9.125 5.484375 
Q 2.734375 12.84375 2.734375 25.046875 
Q 2.734375 36.46875 8.5625 44.84375 
Q 14.40625 53.21875 25.25 53.21875 
z
" id="Helvetica-100"/>
      <path d="M 5.765625 71.96875 
L 14.3125 71.96875 
L 14.3125 45.953125 
Q 17.1875 49.703125 21.1875 51.671875 
Q 25.203125 53.65625 29.890625 53.65625 
Q 39.65625 53.65625 45.734375 46.9375 
Q 51.8125 40.234375 51.8125 27.15625 
Q 51.8125 14.75 45.796875 6.546875 
Q 39.796875 -1.65625 29.15625 -1.65625 
Q 23.1875 -1.65625 19.09375 1.21875 
Q 16.65625 2.9375 13.875 6.6875 
L 13.875 0 
L 5.765625 0 
z
M 28.609375 6.109375 
Q 35.75 6.109375 39.28125 11.765625 
Q 42.828125 17.4375 42.828125 26.703125 
Q 42.828125 34.96875 39.28125 40.375 
Q 35.75 45.796875 28.859375 45.796875 
Q 22.859375 45.796875 18.328125 41.359375 
Q 13.8125 36.921875 13.8125 26.703125 
Q 13.8125 19.34375 15.671875 14.75 
Q 19.140625 6.109375 28.609375 6.109375 
z
" id="Helvetica-98"/>
     </defs>
     <g transform="translate(152.50714 16.546875)scale(0.08 -0.08)">
      <use xlink:href="#Helvetica-100"/>
      <use x="55.615234" xlink:href="#Helvetica-105"/>
      <use x="77.832031" xlink:href="#Helvetica-97"/>
      <use x="133.447266" xlink:href="#Helvetica-103"/>
      <use x="189.0625" xlink:href="#Helvetica-111"/>
      <use x="244.677734" xlink:href="#Helvetica-110"/>
      <use x="300.292969" xlink:href="#Helvetica-97"/>
      <use x="355.908203" xlink:href="#Helvetica-108"/>
      <use x="378.125" xlink:href="#Helvetica-32"/>
      <use x="405.908203" xlink:href="#Helvetica-101"/>
      <use x="461.523438" xlink:href="#Helvetica-110"/>
      <use x="517.138672" xlink:href="#Helvetica-115"/>
      <use x="567.138672" xlink:href="#Helvetica-101"/>
      <use x="622.753906" xlink:href="#Helvetica-109"/>
      <use x="706.054688" xlink:href="#Helvetica-98"/>
      <use x="761.669922" xlink:href="#Helvetica-108"/>
      <use x="783.886719" xlink:href="#Helvetica-101"/>
     </g>
    </g>
    <g id="LineCollection_3">
     <path d="M 136.10714 29.255625 
L 136.10714 21.255625 
" style="fill:none;stroke:#5e4fa2;stroke-width:0.5;"/>
    </g>
    <g id="line2d_15"/>
    <g id="line2d_16">
     <g>
      <use style="fill:#aea6d0;stroke:#5e4fa2;stroke-width:0.5;" x="136.10714" xlink:href="#m88e440a5e7" y="25.255625"/>
     </g>
    </g>
    <g id="text_16">
     <!-- particle -->
     <defs>
      <path d="M 26.609375 53.8125 
Q 35.453125 53.8125 40.984375 49.515625 
Q 46.53125 45.21875 47.65625 34.71875 
L 39.109375 34.71875 
Q 38.328125 39.546875 35.546875 42.75 
Q 32.765625 45.953125 26.609375 45.953125 
Q 18.21875 45.953125 14.59375 37.75 
Q 12.25 32.421875 12.25 24.609375 
Q 12.25 16.75 15.5625 11.375 
Q 18.890625 6 26.03125 6 
Q 31.5 6 34.6875 9.34375 
Q 37.890625 12.703125 39.109375 18.5 
L 47.65625 18.5 
Q 46.1875 8.109375 40.328125 3.296875 
Q 34.46875 -1.515625 25.34375 -1.515625 
Q 15.09375 -1.515625 8.984375 5.984375 
Q 2.875 13.484375 2.875 24.703125 
Q 2.875 38.484375 9.5625 46.140625 
Q 16.265625 53.8125 26.609375 53.8125 
z
M 25.25 53.5625 
z
" id="Helvetica-99"/>
     </defs>
     <g transform="translate(152.50714 28.055625)scale(0.08 -0.08)">
      <use xlink:href="#Helvetica-112"/>
      <use x="55.615234" xlink:href="#Helvetica-97"/>
      <use x="111.230469" xlink:href="#Helvetica-114"/>
      <use x="144.53125" xlink:href="#Helvetica-116"/>
      <use x="172.314453" xlink:href="#Helvetica-105"/>
      <use x="194.53125" xlink:href="#Helvetica-99"/>
      <use x="244.53125" xlink:href="#Helvetica-108"/>
      <use x="266.748047" xlink:href="#Helvetica-101"/>
     </g>
    </g>
    <g id="LineCollection_4">
     <path d="M 136.10714 40.661875 
L 136.10714 32.661875 
" style="fill:none;stroke:#d8434e;stroke-width:0.5;"/>
    </g>
    <g id="line2d_17"/>
    <g id="line2d_18">
     <g>
      <use style="fill:#eba0a6;stroke:#d8434e;stroke-width:0.5;" x="136.10714" xlink:href="#m2bac44d4ea" y="36.661875"/>
     </g>
    </g>
    <g id="text_17">
     <!-- spatial -->
     <g transform="translate(152.50714 39.461875)scale(0.08 -0.08)">
      <use xlink:href="#Helvetica-115"/>
      <use x="50" xlink:href="#Helvetica-112"/>
      <use x="105.615234" xlink:href="#Helvetica-97"/>
      <use x="161.230469" xlink:href="#Helvetica-116"/>
      <use x="189.013672" xlink:href="#Helvetica-105"/>
      <use x="211.230469" xlink:href="#Helvetica-97"/>
      <use x="266.845703" xlink:href="#Helvetica-108"/>
     </g>
    </g>
   </g>
  </g>
 </g>
 <defs>
  <clipPath id="p58b966d6c1">
   <rect height="116.630791" width="196.06464" x="30.7975" y="3.589375"/>
  </clipPath>
 </defs>
</svg>
