<?xml version="1.0" encoding="utf-8" standalone="no"?>
<!DOCTYPE svg PUBLIC "-//W3C//DTD SVG 1.1//EN"
  "http://www.w3.org/Graphics/SVG/1.1/DTD/svg11.dtd">
<!-- Created with matplotlib (https://matplotlib.org/) -->
<svg height="142.007287pt" version="1.1" viewBox="0 0 226.64406 142.007287" width="226.64406pt" xmlns="http://www.w3.org/2000/svg" xmlns:xlink="http://www.w3.org/1999/xlink">
 <metadata>
  <rdf:RDF xmlns:cc="http://creativecommons.org/ns#" xmlns:dc="http://purl.org/dc/elements/1.1/" xmlns:rdf="http://www.w3.org/1999/02/22-rdf-syntax-ns#">
   <cc:Work>
    <dc:type rdf:resource="http://purl.org/dc/dcmitype/StillImage"/>
    <dc:date>2021-02-23T08:49:44.460239</dc:date>
    <dc:format>image/svg+xml</dc:format>
    <dc:creator>
     <cc:Agent>
      <dc:title>Matplotlib v3.3.2, https://matplotlib.org/</dc:title>
     </cc:Agent>
    </dc:creator>
   </cc:Work>
  </rdf:RDF>
 </metadata>
 <defs>
  <style type="text/css">*{stroke-linecap:butt;stroke-linejoin:round;}</style>
 </defs>
 <g id="figure_1">
  <g id="patch_1">
   <path d="M 0 142.007287 
L 226.64406 142.007287 
L 226.64406 0 
L 0 0 
z
" style="fill:none;"/>
  </g>
  <g id="axes_1">
   <g id="patch_2">
    <path d="M 29.85942 120.118192 
L 225.92406 120.118192 
L 225.92406 3.487401 
L 29.85942 3.487401 
z
" style="fill:none;"/>
   </g>
   <g id="PolyCollection_1">
    <path clip-path="url(#pe4f80aeff4)" d="M 16.491376 5.707776 
L 16.491376 -37.19613 
L 18.741889 -31.33995 
L 20.992401 -25.595065 
L 23.242913 -19.960948 
L 25.493426 -14.437101 
L 27.743938 -9.023057 
L 29.994451 -3.71838 
L 32.244963 1.477335 
L 34.495475 6.564465 
L 36.745988 11.543351 
L 38.9965 16.414306 
L 41.247013 21.177609 
L 43.497525 25.833506 
L 45.748037 30.38221 
L 47.99855 34.823899 
L 50.249062 39.158716 
L 52.499575 43.386768 
L 54.750087 47.508122 
L 57.000599 51.522809 
L 59.251112 55.430818 
L 61.501624 59.232096 
L 63.752136 62.926546 
L 66.002649 66.514024 
L 68.253161 69.994339 
L 70.503674 73.367248 
L 72.754186 76.63245 
L 75.004698 79.789591 
L 77.255211 82.83825 
L 79.505723 85.777941 
L 81.756236 88.608105 
L 84.006748 91.328105 
L 86.25726 93.937216 
L 88.507773 96.434619 
L 90.758285 98.819392 
L 93.008798 101.090492 
L 95.25931 103.246749 
L 97.509822 105.286843 
L 99.760335 107.209282 
L 102.010847 109.012382 
L 104.26136 110.694226 
L 106.511872 112.252627 
L 108.762384 113.685067 
L 111.012897 114.988626 
L 113.263409 116.159875 
L 115.513922 117.194723 
L 117.764434 118.088189 
L 120.014946 118.834019 
L 122.265459 119.424016 
L 124.515971 119.846599 
L 126.766484 120.082723 
L 129.016996 120.082889 
L 131.267508 119.850349 
L 133.518021 119.43979 
L 135.768533 118.874433 
L 138.019046 118.169532 
L 140.269558 117.336617 
L 142.52007 116.385005 
L 144.770583 115.322534 
L 147.021095 114.155976 
L 149.271608 112.891292 
L 151.52212 111.533803 
L 153.772632 110.088316 
L 156.023145 108.559205 
L 158.273657 106.950484 
L 160.52417 105.265855 
L 162.774682 103.508752 
L 165.025194 101.682372 
L 167.275707 99.789703 
L 169.526219 97.833545 
L 171.776732 95.816532 
L 174.027244 93.741146 
L 176.277756 91.609733 
L 178.528269 89.42451 
L 180.778781 87.187583 
L 183.029294 84.900949 
L 185.279806 82.56651 
L 187.530318 80.186075 
L 189.780831 77.761371 
L 192.031343 75.294045 
L 194.281856 72.785671 
L 196.532368 70.237758 
L 198.78288 67.651746 
L 201.033393 65.029018 
L 203.283905 62.3709 
L 205.534417 59.678663 
L 207.78493 56.953529 
L 210.035442 54.196673 
L 212.285955 51.409223 
L 214.536467 48.592266 
L 216.786979 45.746847 
L 219.037492 42.873974 
L 221.288004 39.974618 
L 223.538517 37.049714 
L 225.789029 34.100165 
L 228.039541 31.126842 
L 230.290054 28.130585 
L 232.540566 25.112208 
L 234.791079 22.072493 
L 237.041591 19.012199 
L 239.292103 15.932059 
L 239.292103 44.346459 
L 239.292103 44.346459 
L 237.041591 46.586561 
L 234.791079 48.812229 
L 232.540566 51.022931 
L 230.290054 53.218114 
L 228.039541 55.39721 
L 225.789029 57.559627 
L 223.538517 59.704754 
L 221.288004 61.831956 
L 219.037492 63.940579 
L 216.786979 66.029941 
L 214.536467 68.099337 
L 212.285955 70.148033 
L 210.035442 72.175269 
L 207.78493 74.180255 
L 205.534417 76.162171 
L 203.283905 78.120161 
L 201.033393 80.053338 
L 198.78288 81.960777 
L 196.532368 83.841513 
L 194.281856 85.694541 
L 192.031343 87.518812 
L 189.780831 89.313231 
L 187.530318 91.076653 
L 185.279806 92.807878 
L 183.029294 94.505652 
L 180.778781 96.168658 
L 178.528269 97.795514 
L 176.277756 99.384767 
L 174.027244 100.934886 
L 171.776732 102.444258 
L 169.526219 103.911176 
L 167.275707 105.333836 
L 165.025194 106.710323 
L 162.774682 108.0386 
L 160.52417 109.316492 
L 158.273657 110.541677 
L 156.023145 111.711656 
L 153.772632 112.823737 
L 151.52212 113.875 
L 149.271608 114.862265 
L 147.021095 115.782035 
L 144.770583 116.630441 
L 142.52007 117.403147 
L 140.269558 118.095228 
L 138.019046 118.700985 
L 135.768533 119.21364 
L 133.518021 119.624808 
L 131.267508 119.923397 
L 129.016996 120.092517 
L 126.766484 120.092396 
L 124.515971 119.92067 
L 122.265459 119.613337 
L 120.014946 119.184248 
L 117.764434 118.641826 
L 115.513922 117.992033 
L 113.263409 117.239416 
L 111.012897 116.387599 
L 108.762384 115.439556 
L 106.511872 114.397781 
L 104.26136 113.264399 
L 102.010847 112.041239 
L 99.760335 110.729894 
L 97.509822 109.331756 
L 95.25931 107.848052 
L 93.008798 106.279865 
L 90.758285 104.628155 
L 88.507773 102.893776 
L 86.25726 101.077482 
L 84.006748 99.179947 
L 81.756236 97.201765 
L 79.505723 95.143464 
L 77.255211 93.005507 
L 75.004698 90.7883 
L 72.754186 88.492198 
L 70.503674 86.117505 
L 68.253161 83.664481 
L 66.002649 81.133343 
L 63.752136 78.524267 
L 61.501624 75.837395 
L 59.251112 73.072829 
L 57.000599 70.230641 
L 54.750087 67.310868 
L 52.499575 64.31352 
L 50.249062 61.238573 
L 47.99855 58.085979 
L 45.748037 54.85566 
L 43.497525 51.547511 
L 41.247013 48.161404 
L 38.9965 44.697184 
L 36.745988 41.154671 
L 34.495475 37.533663 
L 32.244963 33.833933 
L 29.994451 30.05523 
L 27.743938 26.197284 
L 25.493426 22.259797 
L 23.242913 18.242454 
L 20.992401 14.144914 
L 18.741889 9.966816 
L 16.491376 5.707776 
z
" style="fill:#9fa2b2;fill-opacity:0.4;stroke:#9fa2b2;stroke-opacity:0.4;"/>
   </g>
   <g id="matplotlib.axis_1">
    <g id="xtick_1">
     <g id="line2d_1">
      <defs>
       <path d="M 0 0 
L 0 2 
" id="m16d485ae0a" style="stroke:#000000;stroke-width:0.35;"/>
      </defs>
      <g>
       <use style="stroke:#000000;stroke-width:0.35;" x="38.771449" xlink:href="#m16d485ae0a" y="120.118192"/>
      </g>
     </g>
     <g id="text_1">
      <!-- $\mathdefault{0.8}$ -->
      <g transform="translate(33.361104 130.652994)scale(0.08 -0.08)">
       <defs>
        <path d="M 42 31.84375 
C 42 37.96875 41.90625 48.421875 37.703125 56.453125 
C 34 63.484375 28.09375 66 22.90625 66 
C 18.09375 66 12 63.78125 8.203125 56.5625 
C 4.203125 49.015625 3.796875 39.671875 3.796875 31.84375 
C 3.796875 26.109375 3.90625 17.375 7 9.734375 
C 11.296875 -0.609375 19 -2 22.90625 -2 
C 27.5 -2 34.5 -0.109375 38.59375 9.4375 
C 41.59375 16.375 42 24.5 42 31.84375 
z
M 22.90625 -0.40625 
C 16.5 -0.40625 12.703125 5.125 11.296875 12.75 
C 10.203125 18.6875 10.203125 27.328125 10.203125 32.953125 
C 10.203125 40.6875 10.203125 47.109375 11.5 53.234375 
C 13.40625 61.78125 19 64.390625 22.90625 64.390625 
C 27 64.390625 32.296875 61.671875 34.203125 53.4375 
C 35.5 47.71875 35.59375 40.984375 35.59375 32.953125 
C 35.59375 26.421875 35.59375 18.375 34.40625 12.453125 
C 32.296875 1.5 26.40625 -0.40625 22.90625 -0.40625 
z
" id="CMR17-48"/>
        <path d="M 18.40625 4.796875 
C 18.40625 7.6875 16 9.6875 13.59375 9.6875 
C 10.703125 9.6875 8.703125 7.296875 8.703125 4.890625 
C 8.703125 2 11.09375 0 13.5 0 
C 16.40625 0 18.40625 2.390625 18.40625 4.796875 
z
" id="CMMI12-58"/>
        <path d="M 27.203125 35.765625 
C 33.5 38.96875 39.90625 43.796875 39.90625 51.53125 
C 39.90625 60.6875 31.09375 66 23 66 
C 13.90625 66 5.90625 59.375 5.90625 50.234375 
C 5.90625 47.71875 6.5 43.390625 10.40625 39.578125 
C 11.40625 38.578125 15.59375 35.5625 18.296875 33.65625 
C 13.796875 31.34375 3.296875 25.8125 3.296875 14.765625 
C 3.296875 4.40625 13.09375 -2 22.796875 -2 
C 33.5 -2 42.5 5.71875 42.5 15.96875 
C 42.5 25.109375 36.40625 29.328125 32.40625 32.046875 
z
M 14.09375 44.609375 
C 13.296875 45.109375 9.296875 48.21875 9.296875 52.9375 
C 9.296875 59.078125 15.59375 63.6875 22.796875 63.6875 
C 30.703125 63.6875 36.5 58.0625 36.5 51.53125 
C 36.5 42.1875 26.09375 36.859375 25.59375 36.859375 
C 25.5 36.859375 25.40625 36.859375 24.59375 37.46875 
z
M 32.5 24 
C 34 22.90625 38.796875 19.578125 38.796875 13.453125 
C 38.796875 6.015625 31.40625 0.390625 23 0.390625 
C 13.90625 0.390625 7 6.921875 7 14.859375 
C 7 22.796875 13.09375 29.4375 20 32.546875 
z
" id="CMR17-56"/>
       </defs>
       <use transform="scale(0.996264)" xlink:href="#CMR17-48"/>
       <use transform="translate(45.690477 0)scale(0.996264)" xlink:href="#CMMI12-58"/>
       <use transform="translate(72.787654 0)scale(0.996264)" xlink:href="#CMR17-56"/>
      </g>
     </g>
    </g>
    <g id="xtick_2">
     <g id="line2d_2">
      <g>
       <use style="stroke:#000000;stroke-width:0.35;" x="83.331594" xlink:href="#m16d485ae0a" y="120.118192"/>
      </g>
     </g>
     <g id="text_2">
      <!-- $\mathdefault{0.9}$ -->
      <g transform="translate(77.92125 130.652994)scale(0.08 -0.08)">
       <defs>
        <path d="M 35.203125 29.234375 
C 35.203125 7 26.09375 0.390625 18.59375 0.390625 
C 16.296875 0.390625 10.703125 0.671875 8.40625 4.390625 
C 11 4 12.90625 5.390625 12.90625 7.890625 
C 12.90625 10.59375 10.703125 11.5 9.296875 11.5 
C 8.40625 11.5 5.703125 11.09375 5.703125 7.6875 
C 5.703125 1.0625 11.59375 -2 18.796875 -2 
C 30.296875 -2 42 10.390625 42 32.65625 
C 42 60.265625 30.796875 66 23.203125 66 
C 13.296875 66 3.796875 57.25 3.796875 43.75 
C 3.796875 31.25 11.90625 22 22.09375 22 
C 30.5 22 34.203125 29.84375 35.203125 33.15625 
z
M 22.296875 23.59375 
C 19.59375 23.59375 15.796875 24.09375 12.703125 30.140625 
C 10.59375 34.078125 10.59375 38.703125 10.59375 43.640625 
C 10.59375 49.59375 10.59375 53.71875 13.40625 58.15625 
C 14.796875 60.265625 17.40625 63.6875 23.203125 63.6875 
C 35 63.6875 35 45.453125 35 41.421875 
C 35 34.265625 31.796875 23.59375 22.296875 23.59375 
z
" id="CMR17-57"/>
       </defs>
       <use transform="scale(0.996264)" xlink:href="#CMR17-48"/>
       <use transform="translate(45.690477 0)scale(0.996264)" xlink:href="#CMMI12-58"/>
       <use transform="translate(72.787654 0)scale(0.996264)" xlink:href="#CMR17-57"/>
      </g>
     </g>
    </g>
    <g id="xtick_3">
     <g id="line2d_3">
      <g>
       <use style="stroke:#000000;stroke-width:0.35;" x="127.89174" xlink:href="#m16d485ae0a" y="120.118192"/>
      </g>
     </g>
     <g id="text_3">
      <!-- $\mathdefault{1.0}$ -->
      <g transform="translate(122.481395 130.652994)scale(0.08 -0.08)">
       <defs>
        <path d="M 26.59375 63.796875 
C 26.59375 65.890625 26.5 66 25.09375 66 
C 21.203125 61.359375 15.296875 59.890625 9.703125 59.6875 
C 9.40625 59.6875 8.90625 59.6875 8.796875 59.5 
C 8.703125 59.296875 8.703125 59.09375 8.703125 57 
C 11.796875 57 17 57.59375 21 59.984375 
L 21 7.296875 
C 21 3.796875 20.796875 2.59375 12.203125 2.59375 
L 9.203125 2.59375 
L 9.203125 0 
C 14 0.09375 19 0.1875 23.796875 0.1875 
C 28.59375 0.1875 33.59375 0.09375 38.40625 0 
L 38.40625 2.59375 
L 35.40625 2.59375 
C 26.796875 2.59375 26.59375 3.6875 26.59375 7.296875 
z
" id="CMR17-49"/>
       </defs>
       <use transform="scale(0.996264)" xlink:href="#CMR17-49"/>
       <use transform="translate(45.690477 0)scale(0.996264)" xlink:href="#CMMI12-58"/>
       <use transform="translate(72.787654 0)scale(0.996264)" xlink:href="#CMR17-48"/>
      </g>
     </g>
    </g>
    <g id="xtick_4">
     <g id="line2d_4">
      <g>
       <use style="stroke:#000000;stroke-width:0.35;" x="172.451885" xlink:href="#m16d485ae0a" y="120.118192"/>
      </g>
     </g>
     <g id="text_4">
      <!-- $\mathdefault{1.1}$ -->
      <g transform="translate(167.041541 130.652994)scale(0.08 -0.08)">
       <use transform="scale(0.996264)" xlink:href="#CMR17-49"/>
       <use transform="translate(45.690477 0)scale(0.996264)" xlink:href="#CMMI12-58"/>
       <use transform="translate(72.787654 0)scale(0.996264)" xlink:href="#CMR17-49"/>
      </g>
     </g>
    </g>
    <g id="xtick_5">
     <g id="line2d_5">
      <g>
       <use style="stroke:#000000;stroke-width:0.35;" x="217.012031" xlink:href="#m16d485ae0a" y="120.118192"/>
      </g>
     </g>
     <g id="text_5">
      <!-- $\mathdefault{1.2}$ -->
      <g transform="translate(211.601686 130.652994)scale(0.08 -0.08)">
       <defs>
        <path d="M 41.703125 15.46875 
L 39.90625 15.46875 
C 38.90625 8.390625 38.09375 7.1875 37.703125 6.59375 
C 37.203125 5.796875 30 5.796875 28.59375 5.796875 
L 9.40625 5.796875 
C 13 9.6875 20 16.765625 28.5 24.9375 
C 34.59375 30.71875 41.703125 37.5 41.703125 47.390625 
C 41.703125 59.1875 32.296875 66 21.796875 66 
C 10.796875 66 4.09375 56.296875 4.09375 47.296875 
C 4.09375 43.390625 7 42.890625 8.203125 42.890625 
C 9.203125 42.890625 12.203125 43.484375 12.203125 46.984375 
C 12.203125 50.09375 9.59375 51 8.203125 51 
C 7.59375 51 7 50.890625 6.59375 50.6875 
C 8.5 59.1875 14.296875 63.390625 20.40625 63.390625 
C 29.09375 63.390625 34.796875 56.5 34.796875 47.390625 
C 34.796875 38.703125 29.703125 31.21875 24 24.734375 
L 4.09375 2.296875 
L 4.09375 0 
L 39.296875 0 
z
" id="CMR17-50"/>
       </defs>
       <use transform="scale(0.996264)" xlink:href="#CMR17-49"/>
       <use transform="translate(45.690477 0)scale(0.996264)" xlink:href="#CMMI12-58"/>
       <use transform="translate(72.787654 0)scale(0.996264)" xlink:href="#CMR17-50"/>
      </g>
     </g>
    </g>
    <g id="text_6">
     <!-- Luttinger Parameter  $K$ -->
     <g transform="translate(84.795789 139.737541)scale(0.08 -0.08)">
      <defs>
       <path d="M 54.203125 25.1875 
L 52.40625 25.1875 
C 51.59375 15.328125 50.296875 2.59375 33.203125 2.59375 
L 23.90625 2.59375 
C 19.90625 2.59375 19.703125 3.09375 19.703125 6.46875 
L 19.703125 60.8125 
C 19.703125 64.390625 19.90625 65.390625 27.5 65.390625 
L 29.703125 65.390625 
L 29.703125 68 
C 25.59375 67.796875 20.796875 67.796875 16.703125 67.796875 
C 13.59375 67.796875 8 67.796875 5.09375 68 
L 5.09375 65.390625 
C 12 65.390625 13.09375 65.390625 13.09375 60.90625 
L 13.09375 7.078125 
C 13.09375 2.59375 12 2.59375 5.09375 2.59375 
L 5.09375 0 
L 51.796875 0 
z
" id="CMR17-76"/>
       <path d="M 29.40625 42.890625 
L 29.40625 40.296875 
C 35.296875 40.296875 36.203125 39.6875 36.203125 34.828125 
L 36.203125 16.453125 
C 36.203125 7.96875 31.703125 0.59375 24.296875 0.59375 
C 16.09375 0.59375 15.40625 5.546875 15.40625 10.796875 
L 15.40625 44 
L 3.296875 42.890625 
L 3.296875 40.296875 
C 7.296875 40.296875 10 40.296875 10.09375 36.25 
L 10.09375 16.859375 
C 10.09375 10.09375 10.09375 5.75 12.703125 2.921875 
C 14 1.609375 16.5 -1 23.703125 -1 
C 32.203125 -1 35.5 6.25 36.296875 8.375 
L 36.40625 8.375 
L 36.40625 -1 
L 48.296875 -0.203125 
L 48.296875 2.40625 
C 42.40625 2.40625 41.5 3.015625 41.5 7.859375 
L 41.5 44 
z
" id="CMR17-117"/>
       <path d="M 15.09375 40.390625 
L 29.09375 40.390625 
L 29.09375 43 
L 15.09375 43 
L 15.09375 62 
L 13.296875 62 
C 13.09375 51.4375 9.59375 42.1875 1.09375 41.984375 
L 1.09375 40.390625 
L 9.796875 40.390625 
L 9.796875 12.15625 
C 9.796875 10.234375 9.796875 -1 21.40625 -1 
C 27.296875 -1 30.703125 4.8125 30.703125 12.25 
L 30.703125 17.984375 
L 28.90625 17.984375 
L 28.90625 12.34375 
C 28.90625 5.421875 26.203125 0.796875 22 0.796875 
C 19.09375 0.796875 15.09375 2.796875 15.09375 11.953125 
z
" id="CMR17-116"/>
       <path d="M 15.5 61.890625 
C 15.5 64.09375 13.703125 66 11.40625 66 
C 9.203125 66 7.296875 64.1875 7.296875 61.890625 
C 7.296875 59.6875 9.09375 57.796875 11.40625 57.796875 
C 13.59375 57.796875 15.5 59.59375 15.5 61.890625 
z
M 3.796875 42.890625 
L 3.796875 40.296875 
C 9.40625 40.296875 10.203125 39.6875 10.203125 34.859375 
L 10.203125 6.921875 
C 10.203125 3.09375 9.796875 2.59375 3.40625 2.59375 
L 3.40625 0 
C 5.796875 0.1875 10.09375 0.1875 12.59375 0.1875 
C 15 0.1875 19.09375 0.1875 21.40625 0 
L 21.40625 2.59375 
C 15.5 2.59375 15.296875 3.203125 15.296875 6.8125 
L 15.296875 44 
z
" id="CMR17-105"/>
       <path d="M 41.5 30.53125 
C 41.5 35.65625 40.5 44 28.703125 44 
C 20.796875 44 16.703125 37.875 15.203125 33.84375 
L 15.09375 33.84375 
L 15.09375 44 
L 3.296875 42.890625 
L 3.296875 40.28125 
C 9.203125 40.28125 10.09375 39.6875 10.09375 34.859375 
L 10.09375 6.921875 
C 10.09375 3.09375 9.703125 2.59375 3.296875 2.59375 
L 3.296875 0 
C 5.703125 0.1875 10.09375 0.1875 12.703125 0.1875 
C 15.296875 0.1875 19.796875 0.1875 22.203125 0 
L 22.203125 2.59375 
C 15.796875 2.59375 15.40625 3 15.40625 6.921875 
L 15.40625 26.21875 
C 15.40625 35.453125 21 42.390625 28 42.390625 
C 35.40625 42.390625 36.203125 35.765625 36.203125 30.9375 
L 36.203125 6.921875 
C 36.203125 3.09375 35.796875 2.59375 29.40625 2.59375 
L 29.40625 0 
C 31.796875 0.1875 36.203125 0.1875 38.796875 0.1875 
C 41.40625 0.1875 45.90625 0.1875 48.296875 0 
L 48.296875 2.59375 
C 41.90625 2.59375 41.5 3 41.5 6.921875 
z
" id="CMR17-110"/>
       <path d="M 11.09375 18.203125 
C 13 16.6875 16.296875 15 20.296875 15 
C 28.203125 15 35 21.234375 35 29.609375 
C 35 32.234375 34.203125 36.265625 31.203125 39.390625 
C 34 42.390625 38.09375 43.390625 40.40625 43.390625 
C 40.796875 43.390625 41.40625 43.390625 41.90625 43.09375 
C 41.5 42.984375 40.59375 42.59375 40.59375 40.984375 
C 40.59375 39.6875 41.5 38.796875 42.796875 38.796875 
C 44.296875 38.796875 45.09375 39.796875 45.09375 41.09375 
C 45.09375 42.984375 43.59375 45 40.40625 45 
C 36.40625 45 32.90625 43.09375 30.09375 40.484375 
C 27.09375 43.1875 23.5 44.1875 20.296875 44.1875 
C 12.40625 44.1875 5.59375 37.984375 5.59375 29.609375 
C 5.59375 23.859375 8.90625 20.21875 9.90625 19.21875 
C 6.90625 15.6875 6.90625 11.59375 6.90625 11.09375 
C 6.90625 8.5 7.90625 4.6875 11.296875 2.59375 
C 6.09375 1.28125 2 -2.875 2 -8.078125 
C 2 -15.5625 11.5 -21 22.90625 -21 
C 33.90625 -21 43.796875 -15.765625 43.796875 -7.96875 
C 43.796875 6 29 6 21.296875 6 
C 19 6 14.90625 6 14.40625 6.09375 
C 11.296875 6.59375 9.203125 9.390625 9.203125 12.890625 
C 9.203125 13.796875 9.203125 16 11.09375 18.203125 
z
M 20.296875 16.6875 
C 11.5 16.6875 11.5 27.59375 11.5 29.609375 
C 11.5 31.625 11.5 42.484375 20.296875 42.484375 
C 29.09375 42.484375 29.09375 31.625 29.09375 29.609375 
C 29.09375 27.59375 29.09375 16.6875 20.296875 16.6875 
z
M 22.90625 -19.3125 
C 12.90625 -19.3125 6 -13.796875 6 -8.078125 
C 6 -4.859375 7.703125 -1.84375 9.90625 -0.171875 
C 12.40625 1.59375 13.40625 1.59375 20.203125 1.59375 
C 28.40625 1.59375 39.796875 1.59375 39.796875 -8.078125 
C 39.796875 -13.796875 32.90625 -19.3125 22.90625 -19.3125 
z
" id="CMR17-103"/>
       <path d="M 38.09375 23.484375 
C 38.5 23.890625 38.5 24.09375 38.5 25.09375 
C 38.5 35.171875 33.09375 44 21.703125 44 
C 11.09375 44 2.703125 33.984375 2.703125 21.78125 
C 2.703125 8.65625 12.203125 -1 22.796875 -1 
C 34 -1 38.40625 9.671875 38.40625 11.796875 
C 38.40625 12.5 37.796875 12.5 37.59375 12.5 
C 36.90625 12.5 36.796875 12.296875 36.40625 11.078125 
C 34.203125 4.21875 28.703125 0.796875 23.5 0.796875 
C 19.203125 0.796875 14.90625 3.21875 12.203125 7.65625 
C 9.09375 12.796875 9.09375 18.75 9.09375 23.484375 
z
M 9.203125 25 
C 9.90625 39.234375 17.59375 42.390625 21.59375 42.390625 
C 28.40625 42.390625 33 36.0625 33.09375 25 
z
" id="CMR17-101"/>
       <path d="M 15 23.703125 
C 15 33.34375 19.09375 42.390625 26.59375 42.390625 
C 27.296875 42.390625 28 42.296875 28.703125 41.984375 
C 28.703125 41.984375 26.5 41.28125 26.5 38.671875 
C 26.5 36.265625 28.40625 35.265625 29.90625 35.265625 
C 31.09375 35.265625 33.296875 35.96875 33.296875 38.78125 
C 33.296875 41.984375 30.09375 44 26.703125 44 
C 19.09375 44 15.796875 36.5625 14.796875 33.046875 
L 14.703125 33.046875 
L 14.703125 44 
L 3.09375 42.890625 
L 3.09375 40.28125 
C 9 40.28125 9.90625 39.6875 9.90625 34.859375 
L 9.90625 6.921875 
C 9.90625 3.09375 9.5 2.59375 3.09375 2.59375 
L 3.09375 0 
C 5.5 0.1875 10.09375 0.1875 12.703125 0.1875 
C 15.59375 0.1875 20.703125 0.1875 23.40625 0 
L 23.40625 2.59375 
C 16.203125 2.59375 15 2.59375 15 7.109375 
z
" id="CMR17-114"/>
       <path d="M 19.796875 32 
L 35.796875 32 
C 48.703125 32 58.09375 40.359375 58.09375 49.796875 
C 58.09375 59.234375 48.90625 68 35.796875 68 
L 5.203125 68 
L 5.203125 65.390625 
C 12.09375 65.390625 13.203125 65.390625 13.203125 60.921875 
L 13.203125 7.078125 
C 13.203125 2.59375 12.09375 2.59375 5.203125 2.59375 
L 5.203125 0 
C 8.09375 0.1875 13.40625 0.1875 16.5 0.1875 
C 19.59375 0.1875 24.90625 0.1875 27.796875 0 
L 27.796875 2.59375 
C 20.90625 2.59375 19.796875 2.59375 19.796875 7.078125 
z
M 19.59375 34.09375 
L 19.59375 61.515625 
C 19.59375 64.890625 19.796875 65.390625 23.796875 65.390625 
L 33.90625 65.390625 
C 46.796875 65.390625 50.5 58.046875 50.5 49.796875 
C 50.5 40.75 46.09375 34.09375 33.90625 34.09375 
z
" id="CMR17-80"/>
       <path d="M 36 25.875 
C 36 32 36 35.546875 31.796875 39.59375 
C 28.09375 42.984375 23.796875 44 20.40625 44 
C 12.5 44 6.796875 37.625 6.796875 30.890625 
C 6.796875 27.1875 9.796875 27 10.40625 27 
C 11.703125 27 14 27.796875 14 30.59375 
C 14 33.09375 12.09375 34.1875 10.40625 34.1875 
C 10 34.1875 9.5 34.09375 9.203125 34 
C 11.296875 40.53125 16.703125 42.390625 20.203125 42.390625 
C 25.203125 42.390625 30.703125 37.828125 30.703125 29.296875 
L 30.703125 25.5 
C 24.796875 25.296875 17.703125 24.5 12.09375 21.453125 
C 5.796875 17.921875 4 12.84375 4 9 
C 4 1.203125 13 -1 18.296875 -1 
C 23.796875 -1 28.90625 2.109375 31.09375 7.890625 
C 31.296875 3.421875 34.09375 -0.609375 38.5 -0.609375 
C 40.59375 -0.609375 45.90625 0.796875 45.90625 8.796875 
L 45.90625 14.46875 
L 44.09375 14.46875 
L 44.09375 8.703125 
C 44.09375 2.515625 41.40625 1.703125 40.09375 1.703125 
C 36 1.703125 36 6.96875 36 11.4375 
z
M 30.703125 13.859375 
C 30.703125 5.046875 24.5 0.59375 19 0.59375 
C 14 0.59375 10.09375 4.34375 10.09375 9 
C 10.09375 12.046875 11.40625 17.40625 17.203125 20.65625 
C 22 23.390625 27.5 23.796875 30.703125 24 
z
" id="CMR17-97"/>
       <path d="M 67.59375 30.53125 
C 67.59375 35.5625 66.703125 44 54.796875 44 
C 48 44 43.296875 39.375 41.5 33.953125 
L 41.40625 33.953125 
C 40.203125 42.1875 34.296875 44 28.703125 44 
C 20.796875 44 16.703125 37.875 15.203125 33.84375 
L 15.09375 33.84375 
L 15.09375 44 
L 3.296875 42.890625 
L 3.296875 40.28125 
C 9.203125 40.28125 10.09375 39.6875 10.09375 34.859375 
L 10.09375 6.921875 
C 10.09375 3.09375 9.703125 2.59375 3.296875 2.59375 
L 3.296875 0 
C 5.703125 0.1875 10.09375 0.1875 12.703125 0.1875 
C 15.296875 0.1875 19.796875 0.1875 22.203125 0 
L 22.203125 2.59375 
C 15.796875 2.59375 15.40625 3 15.40625 6.921875 
L 15.40625 26.21875 
C 15.40625 35.453125 21 42.390625 28 42.390625 
C 35.40625 42.390625 36.203125 35.765625 36.203125 30.9375 
L 36.203125 6.921875 
C 36.203125 3.09375 35.796875 2.59375 29.40625 2.59375 
L 29.40625 0 
C 31.796875 0.1875 36.203125 0.1875 38.796875 0.1875 
C 41.40625 0.1875 45.90625 0.1875 48.296875 0 
L 48.296875 2.59375 
C 41.90625 2.59375 41.5 3 41.5 6.921875 
L 41.5 26.21875 
C 41.5 35.453125 47.09375 42.390625 54.09375 42.390625 
C 61.5 42.390625 62.296875 35.765625 62.296875 30.9375 
L 62.296875 6.921875 
C 62.296875 3.09375 61.90625 2.59375 55.5 2.59375 
L 55.5 0 
C 57.90625 0.1875 62.296875 0.1875 64.90625 0.1875 
C 67.5 0.1875 72 0.1875 74.40625 0 
L 74.40625 2.59375 
C 68 2.59375 67.59375 3 67.59375 6.921875 
z
" id="CMR17-109"/>
       <path d="M 50 40.21875 
C 49.90625 40.515625 49.5 41.3125 49.5 41.609375 
C 49.5 41.703125 49.59375 41.796875 51.296875 43.09375 
L 61 50.65625 
C 74.40625 61.015625 78.796875 64.5 85.703125 65.09375 
C 86.40625 65.1875 87.40625 65.1875 87.40625 66.890625 
C 87.40625 67.484375 87.09375 68 86.296875 68 
C 85.203125 68 84 67.796875 82.90625 67.796875 
L 79.09375 67.796875 
C 76 67.796875 72.703125 68 69.703125 68 
C 69 68 67.796875 68 67.796875 66.1875 
C 67.796875 65.1875 68.5 65.09375 69.09375 65.09375 
C 70.203125 64.984375 71.5 64.59375 71.5 63.203125 
C 71.5 61.203125 68.5 58.828125 67.703125 58.21875 
L 28.5 27.875 
L 36.796875 60.71875 
C 37.703125 64.09375 37.90625 65.09375 45 65.09375 
C 46.90625 65.09375 47.796875 65.09375 47.796875 66.984375 
C 47.796875 68 46.796875 68 46.296875 68 
C 44.5 68 42.40625 67.796875 40.5 67.796875 
L 28.703125 67.796875 
C 26.90625 67.796875 24.703125 68 22.90625 68 
C 22.09375 68 21 68 21 66.09375 
C 21 65.09375 21.90625 65.09375 23.40625 65.09375 
C 29.5 65.09375 29.5 64.296875 29.5 63.203125 
C 29.5 63 29.5 62.40625 29.09375 60.90625 
L 15.59375 7.375 
C 14.703125 3.890625 14.5 2.890625 7.5 2.890625 
C 5.59375 2.890625 4.59375 2.890625 4.59375 1.09375 
C 4.59375 0 5.5 0 6.09375 0 
C 8 0 10 0.1875 11.90625 0.1875 
L 23.59375 0.1875 
C 25.5 0.1875 27.59375 0 29.5 0 
C 30.296875 0 31.40625 0 31.40625 1.890625 
C 31.40625 2.890625 30.5 2.890625 29 2.890625 
C 22.90625 2.890625 22.90625 3.6875 22.90625 4.6875 
C 22.90625 5.375 23.5 7.875 23.90625 9.453125 
L 27.796875 24.890625 
L 43 36.734375 
C 45.90625 30.359375 51.203125 17.625 55.296875 7.875 
C 55.59375 7.265625 55.796875 6.671875 55.796875 5.984375 
C 55.796875 2.984375 51.796875 2.890625 50.90625 2.890625 
C 50 2.890625 49 2.890625 49 1 
C 49 0 50.09375 0 50.40625 0 
C 53.90625 0 57.59375 0.1875 61.09375 0.1875 
L 65.90625 0.1875 
C 67.40625 0.1875 69.09375 0 70.59375 0 
C 71.203125 0 72.296875 0 72.296875 1.890625 
C 72.296875 2.890625 71.40625 2.890625 70.40625 2.890625 
C 66.703125 2.984375 65.40625 3.78125 63.90625 7.375 
z
" id="CMMI12-75"/>
      </defs>
      <use transform="scale(0.996264)" xlink:href="#CMR17-76"/>
      <use transform="translate(57.381408 0)scale(0.996264)" xlink:href="#CMR17-117"/>
      <use transform="translate(108.276778 0)scale(0.996264)" xlink:href="#CMR17-116"/>
      <use transform="translate(143.557545 0)scale(0.996264)" xlink:href="#CMR17-116"/>
      <use transform="translate(178.838313 0)scale(0.996264)" xlink:href="#CMR17-105"/>
      <use transform="translate(203.709372 0)scale(0.996264)" xlink:href="#CMR17-110"/>
      <use transform="translate(254.604741 0)scale(0.996264)" xlink:href="#CMR17-103"/>
      <use transform="translate(300.295219 0)scale(0.996264)" xlink:href="#CMR17-101"/>
      <use transform="translate(340.780879 0)scale(0.996264)" xlink:href="#CMR17-114"/>
      <use transform="translate(406.137613 0)scale(0.996264)" xlink:href="#CMR17-80"/>
      <use transform="translate(466.12146 0)scale(0.996264)" xlink:href="#CMR17-97"/>
      <use transform="translate(511.811937 0)scale(0.996264)" xlink:href="#CMR17-114"/>
      <use transform="translate(547.092705 0)scale(0.996264)" xlink:href="#CMR17-97"/>
      <use transform="translate(592.783182 0)scale(0.996264)" xlink:href="#CMR17-109"/>
      <use transform="translate(669.702772 0)scale(0.996264)" xlink:href="#CMR17-101"/>
      <use transform="translate(710.188432 0)scale(0.996264)" xlink:href="#CMR17-116"/>
      <use transform="translate(745.4692 0)scale(0.996264)" xlink:href="#CMR17-101"/>
      <use transform="translate(785.95486 0)scale(0.996264)" xlink:href="#CMR17-114"/>
      <use transform="translate(851.311595 0)scale(0.996264)" xlink:href="#CMMI12-75"/>
     </g>
    </g>
   </g>
   <g id="matplotlib.axis_2">
    <g id="ytick_1">
     <g id="line2d_6">
      <defs>
       <path d="M 0 0 
L -2 0 
" id="m352a797558" style="stroke:#000000;stroke-width:0.35;"/>
      </defs>
      <g>
       <use style="stroke:#000000;stroke-width:0.35;" x="29.85942" xlink:href="#m352a797558" y="120.118192"/>
      </g>
     </g>
     <g id="text_7">
      <!-- $\mathdefault{0.00}$ -->
      <g transform="translate(9.804547 122.885593)scale(0.08 -0.08)">
       <use transform="scale(0.996264)" xlink:href="#CMR17-48"/>
       <use transform="translate(45.690477 0)scale(0.996264)" xlink:href="#CMMI12-58"/>
       <use transform="translate(72.787654 0)scale(0.996264)" xlink:href="#CMR17-48"/>
       <use transform="translate(118.478131 0)scale(0.996264)" xlink:href="#CMR17-48"/>
      </g>
     </g>
    </g>
    <g id="ytick_2">
     <g id="line2d_7">
      <g>
       <use style="stroke:#000000;stroke-width:0.35;" x="29.85942" xlink:href="#m352a797558" y="100.679727"/>
      </g>
     </g>
     <g id="text_8">
      <!-- $\mathdefault{0.01}$ -->
      <g transform="translate(9.804547 103.447128)scale(0.08 -0.08)">
       <use transform="scale(0.996264)" xlink:href="#CMR17-48"/>
       <use transform="translate(45.690477 0)scale(0.996264)" xlink:href="#CMMI12-58"/>
       <use transform="translate(72.787654 0)scale(0.996264)" xlink:href="#CMR17-48"/>
       <use transform="translate(118.478131 0)scale(0.996264)" xlink:href="#CMR17-49"/>
      </g>
     </g>
    </g>
    <g id="ytick_3">
     <g id="line2d_8">
      <g>
       <use style="stroke:#000000;stroke-width:0.35;" x="29.85942" xlink:href="#m352a797558" y="81.241262"/>
      </g>
     </g>
     <g id="text_9">
      <!-- $\mathdefault{0.02}$ -->
      <g transform="translate(9.804547 84.008663)scale(0.08 -0.08)">
       <use transform="scale(0.996264)" xlink:href="#CMR17-48"/>
       <use transform="translate(45.690477 0)scale(0.996264)" xlink:href="#CMMI12-58"/>
       <use transform="translate(72.787654 0)scale(0.996264)" xlink:href="#CMR17-48"/>
       <use transform="translate(118.478131 0)scale(0.996264)" xlink:href="#CMR17-50"/>
      </g>
     </g>
    </g>
    <g id="ytick_4">
     <g id="line2d_9">
      <g>
       <use style="stroke:#000000;stroke-width:0.35;" x="29.85942" xlink:href="#m352a797558" y="61.802796"/>
      </g>
     </g>
     <g id="text_10">
      <!-- $\mathdefault{0.03}$ -->
      <g transform="translate(9.804547 64.570197)scale(0.08 -0.08)">
       <defs>
        <path d="M 22.09375 34 
C 31 34 34.90625 26.140625 34.90625 17.09375 
C 34.90625 5.03125 28.5 0.390625 22.703125 0.390625 
C 17.40625 0.390625 8.796875 3.015625 6.09375 10.796875 
C 6.59375 10.59375 7.09375 10.59375 7.59375 10.59375 
C 10 10.59375 11.796875 12.1875 11.796875 14.796875 
C 11.796875 17.6875 9.59375 19 7.59375 19 
C 5.90625 19 3.296875 18.1875 3.296875 14.484375 
C 3.296875 5.234375 12.296875 -2 22.90625 -2 
C 34 -2 42.5 6.75 42.5 16.984375 
C 42.5 26.84375 34.5 34 25 35.09375 
C 32.59375 36.671875 39.90625 43.375 39.90625 52.390625 
C 39.90625 60.25 32 66 23 66 
C 13.90625 66 5.90625 60.34375 5.90625 52.296875 
C 5.90625 48.796875 8.5 48.1875 9.796875 48.1875 
C 11.90625 48.1875 13.703125 49.484375 13.703125 52.09375 
C 13.703125 54.6875 11.90625 56 9.796875 56 
C 9.40625 56 8.90625 56 8.5 55.796875 
C 11.40625 62.484375 19.296875 63.6875 22.796875 63.6875 
C 26.296875 63.6875 32.90625 61.96875 32.90625 52.296875 
C 32.90625 49.484375 32.5 44.546875 29.09375 40.21875 
C 26.09375 36.390625 22.703125 36.1875 19.40625 35.890625 
C 18.90625 35.890625 16.59375 35.6875 16.203125 35.6875 
C 15.5 35.59375 15.09375 35.5 15.09375 34.796875 
C 15.09375 34.09375 15.203125 34 17.203125 34 
z
" id="CMR17-51"/>
       </defs>
       <use transform="scale(0.996264)" xlink:href="#CMR17-48"/>
       <use transform="translate(45.690477 0)scale(0.996264)" xlink:href="#CMMI12-58"/>
       <use transform="translate(72.787654 0)scale(0.996264)" xlink:href="#CMR17-48"/>
       <use transform="translate(118.478131 0)scale(0.996264)" xlink:href="#CMR17-51"/>
      </g>
     </g>
    </g>
    <g id="ytick_5">
     <g id="line2d_10">
      <g>
       <use style="stroke:#000000;stroke-width:0.35;" x="29.85942" xlink:href="#m352a797558" y="42.364331"/>
      </g>
     </g>
     <g id="text_11">
      <!-- $\mathdefault{0.04}$ -->
      <g transform="translate(9.804547 45.131732)scale(0.08 -0.08)">
       <defs>
        <path d="M 33.59375 64.796875 
C 33.59375 66.890625 33.5 67 31.703125 67 
L 2 19.59375 
L 2 17 
L 27.796875 17 
L 27.796875 7.1875 
C 27.796875 3.59375 27.59375 2.59375 20.59375 2.59375 
L 18.703125 2.59375 
L 18.703125 0 
C 21.90625 0.1875 27.296875 0.1875 30.703125 0.1875 
C 34.09375 0.1875 39.5 0.1875 42.703125 0 
L 42.703125 2.59375 
L 40.796875 2.59375 
C 33.796875 2.59375 33.59375 3.59375 33.59375 7.1875 
L 33.59375 17 
L 43.796875 17 
L 43.796875 19.59375 
L 33.59375 19.59375 
z
M 28.09375 58.171875 
L 28.09375 19.59375 
L 4 19.59375 
z
" id="CMR17-52"/>
       </defs>
       <use transform="scale(0.996264)" xlink:href="#CMR17-48"/>
       <use transform="translate(45.690477 0)scale(0.996264)" xlink:href="#CMMI12-58"/>
       <use transform="translate(72.787654 0)scale(0.996264)" xlink:href="#CMR17-48"/>
       <use transform="translate(118.478131 0)scale(0.996264)" xlink:href="#CMR17-52"/>
      </g>
     </g>
    </g>
    <g id="ytick_6">
     <g id="line2d_11">
      <g>
       <use style="stroke:#000000;stroke-width:0.35;" x="29.85942" xlink:href="#m352a797558" y="22.925866"/>
      </g>
     </g>
     <g id="text_12">
      <!-- $\mathdefault{0.05}$ -->
      <g transform="translate(9.804547 25.693267)scale(0.08 -0.08)">
       <defs>
        <path d="M 11.40625 58.59375 
C 12.40625 58.1875 16.5 56.890625 20.703125 56.890625 
C 30 56.890625 35.09375 61.890625 38 64.6875 
C 38 65.484375 38 66 37.40625 66 
C 37.296875 66 37.09375 66 36.296875 65.59375 
C 32.796875 64.09375 28.703125 63 23.703125 63 
C 20.703125 63 16.203125 63.359375 11.296875 65.484375 
C 10.203125 66 10 66 9.90625 66 
C 9.40625 66 9.296875 65.890625 9.296875 63.90625 
L 9.296875 34.859375 
C 9.296875 33.015625 9.296875 32.5 10.296875 32.5 
C 10.796875 32.5 11 32.703125 11.5 33.421875 
C 14.703125 38.046875 19.09375 40 24.09375 40 
C 27.59375 40 35.09375 37.734375 35.09375 20.203125 
C 35.09375 16.984375 35.09375 11.1875 32.09375 6.59375 
C 29.59375 2.484375 25.703125 0.390625 21.40625 0.390625 
C 14.796875 0.390625 8.09375 4.984375 6.296875 12.6875 
C 6.703125 12.59375 7.5 12.390625 7.90625 12.390625 
C 9.203125 12.390625 11.703125 13.09375 11.703125 16.1875 
C 11.703125 18.890625 9.796875 20 7.90625 20 
C 5.59375 20 4.09375 18.59375 4.09375 15.796875 
C 4.09375 7.09375 11 -2 21.59375 -2 
C 31.90625 -2 41.703125 6.890625 41.703125 19.796875 
C 41.703125 32.09375 33.90625 41.59375 24.203125 41.59375 
C 19.09375 41.59375 14.796875 39.6875 11.40625 36 
z
" id="CMR17-53"/>
       </defs>
       <use transform="scale(0.996264)" xlink:href="#CMR17-48"/>
       <use transform="translate(45.690477 0)scale(0.996264)" xlink:href="#CMMI12-58"/>
       <use transform="translate(72.787654 0)scale(0.996264)" xlink:href="#CMR17-48"/>
       <use transform="translate(118.478131 0)scale(0.996264)" xlink:href="#CMR17-53"/>
      </g>
     </g>
    </g>
    <g id="ytick_7">
     <g id="line2d_12">
      <g>
       <use style="stroke:#000000;stroke-width:0.35;" x="29.85942" xlink:href="#m352a797558" y="3.487401"/>
      </g>
     </g>
     <g id="text_13">
      <!-- $\mathdefault{0.06}$ -->
      <g transform="translate(9.804547 6.254802)scale(0.08 -0.08)">
       <defs>
        <path d="M 10.59375 34.34375 
C 10.59375 58 21.796875 63.6875 28.296875 63.6875 
C 30.40625 63.6875 35.5 63.265625 37.5 59.09375 
C 35.90625 59.09375 32.90625 59.09375 32.90625 55.59375 
C 32.90625 52.890625 35.09375 52 36.5 52 
C 37.40625 52 40.09375 52.390625 40.09375 55.796875 
C 40.09375 62.296875 35.09375 66 28.203125 66 
C 16.296875 66 3.796875 53.296875 3.796875 31.421875 
C 3.796875 4.015625 15.09375 -2 23.09375 -2 
C 32.796875 -2 42 6.734375 42 20.234375 
C 42 32.828125 33.90625 42 23.703125 42 
C 17.59375 42 13.09375 37.96875 10.59375 30.921875 
z
M 23.09375 0.390625 
C 10.796875 0.390625 10.796875 18.9375 10.796875 22.65625 
C 10.796875 29.90625 14.203125 40.390625 23.5 40.390625 
C 25.203125 40.390625 30.09375 40.390625 33.40625 33.4375 
C 35.203125 29.515625 35.203125 25.375 35.203125 20.34375 
C 35.203125 14.90625 35.203125 10.875 33.09375 6.84375 
C 30.90625 2.703125 27.703125 0.390625 23.09375 0.390625 
z
" id="CMR17-54"/>
       </defs>
       <use transform="scale(0.996264)" xlink:href="#CMR17-48"/>
       <use transform="translate(45.690477 0)scale(0.996264)" xlink:href="#CMMI12-58"/>
       <use transform="translate(72.787654 0)scale(0.996264)" xlink:href="#CMR17-48"/>
       <use transform="translate(118.478131 0)scale(0.996264)" xlink:href="#CMR17-54"/>
      </g>
     </g>
    </g>
    <g id="text_14">
     <!-- Entanglement Entropy Density -->
     <g transform="translate(6.254802 119.39668)rotate(-90)scale(0.08 -0.08)">
      <defs>
       <path d="M 60.703125 25.21875 
L 58.90625 25.21875 
C 56.703125 10.5625 55.40625 2.59375 37.796875 2.59375 
L 23.90625 2.59375 
C 19.90625 2.59375 19.703125 3.09375 19.703125 6.484375 
L 19.703125 34 
L 29.09375 34 
C 38.5 34 39.40625 30.609375 39.40625 22.328125 
L 41.203125 22.328125 
L 41.203125 48.21875 
L 39.40625 48.21875 
C 39.40625 39.96875 38.5 36.59375 29.09375 36.59375 
L 19.703125 36.59375 
L 19.703125 61.3125 
C 19.703125 64.703125 19.90625 65.1875 23.90625 65.1875 
L 37.59375 65.1875 
C 53.09375 65.1875 54.90625 59.03125 56.296875 45.828125 
L 58.09375 45.828125 
L 55.703125 67.796875 
L 5.09375 67.796875 
L 5.09375 65.1875 
C 12 65.1875 13.09375 65.1875 13.09375 60.71875 
L 13.09375 7.078125 
C 13.09375 2.59375 12 2.59375 5.09375 2.59375 
L 5.09375 0 
L 57.09375 0 
z
" id="CMR17-69"/>
       <path d="M 15.296875 69 
L 3.40625 67.890625 
L 3.40625 65.296875 
C 9.296875 65.296875 10.203125 64.703125 10.203125 59.921875 
L 10.203125 6.859375 
C 10.203125 3.09375 9.796875 2.59375 3.40625 2.59375 
L 3.40625 0 
C 5.796875 0.1875 10.203125 0.1875 12.703125 0.1875 
C 15.296875 0.1875 19.703125 0.1875 22.09375 0 
L 22.09375 2.59375 
C 15.703125 2.59375 15.296875 2.984375 15.296875 6.859375 
z
" id="CMR17-108"/>
       <path d="M 43.09375 21.1875 
C 43.09375 34 33.796875 44 22.90625 44 
C 12 44 2.703125 34 2.703125 21.1875 
C 2.703125 8.59375 12 -1 22.90625 -1 
C 33.796875 -1 43.09375 8.59375 43.09375 21.1875 
z
M 22.90625 0.796875 
C 18.203125 0.796875 14.203125 3.59375 11.90625 7.5 
C 9.40625 12 9.09375 17.59375 9.09375 22 
C 9.09375 26.1875 9.296875 31.390625 11.90625 35.890625 
C 13.90625 39.1875 17.796875 42.390625 22.90625 42.390625 
C 27.40625 42.390625 31.203125 39.890625 33.59375 36.390625 
C 36.703125 31.6875 36.703125 25.09375 36.703125 22 
C 36.703125 18.09375 36.5 12.09375 33.796875 7.296875 
C 31 2.6875 26.703125 0.796875 22.90625 0.796875 
z
" id="CMR17-111"/>
       <path d="M 22 -17.40625 
C 15.59375 -17.40625 15.203125 -17 15.203125 -13.03125 
L 15.203125 5.9375 
C 18.09375 1.703125 22.296875 -1 27.59375 -1 
C 37.59375 -1 47.703125 7.859375 47.703125 21.59375 
C 47.703125 34.3125 39 44 28.703125 44 
C 22.703125 44 17.796875 40.671875 15 36.640625 
L 15 44 
L 3.09375 42.890625 
L 3.09375 40.265625 
C 9 40.265625 9.90625 39.671875 9.90625 34.8125 
L 9.90625 -13.03125 
C 9.90625 -16.890625 9.5 -17.40625 3.09375 -17.40625 
L 3.09375 -20 
C 5.5 -19.8125 9.90625 -19.8125 12.5 -19.8125 
C 15.09375 -19.8125 19.59375 -19.8125 22 -20 
z
M 15.203125 31.484375 
C 15.203125 32.90625 15.203125 35.015625 19.09375 38.765625 
C 19.59375 39.15625 23 42.1875 28 42.1875 
C 35.296875 42.1875 41.296875 33 41.296875 21.5 
C 41.296875 9.984375 34.90625 0.59375 27 0.59375 
C 23.40625 0.59375 19.5 2.3125 16.5 7.046875 
C 15.203125 9.28125 15.203125 9.875 15.203125 11.5 
z
" id="CMR17-112"/>
       <path d="M 39 34.109375 
C 41.5 40.296875 46 40.390625 47.40625 40.390625 
L 47.40625 43 
C 45.5 42.890625 43 42.796875 41.09375 42.796875 
C 39 42.796875 35.703125 42.796875 33.703125 43 
L 33.703125 40.390625 
C 37.5 40.09375 37.59375 37.25 37.59375 36.4375 
C 37.59375 35.4375 37.40625 34.921875 36.90625 33.71875 
L 26 6.390625 
L 14.09375 35.9375 
C 13.59375 37.15625 13.59375 37.859375 13.59375 37.96875 
C 13.59375 40.1875 15.90625 40.390625 18.296875 40.390625 
L 18.296875 43 
C 15.90625 42.796875 11.59375 42.796875 9.09375 42.796875 
C 6.40625 42.796875 3.203125 42.796875 1 43 
L 1 40.390625 
C 6.40625 40.390625 7 39.890625 8.296875 36.640625 
L 23.203125 -0.484375 
C 18.703125 -12.421875 16.09375 -19.40625 9.796875 -19.40625 
C 8.703125 -19.40625 6.203125 -19.109375 4.40625 -17.28125 
C 6.703125 -17.078125 7.703125 -15.65625 7.703125 -13.9375 
C 7.703125 -12.21875 6.5 -10.703125 4.5 -10.703125 
C 2.296875 -10.703125 1.203125 -12.21875 1.203125 -14.046875 
C 1.203125 -18.09375 5.296875 -21 9.796875 -21 
C 15.59375 -21 19.203125 -15.359375 21.203125 -10.296875 
z
" id="CMR17-121"/>
       <path d="M 5.203125 68 
L 5.203125 65.390625 
C 12.09375 65.390625 13.203125 65.390625 13.203125 60.90625 
L 13.203125 7.078125 
C 13.203125 2.59375 12.09375 2.59375 5.203125 2.59375 
L 5.203125 0 
L 37 0 
C 53.09375 0 66 14.734375 66 33.4375 
C 66 52.25 53.296875 68 37 68 
z
M 23.796875 2.59375 
C 19.796875 2.59375 19.59375 3.09375 19.59375 6.46875 
L 19.59375 61.5 
C 19.59375 64.890625 19.796875 65.390625 23.796875 65.390625 
L 35 65.390625 
C 43.296875 65.390625 58.59375 60.515625 58.59375 33.4375 
C 58.59375 19.40625 54.5 13.734375 52.59375 11.046875 
C 50.203125 7.96875 44.5 2.59375 35 2.59375 
z
" id="CMR17-68"/>
       <path d="M 30.90625 42 
C 30.90625 43.796875 30.796875 43.890625 30.203125 43.890625 
C 29.796875 43.890625 29.703125 43.796875 28.5 42.296875 
C 28.203125 41.890625 27.296875 40.890625 27 40.5 
C 23.796875 43.890625 19.296875 44 17.59375 44 
C 6.5 44 2.5 38.1875 2.5 32.390625 
C 2.5 23.390625 12.703125 21.296875 15.59375 20.6875 
C 21.90625 19.390625 24.09375 19 26.203125 17.1875 
C 27.5 16 29.703125 13.796875 29.703125 10.1875 
C 29.703125 6 27.296875 0.59375 18.09375 0.59375 
C 9.40625 0.59375 6.296875 7.1875 4.5 16 
C 4.203125 17.390625 4.203125 17.5 3.40625 17.5 
C 2.59375 17.5 2.5 17.390625 2.5 15.390625 
L 2.5 1 
C 2.5 -0.8125 2.59375 -0.90625 3.203125 -0.90625 
C 3.703125 -0.90625 3.796875 -0.8125 4.296875 0 
C 4.90625 0.890625 6.40625 3.296875 7 4.296875 
C 9 1.59375 12.5 -1 18.09375 -1 
C 28 -1 33.296875 4.390625 33.296875 12.1875 
C 33.296875 17.296875 30.59375 20 29.296875 21.1875 
C 26.296875 24.296875 22.796875 25 18.59375 25.796875 
C 13.09375 27 6.09375 28.390625 6.09375 34.5 
C 6.09375 37.09375 7.5 42.59375 17.59375 42.59375 
C 28.296875 42.59375 28.90625 32.59375 29.09375 29.390625 
C 29.203125 28.890625 29.703125 28.796875 30 28.796875 
C 30.90625 28.796875 30.90625 29.09375 30.90625 30.796875 
z
" id="CMR17-115"/>
      </defs>
      <use transform="scale(0.996264)" xlink:href="#CMR17-69"/>
      <use transform="translate(62.586301 0)scale(0.996264)" xlink:href="#CMR17-110"/>
      <use transform="translate(110.879216 0)scale(0.996264)" xlink:href="#CMR17-116"/>
      <use transform="translate(146.159984 0)scale(0.996264)" xlink:href="#CMR17-97"/>
      <use transform="translate(191.850461 0)scale(0.996264)" xlink:href="#CMR17-110"/>
      <use transform="translate(242.745831 0)scale(0.996264)" xlink:href="#CMR17-103"/>
      <use transform="translate(288.436308 0)scale(0.996264)" xlink:href="#CMR17-108"/>
      <use transform="translate(313.307367 0)scale(0.996264)" xlink:href="#CMR17-101"/>
      <use transform="translate(353.793027 0)scale(0.996264)" xlink:href="#CMR17-109"/>
      <use transform="translate(430.712617 0)scale(0.996264)" xlink:href="#CMR17-101"/>
      <use transform="translate(471.198277 0)scale(0.996264)" xlink:href="#CMR17-110"/>
      <use transform="translate(519.491193 0)scale(0.996264)" xlink:href="#CMR17-116"/>
      <use transform="translate(584.847927 0)scale(0.996264)" xlink:href="#CMR17-69"/>
      <use transform="translate(647.434228 0)scale(0.996264)" xlink:href="#CMR17-110"/>
      <use transform="translate(695.727144 0)scale(0.996264)" xlink:href="#CMR17-116"/>
      <use transform="translate(731.007912 0)scale(0.996264)" xlink:href="#CMR17-114"/>
      <use transform="translate(766.288679 0)scale(0.996264)" xlink:href="#CMR17-111"/>
      <use transform="translate(811.979157 0)scale(0.996264)" xlink:href="#CMR17-112"/>
      <use transform="translate(860.272072 0)scale(0.996264)" xlink:href="#CMR17-121"/>
      <use transform="translate(938.640955 0)scale(0.996264)" xlink:href="#CMR17-68"/>
      <use transform="translate(1009.03451 0)scale(0.996264)" xlink:href="#CMR17-101"/>
      <use transform="translate(1049.520171 0)scale(0.996264)" xlink:href="#CMR17-110"/>
      <use transform="translate(1100.415541 0)scale(0.996264)" xlink:href="#CMR17-115"/>
      <use transform="translate(1136.216878 0)scale(0.996264)" xlink:href="#CMR17-105"/>
      <use transform="translate(1161.087937 0)scale(0.996264)" xlink:href="#CMR17-116"/>
      <use transform="translate(1193.766251 0)scale(0.996264)" xlink:href="#CMR17-121"/>
     </g>
    </g>
   </g>
   <g id="LineCollection_1">
    <path clip-path="url(#pe4f80aeff4)" d="M 213.312661 58.907533 
L 213.312661 56.635438 
" style="fill:none;stroke:#5e4fa2;stroke-width:0.5;"/>
    <path clip-path="url(#pe4f80aeff4)" d="M 166.527147 102.189508 
L 166.527147 101.876284 
" style="fill:none;stroke:#5e4fa2;stroke-width:0.5;"/>
    <path clip-path="url(#pe4f80aeff4)" d="M 150.25648 112.923988 
L 150.25648 112.757174 
" style="fill:none;stroke:#5e4fa2;stroke-width:0.5;"/>
    <path clip-path="url(#pe4f80aeff4)" d="M 127.89174 120.118192 
L 127.89174 120.118192 
" style="fill:none;stroke:#5e4fa2;stroke-width:0.5;"/>
    <path clip-path="url(#pe4f80aeff4)" d="M 107.567179 113.370087 
L 107.567179 113.243162 
" style="fill:none;stroke:#5e4fa2;stroke-width:0.5;"/>
    <path clip-path="url(#pe4f80aeff4)" d="M 94.965929 103.997679 
L 94.965929 103.791225 
" style="fill:none;stroke:#5e4fa2;stroke-width:0.5;"/>
    <path clip-path="url(#pe4f80aeff4)" d="M 38.807498 22.668231 
L 38.807498 22.238987 
" style="fill:none;stroke:#5e4fa2;stroke-width:0.5;"/>
   </g>
   <g id="LineCollection_2">
    <path clip-path="url(#pe4f80aeff4)" d="M 213.312661 62.863647 
L 213.312661 60.585607 
" style="fill:none;stroke:#d8434e;stroke-width:0.5;"/>
    <path clip-path="url(#pe4f80aeff4)" d="M 166.527147 102.417088 
L 166.527147 101.6759 
" style="fill:none;stroke:#d8434e;stroke-width:0.5;"/>
    <path clip-path="url(#pe4f80aeff4)" d="M 150.25648 113.089496 
L 150.25648 112.82933 
" style="fill:none;stroke:#d8434e;stroke-width:0.5;"/>
    <path clip-path="url(#pe4f80aeff4)" d="M 127.89174 120.118192 
L 127.89174 120.118192 
" style="fill:none;stroke:#d8434e;stroke-width:0.5;"/>
    <path clip-path="url(#pe4f80aeff4)" d="M 107.567179 113.745027 
L 107.567179 113.477463 
" style="fill:none;stroke:#d8434e;stroke-width:0.5;"/>
    <path clip-path="url(#pe4f80aeff4)" d="M 94.965929 104.348259 
L 94.965929 103.707053 
" style="fill:none;stroke:#d8434e;stroke-width:0.5;"/>
    <path clip-path="url(#pe4f80aeff4)" d="M 38.807498 21.824322 
L 38.807498 18.76049 
" style="fill:none;stroke:#d8434e;stroke-width:0.5;"/>
   </g>
   <g id="line2d_13">
    <defs>
     <path d="M 0 1.5 
C 0.397805 1.5 0.77937 1.341951 1.06066 1.06066 
C 1.341951 0.77937 1.5 0.397805 1.5 0 
C 1.5 -0.397805 1.341951 -0.77937 1.06066 -1.06066 
C 0.77937 -1.341951 0.397805 -1.5 0 -1.5 
C -0.397805 -1.5 -0.77937 -1.341951 -1.06066 -1.06066 
C -1.341951 -0.77937 -1.5 -0.397805 -1.5 0 
C -1.5 0.397805 -1.341951 0.77937 -1.06066 1.06066 
C -0.77937 1.341951 -0.397805 1.5 0 1.5 
z
" id="mce97e2655b" style="stroke:#5e4fa2;stroke-width:0.5;"/>
    </defs>
    <g clip-path="url(#pe4f80aeff4)">
     <use style="fill:#aea6d0;stroke:#5e4fa2;stroke-width:0.5;" x="213.312661" xlink:href="#mce97e2655b" y="57.771485"/>
     <use style="fill:#aea6d0;stroke:#5e4fa2;stroke-width:0.5;" x="166.527147" xlink:href="#mce97e2655b" y="102.032896"/>
     <use style="fill:#aea6d0;stroke:#5e4fa2;stroke-width:0.5;" x="150.25648" xlink:href="#mce97e2655b" y="112.840581"/>
     <use style="fill:#aea6d0;stroke:#5e4fa2;stroke-width:0.5;" x="127.89174" xlink:href="#mce97e2655b" y="120.118192"/>
     <use style="fill:#aea6d0;stroke:#5e4fa2;stroke-width:0.5;" x="107.567179" xlink:href="#mce97e2655b" y="113.306624"/>
     <use style="fill:#aea6d0;stroke:#5e4fa2;stroke-width:0.5;" x="94.965929" xlink:href="#mce97e2655b" y="103.894452"/>
     <use style="fill:#aea6d0;stroke:#5e4fa2;stroke-width:0.5;" x="38.807498" xlink:href="#mce97e2655b" y="22.453609"/>
    </g>
   </g>
   <g id="line2d_14">
    <defs>
     <path d="M 0 1.5 
C 0.397805 1.5 0.77937 1.341951 1.06066 1.06066 
C 1.341951 0.77937 1.5 0.397805 1.5 0 
C 1.5 -0.397805 1.341951 -0.77937 1.06066 -1.06066 
C 0.77937 -1.341951 0.397805 -1.5 0 -1.5 
C -0.397805 -1.5 -0.77937 -1.341951 -1.06066 -1.06066 
C -1.341951 -0.77937 -1.5 -0.397805 -1.5 0 
C -1.5 0.397805 -1.341951 0.77937 -1.06066 1.06066 
C -0.77937 1.341951 -0.397805 1.5 0 1.5 
z
" id="mfee4e2048e" style="stroke:#d8434e;stroke-width:0.5;"/>
    </defs>
    <g clip-path="url(#pe4f80aeff4)">
     <use style="fill:#eba0a6;stroke:#d8434e;stroke-width:0.5;" x="213.312661" xlink:href="#mfee4e2048e" y="61.724627"/>
     <use style="fill:#eba0a6;stroke:#d8434e;stroke-width:0.5;" x="166.527147" xlink:href="#mfee4e2048e" y="102.046494"/>
     <use style="fill:#eba0a6;stroke:#d8434e;stroke-width:0.5;" x="150.25648" xlink:href="#mfee4e2048e" y="112.959413"/>
     <use style="fill:#eba0a6;stroke:#d8434e;stroke-width:0.5;" x="127.89174" xlink:href="#mfee4e2048e" y="120.118192"/>
     <use style="fill:#eba0a6;stroke:#d8434e;stroke-width:0.5;" x="107.567179" xlink:href="#mfee4e2048e" y="113.611245"/>
     <use style="fill:#eba0a6;stroke:#d8434e;stroke-width:0.5;" x="94.965929" xlink:href="#mfee4e2048e" y="104.027656"/>
     <use style="fill:#eba0a6;stroke:#d8434e;stroke-width:0.5;" x="38.807498" xlink:href="#mfee4e2048e" y="20.292406"/>
    </g>
   </g>
   <g id="patch_3">
    <path d="M 29.85942 120.118192 
L 29.85942 3.487401 
" style="fill:none;stroke:#000000;stroke-linecap:square;stroke-linejoin:miter;stroke-width:0.35;"/>
   </g>
   <g id="patch_4">
    <path d="M 225.92406 120.118192 
L 225.92406 3.487401 
" style="fill:none;stroke:#000000;stroke-linecap:square;stroke-linejoin:miter;stroke-width:0.35;"/>
   </g>
   <g id="patch_5">
    <path d="M 29.85942 120.118192 
L 225.92406 120.118192 
" style="fill:none;stroke:#000000;stroke-linecap:square;stroke-linejoin:miter;stroke-width:0.35;"/>
   </g>
   <g id="patch_6">
    <path d="M 29.85942 3.487401 
L 225.92406 3.487401 
" style="fill:none;stroke:#000000;stroke-linecap:square;stroke-linejoin:miter;stroke-width:0.35;"/>
   </g>
   <g id="legend_1">
    <g id="patch_7">
     <path d="M 127.635782 16.287401 
L 147.635782 16.287401 
L 147.635782 10.687401 
L 127.635782 10.687401 
z
" style="fill:#9fa2b2;opacity:0.4;stroke:#9fa2b2;stroke-linejoin:miter;"/>
    </g>
    <g id="text_15">
     <!-- diagonal ensemble -->
     <g transform="translate(151.635782 16.287401)scale(0.08 -0.08)">
      <defs>
       <path d="M 29.203125 67.890625 
L 29.203125 65.296875 
C 35.09375 65.296875 36 64.703125 36 60.046875 
L 36 37.046875 
C 35.59375 37.546875 31.5 44 23.40625 44 
C 13.203125 44 3.296875 34.8125 3.296875 21.5 
C 3.296875 8.265625 12.59375 -1 22.40625 -1 
C 30.90625 -1 35.296875 5.640625 35.796875 6.34375 
L 35.796875 -1 
L 47.90625 -0.203125 
L 47.90625 2.40625 
C 42 2.40625 41.09375 3.015625 41.09375 7.859375 
L 41.09375 69 
z
M 35.796875 11.90625 
C 35.796875 8.875 34 6.140625 31.703125 4.125 
C 28.296875 1.09375 24.90625 0.59375 23 0.59375 
C 20.09375 0.59375 9.703125 2.109375 9.703125 21.390625 
C 9.703125 41.1875 21.296875 42.390625 23.90625 42.390625 
C 28.5 42.390625 32.203125 39.765625 34.5 36.140625 
C 35.796875 34.015625 35.796875 33.703125 35.796875 31.890625 
z
" id="CMR17-100"/>
       <path d="M 15 69 
L 3.09375 67.890625 
L 3.09375 65.296875 
C 9 65.296875 9.90625 64.703125 9.90625 60.046875 
L 9.90625 -0.203125 
L 11.703125 -0.203125 
L 14.59375 6.953125 
C 17.5 2.203125 21.796875 -1 27.59375 -1 
C 37.59375 -1 47.703125 7.859375 47.703125 21.59375 
C 47.703125 34.515625 38.703125 44 28.59375 44 
C 22.40625 44 18 40.671875 15 36.734375 
z
M 15.203125 31.59375 
C 15.203125 33.40625 15.203125 33.703125 16.59375 35.828125 
C 20.5 41.890625 26.09375 42.390625 28 42.390625 
C 31 42.390625 41.296875 40.78125 41.296875 21.6875 
C 41.296875 1.703125 29.5 0.59375 27.09375 0.59375 
C 24 0.59375 19.5 1.796875 16.296875 7.65625 
C 15.203125 9.578125 15.203125 9.78125 15.203125 11.59375 
z
" id="CMR17-98"/>
      </defs>
      <use transform="scale(0.996264)" xlink:href="#CMR17-100"/>
      <use transform="translate(50.89537 0)scale(0.996264)" xlink:href="#CMR17-105"/>
      <use transform="translate(75.766428 0)scale(0.996264)" xlink:href="#CMR17-97"/>
      <use transform="translate(121.456905 0)scale(0.996264)" xlink:href="#CMR17-103"/>
      <use transform="translate(167.147382 0)scale(0.996264)" xlink:href="#CMR17-111"/>
      <use transform="translate(212.83786 0)scale(0.996264)" xlink:href="#CMR17-110"/>
      <use transform="translate(263.733229 0)scale(0.996264)" xlink:href="#CMR17-97"/>
      <use transform="translate(309.423707 0)scale(0.996264)" xlink:href="#CMR17-108"/>
      <use transform="translate(364.370731 0)scale(0.996264)" xlink:href="#CMR17-101"/>
      <use transform="translate(404.856392 0)scale(0.996264)" xlink:href="#CMR17-110"/>
      <use transform="translate(455.751762 0)scale(0.996264)" xlink:href="#CMR17-115"/>
      <use transform="translate(491.553099 0)scale(0.996264)" xlink:href="#CMR17-101"/>
      <use transform="translate(532.03876 0)scale(0.996264)" xlink:href="#CMR17-109"/>
      <use transform="translate(606.355896 0)scale(0.996264)" xlink:href="#CMR17-98"/>
      <use transform="translate(657.251265 0)scale(0.996264)" xlink:href="#CMR17-108"/>
      <use transform="translate(682.122324 0)scale(0.996264)" xlink:href="#CMR17-101"/>
     </g>
    </g>
    <g id="LineCollection_3">
     <path d="M 137.635782 26.639901 
L 137.635782 18.639901 
" style="fill:none;stroke:#5e4fa2;stroke-width:0.5;"/>
    </g>
    <g id="line2d_15"/>
    <g id="line2d_16">
     <g>
      <use style="fill:#aea6d0;stroke:#5e4fa2;stroke-width:0.5;" x="137.635782" xlink:href="#mce97e2655b" y="22.639901"/>
     </g>
    </g>
    <g id="text_16">
     <!-- particle -->
     <g transform="translate(151.635782 25.439901)scale(0.08 -0.08)">
      <defs>
       <path d="M 34.90625 35 
C 33 35 30.203125 35 30.203125 31.484375 
C 30.203125 28.6875 32.5 27.890625 33.796875 27.890625 
C 34.5 27.890625 37.40625 28.1875 37.40625 31.6875 
C 37.40625 38.6875 30.59375 44 22.90625 44 
C 12.296875 44 3.296875 34.390625 3.296875 21.546875 
C 3.296875 8.140625 12.703125 -1 22.90625 -1 
C 35.296875 -1 38.40625 10.5625 38.40625 11.671875 
C 38.40625 12.078125 38.296875 12.375 37.59375 12.375 
C 36.90625 12.375 36.796875 12.28125 36.40625 10.96875 
C 33.796875 2.8125 28.09375 0.796875 23.796875 0.796875 
C 17.40625 0.796875 9.703125 6.734375 9.703125 21.640625 
C 9.703125 36.84375 17.09375 42.1875 23 42.1875 
C 26.90625 42.1875 32.703125 40.34375 34.90625 35 
z
" id="CMR17-99"/>
      </defs>
      <use transform="scale(0.996264)" xlink:href="#CMR17-112"/>
      <use transform="translate(50.89537 0)scale(0.996264)" xlink:href="#CMR17-97"/>
      <use transform="translate(96.585847 0)scale(0.996264)" xlink:href="#CMR17-114"/>
      <use transform="translate(131.866615 0)scale(0.996264)" xlink:href="#CMR17-116"/>
      <use transform="translate(167.147382 0)scale(0.996264)" xlink:href="#CMR17-105"/>
      <use transform="translate(192.018441 0)scale(0.996264)" xlink:href="#CMR17-99"/>
      <use transform="translate(232.504101 0)scale(0.996264)" xlink:href="#CMR17-108"/>
      <use transform="translate(257.37516 0)scale(0.996264)" xlink:href="#CMR17-101"/>
     </g>
    </g>
    <g id="LineCollection_4">
     <path d="M 137.635782 35.792401 
L 137.635782 27.792401 
" style="fill:none;stroke:#d8434e;stroke-width:0.5;"/>
    </g>
    <g id="line2d_17"/>
    <g id="line2d_18">
     <g>
      <use style="fill:#eba0a6;stroke:#d8434e;stroke-width:0.5;" x="137.635782" xlink:href="#mfee4e2048e" y="31.792401"/>
     </g>
    </g>
    <g id="text_17">
     <!-- spatial -->
     <g transform="translate(151.635782 34.592401)scale(0.08 -0.08)">
      <use transform="scale(0.996264)" xlink:href="#CMR17-115"/>
      <use transform="translate(35.801338 0)scale(0.996264)" xlink:href="#CMR17-112"/>
      <use transform="translate(86.696707 0)scale(0.996264)" xlink:href="#CMR17-97"/>
      <use transform="translate(132.387185 0)scale(0.996264)" xlink:href="#CMR17-116"/>
      <use transform="translate(167.667952 0)scale(0.996264)" xlink:href="#CMR17-105"/>
      <use transform="translate(192.539011 0)scale(0.996264)" xlink:href="#CMR17-97"/>
      <use transform="translate(238.229488 0)scale(0.996264)" xlink:href="#CMR17-108"/>
     </g>
    </g>
   </g>
  </g>
 </g>
 <defs>
  <clipPath id="pe4f80aeff4">
   <rect height="116.630791" width="196.06464" x="29.85942" y="3.487401"/>
  </clipPath>
 </defs>
</svg>
