<?xml version="1.0" encoding="utf-8" standalone="no"?>
<!DOCTYPE svg PUBLIC "-//W3C//DTD SVG 1.1//EN"
  "http://www.w3.org/Graphics/SVG/1.1/DTD/svg11.dtd">
<!-- Created with matplotlib (https://matplotlib.org/) -->
<svg height="148.703291pt" version="1.1" viewBox="0 0 233.28714 148.703291" width="233.28714pt" xmlns="http://www.w3.org/2000/svg" xmlns:xlink="http://www.w3.org/1999/xlink">
 <defs>
  <style type="text/css">
*{stroke-linecap:butt;stroke-linejoin:round;}
  </style>
 </defs>
 <g id="figure_1">
  <g id="patch_1">
   <path d="M 0 148.703291 
L 233.28714 148.703291 
L 233.28714 0 
L 0 0 
z
" style="fill:none;"/>
  </g>
  <g id="axes_1">
   <g id="patch_2">
    <path d="M 33.6225 123.110791 
L 229.68714 123.110791 
L 229.68714 6.48 
L 33.6225 6.48 
z
" style="fill:none;"/>
   </g>
   <g id="PolyCollection_1">
    <path clip-path="url(#p3295967d59)" d="M 20.254456 8.700375 
L 20.254456 -34.203531 
L 22.504969 -28.347351 
L 24.755481 -22.602466 
L 27.005994 -16.968348 
L 29.256506 -11.444501 
L 31.507018 -6.030458 
L 33.757531 -0.725781 
L 36.008043 4.469934 
L 38.258556 9.557064 
L 40.509068 14.53595 
L 42.75958 19.406905 
L 45.010093 24.170208 
L 47.260605 28.826105 
L 49.511118 33.374809 
L 51.76163 37.816499 
L 54.012142 42.151316 
L 56.262655 46.379367 
L 58.513167 50.500721 
L 60.76368 54.515408 
L 63.014192 58.423417 
L 65.264704 62.224695 
L 67.515217 65.919145 
L 69.765729 69.506623 
L 72.016241 72.986939 
L 74.266754 76.359847 
L 76.517266 79.625049 
L 78.767779 82.78219 
L 81.018291 85.830849 
L 83.268803 88.77054 
L 85.519316 91.600704 
L 87.769828 94.320704 
L 90.020341 96.929815 
L 92.270853 99.427219 
L 94.521365 101.811991 
L 96.771878 104.083091 
L 99.02239 106.239348 
L 101.272903 108.279442 
L 103.523415 110.201881 
L 105.773927 112.004981 
L 108.02444 113.686826 
L 110.274952 115.245226 
L 112.525465 116.677666 
L 114.775977 117.981225 
L 117.026489 119.152474 
L 119.277002 120.187323 
L 121.527514 121.080788 
L 123.778027 121.826619 
L 126.028539 122.416615 
L 128.279051 122.839198 
L 130.529564 123.075322 
L 132.780076 123.075488 
L 135.030589 122.842948 
L 137.281101 122.432389 
L 139.531613 121.867032 
L 141.782126 121.162131 
L 144.032638 120.329216 
L 146.283151 119.377604 
L 148.533663 118.315133 
L 150.784175 117.148575 
L 153.034688 115.883891 
L 155.2852 114.526403 
L 157.535713 113.080915 
L 159.786225 111.551804 
L 162.036737 109.943083 
L 164.28725 108.258454 
L 166.537762 106.501351 
L 168.788275 104.674972 
L 171.038787 102.782302 
L 173.289299 100.826144 
L 175.539812 98.809131 
L 177.790324 96.733746 
L 180.040837 94.602332 
L 182.291349 92.417109 
L 184.541861 90.180182 
L 186.792374 87.893549 
L 189.042886 85.559109 
L 191.293399 83.178674 
L 193.543911 80.75397 
L 195.794423 78.286644 
L 198.044936 75.778271 
L 200.295448 73.230357 
L 202.54596 70.644345 
L 204.796473 68.021617 
L 207.046985 65.363499 
L 209.297498 62.671262 
L 211.54801 59.946128 
L 213.798522 57.189272 
L 216.049035 54.401822 
L 218.299547 51.584865 
L 220.55006 48.739446 
L 222.800572 45.866574 
L 225.051084 42.967217 
L 227.301597 40.042313 
L 229.552109 37.092764 
L 231.802622 34.119441 
L 234.053134 31.123184 
L 236.303646 28.104807 
L 238.554159 25.065092 
L 240.804671 22.004798 
L 243.055184 18.924658 
L 243.055184 47.339058 
L 243.055184 47.339058 
L 240.804671 49.57916 
L 238.554159 51.804828 
L 236.303646 54.01553 
L 234.053134 56.210714 
L 231.802622 58.389809 
L 229.552109 60.552226 
L 227.301597 62.697353 
L 225.051084 64.824556 
L 222.800572 66.933178 
L 220.55006 69.02254 
L 218.299547 71.091936 
L 216.049035 73.140632 
L 213.798522 75.167868 
L 211.54801 77.172855 
L 209.297498 79.15477 
L 207.046985 81.11276 
L 204.796473 83.045937 
L 202.54596 84.953376 
L 200.295448 86.834112 
L 198.044936 88.68714 
L 195.794423 90.511411 
L 193.543911 92.30583 
L 191.293399 94.069252 
L 189.042886 95.800477 
L 186.792374 97.498251 
L 184.541861 99.161257 
L 182.291349 100.788114 
L 180.040837 102.377366 
L 177.790324 103.927485 
L 175.539812 105.436857 
L 173.289299 106.903775 
L 171.038787 108.326435 
L 168.788275 109.702922 
L 166.537762 111.031199 
L 164.28725 112.309092 
L 162.036737 113.534276 
L 159.786225 114.704255 
L 157.535713 115.816336 
L 155.2852 116.867599 
L 153.034688 117.854864 
L 150.784175 118.774634 
L 148.533663 119.62304 
L 146.283151 120.395746 
L 144.032638 121.087827 
L 141.782126 121.693584 
L 139.531613 122.206239 
L 137.281101 122.617408 
L 135.030589 122.915996 
L 132.780076 123.085116 
L 130.529564 123.084996 
L 128.279051 122.913269 
L 126.028539 122.605936 
L 123.778027 122.176847 
L 121.527514 121.634425 
L 119.277002 120.984632 
L 117.026489 120.232015 
L 114.775977 119.380198 
L 112.525465 118.432155 
L 110.274952 117.39038 
L 108.02444 116.256998 
L 105.773927 115.033839 
L 103.523415 113.722493 
L 101.272903 112.324355 
L 99.02239 110.840651 
L 96.771878 109.272464 
L 94.521365 107.620755 
L 92.270853 105.886375 
L 90.020341 104.070081 
L 87.769828 102.172546 
L 85.519316 100.194364 
L 83.268803 98.136063 
L 81.018291 95.998106 
L 78.767779 93.780899 
L 76.517266 91.484797 
L 74.266754 89.110104 
L 72.016241 86.65708 
L 69.765729 84.125942 
L 67.515217 81.516866 
L 65.264704 78.829994 
L 63.014192 76.065428 
L 60.76368 73.22324 
L 58.513167 70.303467 
L 56.262655 67.306119 
L 54.012142 64.231173 
L 51.76163 61.078578 
L 49.511118 57.848259 
L 47.260605 54.54011 
L 45.010093 51.154003 
L 42.75958 47.689783 
L 40.509068 44.14727 
L 38.258556 40.526262 
L 36.008043 36.826532 
L 33.757531 33.04783 
L 31.507018 29.189883 
L 29.256506 25.252397 
L 27.005994 21.235053 
L 24.755481 17.137513 
L 22.504969 12.959415 
L 20.254456 8.700375 
z
" style="fill:#9fa2b2;fill-opacity:0.4;stroke:#9fa2b2;stroke-opacity:0.4;"/>
   </g>
   <g id="matplotlib.axis_1">
    <g id="xtick_1">
     <g id="line2d_1">
      <defs>
       <path d="M 0 0 
L 0 2 
" id="m1be559c100" style="stroke:#000000;stroke-width:0.35;"/>
      </defs>
      <g>
       <use style="stroke:#000000;stroke-width:0.35;" x="42.534529" xlink:href="#m1be559c100" y="123.110791"/>
      </g>
     </g>
     <g id="text_1">
      <!-- 0.8 -->
      <defs>
       <path d="M 45.203125 34.703125 
Q 45.203125 40.40625 44.546875 45.84375 
Q 43.90625 51.296875 42 55.59375 
Q 40.09375 59.90625 36.640625 62.5 
Q 33.203125 65.09375 27.59375 65.09375 
Q 22.296875 65.09375 18.9375 62.4375 
Q 15.59375 59.796875 13.6875 55.390625 
Q 11.796875 51 11.046875 45.390625 
Q 10.296875 39.796875 10.296875 34 
Q 10.296875 27.203125 11.140625 21.640625 
Q 12 16.09375 14 12.1875 
Q 16 8.296875 19.34375 6.140625 
Q 22.703125 4 27.796875 4 
Q 33.5 4 36.953125 6.796875 
Q 40.40625 9.59375 42.203125 14 
Q 44 18.40625 44.59375 23.90625 
Q 45.203125 29.40625 45.203125 34.703125 
z
M 27.796875 70.5 
Q 33 70.5 36.796875 68.953125 
Q 40.59375 67.40625 43.25 64.703125 
Q 45.90625 62 47.546875 58.390625 
Q 49.203125 54.796875 50.09375 50.75 
Q 51 46.703125 51.296875 42.390625 
Q 51.59375 38.09375 51.59375 34 
Q 51.59375 27 50.59375 20.59375 
Q 49.59375 14.203125 46.9375 9.296875 
Q 44.296875 4.40625 39.6875 1.5 
Q 35.09375 -1.40625 27.796875 -1.40625 
Q 20.5 -1.40625 15.84375 1.5 
Q 11.203125 4.40625 8.546875 9.34375 
Q 5.90625 14.296875 4.90625 20.84375 
Q 3.90625 27.40625 3.90625 34.703125 
Q 3.90625 41.40625 4.796875 47.796875 
Q 5.703125 54.203125 8.25 59.25 
Q 10.796875 64.296875 15.5 67.390625 
Q 20.203125 70.5 27.796875 70.5 
z
" id="Helvetica-Light-48"/>
       <path d="M 10.203125 0 
L 10.203125 8.796875 
L 17.5 8.796875 
L 17.5 0 
z
" id="Helvetica-Light-46"/>
       <path d="M 27.90625 34.5 
Q 24.203125 34.5 21.09375 33.59375 
Q 18 32.703125 15.703125 30.84375 
Q 13.40625 29 12.09375 26.140625 
Q 10.796875 23.296875 10.796875 19.40625 
Q 10.796875 16.09375 12.046875 13.296875 
Q 13.296875 10.5 15.546875 8.453125 
Q 17.796875 6.40625 21.046875 5.203125 
Q 24.296875 4 28.296875 4 
Q 31.796875 4 34.796875 5.140625 
Q 37.796875 6.296875 40.046875 8.390625 
Q 42.296875 10.5 43.546875 13.390625 
Q 44.796875 16.296875 44.796875 19.796875 
Q 44.796875 23.5 43.5 26.25 
Q 42.203125 29 39.890625 30.84375 
Q 37.59375 32.703125 34.5 33.59375 
Q 31.40625 34.5 27.90625 34.5 
z
M 27.59375 65.09375 
Q 24.59375 65.09375 22 64.296875 
Q 19.40625 63.5 17.453125 61.890625 
Q 15.5 60.296875 14.390625 57.890625 
Q 13.296875 55.5 13.296875 52.40625 
Q 13.296875 49.09375 14.546875 46.75 
Q 15.796875 44.40625 17.890625 42.90625 
Q 20 41.40625 22.703125 40.65625 
Q 25.40625 39.90625 28.296875 39.90625 
Q 31.203125 39.90625 33.703125 40.65625 
Q 36.203125 41.40625 38 43.09375 
Q 39.796875 44.796875 40.84375 47.390625 
Q 41.90625 50 41.90625 53.796875 
Q 41.90625 59.203125 38.40625 62.140625 
Q 34.90625 65.09375 27.59375 65.09375 
z
M 16.703125 37.90625 
Q 14.09375 39.5 12.25 40.953125 
Q 10.40625 42.40625 9.203125 44.09375 
Q 8 45.796875 7.453125 47.9375 
Q 6.90625 50.09375 6.90625 53.296875 
Q 6.90625 56.90625 8.5 60.09375 
Q 10.09375 63.296875 12.796875 65.640625 
Q 15.5 68 19.140625 69.296875 
Q 22.796875 70.59375 27 70.5 
Q 31 70.5 34.84375 69.5 
Q 38.703125 68.5 41.703125 66.390625 
Q 44.703125 64.296875 46.5 61.046875 
Q 48.296875 57.796875 48.296875 53.296875 
Q 48.296875 47.796875 46.046875 43.890625 
Q 43.796875 40 38.703125 37.5 
Q 44.5 35.40625 47.84375 30.796875 
Q 51.203125 26.203125 51.203125 20 
Q 51.203125 14.796875 49.453125 10.796875 
Q 47.703125 6.796875 44.453125 4.09375 
Q 41.203125 1.40625 36.59375 0 
Q 32 -1.40625 26.40625 -1.40625 
Q 22.59375 -1.40625 18.640625 -0.09375 
Q 14.703125 1.203125 11.546875 3.796875 
Q 8.40625 6.40625 6.40625 10.296875 
Q 4.40625 14.203125 4.40625 19.40625 
Q 4.40625 25.703125 7.546875 30.640625 
Q 10.703125 35.59375 16.703125 37.90625 
z
" id="Helvetica-Light-56"/>
      </defs>
      <g transform="translate(36.975154 133.870791)scale(0.08 -0.08)">
       <use xlink:href="#Helvetica-Light-48"/>
       <use x="55.599991" xlink:href="#Helvetica-Light-46"/>
       <use x="83.399979" xlink:href="#Helvetica-Light-56"/>
      </g>
     </g>
    </g>
    <g id="xtick_2">
     <g id="line2d_2">
      <g>
       <use style="stroke:#000000;stroke-width:0.35;" x="87.094675" xlink:href="#m1be559c100" y="123.110791"/>
      </g>
     </g>
     <g id="text_2">
      <!-- 0.9 -->
      <defs>
       <path d="M 11.796875 15.5 
Q 12.90625 9.796875 16.25 6.890625 
Q 19.59375 4 25.5 4 
Q 31.796875 4 35.546875 7.09375 
Q 39.296875 10.203125 41.34375 14.890625 
Q 43.40625 19.59375 44.15625 25.046875 
Q 44.90625 30.5 45.09375 35.296875 
L 44.90625 35.5 
Q 41.703125 30.09375 36.953125 27.296875 
Q 32.203125 24.5 25.90625 24.5 
Q 20.90625 24.5 16.90625 26.09375 
Q 12.90625 27.703125 10.046875 30.703125 
Q 7.203125 33.703125 5.640625 37.890625 
Q 4.09375 42.09375 4.09375 47.203125 
Q 4.09375 52.203125 5.5 56.453125 
Q 6.90625 60.703125 9.703125 63.84375 
Q 12.5 67 16.75 68.75 
Q 21 70.5 26.796875 70.5 
Q 33.90625 70.5 38.65625 67.703125 
Q 43.40625 64.90625 46.25 60.09375 
Q 49.09375 55.296875 50.296875 48.796875 
Q 51.5 42.296875 51.5 34.90625 
Q 51.5 25.90625 49.59375 19.15625 
Q 47.703125 12.40625 44.25 7.796875 
Q 40.796875 3.203125 36.09375 0.890625 
Q 31.40625 -1.40625 25.796875 -1.40625 
Q 21.703125 -1.40625 18.09375 -0.40625 
Q 14.5 0.59375 11.796875 2.6875 
Q 9.09375 4.796875 7.390625 8 
Q 5.703125 11.203125 5.296875 15.5 
z
M 26.796875 65.09375 
Q 18.703125 64.90625 14.59375 60.09375 
Q 10.5 55.296875 10.5 47 
Q 10.5 38.90625 14.75 34.40625 
Q 19 29.90625 26.796875 29.90625 
Q 30.5 29.90625 33.453125 31.296875 
Q 36.40625 32.703125 38.453125 35.09375 
Q 40.5 37.5 41.546875 40.640625 
Q 42.59375 43.796875 42.59375 47.40625 
Q 42.59375 55.203125 38.390625 60.046875 
Q 34.203125 64.90625 26.796875 65.09375 
z
" id="Helvetica-Light-57"/>
      </defs>
      <g transform="translate(81.5353 133.870791)scale(0.08 -0.08)">
       <use xlink:href="#Helvetica-Light-48"/>
       <use x="55.599991" xlink:href="#Helvetica-Light-46"/>
       <use x="83.399979" xlink:href="#Helvetica-Light-57"/>
      </g>
     </g>
    </g>
    <g id="xtick_3">
     <g id="line2d_3">
      <g>
       <use style="stroke:#000000;stroke-width:0.35;" x="131.65482" xlink:href="#m1be559c100" y="123.110791"/>
      </g>
     </g>
     <g id="text_3">
      <!-- 1.0 -->
      <defs>
       <path d="M 30.203125 52.40625 
L 12 52.40625 
L 12 56.59375 
Q 16 56.90625 19.25 57.40625 
Q 22.5 57.90625 24.953125 59.296875 
Q 27.40625 60.703125 29.046875 63.34375 
Q 30.703125 66 31.5 70.5 
L 36.59375 70.5 
L 36.59375 0 
L 30.203125 0 
z
" id="Helvetica-Light-49"/>
      </defs>
      <g transform="translate(126.095445 133.870791)scale(0.08 -0.08)">
       <use xlink:href="#Helvetica-Light-49"/>
       <use x="55.599991" xlink:href="#Helvetica-Light-46"/>
       <use x="83.399979" xlink:href="#Helvetica-Light-48"/>
      </g>
     </g>
    </g>
    <g id="xtick_4">
     <g id="line2d_4">
      <g>
       <use style="stroke:#000000;stroke-width:0.35;" x="176.214965" xlink:href="#m1be559c100" y="123.110791"/>
      </g>
     </g>
     <g id="text_4">
      <!-- 1.1 -->
      <g transform="translate(170.65559 133.870791)scale(0.08 -0.08)">
       <use xlink:href="#Helvetica-Light-49"/>
       <use x="55.599991" xlink:href="#Helvetica-Light-46"/>
       <use x="83.399979" xlink:href="#Helvetica-Light-49"/>
      </g>
     </g>
    </g>
    <g id="xtick_5">
     <g id="line2d_5">
      <g>
       <use style="stroke:#000000;stroke-width:0.35;" x="220.775111" xlink:href="#m1be559c100" y="123.110791"/>
      </g>
     </g>
     <g id="text_5">
      <!-- 1.2 -->
      <defs>
       <path d="M 6.90625 47.40625 
Q 6.90625 52.59375 8.5 56.84375 
Q 10.09375 61.09375 13.09375 64.140625 
Q 16.09375 67.203125 20.34375 68.84375 
Q 24.59375 70.5 29.796875 70.5 
Q 35.09375 70.5 39.140625 68.953125 
Q 43.203125 67.40625 45.953125 64.796875 
Q 48.703125 62.203125 50.09375 58.59375 
Q 51.5 55 51.5 51 
Q 51.5 46.296875 49.953125 42.6875 
Q 48.40625 39.09375 45.84375 36.296875 
Q 43.296875 33.5 40.046875 31.296875 
Q 36.796875 29.09375 33.390625 27.140625 
Q 30 25.203125 26.703125 23.390625 
Q 23.40625 21.59375 20.796875 19.59375 
Q 19.09375 18.296875 17.5 16.84375 
Q 15.90625 15.40625 14.59375 13.703125 
Q 13.296875 12 12.5 9.953125 
Q 11.703125 7.90625 11.59375 5.40625 
L 50.90625 5.40625 
L 50.90625 0 
L 4.796875 0 
Q 4.90625 5.09375 5.90625 9.1875 
Q 6.90625 13.296875 10.296875 17.203125 
Q 14 21.40625 17.953125 24.40625 
Q 21.90625 27.40625 25.703125 29.75 
Q 29.5 32.09375 32.890625 34.046875 
Q 36.296875 36 38.890625 38.296875 
Q 41.5 40.59375 43 43.5 
Q 44.5 46.40625 44.5 50.59375 
Q 44.5 54 43.296875 56.703125 
Q 42.09375 59.40625 40 61.296875 
Q 37.90625 63.203125 35.09375 64.140625 
Q 32.296875 65.09375 29 65.09375 
Q 25.5 65.09375 22.640625 63.640625 
Q 19.796875 62.203125 17.75 59.796875 
Q 15.703125 57.40625 14.59375 54.203125 
Q 13.5 51 13.703125 47.40625 
z
" id="Helvetica-Light-50"/>
      </defs>
      <g transform="translate(215.215736 133.870791)scale(0.08 -0.08)">
       <use xlink:href="#Helvetica-Light-49"/>
       <use x="55.599991" xlink:href="#Helvetica-Light-46"/>
       <use x="83.399979" xlink:href="#Helvetica-Light-50"/>
      </g>
     </g>
    </g>
    <g id="text_6">
     <!-- Luttinger Parameter  $K$ -->
     <defs>
      <path d="M 8.09375 0 
L 8.09375 72 
L 14.90625 72 
L 14.90625 5.796875 
L 53.5 5.796875 
L 53.5 0 
z
" id="Helvetica-Light-76"/>
      <path d="M 42.296875 51.796875 
L 48.296875 51.796875 
L 48.296875 0 
L 42.296875 0 
L 42.296875 7.203125 
Q 41.09375 5.796875 39.59375 4.296875 
Q 38.09375 2.796875 36.140625 1.546875 
Q 34.203125 0.296875 31.59375 -0.546875 
Q 29 -1.40625 25.59375 -1.40625 
Q 20.40625 -1.40625 16.90625 0.046875 
Q 13.40625 1.5 11.25 4.09375 
Q 9.09375 6.703125 8.140625 10.140625 
Q 7.203125 13.59375 7.203125 17.703125 
L 7.203125 51.796875 
L 13.203125 51.796875 
L 13.203125 17.796875 
Q 13.203125 11.09375 16.296875 7.546875 
Q 19.40625 4 26.5 4 
Q 30.203125 4 33.140625 5.453125 
Q 36.09375 6.90625 38.09375 9.5 
Q 40.09375 12.09375 41.1875 15.6875 
Q 42.296875 19.296875 42.296875 23.59375 
z
" id="Helvetica-Light-117"/>
      <path d="M 25.40625 -0.203125 
Q 24.296875 -0.40625 22.5 -0.90625 
Q 20.703125 -1.40625 18.5 -1.40625 
Q 14 -1.40625 11.640625 0.84375 
Q 9.296875 3.09375 9.296875 8.90625 
L 9.296875 46.796875 
L 2 46.796875 
L 2 51.796875 
L 9.296875 51.796875 
L 9.296875 66.203125 
L 15.296875 66.203125 
L 15.296875 51.796875 
L 25 51.796875 
L 25 46.796875 
L 15.296875 46.796875 
L 15.296875 11.296875 
Q 15.296875 9.40625 15.390625 8 
Q 15.5 6.59375 16 5.6875 
Q 16.5 4.796875 17.546875 4.390625 
Q 18.59375 4 20.5 4 
Q 21.703125 4 22.953125 4.203125 
Q 24.203125 4.40625 25.40625 4.703125 
z
" id="Helvetica-Light-116"/>
      <path d="M 8.09375 0 
L 8.09375 51.796875 
L 14.09375 51.796875 
L 14.09375 0 
z
M 7.796875 63.09375 
L 7.796875 72 
L 14.40625 72 
L 14.40625 63.09375 
z
" id="Helvetica-Light-105"/>
      <path d="M 13.203125 0 
L 7.203125 0 
L 7.203125 51.796875 
L 13.203125 51.796875 
L 13.203125 44.59375 
Q 16.796875 48.40625 20.640625 50.796875 
Q 24.5 53.203125 29.90625 53.203125 
Q 34.703125 53.203125 38.796875 51.546875 
Q 42.90625 49.90625 45.703125 45.796875 
Q 47.59375 43 47.9375 40.046875 
Q 48.296875 37.09375 48.296875 33.90625 
L 48.296875 0 
L 42.296875 0 
L 42.296875 33.796875 
Q 42.296875 40.796875 39.1875 44.296875 
Q 36.09375 47.796875 28.90625 47.796875 
Q 26.09375 47.796875 23.796875 46.9375 
Q 21.5 46.09375 19.640625 44.6875 
Q 17.796875 43.296875 16.5 41.5 
Q 15.203125 39.703125 14.5 37.703125 
Q 13.59375 35.203125 13.390625 32.890625 
Q 13.203125 30.59375 13.203125 27.90625 
z
" id="Helvetica-Light-110"/>
      <path d="M 47.203125 25.703125 
Q 47.203125 30.40625 46.046875 34.453125 
Q 44.90625 38.5 42.703125 41.453125 
Q 40.5 44.40625 37.203125 46.09375 
Q 33.90625 47.796875 29.703125 47.796875 
Q 25.90625 47.796875 22.703125 46.4375 
Q 19.5 45.09375 17.09375 42.5 
Q 14.703125 39.90625 13.34375 36.15625 
Q 12 32.40625 12 27.5 
Q 11.796875 22.59375 12.796875 18.34375 
Q 13.796875 14.09375 16 10.890625 
Q 18.203125 7.703125 21.59375 5.84375 
Q 25 4 29.703125 4 
Q 33.796875 4 37.046875 5.75 
Q 40.296875 7.5 42.546875 10.453125 
Q 44.796875 13.40625 46 17.34375 
Q 47.203125 21.296875 47.203125 25.703125 
z
M 47.203125 51.796875 
L 53.203125 51.796875 
L 53.203125 5 
Q 53.203125 -0.203125 52.140625 -4.953125 
Q 51.09375 -9.703125 48.390625 -13.296875 
Q 45.703125 -16.90625 41 -19.046875 
Q 36.296875 -21.203125 28.90625 -21.203125 
Q 23.203125 -21.203125 19.09375 -19.75 
Q 15 -18.296875 12.390625 -16.09375 
Q 9.796875 -13.90625 8.4375 -11.25 
Q 7.09375 -8.59375 7 -6.296875 
L 13.40625 -6.296875 
Q 14.09375 -9.203125 15.59375 -11.046875 
Q 17.09375 -12.90625 19.140625 -13.953125 
Q 21.203125 -15 23.703125 -15.390625 
Q 26.203125 -15.796875 28.90625 -15.796875 
Q 35 -15.796875 38.703125 -13.6875 
Q 42.40625 -11.59375 44.296875 -8.1875 
Q 46.203125 -4.796875 46.75 -0.5 
Q 47.296875 3.796875 47.203125 8.296875 
Q 44.296875 3.5 39.25 1.046875 
Q 34.203125 -1.40625 28.703125 -1.40625 
Q 22.796875 -1.40625 18.4375 0.84375 
Q 14.09375 3.09375 11.25 6.84375 
Q 8.40625 10.59375 7 15.59375 
Q 5.59375 20.59375 5.59375 26 
Q 5.59375 31.703125 6.890625 36.703125 
Q 8.203125 41.703125 11.046875 45.34375 
Q 13.90625 49 18.296875 51.09375 
Q 22.703125 53.203125 29 53.203125 
Q 31.5 53.203125 34.09375 52.5 
Q 36.703125 51.796875 39.140625 50.5 
Q 41.59375 49.203125 43.640625 47.203125 
Q 45.703125 45.203125 47 42.703125 
L 47.203125 42.703125 
z
" id="Helvetica-Light-103"/>
      <path d="M 44.703125 29.5 
Q 44.703125 33.296875 43.640625 36.640625 
Q 42.59375 40 40.546875 42.453125 
Q 38.5 44.90625 35.390625 46.34375 
Q 32.296875 47.796875 28.296875 47.796875 
Q 24.296875 47.796875 21.25 46.296875 
Q 18.203125 44.796875 16.046875 42.296875 
Q 13.90625 39.796875 12.59375 36.5 
Q 11.296875 33.203125 10.90625 29.5 
z
M 10.90625 24.5 
Q 10.90625 20.296875 12 16.546875 
Q 13.09375 12.796875 15.25 10.046875 
Q 17.40625 7.296875 20.703125 5.640625 
Q 24 4 28.296875 4 
Q 34.203125 4 38.390625 7.09375 
Q 42.59375 10.203125 44 15.90625 
L 50.703125 15.90625 
Q 49.59375 12.203125 47.796875 9.046875 
Q 46 5.90625 43.296875 3.546875 
Q 40.59375 1.203125 36.890625 -0.09375 
Q 33.203125 -1.40625 28.296875 -1.40625 
Q 22.09375 -1.40625 17.59375 0.6875 
Q 13.09375 2.796875 10.1875 6.4375 
Q 7.296875 10.09375 5.890625 15.046875 
Q 4.5 20 4.5 25.703125 
Q 4.5 31.40625 6.140625 36.40625 
Q 7.796875 41.40625 10.84375 45.15625 
Q 13.90625 48.90625 18.296875 51.046875 
Q 22.703125 53.203125 28.296875 53.203125 
Q 39 53.203125 45.09375 45.84375 
Q 51.203125 38.5 51.09375 24.5 
z
" id="Helvetica-Light-101"/>
      <path d="M 13.5 0 
L 7.5 0 
L 7.5 51.796875 
L 13.5 51.796875 
L 13.5 42.09375 
L 13.703125 42.09375 
Q 16.203125 48.296875 20.140625 50.75 
Q 24.09375 53.203125 30.59375 53.203125 
L 30.59375 46.703125 
Q 25.5 46.796875 22.203125 45.09375 
Q 18.90625 43.40625 16.953125 40.5 
Q 15 37.59375 14.25 33.640625 
Q 13.5 29.703125 13.5 25.40625 
z
" id="Helvetica-Light-114"/>
      <path id="Helvetica-Light-32"/>
      <path d="M 7.796875 0 
L 7.796875 72 
L 34.09375 72 
Q 41.09375 72 45.640625 70.390625 
Q 50.203125 68.796875 52.84375 66 
Q 55.5 63.203125 56.546875 59.546875 
Q 57.59375 55.90625 57.59375 51.90625 
Q 57.59375 45.90625 55.140625 42 
Q 52.703125 38.09375 48.796875 35.84375 
Q 44.90625 33.59375 39.953125 32.6875 
Q 35 31.796875 30 31.796875 
L 14.59375 31.796875 
L 14.59375 0 
z
M 30.203125 37.59375 
Q 35 37.59375 38.796875 38.1875 
Q 42.59375 38.796875 45.25 40.4375 
Q 47.90625 42.09375 49.34375 44.9375 
Q 50.796875 47.796875 50.796875 52.40625 
Q 50.796875 59.203125 46.34375 62.703125 
Q 41.90625 66.203125 32.203125 66.203125 
L 14.59375 66.203125 
L 14.59375 37.59375 
z
" id="Helvetica-Light-80"/>
      <path d="M 41.09375 27.203125 
Q 37.296875 25.59375 33.390625 25.09375 
Q 29.5 24.59375 25.59375 24.296875 
Q 18.703125 23.796875 14.84375 21.1875 
Q 11 18.59375 11 13.296875 
Q 11 10.90625 11.953125 9.15625 
Q 12.90625 7.40625 14.453125 6.25 
Q 16 5.09375 18.046875 4.546875 
Q 20.09375 4 22.203125 4 
Q 25.796875 4 29.1875 4.890625 
Q 32.59375 5.796875 35.25 7.640625 
Q 37.90625 9.5 39.5 12.34375 
Q 41.09375 15.203125 41.09375 19.09375 
z
M 31 30.203125 
Q 32.703125 30.40625 35.046875 30.796875 
Q 37.40625 31.203125 38.90625 31.90625 
Q 40.40625 32.59375 40.75 34.25 
Q 41.09375 35.90625 41.09375 37.296875 
Q 41.09375 41.90625 38.140625 44.84375 
Q 35.203125 47.796875 28.203125 47.796875 
Q 25.09375 47.796875 22.5 47.25 
Q 19.90625 46.703125 17.953125 45.34375 
Q 16 44 14.75 41.75 
Q 13.5 39.5 13.09375 36.09375 
L 7 36.09375 
Q 7.296875 40.703125 9.09375 43.953125 
Q 10.90625 47.203125 13.75 49.25 
Q 16.59375 51.296875 20.34375 52.25 
Q 24.09375 53.203125 28.296875 53.203125 
Q 32.203125 53.203125 35.640625 52.34375 
Q 39.09375 51.5 41.640625 49.640625 
Q 44.203125 47.796875 45.640625 44.6875 
Q 47.09375 41.59375 47.09375 37.09375 
L 47.09375 8.90625 
Q 47.09375 5.40625 48.34375 4.453125 
Q 49.59375 3.5 53.40625 4.90625 
L 53.40625 0.203125 
Q 52.703125 0 51.34375 -0.390625 
Q 50 -0.796875 48.703125 -0.796875 
Q 47.296875 -0.796875 46 -0.5 
Q 44.5 -0.296875 43.59375 0.453125 
Q 42.703125 1.203125 42.140625 2.25 
Q 41.59375 3.296875 41.390625 4.546875 
Q 41.203125 5.796875 41.203125 7.203125 
Q 37.40625 3 32.5 0.796875 
Q 27.59375 -1.40625 21.90625 -1.40625 
Q 18.5 -1.40625 15.34375 -0.5 
Q 12.203125 0.40625 9.796875 2.296875 
Q 7.40625 4.203125 6 6.953125 
Q 4.59375 9.703125 4.59375 13.5 
Q 4.59375 26.703125 22.703125 29.09375 
z
" id="Helvetica-Light-97"/>
      <path d="M 12.40625 0 
L 6.40625 0 
L 6.40625 51.796875 
L 12.40625 51.796875 
L 12.40625 44 
L 12.59375 44 
Q 14.90625 48.5 19.203125 50.84375 
Q 23.5 53.203125 28.59375 53.203125 
Q 32.203125 53.203125 34.703125 52.390625 
Q 37.203125 51.59375 38.953125 50.25 
Q 40.703125 48.90625 41.84375 47.09375 
Q 43 45.296875 43.796875 43.203125 
Q 46.40625 48.296875 50.75 50.75 
Q 55.09375 53.203125 60.703125 53.203125 
Q 66 53.203125 69.140625 51.453125 
Q 72.296875 49.703125 74 46.84375 
Q 75.703125 44 76.25 40.296875 
Q 76.796875 36.59375 76.796875 32.703125 
L 76.796875 0 
L 70.796875 0 
L 70.796875 35.796875 
Q 70.796875 41.40625 68.4375 44.59375 
Q 66.09375 47.796875 59.703125 47.796875 
Q 56.40625 47.796875 53.34375 46.34375 
Q 50.296875 44.90625 48 41.90625 
Q 47 40.59375 46.34375 38.84375 
Q 45.703125 37.09375 45.296875 35.1875 
Q 44.90625 33.296875 44.75 31.390625 
Q 44.59375 29.5 44.59375 27.90625 
L 44.59375 0 
L 38.59375 0 
L 38.59375 35.796875 
Q 38.59375 41.40625 36.25 44.59375 
Q 33.90625 47.796875 27.5 47.796875 
Q 24.203125 47.796875 21.140625 46.34375 
Q 18.09375 44.90625 15.796875 41.90625 
Q 14.796875 40.59375 14.140625 38.84375 
Q 13.5 37.09375 13.09375 35.1875 
Q 12.703125 33.296875 12.546875 31.390625 
Q 12.40625 29.5 12.40625 27.90625 
z
" id="Helvetica-Light-109"/>
      <path d="M 16.890625 72.90625 
L 26.8125 72.90625 
L 20.796875 42.1875 
L 59.078125 72.90625 
L 72.21875 72.90625 
L 28.90625 38.09375 
L 60.59375 0 
L 48.578125 0 
L 19.484375 35.5 
L 12.59375 0 
L 2.6875 0 
z
" id="DejaVuSans-Oblique-75"/>
     </defs>
     <g transform="translate(91.45482 143.343291)scale(0.08 -0.08)">
      <use transform="translate(0 0.09375)" xlink:href="#Helvetica-Light-76"/>
      <use transform="translate(55.599991 0.09375)" xlink:href="#Helvetica-Light-117"/>
      <use transform="translate(111.199982 0.09375)" xlink:href="#Helvetica-Light-116"/>
      <use transform="translate(138.999969 0.09375)" xlink:href="#Helvetica-Light-116"/>
      <use transform="translate(166.799957 0.09375)" xlink:href="#Helvetica-Light-105"/>
      <use transform="translate(188.999954 0.09375)" xlink:href="#Helvetica-Light-110"/>
      <use transform="translate(244.599945 0.09375)" xlink:href="#Helvetica-Light-103"/>
      <use transform="translate(305.699936 0.09375)" xlink:href="#Helvetica-Light-101"/>
      <use transform="translate(361.299927 0.09375)" xlink:href="#Helvetica-Light-114"/>
      <use transform="translate(394.599915 0.09375)" xlink:href="#Helvetica-Light-32"/>
      <use transform="translate(422.399902 0.09375)" xlink:href="#Helvetica-Light-80"/>
      <use transform="translate(483.499893 0.09375)" xlink:href="#Helvetica-Light-97"/>
      <use transform="translate(539.099884 0.09375)" xlink:href="#Helvetica-Light-114"/>
      <use transform="translate(572.399872 0.09375)" xlink:href="#Helvetica-Light-97"/>
      <use transform="translate(627.999863 0.09375)" xlink:href="#Helvetica-Light-109"/>
      <use transform="translate(711.29985 0.09375)" xlink:href="#Helvetica-Light-101"/>
      <use transform="translate(766.899841 0.09375)" xlink:href="#Helvetica-Light-116"/>
      <use transform="translate(794.699829 0.09375)" xlink:href="#Helvetica-Light-101"/>
      <use transform="translate(850.29982 0.09375)" xlink:href="#Helvetica-Light-114"/>
      <use transform="translate(883.599808 0.09375)" xlink:href="#Helvetica-Light-32"/>
      <use transform="translate(911.399796 0.09375)" xlink:href="#Helvetica-Light-32"/>
      <use transform="translate(939.199783 0.09375)" xlink:href="#DejaVuSans-Oblique-75"/>
     </g>
    </g>
   </g>
   <g id="matplotlib.axis_2">
    <g id="ytick_1">
     <g id="line2d_6">
      <defs>
       <path d="M 0 0 
L -2 0 
" id="m839874ee50" style="stroke:#000000;stroke-width:0.35;"/>
      </defs>
      <g>
       <use style="stroke:#000000;stroke-width:0.35;" x="33.6225" xlink:href="#m839874ee50" y="123.110791"/>
      </g>
     </g>
     <g id="text_7">
      <!-- 0.00 -->
      <g transform="translate(13.05625 125.990791)scale(0.08 -0.08)">
       <use xlink:href="#Helvetica-Light-48"/>
       <use x="55.599991" xlink:href="#Helvetica-Light-46"/>
       <use x="83.399979" xlink:href="#Helvetica-Light-48"/>
       <use x="138.999969" xlink:href="#Helvetica-Light-48"/>
      </g>
     </g>
    </g>
    <g id="ytick_2">
     <g id="line2d_7">
      <g>
       <use style="stroke:#000000;stroke-width:0.35;" x="33.6225" xlink:href="#m839874ee50" y="103.672326"/>
      </g>
     </g>
     <g id="text_8">
      <!-- 0.01 -->
      <g transform="translate(13.05625 106.552326)scale(0.08 -0.08)">
       <use xlink:href="#Helvetica-Light-48"/>
       <use x="55.599991" xlink:href="#Helvetica-Light-46"/>
       <use x="83.399979" xlink:href="#Helvetica-Light-48"/>
       <use x="138.999969" xlink:href="#Helvetica-Light-49"/>
      </g>
     </g>
    </g>
    <g id="ytick_3">
     <g id="line2d_8">
      <g>
       <use style="stroke:#000000;stroke-width:0.35;" x="33.6225" xlink:href="#m839874ee50" y="84.233861"/>
      </g>
     </g>
     <g id="text_9">
      <!-- 0.02 -->
      <g transform="translate(13.05625 87.113861)scale(0.08 -0.08)">
       <use xlink:href="#Helvetica-Light-48"/>
       <use x="55.599991" xlink:href="#Helvetica-Light-46"/>
       <use x="83.399979" xlink:href="#Helvetica-Light-48"/>
       <use x="138.999969" xlink:href="#Helvetica-Light-50"/>
      </g>
     </g>
    </g>
    <g id="ytick_4">
     <g id="line2d_9">
      <g>
       <use style="stroke:#000000;stroke-width:0.35;" x="33.6225" xlink:href="#m839874ee50" y="64.795396"/>
      </g>
     </g>
     <g id="text_10">
      <!-- 0.03 -->
      <defs>
       <path d="M 22.09375 39.203125 
Q 26.59375 39.203125 30.296875 39.75 
Q 34 40.296875 36.640625 41.84375 
Q 39.296875 43.40625 40.796875 46 
Q 42.296875 48.59375 42.296875 52.703125 
Q 42.296875 56 41.09375 58.34375 
Q 39.90625 60.703125 37.84375 62.203125 
Q 35.796875 63.703125 33.046875 64.390625 
Q 30.296875 65.09375 27.296875 65.09375 
Q 23.90625 65.09375 21.15625 64 
Q 18.40625 62.90625 16.40625 60.84375 
Q 14.40625 58.796875 13.296875 56.046875 
Q 12.203125 53.296875 12.203125 50 
L 5.796875 50 
Q 5.796875 54.796875 7.4375 58.640625 
Q 9.09375 62.5 12.59375 65.796875 
Q 15.90625 68.796875 20.046875 69.640625 
Q 24.203125 70.5 28.59375 70.5 
Q 32.796875 70.5 36.4375 69.453125 
Q 40.09375 68.40625 42.796875 66.25 
Q 45.5 64.09375 47.09375 60.796875 
Q 48.703125 57.5 48.703125 53.09375 
Q 48.703125 47.59375 46.25 43.59375 
Q 43.796875 39.59375 38.703125 37.40625 
Q 42.5 36.203125 44.953125 34.25 
Q 47.40625 32.296875 48.796875 29.9375 
Q 50.203125 27.59375 50.703125 25 
Q 51.203125 22.40625 51.203125 20 
Q 51.203125 15.59375 49.703125 11.796875 
Q 48.203125 8 45.296875 5.09375 
Q 42.40625 2.203125 38.15625 0.453125 
Q 33.90625 -1.296875 28.5 -1.40625 
Q 22.40625 -1.40625 17.90625 -0.296875 
Q 13.40625 0.796875 10.40625 3.34375 
Q 7.40625 5.90625 5.703125 10.046875 
Q 4 14.203125 3.40625 20.40625 
L 9.796875 20.40625 
Q 9.796875 12.296875 14.640625 8.140625 
Q 19.5 4 27.296875 4 
Q 31.09375 4 34.390625 5.296875 
Q 37.703125 6.59375 40.046875 8.796875 
Q 42.40625 11 43.65625 13.890625 
Q 44.90625 16.796875 44.796875 19.90625 
Q 44.59375 24.203125 42.796875 27.046875 
Q 41 29.90625 37.953125 31.546875 
Q 34.90625 33.203125 30.796875 33.75 
Q 26.703125 34.296875 22.09375 34 
z
" id="Helvetica-Light-51"/>
      </defs>
      <g transform="translate(13.05625 67.675396)scale(0.08 -0.08)">
       <use xlink:href="#Helvetica-Light-48"/>
       <use x="55.599991" xlink:href="#Helvetica-Light-46"/>
       <use x="83.399979" xlink:href="#Helvetica-Light-48"/>
       <use x="138.999969" xlink:href="#Helvetica-Light-51"/>
      </g>
     </g>
    </g>
    <g id="ytick_5">
     <g id="line2d_10">
      <g>
       <use style="stroke:#000000;stroke-width:0.35;" x="33.6225" xlink:href="#m839874ee50" y="45.35693"/>
      </g>
     </g>
     <g id="text_11">
      <!-- 0.04 -->
      <defs>
       <path d="M 35.796875 17.40625 
L 3.59375 17.40625 
L 3.59375 22.90625 
L 36.40625 69.796875 
L 42.203125 69.796875 
L 42.203125 22.796875 
L 52 22.796875 
L 52 17.40625 
L 42.203125 17.40625 
L 42.203125 0 
L 35.796875 0 
z
M 9.90625 22.796875 
L 35.796875 22.796875 
L 35.796875 60.203125 
z
" id="Helvetica-Light-52"/>
      </defs>
      <g transform="translate(13.05625 48.23693)scale(0.08 -0.08)">
       <use xlink:href="#Helvetica-Light-48"/>
       <use x="55.599991" xlink:href="#Helvetica-Light-46"/>
       <use x="83.399979" xlink:href="#Helvetica-Light-48"/>
       <use x="138.999969" xlink:href="#Helvetica-Light-52"/>
      </g>
     </g>
    </g>
    <g id="ytick_6">
     <g id="line2d_11">
      <g>
       <use style="stroke:#000000;stroke-width:0.35;" x="33.6225" xlink:href="#m839874ee50" y="25.918465"/>
      </g>
     </g>
     <g id="text_12">
      <!-- 0.05 -->
      <defs>
       <path d="M 9.90625 18.296875 
Q 10.90625 11.09375 15.65625 7.546875 
Q 20.40625 4 27.296875 4 
Q 31.203125 4 34.34375 5.390625 
Q 37.5 6.796875 39.703125 9.25 
Q 41.90625 11.703125 43.046875 14.953125 
Q 44.203125 18.203125 44.203125 22 
Q 44.203125 25.90625 42.953125 29.203125 
Q 41.703125 32.5 39.453125 34.890625 
Q 37.203125 37.296875 33.953125 38.59375 
Q 30.703125 39.90625 26.703125 39.90625 
Q 21.90625 39.90625 18.09375 38.15625 
Q 14.296875 36.40625 11.40625 32.59375 
L 6.09375 33.296875 
L 11.796875 69.796875 
L 46.796875 69.796875 
L 46.796875 64.40625 
L 17.203125 64.40625 
L 12.796875 40.703125 
Q 14.90625 42 16.65625 42.890625 
Q 18.40625 43.796875 20.203125 44.34375 
Q 22 44.90625 23.953125 45.09375 
Q 25.90625 45.296875 28.296875 45.296875 
Q 33.09375 45.296875 37.1875 43.6875 
Q 41.296875 42.09375 44.296875 39.09375 
Q 47.296875 36.09375 48.9375 31.75 
Q 50.59375 27.40625 50.59375 22 
Q 50.59375 16.40625 48.75 12.046875 
Q 46.90625 7.703125 43.796875 4.703125 
Q 40.703125 1.703125 36.640625 0.140625 
Q 32.59375 -1.40625 28.296875 -1.40625 
Q 23.296875 -1.40625 18.9375 -0.40625 
Q 14.59375 0.59375 11.296875 2.9375 
Q 8 5.296875 5.953125 9.046875 
Q 3.90625 12.796875 3.5 18.296875 
z
" id="Helvetica-Light-53"/>
      </defs>
      <g transform="translate(13.05625 28.798465)scale(0.08 -0.08)">
       <use xlink:href="#Helvetica-Light-48"/>
       <use x="55.599991" xlink:href="#Helvetica-Light-46"/>
       <use x="83.399979" xlink:href="#Helvetica-Light-48"/>
       <use x="138.999969" xlink:href="#Helvetica-Light-53"/>
      </g>
     </g>
    </g>
    <g id="ytick_7">
     <g id="line2d_12">
      <g>
       <use style="stroke:#000000;stroke-width:0.35;" x="33.6225" xlink:href="#m839874ee50" y="6.48"/>
      </g>
     </g>
     <g id="text_13">
      <!-- 0.06 -->
      <defs>
       <path d="M 43.703125 53.203125 
Q 42.59375 58.59375 39.296875 61.84375 
Q 36 65.09375 30.296875 65.09375 
Q 23.796875 65.09375 20.046875 62 
Q 16.296875 58.90625 14.296875 54.15625 
Q 12.296875 49.40625 11.59375 43.796875 
Q 10.90625 38.203125 10.5 33.203125 
Q 12 35.203125 13.640625 37.203125 
Q 15.296875 39.203125 17.390625 40.75 
Q 19.5 42.296875 22.296875 43.25 
Q 25.09375 44.203125 29 44.203125 
Q 39.703125 44.203125 45.546875 38.140625 
Q 51.40625 32.09375 51.40625 21.5 
Q 51.40625 10.796875 45.5 4.6875 
Q 39.59375 -1.40625 28.796875 -1.40625 
Q 23.5 -1.40625 19 0.34375 
Q 14.5 2.09375 11.203125 6.09375 
Q 7.90625 10.09375 6 16.546875 
Q 4.09375 23 4.09375 32.296875 
Q 4.09375 38.59375 5.1875 45.34375 
Q 6.296875 52.09375 9.140625 57.6875 
Q 12 63.296875 16.953125 66.890625 
Q 21.90625 70.5 29.703125 70.5 
Q 38.09375 70.5 43.6875 66.09375 
Q 49.296875 61.703125 50.296875 53.203125 
z
M 28.796875 38.796875 
Q 25.09375 38.796875 22.140625 37.390625 
Q 19.203125 36 17.140625 33.59375 
Q 15.09375 31.203125 14 28.046875 
Q 12.90625 24.90625 12.90625 21.296875 
Q 12.90625 18.296875 13.75 15.25 
Q 14.59375 12.203125 16.546875 9.703125 
Q 18.5 7.203125 21.5 5.59375 
Q 24.5 4 28.90625 4 
Q 33.40625 4 36.453125 5.546875 
Q 39.5 7.09375 41.390625 9.640625 
Q 43.296875 12.203125 44.140625 15.34375 
Q 45 18.5 45 21.703125 
Q 45 29.90625 41.046875 34.34375 
Q 37.09375 38.796875 28.796875 38.796875 
z
" id="Helvetica-Light-54"/>
      </defs>
      <g transform="translate(13.05625 9.36)scale(0.08 -0.08)">
       <use xlink:href="#Helvetica-Light-48"/>
       <use x="55.599991" xlink:href="#Helvetica-Light-46"/>
       <use x="83.399979" xlink:href="#Helvetica-Light-48"/>
       <use x="138.999969" xlink:href="#Helvetica-Light-54"/>
      </g>
     </g>
    </g>
    <g id="text_14">
     <!-- Entanglement Entropy Density -->
     <defs>
      <path d="M 8.09375 0 
L 8.09375 72 
L 56 72 
L 56 66.203125 
L 14.90625 66.203125 
L 14.90625 40.203125 
L 52 40.203125 
L 52 34.40625 
L 14.90625 34.40625 
L 14.90625 5.796875 
L 57 5.796875 
L 57 0 
z
" id="Helvetica-Light-69"/>
      <path d="M 8.09375 0 
L 8.09375 72 
L 14.09375 72 
L 14.09375 0 
z
" id="Helvetica-Light-108"/>
      <path d="M 27.796875 -1.40625 
Q 22.796875 -1.296875 18.4375 0.390625 
Q 14.09375 2.09375 10.84375 5.5 
Q 7.59375 8.90625 5.6875 14 
Q 3.796875 19.09375 3.796875 25.90625 
Q 3.796875 31.59375 5.296875 36.546875 
Q 6.796875 41.5 9.796875 45.203125 
Q 12.796875 48.90625 17.296875 51.046875 
Q 21.796875 53.203125 27.796875 53.203125 
Q 33.90625 53.203125 38.40625 51.046875 
Q 42.90625 48.90625 45.90625 45.25 
Q 48.90625 41.59375 50.34375 36.59375 
Q 51.796875 31.59375 51.796875 25.90625 
Q 51.796875 19.703125 50.09375 14.703125 
Q 48.40625 9.703125 45.25 6.09375 
Q 42.09375 2.5 37.640625 0.546875 
Q 33.203125 -1.40625 27.796875 -1.40625 
z
M 45.40625 25.90625 
Q 45.40625 30.5 44.40625 34.5 
Q 43.40625 38.5 41.296875 41.453125 
Q 39.203125 44.40625 35.890625 46.09375 
Q 32.59375 47.796875 27.796875 47.796875 
Q 23.09375 47.796875 19.75 45.9375 
Q 16.40625 44.09375 14.296875 41.046875 
Q 12.203125 38 11.203125 34.046875 
Q 10.203125 30.09375 10.203125 25.90625 
Q 10.203125 21.09375 11.34375 17.046875 
Q 12.5 13 14.703125 10.09375 
Q 16.90625 7.203125 20.203125 5.59375 
Q 23.5 4 27.796875 4 
Q 32.5 4 35.84375 5.84375 
Q 39.203125 7.703125 41.296875 10.796875 
Q 43.40625 13.90625 44.40625 17.796875 
Q 45.40625 21.703125 45.40625 25.90625 
z
" id="Helvetica-Light-111"/>
      <path d="M 13.90625 25.703125 
Q 13.90625 21.296875 15.09375 17.34375 
Q 16.296875 13.40625 18.546875 10.453125 
Q 20.796875 7.5 24.046875 5.75 
Q 27.296875 4 31.40625 4 
Q 36 4 39.453125 5.84375 
Q 42.90625 7.703125 45.09375 10.890625 
Q 47.296875 14.09375 48.296875 18.34375 
Q 49.296875 22.59375 49.09375 27.5 
Q 49.09375 32.40625 47.75 36.15625 
Q 46.40625 39.90625 44 42.5 
Q 41.59375 45.09375 38.390625 46.4375 
Q 35.203125 47.796875 31.40625 47.796875 
Q 27.203125 47.796875 23.890625 46.09375 
Q 20.59375 44.40625 18.390625 41.453125 
Q 16.203125 38.5 15.046875 34.453125 
Q 13.90625 30.40625 13.90625 25.703125 
z
M 13.90625 -20.40625 
L 7.90625 -20.40625 
L 7.90625 51.796875 
L 13.90625 51.796875 
L 13.90625 42.703125 
L 14.09375 42.703125 
Q 15.40625 45.203125 17.453125 47.203125 
Q 19.5 49.203125 21.953125 50.5 
Q 24.40625 51.796875 27 52.5 
Q 29.59375 53.203125 32.09375 53.203125 
Q 38.40625 53.203125 42.796875 51.09375 
Q 47.203125 49 50.046875 45.34375 
Q 52.90625 41.703125 54.203125 36.703125 
Q 55.5 31.703125 55.5 26 
Q 55.5 20.59375 54.09375 15.59375 
Q 52.703125 10.59375 49.84375 6.84375 
Q 47 3.09375 42.640625 0.84375 
Q 38.296875 -1.40625 32.40625 -1.40625 
Q 26.90625 -1.40625 21.84375 1.046875 
Q 16.796875 3.5 13.90625 8.296875 
z
" id="Helvetica-Light-112"/>
      <path d="M 6.796875 -14.09375 
Q 8 -14.296875 9.25 -14.5 
Q 10.5 -14.703125 11.796875 -14.703125 
Q 14.296875 -14.703125 15.890625 -13.09375 
Q 17.5 -11.5 18.546875 -9.25 
Q 19.59375 -7 20.296875 -4.546875 
Q 21 -2.09375 21.90625 -0.40625 
L 1.796875 51.796875 
L 8.5 51.796875 
L 25.09375 7.296875 
L 41.703125 51.796875 
L 48.203125 51.796875 
L 28.90625 0.703125 
Q 27.09375 -4.203125 25.4375 -8.09375 
Q 23.796875 -12 21.9375 -14.75 
Q 20.09375 -17.5 17.84375 -18.953125 
Q 15.59375 -20.40625 12.5 -20.40625 
Q 10.90625 -20.40625 9.453125 -20.203125 
Q 8 -20 6.796875 -19.703125 
z
" id="Helvetica-Light-121"/>
      <path d="M 8.09375 0 
L 8.09375 72 
L 32.703125 72 
Q 35.703125 72 38.59375 71.84375 
Q 41.5 71.703125 44.296875 71.140625 
Q 47.09375 70.59375 49.75 69.5 
Q 52.40625 68.40625 54.90625 66.59375 
Q 58.5 64 60.796875 60.25 
Q 63.09375 56.5 64.4375 52.34375 
Q 65.796875 48.203125 66.34375 43.953125 
Q 66.90625 39.703125 66.90625 36.09375 
Q 66.90625 32.5 66.453125 28.796875 
Q 66 25.09375 65 21.546875 
Q 64 18 62.34375 14.75 
Q 60.703125 11.5 58.203125 8.796875 
Q 55.703125 6 52.75 4.296875 
Q 49.796875 2.59375 46.546875 1.640625 
Q 43.296875 0.703125 39.796875 0.34375 
Q 36.296875 0 32.703125 0 
z
M 14.90625 5.796875 
L 31.203125 5.796875 
Q 35.796875 5.796875 39.84375 6.34375 
Q 43.90625 6.90625 48.09375 9.09375 
Q 51.703125 10.90625 54 14 
Q 56.296875 17.09375 57.640625 20.75 
Q 59 24.40625 59.546875 28.40625 
Q 60.09375 32.40625 60.09375 36.09375 
Q 60.09375 40 59.59375 44.046875 
Q 59.09375 48.09375 57.6875 51.75 
Q 56.296875 55.40625 53.890625 58.453125 
Q 51.5 61.5 47.703125 63.5 
Q 44.5 65.203125 40.09375 65.703125 
Q 35.703125 66.203125 31.203125 66.203125 
L 14.90625 66.203125 
z
" id="Helvetica-Light-68"/>
      <path d="M 10.703125 16.203125 
Q 12.09375 9.5 15.75 6.75 
Q 19.40625 4 26.203125 4 
Q 29.5 4 31.890625 4.796875 
Q 34.296875 5.59375 35.84375 6.9375 
Q 37.40625 8.296875 38.203125 10 
Q 39 11.703125 39 13.59375 
Q 39 17.40625 36.546875 19.25 
Q 34.09375 21.09375 30.390625 22.140625 
Q 26.703125 23.203125 22.390625 23.953125 
Q 18.09375 24.703125 14.390625 26.203125 
Q 10.703125 27.703125 8.25 30.5 
Q 5.796875 33.296875 5.796875 38.40625 
Q 5.796875 44.90625 10.546875 49.046875 
Q 15.296875 53.203125 24 53.203125 
Q 32.40625 53.203125 37.65625 49.453125 
Q 42.90625 45.703125 44 36.90625 
L 37.90625 36.90625 
Q 37.09375 42.90625 33.34375 45.34375 
Q 29.59375 47.796875 23.90625 47.796875 
Q 18.203125 47.796875 15.203125 45.34375 
Q 12.203125 42.90625 12.203125 38.90625 
Q 12.203125 35.40625 14.640625 33.546875 
Q 17.09375 31.703125 20.796875 30.546875 
Q 24.5 29.40625 28.796875 28.5 
Q 33.09375 27.59375 36.796875 25.9375 
Q 40.5 24.296875 42.953125 21.5 
Q 45.40625 18.703125 45.40625 13.703125 
Q 45.40625 10 43.796875 7.140625 
Q 42.203125 4.296875 39.390625 2.390625 
Q 36.59375 0.5 32.75 -0.453125 
Q 28.90625 -1.40625 24.296875 -1.40625 
Q 19.703125 -1.40625 16.140625 -0.046875 
Q 12.59375 1.296875 10.09375 3.6875 
Q 7.59375 6.09375 6.1875 9.296875 
Q 4.796875 12.5 4.59375 16.203125 
z
" id="Helvetica-Light-115"/>
     </defs>
     <g transform="translate(9.36 118.806646)rotate(-90)scale(0.08 -0.08)">
      <use xlink:href="#Helvetica-Light-69"/>
      <use x="61.099991" xlink:href="#Helvetica-Light-110"/>
      <use x="116.699982" xlink:href="#Helvetica-Light-116"/>
      <use x="144.499969" xlink:href="#Helvetica-Light-97"/>
      <use x="200.09996" xlink:href="#Helvetica-Light-110"/>
      <use x="255.699951" xlink:href="#Helvetica-Light-103"/>
      <use x="316.799942" xlink:href="#Helvetica-Light-108"/>
      <use x="338.999939" xlink:href="#Helvetica-Light-101"/>
      <use x="394.59993" xlink:href="#Helvetica-Light-109"/>
      <use x="477.899918" xlink:href="#Helvetica-Light-101"/>
      <use x="533.499908" xlink:href="#Helvetica-Light-110"/>
      <use x="589.099899" xlink:href="#Helvetica-Light-116"/>
      <use x="616.899887" xlink:href="#Helvetica-Light-32"/>
      <use x="644.699875" xlink:href="#Helvetica-Light-69"/>
      <use x="705.799866" xlink:href="#Helvetica-Light-110"/>
      <use x="761.399857" xlink:href="#Helvetica-Light-116"/>
      <use x="789.199844" xlink:href="#Helvetica-Light-114"/>
      <use x="822.484207" xlink:href="#Helvetica-Light-111"/>
      <use x="878.084198" xlink:href="#Helvetica-Light-112"/>
      <use x="939.184189" xlink:href="#Helvetica-Light-121"/>
      <use x="989.184174" xlink:href="#Helvetica-Light-32"/>
      <use x="1016.984161" xlink:href="#Helvetica-Light-68"/>
      <use x="1089.184143" xlink:href="#Helvetica-Light-101"/>
      <use x="1144.784134" xlink:href="#Helvetica-Light-110"/>
      <use x="1200.384125" xlink:href="#Helvetica-Light-115"/>
      <use x="1250.384109" xlink:href="#Helvetica-Light-105"/>
      <use x="1272.584106" xlink:href="#Helvetica-Light-116"/>
      <use x="1300.384094" xlink:href="#Helvetica-Light-121"/>
     </g>
    </g>
   </g>
   <g id="LineCollection_1">
    <path clip-path="url(#p3295967d59)" d="M 217.075741 61.900133 
L 217.075741 59.628036 
" style="fill:none;stroke:#5e4fa2;stroke-width:0.5;"/>
    <path clip-path="url(#p3295967d59)" d="M 170.290227 105.182107 
L 170.290227 104.868883 
" style="fill:none;stroke:#5e4fa2;stroke-width:0.5;"/>
    <path clip-path="url(#p3295967d59)" d="M 154.01956 115.916587 
L 154.01956 115.749773 
" style="fill:none;stroke:#5e4fa2;stroke-width:0.5;"/>
    <path clip-path="url(#p3295967d59)" d="M 131.65482 123.110791 
L 131.65482 123.110791 
" style="fill:none;stroke:#5e4fa2;stroke-width:0.5;"/>
    <path clip-path="url(#p3295967d59)" d="M 111.330259 116.362686 
L 111.330259 116.235761 
" style="fill:none;stroke:#5e4fa2;stroke-width:0.5;"/>
    <path clip-path="url(#p3295967d59)" d="M 98.729009 106.990279 
L 98.729009 106.783824 
" style="fill:none;stroke:#5e4fa2;stroke-width:0.5;"/>
    <path clip-path="url(#p3295967d59)" d="M 42.570578 25.66083 
L 42.570578 25.231586 
" style="fill:none;stroke:#5e4fa2;stroke-width:0.5;"/>
   </g>
   <g id="LineCollection_2">
    <path clip-path="url(#p3295967d59)" d="M 217.075741 65.856246 
L 217.075741 63.578207 
" style="fill:none;stroke:#d8434e;stroke-width:0.5;"/>
    <path clip-path="url(#p3295967d59)" d="M 170.290227 105.409687 
L 170.290227 104.6685 
" style="fill:none;stroke:#d8434e;stroke-width:0.5;"/>
    <path clip-path="url(#p3295967d59)" d="M 154.01956 116.082095 
L 154.01956 115.82193 
" style="fill:none;stroke:#d8434e;stroke-width:0.5;"/>
    <path clip-path="url(#p3295967d59)" d="M 131.65482 123.110791 
L 131.65482 123.110791 
" style="fill:none;stroke:#d8434e;stroke-width:0.5;"/>
    <path clip-path="url(#p3295967d59)" d="M 111.330259 116.737626 
L 111.330259 116.470062 
" style="fill:none;stroke:#d8434e;stroke-width:0.5;"/>
    <path clip-path="url(#p3295967d59)" d="M 98.729009 107.340858 
L 98.729009 106.699652 
" style="fill:none;stroke:#d8434e;stroke-width:0.5;"/>
    <path clip-path="url(#p3295967d59)" d="M 42.570578 24.816921 
L 42.570578 21.753089 
" style="fill:none;stroke:#d8434e;stroke-width:0.5;"/>
   </g>
   <g id="line2d_13">
    <defs>
     <path d="M 0 1.5 
C 0.397805 1.5 0.77937 1.341951 1.06066 1.06066 
C 1.341951 0.77937 1.5 0.397805 1.5 0 
C 1.5 -0.397805 1.341951 -0.77937 1.06066 -1.06066 
C 0.77937 -1.341951 0.397805 -1.5 0 -1.5 
C -0.397805 -1.5 -0.77937 -1.341951 -1.06066 -1.06066 
C -1.341951 -0.77937 -1.5 -0.397805 -1.5 0 
C -1.5 0.397805 -1.341951 0.77937 -1.06066 1.06066 
C -0.77937 1.341951 -0.397805 1.5 0 1.5 
z
" id="m4607af8fed" style="stroke:#5e4fa2;stroke-width:0.5;"/>
    </defs>
    <g clip-path="url(#p3295967d59)">
     <use style="fill:#aea6d0;stroke:#5e4fa2;stroke-width:0.5;" x="217.075741" xlink:href="#m4607af8fed" y="60.764084"/>
     <use style="fill:#aea6d0;stroke:#5e4fa2;stroke-width:0.5;" x="170.290227" xlink:href="#m4607af8fed" y="105.025495"/>
     <use style="fill:#aea6d0;stroke:#5e4fa2;stroke-width:0.5;" x="154.01956" xlink:href="#m4607af8fed" y="115.83318"/>
     <use style="fill:#aea6d0;stroke:#5e4fa2;stroke-width:0.5;" x="131.65482" xlink:href="#m4607af8fed" y="123.110791"/>
     <use style="fill:#aea6d0;stroke:#5e4fa2;stroke-width:0.5;" x="111.330259" xlink:href="#m4607af8fed" y="116.299223"/>
     <use style="fill:#aea6d0;stroke:#5e4fa2;stroke-width:0.5;" x="98.729009" xlink:href="#m4607af8fed" y="106.887051"/>
     <use style="fill:#aea6d0;stroke:#5e4fa2;stroke-width:0.5;" x="42.570578" xlink:href="#m4607af8fed" y="25.446208"/>
    </g>
   </g>
   <g id="line2d_14">
    <defs>
     <path d="M 0 1.5 
C 0.397805 1.5 0.77937 1.341951 1.06066 1.06066 
C 1.341951 0.77937 1.5 0.397805 1.5 0 
C 1.5 -0.397805 1.341951 -0.77937 1.06066 -1.06066 
C 0.77937 -1.341951 0.397805 -1.5 0 -1.5 
C -0.397805 -1.5 -0.77937 -1.341951 -1.06066 -1.06066 
C -1.341951 -0.77937 -1.5 -0.397805 -1.5 0 
C -1.5 0.397805 -1.341951 0.77937 -1.06066 1.06066 
C -0.77937 1.341951 -0.397805 1.5 0 1.5 
z
" id="m666887c9b1" style="stroke:#d8434e;stroke-width:0.5;"/>
    </defs>
    <g clip-path="url(#p3295967d59)">
     <use style="fill:#eba0a6;stroke:#d8434e;stroke-width:0.5;" x="217.075741" xlink:href="#m666887c9b1" y="64.717226"/>
     <use style="fill:#eba0a6;stroke:#d8434e;stroke-width:0.5;" x="170.290227" xlink:href="#m666887c9b1" y="105.039093"/>
     <use style="fill:#eba0a6;stroke:#d8434e;stroke-width:0.5;" x="154.01956" xlink:href="#m666887c9b1" y="115.952012"/>
     <use style="fill:#eba0a6;stroke:#d8434e;stroke-width:0.5;" x="131.65482" xlink:href="#m666887c9b1" y="123.110791"/>
     <use style="fill:#eba0a6;stroke:#d8434e;stroke-width:0.5;" x="111.330259" xlink:href="#m666887c9b1" y="116.603844"/>
     <use style="fill:#eba0a6;stroke:#d8434e;stroke-width:0.5;" x="98.729009" xlink:href="#m666887c9b1" y="107.020255"/>
     <use style="fill:#eba0a6;stroke:#d8434e;stroke-width:0.5;" x="42.570578" xlink:href="#m666887c9b1" y="23.285005"/>
    </g>
   </g>
   <g id="patch_3">
    <path d="M 33.6225 123.110791 
L 33.6225 6.48 
" style="fill:none;stroke:#000000;stroke-linecap:square;stroke-linejoin:miter;stroke-width:0.35;"/>
   </g>
   <g id="patch_4">
    <path d="M 229.68714 123.110791 
L 229.68714 6.48 
" style="fill:none;stroke:#000000;stroke-linecap:square;stroke-linejoin:miter;stroke-width:0.35;"/>
   </g>
   <g id="patch_5">
    <path d="M 33.6225 123.110791 
L 229.68714 123.110791 
" style="fill:none;stroke:#000000;stroke-linecap:square;stroke-linejoin:miter;stroke-width:0.35;"/>
   </g>
   <g id="patch_6">
    <path d="M 33.6225 6.48 
L 229.68714 6.48 
" style="fill:none;stroke:#000000;stroke-linecap:square;stroke-linejoin:miter;stroke-width:0.35;"/>
   </g>
   <g id="legend_1">
    <g id="patch_7">
     <path d="M 127.62839 19.44 
L 147.62839 19.44 
L 147.62839 13.84 
L 127.62839 13.84 
z
" style="fill:#9fa2b2;opacity:0.4;stroke:#9fa2b2;stroke-linejoin:miter;"/>
    </g>
    <g id="text_15">
     <!-- diagonal ensemble -->
     <defs>
      <path d="M 47.203125 26.09375 
Q 47.203125 30.5 46 34.453125 
Q 44.796875 38.40625 42.546875 41.34375 
Q 40.296875 44.296875 37.046875 46.046875 
Q 33.796875 47.796875 29.703125 47.796875 
Q 25 47.796875 21.59375 45.9375 
Q 18.203125 44.09375 16 40.890625 
Q 13.796875 37.703125 12.796875 33.453125 
Q 11.796875 29.203125 12 24.296875 
Q 12 19.40625 13.34375 15.65625 
Q 14.703125 11.90625 17.09375 9.296875 
Q 19.5 6.703125 22.703125 5.34375 
Q 25.90625 4 29.703125 4 
Q 33.90625 4 37.203125 5.703125 
Q 40.5 7.40625 42.703125 10.34375 
Q 44.90625 13.296875 46.046875 17.34375 
Q 47.203125 21.40625 47.203125 26.09375 
z
M 47.203125 72 
L 53.203125 72 
L 53.203125 0 
L 47.203125 0 
L 47.203125 9.09375 
L 47 9.09375 
Q 45.703125 6.5 43.640625 4.546875 
Q 41.59375 2.59375 39.140625 1.296875 
Q 36.703125 0 34.09375 -0.703125 
Q 31.5 -1.40625 29 -1.40625 
Q 22.703125 -1.40625 18.296875 0.6875 
Q 13.90625 2.796875 11.046875 6.4375 
Q 8.203125 10.09375 6.890625 15.09375 
Q 5.59375 20.09375 5.59375 25.796875 
Q 5.59375 31.203125 7 36.203125 
Q 8.40625 41.203125 11.25 44.953125 
Q 14.09375 48.703125 18.4375 50.953125 
Q 22.796875 53.203125 28.703125 53.203125 
Q 34.203125 53.203125 39.25 50.75 
Q 44.296875 48.296875 47.203125 43.5 
z
" id="Helvetica-Light-100"/>
      <path d="M 13.90625 26.09375 
Q 13.90625 21.40625 15.046875 17.34375 
Q 16.203125 13.296875 18.390625 10.34375 
Q 20.59375 7.40625 23.890625 5.703125 
Q 27.203125 4 31.40625 4 
Q 35.203125 4 38.390625 5.34375 
Q 41.59375 6.703125 44 9.296875 
Q 46.40625 11.90625 47.75 15.65625 
Q 49.09375 19.40625 49.09375 24.296875 
Q 49.296875 29.203125 48.296875 33.453125 
Q 47.296875 37.703125 45.09375 40.890625 
Q 42.90625 44.09375 39.453125 45.9375 
Q 36 47.796875 31.40625 47.796875 
Q 27.296875 47.796875 24.046875 46.046875 
Q 20.796875 44.296875 18.546875 41.34375 
Q 16.296875 38.40625 15.09375 34.453125 
Q 13.90625 30.5 13.90625 26.09375 
z
M 13.90625 0 
L 7.90625 0 
L 7.90625 72 
L 13.90625 72 
L 13.90625 43.5 
Q 16.796875 48.296875 21.84375 50.75 
Q 26.90625 53.203125 32.40625 53.203125 
Q 38.296875 53.203125 42.640625 50.953125 
Q 47 48.703125 49.84375 44.953125 
Q 52.703125 41.203125 54.09375 36.203125 
Q 55.5 31.203125 55.5 25.796875 
Q 55.5 20.09375 54.203125 15.09375 
Q 52.90625 10.09375 50.046875 6.4375 
Q 47.203125 2.796875 42.796875 0.6875 
Q 38.40625 -1.40625 32.09375 -1.40625 
Q 29.59375 -1.40625 27 -0.703125 
Q 24.40625 0 21.953125 1.296875 
Q 19.5 2.59375 17.453125 4.546875 
Q 15.40625 6.5 14.09375 9.09375 
L 13.90625 9.09375 
z
" id="Helvetica-Light-98"/>
     </defs>
     <g transform="translate(154.02839 19.44)scale(0.08 -0.08)">
      <use xlink:href="#Helvetica-Light-100"/>
      <use x="61.099991" xlink:href="#Helvetica-Light-105"/>
      <use x="83.299988" xlink:href="#Helvetica-Light-97"/>
      <use x="138.899979" xlink:href="#Helvetica-Light-103"/>
      <use x="199.999969" xlink:href="#Helvetica-Light-111"/>
      <use x="255.59996" xlink:href="#Helvetica-Light-110"/>
      <use x="311.199951" xlink:href="#Helvetica-Light-97"/>
      <use x="366.799942" xlink:href="#Helvetica-Light-108"/>
      <use x="388.999939" xlink:href="#Helvetica-Light-32"/>
      <use x="416.799927" xlink:href="#Helvetica-Light-101"/>
      <use x="472.399918" xlink:href="#Helvetica-Light-110"/>
      <use x="527.999908" xlink:href="#Helvetica-Light-115"/>
      <use x="577.999893" xlink:href="#Helvetica-Light-101"/>
      <use x="633.599884" xlink:href="#Helvetica-Light-109"/>
      <use x="716.899872" xlink:href="#Helvetica-Light-98"/>
      <use x="777.999863" xlink:href="#Helvetica-Light-108"/>
      <use x="800.19986" xlink:href="#Helvetica-Light-101"/>
     </g>
    </g>
    <g id="LineCollection_3">
     <path d="M 137.62839 32.09625 
L 137.62839 24.09625 
" style="fill:none;stroke:#5e4fa2;stroke-width:0.5;"/>
    </g>
    <g id="line2d_15"/>
    <g id="line2d_16">
     <g>
      <use style="fill:#aea6d0;stroke:#5e4fa2;stroke-width:0.5;" x="137.62839" xlink:href="#m4607af8fed" y="28.09625"/>
     </g>
    </g>
    <g id="text_16">
     <!-- particle -->
     <defs>
      <path d="M 43.90625 35.5 
Q 42.296875 41.296875 38.390625 44.546875 
Q 34.5 47.796875 28.5 47.796875 
Q 23.90625 47.796875 20.59375 45.890625 
Q 17.296875 44 15.1875 40.84375 
Q 13.09375 37.703125 12.09375 33.75 
Q 11.09375 29.796875 11.09375 25.796875 
Q 11.09375 21.703125 12.046875 17.796875 
Q 13 13.90625 15.09375 10.796875 
Q 17.203125 7.703125 20.5 5.84375 
Q 23.796875 4 28.5 4 
Q 35.203125 4 39.25 7.703125 
Q 43.296875 11.40625 44.40625 17.90625 
L 50.796875 17.90625 
Q 50 13.59375 48.25 10.046875 
Q 46.5 6.5 43.75 3.953125 
Q 41 1.40625 37.203125 0 
Q 33.40625 -1.40625 28.5 -1.40625 
Q 22.296875 -1.40625 17.796875 0.6875 
Q 13.296875 2.796875 10.390625 6.4375 
Q 7.5 10.09375 6.09375 15.09375 
Q 4.703125 20.09375 4.703125 25.796875 
Q 4.703125 31.203125 6.25 36.140625 
Q 7.796875 41.09375 10.796875 44.890625 
Q 13.796875 48.703125 18.25 50.953125 
Q 22.703125 53.203125 28.5 53.203125 
Q 37.5 53.203125 43.046875 48.890625 
Q 48.59375 44.59375 50 35.5 
z
" id="Helvetica-Light-99"/>
     </defs>
     <g transform="translate(154.02839 30.89625)scale(0.08 -0.08)">
      <use xlink:href="#Helvetica-Light-112"/>
      <use x="61.099991" xlink:href="#Helvetica-Light-97"/>
      <use x="116.699982" xlink:href="#Helvetica-Light-114"/>
      <use x="150.015594" xlink:href="#Helvetica-Light-116"/>
      <use x="177.815582" xlink:href="#Helvetica-Light-105"/>
      <use x="200.015579" xlink:href="#Helvetica-Light-99"/>
      <use x="255.61557" xlink:href="#Helvetica-Light-108"/>
      <use x="277.815567" xlink:href="#Helvetica-Light-101"/>
     </g>
    </g>
    <g id="LineCollection_4">
     <path d="M 137.62839 43.48875 
L 137.62839 35.48875 
" style="fill:none;stroke:#d8434e;stroke-width:0.5;"/>
    </g>
    <g id="line2d_17"/>
    <g id="line2d_18">
     <g>
      <use style="fill:#eba0a6;stroke:#d8434e;stroke-width:0.5;" x="137.62839" xlink:href="#m666887c9b1" y="39.48875"/>
     </g>
    </g>
    <g id="text_17">
     <!-- spatial -->
     <g transform="translate(154.02839 42.28875)scale(0.08 -0.08)">
      <use xlink:href="#Helvetica-Light-115"/>
      <use x="49.999985" xlink:href="#Helvetica-Light-112"/>
      <use x="111.099976" xlink:href="#Helvetica-Light-97"/>
      <use x="166.699966" xlink:href="#Helvetica-Light-116"/>
      <use x="194.499954" xlink:href="#Helvetica-Light-105"/>
      <use x="216.699951" xlink:href="#Helvetica-Light-97"/>
      <use x="272.299942" xlink:href="#Helvetica-Light-108"/>
     </g>
    </g>
   </g>
  </g>
 </g>
 <defs>
  <clipPath id="p3295967d59">
   <rect height="116.630791" width="196.06464" x="33.6225" y="6.48"/>
  </clipPath>
 </defs>
</svg>
