<?xml version="1.0" encoding="utf-8" standalone="no"?>
<!DOCTYPE svg PUBLIC "-//W3C//DTD SVG 1.1//EN"
  "http://www.w3.org/Graphics/SVG/1.1/DTD/svg11.dtd">
<!-- Created with matplotlib (https://matplotlib.org/) -->
<svg height="139.983291pt" version="1.1" viewBox="0 0 241.41489 139.983291" width="241.41489pt" xmlns="http://www.w3.org/2000/svg" xmlns:xlink="http://www.w3.org/1999/xlink">
 <defs>
  <style type="text/css">
*{stroke-linecap:butt;stroke-linejoin:round;}
  </style>
 </defs>
 <g id="figure_1">
  <g id="patch_1">
   <path d="M -0 139.983291 
L 241.41489 139.983291 
L 241.41489 0 
L -0 0 
z
" style="fill:none;"/>
  </g>
  <g id="axes_1">
   <g id="patch_2">
    <path d="M 44.63025 117.350791 
L 240.69489 117.350791 
L 240.69489 0.72 
L 44.63025 0.72 
z
" style="fill:none;"/>
   </g>
   <g id="matplotlib.axis_1">
    <g id="xtick_1">
     <g id="line2d_1">
      <defs>
       <path d="M 0 0 
L 0 2 
" id="mc399af844a" style="stroke:#000000;stroke-width:0.35;"/>
      </defs>
      <g>
       <use style="stroke:#000000;stroke-width:0.35;" x="65.774476" xlink:href="#mc399af844a" y="117.350791"/>
      </g>
     </g>
     <g id="text_1">
      <!-- 0.8 -->
      <defs>
       <path d="M 45.203125 34.703125 
Q 45.203125 40.40625 44.546875 45.84375 
Q 43.90625 51.296875 42 55.59375 
Q 40.09375 59.90625 36.640625 62.5 
Q 33.203125 65.09375 27.59375 65.09375 
Q 22.296875 65.09375 18.9375 62.4375 
Q 15.59375 59.796875 13.6875 55.390625 
Q 11.796875 51 11.046875 45.390625 
Q 10.296875 39.796875 10.296875 34 
Q 10.296875 27.203125 11.140625 21.640625 
Q 12 16.09375 14 12.1875 
Q 16 8.296875 19.34375 6.140625 
Q 22.703125 4 27.796875 4 
Q 33.5 4 36.953125 6.796875 
Q 40.40625 9.59375 42.203125 14 
Q 44 18.40625 44.59375 23.90625 
Q 45.203125 29.40625 45.203125 34.703125 
z
M 27.796875 70.5 
Q 33 70.5 36.796875 68.953125 
Q 40.59375 67.40625 43.25 64.703125 
Q 45.90625 62 47.546875 58.390625 
Q 49.203125 54.796875 50.09375 50.75 
Q 51 46.703125 51.296875 42.390625 
Q 51.59375 38.09375 51.59375 34 
Q 51.59375 27 50.59375 20.59375 
Q 49.59375 14.203125 46.9375 9.296875 
Q 44.296875 4.40625 39.6875 1.5 
Q 35.09375 -1.40625 27.796875 -1.40625 
Q 20.5 -1.40625 15.84375 1.5 
Q 11.203125 4.40625 8.546875 9.34375 
Q 5.90625 14.296875 4.90625 20.84375 
Q 3.90625 27.40625 3.90625 34.703125 
Q 3.90625 41.40625 4.796875 47.796875 
Q 5.703125 54.203125 8.25 59.25 
Q 10.796875 64.296875 15.5 67.390625 
Q 20.203125 70.5 27.796875 70.5 
z
" id="Helvetica-Light-48"/>
       <path d="M 10.203125 0 
L 10.203125 8.796875 
L 17.5 8.796875 
L 17.5 0 
z
" id="Helvetica-Light-46"/>
       <path d="M 27.90625 34.5 
Q 24.203125 34.5 21.09375 33.59375 
Q 18 32.703125 15.703125 30.84375 
Q 13.40625 29 12.09375 26.140625 
Q 10.796875 23.296875 10.796875 19.40625 
Q 10.796875 16.09375 12.046875 13.296875 
Q 13.296875 10.5 15.546875 8.453125 
Q 17.796875 6.40625 21.046875 5.203125 
Q 24.296875 4 28.296875 4 
Q 31.796875 4 34.796875 5.140625 
Q 37.796875 6.296875 40.046875 8.390625 
Q 42.296875 10.5 43.546875 13.390625 
Q 44.796875 16.296875 44.796875 19.796875 
Q 44.796875 23.5 43.5 26.25 
Q 42.203125 29 39.890625 30.84375 
Q 37.59375 32.703125 34.5 33.59375 
Q 31.40625 34.5 27.90625 34.5 
z
M 27.59375 65.09375 
Q 24.59375 65.09375 22 64.296875 
Q 19.40625 63.5 17.453125 61.890625 
Q 15.5 60.296875 14.390625 57.890625 
Q 13.296875 55.5 13.296875 52.40625 
Q 13.296875 49.09375 14.546875 46.75 
Q 15.796875 44.40625 17.890625 42.90625 
Q 20 41.40625 22.703125 40.65625 
Q 25.40625 39.90625 28.296875 39.90625 
Q 31.203125 39.90625 33.703125 40.65625 
Q 36.203125 41.40625 38 43.09375 
Q 39.796875 44.796875 40.84375 47.390625 
Q 41.90625 50 41.90625 53.796875 
Q 41.90625 59.203125 38.40625 62.140625 
Q 34.90625 65.09375 27.59375 65.09375 
z
M 16.703125 37.90625 
Q 14.09375 39.5 12.25 40.953125 
Q 10.40625 42.40625 9.203125 44.09375 
Q 8 45.796875 7.453125 47.9375 
Q 6.90625 50.09375 6.90625 53.296875 
Q 6.90625 56.90625 8.5 60.09375 
Q 10.09375 63.296875 12.796875 65.640625 
Q 15.5 68 19.140625 69.296875 
Q 22.796875 70.59375 27 70.5 
Q 31 70.5 34.84375 69.5 
Q 38.703125 68.5 41.703125 66.390625 
Q 44.703125 64.296875 46.5 61.046875 
Q 48.296875 57.796875 48.296875 53.296875 
Q 48.296875 47.796875 46.046875 43.890625 
Q 43.796875 40 38.703125 37.5 
Q 44.5 35.40625 47.84375 30.796875 
Q 51.203125 26.203125 51.203125 20 
Q 51.203125 14.796875 49.453125 10.796875 
Q 47.703125 6.796875 44.453125 4.09375 
Q 41.203125 1.40625 36.59375 0 
Q 32 -1.40625 26.40625 -1.40625 
Q 22.59375 -1.40625 18.640625 -0.09375 
Q 14.703125 1.203125 11.546875 3.796875 
Q 8.40625 6.40625 6.40625 10.296875 
Q 4.40625 14.203125 4.40625 19.40625 
Q 4.40625 25.703125 7.546875 30.640625 
Q 10.703125 35.59375 16.703125 37.90625 
z
" id="Helvetica-Light-56"/>
      </defs>
      <g transform="translate(60.215101 128.110791)scale(0.08 -0.08)">
       <use xlink:href="#Helvetica-Light-48"/>
       <use x="55.599991" xlink:href="#Helvetica-Light-46"/>
       <use x="83.399979" xlink:href="#Helvetica-Light-56"/>
      </g>
     </g>
    </g>
    <g id="xtick_2">
     <g id="line2d_2">
      <g>
       <use style="stroke:#000000;stroke-width:0.35;" x="104.218523" xlink:href="#mc399af844a" y="117.350791"/>
      </g>
     </g>
     <g id="text_2">
      <!-- 0.9 -->
      <defs>
       <path d="M 11.796875 15.5 
Q 12.90625 9.796875 16.25 6.890625 
Q 19.59375 4 25.5 4 
Q 31.796875 4 35.546875 7.09375 
Q 39.296875 10.203125 41.34375 14.890625 
Q 43.40625 19.59375 44.15625 25.046875 
Q 44.90625 30.5 45.09375 35.296875 
L 44.90625 35.5 
Q 41.703125 30.09375 36.953125 27.296875 
Q 32.203125 24.5 25.90625 24.5 
Q 20.90625 24.5 16.90625 26.09375 
Q 12.90625 27.703125 10.046875 30.703125 
Q 7.203125 33.703125 5.640625 37.890625 
Q 4.09375 42.09375 4.09375 47.203125 
Q 4.09375 52.203125 5.5 56.453125 
Q 6.90625 60.703125 9.703125 63.84375 
Q 12.5 67 16.75 68.75 
Q 21 70.5 26.796875 70.5 
Q 33.90625 70.5 38.65625 67.703125 
Q 43.40625 64.90625 46.25 60.09375 
Q 49.09375 55.296875 50.296875 48.796875 
Q 51.5 42.296875 51.5 34.90625 
Q 51.5 25.90625 49.59375 19.15625 
Q 47.703125 12.40625 44.25 7.796875 
Q 40.796875 3.203125 36.09375 0.890625 
Q 31.40625 -1.40625 25.796875 -1.40625 
Q 21.703125 -1.40625 18.09375 -0.40625 
Q 14.5 0.59375 11.796875 2.6875 
Q 9.09375 4.796875 7.390625 8 
Q 5.703125 11.203125 5.296875 15.5 
z
M 26.796875 65.09375 
Q 18.703125 64.90625 14.59375 60.09375 
Q 10.5 55.296875 10.5 47 
Q 10.5 38.90625 14.75 34.40625 
Q 19 29.90625 26.796875 29.90625 
Q 30.5 29.90625 33.453125 31.296875 
Q 36.40625 32.703125 38.453125 35.09375 
Q 40.5 37.5 41.546875 40.640625 
Q 42.59375 43.796875 42.59375 47.40625 
Q 42.59375 55.203125 38.390625 60.046875 
Q 34.203125 64.90625 26.796875 65.09375 
z
" id="Helvetica-Light-57"/>
      </defs>
      <g transform="translate(98.659148 128.110791)scale(0.08 -0.08)">
       <use xlink:href="#Helvetica-Light-48"/>
       <use x="55.599991" xlink:href="#Helvetica-Light-46"/>
       <use x="83.399979" xlink:href="#Helvetica-Light-57"/>
      </g>
     </g>
    </g>
    <g id="xtick_3">
     <g id="line2d_3">
      <g>
       <use style="stroke:#000000;stroke-width:0.35;" x="142.66257" xlink:href="#mc399af844a" y="117.350791"/>
      </g>
     </g>
     <g id="text_3">
      <!-- 1.0 -->
      <defs>
       <path d="M 30.203125 52.40625 
L 12 52.40625 
L 12 56.59375 
Q 16 56.90625 19.25 57.40625 
Q 22.5 57.90625 24.953125 59.296875 
Q 27.40625 60.703125 29.046875 63.34375 
Q 30.703125 66 31.5 70.5 
L 36.59375 70.5 
L 36.59375 0 
L 30.203125 0 
z
" id="Helvetica-Light-49"/>
      </defs>
      <g transform="translate(137.103195 128.110791)scale(0.08 -0.08)">
       <use xlink:href="#Helvetica-Light-49"/>
       <use x="55.599991" xlink:href="#Helvetica-Light-46"/>
       <use x="83.399979" xlink:href="#Helvetica-Light-48"/>
      </g>
     </g>
    </g>
    <g id="xtick_4">
     <g id="line2d_4">
      <g>
       <use style="stroke:#000000;stroke-width:0.35;" x="181.106617" xlink:href="#mc399af844a" y="117.350791"/>
      </g>
     </g>
     <g id="text_4">
      <!-- 1.1 -->
      <g transform="translate(175.547242 128.110791)scale(0.08 -0.08)">
       <use xlink:href="#Helvetica-Light-49"/>
       <use x="55.599991" xlink:href="#Helvetica-Light-46"/>
       <use x="83.399979" xlink:href="#Helvetica-Light-49"/>
      </g>
     </g>
    </g>
    <g id="xtick_5">
     <g id="line2d_5">
      <g>
       <use style="stroke:#000000;stroke-width:0.35;" x="219.550664" xlink:href="#mc399af844a" y="117.350791"/>
      </g>
     </g>
     <g id="text_5">
      <!-- 1.2 -->
      <defs>
       <path d="M 6.90625 47.40625 
Q 6.90625 52.59375 8.5 56.84375 
Q 10.09375 61.09375 13.09375 64.140625 
Q 16.09375 67.203125 20.34375 68.84375 
Q 24.59375 70.5 29.796875 70.5 
Q 35.09375 70.5 39.140625 68.953125 
Q 43.203125 67.40625 45.953125 64.796875 
Q 48.703125 62.203125 50.09375 58.59375 
Q 51.5 55 51.5 51 
Q 51.5 46.296875 49.953125 42.6875 
Q 48.40625 39.09375 45.84375 36.296875 
Q 43.296875 33.5 40.046875 31.296875 
Q 36.796875 29.09375 33.390625 27.140625 
Q 30 25.203125 26.703125 23.390625 
Q 23.40625 21.59375 20.796875 19.59375 
Q 19.09375 18.296875 17.5 16.84375 
Q 15.90625 15.40625 14.59375 13.703125 
Q 13.296875 12 12.5 9.953125 
Q 11.703125 7.90625 11.59375 5.40625 
L 50.90625 5.40625 
L 50.90625 0 
L 4.796875 0 
Q 4.90625 5.09375 5.90625 9.1875 
Q 6.90625 13.296875 10.296875 17.203125 
Q 14 21.40625 17.953125 24.40625 
Q 21.90625 27.40625 25.703125 29.75 
Q 29.5 32.09375 32.890625 34.046875 
Q 36.296875 36 38.890625 38.296875 
Q 41.5 40.59375 43 43.5 
Q 44.5 46.40625 44.5 50.59375 
Q 44.5 54 43.296875 56.703125 
Q 42.09375 59.40625 40 61.296875 
Q 37.90625 63.203125 35.09375 64.140625 
Q 32.296875 65.09375 29 65.09375 
Q 25.5 65.09375 22.640625 63.640625 
Q 19.796875 62.203125 17.75 59.796875 
Q 15.703125 57.40625 14.59375 54.203125 
Q 13.5 51 13.703125 47.40625 
z
" id="Helvetica-Light-50"/>
      </defs>
      <g transform="translate(213.991289 128.110791)scale(0.08 -0.08)">
       <use xlink:href="#Helvetica-Light-49"/>
       <use x="55.599991" xlink:href="#Helvetica-Light-46"/>
       <use x="83.399979" xlink:href="#Helvetica-Light-50"/>
      </g>
     </g>
    </g>
    <g id="text_6">
     <!-- Luttinger Parameter  $K$ -->
     <defs>
      <path d="M 8.09375 0 
L 8.09375 72 
L 14.90625 72 
L 14.90625 5.796875 
L 53.5 5.796875 
L 53.5 0 
z
" id="Helvetica-Light-76"/>
      <path d="M 42.296875 51.796875 
L 48.296875 51.796875 
L 48.296875 0 
L 42.296875 0 
L 42.296875 7.203125 
Q 41.09375 5.796875 39.59375 4.296875 
Q 38.09375 2.796875 36.140625 1.546875 
Q 34.203125 0.296875 31.59375 -0.546875 
Q 29 -1.40625 25.59375 -1.40625 
Q 20.40625 -1.40625 16.90625 0.046875 
Q 13.40625 1.5 11.25 4.09375 
Q 9.09375 6.703125 8.140625 10.140625 
Q 7.203125 13.59375 7.203125 17.703125 
L 7.203125 51.796875 
L 13.203125 51.796875 
L 13.203125 17.796875 
Q 13.203125 11.09375 16.296875 7.546875 
Q 19.40625 4 26.5 4 
Q 30.203125 4 33.140625 5.453125 
Q 36.09375 6.90625 38.09375 9.5 
Q 40.09375 12.09375 41.1875 15.6875 
Q 42.296875 19.296875 42.296875 23.59375 
z
" id="Helvetica-Light-117"/>
      <path d="M 25.40625 -0.203125 
Q 24.296875 -0.40625 22.5 -0.90625 
Q 20.703125 -1.40625 18.5 -1.40625 
Q 14 -1.40625 11.640625 0.84375 
Q 9.296875 3.09375 9.296875 8.90625 
L 9.296875 46.796875 
L 2 46.796875 
L 2 51.796875 
L 9.296875 51.796875 
L 9.296875 66.203125 
L 15.296875 66.203125 
L 15.296875 51.796875 
L 25 51.796875 
L 25 46.796875 
L 15.296875 46.796875 
L 15.296875 11.296875 
Q 15.296875 9.40625 15.390625 8 
Q 15.5 6.59375 16 5.6875 
Q 16.5 4.796875 17.546875 4.390625 
Q 18.59375 4 20.5 4 
Q 21.703125 4 22.953125 4.203125 
Q 24.203125 4.40625 25.40625 4.703125 
z
" id="Helvetica-Light-116"/>
      <path d="M 8.09375 0 
L 8.09375 51.796875 
L 14.09375 51.796875 
L 14.09375 0 
z
M 7.796875 63.09375 
L 7.796875 72 
L 14.40625 72 
L 14.40625 63.09375 
z
" id="Helvetica-Light-105"/>
      <path d="M 13.203125 0 
L 7.203125 0 
L 7.203125 51.796875 
L 13.203125 51.796875 
L 13.203125 44.59375 
Q 16.796875 48.40625 20.640625 50.796875 
Q 24.5 53.203125 29.90625 53.203125 
Q 34.703125 53.203125 38.796875 51.546875 
Q 42.90625 49.90625 45.703125 45.796875 
Q 47.59375 43 47.9375 40.046875 
Q 48.296875 37.09375 48.296875 33.90625 
L 48.296875 0 
L 42.296875 0 
L 42.296875 33.796875 
Q 42.296875 40.796875 39.1875 44.296875 
Q 36.09375 47.796875 28.90625 47.796875 
Q 26.09375 47.796875 23.796875 46.9375 
Q 21.5 46.09375 19.640625 44.6875 
Q 17.796875 43.296875 16.5 41.5 
Q 15.203125 39.703125 14.5 37.703125 
Q 13.59375 35.203125 13.390625 32.890625 
Q 13.203125 30.59375 13.203125 27.90625 
z
" id="Helvetica-Light-110"/>
      <path d="M 47.203125 25.703125 
Q 47.203125 30.40625 46.046875 34.453125 
Q 44.90625 38.5 42.703125 41.453125 
Q 40.5 44.40625 37.203125 46.09375 
Q 33.90625 47.796875 29.703125 47.796875 
Q 25.90625 47.796875 22.703125 46.4375 
Q 19.5 45.09375 17.09375 42.5 
Q 14.703125 39.90625 13.34375 36.15625 
Q 12 32.40625 12 27.5 
Q 11.796875 22.59375 12.796875 18.34375 
Q 13.796875 14.09375 16 10.890625 
Q 18.203125 7.703125 21.59375 5.84375 
Q 25 4 29.703125 4 
Q 33.796875 4 37.046875 5.75 
Q 40.296875 7.5 42.546875 10.453125 
Q 44.796875 13.40625 46 17.34375 
Q 47.203125 21.296875 47.203125 25.703125 
z
M 47.203125 51.796875 
L 53.203125 51.796875 
L 53.203125 5 
Q 53.203125 -0.203125 52.140625 -4.953125 
Q 51.09375 -9.703125 48.390625 -13.296875 
Q 45.703125 -16.90625 41 -19.046875 
Q 36.296875 -21.203125 28.90625 -21.203125 
Q 23.203125 -21.203125 19.09375 -19.75 
Q 15 -18.296875 12.390625 -16.09375 
Q 9.796875 -13.90625 8.4375 -11.25 
Q 7.09375 -8.59375 7 -6.296875 
L 13.40625 -6.296875 
Q 14.09375 -9.203125 15.59375 -11.046875 
Q 17.09375 -12.90625 19.140625 -13.953125 
Q 21.203125 -15 23.703125 -15.390625 
Q 26.203125 -15.796875 28.90625 -15.796875 
Q 35 -15.796875 38.703125 -13.6875 
Q 42.40625 -11.59375 44.296875 -8.1875 
Q 46.203125 -4.796875 46.75 -0.5 
Q 47.296875 3.796875 47.203125 8.296875 
Q 44.296875 3.5 39.25 1.046875 
Q 34.203125 -1.40625 28.703125 -1.40625 
Q 22.796875 -1.40625 18.4375 0.84375 
Q 14.09375 3.09375 11.25 6.84375 
Q 8.40625 10.59375 7 15.59375 
Q 5.59375 20.59375 5.59375 26 
Q 5.59375 31.703125 6.890625 36.703125 
Q 8.203125 41.703125 11.046875 45.34375 
Q 13.90625 49 18.296875 51.09375 
Q 22.703125 53.203125 29 53.203125 
Q 31.5 53.203125 34.09375 52.5 
Q 36.703125 51.796875 39.140625 50.5 
Q 41.59375 49.203125 43.640625 47.203125 
Q 45.703125 45.203125 47 42.703125 
L 47.203125 42.703125 
z
" id="Helvetica-Light-103"/>
      <path d="M 44.703125 29.5 
Q 44.703125 33.296875 43.640625 36.640625 
Q 42.59375 40 40.546875 42.453125 
Q 38.5 44.90625 35.390625 46.34375 
Q 32.296875 47.796875 28.296875 47.796875 
Q 24.296875 47.796875 21.25 46.296875 
Q 18.203125 44.796875 16.046875 42.296875 
Q 13.90625 39.796875 12.59375 36.5 
Q 11.296875 33.203125 10.90625 29.5 
z
M 10.90625 24.5 
Q 10.90625 20.296875 12 16.546875 
Q 13.09375 12.796875 15.25 10.046875 
Q 17.40625 7.296875 20.703125 5.640625 
Q 24 4 28.296875 4 
Q 34.203125 4 38.390625 7.09375 
Q 42.59375 10.203125 44 15.90625 
L 50.703125 15.90625 
Q 49.59375 12.203125 47.796875 9.046875 
Q 46 5.90625 43.296875 3.546875 
Q 40.59375 1.203125 36.890625 -0.09375 
Q 33.203125 -1.40625 28.296875 -1.40625 
Q 22.09375 -1.40625 17.59375 0.6875 
Q 13.09375 2.796875 10.1875 6.4375 
Q 7.296875 10.09375 5.890625 15.046875 
Q 4.5 20 4.5 25.703125 
Q 4.5 31.40625 6.140625 36.40625 
Q 7.796875 41.40625 10.84375 45.15625 
Q 13.90625 48.90625 18.296875 51.046875 
Q 22.703125 53.203125 28.296875 53.203125 
Q 39 53.203125 45.09375 45.84375 
Q 51.203125 38.5 51.09375 24.5 
z
" id="Helvetica-Light-101"/>
      <path d="M 13.5 0 
L 7.5 0 
L 7.5 51.796875 
L 13.5 51.796875 
L 13.5 42.09375 
L 13.703125 42.09375 
Q 16.203125 48.296875 20.140625 50.75 
Q 24.09375 53.203125 30.59375 53.203125 
L 30.59375 46.703125 
Q 25.5 46.796875 22.203125 45.09375 
Q 18.90625 43.40625 16.953125 40.5 
Q 15 37.59375 14.25 33.640625 
Q 13.5 29.703125 13.5 25.40625 
z
" id="Helvetica-Light-114"/>
      <path id="Helvetica-Light-32"/>
      <path d="M 7.796875 0 
L 7.796875 72 
L 34.09375 72 
Q 41.09375 72 45.640625 70.390625 
Q 50.203125 68.796875 52.84375 66 
Q 55.5 63.203125 56.546875 59.546875 
Q 57.59375 55.90625 57.59375 51.90625 
Q 57.59375 45.90625 55.140625 42 
Q 52.703125 38.09375 48.796875 35.84375 
Q 44.90625 33.59375 39.953125 32.6875 
Q 35 31.796875 30 31.796875 
L 14.59375 31.796875 
L 14.59375 0 
z
M 30.203125 37.59375 
Q 35 37.59375 38.796875 38.1875 
Q 42.59375 38.796875 45.25 40.4375 
Q 47.90625 42.09375 49.34375 44.9375 
Q 50.796875 47.796875 50.796875 52.40625 
Q 50.796875 59.203125 46.34375 62.703125 
Q 41.90625 66.203125 32.203125 66.203125 
L 14.59375 66.203125 
L 14.59375 37.59375 
z
" id="Helvetica-Light-80"/>
      <path d="M 41.09375 27.203125 
Q 37.296875 25.59375 33.390625 25.09375 
Q 29.5 24.59375 25.59375 24.296875 
Q 18.703125 23.796875 14.84375 21.1875 
Q 11 18.59375 11 13.296875 
Q 11 10.90625 11.953125 9.15625 
Q 12.90625 7.40625 14.453125 6.25 
Q 16 5.09375 18.046875 4.546875 
Q 20.09375 4 22.203125 4 
Q 25.796875 4 29.1875 4.890625 
Q 32.59375 5.796875 35.25 7.640625 
Q 37.90625 9.5 39.5 12.34375 
Q 41.09375 15.203125 41.09375 19.09375 
z
M 31 30.203125 
Q 32.703125 30.40625 35.046875 30.796875 
Q 37.40625 31.203125 38.90625 31.90625 
Q 40.40625 32.59375 40.75 34.25 
Q 41.09375 35.90625 41.09375 37.296875 
Q 41.09375 41.90625 38.140625 44.84375 
Q 35.203125 47.796875 28.203125 47.796875 
Q 25.09375 47.796875 22.5 47.25 
Q 19.90625 46.703125 17.953125 45.34375 
Q 16 44 14.75 41.75 
Q 13.5 39.5 13.09375 36.09375 
L 7 36.09375 
Q 7.296875 40.703125 9.09375 43.953125 
Q 10.90625 47.203125 13.75 49.25 
Q 16.59375 51.296875 20.34375 52.25 
Q 24.09375 53.203125 28.296875 53.203125 
Q 32.203125 53.203125 35.640625 52.34375 
Q 39.09375 51.5 41.640625 49.640625 
Q 44.203125 47.796875 45.640625 44.6875 
Q 47.09375 41.59375 47.09375 37.09375 
L 47.09375 8.90625 
Q 47.09375 5.40625 48.34375 4.453125 
Q 49.59375 3.5 53.40625 4.90625 
L 53.40625 0.203125 
Q 52.703125 0 51.34375 -0.390625 
Q 50 -0.796875 48.703125 -0.796875 
Q 47.296875 -0.796875 46 -0.5 
Q 44.5 -0.296875 43.59375 0.453125 
Q 42.703125 1.203125 42.140625 2.25 
Q 41.59375 3.296875 41.390625 4.546875 
Q 41.203125 5.796875 41.203125 7.203125 
Q 37.40625 3 32.5 0.796875 
Q 27.59375 -1.40625 21.90625 -1.40625 
Q 18.5 -1.40625 15.34375 -0.5 
Q 12.203125 0.40625 9.796875 2.296875 
Q 7.40625 4.203125 6 6.953125 
Q 4.59375 9.703125 4.59375 13.5 
Q 4.59375 26.703125 22.703125 29.09375 
z
" id="Helvetica-Light-97"/>
      <path d="M 12.40625 0 
L 6.40625 0 
L 6.40625 51.796875 
L 12.40625 51.796875 
L 12.40625 44 
L 12.59375 44 
Q 14.90625 48.5 19.203125 50.84375 
Q 23.5 53.203125 28.59375 53.203125 
Q 32.203125 53.203125 34.703125 52.390625 
Q 37.203125 51.59375 38.953125 50.25 
Q 40.703125 48.90625 41.84375 47.09375 
Q 43 45.296875 43.796875 43.203125 
Q 46.40625 48.296875 50.75 50.75 
Q 55.09375 53.203125 60.703125 53.203125 
Q 66 53.203125 69.140625 51.453125 
Q 72.296875 49.703125 74 46.84375 
Q 75.703125 44 76.25 40.296875 
Q 76.796875 36.59375 76.796875 32.703125 
L 76.796875 0 
L 70.796875 0 
L 70.796875 35.796875 
Q 70.796875 41.40625 68.4375 44.59375 
Q 66.09375 47.796875 59.703125 47.796875 
Q 56.40625 47.796875 53.34375 46.34375 
Q 50.296875 44.90625 48 41.90625 
Q 47 40.59375 46.34375 38.84375 
Q 45.703125 37.09375 45.296875 35.1875 
Q 44.90625 33.296875 44.75 31.390625 
Q 44.59375 29.5 44.59375 27.90625 
L 44.59375 0 
L 38.59375 0 
L 38.59375 35.796875 
Q 38.59375 41.40625 36.25 44.59375 
Q 33.90625 47.796875 27.5 47.796875 
Q 24.203125 47.796875 21.140625 46.34375 
Q 18.09375 44.90625 15.796875 41.90625 
Q 14.796875 40.59375 14.140625 38.84375 
Q 13.5 37.09375 13.09375 35.1875 
Q 12.703125 33.296875 12.546875 31.390625 
Q 12.40625 29.5 12.40625 27.90625 
z
" id="Helvetica-Light-109"/>
      <path d="M 8.5 0 
L 23.796875 72 
L 30.59375 72 
L 22.703125 34.703125 
L 67.5 72 
L 75.203125 72 
L 40.703125 43.296875 
L 64.90625 0 
L 56.59375 0 
L 34.90625 39.09375 
L 21.203125 27.796875 
L 15.296875 0 
z
" id="Helvetica-LightOblique-75"/>
     </defs>
     <g transform="translate(102.42257 137.503291)scale(0.08 -0.08)">
      <use xlink:href="#Helvetica-Light-76"/>
      <use transform="translate(55.599991 0)" xlink:href="#Helvetica-Light-117"/>
      <use transform="translate(111.199982 0)" xlink:href="#Helvetica-Light-116"/>
      <use transform="translate(138.999969 0)" xlink:href="#Helvetica-Light-116"/>
      <use transform="translate(166.799957 0)" xlink:href="#Helvetica-Light-105"/>
      <use transform="translate(188.999954 0)" xlink:href="#Helvetica-Light-110"/>
      <use transform="translate(244.599945 0)" xlink:href="#Helvetica-Light-103"/>
      <use transform="translate(305.699936 0)" xlink:href="#Helvetica-Light-101"/>
      <use transform="translate(361.299927 0)" xlink:href="#Helvetica-Light-114"/>
      <use transform="translate(394.599915 0)" xlink:href="#Helvetica-Light-32"/>
      <use transform="translate(422.399902 0)" xlink:href="#Helvetica-Light-80"/>
      <use transform="translate(483.499893 0)" xlink:href="#Helvetica-Light-97"/>
      <use transform="translate(539.099884 0)" xlink:href="#Helvetica-Light-114"/>
      <use transform="translate(572.399872 0)" xlink:href="#Helvetica-Light-97"/>
      <use transform="translate(627.999863 0)" xlink:href="#Helvetica-Light-109"/>
      <use transform="translate(711.29985 0)" xlink:href="#Helvetica-Light-101"/>
      <use transform="translate(766.899841 0)" xlink:href="#Helvetica-Light-116"/>
      <use transform="translate(794.699829 0)" xlink:href="#Helvetica-Light-101"/>
      <use transform="translate(850.29982 0)" xlink:href="#Helvetica-Light-114"/>
      <use transform="translate(883.599808 0)" xlink:href="#Helvetica-Light-32"/>
      <use transform="translate(911.399796 0)" xlink:href="#Helvetica-Light-32"/>
      <use transform="translate(939.199783 0)" xlink:href="#Helvetica-LightOblique-75"/>
     </g>
    </g>
   </g>
   <g id="matplotlib.axis_2">
    <g id="ytick_1">
     <g id="line2d_6">
      <defs>
       <path d="M 0 0 
L -2 0 
" id="mb9dc0fd88e" style="stroke:#000000;stroke-width:0.35;"/>
      </defs>
      <g>
       <use style="stroke:#000000;stroke-width:0.35;" x="44.63025" xlink:href="#mb9dc0fd88e" y="112.057485"/>
      </g>
     </g>
     <g id="text_7">
      <!-- 0.000 -->
      <g transform="translate(19.6165 114.937485)scale(0.08 -0.08)">
       <use xlink:href="#Helvetica-Light-48"/>
       <use x="55.599991" xlink:href="#Helvetica-Light-46"/>
       <use x="83.399979" xlink:href="#Helvetica-Light-48"/>
       <use x="138.999969" xlink:href="#Helvetica-Light-48"/>
       <use x="194.59996" xlink:href="#Helvetica-Light-48"/>
      </g>
     </g>
    </g>
    <g id="ytick_2">
     <g id="line2d_7">
      <g>
       <use style="stroke:#000000;stroke-width:0.35;" x="44.63025" xlink:href="#mb9dc0fd88e" y="86.608825"/>
      </g>
     </g>
     <g id="text_8">
      <!-- 0.005 -->
      <defs>
       <path d="M 9.90625 18.296875 
Q 10.90625 11.09375 15.65625 7.546875 
Q 20.40625 4 27.296875 4 
Q 31.203125 4 34.34375 5.390625 
Q 37.5 6.796875 39.703125 9.25 
Q 41.90625 11.703125 43.046875 14.953125 
Q 44.203125 18.203125 44.203125 22 
Q 44.203125 25.90625 42.953125 29.203125 
Q 41.703125 32.5 39.453125 34.890625 
Q 37.203125 37.296875 33.953125 38.59375 
Q 30.703125 39.90625 26.703125 39.90625 
Q 21.90625 39.90625 18.09375 38.15625 
Q 14.296875 36.40625 11.40625 32.59375 
L 6.09375 33.296875 
L 11.796875 69.796875 
L 46.796875 69.796875 
L 46.796875 64.40625 
L 17.203125 64.40625 
L 12.796875 40.703125 
Q 14.90625 42 16.65625 42.890625 
Q 18.40625 43.796875 20.203125 44.34375 
Q 22 44.90625 23.953125 45.09375 
Q 25.90625 45.296875 28.296875 45.296875 
Q 33.09375 45.296875 37.1875 43.6875 
Q 41.296875 42.09375 44.296875 39.09375 
Q 47.296875 36.09375 48.9375 31.75 
Q 50.59375 27.40625 50.59375 22 
Q 50.59375 16.40625 48.75 12.046875 
Q 46.90625 7.703125 43.796875 4.703125 
Q 40.703125 1.703125 36.640625 0.140625 
Q 32.59375 -1.40625 28.296875 -1.40625 
Q 23.296875 -1.40625 18.9375 -0.40625 
Q 14.59375 0.59375 11.296875 2.9375 
Q 8 5.296875 5.953125 9.046875 
Q 3.90625 12.796875 3.5 18.296875 
z
" id="Helvetica-Light-53"/>
      </defs>
      <g transform="translate(19.6165 89.488825)scale(0.08 -0.08)">
       <use xlink:href="#Helvetica-Light-48"/>
       <use x="55.599991" xlink:href="#Helvetica-Light-46"/>
       <use x="83.399979" xlink:href="#Helvetica-Light-48"/>
       <use x="138.999969" xlink:href="#Helvetica-Light-48"/>
       <use x="194.59996" xlink:href="#Helvetica-Light-53"/>
      </g>
     </g>
    </g>
    <g id="ytick_3">
     <g id="line2d_8">
      <g>
       <use style="stroke:#000000;stroke-width:0.35;" x="44.63025" xlink:href="#mb9dc0fd88e" y="61.160164"/>
      </g>
     </g>
     <g id="text_9">
      <!-- 0.010 -->
      <g transform="translate(19.6165 64.040164)scale(0.08 -0.08)">
       <use xlink:href="#Helvetica-Light-48"/>
       <use x="55.599991" xlink:href="#Helvetica-Light-46"/>
       <use x="83.399979" xlink:href="#Helvetica-Light-48"/>
       <use x="138.999969" xlink:href="#Helvetica-Light-49"/>
       <use x="194.59996" xlink:href="#Helvetica-Light-48"/>
      </g>
     </g>
    </g>
    <g id="ytick_4">
     <g id="line2d_9">
      <g>
       <use style="stroke:#000000;stroke-width:0.35;" x="44.63025" xlink:href="#mb9dc0fd88e" y="35.711504"/>
      </g>
     </g>
     <g id="text_10">
      <!-- 0.015 -->
      <g transform="translate(19.6165 38.591504)scale(0.08 -0.08)">
       <use xlink:href="#Helvetica-Light-48"/>
       <use x="55.599991" xlink:href="#Helvetica-Light-46"/>
       <use x="83.399979" xlink:href="#Helvetica-Light-48"/>
       <use x="138.999969" xlink:href="#Helvetica-Light-49"/>
       <use x="194.59996" xlink:href="#Helvetica-Light-53"/>
      </g>
     </g>
    </g>
    <g id="ytick_5">
     <g id="line2d_10">
      <g>
       <use style="stroke:#000000;stroke-width:0.35;" x="44.63025" xlink:href="#mb9dc0fd88e" y="10.262843"/>
      </g>
     </g>
     <g id="text_11">
      <!-- 0.020 -->
      <g transform="translate(19.6165 13.142843)scale(0.08 -0.08)">
       <use xlink:href="#Helvetica-Light-48"/>
       <use x="55.599991" xlink:href="#Helvetica-Light-46"/>
       <use x="83.399979" xlink:href="#Helvetica-Light-48"/>
       <use x="138.999969" xlink:href="#Helvetica-Light-50"/>
       <use x="194.59996" xlink:href="#Helvetica-Light-48"/>
      </g>
     </g>
    </g>
    <g id="text_12">
     <!-- Bosonic Density -->
     <defs>
      <path d="M 14.90625 5.796875 
L 32.203125 5.796875 
Q 37.796875 5.796875 41.9375 6.296875 
Q 46.09375 6.796875 48.796875 8.34375 
Q 51.5 9.90625 52.84375 12.75 
Q 54.203125 15.59375 54.203125 20.296875 
Q 54.203125 24.796875 52.703125 27.546875 
Q 51.203125 30.296875 48.390625 31.796875 
Q 45.59375 33.296875 41.6875 33.84375 
Q 37.796875 34.40625 33 34.40625 
L 14.90625 34.40625 
z
M 14.90625 40.203125 
L 32.09375 40.203125 
Q 37.40625 40.203125 41 41.09375 
Q 44.59375 42 46.796875 43.75 
Q 49 45.5 49.953125 48.046875 
Q 50.90625 50.59375 50.90625 53.90625 
Q 50.90625 57.296875 49.796875 59.640625 
Q 48.703125 62 46.296875 63.453125 
Q 43.90625 64.90625 40.046875 65.546875 
Q 36.203125 66.203125 30.59375 66.203125 
L 14.90625 66.203125 
z
M 8.09375 0 
L 8.09375 72 
L 34.09375 72 
Q 40.40625 72 44.90625 70.703125 
Q 49.40625 69.40625 52.25 67 
Q 55.09375 64.59375 56.390625 61.25 
Q 57.703125 57.90625 57.703125 53.90625 
Q 57.703125 50.09375 56.703125 47.34375 
Q 55.703125 44.59375 54.09375 42.75 
Q 52.5 40.90625 50.453125 39.84375 
Q 48.40625 38.796875 46.203125 38.40625 
L 46.203125 38.203125 
Q 53.703125 37.09375 57.34375 32.296875 
Q 61 27.5 61 20.296875 
Q 61 14.703125 59.25 10.796875 
Q 57.5 6.90625 54.390625 4.5 
Q 51.296875 2.09375 46.9375 1.046875 
Q 42.59375 0 37.5 0 
z
" id="Helvetica-Light-66"/>
      <path d="M 27.796875 -1.40625 
Q 22.796875 -1.296875 18.4375 0.390625 
Q 14.09375 2.09375 10.84375 5.5 
Q 7.59375 8.90625 5.6875 14 
Q 3.796875 19.09375 3.796875 25.90625 
Q 3.796875 31.59375 5.296875 36.546875 
Q 6.796875 41.5 9.796875 45.203125 
Q 12.796875 48.90625 17.296875 51.046875 
Q 21.796875 53.203125 27.796875 53.203125 
Q 33.90625 53.203125 38.40625 51.046875 
Q 42.90625 48.90625 45.90625 45.25 
Q 48.90625 41.59375 50.34375 36.59375 
Q 51.796875 31.59375 51.796875 25.90625 
Q 51.796875 19.703125 50.09375 14.703125 
Q 48.40625 9.703125 45.25 6.09375 
Q 42.09375 2.5 37.640625 0.546875 
Q 33.203125 -1.40625 27.796875 -1.40625 
z
M 45.40625 25.90625 
Q 45.40625 30.5 44.40625 34.5 
Q 43.40625 38.5 41.296875 41.453125 
Q 39.203125 44.40625 35.890625 46.09375 
Q 32.59375 47.796875 27.796875 47.796875 
Q 23.09375 47.796875 19.75 45.9375 
Q 16.40625 44.09375 14.296875 41.046875 
Q 12.203125 38 11.203125 34.046875 
Q 10.203125 30.09375 10.203125 25.90625 
Q 10.203125 21.09375 11.34375 17.046875 
Q 12.5 13 14.703125 10.09375 
Q 16.90625 7.203125 20.203125 5.59375 
Q 23.5 4 27.796875 4 
Q 32.5 4 35.84375 5.84375 
Q 39.203125 7.703125 41.296875 10.796875 
Q 43.40625 13.90625 44.40625 17.796875 
Q 45.40625 21.703125 45.40625 25.90625 
z
" id="Helvetica-Light-111"/>
      <path d="M 10.703125 16.203125 
Q 12.09375 9.5 15.75 6.75 
Q 19.40625 4 26.203125 4 
Q 29.5 4 31.890625 4.796875 
Q 34.296875 5.59375 35.84375 6.9375 
Q 37.40625 8.296875 38.203125 10 
Q 39 11.703125 39 13.59375 
Q 39 17.40625 36.546875 19.25 
Q 34.09375 21.09375 30.390625 22.140625 
Q 26.703125 23.203125 22.390625 23.953125 
Q 18.09375 24.703125 14.390625 26.203125 
Q 10.703125 27.703125 8.25 30.5 
Q 5.796875 33.296875 5.796875 38.40625 
Q 5.796875 44.90625 10.546875 49.046875 
Q 15.296875 53.203125 24 53.203125 
Q 32.40625 53.203125 37.65625 49.453125 
Q 42.90625 45.703125 44 36.90625 
L 37.90625 36.90625 
Q 37.09375 42.90625 33.34375 45.34375 
Q 29.59375 47.796875 23.90625 47.796875 
Q 18.203125 47.796875 15.203125 45.34375 
Q 12.203125 42.90625 12.203125 38.90625 
Q 12.203125 35.40625 14.640625 33.546875 
Q 17.09375 31.703125 20.796875 30.546875 
Q 24.5 29.40625 28.796875 28.5 
Q 33.09375 27.59375 36.796875 25.9375 
Q 40.5 24.296875 42.953125 21.5 
Q 45.40625 18.703125 45.40625 13.703125 
Q 45.40625 10 43.796875 7.140625 
Q 42.203125 4.296875 39.390625 2.390625 
Q 36.59375 0.5 32.75 -0.453125 
Q 28.90625 -1.40625 24.296875 -1.40625 
Q 19.703125 -1.40625 16.140625 -0.046875 
Q 12.59375 1.296875 10.09375 3.6875 
Q 7.59375 6.09375 6.1875 9.296875 
Q 4.796875 12.5 4.59375 16.203125 
z
" id="Helvetica-Light-115"/>
      <path d="M 43.90625 35.5 
Q 42.296875 41.296875 38.390625 44.546875 
Q 34.5 47.796875 28.5 47.796875 
Q 23.90625 47.796875 20.59375 45.890625 
Q 17.296875 44 15.1875 40.84375 
Q 13.09375 37.703125 12.09375 33.75 
Q 11.09375 29.796875 11.09375 25.796875 
Q 11.09375 21.703125 12.046875 17.796875 
Q 13 13.90625 15.09375 10.796875 
Q 17.203125 7.703125 20.5 5.84375 
Q 23.796875 4 28.5 4 
Q 35.203125 4 39.25 7.703125 
Q 43.296875 11.40625 44.40625 17.90625 
L 50.796875 17.90625 
Q 50 13.59375 48.25 10.046875 
Q 46.5 6.5 43.75 3.953125 
Q 41 1.40625 37.203125 0 
Q 33.40625 -1.40625 28.5 -1.40625 
Q 22.296875 -1.40625 17.796875 0.6875 
Q 13.296875 2.796875 10.390625 6.4375 
Q 7.5 10.09375 6.09375 15.09375 
Q 4.703125 20.09375 4.703125 25.796875 
Q 4.703125 31.203125 6.25 36.140625 
Q 7.796875 41.09375 10.796875 44.890625 
Q 13.796875 48.703125 18.25 50.953125 
Q 22.703125 53.203125 28.5 53.203125 
Q 37.5 53.203125 43.046875 48.890625 
Q 48.59375 44.59375 50 35.5 
z
" id="Helvetica-Light-99"/>
      <path d="M 8.09375 0 
L 8.09375 72 
L 32.703125 72 
Q 35.703125 72 38.59375 71.84375 
Q 41.5 71.703125 44.296875 71.140625 
Q 47.09375 70.59375 49.75 69.5 
Q 52.40625 68.40625 54.90625 66.59375 
Q 58.5 64 60.796875 60.25 
Q 63.09375 56.5 64.4375 52.34375 
Q 65.796875 48.203125 66.34375 43.953125 
Q 66.90625 39.703125 66.90625 36.09375 
Q 66.90625 32.5 66.453125 28.796875 
Q 66 25.09375 65 21.546875 
Q 64 18 62.34375 14.75 
Q 60.703125 11.5 58.203125 8.796875 
Q 55.703125 6 52.75 4.296875 
Q 49.796875 2.59375 46.546875 1.640625 
Q 43.296875 0.703125 39.796875 0.34375 
Q 36.296875 0 32.703125 0 
z
M 14.90625 5.796875 
L 31.203125 5.796875 
Q 35.796875 5.796875 39.84375 6.34375 
Q 43.90625 6.90625 48.09375 9.09375 
Q 51.703125 10.90625 54 14 
Q 56.296875 17.09375 57.640625 20.75 
Q 59 24.40625 59.546875 28.40625 
Q 60.09375 32.40625 60.09375 36.09375 
Q 60.09375 40 59.59375 44.046875 
Q 59.09375 48.09375 57.6875 51.75 
Q 56.296875 55.40625 53.890625 58.453125 
Q 51.5 61.5 47.703125 63.5 
Q 44.5 65.203125 40.09375 65.703125 
Q 35.703125 66.203125 31.203125 66.203125 
L 14.90625 66.203125 
z
" id="Helvetica-Light-68"/>
      <path d="M 6.796875 -14.09375 
Q 8 -14.296875 9.25 -14.5 
Q 10.5 -14.703125 11.796875 -14.703125 
Q 14.296875 -14.703125 15.890625 -13.09375 
Q 17.5 -11.5 18.546875 -9.25 
Q 19.59375 -7 20.296875 -4.546875 
Q 21 -2.09375 21.90625 -0.40625 
L 1.796875 51.796875 
L 8.5 51.796875 
L 25.09375 7.296875 
L 41.703125 51.796875 
L 48.203125 51.796875 
L 28.90625 0.703125 
Q 27.09375 -4.203125 25.4375 -8.09375 
Q 23.796875 -12 21.9375 -14.75 
Q 20.09375 -17.5 17.84375 -18.953125 
Q 15.59375 -20.40625 12.5 -20.40625 
Q 10.90625 -20.40625 9.453125 -20.203125 
Q 8 -20 6.796875 -19.703125 
z
" id="Helvetica-Light-121"/>
     </defs>
     <g transform="translate(6.48 87.934146)rotate(-90)scale(0.08 -0.08)">
      <use xlink:href="#Helvetica-Light-66"/>
      <use x="66.699997" xlink:href="#Helvetica-Light-111"/>
      <use x="122.299988" xlink:href="#Helvetica-Light-115"/>
      <use x="172.299973" xlink:href="#Helvetica-Light-111"/>
      <use x="227.899963" xlink:href="#Helvetica-Light-110"/>
      <use x="283.499954" xlink:href="#Helvetica-Light-105"/>
      <use x="305.699951" xlink:href="#Helvetica-Light-99"/>
      <use x="361.299942" xlink:href="#Helvetica-Light-32"/>
      <use x="389.09993" xlink:href="#Helvetica-Light-68"/>
      <use x="461.299911" xlink:href="#Helvetica-Light-101"/>
      <use x="516.899902" xlink:href="#Helvetica-Light-110"/>
      <use x="572.499893" xlink:href="#Helvetica-Light-115"/>
      <use x="622.499878" xlink:href="#Helvetica-Light-105"/>
      <use x="644.699875" xlink:href="#Helvetica-Light-116"/>
      <use x="672.499863" xlink:href="#Helvetica-Light-121"/>
     </g>
     <!--  Occupation Number  $\langle n_q \rangle$ -->
     <defs>
      <path d="M 5.296875 35.90625 
Q 5.296875 43.796875 7.4375 50.6875 
Q 9.59375 57.59375 13.796875 62.75 
Q 18 67.90625 24.203125 70.90625 
Q 30.40625 73.90625 38.5 73.90625 
Q 46.90625 73.90625 53.25 70.953125 
Q 59.59375 68 63.84375 62.84375 
Q 68.09375 57.703125 70.25 50.75 
Q 72.40625 43.796875 72.40625 35.90625 
Q 72.40625 28.09375 70.25 21.25 
Q 68.09375 14.40625 63.890625 9.25 
Q 59.703125 4.09375 53.390625 1.09375 
Q 47.09375 -1.90625 38.796875 -1.90625 
Q 30.5 -1.90625 24.203125 1.09375 
Q 17.90625 4.09375 13.703125 9.25 
Q 9.5 14.40625 7.390625 21.25 
Q 5.296875 28.09375 5.296875 35.90625 
z
M 38.90625 3.90625 
Q 45.90625 3.90625 50.953125 6.546875 
Q 56 9.203125 59.25 13.59375 
Q 62.5 18 64.046875 23.796875 
Q 65.59375 29.59375 65.59375 35.90625 
Q 65.59375 43.40625 63.75 49.34375 
Q 61.90625 55.296875 58.40625 59.5 
Q 54.90625 63.703125 49.90625 65.890625 
Q 44.90625 68.09375 38.703125 68.09375 
Q 31.796875 68.09375 26.75 65.390625 
Q 21.703125 62.703125 18.453125 58.25 
Q 15.203125 53.796875 13.640625 48 
Q 12.09375 42.203125 12.09375 35.90625 
Q 12.09375 29.5 13.640625 23.703125 
Q 15.203125 17.90625 18.453125 13.5 
Q 21.703125 9.09375 26.75 6.5 
Q 31.796875 3.90625 38.90625 3.90625 
z
" id="Helvetica-Light-79"/>
      <path d="M 13.90625 25.703125 
Q 13.90625 21.296875 15.09375 17.34375 
Q 16.296875 13.40625 18.546875 10.453125 
Q 20.796875 7.5 24.046875 5.75 
Q 27.296875 4 31.40625 4 
Q 36 4 39.453125 5.84375 
Q 42.90625 7.703125 45.09375 10.890625 
Q 47.296875 14.09375 48.296875 18.34375 
Q 49.296875 22.59375 49.09375 27.5 
Q 49.09375 32.40625 47.75 36.15625 
Q 46.40625 39.90625 44 42.5 
Q 41.59375 45.09375 38.390625 46.4375 
Q 35.203125 47.796875 31.40625 47.796875 
Q 27.203125 47.796875 23.890625 46.09375 
Q 20.59375 44.40625 18.390625 41.453125 
Q 16.203125 38.5 15.046875 34.453125 
Q 13.90625 30.40625 13.90625 25.703125 
z
M 13.90625 -20.40625 
L 7.90625 -20.40625 
L 7.90625 51.796875 
L 13.90625 51.796875 
L 13.90625 42.703125 
L 14.09375 42.703125 
Q 15.40625 45.203125 17.453125 47.203125 
Q 19.5 49.203125 21.953125 50.5 
Q 24.40625 51.796875 27 52.5 
Q 29.59375 53.203125 32.09375 53.203125 
Q 38.40625 53.203125 42.796875 51.09375 
Q 47.203125 49 50.046875 45.34375 
Q 52.90625 41.703125 54.203125 36.703125 
Q 55.5 31.703125 55.5 26 
Q 55.5 20.59375 54.09375 15.59375 
Q 52.703125 10.59375 49.84375 6.84375 
Q 47 3.09375 42.640625 0.84375 
Q 38.296875 -1.40625 32.40625 -1.40625 
Q 26.90625 -1.40625 21.84375 1.046875 
Q 16.796875 3.5 13.90625 8.296875 
z
" id="Helvetica-Light-112"/>
      <path d="M 14.90625 62.796875 
L 14.703125 62.796875 
L 14.703125 0 
L 7.90625 0 
L 7.90625 72 
L 15.59375 72 
L 57.203125 9.09375 
L 57.40625 9.09375 
L 57.40625 72 
L 64.203125 72 
L 64.203125 0 
L 56.296875 0 
z
" id="Helvetica-Light-78"/>
      <path d="M 13.90625 26.09375 
Q 13.90625 21.40625 15.046875 17.34375 
Q 16.203125 13.296875 18.390625 10.34375 
Q 20.59375 7.40625 23.890625 5.703125 
Q 27.203125 4 31.40625 4 
Q 35.203125 4 38.390625 5.34375 
Q 41.59375 6.703125 44 9.296875 
Q 46.40625 11.90625 47.75 15.65625 
Q 49.09375 19.40625 49.09375 24.296875 
Q 49.296875 29.203125 48.296875 33.453125 
Q 47.296875 37.703125 45.09375 40.890625 
Q 42.90625 44.09375 39.453125 45.9375 
Q 36 47.796875 31.40625 47.796875 
Q 27.296875 47.796875 24.046875 46.046875 
Q 20.796875 44.296875 18.546875 41.34375 
Q 16.296875 38.40625 15.09375 34.453125 
Q 13.90625 30.5 13.90625 26.09375 
z
M 13.90625 0 
L 7.90625 0 
L 7.90625 72 
L 13.90625 72 
L 13.90625 43.5 
Q 16.796875 48.296875 21.84375 50.75 
Q 26.90625 53.203125 32.40625 53.203125 
Q 38.296875 53.203125 42.640625 50.953125 
Q 47 48.703125 49.84375 44.953125 
Q 52.703125 41.203125 54.09375 36.203125 
Q 55.5 31.203125 55.5 25.796875 
Q 55.5 20.09375 54.203125 15.09375 
Q 52.90625 10.09375 50.046875 6.4375 
Q 47.203125 2.796875 42.796875 0.6875 
Q 38.40625 -1.40625 32.09375 -1.40625 
Q 29.59375 -1.40625 27 -0.703125 
Q 24.40625 0 21.953125 1.296875 
Q 19.5 2.59375 17.453125 4.546875 
Q 15.40625 6.5 14.09375 9.09375 
L 13.90625 9.09375 
z
" id="Helvetica-Light-98"/>
      <path d="M 33.5 71.296875 
L 14.296875 25.09375 
L 33.40625 -21.296875 
L 28.203125 -21.296875 
L 7.703125 24.09375 
L 7.703125 26.09375 
L 28.296875 71.296875 
z
" id="STIXGeneral-Regular-10216"/>
      <path d="M 13.203125 0 
L 7.203125 0 
L 18.203125 51.796875 
L 24.203125 51.796875 
L 22.703125 44.59375 
Q 27.09375 48.40625 31.4375 50.796875 
Q 35.796875 53.203125 41.203125 53.203125 
Q 46 53.203125 49.75 51.546875 
Q 53.5 49.90625 55.40625 45.796875 
Q 56.703125 43 56.453125 40.046875 
Q 56.203125 37.09375 55.5 33.90625 
L 48.296875 0 
L 42.296875 0 
L 49.5 33.796875 
Q 51 40.796875 48.640625 44.296875 
Q 46.296875 47.796875 39.09375 47.796875 
Q 36.296875 47.796875 33.796875 46.9375 
Q 31.296875 46.09375 29.140625 44.6875 
Q 27 43.296875 25.296875 41.5 
Q 23.59375 39.703125 22.5 37.703125 
Q 21.09375 35.203125 20.390625 32.890625 
Q 19.703125 30.59375 19.09375 27.90625 
z
" id="Helvetica-LightOblique-110"/>
      <path d="M 52.703125 26.09375 
Q 53.59375 30.5 53.25 34.453125 
Q 52.90625 38.40625 51.296875 41.34375 
Q 49.703125 44.296875 46.84375 46.046875 
Q 44 47.796875 39.90625 47.796875 
Q 35.203125 47.796875 31.390625 45.9375 
Q 27.59375 44.09375 24.6875 40.890625 
Q 21.796875 37.703125 19.890625 33.453125 
Q 18 29.203125 17.203125 24.296875 
Q 16.203125 19.40625 16.75 15.65625 
Q 17.296875 11.90625 19.09375 9.296875 
Q 20.90625 6.703125 23.84375 5.34375 
Q 26.796875 4 30.59375 4 
Q 34.796875 4 38.4375 5.703125 
Q 42.09375 7.40625 44.9375 10.34375 
Q 47.796875 13.296875 49.75 17.34375 
Q 51.703125 21.40625 52.703125 26.09375 
z
M 58.203125 51.796875 
L 64.203125 51.796875 
L 48.90625 -20.40625 
L 42.90625 -20.40625 
L 49 8.296875 
Q 45.09375 3.5 39.5 1.046875 
Q 33.90625 -1.40625 28.40625 -1.40625 
Q 22.5 -1.40625 18.59375 0.84375 
Q 14.703125 3.09375 12.640625 6.84375 
Q 10.59375 10.59375 10.25 15.59375 
Q 9.90625 20.59375 11.09375 26 
Q 12.296875 31.703125 14.6875 36.703125 
Q 17.09375 41.703125 20.6875 45.34375 
Q 24.296875 49 29.140625 51.09375 
Q 34 53.203125 40.296875 53.203125 
Q 42.796875 53.203125 45.25 52.5 
Q 47.703125 51.796875 49.84375 50.5 
Q 52 49.203125 53.640625 47.203125 
Q 55.296875 45.203125 56.09375 42.703125 
L 56.296875 42.703125 
z
" id="Helvetica-LightOblique-113"/>
      <path d="M 32.296875 24 
L 11.703125 -21.296875 
L 6.5 -21.296875 
L 25.703125 25 
L 6.59375 71.296875 
L 11.796875 71.296875 
L 32.296875 26 
z
" id="STIXGeneral-Regular-10217"/>
     </defs>
     <g transform="translate(15.2165 106.075396)rotate(-90)scale(0.08 -0.08)">
      <use transform="translate(0 0.09375)" xlink:href="#Helvetica-Light-32"/>
      <use transform="translate(27.799988 0.09375)" xlink:href="#Helvetica-Light-79"/>
      <use transform="translate(105.599976 0.09375)" xlink:href="#Helvetica-Light-99"/>
      <use transform="translate(161.199966 0.09375)" xlink:href="#Helvetica-Light-99"/>
      <use transform="translate(216.799957 0.09375)" xlink:href="#Helvetica-Light-117"/>
      <use transform="translate(272.399948 0.09375)" xlink:href="#Helvetica-Light-112"/>
      <use transform="translate(333.499939 0.09375)" xlink:href="#Helvetica-Light-97"/>
      <use transform="translate(389.09993 0.09375)" xlink:href="#Helvetica-Light-116"/>
      <use transform="translate(416.899918 0.09375)" xlink:href="#Helvetica-Light-105"/>
      <use transform="translate(439.099915 0.09375)" xlink:href="#Helvetica-Light-111"/>
      <use transform="translate(494.699905 0.09375)" xlink:href="#Helvetica-Light-110"/>
      <use transform="translate(550.299896 0.09375)" xlink:href="#Helvetica-Light-32"/>
      <use transform="translate(578.099884 0.09375)" xlink:href="#Helvetica-Light-78"/>
      <use transform="translate(650.299866 0.09375)" xlink:href="#Helvetica-Light-117"/>
      <use transform="translate(705.899857 0.09375)" xlink:href="#Helvetica-Light-109"/>
      <use transform="translate(789.199844 0.09375)" xlink:href="#Helvetica-Light-98"/>
      <use transform="translate(850.299835 0.09375)" xlink:href="#Helvetica-Light-101"/>
      <use transform="translate(905.899826 0.09375)" xlink:href="#Helvetica-Light-114"/>
      <use transform="translate(939.199814 0.09375)" xlink:href="#Helvetica-Light-32"/>
      <use transform="translate(966.999802 0.09375)" xlink:href="#Helvetica-Light-32"/>
      <use transform="translate(994.799789 0.09375)" xlink:href="#STIXGeneral-Regular-10216"/>
      <use transform="translate(1034.799774 0.09375)" xlink:href="#Helvetica-LightOblique-110"/>
      <use transform="translate(1090.399765 -15.445312)scale(0.7)" xlink:href="#Helvetica-LightOblique-113"/>
      <use transform="translate(1135.759602 0.09375)" xlink:href="#STIXGeneral-Regular-10217"/>
     </g>
    </g>
   </g>
   <g id="LineCollection_1">
    <path clip-path="url(#p4b7c8393f4)" d="M 216.359051 67.133975 
L 216.359051 66.038114 
" style="fill:none;stroke:#9fa2b2;stroke-width:0.7;"/>
   </g>
   <g id="LineCollection_2">
    <path clip-path="url(#p4b7c8393f4)" d="M 175.995078 102.094058 
L 175.995078 101.805801 
" style="fill:none;stroke:#9fa2b2;stroke-width:0.7;"/>
   </g>
   <g id="LineCollection_3">
    <path clip-path="url(#p4b7c8393f4)" d="M 161.95764 108.631974 
L 161.95764 108.527088 
" style="fill:none;stroke:#9fa2b2;stroke-width:0.7;"/>
   </g>
   <g id="LineCollection_4">
    <path clip-path="url(#p4b7c8393f4)" d="M 125.127655 109.026655 
L 125.127655 108.898828 
" style="fill:none;stroke:#9fa2b2;stroke-width:0.7;"/>
   </g>
   <g id="LineCollection_5">
    <path clip-path="url(#p4b7c8393f4)" d="M 114.255988 103.938574 
L 114.255988 103.540149 
" style="fill:none;stroke:#9fa2b2;stroke-width:0.7;"/>
   </g>
   <g id="LineCollection_6">
    <path clip-path="url(#p4b7c8393f4)" d="M 65.805577 46.549523 
L 65.805577 40.556101 
" style="fill:none;stroke:#9fa2b2;stroke-width:0.7;"/>
   </g>
   <g id="line2d_11">
    <path clip-path="url(#p4b7c8393f4)" d="M 46.552452 6.0214 
L 48.494071 10.943314 
L 50.435689 15.714419 
L 52.377308 20.337703 
L 54.318927 24.816072 
L 56.260545 29.152359 
L 58.202164 33.349323 
L 60.143782 37.409651 
L 62.085401 41.335964 
L 64.027019 45.130813 
L 65.968638 48.796687 
L 67.910256 52.336012 
L 69.851875 55.751153 
L 71.793493 59.044416 
L 73.735112 62.218053 
L 75.67673 65.274258 
L 77.618349 68.215173 
L 79.559968 71.042887 
L 81.501586 73.75944 
L 83.443205 76.366823 
L 85.384823 78.86698 
L 87.326442 81.261808 
L 89.26806 83.553161 
L 91.209679 85.742849 
L 93.151297 87.83264 
L 95.092916 89.824262 
L 97.034534 91.719401 
L 98.976153 93.519708 
L 100.917771 95.226794 
L 102.85939 96.842235 
L 104.801009 98.367571 
L 106.742627 99.804307 
L 108.684246 101.153917 
L 110.625864 102.417841 
L 112.567483 103.597487 
L 114.509101 104.694233 
L 116.45072 105.709427 
L 118.392338 106.644388 
L 120.333957 107.500406 
L 122.275575 108.278745 
L 124.217194 108.98064 
L 126.158812 109.607303 
L 128.100431 110.159918 
L 130.04205 110.639644 
L 131.983668 111.047618 
L 133.925287 111.384952 
L 135.866905 111.652736 
L 137.808524 111.852037 
L 139.750142 111.9839 
L 141.691761 112.049351 
L 143.633379 112.049392 
L 145.574998 111.985007 
L 147.516616 111.85716 
L 149.458235 111.666797 
L 151.399853 111.414842 
L 153.341472 111.102205 
L 155.28309 110.729776 
L 157.224709 110.298426 
L 159.166328 109.809013 
L 161.107946 109.262376 
L 163.049565 108.659337 
L 164.991183 108.000706 
L 166.932802 107.287273 
L 168.87442 106.519817 
L 170.816039 105.6991 
L 172.757657 104.825871 
L 174.699276 103.900863 
L 176.640894 102.924798 
L 178.582513 101.898384 
L 180.524131 100.822314 
L 182.46575 99.69727 
L 184.407369 98.523923 
L 186.348987 97.302928 
L 188.290606 96.034932 
L 190.232224 94.720567 
L 192.173843 93.360457 
L 194.115461 91.955213 
L 196.05708 90.505435 
L 197.998698 89.011714 
L 199.940317 87.474627 
L 201.881935 85.894746 
L 203.823554 84.272629 
L 205.765172 82.608825 
L 207.706791 80.903877 
L 209.64841 79.158313 
L 211.590028 77.372656 
L 213.531647 75.547419 
L 215.473265 73.683106 
L 217.414884 71.780212 
L 219.356502 69.839226 
L 221.298121 67.860626 
L 223.239739 65.844884 
L 225.181358 63.792462 
L 227.122976 61.703816 
L 229.064595 59.579395 
L 231.006213 57.419639 
L 232.947832 55.224982 
L 234.889451 52.99585 
L 236.831069 50.732663 
L 238.772688 48.435834 
" style="fill:none;stroke:#9fa2b2;stroke-linecap:round;stroke-width:0.7;"/>
   </g>
   <g id="line2d_12">
    <defs>
     <path d="M 0 2 
C 0.530406 2 1.03916 1.789267 1.414214 1.414214 
C 1.789267 1.03916 2 0.530406 2 0 
C 2 -0.530406 1.789267 -1.03916 1.414214 -1.414214 
C 1.03916 -1.789267 0.530406 -2 0 -2 
C -0.530406 -2 -1.03916 -1.789267 -1.414214 -1.414214 
C -1.789267 -1.03916 -2 -0.530406 -2 0 
C -2 0.530406 -1.789267 1.03916 -1.414214 1.414214 
C -1.03916 1.789267 -0.530406 2 0 2 
z
" id="m5ed68b7278" style="stroke:#9fa2b2;stroke-width:0.7;"/>
    </defs>
    <g clip-path="url(#p4b7c8393f4)">
     <use style="fill:#9fa2b2;fill-opacity:0.501961;stroke:#9fa2b2;stroke-width:0.7;" x="216.359051" xlink:href="#m5ed68b7278" y="66.586044"/>
    </g>
   </g>
   <g id="line2d_13">
    <g clip-path="url(#p4b7c8393f4)">
     <use style="fill:#9fa2b2;fill-opacity:0.501961;stroke:#9fa2b2;stroke-width:0.7;" x="175.995078" xlink:href="#m5ed68b7278" y="101.949929"/>
    </g>
   </g>
   <g id="line2d_14">
    <g clip-path="url(#p4b7c8393f4)">
     <use style="fill:#9fa2b2;fill-opacity:0.501961;stroke:#9fa2b2;stroke-width:0.7;" x="161.95764" xlink:href="#m5ed68b7278" y="108.579531"/>
    </g>
   </g>
   <g id="line2d_15">
    <g clip-path="url(#p4b7c8393f4)">
     <use style="fill:#9fa2b2;fill-opacity:0.501961;stroke:#9fa2b2;stroke-width:0.7;" x="125.127655" xlink:href="#m5ed68b7278" y="108.962742"/>
    </g>
   </g>
   <g id="line2d_16">
    <g clip-path="url(#p4b7c8393f4)">
     <use style="fill:#9fa2b2;fill-opacity:0.501961;stroke:#9fa2b2;stroke-width:0.7;" x="114.255988" xlink:href="#m5ed68b7278" y="103.739362"/>
    </g>
   </g>
   <g id="line2d_17">
    <g clip-path="url(#p4b7c8393f4)">
     <use style="fill:#9fa2b2;fill-opacity:0.501961;stroke:#9fa2b2;stroke-width:0.7;" x="65.805577" xlink:href="#m5ed68b7278" y="43.552812"/>
    </g>
   </g>
   <g id="patch_3">
    <path d="M 44.63025 117.350791 
L 44.63025 0.72 
" style="fill:none;stroke:#000000;stroke-linecap:square;stroke-linejoin:miter;stroke-width:0.35;"/>
   </g>
   <g id="patch_4">
    <path d="M 240.69489 117.350791 
L 240.69489 0.72 
" style="fill:none;stroke:#000000;stroke-linecap:square;stroke-linejoin:miter;stroke-width:0.35;"/>
   </g>
   <g id="patch_5">
    <path d="M 44.63025 117.350791 
L 240.69489 117.350791 
" style="fill:none;stroke:#000000;stroke-linecap:square;stroke-linejoin:miter;stroke-width:0.35;"/>
   </g>
   <g id="patch_6">
    <path d="M 44.63025 0.72 
L 240.69489 0.72 
" style="fill:none;stroke:#000000;stroke-linecap:square;stroke-linejoin:miter;stroke-width:0.35;"/>
   </g>
   <g id="text_13">
    <!-- $N = 13$ -->
    <defs>
     <path d="M 28.203125 62.796875 
L 28 62.796875 
L 14.703125 0 
L 7.90625 0 
L 23.203125 72 
L 30.90625 72 
L 59.09375 9.09375 
L 59.296875 9.09375 
L 72.703125 72 
L 79.5 72 
L 64.203125 0 
L 56.296875 0 
z
" id="Helvetica-LightOblique-78"/>
     <path d="M 58 31.796875 
L 8 31.796875 
L 8 37.796875 
L 58 37.796875 
z
M 58 12.40625 
L 8 12.40625 
L 8 18.40625 
L 58 18.40625 
z
" id="Helvetica-Light-61"/>
     <path d="M 22.09375 39.203125 
Q 26.59375 39.203125 30.296875 39.75 
Q 34 40.296875 36.640625 41.84375 
Q 39.296875 43.40625 40.796875 46 
Q 42.296875 48.59375 42.296875 52.703125 
Q 42.296875 56 41.09375 58.34375 
Q 39.90625 60.703125 37.84375 62.203125 
Q 35.796875 63.703125 33.046875 64.390625 
Q 30.296875 65.09375 27.296875 65.09375 
Q 23.90625 65.09375 21.15625 64 
Q 18.40625 62.90625 16.40625 60.84375 
Q 14.40625 58.796875 13.296875 56.046875 
Q 12.203125 53.296875 12.203125 50 
L 5.796875 50 
Q 5.796875 54.796875 7.4375 58.640625 
Q 9.09375 62.5 12.59375 65.796875 
Q 15.90625 68.796875 20.046875 69.640625 
Q 24.203125 70.5 28.59375 70.5 
Q 32.796875 70.5 36.4375 69.453125 
Q 40.09375 68.40625 42.796875 66.25 
Q 45.5 64.09375 47.09375 60.796875 
Q 48.703125 57.5 48.703125 53.09375 
Q 48.703125 47.59375 46.25 43.59375 
Q 43.796875 39.59375 38.703125 37.40625 
Q 42.5 36.203125 44.953125 34.25 
Q 47.40625 32.296875 48.796875 29.9375 
Q 50.203125 27.59375 50.703125 25 
Q 51.203125 22.40625 51.203125 20 
Q 51.203125 15.59375 49.703125 11.796875 
Q 48.203125 8 45.296875 5.09375 
Q 42.40625 2.203125 38.15625 0.453125 
Q 33.90625 -1.296875 28.5 -1.40625 
Q 22.40625 -1.40625 17.90625 -0.296875 
Q 13.40625 0.796875 10.40625 3.34375 
Q 7.40625 5.90625 5.703125 10.046875 
Q 4 14.203125 3.40625 20.40625 
L 9.796875 20.40625 
Q 9.796875 12.296875 14.640625 8.140625 
Q 19.5 4 27.296875 4 
Q 31.09375 4 34.390625 5.296875 
Q 37.703125 6.59375 40.046875 8.796875 
Q 42.40625 11 43.65625 13.890625 
Q 44.90625 16.796875 44.796875 19.90625 
Q 44.59375 24.203125 42.796875 27.046875 
Q 41 29.90625 37.953125 31.546875 
Q 34.90625 33.203125 30.796875 33.75 
Q 26.703125 34.296875 22.09375 34 
z
" id="Helvetica-Light-51"/>
    </defs>
    <g transform="translate(216.094244 115.018175)scale(0.08 -0.08)">
     <use xlink:href="#Helvetica-LightOblique-78"/>
     <use transform="translate(88.859979 0)" xlink:href="#Helvetica-Light-61"/>
     <use transform="translate(171.519962 0)" xlink:href="#Helvetica-Light-49"/>
     <use transform="translate(227.119952 0)" xlink:href="#Helvetica-Light-51"/>
    </g>
   </g>
   <g id="legend_1">
    <g id="line2d_18">
     <path d="M 98.61489 12.08 
L 106.61489 12.08 
" style="fill:none;stroke:#9fa2b2;stroke-linecap:round;stroke-width:0.7;"/>
    </g>
    <g id="line2d_19"/>
    <g id="text_14">
     <!-- $\frac{1}{4}(K+1/K-2)$ -->
     <defs>
      <path d="M 35.796875 17.40625 
L 3.59375 17.40625 
L 3.59375 22.90625 
L 36.40625 69.796875 
L 42.203125 69.796875 
L 42.203125 22.796875 
L 52 22.796875 
L 52 17.40625 
L 42.203125 17.40625 
L 42.203125 0 
L 35.796875 0 
z
M 9.90625 22.796875 
L 35.796875 22.796875 
L 35.796875 60.203125 
z
" id="Helvetica-Light-52"/>
      <path d="M 27.703125 73.90625 
Q 20.5 63.5 16.453125 51.640625 
Q 12.40625 39.796875 12.40625 27.09375 
Q 12.40625 14.59375 16.59375 2.890625 
Q 20.796875 -8.796875 27.703125 -19.09375 
L 22.59375 -19.09375 
Q 18.5 -13.40625 15.296875 -8.046875 
Q 12.09375 -2.703125 9.890625 2.84375 
Q 7.703125 8.40625 6.59375 14.453125 
Q 5.5 20.5 5.5 27.59375 
Q 5.5 34.5 6.640625 40.546875 
Q 7.796875 46.59375 10 52.1875 
Q 12.203125 57.796875 15.34375 63.140625 
Q 18.5 68.5 22.59375 73.90625 
z
" id="Helvetica-Light-40"/>
      <path d="M 30 50 
L 36 50 
L 36 28 
L 58 28 
L 58 22 
L 36 22 
L 36 0 
L 30 0 
L 30 22 
L 8 22 
L 8 28 
L 30 28 
z
" id="Helvetica-Light-43"/>
      <path d="M 5.296875 -9 
L -0.296875 -9 
L 23.203125 73.90625 
L 28.796875 73.90625 
z
" id="Helvetica-Light-47"/>
      <path d="M 8 28 
L 58 28 
L 58 22 
L 8 22 
z
" id="Helvetica-Light-8722"/>
      <path d="M 5.59375 -19.09375 
Q 12.796875 -8.703125 16.84375 3.140625 
Q 20.90625 15 20.90625 27.703125 
Q 20.90625 40.203125 16.703125 51.890625 
Q 12.5 63.59375 5.59375 73.90625 
L 10.703125 73.90625 
Q 14.796875 68.203125 18 62.84375 
Q 21.203125 57.5 23.34375 51.953125 
Q 25.5 46.40625 26.640625 40.34375 
Q 27.796875 34.296875 27.796875 27.203125 
Q 27.796875 20.296875 26.640625 14.25 
Q 25.5 8.203125 23.296875 2.59375 
Q 21.09375 -3 17.890625 -8.34375 
Q 14.703125 -13.703125 10.703125 -19.09375 
z
" id="Helvetica-Light-41"/>
     </defs>
     <g transform="translate(113.01489 14.88)scale(0.08 -0.08)">
      <use transform="translate(0 37.65)scale(0.7)" xlink:href="#Helvetica-Light-49"/>
      <use transform="translate(0 -42.457812)scale(0.7)" xlink:href="#Helvetica-Light-52"/>
      <use transform="translate(51.419994 0.048438)" xlink:href="#Helvetica-Light-40"/>
      <use transform="translate(84.719981 0.048438)" xlink:href="#Helvetica-LightOblique-75"/>
      <use transform="translate(168.079976 0.048438)" xlink:href="#Helvetica-Light-43"/>
      <use transform="translate(250.739958 0.048438)" xlink:href="#Helvetica-Light-49"/>
      <use transform="translate(306.339949 0.048438)" xlink:href="#Helvetica-Light-47"/>
      <use transform="translate(334.139937 0.048438)" xlink:href="#Helvetica-LightOblique-75"/>
      <use transform="translate(417.499931 0.048438)" xlink:href="#Helvetica-Light-8722"/>
      <use transform="translate(500.159914 0.048438)" xlink:href="#Helvetica-Light-50"/>
      <use transform="translate(555.759904 0.048438)" xlink:href="#Helvetica-Light-41"/>
      <path d="M 0 12.65 
L 0 18.9 
L 38.919994 18.9 
L 38.919994 12.65 
L 0 12.65 
z
"/>
     </g>
    </g>
    <g id="LineCollection_7">
     <path d="M 102.61489 29.44 
L 102.61489 21.44 
" style="fill:none;stroke:#9fa2b2;stroke-width:0.7;"/>
    </g>
    <g id="line2d_20"/>
    <g id="line2d_21">
     <g>
      <use style="fill:#9fa2b2;fill-opacity:0.501961;stroke:#9fa2b2;stroke-width:0.7;" x="102.61489" xlink:href="#m5ed68b7278" y="25.44"/>
     </g>
    </g>
    <g id="text_15">
     <!-- $n_{\mathrm{LL}}$ extracted from $s(q/k_{\rm F}=0.15;t)$ -->
     <defs>
      <path d="M 25.203125 22.40625 
L 9.09375 0 
L 1.796875 0 
L 21.703125 26.796875 
L 3.40625 51.796875 
L 10.796875 51.796875 
L 25.09375 31.203125 
L 39.796875 51.796875 
L 47.40625 51.796875 
L 28.703125 26.796875 
L 48.09375 0 
L 40.90625 0 
z
" id="Helvetica-Light-120"/>
      <path d="M 47.203125 26.09375 
Q 47.203125 30.5 46 34.453125 
Q 44.796875 38.40625 42.546875 41.34375 
Q 40.296875 44.296875 37.046875 46.046875 
Q 33.796875 47.796875 29.703125 47.796875 
Q 25 47.796875 21.59375 45.9375 
Q 18.203125 44.09375 16 40.890625 
Q 13.796875 37.703125 12.796875 33.453125 
Q 11.796875 29.203125 12 24.296875 
Q 12 19.40625 13.34375 15.65625 
Q 14.703125 11.90625 17.09375 9.296875 
Q 19.5 6.703125 22.703125 5.34375 
Q 25.90625 4 29.703125 4 
Q 33.90625 4 37.203125 5.703125 
Q 40.5 7.40625 42.703125 10.34375 
Q 44.90625 13.296875 46.046875 17.34375 
Q 47.203125 21.40625 47.203125 26.09375 
z
M 47.203125 72 
L 53.203125 72 
L 53.203125 0 
L 47.203125 0 
L 47.203125 9.09375 
L 47 9.09375 
Q 45.703125 6.5 43.640625 4.546875 
Q 41.59375 2.59375 39.140625 1.296875 
Q 36.703125 0 34.09375 -0.703125 
Q 31.5 -1.40625 29 -1.40625 
Q 22.703125 -1.40625 18.296875 0.6875 
Q 13.90625 2.796875 11.046875 6.4375 
Q 8.203125 10.09375 6.890625 15.09375 
Q 5.59375 20.09375 5.59375 25.796875 
Q 5.59375 31.203125 7 36.203125 
Q 8.40625 41.203125 11.25 44.953125 
Q 14.09375 48.703125 18.4375 50.953125 
Q 22.796875 53.203125 28.703125 53.203125 
Q 34.203125 53.203125 39.25 50.75 
Q 44.296875 48.296875 47.203125 43.5 
z
" id="Helvetica-Light-100"/>
      <path d="M 2 46.796875 
L 2 51.796875 
L 9.703125 51.796875 
L 9.703125 60 
Q 9.703125 66.203125 12.203125 69.796875 
Q 14.703125 73.40625 20.703125 73.40625 
Q 22.09375 73.40625 23.296875 73.296875 
Q 24.5 73.203125 25.703125 73 
L 25.703125 67.5 
Q 23.703125 68 22.09375 68 
Q 19.796875 68 18.5 67.140625 
Q 17.203125 66.296875 16.59375 64.890625 
Q 16 63.5 15.84375 61.75 
Q 15.703125 60 15.703125 58.203125 
L 15.703125 51.796875 
L 25.703125 51.796875 
L 25.703125 46.796875 
L 15.703125 46.796875 
L 15.703125 0 
L 9.703125 0 
L 9.703125 46.796875 
z
" id="Helvetica-Light-102"/>
      <path d="M 14.09375 16.203125 
Q 14.203125 9.5 17.25 6.75 
Q 20.296875 4 27.09375 4 
Q 30.40625 4 32.953125 4.796875 
Q 35.5 5.59375 37.34375 6.9375 
Q 39.203125 8.296875 40.34375 10 
Q 41.5 11.703125 41.90625 13.59375 
Q 42.703125 17.40625 40.640625 19.25 
Q 38.59375 21.09375 35.09375 22.140625 
Q 31.59375 23.203125 27.5 23.953125 
Q 23.40625 24.703125 20 26.203125 
Q 16.59375 27.703125 14.75 30.5 
Q 12.90625 33.296875 14 38.40625 
Q 15.40625 44.90625 21 49.046875 
Q 26.59375 53.203125 35.296875 53.203125 
Q 43.703125 53.203125 48.09375 49.453125 
Q 52.5 45.703125 51.796875 36.90625 
L 45.703125 36.90625 
Q 46.09375 42.90625 42.890625 45.34375 
Q 39.703125 47.796875 34.09375 47.796875 
Q 28.40625 47.796875 24.84375 45.34375 
Q 21.296875 42.90625 20.5 38.90625 
Q 19.90625 36.296875 21 34.59375 
Q 22.09375 32.90625 24.1875 31.796875 
Q 26.296875 30.703125 29.09375 29.953125 
Q 31.90625 29.203125 34.84375 28.453125 
Q 37.796875 27.703125 40.546875 26.703125 
Q 43.296875 25.703125 45.296875 24.046875 
Q 47.296875 22.40625 48.1875 19.90625 
Q 49.09375 17.40625 48.296875 13.703125 
Q 47.5 10 45.34375 7.140625 
Q 43.203125 4.296875 39.953125 2.390625 
Q 36.703125 0.5 32.640625 -0.453125 
Q 28.59375 -1.40625 24 -1.40625 
Q 19.40625 -1.40625 16.15625 -0.046875 
Q 12.90625 1.296875 10.90625 3.6875 
Q 8.90625 6.09375 8.15625 9.296875 
Q 7.40625 12.5 8 16.203125 
z
" id="Helvetica-LightOblique-115"/>
      <path d="M 6.796875 0 
L 22.09375 72 
L 28.09375 72 
L 18.59375 27.203125 
L 49.203125 51.796875 
L 57.40625 51.796875 
L 34 33.09375 
L 48.703125 0 
L 42 0 
L 28.703125 28.90625 
L 17 19.59375 
L 12.796875 0 
z
" id="Helvetica-LightOblique-107"/>
      <path d="M 7.40625 0 
L 7.40625 72 
L 53.796875 72 
L 53.796875 66.203125 
L 14.203125 66.203125 
L 14.203125 40.203125 
L 50.203125 40.203125 
L 50.203125 34.40625 
L 14.203125 34.40625 
L 14.203125 0 
z
" id="Helvetica-Light-70"/>
      <path d="M 17.5 -3 
Q 17.5 -7.40625 15.453125 -10.046875 
Q 13.40625 -12.703125 10.203125 -13.703125 
L 10.203125 -10 
Q 11.40625 -9.203125 12.5 -7.796875 
Q 13.59375 -6.40625 13.59375 -3.40625 
L 13.59375 0 
L 10.203125 0 
L 10.203125 8.796875 
L 17.5 8.796875 
z
M 10.203125 40.40625 
L 10.203125 49.203125 
L 17.5 49.203125 
L 17.5 40.40625 
z
" id="Helvetica-Light-59"/>
      <path d="M 25.40625 -0.203125 
Q 24.296875 -0.40625 22.34375 -0.90625 
Q 20.40625 -1.40625 18.203125 -1.40625 
Q 13.703125 -1.40625 11.84375 0.84375 
Q 10 3.09375 11.203125 8.90625 
L 19.203125 46.796875 
L 11.90625 46.796875 
L 13 51.796875 
L 20.296875 51.796875 
L 23.40625 66.203125 
L 29.40625 66.203125 
L 26.296875 51.796875 
L 36 51.796875 
L 34.90625 46.796875 
L 25.203125 46.796875 
L 17.703125 11.296875 
Q 17.296875 9.40625 17.09375 8 
Q 16.90625 6.59375 17.25 5.6875 
Q 17.59375 4.796875 18.546875 4.390625 
Q 19.5 4 21.40625 4 
Q 22.59375 4 23.84375 4.203125 
Q 25.09375 4.40625 26.40625 4.703125 
z
" id="Helvetica-LightOblique-116"/>
     </defs>
     <g transform="translate(113.01489 28.24)scale(0.08 -0.08)">
      <use transform="translate(0 0.09375)" xlink:href="#Helvetica-LightOblique-110"/>
      <use transform="translate(55.599991 -15.445312)scale(0.7)" xlink:href="#Helvetica-Light-76"/>
      <use transform="translate(94.519984 -15.445312)scale(0.7)" xlink:href="#Helvetica-Light-76"/>
      <use transform="translate(136.029822 0.09375)" xlink:href="#Helvetica-Light-32"/>
      <use transform="translate(163.82981 0.09375)" xlink:href="#Helvetica-Light-101"/>
      <use transform="translate(219.4298 0.09375)" xlink:href="#Helvetica-Light-120"/>
      <use transform="translate(269.429785 0.09375)" xlink:href="#Helvetica-Light-116"/>
      <use transform="translate(297.229773 0.09375)" xlink:href="#Helvetica-Light-114"/>
      <use transform="translate(330.529761 0.09375)" xlink:href="#Helvetica-Light-97"/>
      <use transform="translate(386.129752 0.09375)" xlink:href="#Helvetica-Light-99"/>
      <use transform="translate(441.729742 0.09375)" xlink:href="#Helvetica-Light-116"/>
      <use transform="translate(469.52973 0.09375)" xlink:href="#Helvetica-Light-101"/>
      <use transform="translate(525.129721 0.09375)" xlink:href="#Helvetica-Light-100"/>
      <use transform="translate(586.229712 0.09375)" xlink:href="#Helvetica-Light-32"/>
      <use transform="translate(614.0297 0.09375)" xlink:href="#Helvetica-Light-102"/>
      <use transform="translate(641.829687 0.09375)" xlink:href="#Helvetica-Light-114"/>
      <use transform="translate(675.129675 0.09375)" xlink:href="#Helvetica-Light-111"/>
      <use transform="translate(730.729666 0.09375)" xlink:href="#Helvetica-Light-109"/>
      <use transform="translate(814.029654 0.09375)" xlink:href="#Helvetica-Light-32"/>
      <use transform="translate(841.829642 0.09375)" xlink:href="#Helvetica-LightOblique-115"/>
      <use transform="translate(891.829626 0.09375)" xlink:href="#Helvetica-Light-40"/>
      <use transform="translate(925.129614 0.09375)" xlink:href="#Helvetica-LightOblique-113"/>
      <use transform="translate(986.229605 0.09375)" xlink:href="#Helvetica-Light-47"/>
      <use transform="translate(1014.029593 0.09375)" xlink:href="#Helvetica-LightOblique-107"/>
      <use transform="translate(1064.029578 -15.445312)scale(0.7)" xlink:href="#Helvetica-Light-70"/>
      <use transform="translate(1122.199413 0.09375)" xlink:href="#Helvetica-Light-61"/>
      <use transform="translate(1204.859395 0.09375)" xlink:href="#Helvetica-Light-48"/>
      <use transform="translate(1260.459386 0.09375)" xlink:href="#Helvetica-Light-46"/>
      <use transform="translate(1288.259373 0.09375)" xlink:href="#Helvetica-Light-49"/>
      <use transform="translate(1343.859364 0.09375)" xlink:href="#Helvetica-Light-53"/>
      <use transform="translate(1399.459355 0.09375)" xlink:href="#Helvetica-Light-59"/>
      <use transform="translate(1443.919341 0.09375)" xlink:href="#Helvetica-LightOblique-116"/>
      <use transform="translate(1471.719328 0.09375)" xlink:href="#Helvetica-Light-41"/>
     </g>
    </g>
   </g>
  </g>
 </g>
 <defs>
  <clipPath id="p4b7c8393f4">
   <rect height="116.630791" width="196.06464" x="44.63025" y="0.72"/>
  </clipPath>
 </defs>
</svg>
