<?xml version="1.0" encoding="utf-8" standalone="no"?>
<!DOCTYPE svg PUBLIC "-//W3C//DTD SVG 1.1//EN"
  "http://www.w3.org/Graphics/SVG/1.1/DTD/svg11.dtd">
<!-- Created with matplotlib (https://matplotlib.org/) -->
<svg height="140.063291pt" version="1.1" viewBox="0 0 227.46339 140.063291" width="227.46339pt" xmlns="http://www.w3.org/2000/svg" xmlns:xlink="http://www.w3.org/1999/xlink">
 <defs>
  <style type="text/css">
*{stroke-linecap:butt;stroke-linejoin:round;}
  </style>
 </defs>
 <g id="figure_1">
  <g id="patch_1">
   <path d="M 0 140.063291 
L 227.46339 140.063291 
L 227.46339 0 
L 0 0 
z
" style="fill:none;"/>
  </g>
  <g id="axes_1">
   <g id="patch_2">
    <path d="M 30.67875 117.350791 
L 226.74339 117.350791 
L 226.74339 0.72 
L 30.67875 0.72 
z
" style="fill:none;"/>
   </g>
   <g id="line2d_1">
    <path clip-path="url(#pea256e388c)" d="M 30.67875 117.350791 
L 228.46339 19.125389 
L 228.46339 19.125389 
" style="fill:none;stroke:#4b90a5;stroke-linecap:round;stroke-width:0.7;"/>
   </g>
   <g id="matplotlib.axis_1">
    <g id="xtick_1">
     <g id="line2d_2">
      <defs>
       <path d="M 0 0 
L 0 2 
" id="m043bdef7fb" style="stroke:#000000;stroke-width:0.35;"/>
      </defs>
      <g>
       <use style="stroke:#000000;stroke-width:0.35;" x="30.67875" xlink:href="#m043bdef7fb" y="117.350791"/>
      </g>
     </g>
     <g id="text_1">
      <!-- 0.0 -->
      <defs>
       <path d="M 45.203125 34.703125 
Q 45.203125 40.40625 44.546875 45.84375 
Q 43.90625 51.296875 42 55.59375 
Q 40.09375 59.90625 36.640625 62.5 
Q 33.203125 65.09375 27.59375 65.09375 
Q 22.296875 65.09375 18.9375 62.4375 
Q 15.59375 59.796875 13.6875 55.390625 
Q 11.796875 51 11.046875 45.390625 
Q 10.296875 39.796875 10.296875 34 
Q 10.296875 27.203125 11.140625 21.640625 
Q 12 16.09375 14 12.1875 
Q 16 8.296875 19.34375 6.140625 
Q 22.703125 4 27.796875 4 
Q 33.5 4 36.953125 6.796875 
Q 40.40625 9.59375 42.203125 14 
Q 44 18.40625 44.59375 23.90625 
Q 45.203125 29.40625 45.203125 34.703125 
z
M 27.796875 70.5 
Q 33 70.5 36.796875 68.953125 
Q 40.59375 67.40625 43.25 64.703125 
Q 45.90625 62 47.546875 58.390625 
Q 49.203125 54.796875 50.09375 50.75 
Q 51 46.703125 51.296875 42.390625 
Q 51.59375 38.09375 51.59375 34 
Q 51.59375 27 50.59375 20.59375 
Q 49.59375 14.203125 46.9375 9.296875 
Q 44.296875 4.40625 39.6875 1.5 
Q 35.09375 -1.40625 27.796875 -1.40625 
Q 20.5 -1.40625 15.84375 1.5 
Q 11.203125 4.40625 8.546875 9.34375 
Q 5.90625 14.296875 4.90625 20.84375 
Q 3.90625 27.40625 3.90625 34.703125 
Q 3.90625 41.40625 4.796875 47.796875 
Q 5.703125 54.203125 8.25 59.25 
Q 10.796875 64.296875 15.5 67.390625 
Q 20.203125 70.5 27.796875 70.5 
z
" id="Helvetica-Light-48"/>
       <path d="M 10.203125 0 
L 10.203125 8.796875 
L 17.5 8.796875 
L 17.5 0 
z
" id="Helvetica-Light-46"/>
      </defs>
      <g transform="translate(25.119375 128.110791)scale(0.08 -0.08)">
       <use xlink:href="#Helvetica-Light-48"/>
       <use x="55.599991" xlink:href="#Helvetica-Light-46"/>
       <use x="83.399979" xlink:href="#Helvetica-Light-48"/>
      </g>
     </g>
    </g>
    <g id="xtick_2">
     <g id="line2d_3">
      <g>
       <use style="stroke:#000000;stroke-width:0.35;" x="71.52555" xlink:href="#m043bdef7fb" y="117.350791"/>
      </g>
     </g>
     <g id="text_2">
      <!-- 0.1 -->
      <defs>
       <path d="M 30.203125 52.40625 
L 12 52.40625 
L 12 56.59375 
Q 16 56.90625 19.25 57.40625 
Q 22.5 57.90625 24.953125 59.296875 
Q 27.40625 60.703125 29.046875 63.34375 
Q 30.703125 66 31.5 70.5 
L 36.59375 70.5 
L 36.59375 0 
L 30.203125 0 
z
" id="Helvetica-Light-49"/>
      </defs>
      <g transform="translate(65.966175 128.110791)scale(0.08 -0.08)">
       <use xlink:href="#Helvetica-Light-48"/>
       <use x="55.599991" xlink:href="#Helvetica-Light-46"/>
       <use x="83.399979" xlink:href="#Helvetica-Light-49"/>
      </g>
     </g>
    </g>
    <g id="xtick_3">
     <g id="line2d_4">
      <g>
       <use style="stroke:#000000;stroke-width:0.35;" x="112.37235" xlink:href="#m043bdef7fb" y="117.350791"/>
      </g>
     </g>
     <g id="text_3">
      <!-- 0.2 -->
      <defs>
       <path d="M 6.90625 47.40625 
Q 6.90625 52.59375 8.5 56.84375 
Q 10.09375 61.09375 13.09375 64.140625 
Q 16.09375 67.203125 20.34375 68.84375 
Q 24.59375 70.5 29.796875 70.5 
Q 35.09375 70.5 39.140625 68.953125 
Q 43.203125 67.40625 45.953125 64.796875 
Q 48.703125 62.203125 50.09375 58.59375 
Q 51.5 55 51.5 51 
Q 51.5 46.296875 49.953125 42.6875 
Q 48.40625 39.09375 45.84375 36.296875 
Q 43.296875 33.5 40.046875 31.296875 
Q 36.796875 29.09375 33.390625 27.140625 
Q 30 25.203125 26.703125 23.390625 
Q 23.40625 21.59375 20.796875 19.59375 
Q 19.09375 18.296875 17.5 16.84375 
Q 15.90625 15.40625 14.59375 13.703125 
Q 13.296875 12 12.5 9.953125 
Q 11.703125 7.90625 11.59375 5.40625 
L 50.90625 5.40625 
L 50.90625 0 
L 4.796875 0 
Q 4.90625 5.09375 5.90625 9.1875 
Q 6.90625 13.296875 10.296875 17.203125 
Q 14 21.40625 17.953125 24.40625 
Q 21.90625 27.40625 25.703125 29.75 
Q 29.5 32.09375 32.890625 34.046875 
Q 36.296875 36 38.890625 38.296875 
Q 41.5 40.59375 43 43.5 
Q 44.5 46.40625 44.5 50.59375 
Q 44.5 54 43.296875 56.703125 
Q 42.09375 59.40625 40 61.296875 
Q 37.90625 63.203125 35.09375 64.140625 
Q 32.296875 65.09375 29 65.09375 
Q 25.5 65.09375 22.640625 63.640625 
Q 19.796875 62.203125 17.75 59.796875 
Q 15.703125 57.40625 14.59375 54.203125 
Q 13.5 51 13.703125 47.40625 
z
" id="Helvetica-Light-50"/>
      </defs>
      <g transform="translate(106.812975 128.110791)scale(0.08 -0.08)">
       <use xlink:href="#Helvetica-Light-48"/>
       <use x="55.599991" xlink:href="#Helvetica-Light-46"/>
       <use x="83.399979" xlink:href="#Helvetica-Light-50"/>
      </g>
     </g>
    </g>
    <g id="xtick_4">
     <g id="line2d_5">
      <g>
       <use style="stroke:#000000;stroke-width:0.35;" x="153.21915" xlink:href="#m043bdef7fb" y="117.350791"/>
      </g>
     </g>
     <g id="text_4">
      <!-- 0.3 -->
      <defs>
       <path d="M 22.09375 39.203125 
Q 26.59375 39.203125 30.296875 39.75 
Q 34 40.296875 36.640625 41.84375 
Q 39.296875 43.40625 40.796875 46 
Q 42.296875 48.59375 42.296875 52.703125 
Q 42.296875 56 41.09375 58.34375 
Q 39.90625 60.703125 37.84375 62.203125 
Q 35.796875 63.703125 33.046875 64.390625 
Q 30.296875 65.09375 27.296875 65.09375 
Q 23.90625 65.09375 21.15625 64 
Q 18.40625 62.90625 16.40625 60.84375 
Q 14.40625 58.796875 13.296875 56.046875 
Q 12.203125 53.296875 12.203125 50 
L 5.796875 50 
Q 5.796875 54.796875 7.4375 58.640625 
Q 9.09375 62.5 12.59375 65.796875 
Q 15.90625 68.796875 20.046875 69.640625 
Q 24.203125 70.5 28.59375 70.5 
Q 32.796875 70.5 36.4375 69.453125 
Q 40.09375 68.40625 42.796875 66.25 
Q 45.5 64.09375 47.09375 60.796875 
Q 48.703125 57.5 48.703125 53.09375 
Q 48.703125 47.59375 46.25 43.59375 
Q 43.796875 39.59375 38.703125 37.40625 
Q 42.5 36.203125 44.953125 34.25 
Q 47.40625 32.296875 48.796875 29.9375 
Q 50.203125 27.59375 50.703125 25 
Q 51.203125 22.40625 51.203125 20 
Q 51.203125 15.59375 49.703125 11.796875 
Q 48.203125 8 45.296875 5.09375 
Q 42.40625 2.203125 38.15625 0.453125 
Q 33.90625 -1.296875 28.5 -1.40625 
Q 22.40625 -1.40625 17.90625 -0.296875 
Q 13.40625 0.796875 10.40625 3.34375 
Q 7.40625 5.90625 5.703125 10.046875 
Q 4 14.203125 3.40625 20.40625 
L 9.796875 20.40625 
Q 9.796875 12.296875 14.640625 8.140625 
Q 19.5 4 27.296875 4 
Q 31.09375 4 34.390625 5.296875 
Q 37.703125 6.59375 40.046875 8.796875 
Q 42.40625 11 43.65625 13.890625 
Q 44.90625 16.796875 44.796875 19.90625 
Q 44.59375 24.203125 42.796875 27.046875 
Q 41 29.90625 37.953125 31.546875 
Q 34.90625 33.203125 30.796875 33.75 
Q 26.703125 34.296875 22.09375 34 
z
" id="Helvetica-Light-51"/>
      </defs>
      <g transform="translate(147.659775 128.110791)scale(0.08 -0.08)">
       <use xlink:href="#Helvetica-Light-48"/>
       <use x="55.599991" xlink:href="#Helvetica-Light-46"/>
       <use x="83.399979" xlink:href="#Helvetica-Light-51"/>
      </g>
     </g>
    </g>
    <g id="xtick_5">
     <g id="line2d_6">
      <g>
       <use style="stroke:#000000;stroke-width:0.35;" x="194.06595" xlink:href="#m043bdef7fb" y="117.350791"/>
      </g>
     </g>
     <g id="text_5">
      <!-- 0.4 -->
      <defs>
       <path d="M 35.796875 17.40625 
L 3.59375 17.40625 
L 3.59375 22.90625 
L 36.40625 69.796875 
L 42.203125 69.796875 
L 42.203125 22.796875 
L 52 22.796875 
L 52 17.40625 
L 42.203125 17.40625 
L 42.203125 0 
L 35.796875 0 
z
M 9.90625 22.796875 
L 35.796875 22.796875 
L 35.796875 60.203125 
z
" id="Helvetica-Light-52"/>
      </defs>
      <g transform="translate(188.506575 128.110791)scale(0.08 -0.08)">
       <use xlink:href="#Helvetica-Light-48"/>
       <use x="55.599991" xlink:href="#Helvetica-Light-46"/>
       <use x="83.399979" xlink:href="#Helvetica-Light-52"/>
      </g>
     </g>
    </g>
    <g id="text_6">
     <!-- Wavevector  $q/k_{\rm F}$ -->
     <defs>
      <path d="M 64.59375 9.59375 
L 64.796875 9.59375 
L 80.5 72 
L 87.5 72 
L 68.59375 0 
L 61.09375 0 
L 44.40625 63.59375 
L 44.203125 63.59375 
L 27.5 0 
L 20 0 
L 1.40625 72 
L 8.203125 72 
L 23.703125 9.59375 
L 23.90625 9.59375 
L 40.59375 72 
L 48.203125 72 
z
" id="Helvetica-Light-87"/>
      <path d="M 41.09375 27.203125 
Q 37.296875 25.59375 33.390625 25.09375 
Q 29.5 24.59375 25.59375 24.296875 
Q 18.703125 23.796875 14.84375 21.1875 
Q 11 18.59375 11 13.296875 
Q 11 10.90625 11.953125 9.15625 
Q 12.90625 7.40625 14.453125 6.25 
Q 16 5.09375 18.046875 4.546875 
Q 20.09375 4 22.203125 4 
Q 25.796875 4 29.1875 4.890625 
Q 32.59375 5.796875 35.25 7.640625 
Q 37.90625 9.5 39.5 12.34375 
Q 41.09375 15.203125 41.09375 19.09375 
z
M 31 30.203125 
Q 32.703125 30.40625 35.046875 30.796875 
Q 37.40625 31.203125 38.90625 31.90625 
Q 40.40625 32.59375 40.75 34.25 
Q 41.09375 35.90625 41.09375 37.296875 
Q 41.09375 41.90625 38.140625 44.84375 
Q 35.203125 47.796875 28.203125 47.796875 
Q 25.09375 47.796875 22.5 47.25 
Q 19.90625 46.703125 17.953125 45.34375 
Q 16 44 14.75 41.75 
Q 13.5 39.5 13.09375 36.09375 
L 7 36.09375 
Q 7.296875 40.703125 9.09375 43.953125 
Q 10.90625 47.203125 13.75 49.25 
Q 16.59375 51.296875 20.34375 52.25 
Q 24.09375 53.203125 28.296875 53.203125 
Q 32.203125 53.203125 35.640625 52.34375 
Q 39.09375 51.5 41.640625 49.640625 
Q 44.203125 47.796875 45.640625 44.6875 
Q 47.09375 41.59375 47.09375 37.09375 
L 47.09375 8.90625 
Q 47.09375 5.40625 48.34375 4.453125 
Q 49.59375 3.5 53.40625 4.90625 
L 53.40625 0.203125 
Q 52.703125 0 51.34375 -0.390625 
Q 50 -0.796875 48.703125 -0.796875 
Q 47.296875 -0.796875 46 -0.5 
Q 44.5 -0.296875 43.59375 0.453125 
Q 42.703125 1.203125 42.140625 2.25 
Q 41.59375 3.296875 41.390625 4.546875 
Q 41.203125 5.796875 41.203125 7.203125 
Q 37.40625 3 32.5 0.796875 
Q 27.59375 -1.40625 21.90625 -1.40625 
Q 18.5 -1.40625 15.34375 -0.5 
Q 12.203125 0.40625 9.796875 2.296875 
Q 7.40625 4.203125 6 6.953125 
Q 4.59375 9.703125 4.59375 13.5 
Q 4.59375 26.703125 22.703125 29.09375 
z
" id="Helvetica-Light-97"/>
      <path d="M 1.703125 51.796875 
L 8.203125 51.796875 
L 25 7.40625 
L 41.796875 51.796875 
L 48.296875 51.796875 
L 28.203125 0 
L 21.5 0 
z
" id="Helvetica-Light-118"/>
      <path d="M 44.703125 29.5 
Q 44.703125 33.296875 43.640625 36.640625 
Q 42.59375 40 40.546875 42.453125 
Q 38.5 44.90625 35.390625 46.34375 
Q 32.296875 47.796875 28.296875 47.796875 
Q 24.296875 47.796875 21.25 46.296875 
Q 18.203125 44.796875 16.046875 42.296875 
Q 13.90625 39.796875 12.59375 36.5 
Q 11.296875 33.203125 10.90625 29.5 
z
M 10.90625 24.5 
Q 10.90625 20.296875 12 16.546875 
Q 13.09375 12.796875 15.25 10.046875 
Q 17.40625 7.296875 20.703125 5.640625 
Q 24 4 28.296875 4 
Q 34.203125 4 38.390625 7.09375 
Q 42.59375 10.203125 44 15.90625 
L 50.703125 15.90625 
Q 49.59375 12.203125 47.796875 9.046875 
Q 46 5.90625 43.296875 3.546875 
Q 40.59375 1.203125 36.890625 -0.09375 
Q 33.203125 -1.40625 28.296875 -1.40625 
Q 22.09375 -1.40625 17.59375 0.6875 
Q 13.09375 2.796875 10.1875 6.4375 
Q 7.296875 10.09375 5.890625 15.046875 
Q 4.5 20 4.5 25.703125 
Q 4.5 31.40625 6.140625 36.40625 
Q 7.796875 41.40625 10.84375 45.15625 
Q 13.90625 48.90625 18.296875 51.046875 
Q 22.703125 53.203125 28.296875 53.203125 
Q 39 53.203125 45.09375 45.84375 
Q 51.203125 38.5 51.09375 24.5 
z
" id="Helvetica-Light-101"/>
      <path d="M 43.90625 35.5 
Q 42.296875 41.296875 38.390625 44.546875 
Q 34.5 47.796875 28.5 47.796875 
Q 23.90625 47.796875 20.59375 45.890625 
Q 17.296875 44 15.1875 40.84375 
Q 13.09375 37.703125 12.09375 33.75 
Q 11.09375 29.796875 11.09375 25.796875 
Q 11.09375 21.703125 12.046875 17.796875 
Q 13 13.90625 15.09375 10.796875 
Q 17.203125 7.703125 20.5 5.84375 
Q 23.796875 4 28.5 4 
Q 35.203125 4 39.25 7.703125 
Q 43.296875 11.40625 44.40625 17.90625 
L 50.796875 17.90625 
Q 50 13.59375 48.25 10.046875 
Q 46.5 6.5 43.75 3.953125 
Q 41 1.40625 37.203125 0 
Q 33.40625 -1.40625 28.5 -1.40625 
Q 22.296875 -1.40625 17.796875 0.6875 
Q 13.296875 2.796875 10.390625 6.4375 
Q 7.5 10.09375 6.09375 15.09375 
Q 4.703125 20.09375 4.703125 25.796875 
Q 4.703125 31.203125 6.25 36.140625 
Q 7.796875 41.09375 10.796875 44.890625 
Q 13.796875 48.703125 18.25 50.953125 
Q 22.703125 53.203125 28.5 53.203125 
Q 37.5 53.203125 43.046875 48.890625 
Q 48.59375 44.59375 50 35.5 
z
" id="Helvetica-Light-99"/>
      <path d="M 25.40625 -0.203125 
Q 24.296875 -0.40625 22.5 -0.90625 
Q 20.703125 -1.40625 18.5 -1.40625 
Q 14 -1.40625 11.640625 0.84375 
Q 9.296875 3.09375 9.296875 8.90625 
L 9.296875 46.796875 
L 2 46.796875 
L 2 51.796875 
L 9.296875 51.796875 
L 9.296875 66.203125 
L 15.296875 66.203125 
L 15.296875 51.796875 
L 25 51.796875 
L 25 46.796875 
L 15.296875 46.796875 
L 15.296875 11.296875 
Q 15.296875 9.40625 15.390625 8 
Q 15.5 6.59375 16 5.6875 
Q 16.5 4.796875 17.546875 4.390625 
Q 18.59375 4 20.5 4 
Q 21.703125 4 22.953125 4.203125 
Q 24.203125 4.40625 25.40625 4.703125 
z
" id="Helvetica-Light-116"/>
      <path d="M 27.796875 -1.40625 
Q 22.796875 -1.296875 18.4375 0.390625 
Q 14.09375 2.09375 10.84375 5.5 
Q 7.59375 8.90625 5.6875 14 
Q 3.796875 19.09375 3.796875 25.90625 
Q 3.796875 31.59375 5.296875 36.546875 
Q 6.796875 41.5 9.796875 45.203125 
Q 12.796875 48.90625 17.296875 51.046875 
Q 21.796875 53.203125 27.796875 53.203125 
Q 33.90625 53.203125 38.40625 51.046875 
Q 42.90625 48.90625 45.90625 45.25 
Q 48.90625 41.59375 50.34375 36.59375 
Q 51.796875 31.59375 51.796875 25.90625 
Q 51.796875 19.703125 50.09375 14.703125 
Q 48.40625 9.703125 45.25 6.09375 
Q 42.09375 2.5 37.640625 0.546875 
Q 33.203125 -1.40625 27.796875 -1.40625 
z
M 45.40625 25.90625 
Q 45.40625 30.5 44.40625 34.5 
Q 43.40625 38.5 41.296875 41.453125 
Q 39.203125 44.40625 35.890625 46.09375 
Q 32.59375 47.796875 27.796875 47.796875 
Q 23.09375 47.796875 19.75 45.9375 
Q 16.40625 44.09375 14.296875 41.046875 
Q 12.203125 38 11.203125 34.046875 
Q 10.203125 30.09375 10.203125 25.90625 
Q 10.203125 21.09375 11.34375 17.046875 
Q 12.5 13 14.703125 10.09375 
Q 16.90625 7.203125 20.203125 5.59375 
Q 23.5 4 27.796875 4 
Q 32.5 4 35.84375 5.84375 
Q 39.203125 7.703125 41.296875 10.796875 
Q 43.40625 13.90625 44.40625 17.796875 
Q 45.40625 21.703125 45.40625 25.90625 
z
" id="Helvetica-Light-111"/>
      <path d="M 13.5 0 
L 7.5 0 
L 7.5 51.796875 
L 13.5 51.796875 
L 13.5 42.09375 
L 13.703125 42.09375 
Q 16.203125 48.296875 20.140625 50.75 
Q 24.09375 53.203125 30.59375 53.203125 
L 30.59375 46.703125 
Q 25.5 46.796875 22.203125 45.09375 
Q 18.90625 43.40625 16.953125 40.5 
Q 15 37.59375 14.25 33.640625 
Q 13.5 29.703125 13.5 25.40625 
z
" id="Helvetica-Light-114"/>
      <path id="Helvetica-Light-32"/>
      <path d="M 52.703125 26.09375 
Q 53.59375 30.5 53.25 34.453125 
Q 52.90625 38.40625 51.296875 41.34375 
Q 49.703125 44.296875 46.84375 46.046875 
Q 44 47.796875 39.90625 47.796875 
Q 35.203125 47.796875 31.390625 45.9375 
Q 27.59375 44.09375 24.6875 40.890625 
Q 21.796875 37.703125 19.890625 33.453125 
Q 18 29.203125 17.203125 24.296875 
Q 16.203125 19.40625 16.75 15.65625 
Q 17.296875 11.90625 19.09375 9.296875 
Q 20.90625 6.703125 23.84375 5.34375 
Q 26.796875 4 30.59375 4 
Q 34.796875 4 38.4375 5.703125 
Q 42.09375 7.40625 44.9375 10.34375 
Q 47.796875 13.296875 49.75 17.34375 
Q 51.703125 21.40625 52.703125 26.09375 
z
M 58.203125 51.796875 
L 64.203125 51.796875 
L 48.90625 -20.40625 
L 42.90625 -20.40625 
L 49 8.296875 
Q 45.09375 3.5 39.5 1.046875 
Q 33.90625 -1.40625 28.40625 -1.40625 
Q 22.5 -1.40625 18.59375 0.84375 
Q 14.703125 3.09375 12.640625 6.84375 
Q 10.59375 10.59375 10.25 15.59375 
Q 9.90625 20.59375 11.09375 26 
Q 12.296875 31.703125 14.6875 36.703125 
Q 17.09375 41.703125 20.6875 45.34375 
Q 24.296875 49 29.140625 51.09375 
Q 34 53.203125 40.296875 53.203125 
Q 42.796875 53.203125 45.25 52.5 
Q 47.703125 51.796875 49.84375 50.5 
Q 52 49.203125 53.640625 47.203125 
Q 55.296875 45.203125 56.09375 42.703125 
L 56.296875 42.703125 
z
" id="Helvetica-LightOblique-113"/>
      <path d="M 5.296875 -9 
L -0.296875 -9 
L 23.203125 73.90625 
L 28.796875 73.90625 
z
" id="Helvetica-Light-47"/>
      <path d="M 6.796875 0 
L 22.09375 72 
L 28.09375 72 
L 18.59375 27.203125 
L 49.203125 51.796875 
L 57.40625 51.796875 
L 34 33.09375 
L 48.703125 0 
L 42 0 
L 28.703125 28.90625 
L 17 19.59375 
L 12.796875 0 
z
" id="Helvetica-LightOblique-107"/>
      <path d="M 7.40625 0 
L 7.40625 72 
L 53.796875 72 
L 53.796875 66.203125 
L 14.203125 66.203125 
L 14.203125 40.203125 
L 50.203125 40.203125 
L 50.203125 34.40625 
L 14.203125 34.40625 
L 14.203125 0 
z
" id="Helvetica-Light-70"/>
     </defs>
     <g transform="translate(98.11107 137.663291)scale(0.08 -0.08)">
      <use transform="translate(0 0.09375)" xlink:href="#Helvetica-Light-87"/>
      <use transform="translate(88.899994 0.09375)" xlink:href="#Helvetica-Light-97"/>
      <use transform="translate(144.499985 0.09375)" xlink:href="#Helvetica-Light-118"/>
      <use transform="translate(194.499969 0.09375)" xlink:href="#Helvetica-Light-101"/>
      <use transform="translate(250.09996 0.09375)" xlink:href="#Helvetica-Light-118"/>
      <use transform="translate(300.099945 0.09375)" xlink:href="#Helvetica-Light-101"/>
      <use transform="translate(355.699936 0.09375)" xlink:href="#Helvetica-Light-99"/>
      <use transform="translate(411.299927 0.09375)" xlink:href="#Helvetica-Light-116"/>
      <use transform="translate(439.099915 0.09375)" xlink:href="#Helvetica-Light-111"/>
      <use transform="translate(494.699905 0.09375)" xlink:href="#Helvetica-Light-114"/>
      <use transform="translate(527.999893 0.09375)" xlink:href="#Helvetica-Light-32"/>
      <use transform="translate(555.799881 0.09375)" xlink:href="#Helvetica-Light-32"/>
      <use transform="translate(583.599869 0.09375)" xlink:href="#Helvetica-LightOblique-113"/>
      <use transform="translate(644.69986 0.09375)" xlink:href="#Helvetica-Light-47"/>
      <use transform="translate(672.499847 0.09375)" xlink:href="#Helvetica-LightOblique-107"/>
      <use transform="translate(722.499832 -15.445312)scale(0.7)" xlink:href="#Helvetica-Light-70"/>
     </g>
    </g>
   </g>
   <g id="matplotlib.axis_2">
    <g id="ytick_1">
     <g id="line2d_7">
      <defs>
       <path d="M 0 0 
L -2 0 
" id="md7379a5e92" style="stroke:#000000;stroke-width:0.35;"/>
      </defs>
      <g>
       <use style="stroke:#000000;stroke-width:0.35;" x="30.67875" xlink:href="#md7379a5e92" y="117.350791"/>
      </g>
     </g>
     <g id="text_7">
      <!-- 0.00 -->
      <g transform="translate(10.1125 120.230791)scale(0.08 -0.08)">
       <use xlink:href="#Helvetica-Light-48"/>
       <use x="55.599991" xlink:href="#Helvetica-Light-46"/>
       <use x="83.399979" xlink:href="#Helvetica-Light-48"/>
       <use x="138.999969" xlink:href="#Helvetica-Light-48"/>
      </g>
     </g>
    </g>
    <g id="ytick_2">
     <g id="line2d_8">
      <g>
       <use style="stroke:#000000;stroke-width:0.35;" x="30.67875" xlink:href="#md7379a5e92" y="91.996271"/>
      </g>
     </g>
     <g id="text_8">
      <!-- 0.05 -->
      <defs>
       <path d="M 9.90625 18.296875 
Q 10.90625 11.09375 15.65625 7.546875 
Q 20.40625 4 27.296875 4 
Q 31.203125 4 34.34375 5.390625 
Q 37.5 6.796875 39.703125 9.25 
Q 41.90625 11.703125 43.046875 14.953125 
Q 44.203125 18.203125 44.203125 22 
Q 44.203125 25.90625 42.953125 29.203125 
Q 41.703125 32.5 39.453125 34.890625 
Q 37.203125 37.296875 33.953125 38.59375 
Q 30.703125 39.90625 26.703125 39.90625 
Q 21.90625 39.90625 18.09375 38.15625 
Q 14.296875 36.40625 11.40625 32.59375 
L 6.09375 33.296875 
L 11.796875 69.796875 
L 46.796875 69.796875 
L 46.796875 64.40625 
L 17.203125 64.40625 
L 12.796875 40.703125 
Q 14.90625 42 16.65625 42.890625 
Q 18.40625 43.796875 20.203125 44.34375 
Q 22 44.90625 23.953125 45.09375 
Q 25.90625 45.296875 28.296875 45.296875 
Q 33.09375 45.296875 37.1875 43.6875 
Q 41.296875 42.09375 44.296875 39.09375 
Q 47.296875 36.09375 48.9375 31.75 
Q 50.59375 27.40625 50.59375 22 
Q 50.59375 16.40625 48.75 12.046875 
Q 46.90625 7.703125 43.796875 4.703125 
Q 40.703125 1.703125 36.640625 0.140625 
Q 32.59375 -1.40625 28.296875 -1.40625 
Q 23.296875 -1.40625 18.9375 -0.40625 
Q 14.59375 0.59375 11.296875 2.9375 
Q 8 5.296875 5.953125 9.046875 
Q 3.90625 12.796875 3.5 18.296875 
z
" id="Helvetica-Light-53"/>
      </defs>
      <g transform="translate(10.1125 94.876271)scale(0.08 -0.08)">
       <use xlink:href="#Helvetica-Light-48"/>
       <use x="55.599991" xlink:href="#Helvetica-Light-46"/>
       <use x="83.399979" xlink:href="#Helvetica-Light-48"/>
       <use x="138.999969" xlink:href="#Helvetica-Light-53"/>
      </g>
     </g>
    </g>
    <g id="ytick_3">
     <g id="line2d_9">
      <g>
       <use style="stroke:#000000;stroke-width:0.35;" x="30.67875" xlink:href="#md7379a5e92" y="66.641752"/>
      </g>
     </g>
     <g id="text_9">
      <!-- 0.10 -->
      <g transform="translate(10.1125 69.521752)scale(0.08 -0.08)">
       <use xlink:href="#Helvetica-Light-48"/>
       <use x="55.599991" xlink:href="#Helvetica-Light-46"/>
       <use x="83.399979" xlink:href="#Helvetica-Light-49"/>
       <use x="138.999969" xlink:href="#Helvetica-Light-48"/>
      </g>
     </g>
    </g>
    <g id="ytick_4">
     <g id="line2d_10">
      <g>
       <use style="stroke:#000000;stroke-width:0.35;" x="30.67875" xlink:href="#md7379a5e92" y="41.287232"/>
      </g>
     </g>
     <g id="text_10">
      <!-- 0.15 -->
      <g transform="translate(10.1125 44.167232)scale(0.08 -0.08)">
       <use xlink:href="#Helvetica-Light-48"/>
       <use x="55.599991" xlink:href="#Helvetica-Light-46"/>
       <use x="83.399979" xlink:href="#Helvetica-Light-49"/>
       <use x="138.999969" xlink:href="#Helvetica-Light-53"/>
      </g>
     </g>
    </g>
    <g id="ytick_5">
     <g id="line2d_11">
      <g>
       <use style="stroke:#000000;stroke-width:0.35;" x="30.67875" xlink:href="#md7379a5e92" y="15.932712"/>
      </g>
     </g>
     <g id="text_11">
      <!-- 0.20 -->
      <g transform="translate(10.1125 18.812712)scale(0.08 -0.08)">
       <use xlink:href="#Helvetica-Light-48"/>
       <use x="55.599991" xlink:href="#Helvetica-Light-46"/>
       <use x="83.399979" xlink:href="#Helvetica-Light-50"/>
       <use x="138.999969" xlink:href="#Helvetica-Light-48"/>
      </g>
     </g>
    </g>
    <g id="text_12">
     <!-- Structure Factor -->
     <defs>
      <path d="M 10.90625 21.5 
Q 11.296875 16.703125 13.046875 13.34375 
Q 14.796875 10 17.546875 7.890625 
Q 20.296875 5.796875 23.890625 4.84375 
Q 27.5 3.90625 31.59375 3.90625 
Q 36.40625 3.90625 39.90625 5.09375 
Q 43.40625 6.296875 45.59375 8.34375 
Q 47.796875 10.40625 48.84375 13.09375 
Q 49.90625 15.796875 49.90625 18.796875 
Q 49.90625 23 48 25.59375 
Q 46.09375 28.203125 43.046875 29.84375 
Q 40 31.5 36.046875 32.5 
Q 32.09375 33.5 27.9375 34.453125 
Q 23.796875 35.40625 19.84375 36.703125 
Q 15.90625 38 12.84375 40.203125 
Q 9.796875 42.40625 7.890625 45.84375 
Q 6 49.296875 6 54.59375 
Q 6 58.296875 7.546875 61.796875 
Q 9.09375 65.296875 12.140625 68 
Q 15.203125 70.703125 19.796875 72.296875 
Q 24.40625 73.90625 30.40625 73.90625 
Q 36.5 73.90625 41.046875 72.203125 
Q 45.59375 70.5 48.59375 67.546875 
Q 51.59375 64.59375 53.09375 60.6875 
Q 54.59375 56.796875 54.59375 52.40625 
L 48.09375 52.40625 
Q 48.09375 56.5 46.640625 59.5 
Q 45.203125 62.5 42.703125 64.390625 
Q 40.203125 66.296875 37 67.1875 
Q 33.796875 68.09375 30.40625 68.09375 
Q 25.203125 68.09375 21.640625 66.640625 
Q 18.09375 65.203125 16 62.890625 
Q 13.90625 60.59375 13.09375 57.796875 
Q 12.296875 55 12.796875 52.203125 
Q 13.40625 48.703125 15.59375 46.59375 
Q 17.796875 44.5 21 43.140625 
Q 24.203125 41.796875 28.046875 40.9375 
Q 31.90625 40.09375 35.90625 39.140625 
Q 39.90625 38.203125 43.65625 36.890625 
Q 47.40625 35.59375 50.296875 33.390625 
Q 53.203125 31.203125 54.953125 27.75 
Q 56.703125 24.296875 56.703125 19.09375 
Q 56.703125 9.09375 49.796875 3.59375 
Q 42.90625 -1.90625 30.40625 -1.90625 
Q 24.796875 -1.90625 20 -0.453125 
Q 15.203125 1 11.703125 3.953125 
Q 8.203125 6.90625 6.25 11.25 
Q 4.296875 15.59375 4.296875 21.5 
z
" id="Helvetica-Light-83"/>
      <path d="M 42.296875 51.796875 
L 48.296875 51.796875 
L 48.296875 0 
L 42.296875 0 
L 42.296875 7.203125 
Q 41.09375 5.796875 39.59375 4.296875 
Q 38.09375 2.796875 36.140625 1.546875 
Q 34.203125 0.296875 31.59375 -0.546875 
Q 29 -1.40625 25.59375 -1.40625 
Q 20.40625 -1.40625 16.90625 0.046875 
Q 13.40625 1.5 11.25 4.09375 
Q 9.09375 6.703125 8.140625 10.140625 
Q 7.203125 13.59375 7.203125 17.703125 
L 7.203125 51.796875 
L 13.203125 51.796875 
L 13.203125 17.796875 
Q 13.203125 11.09375 16.296875 7.546875 
Q 19.40625 4 26.5 4 
Q 30.203125 4 33.140625 5.453125 
Q 36.09375 6.90625 38.09375 9.5 
Q 40.09375 12.09375 41.1875 15.6875 
Q 42.296875 19.296875 42.296875 23.59375 
z
" id="Helvetica-Light-117"/>
     </defs>
     <g transform="translate(6.48 87.712271)rotate(-90)scale(0.08 -0.08)">
      <use xlink:href="#Helvetica-Light-83"/>
      <use x="61.099991" xlink:href="#Helvetica-Light-116"/>
      <use x="88.899979" xlink:href="#Helvetica-Light-114"/>
      <use x="122.199966" xlink:href="#Helvetica-Light-117"/>
      <use x="177.799957" xlink:href="#Helvetica-Light-99"/>
      <use x="233.399948" xlink:href="#Helvetica-Light-116"/>
      <use x="261.199936" xlink:href="#Helvetica-Light-117"/>
      <use x="316.799927" xlink:href="#Helvetica-Light-114"/>
      <use x="350.099915" xlink:href="#Helvetica-Light-101"/>
      <use x="405.699905" xlink:href="#Helvetica-Light-32"/>
      <use x="433.499893" xlink:href="#Helvetica-Light-70"/>
      <use x="489.099884" xlink:href="#Helvetica-Light-97"/>
      <use x="544.699875" xlink:href="#Helvetica-Light-99"/>
      <use x="600.299866" xlink:href="#Helvetica-Light-116"/>
      <use x="628.099854" xlink:href="#Helvetica-Light-111"/>
      <use x="683.699844" xlink:href="#Helvetica-Light-114"/>
     </g>
    </g>
   </g>
   <g id="line2d_12">
    <path clip-path="url(#pea256e388c)" d="M 30.67875 117.350791 
L 93.519981 79.027461 
L 156.361212 44.273324 
L 219.202442 14.176375 
L 228.46339 10.13931 
" style="fill:none;stroke:#f67a49;stroke-dasharray:2.59,1.12;stroke-dashoffset:0;stroke-linecap:round;stroke-width:0.7;"/>
    <defs>
     <path d="M 0 2.5 
C 0.663008 2.5 1.29895 2.236584 1.767767 1.767767 
C 2.236584 1.29895 2.5 0.663008 2.5 0 
C 2.5 -0.663008 2.236584 -1.29895 1.767767 -1.767767 
C 1.29895 -2.236584 0.663008 -2.5 0 -2.5 
C -0.663008 -2.5 -1.29895 -2.236584 -1.767767 -1.767767 
C -2.236584 -1.29895 -2.5 -0.663008 -2.5 0 
C -2.5 0.663008 -2.236584 1.29895 -1.767767 1.767767 
C -1.29895 2.236584 -0.663008 2.5 0 2.5 
z
" id="m523fda5b36" style="stroke:#f67a49;stroke-width:0.7;"/>
    </defs>
    <g clip-path="url(#pea256e388c)">
     <use style="fill:#f67a49;fill-opacity:0.501961;stroke:#f67a49;stroke-width:0.7;" x="30.67875" xlink:href="#m523fda5b36" y="117.350791"/>
     <use style="fill:#f67a49;fill-opacity:0.501961;stroke:#f67a49;stroke-width:0.7;" x="93.519981" xlink:href="#m523fda5b36" y="79.027461"/>
     <use style="fill:#f67a49;fill-opacity:0.501961;stroke:#f67a49;stroke-width:0.7;" x="156.361212" xlink:href="#m523fda5b36" y="44.273324"/>
     <use style="fill:#f67a49;fill-opacity:0.501961;stroke:#f67a49;stroke-width:0.7;" x="219.202442" xlink:href="#m523fda5b36" y="14.176375"/>
     <use style="fill:#f67a49;fill-opacity:0.501961;stroke:#f67a49;stroke-width:0.7;" x="254.016753" xlink:href="#m523fda5b36" y="-1"/>
    </g>
   </g>
   <g id="line2d_13">
    <defs>
     <path d="M 0 2.5 
C 0.663008 2.5 1.29895 2.236584 1.767767 1.767767 
C 2.236584 1.29895 2.5 0.663008 2.5 0 
C 2.5 -0.663008 2.236584 -1.29895 1.767767 -1.767767 
C 1.29895 -2.236584 0.663008 -2.5 0 -2.5 
C -0.663008 -2.5 -1.29895 -2.236584 -1.767767 -1.767767 
C -2.236584 -1.29895 -2.5 -0.663008 -2.5 0 
C -2.5 0.663008 -2.236584 1.29895 -1.767767 1.767767 
C -1.29895 2.236584 -0.663008 2.5 0 2.5 
z
" id="m45d87f40ce" style="stroke:#4b90a5;stroke-width:0.7;"/>
    </defs>
    <g clip-path="url(#pea256e388c)">
     <use style="fill:#4b90a5;fill-opacity:0.501961;stroke:#4b90a5;stroke-width:0.7;" x="30.67875" xlink:href="#m45d87f40ce" y="117.350791"/>
     <use style="fill:#4b90a5;fill-opacity:0.501961;stroke:#4b90a5;stroke-width:0.7;" x="93.519981" xlink:href="#m45d87f40ce" y="86.063791"/>
     <use style="fill:#4b90a5;fill-opacity:0.501961;stroke:#4b90a5;stroke-width:0.7;" x="156.361212" xlink:href="#m45d87f40ce" y="54.368589"/>
     <use style="fill:#4b90a5;fill-opacity:0.501961;stroke:#4b90a5;stroke-width:0.7;" x="219.202442" xlink:href="#m45d87f40ce" y="21.880958"/>
     <use style="fill:#4b90a5;fill-opacity:0.501961;stroke:#4b90a5;stroke-width:0.7;" x="261.864948" xlink:href="#m45d87f40ce" y="-1"/>
    </g>
   </g>
   <g id="patch_3">
    <path d="M 30.67875 117.350791 
L 30.67875 0.72 
" style="fill:none;stroke:#000000;stroke-linecap:square;stroke-linejoin:miter;stroke-width:0.35;"/>
   </g>
   <g id="patch_4">
    <path d="M 226.74339 117.350791 
L 226.74339 0.72 
" style="fill:none;stroke:#000000;stroke-linecap:square;stroke-linejoin:miter;stroke-width:0.35;"/>
   </g>
   <g id="patch_5">
    <path d="M 30.67875 117.350791 
L 226.74339 117.350791 
" style="fill:none;stroke:#000000;stroke-linecap:square;stroke-linejoin:miter;stroke-width:0.35;"/>
   </g>
   <g id="patch_6">
    <path d="M 30.67875 0.72 
L 226.74339 0.72 
" style="fill:none;stroke:#000000;stroke-linecap:square;stroke-linejoin:miter;stroke-width:0.35;"/>
   </g>
   <g id="text_13">
    <!-- $N = 13$       -->
    <defs>
     <path d="M 28.203125 62.796875 
L 28 62.796875 
L 14.703125 0 
L 7.90625 0 
L 23.203125 72 
L 30.90625 72 
L 59.09375 9.09375 
L 59.296875 9.09375 
L 72.703125 72 
L 79.5 72 
L 64.203125 0 
L 56.296875 0 
z
" id="Helvetica-LightOblique-78"/>
     <path d="M 58 31.796875 
L 8 31.796875 
L 8 37.796875 
L 58 37.796875 
z
M 58 12.40625 
L 8 12.40625 
L 8 18.40625 
L 58 18.40625 
z
" id="Helvetica-Light-61"/>
    </defs>
    <g transform="translate(188.782744 97.929175)scale(0.08 -0.08)">
     <use xlink:href="#Helvetica-LightOblique-78"/>
     <use transform="translate(88.859979 0)" xlink:href="#Helvetica-Light-61"/>
     <use transform="translate(171.519962 0)" xlink:href="#Helvetica-Light-49"/>
     <use transform="translate(227.119952 0)" xlink:href="#Helvetica-Light-51"/>
     <use transform="translate(282.719943 0)" xlink:href="#Helvetica-Light-32"/>
     <use transform="translate(310.519931 0)" xlink:href="#Helvetica-Light-32"/>
     <use transform="translate(338.319919 0)" xlink:href="#Helvetica-Light-32"/>
     <use transform="translate(366.119907 0)" xlink:href="#Helvetica-Light-32"/>
     <use transform="translate(393.919894 0)" xlink:href="#Helvetica-Light-32"/>
     <use transform="translate(421.719882 0)" xlink:href="#Helvetica-Light-32"/>
    </g>
    <!-- $V = 0.765J$ -->
    <defs>
     <path d="M 17.09375 72 
L 24.203125 72 
L 32.296875 8 
L 67.5 72 
L 74.59375 72 
L 34.296875 0 
L 26.796875 0 
z
" id="Helvetica-LightOblique-86"/>
     <path d="M 5.90625 69.796875 
L 50.796875 69.796875 
L 50.796875 63.796875 
Q 43.203125 55.203125 37.890625 46.140625 
Q 32.59375 37.09375 29.1875 28.546875 
Q 25.796875 20 24.140625 12.59375 
Q 22.5 5.203125 22.203125 0 
L 15.203125 0 
Q 15.703125 7.59375 18.25 16.140625 
Q 20.796875 24.703125 24.59375 33.09375 
Q 28.40625 41.5 33.203125 49.34375 
Q 38 57.203125 43.09375 63.40625 
L 5.90625 63.40625 
z
" id="Helvetica-Light-55"/>
     <path d="M 43.703125 53.203125 
Q 42.59375 58.59375 39.296875 61.84375 
Q 36 65.09375 30.296875 65.09375 
Q 23.796875 65.09375 20.046875 62 
Q 16.296875 58.90625 14.296875 54.15625 
Q 12.296875 49.40625 11.59375 43.796875 
Q 10.90625 38.203125 10.5 33.203125 
Q 12 35.203125 13.640625 37.203125 
Q 15.296875 39.203125 17.390625 40.75 
Q 19.5 42.296875 22.296875 43.25 
Q 25.09375 44.203125 29 44.203125 
Q 39.703125 44.203125 45.546875 38.140625 
Q 51.40625 32.09375 51.40625 21.5 
Q 51.40625 10.796875 45.5 4.6875 
Q 39.59375 -1.40625 28.796875 -1.40625 
Q 23.5 -1.40625 19 0.34375 
Q 14.5 2.09375 11.203125 6.09375 
Q 7.90625 10.09375 6 16.546875 
Q 4.09375 23 4.09375 32.296875 
Q 4.09375 38.59375 5.1875 45.34375 
Q 6.296875 52.09375 9.140625 57.6875 
Q 12 63.296875 16.953125 66.890625 
Q 21.90625 70.5 29.703125 70.5 
Q 38.09375 70.5 43.6875 66.09375 
Q 49.296875 61.703125 50.296875 53.203125 
z
M 28.796875 38.796875 
Q 25.09375 38.796875 22.140625 37.390625 
Q 19.203125 36 17.140625 33.59375 
Q 15.09375 31.203125 14 28.046875 
Q 12.90625 24.90625 12.90625 21.296875 
Q 12.90625 18.296875 13.75 15.25 
Q 14.59375 12.203125 16.546875 9.703125 
Q 18.5 7.203125 21.5 5.59375 
Q 24.5 4 28.90625 4 
Q 33.40625 4 36.453125 5.546875 
Q 39.5 7.09375 41.390625 9.640625 
Q 43.296875 12.203125 44.140625 15.34375 
Q 45 18.5 45 21.703125 
Q 45 29.90625 41.046875 34.34375 
Q 37.09375 38.796875 28.796875 38.796875 
z
" id="Helvetica-Light-54"/>
     <path d="M 13.796875 22.796875 
Q 13 19.40625 12.59375 16.09375 
Q 12.203125 12.796875 12.890625 10.140625 
Q 13.59375 7.5 15.890625 5.890625 
Q 18.203125 4.296875 22.90625 4.296875 
Q 29.90625 4.296875 33.59375 8.296875 
Q 37.296875 12.296875 38.90625 19.90625 
L 50 72 
L 56.796875 72 
L 45.703125 19.703125 
Q 43.40625 9.203125 37.34375 3.640625 
Q 31.296875 -1.90625 20.796875 -1.90625 
Q 14.703125 -1.90625 11.390625 0.140625 
Q 8.09375 2.203125 6.796875 5.640625 
Q 5.5 9.09375 5.75 13.546875 
Q 6 18 7 22.796875 
z
" id="Helvetica-LightOblique-74"/>
    </defs>
    <g transform="translate(187.902744 106.473675)scale(0.08 -0.08)">
     <use xlink:href="#Helvetica-LightOblique-86"/>
     <use transform="translate(77.759988 0)" xlink:href="#Helvetica-Light-61"/>
     <use transform="translate(160.419971 0)" xlink:href="#Helvetica-Light-48"/>
     <use transform="translate(216.019962 0)" xlink:href="#Helvetica-Light-46"/>
     <use transform="translate(243.819949 0)" xlink:href="#Helvetica-Light-55"/>
     <use transform="translate(299.41994 0)" xlink:href="#Helvetica-Light-54"/>
     <use transform="translate(355.019931 0)" xlink:href="#Helvetica-Light-53"/>
     <use transform="translate(410.619922 0)" xlink:href="#Helvetica-LightOblique-74"/>
    </g>
    <!-- $K = 0.800$  -->
    <defs>
     <path d="M 8.5 0 
L 23.796875 72 
L 30.59375 72 
L 22.703125 34.703125 
L 67.5 72 
L 75.203125 72 
L 40.703125 43.296875 
L 64.90625 0 
L 56.59375 0 
L 34.90625 39.09375 
L 21.203125 27.796875 
L 15.296875 0 
z
" id="Helvetica-LightOblique-75"/>
     <path d="M 27.90625 34.5 
Q 24.203125 34.5 21.09375 33.59375 
Q 18 32.703125 15.703125 30.84375 
Q 13.40625 29 12.09375 26.140625 
Q 10.796875 23.296875 10.796875 19.40625 
Q 10.796875 16.09375 12.046875 13.296875 
Q 13.296875 10.5 15.546875 8.453125 
Q 17.796875 6.40625 21.046875 5.203125 
Q 24.296875 4 28.296875 4 
Q 31.796875 4 34.796875 5.140625 
Q 37.796875 6.296875 40.046875 8.390625 
Q 42.296875 10.5 43.546875 13.390625 
Q 44.796875 16.296875 44.796875 19.796875 
Q 44.796875 23.5 43.5 26.25 
Q 42.203125 29 39.890625 30.84375 
Q 37.59375 32.703125 34.5 33.59375 
Q 31.40625 34.5 27.90625 34.5 
z
M 27.59375 65.09375 
Q 24.59375 65.09375 22 64.296875 
Q 19.40625 63.5 17.453125 61.890625 
Q 15.5 60.296875 14.390625 57.890625 
Q 13.296875 55.5 13.296875 52.40625 
Q 13.296875 49.09375 14.546875 46.75 
Q 15.796875 44.40625 17.890625 42.90625 
Q 20 41.40625 22.703125 40.65625 
Q 25.40625 39.90625 28.296875 39.90625 
Q 31.203125 39.90625 33.703125 40.65625 
Q 36.203125 41.40625 38 43.09375 
Q 39.796875 44.796875 40.84375 47.390625 
Q 41.90625 50 41.90625 53.796875 
Q 41.90625 59.203125 38.40625 62.140625 
Q 34.90625 65.09375 27.59375 65.09375 
z
M 16.703125 37.90625 
Q 14.09375 39.5 12.25 40.953125 
Q 10.40625 42.40625 9.203125 44.09375 
Q 8 45.796875 7.453125 47.9375 
Q 6.90625 50.09375 6.90625 53.296875 
Q 6.90625 56.90625 8.5 60.09375 
Q 10.09375 63.296875 12.796875 65.640625 
Q 15.5 68 19.140625 69.296875 
Q 22.796875 70.59375 27 70.5 
Q 31 70.5 34.84375 69.5 
Q 38.703125 68.5 41.703125 66.390625 
Q 44.703125 64.296875 46.5 61.046875 
Q 48.296875 57.796875 48.296875 53.296875 
Q 48.296875 47.796875 46.046875 43.890625 
Q 43.796875 40 38.703125 37.5 
Q 44.5 35.40625 47.84375 30.796875 
Q 51.203125 26.203125 51.203125 20 
Q 51.203125 14.796875 49.453125 10.796875 
Q 47.703125 6.796875 44.453125 4.09375 
Q 41.203125 1.40625 36.59375 0 
Q 32 -1.40625 26.40625 -1.40625 
Q 22.59375 -1.40625 18.640625 -0.09375 
Q 14.703125 1.203125 11.546875 3.796875 
Q 8.40625 6.40625 6.40625 10.296875 
Q 4.40625 14.203125 4.40625 19.40625 
Q 4.40625 25.703125 7.546875 30.640625 
Q 10.703125 35.59375 16.703125 37.90625 
z
" id="Helvetica-Light-56"/>
    </defs>
    <g transform="translate(189.182744 115.018175)scale(0.08 -0.08)">
     <use xlink:href="#Helvetica-LightOblique-75"/>
     <use transform="translate(83.359995 0)" xlink:href="#Helvetica-Light-61"/>
     <use transform="translate(166.019977 0)" xlink:href="#Helvetica-Light-48"/>
     <use transform="translate(221.619968 0)" xlink:href="#Helvetica-Light-46"/>
     <use transform="translate(249.419955 0)" xlink:href="#Helvetica-Light-56"/>
     <use transform="translate(305.019946 0)" xlink:href="#Helvetica-Light-48"/>
     <use transform="translate(360.619937 0)" xlink:href="#Helvetica-Light-48"/>
     <use transform="translate(416.219928 0)" xlink:href="#Helvetica-Light-32"/>
    </g>
   </g>
   <g id="legend_1">
    <g id="line2d_14">
     <path d="M 37.87875 11.04 
L 45.87875 11.04 
" style="fill:none;stroke:#f67a49;stroke-dasharray:2.59,1.12;stroke-dashoffset:0;stroke-linecap:round;stroke-width:0.7;"/>
    </g>
    <g id="line2d_15">
     <g>
      <use style="fill:#f67a49;fill-opacity:0.501961;stroke:#f67a49;stroke-width:0.7;" x="41.87875" xlink:href="#m523fda5b36" y="11.04"/>
     </g>
    </g>
    <g id="text_14">
     <!-- post-quench  $t \cdot J = 1/2$ -->
     <defs>
      <path d="M 13.90625 25.703125 
Q 13.90625 21.296875 15.09375 17.34375 
Q 16.296875 13.40625 18.546875 10.453125 
Q 20.796875 7.5 24.046875 5.75 
Q 27.296875 4 31.40625 4 
Q 36 4 39.453125 5.84375 
Q 42.90625 7.703125 45.09375 10.890625 
Q 47.296875 14.09375 48.296875 18.34375 
Q 49.296875 22.59375 49.09375 27.5 
Q 49.09375 32.40625 47.75 36.15625 
Q 46.40625 39.90625 44 42.5 
Q 41.59375 45.09375 38.390625 46.4375 
Q 35.203125 47.796875 31.40625 47.796875 
Q 27.203125 47.796875 23.890625 46.09375 
Q 20.59375 44.40625 18.390625 41.453125 
Q 16.203125 38.5 15.046875 34.453125 
Q 13.90625 30.40625 13.90625 25.703125 
z
M 13.90625 -20.40625 
L 7.90625 -20.40625 
L 7.90625 51.796875 
L 13.90625 51.796875 
L 13.90625 42.703125 
L 14.09375 42.703125 
Q 15.40625 45.203125 17.453125 47.203125 
Q 19.5 49.203125 21.953125 50.5 
Q 24.40625 51.796875 27 52.5 
Q 29.59375 53.203125 32.09375 53.203125 
Q 38.40625 53.203125 42.796875 51.09375 
Q 47.203125 49 50.046875 45.34375 
Q 52.90625 41.703125 54.203125 36.703125 
Q 55.5 31.703125 55.5 26 
Q 55.5 20.59375 54.09375 15.59375 
Q 52.703125 10.59375 49.84375 6.84375 
Q 47 3.09375 42.640625 0.84375 
Q 38.296875 -1.40625 32.40625 -1.40625 
Q 26.90625 -1.40625 21.84375 1.046875 
Q 16.796875 3.5 13.90625 8.296875 
z
" id="Helvetica-Light-112"/>
      <path d="M 10.703125 16.203125 
Q 12.09375 9.5 15.75 6.75 
Q 19.40625 4 26.203125 4 
Q 29.5 4 31.890625 4.796875 
Q 34.296875 5.59375 35.84375 6.9375 
Q 37.40625 8.296875 38.203125 10 
Q 39 11.703125 39 13.59375 
Q 39 17.40625 36.546875 19.25 
Q 34.09375 21.09375 30.390625 22.140625 
Q 26.703125 23.203125 22.390625 23.953125 
Q 18.09375 24.703125 14.390625 26.203125 
Q 10.703125 27.703125 8.25 30.5 
Q 5.796875 33.296875 5.796875 38.40625 
Q 5.796875 44.90625 10.546875 49.046875 
Q 15.296875 53.203125 24 53.203125 
Q 32.40625 53.203125 37.65625 49.453125 
Q 42.90625 45.703125 44 36.90625 
L 37.90625 36.90625 
Q 37.09375 42.90625 33.34375 45.34375 
Q 29.59375 47.796875 23.90625 47.796875 
Q 18.203125 47.796875 15.203125 45.34375 
Q 12.203125 42.90625 12.203125 38.90625 
Q 12.203125 35.40625 14.640625 33.546875 
Q 17.09375 31.703125 20.796875 30.546875 
Q 24.5 29.40625 28.796875 28.5 
Q 33.09375 27.59375 36.796875 25.9375 
Q 40.5 24.296875 42.953125 21.5 
Q 45.40625 18.703125 45.40625 13.703125 
Q 45.40625 10 43.796875 7.140625 
Q 42.203125 4.296875 39.390625 2.390625 
Q 36.59375 0.5 32.75 -0.453125 
Q 28.90625 -1.40625 24.296875 -1.40625 
Q 19.703125 -1.40625 16.140625 -0.046875 
Q 12.59375 1.296875 10.09375 3.6875 
Q 7.59375 6.09375 6.1875 9.296875 
Q 4.796875 12.5 4.59375 16.203125 
z
" id="Helvetica-Light-115"/>
      <path d="M 29.296875 29.09375 
L 29.296875 22.90625 
L 4 22.90625 
L 4 29.09375 
z
" id="Helvetica-Light-45"/>
      <path d="M 47.203125 26.09375 
Q 47.203125 30.5 46 34.453125 
Q 44.796875 38.40625 42.546875 41.34375 
Q 40.296875 44.296875 37.046875 46.046875 
Q 33.796875 47.796875 29.703125 47.796875 
Q 25 47.796875 21.59375 45.9375 
Q 18.203125 44.09375 16 40.890625 
Q 13.796875 37.703125 12.796875 33.453125 
Q 11.796875 29.203125 12 24.296875 
Q 12 19.40625 13.34375 15.65625 
Q 14.703125 11.90625 17.09375 9.296875 
Q 19.5 6.703125 22.703125 5.34375 
Q 25.90625 4 29.703125 4 
Q 33.90625 4 37.203125 5.703125 
Q 40.5 7.40625 42.703125 10.34375 
Q 44.90625 13.296875 46.046875 17.34375 
Q 47.203125 21.40625 47.203125 26.09375 
z
M 47.203125 51.796875 
L 53.203125 51.796875 
L 53.203125 -20.40625 
L 47.203125 -20.40625 
L 47.203125 8.296875 
Q 44.296875 3.5 39.25 1.046875 
Q 34.203125 -1.40625 28.703125 -1.40625 
Q 22.796875 -1.40625 18.4375 0.84375 
Q 14.09375 3.09375 11.25 6.84375 
Q 8.40625 10.59375 7 15.59375 
Q 5.59375 20.59375 5.59375 26 
Q 5.59375 31.703125 6.890625 36.703125 
Q 8.203125 41.703125 11.046875 45.34375 
Q 13.90625 49 18.296875 51.09375 
Q 22.703125 53.203125 29 53.203125 
Q 31.5 53.203125 34.09375 52.5 
Q 36.703125 51.796875 39.140625 50.5 
Q 41.59375 49.203125 43.640625 47.203125 
Q 45.703125 45.203125 47 42.703125 
L 47.203125 42.703125 
z
" id="Helvetica-Light-113"/>
      <path d="M 13.203125 0 
L 7.203125 0 
L 7.203125 51.796875 
L 13.203125 51.796875 
L 13.203125 44.59375 
Q 16.796875 48.40625 20.640625 50.796875 
Q 24.5 53.203125 29.90625 53.203125 
Q 34.703125 53.203125 38.796875 51.546875 
Q 42.90625 49.90625 45.703125 45.796875 
Q 47.59375 43 47.9375 40.046875 
Q 48.296875 37.09375 48.296875 33.90625 
L 48.296875 0 
L 42.296875 0 
L 42.296875 33.796875 
Q 42.296875 40.796875 39.1875 44.296875 
Q 36.09375 47.796875 28.90625 47.796875 
Q 26.09375 47.796875 23.796875 46.9375 
Q 21.5 46.09375 19.640625 44.6875 
Q 17.796875 43.296875 16.5 41.5 
Q 15.203125 39.703125 14.5 37.703125 
Q 13.59375 35.203125 13.390625 32.890625 
Q 13.203125 30.59375 13.203125 27.90625 
z
" id="Helvetica-Light-110"/>
      <path d="M 7.203125 0 
L 7.203125 72 
L 13.203125 72 
L 13.203125 44.59375 
Q 16.796875 48.40625 20.640625 50.796875 
Q 24.5 53.203125 29.90625 53.203125 
Q 34.703125 53.203125 38.796875 51.546875 
Q 42.90625 49.90625 45.703125 45.796875 
Q 47.59375 43 47.9375 40.046875 
Q 48.296875 37.09375 48.296875 33.90625 
L 48.296875 0 
L 42.296875 0 
L 42.296875 33.796875 
Q 42.296875 40.796875 39.1875 44.296875 
Q 36.09375 47.796875 28.90625 47.796875 
Q 26.09375 47.796875 23.796875 46.9375 
Q 21.5 46.09375 19.640625 44.6875 
Q 17.796875 43.296875 16.5 41.5 
Q 15.203125 39.703125 14.5 37.703125 
Q 13.59375 35.203125 13.390625 32.890625 
Q 13.203125 30.59375 13.203125 27.90625 
L 13.203125 0 
z
" id="Helvetica-Light-104"/>
      <path d="M 25.40625 -0.203125 
Q 24.296875 -0.40625 22.34375 -0.90625 
Q 20.40625 -1.40625 18.203125 -1.40625 
Q 13.703125 -1.40625 11.84375 0.84375 
Q 10 3.09375 11.203125 8.90625 
L 19.203125 46.796875 
L 11.90625 46.796875 
L 13 51.796875 
L 20.296875 51.796875 
L 23.40625 66.203125 
L 29.40625 66.203125 
L 26.296875 51.796875 
L 36 51.796875 
L 34.90625 46.796875 
L 25.203125 46.796875 
L 17.703125 11.296875 
Q 17.296875 9.40625 17.09375 8 
Q 16.90625 6.59375 17.25 5.6875 
Q 17.59375 4.796875 18.546875 4.390625 
Q 19.5 4 21.40625 4 
Q 22.59375 4 23.84375 4.203125 
Q 25.09375 4.40625 26.40625 4.703125 
z
" id="Helvetica-LightOblique-116"/>
      <path d="M 16.796875 31.296875 
Q 20.296875 27.703125 20.296875 25.296875 
Q 20.296875 22.90625 18.546875 21.09375 
Q 16.796875 19.296875 14.390625 19.296875 
Q 12 19.296875 10.140625 21.140625 
Q 8.296875 23 8.296875 25.296875 
Q 8.296875 27.59375 10.140625 29.4375 
Q 12 31.296875 14.390625 31.296875 
Q 16.796875 31.296875 20.296875 27.703125 
z
" id="STIXGeneral-Regular-8901"/>
     </defs>
     <g transform="translate(49.87875 13.84)scale(0.08 -0.08)">
      <use transform="translate(0 0.09375)" xlink:href="#Helvetica-Light-112"/>
      <use transform="translate(61.099991 0.09375)" xlink:href="#Helvetica-Light-111"/>
      <use transform="translate(116.699982 0.09375)" xlink:href="#Helvetica-Light-115"/>
      <use transform="translate(166.699966 0.09375)" xlink:href="#Helvetica-Light-116"/>
      <use transform="translate(194.499954 0.09375)" xlink:href="#Helvetica-Light-45"/>
      <use transform="translate(227.799942 0.09375)" xlink:href="#Helvetica-Light-113"/>
      <use transform="translate(288.899933 0.09375)" xlink:href="#Helvetica-Light-117"/>
      <use transform="translate(344.499924 0.09375)" xlink:href="#Helvetica-Light-101"/>
      <use transform="translate(400.099915 0.09375)" xlink:href="#Helvetica-Light-110"/>
      <use transform="translate(455.699905 0.09375)" xlink:href="#Helvetica-Light-99"/>
      <use transform="translate(511.299896 0.09375)" xlink:href="#Helvetica-Light-104"/>
      <use transform="translate(566.899887 0.09375)" xlink:href="#Helvetica-Light-32"/>
      <use transform="translate(594.699875 0.09375)" xlink:href="#Helvetica-Light-32"/>
      <use transform="translate(622.499863 0.09375)" xlink:href="#Helvetica-LightOblique-116"/>
      <use transform="translate(666.959848 0.09375)" xlink:href="#STIXGeneral-Regular-8901"/>
      <use transform="translate(712.219836 0.09375)" xlink:href="#Helvetica-LightOblique-74"/>
      <use transform="translate(778.879819 0.09375)" xlink:href="#Helvetica-Light-61"/>
      <use transform="translate(861.539801 0.09375)" xlink:href="#Helvetica-Light-49"/>
      <use transform="translate(917.139792 0.09375)" xlink:href="#Helvetica-Light-47"/>
      <use transform="translate(944.93978 0.09375)" xlink:href="#Helvetica-Light-50"/>
     </g>
    </g>
    <g id="line2d_16"/>
    <g id="line2d_17">
     <g>
      <use style="fill:#4b90a5;fill-opacity:0.501961;stroke:#4b90a5;stroke-width:0.7;" x="41.87875" xlink:href="#m45d87f40ce" y="22.48"/>
     </g>
    </g>
    <g id="text_15">
     <!-- equilibrium -->
     <defs>
      <path d="M 8.09375 0 
L 8.09375 51.796875 
L 14.09375 51.796875 
L 14.09375 0 
z
M 7.796875 63.09375 
L 7.796875 72 
L 14.40625 72 
L 14.40625 63.09375 
z
" id="Helvetica-Light-105"/>
      <path d="M 8.09375 0 
L 8.09375 72 
L 14.09375 72 
L 14.09375 0 
z
" id="Helvetica-Light-108"/>
      <path d="M 13.90625 26.09375 
Q 13.90625 21.40625 15.046875 17.34375 
Q 16.203125 13.296875 18.390625 10.34375 
Q 20.59375 7.40625 23.890625 5.703125 
Q 27.203125 4 31.40625 4 
Q 35.203125 4 38.390625 5.34375 
Q 41.59375 6.703125 44 9.296875 
Q 46.40625 11.90625 47.75 15.65625 
Q 49.09375 19.40625 49.09375 24.296875 
Q 49.296875 29.203125 48.296875 33.453125 
Q 47.296875 37.703125 45.09375 40.890625 
Q 42.90625 44.09375 39.453125 45.9375 
Q 36 47.796875 31.40625 47.796875 
Q 27.296875 47.796875 24.046875 46.046875 
Q 20.796875 44.296875 18.546875 41.34375 
Q 16.296875 38.40625 15.09375 34.453125 
Q 13.90625 30.5 13.90625 26.09375 
z
M 13.90625 0 
L 7.90625 0 
L 7.90625 72 
L 13.90625 72 
L 13.90625 43.5 
Q 16.796875 48.296875 21.84375 50.75 
Q 26.90625 53.203125 32.40625 53.203125 
Q 38.296875 53.203125 42.640625 50.953125 
Q 47 48.703125 49.84375 44.953125 
Q 52.703125 41.203125 54.09375 36.203125 
Q 55.5 31.203125 55.5 25.796875 
Q 55.5 20.09375 54.203125 15.09375 
Q 52.90625 10.09375 50.046875 6.4375 
Q 47.203125 2.796875 42.796875 0.6875 
Q 38.40625 -1.40625 32.09375 -1.40625 
Q 29.59375 -1.40625 27 -0.703125 
Q 24.40625 0 21.953125 1.296875 
Q 19.5 2.59375 17.453125 4.546875 
Q 15.40625 6.5 14.09375 9.09375 
L 13.90625 9.09375 
z
" id="Helvetica-Light-98"/>
      <path d="M 12.40625 0 
L 6.40625 0 
L 6.40625 51.796875 
L 12.40625 51.796875 
L 12.40625 44 
L 12.59375 44 
Q 14.90625 48.5 19.203125 50.84375 
Q 23.5 53.203125 28.59375 53.203125 
Q 32.203125 53.203125 34.703125 52.390625 
Q 37.203125 51.59375 38.953125 50.25 
Q 40.703125 48.90625 41.84375 47.09375 
Q 43 45.296875 43.796875 43.203125 
Q 46.40625 48.296875 50.75 50.75 
Q 55.09375 53.203125 60.703125 53.203125 
Q 66 53.203125 69.140625 51.453125 
Q 72.296875 49.703125 74 46.84375 
Q 75.703125 44 76.25 40.296875 
Q 76.796875 36.59375 76.796875 32.703125 
L 76.796875 0 
L 70.796875 0 
L 70.796875 35.796875 
Q 70.796875 41.40625 68.4375 44.59375 
Q 66.09375 47.796875 59.703125 47.796875 
Q 56.40625 47.796875 53.34375 46.34375 
Q 50.296875 44.90625 48 41.90625 
Q 47 40.59375 46.34375 38.84375 
Q 45.703125 37.09375 45.296875 35.1875 
Q 44.90625 33.296875 44.75 31.390625 
Q 44.59375 29.5 44.59375 27.90625 
L 44.59375 0 
L 38.59375 0 
L 38.59375 35.796875 
Q 38.59375 41.40625 36.25 44.59375 
Q 33.90625 47.796875 27.5 47.796875 
Q 24.203125 47.796875 21.140625 46.34375 
Q 18.09375 44.90625 15.796875 41.90625 
Q 14.796875 40.59375 14.140625 38.84375 
Q 13.5 37.09375 13.09375 35.1875 
Q 12.703125 33.296875 12.546875 31.390625 
Q 12.40625 29.5 12.40625 27.90625 
z
" id="Helvetica-Light-109"/>
     </defs>
     <g transform="translate(49.87875 25.28)scale(0.08 -0.08)">
      <use xlink:href="#Helvetica-Light-101"/>
      <use x="55.599991" xlink:href="#Helvetica-Light-113"/>
      <use x="116.699982" xlink:href="#Helvetica-Light-117"/>
      <use x="172.299973" xlink:href="#Helvetica-Light-105"/>
      <use x="194.499969" xlink:href="#Helvetica-Light-108"/>
      <use x="216.699966" xlink:href="#Helvetica-Light-105"/>
      <use x="238.899963" xlink:href="#Helvetica-Light-98"/>
      <use x="299.999954" xlink:href="#Helvetica-Light-114"/>
      <use x="333.299942" xlink:href="#Helvetica-Light-105"/>
      <use x="355.499939" xlink:href="#Helvetica-Light-117"/>
      <use x="411.09993" xlink:href="#Helvetica-Light-109"/>
     </g>
    </g>
    <g id="line2d_18">
     <path d="M 37.87875 34.1125 
L 45.87875 34.1125 
" style="fill:none;stroke:#4b90a5;stroke-linecap:round;stroke-width:0.7;"/>
    </g>
    <g id="line2d_19"/>
    <g id="text_16">
     <!-- $ {K|q|}\, /\,  {2k_{\rm F}} $ -->
     <defs>
      <path d="M 14.09375 75 
L 14.09375 -25 
L 8.09375 -25 
L 8.09375 75 
z
" id="Helvetica-Light-124"/>
     </defs>
     <g transform="translate(49.87875 36.9125)scale(0.08 -0.08)">
      <use xlink:href="#Helvetica-LightOblique-75"/>
      <use transform="translate(66.699997 0)" xlink:href="#Helvetica-Light-124"/>
      <use transform="translate(88.899994 0)" xlink:href="#Helvetica-LightOblique-113"/>
      <use transform="translate(149.999985 0)" xlink:href="#Helvetica-Light-124"/>
      <use transform="translate(186.083591 0)" xlink:href="#Helvetica-Light-47"/>
      <use transform="translate(227.767187 0)" xlink:href="#Helvetica-Light-50"/>
      <use transform="translate(283.367178 0)" xlink:href="#Helvetica-LightOblique-107"/>
      <use transform="translate(333.367163 -15.539062)scale(0.7)" xlink:href="#Helvetica-Light-70"/>
     </g>
    </g>
   </g>
  </g>
 </g>
 <defs>
  <clipPath id="pea256e388c">
   <rect height="116.630791" width="196.06464" x="30.67875" y="0.72"/>
  </clipPath>
 </defs>
</svg>
