<?xml version="1.0" encoding="utf-8" standalone="no"?>
<!DOCTYPE svg PUBLIC "-//W3C//DTD SVG 1.1//EN"
  "http://www.w3.org/Graphics/SVG/1.1/DTD/svg11.dtd">
<!-- Created with matplotlib (https://matplotlib.org/) -->
<svg height="142.439356pt" version="1.1" viewBox="0 0 232.613676 142.439356" width="232.613676pt" xmlns="http://www.w3.org/2000/svg" xmlns:xlink="http://www.w3.org/1999/xlink">
 <defs>
  <style type="text/css">
*{stroke-linecap:butt;stroke-linejoin:round;}
  </style>
 </defs>
 <g id="figure_1">
  <g id="patch_1">
   <path d="M 0 142.439356 
L 232.613676 142.439356 
L 232.613676 0 
L 0 0 
z
" style="fill:none;"/>
  </g>
  <g id="axes_1">
   <g id="patch_2">
    <path d="M 35.33375 119.934356 
L 112.983112 119.934356 
L 112.983112 3.303565 
L 35.33375 3.303565 
z
" style="fill:none;"/>
   </g>
   <g id="line2d_1">
    <path clip-path="url(#p15e4cf5c4c)" d="M 35.33375 13.415207 
L 36.146919 13.716375 
L 36.960088 14.616295 
L 37.773257 16.104256 
L 38.586426 18.16255 
L 39.399596 20.766677 
L 40.212765 23.885646 
L 41.025934 27.482334 
L 41.839103 31.513934 
L 42.652272 35.932463 
L 43.465441 40.685333 
L 44.27861 45.715976 
L 45.091779 50.964518 
L 45.904948 56.368493 
L 46.718118 61.863583 
L 47.531287 67.384386 
L 48.344456 72.865196 
L 49.157625 78.240781 
L 49.970794 83.447161 
L 50.783963 88.422373 
L 51.597132 93.1072 
L 52.410301 97.445887 
L 53.22347 101.386794 
L 54.03664 104.883018 
L 54.849809 107.892947 
L 55.662978 110.380758 
L 56.476147 112.316841 
L 57.289316 113.678155 
L 58.102485 114.448495 
L 58.915654 114.618695 
L 59.728823 114.186728 
L 60.541992 113.157735 
L 61.355162 111.543964 
L 62.168331 109.364622 
L 62.9815 106.645645 
L 63.794669 103.419396 
L 64.607838 99.724271 
L 65.421007 95.604251 
L 66.234176 91.108369 
L 67.047345 86.290136 
L 67.860515 81.206898 
L 68.673684 75.919152 
L 69.486853 70.489835 
L 70.300022 64.983563 
L 71.113191 59.465871 
L 71.92636 54.002431 
L 72.739529 48.658266 
L 73.552698 43.496982 
L 74.365867 38.580007 
L 75.179037 33.965863 
L 75.992206 29.709465 
L 76.805375 25.861472 
L 77.618544 22.467683 
L 78.431713 19.56849 
L 79.244882 17.198398 
L 80.058051 15.385616 
L 80.87122 14.151719 
L 81.684389 13.511392 
L 82.497559 13.472257 
L 83.310728 14.034779 
L 84.123897 15.192263 
L 84.937066 16.930934 
L 85.750235 19.230098 
L 86.563404 22.062391 
L 87.376573 25.394102 
L 88.189742 29.18558 
L 89.002911 33.391699 
L 89.816081 37.962398 
L 90.62925 42.843278 
L 91.442419 47.976247 
L 92.255588 53.300214 
L 93.068757 58.751815 
L 93.881926 64.266165 
L 94.695095 69.777633 
L 95.508264 75.220625 
L 96.321433 80.530357 
L 97.134603 85.643635 
L 97.947772 90.499602 
L 98.760941 95.040462 
L 99.57411 99.212172 
L 100.387279 102.965081 
L 101.200448 106.254521 
L 102.013617 109.041344 
L 102.826786 111.292381 
L 103.639955 112.98084 
L 104.453125 114.086626 
L 105.266294 114.596578 
L 106.079463 114.504627 
L 106.892632 113.811866 
L 107.705801 112.526542 
L 108.51897 110.663952 
L 109.332139 108.246263 
L 110.145308 105.302251 
L 110.958477 101.866955 
L 111.771647 97.981261 
L 112.584816 93.691415 
L 113.397985 89.048475 
" style="fill:none;stroke:#5e4fa2;stroke-linecap:round;stroke-width:0.5;"/>
   </g>
   <g id="matplotlib.axis_1">
    <g id="xtick_1">
     <g id="line2d_2">
      <defs>
       <path d="M 0 0 
L 0 2 
" id="mb0a27b3967" style="stroke:#000000;stroke-width:0.35;"/>
      </defs>
      <g>
       <use style="stroke:#000000;stroke-width:0.35;" x="35.33375" xlink:href="#mb0a27b3967" y="119.934356"/>
      </g>
     </g>
     <g id="text_1">
      <!-- 0 -->
      <defs>
       <path d="M 45.203125 34.703125 
Q 45.203125 40.40625 44.546875 45.84375 
Q 43.90625 51.296875 42 55.59375 
Q 40.09375 59.90625 36.640625 62.5 
Q 33.203125 65.09375 27.59375 65.09375 
Q 22.296875 65.09375 18.9375 62.4375 
Q 15.59375 59.796875 13.6875 55.390625 
Q 11.796875 51 11.046875 45.390625 
Q 10.296875 39.796875 10.296875 34 
Q 10.296875 27.203125 11.140625 21.640625 
Q 12 16.09375 14 12.1875 
Q 16 8.296875 19.34375 6.140625 
Q 22.703125 4 27.796875 4 
Q 33.5 4 36.953125 6.796875 
Q 40.40625 9.59375 42.203125 14 
Q 44 18.40625 44.59375 23.90625 
Q 45.203125 29.40625 45.203125 34.703125 
z
M 27.796875 70.5 
Q 33 70.5 36.796875 68.953125 
Q 40.59375 67.40625 43.25 64.703125 
Q 45.90625 62 47.546875 58.390625 
Q 49.203125 54.796875 50.09375 50.75 
Q 51 46.703125 51.296875 42.390625 
Q 51.59375 38.09375 51.59375 34 
Q 51.59375 27 50.59375 20.59375 
Q 49.59375 14.203125 46.9375 9.296875 
Q 44.296875 4.40625 39.6875 1.5 
Q 35.09375 -1.40625 27.796875 -1.40625 
Q 20.5 -1.40625 15.84375 1.5 
Q 11.203125 4.40625 8.546875 9.34375 
Q 5.90625 14.296875 4.90625 20.84375 
Q 3.90625 27.40625 3.90625 34.703125 
Q 3.90625 41.40625 4.796875 47.796875 
Q 5.703125 54.203125 8.25 59.25 
Q 10.796875 64.296875 15.5 67.390625 
Q 20.203125 70.5 27.796875 70.5 
z
" id="Helvetica-Light-48"/>
      </defs>
      <g transform="translate(33.11 130.694356)scale(0.08 -0.08)">
       <use xlink:href="#Helvetica-Light-48"/>
      </g>
     </g>
    </g>
    <g id="xtick_2">
     <g id="line2d_3">
      <g>
       <use style="stroke:#000000;stroke-width:0.35;" x="74.158431" xlink:href="#mb0a27b3967" y="119.934356"/>
      </g>
     </g>
     <g id="text_2">
      <!-- 10 -->
      <defs>
       <path d="M 30.203125 52.40625 
L 12 52.40625 
L 12 56.59375 
Q 16 56.90625 19.25 57.40625 
Q 22.5 57.90625 24.953125 59.296875 
Q 27.40625 60.703125 29.046875 63.34375 
Q 30.703125 66 31.5 70.5 
L 36.59375 70.5 
L 36.59375 0 
L 30.203125 0 
z
" id="Helvetica-Light-49"/>
      </defs>
      <g transform="translate(69.710931 130.694356)scale(0.08 -0.08)">
       <use xlink:href="#Helvetica-Light-49"/>
       <use x="55.599991" xlink:href="#Helvetica-Light-48"/>
      </g>
     </g>
    </g>
    <g id="xtick_3">
     <g id="line2d_4">
      <g>
       <use style="stroke:#000000;stroke-width:0.35;" x="112.983112" xlink:href="#mb0a27b3967" y="119.934356"/>
      </g>
     </g>
     <g id="text_3">
      <!-- 20 -->
      <defs>
       <path d="M 6.90625 47.40625 
Q 6.90625 52.59375 8.5 56.84375 
Q 10.09375 61.09375 13.09375 64.140625 
Q 16.09375 67.203125 20.34375 68.84375 
Q 24.59375 70.5 29.796875 70.5 
Q 35.09375 70.5 39.140625 68.953125 
Q 43.203125 67.40625 45.953125 64.796875 
Q 48.703125 62.203125 50.09375 58.59375 
Q 51.5 55 51.5 51 
Q 51.5 46.296875 49.953125 42.6875 
Q 48.40625 39.09375 45.84375 36.296875 
Q 43.296875 33.5 40.046875 31.296875 
Q 36.796875 29.09375 33.390625 27.140625 
Q 30 25.203125 26.703125 23.390625 
Q 23.40625 21.59375 20.796875 19.59375 
Q 19.09375 18.296875 17.5 16.84375 
Q 15.90625 15.40625 14.59375 13.703125 
Q 13.296875 12 12.5 9.953125 
Q 11.703125 7.90625 11.59375 5.40625 
L 50.90625 5.40625 
L 50.90625 0 
L 4.796875 0 
Q 4.90625 5.09375 5.90625 9.1875 
Q 6.90625 13.296875 10.296875 17.203125 
Q 14 21.40625 17.953125 24.40625 
Q 21.90625 27.40625 25.703125 29.75 
Q 29.5 32.09375 32.890625 34.046875 
Q 36.296875 36 38.890625 38.296875 
Q 41.5 40.59375 43 43.5 
Q 44.5 46.40625 44.5 50.59375 
Q 44.5 54 43.296875 56.703125 
Q 42.09375 59.40625 40 61.296875 
Q 37.90625 63.203125 35.09375 64.140625 
Q 32.296875 65.09375 29 65.09375 
Q 25.5 65.09375 22.640625 63.640625 
Q 19.796875 62.203125 17.75 59.796875 
Q 15.703125 57.40625 14.59375 54.203125 
Q 13.5 51 13.703125 47.40625 
z
" id="Helvetica-Light-50"/>
      </defs>
      <g transform="translate(108.535612 130.694356)scale(0.08 -0.08)">
       <use xlink:href="#Helvetica-Light-50"/>
       <use x="55.599991" xlink:href="#Helvetica-Light-48"/>
      </g>
     </g>
    </g>
    <g id="text_4">
     <!-- $vt/a_0$ -->
     <defs>
      <path d="M 12.703125 51.796875 
L 19.203125 51.796875 
L 26.59375 7.40625 
L 52.796875 51.796875 
L 59.296875 51.796875 
L 28.203125 0 
L 21.5 0 
z
" id="Helvetica-LightOblique-118"/>
      <path d="M 25.40625 -0.203125 
Q 24.296875 -0.40625 22.34375 -0.90625 
Q 20.40625 -1.40625 18.203125 -1.40625 
Q 13.703125 -1.40625 11.84375 0.84375 
Q 10 3.09375 11.203125 8.90625 
L 19.203125 46.796875 
L 11.90625 46.796875 
L 13 51.796875 
L 20.296875 51.796875 
L 23.40625 66.203125 
L 29.40625 66.203125 
L 26.296875 51.796875 
L 36 51.796875 
L 34.90625 46.796875 
L 25.203125 46.796875 
L 17.703125 11.296875 
Q 17.296875 9.40625 17.09375 8 
Q 16.90625 6.59375 17.25 5.6875 
Q 17.59375 4.796875 18.546875 4.390625 
Q 19.5 4 21.40625 4 
Q 22.59375 4 23.84375 4.203125 
Q 25.09375 4.40625 26.40625 4.703125 
z
" id="Helvetica-LightOblique-116"/>
      <path d="M 5.296875 -9 
L -0.296875 -9 
L 23.203125 73.90625 
L 28.796875 73.90625 
z
" id="Helvetica-Light-47"/>
      <path d="M 46.90625 27.203125 
Q 42.703125 25.59375 38.75 25.09375 
Q 34.796875 24.59375 30.796875 24.296875 
Q 23.796875 23.796875 19.34375 21.1875 
Q 14.90625 18.59375 13.796875 13.296875 
Q 13.296875 10.90625 13.890625 9.15625 
Q 14.5 7.40625 15.84375 6.25 
Q 17.203125 5.09375 19.09375 4.546875 
Q 21 4 23.09375 4 
Q 26.703125 4 30.25 4.890625 
Q 33.796875 5.796875 36.84375 7.640625 
Q 39.90625 9.5 42.09375 12.34375 
Q 44.296875 15.203125 45.203125 19.09375 
z
M 37.40625 30.203125 
Q 39.09375 30.40625 41.546875 30.796875 
Q 44 31.203125 45.703125 31.90625 
Q 47.40625 32.59375 48.046875 34.25 
Q 48.703125 35.90625 49 37.296875 
Q 49.5 39.59375 49.203125 41.5 
Q 48.90625 43.40625 47.65625 44.796875 
Q 46.40625 46.203125 44.15625 47 
Q 41.90625 47.796875 38.40625 47.796875 
Q 32.203125 47.796875 27.59375 45.296875 
Q 23 42.796875 20.796875 36.09375 
L 14.703125 36.09375 
Q 16 40.703125 18.453125 43.953125 
Q 20.90625 47.203125 24.203125 49.25 
Q 27.5 51.296875 31.453125 52.25 
Q 35.40625 53.203125 39.59375 53.203125 
Q 43.5 53.203125 46.75 52.34375 
Q 50 51.5 52.140625 49.640625 
Q 54.296875 47.796875 55.09375 44.6875 
Q 55.90625 41.59375 55 37.09375 
L 49 8.90625 
Q 48.203125 5.40625 49.25 4.453125 
Q 50.296875 3.5 54.40625 4.90625 
L 53.40625 0.203125 
Q 52.703125 0 51.25 -0.390625 
Q 49.796875 -0.796875 48.5 -0.796875 
Q 47.203125 -0.796875 45.90625 -0.5 
Q 43 0 42.59375 2.25 
Q 42.203125 4.5 42.703125 7.203125 
Q 38 3 32.640625 0.796875 
Q 27.296875 -1.40625 21.59375 -1.40625 
Q 18.203125 -1.40625 15.25 -0.5 
Q 12.296875 0.40625 10.296875 2.296875 
Q 8.296875 4.203125 7.5 6.953125 
Q 6.703125 9.703125 7.5 13.5 
Q 10.203125 26.703125 28.90625 29.09375 
z
" id="Helvetica-LightOblique-97"/>
     </defs>
     <g transform="translate(66.038431 140.086856)scale(0.08 -0.08)">
      <use transform="translate(0 0.09375)" xlink:href="#Helvetica-LightOblique-118"/>
      <use transform="translate(49.999985 0.09375)" xlink:href="#Helvetica-LightOblique-116"/>
      <use transform="translate(77.799973 0.09375)" xlink:href="#Helvetica-Light-47"/>
      <use transform="translate(105.59996 0.09375)" xlink:href="#Helvetica-LightOblique-97"/>
      <use transform="translate(161.199951 -15.445312)scale(0.7)" xlink:href="#Helvetica-Light-48"/>
     </g>
    </g>
   </g>
   <g id="matplotlib.axis_2">
    <g id="ytick_1">
     <g id="line2d_5">
      <defs>
       <path d="M 0 0 
L -2 0 
" id="m559e6b5f8a" style="stroke:#000000;stroke-width:0.35;"/>
      </defs>
      <g>
       <use style="stroke:#000000;stroke-width:0.35;" x="35.33375" xlink:href="#m559e6b5f8a" y="114.098319"/>
      </g>
     </g>
     <g id="text_5">
      <!-- 0.076 -->
      <defs>
       <path d="M 10.203125 0 
L 10.203125 8.796875 
L 17.5 8.796875 
L 17.5 0 
z
" id="Helvetica-Light-46"/>
       <path d="M 5.90625 69.796875 
L 50.796875 69.796875 
L 50.796875 63.796875 
Q 43.203125 55.203125 37.890625 46.140625 
Q 32.59375 37.09375 29.1875 28.546875 
Q 25.796875 20 24.140625 12.59375 
Q 22.5 5.203125 22.203125 0 
L 15.203125 0 
Q 15.703125 7.59375 18.25 16.140625 
Q 20.796875 24.703125 24.59375 33.09375 
Q 28.40625 41.5 33.203125 49.34375 
Q 38 57.203125 43.09375 63.40625 
L 5.90625 63.40625 
z
" id="Helvetica-Light-55"/>
       <path d="M 43.703125 53.203125 
Q 42.59375 58.59375 39.296875 61.84375 
Q 36 65.09375 30.296875 65.09375 
Q 23.796875 65.09375 20.046875 62 
Q 16.296875 58.90625 14.296875 54.15625 
Q 12.296875 49.40625 11.59375 43.796875 
Q 10.90625 38.203125 10.5 33.203125 
Q 12 35.203125 13.640625 37.203125 
Q 15.296875 39.203125 17.390625 40.75 
Q 19.5 42.296875 22.296875 43.25 
Q 25.09375 44.203125 29 44.203125 
Q 39.703125 44.203125 45.546875 38.140625 
Q 51.40625 32.09375 51.40625 21.5 
Q 51.40625 10.796875 45.5 4.6875 
Q 39.59375 -1.40625 28.796875 -1.40625 
Q 23.5 -1.40625 19 0.34375 
Q 14.5 2.09375 11.203125 6.09375 
Q 7.90625 10.09375 6 16.546875 
Q 4.09375 23 4.09375 32.296875 
Q 4.09375 38.59375 5.1875 45.34375 
Q 6.296875 52.09375 9.140625 57.6875 
Q 12 63.296875 16.953125 66.890625 
Q 21.90625 70.5 29.703125 70.5 
Q 38.09375 70.5 43.6875 66.09375 
Q 49.296875 61.703125 50.296875 53.203125 
z
M 28.796875 38.796875 
Q 25.09375 38.796875 22.140625 37.390625 
Q 19.203125 36 17.140625 33.59375 
Q 15.09375 31.203125 14 28.046875 
Q 12.90625 24.90625 12.90625 21.296875 
Q 12.90625 18.296875 13.75 15.25 
Q 14.59375 12.203125 16.546875 9.703125 
Q 18.5 7.203125 21.5 5.59375 
Q 24.5 4 28.90625 4 
Q 33.40625 4 36.453125 5.546875 
Q 39.5 7.09375 41.390625 9.640625 
Q 43.296875 12.203125 44.140625 15.34375 
Q 45 18.5 45 21.703125 
Q 45 29.90625 41.046875 34.34375 
Q 37.09375 38.796875 28.796875 38.796875 
z
" id="Helvetica-Light-54"/>
      </defs>
      <g transform="translate(10.32 116.978319)scale(0.08 -0.08)">
       <use xlink:href="#Helvetica-Light-48"/>
       <use x="55.599991" xlink:href="#Helvetica-Light-46"/>
       <use x="83.399979" xlink:href="#Helvetica-Light-48"/>
       <use x="138.999969" xlink:href="#Helvetica-Light-55"/>
       <use x="194.59996" xlink:href="#Helvetica-Light-54"/>
      </g>
     </g>
    </g>
    <g id="ytick_2">
     <g id="line2d_6">
      <g>
       <use style="stroke:#000000;stroke-width:0.35;" x="35.33375" xlink:href="#m559e6b5f8a" y="86.473739"/>
      </g>
     </g>
     <g id="text_6">
      <!-- 0.078 -->
      <defs>
       <path d="M 27.90625 34.5 
Q 24.203125 34.5 21.09375 33.59375 
Q 18 32.703125 15.703125 30.84375 
Q 13.40625 29 12.09375 26.140625 
Q 10.796875 23.296875 10.796875 19.40625 
Q 10.796875 16.09375 12.046875 13.296875 
Q 13.296875 10.5 15.546875 8.453125 
Q 17.796875 6.40625 21.046875 5.203125 
Q 24.296875 4 28.296875 4 
Q 31.796875 4 34.796875 5.140625 
Q 37.796875 6.296875 40.046875 8.390625 
Q 42.296875 10.5 43.546875 13.390625 
Q 44.796875 16.296875 44.796875 19.796875 
Q 44.796875 23.5 43.5 26.25 
Q 42.203125 29 39.890625 30.84375 
Q 37.59375 32.703125 34.5 33.59375 
Q 31.40625 34.5 27.90625 34.5 
z
M 27.59375 65.09375 
Q 24.59375 65.09375 22 64.296875 
Q 19.40625 63.5 17.453125 61.890625 
Q 15.5 60.296875 14.390625 57.890625 
Q 13.296875 55.5 13.296875 52.40625 
Q 13.296875 49.09375 14.546875 46.75 
Q 15.796875 44.40625 17.890625 42.90625 
Q 20 41.40625 22.703125 40.65625 
Q 25.40625 39.90625 28.296875 39.90625 
Q 31.203125 39.90625 33.703125 40.65625 
Q 36.203125 41.40625 38 43.09375 
Q 39.796875 44.796875 40.84375 47.390625 
Q 41.90625 50 41.90625 53.796875 
Q 41.90625 59.203125 38.40625 62.140625 
Q 34.90625 65.09375 27.59375 65.09375 
z
M 16.703125 37.90625 
Q 14.09375 39.5 12.25 40.953125 
Q 10.40625 42.40625 9.203125 44.09375 
Q 8 45.796875 7.453125 47.9375 
Q 6.90625 50.09375 6.90625 53.296875 
Q 6.90625 56.90625 8.5 60.09375 
Q 10.09375 63.296875 12.796875 65.640625 
Q 15.5 68 19.140625 69.296875 
Q 22.796875 70.59375 27 70.5 
Q 31 70.5 34.84375 69.5 
Q 38.703125 68.5 41.703125 66.390625 
Q 44.703125 64.296875 46.5 61.046875 
Q 48.296875 57.796875 48.296875 53.296875 
Q 48.296875 47.796875 46.046875 43.890625 
Q 43.796875 40 38.703125 37.5 
Q 44.5 35.40625 47.84375 30.796875 
Q 51.203125 26.203125 51.203125 20 
Q 51.203125 14.796875 49.453125 10.796875 
Q 47.703125 6.796875 44.453125 4.09375 
Q 41.203125 1.40625 36.59375 0 
Q 32 -1.40625 26.40625 -1.40625 
Q 22.59375 -1.40625 18.640625 -0.09375 
Q 14.703125 1.203125 11.546875 3.796875 
Q 8.40625 6.40625 6.40625 10.296875 
Q 4.40625 14.203125 4.40625 19.40625 
Q 4.40625 25.703125 7.546875 30.640625 
Q 10.703125 35.59375 16.703125 37.90625 
z
" id="Helvetica-Light-56"/>
      </defs>
      <g transform="translate(10.32 89.353739)scale(0.08 -0.08)">
       <use xlink:href="#Helvetica-Light-48"/>
       <use x="55.599991" xlink:href="#Helvetica-Light-46"/>
       <use x="83.399979" xlink:href="#Helvetica-Light-48"/>
       <use x="138.999969" xlink:href="#Helvetica-Light-55"/>
       <use x="194.59996" xlink:href="#Helvetica-Light-56"/>
      </g>
     </g>
    </g>
    <g id="ytick_3">
     <g id="line2d_7">
      <g>
       <use style="stroke:#000000;stroke-width:0.35;" x="35.33375" xlink:href="#m559e6b5f8a" y="58.849159"/>
      </g>
     </g>
     <g id="text_7">
      <!-- 0.080 -->
      <g transform="translate(10.32 61.729159)scale(0.08 -0.08)">
       <use xlink:href="#Helvetica-Light-48"/>
       <use x="55.599991" xlink:href="#Helvetica-Light-46"/>
       <use x="83.399979" xlink:href="#Helvetica-Light-48"/>
       <use x="138.999969" xlink:href="#Helvetica-Light-56"/>
       <use x="194.59996" xlink:href="#Helvetica-Light-48"/>
      </g>
     </g>
    </g>
    <g id="ytick_4">
     <g id="line2d_8">
      <g>
       <use style="stroke:#000000;stroke-width:0.35;" x="35.33375" xlink:href="#m559e6b5f8a" y="31.22458"/>
      </g>
     </g>
     <g id="text_8">
      <!-- 0.082 -->
      <g transform="translate(10.32 34.10458)scale(0.08 -0.08)">
       <use xlink:href="#Helvetica-Light-48"/>
       <use x="55.599991" xlink:href="#Helvetica-Light-46"/>
       <use x="83.399979" xlink:href="#Helvetica-Light-48"/>
       <use x="138.999969" xlink:href="#Helvetica-Light-56"/>
       <use x="194.59996" xlink:href="#Helvetica-Light-50"/>
      </g>
     </g>
    </g>
    <g id="ytick_5">
     <g id="line2d_9">
      <g>
       <use style="stroke:#000000;stroke-width:0.35;" x="35.33375" xlink:href="#m559e6b5f8a" y="3.6"/>
      </g>
     </g>
     <g id="text_9">
      <!-- 0.084 -->
      <defs>
       <path d="M 35.796875 17.40625 
L 3.59375 17.40625 
L 3.59375 22.90625 
L 36.40625 69.796875 
L 42.203125 69.796875 
L 42.203125 22.796875 
L 52 22.796875 
L 52 17.40625 
L 42.203125 17.40625 
L 42.203125 0 
L 35.796875 0 
z
M 9.90625 22.796875 
L 35.796875 22.796875 
L 35.796875 60.203125 
z
" id="Helvetica-Light-52"/>
      </defs>
      <g transform="translate(10.32 6.48)scale(0.08 -0.08)">
       <use xlink:href="#Helvetica-Light-48"/>
       <use x="55.599991" xlink:href="#Helvetica-Light-46"/>
       <use x="83.399979" xlink:href="#Helvetica-Light-48"/>
       <use x="138.999969" xlink:href="#Helvetica-Light-56"/>
       <use x="194.59996" xlink:href="#Helvetica-Light-52"/>
      </g>
     </g>
    </g>
    <g id="text_10">
     <!-- $S(q/k_{\rm F}=0.17;t)$ -->
     <defs>
      <path d="M 15.5 21.5 
Q 14.90625 16.703125 15.90625 13.34375 
Q 16.90625 10 19.203125 7.890625 
Q 21.5 5.796875 24.890625 4.84375 
Q 28.296875 3.90625 32.40625 3.90625 
Q 37.203125 3.90625 40.953125 5.09375 
Q 44.703125 6.296875 47.34375 8.34375 
Q 50 10.40625 51.640625 13.09375 
Q 53.296875 15.796875 53.90625 18.796875 
Q 54.796875 23 53.4375 25.59375 
Q 52.09375 28.203125 49.34375 29.84375 
Q 46.59375 31.5 42.890625 32.5 
Q 39.203125 33.5 35.296875 34.453125 
Q 31.40625 35.40625 27.703125 36.703125 
Q 24 38 21.390625 40.203125 
Q 18.796875 42.40625 17.640625 45.84375 
Q 16.5 49.296875 17.59375 54.59375 
Q 18.40625 58.296875 20.703125 61.796875 
Q 23 65.296875 26.59375 68 
Q 30.203125 70.703125 35.140625 72.296875 
Q 40.09375 73.90625 46.09375 73.90625 
Q 52.203125 73.90625 56.34375 72.203125 
Q 60.5 70.5 62.890625 67.546875 
Q 65.296875 64.59375 66 60.6875 
Q 66.703125 56.796875 65.703125 52.40625 
L 59.203125 52.40625 
Q 60.09375 56.5 59.25 59.5 
Q 58.40625 62.5 56.40625 64.390625 
Q 54.40625 66.296875 51.34375 67.1875 
Q 48.296875 68.09375 44.90625 68.09375 
Q 39.703125 68.09375 35.84375 66.640625 
Q 32 65.203125 29.390625 62.890625 
Q 26.796875 60.59375 25.390625 57.796875 
Q 24 55 23.90625 52.203125 
Q 23.703125 48.703125 25.453125 46.59375 
Q 27.203125 44.5 30.09375 43.140625 
Q 33 41.796875 36.703125 40.9375 
Q 40.40625 40.09375 44.203125 39.140625 
Q 48 38.203125 51.5 36.890625 
Q 55 35.59375 57.390625 33.390625 
Q 59.796875 31.203125 60.84375 27.75 
Q 61.90625 24.296875 60.796875 19.09375 
Q 58.703125 9.09375 50.59375 3.59375 
Q 42.5 -1.90625 30 -1.90625 
Q 24.40625 -1.90625 19.90625 -0.453125 
Q 15.40625 1 12.546875 3.953125 
Q 9.703125 6.90625 8.703125 11.25 
Q 7.703125 15.59375 8.90625 21.5 
z
" id="Helvetica-LightOblique-83"/>
      <path d="M 27.703125 73.90625 
Q 20.5 63.5 16.453125 51.640625 
Q 12.40625 39.796875 12.40625 27.09375 
Q 12.40625 14.59375 16.59375 2.890625 
Q 20.796875 -8.796875 27.703125 -19.09375 
L 22.59375 -19.09375 
Q 18.5 -13.40625 15.296875 -8.046875 
Q 12.09375 -2.703125 9.890625 2.84375 
Q 7.703125 8.40625 6.59375 14.453125 
Q 5.5 20.5 5.5 27.59375 
Q 5.5 34.5 6.640625 40.546875 
Q 7.796875 46.59375 10 52.1875 
Q 12.203125 57.796875 15.34375 63.140625 
Q 18.5 68.5 22.59375 73.90625 
z
" id="Helvetica-Light-40"/>
      <path d="M 52.703125 26.09375 
Q 53.59375 30.5 53.25 34.453125 
Q 52.90625 38.40625 51.296875 41.34375 
Q 49.703125 44.296875 46.84375 46.046875 
Q 44 47.796875 39.90625 47.796875 
Q 35.203125 47.796875 31.390625 45.9375 
Q 27.59375 44.09375 24.6875 40.890625 
Q 21.796875 37.703125 19.890625 33.453125 
Q 18 29.203125 17.203125 24.296875 
Q 16.203125 19.40625 16.75 15.65625 
Q 17.296875 11.90625 19.09375 9.296875 
Q 20.90625 6.703125 23.84375 5.34375 
Q 26.796875 4 30.59375 4 
Q 34.796875 4 38.4375 5.703125 
Q 42.09375 7.40625 44.9375 10.34375 
Q 47.796875 13.296875 49.75 17.34375 
Q 51.703125 21.40625 52.703125 26.09375 
z
M 58.203125 51.796875 
L 64.203125 51.796875 
L 48.90625 -20.40625 
L 42.90625 -20.40625 
L 49 8.296875 
Q 45.09375 3.5 39.5 1.046875 
Q 33.90625 -1.40625 28.40625 -1.40625 
Q 22.5 -1.40625 18.59375 0.84375 
Q 14.703125 3.09375 12.640625 6.84375 
Q 10.59375 10.59375 10.25 15.59375 
Q 9.90625 20.59375 11.09375 26 
Q 12.296875 31.703125 14.6875 36.703125 
Q 17.09375 41.703125 20.6875 45.34375 
Q 24.296875 49 29.140625 51.09375 
Q 34 53.203125 40.296875 53.203125 
Q 42.796875 53.203125 45.25 52.5 
Q 47.703125 51.796875 49.84375 50.5 
Q 52 49.203125 53.640625 47.203125 
Q 55.296875 45.203125 56.09375 42.703125 
L 56.296875 42.703125 
z
" id="Helvetica-LightOblique-113"/>
      <path d="M 6.796875 0 
L 22.09375 72 
L 28.09375 72 
L 18.59375 27.203125 
L 49.203125 51.796875 
L 57.40625 51.796875 
L 34 33.09375 
L 48.703125 0 
L 42 0 
L 28.703125 28.90625 
L 17 19.59375 
L 12.796875 0 
z
" id="Helvetica-LightOblique-107"/>
      <path d="M 7.40625 0 
L 7.40625 72 
L 53.796875 72 
L 53.796875 66.203125 
L 14.203125 66.203125 
L 14.203125 40.203125 
L 50.203125 40.203125 
L 50.203125 34.40625 
L 14.203125 34.40625 
L 14.203125 0 
z
" id="Helvetica-Light-70"/>
      <path d="M 58 31.796875 
L 8 31.796875 
L 8 37.796875 
L 58 37.796875 
z
M 58 12.40625 
L 8 12.40625 
L 8 18.40625 
L 58 18.40625 
z
" id="Helvetica-Light-61"/>
      <path d="M 17.5 -3 
Q 17.5 -7.40625 15.453125 -10.046875 
Q 13.40625 -12.703125 10.203125 -13.703125 
L 10.203125 -10 
Q 11.40625 -9.203125 12.5 -7.796875 
Q 13.59375 -6.40625 13.59375 -3.40625 
L 13.59375 0 
L 10.203125 0 
L 10.203125 8.796875 
L 17.5 8.796875 
z
M 10.203125 40.40625 
L 10.203125 49.203125 
L 17.5 49.203125 
L 17.5 40.40625 
z
" id="Helvetica-Light-59"/>
      <path d="M 5.59375 -19.09375 
Q 12.796875 -8.703125 16.84375 3.140625 
Q 20.90625 15 20.90625 27.703125 
Q 20.90625 40.203125 16.703125 51.890625 
Q 12.5 63.59375 5.59375 73.90625 
L 10.703125 73.90625 
Q 14.796875 68.203125 18 62.84375 
Q 21.203125 57.5 23.34375 51.953125 
Q 25.5 46.40625 26.640625 40.34375 
Q 27.796875 34.296875 27.796875 27.203125 
Q 27.796875 20.296875 26.640625 14.25 
Q 25.5 8.203125 23.296875 2.59375 
Q 21.09375 -3 17.890625 -8.34375 
Q 14.703125 -13.703125 10.703125 -19.09375 
z
" id="Helvetica-Light-41"/>
     </defs>
     <g transform="translate(6.64 88.61896)rotate(-90)scale(0.08 -0.08)">
      <use transform="translate(0 0.09375)" xlink:href="#Helvetica-LightOblique-83"/>
      <use transform="translate(61.099991 0.09375)" xlink:href="#Helvetica-Light-40"/>
      <use transform="translate(94.399979 0.09375)" xlink:href="#Helvetica-LightOblique-113"/>
      <use transform="translate(155.499969 0.09375)" xlink:href="#Helvetica-Light-47"/>
      <use transform="translate(183.299957 0.09375)" xlink:href="#Helvetica-LightOblique-107"/>
      <use transform="translate(233.299942 -15.445312)scale(0.7)" xlink:href="#Helvetica-Light-70"/>
      <use transform="translate(291.469777 0.09375)" xlink:href="#Helvetica-Light-61"/>
      <use transform="translate(374.129759 0.09375)" xlink:href="#Helvetica-Light-48"/>
      <use transform="translate(429.72975 0.09375)" xlink:href="#Helvetica-Light-46"/>
      <use transform="translate(457.529738 0.09375)" xlink:href="#Helvetica-Light-49"/>
      <use transform="translate(513.129729 0.09375)" xlink:href="#Helvetica-Light-55"/>
      <use transform="translate(568.72972 0.09375)" xlink:href="#Helvetica-Light-59"/>
      <use transform="translate(613.189705 0.09375)" xlink:href="#Helvetica-LightOblique-116"/>
      <use transform="translate(640.989693 0.09375)" xlink:href="#Helvetica-Light-41"/>
     </g>
    </g>
   </g>
   <g id="line2d_10">
    <defs>
     <path d="M 0 1 
C 0.265203 1 0.51958 0.894634 0.707107 0.707107 
C 0.894634 0.51958 1 0.265203 1 0 
C 1 -0.265203 0.894634 -0.51958 0.707107 -0.707107 
C 0.51958 -0.894634 0.265203 -1 0 -1 
C -0.265203 -1 -0.51958 -0.894634 -0.707107 -0.707107 
C -0.894634 -0.51958 -1 -0.265203 -1 0 
C -1 0.265203 -0.894634 0.51958 -0.707107 0.707107 
C -0.51958 0.894634 -0.265203 1 0 1 
z
" id="ma699dab748" style="stroke:#5e4fa2;stroke-width:0.5;"/>
    </defs>
    <g clip-path="url(#p15e4cf5c4c)">
     <use style="fill-opacity:0;stroke:#5e4fa2;stroke-width:0.5;" x="35.33375" xlink:href="#ma699dab748" y="13.536113"/>
     <use style="fill-opacity:0;stroke:#5e4fa2;stroke-width:0.5;" x="36.146919" xlink:href="#ma699dab748" y="13.831004"/>
     <use style="fill-opacity:0;stroke:#5e4fa2;stroke-width:0.5;" x="36.960088" xlink:href="#ma699dab748" y="14.712347"/>
     <use style="fill-opacity:0;stroke:#5e4fa2;stroke-width:0.5;" x="37.773257" xlink:href="#ma699dab748" y="16.170386"/>
     <use style="fill-opacity:0;stroke:#5e4fa2;stroke-width:0.5;" x="38.586426" xlink:href="#ma699dab748" y="18.189522"/>
     <use style="fill-opacity:0;stroke:#5e4fa2;stroke-width:0.5;" x="39.399596" xlink:href="#ma699dab748" y="20.748959"/>
     <use style="fill-opacity:0;stroke:#5e4fa2;stroke-width:0.5;" x="40.212765" xlink:href="#ma699dab748" y="23.823055"/>
     <use style="fill-opacity:0;stroke:#5e4fa2;stroke-width:0.5;" x="41.025934" xlink:href="#ma699dab748" y="27.381149"/>
     <use style="fill-opacity:0;stroke:#5e4fa2;stroke-width:0.5;" x="41.839103" xlink:href="#ma699dab748" y="31.386866"/>
     <use style="fill-opacity:0;stroke:#5e4fa2;stroke-width:0.5;" x="42.652272" xlink:href="#ma699dab748" y="35.797134"/>
     <use style="fill-opacity:0;stroke:#5e4fa2;stroke-width:0.5;" x="43.465441" xlink:href="#ma699dab748" y="40.561372"/>
     <use style="fill-opacity:0;stroke:#5e4fa2;stroke-width:0.5;" x="44.27861" xlink:href="#ma699dab748" y="45.6213"/>
     <use style="fill-opacity:0;stroke:#5e4fa2;stroke-width:0.5;" x="45.091779" xlink:href="#ma699dab748" y="50.9117"/>
     <use style="fill-opacity:0;stroke:#5e4fa2;stroke-width:0.5;" x="45.904948" xlink:href="#ma699dab748" y="56.362192"/>
     <use style="fill-opacity:0;stroke:#5e4fa2;stroke-width:0.5;" x="46.718118" xlink:href="#ma699dab748" y="61.899754"/>
     <use style="fill-opacity:0;stroke:#5e4fa2;stroke-width:0.5;" x="47.531287" xlink:href="#ma699dab748" y="67.451518"/>
     <use style="fill-opacity:0;stroke:#5e4fa2;stroke-width:0.5;" x="48.344456" xlink:href="#ma699dab748" y="72.947246"/>
     <use style="fill-opacity:0;stroke:#5e4fa2;stroke-width:0.5;" x="49.157625" xlink:href="#ma699dab748" y="78.321029"/>
     <use style="fill-opacity:0;stroke:#5e4fa2;stroke-width:0.5;" x="49.970794" xlink:href="#ma699dab748" y="83.511945"/>
     <use style="fill-opacity:0;stroke:#5e4fa2;stroke-width:0.5;" x="50.783963" xlink:href="#ma699dab748" y="88.463751"/>
     <use style="fill-opacity:0;stroke:#5e4fa2;stroke-width:0.5;" x="51.597132" xlink:href="#ma699dab748" y="93.123932"/>
     <use style="fill-opacity:0;stroke:#5e4fa2;stroke-width:0.5;" x="52.410301" xlink:href="#ma699dab748" y="97.442584"/>
     <use style="fill-opacity:0;stroke:#5e4fa2;stroke-width:0.5;" x="53.22347" xlink:href="#ma699dab748" y="101.371615"/>
     <use style="fill-opacity:0;stroke:#5e4fa2;stroke-width:0.5;" x="54.03664" xlink:href="#ma699dab748" y="104.86462"/>
     <use style="fill-opacity:0;stroke:#5e4fa2;stroke-width:0.5;" x="54.849809" xlink:href="#ma699dab748" y="107.877522"/>
     <use style="fill-opacity:0;stroke:#5e4fa2;stroke-width:0.5;" x="55.662978" xlink:href="#ma699dab748" y="110.369904"/>
     <use style="fill-opacity:0;stroke:#5e4fa2;stroke-width:0.5;" x="56.476147" xlink:href="#ma699dab748" y="112.306703"/>
     <use style="fill-opacity:0;stroke:#5e4fa2;stroke-width:0.5;" x="57.289316" xlink:href="#ma699dab748" y="113.659916"/>
     <use style="fill-opacity:0;stroke:#5e4fa2;stroke-width:0.5;" x="58.102485" xlink:href="#ma699dab748" y="114.409968"/>
     <use style="fill-opacity:0;stroke:#5e4fa2;stroke-width:0.5;" x="58.915654" xlink:href="#ma699dab748" y="114.5465"/>
     <use style="fill-opacity:0;stroke:#5e4fa2;stroke-width:0.5;" x="59.728823" xlink:href="#ma699dab748" y="114.068507"/>
     <use style="fill-opacity:0;stroke:#5e4fa2;stroke-width:0.5;" x="60.541992" xlink:href="#ma699dab748" y="112.983887"/>
     <use style="fill-opacity:0;stroke:#5e4fa2;stroke-width:0.5;" x="61.355162" xlink:href="#ma699dab748" y="111.308595"/>
     <use style="fill-opacity:0;stroke:#5e4fa2;stroke-width:0.5;" x="62.168331" xlink:href="#ma699dab748" y="109.065606"/>
     <use style="fill-opacity:0;stroke:#5e4fa2;stroke-width:0.5;" x="62.9815" xlink:href="#ma699dab748" y="106.283924"/>
     <use style="fill-opacity:0;stroke:#5e4fa2;stroke-width:0.5;" x="63.794669" xlink:href="#ma699dab748" y="102.997783"/>
     <use style="fill-opacity:0;stroke:#5e4fa2;stroke-width:0.5;" x="64.607838" xlink:href="#ma699dab748" y="99.246109"/>
     <use style="fill-opacity:0;stroke:#5e4fa2;stroke-width:0.5;" x="65.421007" xlink:href="#ma699dab748" y="95.072232"/>
     <use style="fill-opacity:0;stroke:#5e4fa2;stroke-width:0.5;" x="66.234176" xlink:href="#ma699dab748" y="90.523755"/>
     <use style="fill-opacity:0;stroke:#5e4fa2;stroke-width:0.5;" x="67.047345" xlink:href="#ma699dab748" y="85.652484"/>
     <use style="fill-opacity:0;stroke:#5e4fa2;stroke-width:0.5;" x="67.860515" xlink:href="#ma699dab748" y="80.514271"/>
     <use style="fill-opacity:0;stroke:#5e4fa2;stroke-width:0.5;" x="68.673684" xlink:href="#ma699dab748" y="75.168709"/>
     <use style="fill-opacity:0;stroke:#5e4fa2;stroke-width:0.5;" x="69.486853" xlink:href="#ma699dab748" y="69.678599"/>
     <use style="fill-opacity:0;stroke:#5e4fa2;stroke-width:0.5;" x="70.300022" xlink:href="#ma699dab748" y="64.109225"/>
     <use style="fill-opacity:0;stroke:#5e4fa2;stroke-width:0.5;" x="71.113191" xlink:href="#ma699dab748" y="58.527437"/>
     <use style="fill-opacity:0;stroke:#5e4fa2;stroke-width:0.5;" x="71.92636" xlink:href="#ma699dab748" y="53.000641"/>
     <use style="fill-opacity:0;stroke:#5e4fa2;stroke-width:0.5;" x="72.739529" xlink:href="#ma699dab748" y="47.59574"/>
     <use style="fill-opacity:0;stroke:#5e4fa2;stroke-width:0.5;" x="73.552698" xlink:href="#ma699dab748" y="42.378094"/>
     <use style="fill-opacity:0;stroke:#5e4fa2;stroke-width:0.5;" x="74.365867" xlink:href="#ma699dab748" y="37.410549"/>
     <use style="fill-opacity:0;stroke:#5e4fa2;stroke-width:0.5;" x="75.179037" xlink:href="#ma699dab748" y="32.752545"/>
     <use style="fill-opacity:0;stroke:#5e4fa2;stroke-width:0.5;" x="75.992206" xlink:href="#ma699dab748" y="28.459334"/>
     <use style="fill-opacity:0;stroke:#5e4fa2;stroke-width:0.5;" x="76.805375" xlink:href="#ma699dab748" y="24.581304"/>
     <use style="fill-opacity:0;stroke:#5e4fa2;stroke-width:0.5;" x="77.618544" xlink:href="#ma699dab748" y="21.163417"/>
     <use style="fill-opacity:0;stroke:#5e4fa2;stroke-width:0.5;" x="78.431713" xlink:href="#ma699dab748" y="18.244776"/>
     <use style="fill-opacity:0;stroke:#5e4fa2;stroke-width:0.5;" x="79.244882" xlink:href="#ma699dab748" y="15.858307"/>
     <use style="fill-opacity:0;stroke:#5e4fa2;stroke-width:0.5;" x="80.058051" xlink:href="#ma699dab748" y="14.030563"/>
     <use style="fill-opacity:0;stroke:#5e4fa2;stroke-width:0.5;" x="80.87122" xlink:href="#ma699dab748" y="12.781624"/>
     <use style="fill-opacity:0;stroke:#5e4fa2;stroke-width:0.5;" x="81.684389" xlink:href="#ma699dab748" y="12.125059"/>
     <use style="fill-opacity:0;stroke:#5e4fa2;stroke-width:0.5;" x="82.497559" xlink:href="#ma699dab748" y="12.067909"/>
     <use style="fill-opacity:0;stroke:#5e4fa2;stroke-width:0.5;" x="83.310728" xlink:href="#ma699dab748" y="12.610661"/>
     <use style="fill-opacity:0;stroke:#5e4fa2;stroke-width:0.5;" x="84.123897" xlink:href="#ma699dab748" y="13.747166"/>
     <use style="fill-opacity:0;stroke:#5e4fa2;stroke-width:0.5;" x="84.937066" xlink:href="#ma699dab748" y="15.464525"/>
     <use style="fill-opacity:0;stroke:#5e4fa2;stroke-width:0.5;" x="85.750235" xlink:href="#ma699dab748" y="17.742958"/>
     <use style="fill-opacity:0;stroke:#5e4fa2;stroke-width:0.5;" x="86.563404" xlink:href="#ma699dab748" y="20.55571"/>
     <use style="fill-opacity:0;stroke:#5e4fa2;stroke-width:0.5;" x="87.376573" xlink:href="#ma699dab748" y="23.869089"/>
     <use style="fill-opacity:0;stroke:#5e4fa2;stroke-width:0.5;" x="88.189742" xlink:href="#ma699dab748" y="27.642695"/>
     <use style="fill-opacity:0;stroke:#5e4fa2;stroke-width:0.5;" x="89.002911" xlink:href="#ma699dab748" y="31.829912"/>
     <use style="fill-opacity:0;stroke:#5e4fa2;stroke-width:0.5;" x="89.816081" xlink:href="#ma699dab748" y="36.378676"/>
     <use style="fill-opacity:0;stroke:#5e4fa2;stroke-width:0.5;" x="90.62925" xlink:href="#ma699dab748" y="41.232504"/>
     <use style="fill-opacity:0;stroke:#5e4fa2;stroke-width:0.5;" x="91.442419" xlink:href="#ma699dab748" y="46.331684"/>
     <use style="fill-opacity:0;stroke:#5e4fa2;stroke-width:0.5;" x="92.255588" xlink:href="#ma699dab748" y="51.614519"/>
     <use style="fill-opacity:0;stroke:#5e4fa2;stroke-width:0.5;" x="93.068757" xlink:href="#ma699dab748" y="57.018469"/>
     <use style="fill-opacity:0;stroke:#5e4fa2;stroke-width:0.5;" x="93.881926" xlink:href="#ma699dab748" y="62.481061"/>
     <use style="fill-opacity:0;stroke:#5e4fa2;stroke-width:0.5;" x="94.695095" xlink:href="#ma699dab748" y="67.940471"/>
     <use style="fill-opacity:0;stroke:#5e4fa2;stroke-width:0.5;" x="95.508264" xlink:href="#ma699dab748" y="73.335759"/>
     <use style="fill-opacity:0;stroke:#5e4fa2;stroke-width:0.5;" x="96.321433" xlink:href="#ma699dab748" y="78.606808"/>
     <use style="fill-opacity:0;stroke:#5e4fa2;stroke-width:0.5;" x="97.134603" xlink:href="#ma699dab748" y="83.694117"/>
     <use style="fill-opacity:0;stroke:#5e4fa2;stroke-width:0.5;" x="97.947772" xlink:href="#ma699dab748" y="88.538625"/>
     <use style="fill-opacity:0;stroke:#5e4fa2;stroke-width:0.5;" x="98.760941" xlink:href="#ma699dab748" y="93.08177"/>
     <use style="fill-opacity:0;stroke:#5e4fa2;stroke-width:0.5;" x="99.57411" xlink:href="#ma699dab748" y="97.265979"/>
     <use style="fill-opacity:0;stroke:#5e4fa2;stroke-width:0.5;" x="100.387279" xlink:href="#ma699dab748" y="101.035636"/>
     <use style="fill-opacity:0;stroke:#5e4fa2;stroke-width:0.5;" x="101.200448" xlink:href="#ma699dab748" y="104.338546"/>
     <use style="fill-opacity:0;stroke:#5e4fa2;stroke-width:0.5;" x="102.013617" xlink:href="#ma699dab748" y="107.127725"/>
     <use style="fill-opacity:0;stroke:#5e4fa2;stroke-width:0.5;" x="102.826786" xlink:href="#ma699dab748" y="109.363295"/>
     <use style="fill-opacity:0;stroke:#5e4fa2;stroke-width:0.5;" x="103.639955" xlink:href="#ma699dab748" y="111.014164"/>
     <use style="fill-opacity:0;stroke:#5e4fa2;stroke-width:0.5;" x="104.453125" xlink:href="#ma699dab748" y="112.059236"/>
     <use style="fill-opacity:0;stroke:#5e4fa2;stroke-width:0.5;" x="105.266294" xlink:href="#ma699dab748" y="112.487915"/>
     <use style="fill-opacity:0;stroke:#5e4fa2;stroke-width:0.5;" x="106.079463" xlink:href="#ma699dab748" y="112.299841"/>
     <use style="fill-opacity:0;stroke:#5e4fa2;stroke-width:0.5;" x="106.892632" xlink:href="#ma699dab748" y="111.503922"/>
     <use style="fill-opacity:0;stroke:#5e4fa2;stroke-width:0.5;" x="107.705801" xlink:href="#ma699dab748" y="110.116868"/>
     <use style="fill-opacity:0;stroke:#5e4fa2;stroke-width:0.5;" x="108.51897" xlink:href="#ma699dab748" y="108.161545"/>
     <use style="fill-opacity:0;stroke:#5e4fa2;stroke-width:0.5;" x="109.332139" xlink:href="#ma699dab748" y="105.665464"/>
     <use style="fill-opacity:0;stroke:#5e4fa2;stroke-width:0.5;" x="110.145308" xlink:href="#ma699dab748" y="102.659693"/>
     <use style="fill-opacity:0;stroke:#5e4fa2;stroke-width:0.5;" x="110.958477" xlink:href="#ma699dab748" y="99.178335"/>
     <use style="fill-opacity:0;stroke:#5e4fa2;stroke-width:0.5;" x="111.771647" xlink:href="#ma699dab748" y="95.258599"/>
     <use style="fill-opacity:0;stroke:#5e4fa2;stroke-width:0.5;" x="112.584816" xlink:href="#ma699dab748" y="90.941319"/>
     <use style="fill-opacity:0;stroke:#5e4fa2;stroke-width:0.5;" x="113.397985" xlink:href="#ma699dab748" y="86.271677"/>
    </g>
   </g>
   <g id="patch_3">
    <path d="M 35.33375 119.934356 
L 35.33375 3.303565 
" style="fill:none;stroke:#000000;stroke-linecap:square;stroke-linejoin:miter;stroke-width:0.35;"/>
   </g>
   <g id="patch_4">
    <path d="M 112.983112 119.934356 
L 112.983112 3.303565 
" style="fill:none;stroke:#000000;stroke-linecap:square;stroke-linejoin:miter;stroke-width:0.35;"/>
   </g>
   <g id="patch_5">
    <path d="M 35.33375 119.934356 
L 112.983112 119.934356 
" style="fill:none;stroke:#000000;stroke-linecap:square;stroke-linejoin:miter;stroke-width:0.35;"/>
   </g>
   <g id="patch_6">
    <path d="M 35.33375 3.303565 
L 112.983112 3.303565 
" style="fill:none;stroke:#000000;stroke-linecap:square;stroke-linejoin:miter;stroke-width:0.35;"/>
   </g>
   <g id="text_11">
    <!-- N = 12 -->
    <defs>
     <path d="M 14.90625 62.796875 
L 14.703125 62.796875 
L 14.703125 0 
L 7.90625 0 
L 7.90625 72 
L 15.59375 72 
L 57.203125 9.09375 
L 57.40625 9.09375 
L 57.40625 72 
L 64.203125 72 
L 64.203125 0 
L 56.296875 0 
z
" id="Helvetica-Light-78"/>
     <path id="Helvetica-Light-32"/>
    </defs>
    <g transform="translate(88.135316 118.768048)scale(0.08 -0.08)">
     <use xlink:href="#Helvetica-Light-78"/>
     <use x="72.199982" xlink:href="#Helvetica-Light-32"/>
     <use x="99.999969" xlink:href="#Helvetica-Light-61"/>
     <use x="165.999954" xlink:href="#Helvetica-Light-32"/>
     <use x="193.799942" xlink:href="#Helvetica-Light-49"/>
     <use x="249.399933" xlink:href="#Helvetica-Light-50"/>
    </g>
   </g>
   <g id="legend_1">
    <g id="line2d_11"/>
    <g id="line2d_12">
     <g>
      <use style="fill-opacity:0;stroke:#5e4fa2;stroke-width:0.5;" x="40.980763" xlink:href="#ma699dab748" y="7.334144"/>
     </g>
    </g>
    <g id="text_12">
     <!-- V = 0.150 -->
     <defs>
      <path d="M 1.796875 72 
L 8.90625 72 
L 30.59375 8 
L 52.203125 72 
L 59.296875 72 
L 34.296875 0 
L 26.796875 0 
z
" id="Helvetica-Light-86"/>
      <path d="M 9.90625 18.296875 
Q 10.90625 11.09375 15.65625 7.546875 
Q 20.40625 4 27.296875 4 
Q 31.203125 4 34.34375 5.390625 
Q 37.5 6.796875 39.703125 9.25 
Q 41.90625 11.703125 43.046875 14.953125 
Q 44.203125 18.203125 44.203125 22 
Q 44.203125 25.90625 42.953125 29.203125 
Q 41.703125 32.5 39.453125 34.890625 
Q 37.203125 37.296875 33.953125 38.59375 
Q 30.703125 39.90625 26.703125 39.90625 
Q 21.90625 39.90625 18.09375 38.15625 
Q 14.296875 36.40625 11.40625 32.59375 
L 6.09375 33.296875 
L 11.796875 69.796875 
L 46.796875 69.796875 
L 46.796875 64.40625 
L 17.203125 64.40625 
L 12.796875 40.703125 
Q 14.90625 42 16.65625 42.890625 
Q 18.40625 43.796875 20.203125 44.34375 
Q 22 44.90625 23.953125 45.09375 
Q 25.90625 45.296875 28.296875 45.296875 
Q 33.09375 45.296875 37.1875 43.6875 
Q 41.296875 42.09375 44.296875 39.09375 
Q 47.296875 36.09375 48.9375 31.75 
Q 50.59375 27.40625 50.59375 22 
Q 50.59375 16.40625 48.75 12.046875 
Q 46.90625 7.703125 43.796875 4.703125 
Q 40.703125 1.703125 36.640625 0.140625 
Q 32.59375 -1.40625 28.296875 -1.40625 
Q 23.296875 -1.40625 18.9375 -0.40625 
Q 14.59375 0.59375 11.296875 2.9375 
Q 8 5.296875 5.953125 9.046875 
Q 3.90625 12.796875 3.5 18.296875 
z
" id="Helvetica-Light-53"/>
     </defs>
     <g transform="translate(48.980763 10.134144)scale(0.08 -0.08)">
      <use xlink:href="#Helvetica-Light-86"/>
      <use x="61.099991" xlink:href="#Helvetica-Light-32"/>
      <use x="88.899979" xlink:href="#Helvetica-Light-61"/>
      <use x="154.899963" xlink:href="#Helvetica-Light-32"/>
      <use x="182.699951" xlink:href="#Helvetica-Light-48"/>
      <use x="238.299942" xlink:href="#Helvetica-Light-46"/>
      <use x="266.09993" xlink:href="#Helvetica-Light-49"/>
      <use x="321.699921" xlink:href="#Helvetica-Light-53"/>
      <use x="377.299911" xlink:href="#Helvetica-Light-48"/>
     </g>
    </g>
    <g id="line2d_13">
     <path d="M 91.609513 7.334144 
L 99.609513 7.334144 
" style="fill:none;stroke:#5e4fa2;stroke-linecap:round;stroke-width:0.5;"/>
    </g>
    <g id="line2d_14"/>
    <g id="text_13">
     <!-- fit -->
     <defs>
      <path d="M 2 46.796875 
L 2 51.796875 
L 9.703125 51.796875 
L 9.703125 60 
Q 9.703125 66.203125 12.203125 69.796875 
Q 14.703125 73.40625 20.703125 73.40625 
Q 22.09375 73.40625 23.296875 73.296875 
Q 24.5 73.203125 25.703125 73 
L 25.703125 67.5 
Q 23.703125 68 22.09375 68 
Q 19.796875 68 18.5 67.140625 
Q 17.203125 66.296875 16.59375 64.890625 
Q 16 63.5 15.84375 61.75 
Q 15.703125 60 15.703125 58.203125 
L 15.703125 51.796875 
L 25.703125 51.796875 
L 25.703125 46.796875 
L 15.703125 46.796875 
L 15.703125 0 
L 9.703125 0 
L 9.703125 46.796875 
z
" id="Helvetica-Light-102"/>
      <path d="M 8.09375 0 
L 8.09375 51.796875 
L 14.09375 51.796875 
L 14.09375 0 
z
M 7.796875 63.09375 
L 7.796875 72 
L 14.40625 72 
L 14.40625 63.09375 
z
" id="Helvetica-Light-105"/>
      <path d="M 25.40625 -0.203125 
Q 24.296875 -0.40625 22.5 -0.90625 
Q 20.703125 -1.40625 18.5 -1.40625 
Q 14 -1.40625 11.640625 0.84375 
Q 9.296875 3.09375 9.296875 8.90625 
L 9.296875 46.796875 
L 2 46.796875 
L 2 51.796875 
L 9.296875 51.796875 
L 9.296875 66.203125 
L 15.296875 66.203125 
L 15.296875 51.796875 
L 25 51.796875 
L 25 46.796875 
L 15.296875 46.796875 
L 15.296875 11.296875 
Q 15.296875 9.40625 15.390625 8 
Q 15.5 6.59375 16 5.6875 
Q 16.5 4.796875 17.546875 4.390625 
Q 18.59375 4 20.5 4 
Q 21.703125 4 22.953125 4.203125 
Q 24.203125 4.40625 25.40625 4.703125 
z
" id="Helvetica-Light-116"/>
     </defs>
     <g transform="translate(103.609513 10.134144)scale(0.08 -0.08)">
      <use xlink:href="#Helvetica-Light-102"/>
      <use x="27.799988" xlink:href="#Helvetica-Light-105"/>
      <use x="49.999985" xlink:href="#Helvetica-Light-116"/>
     </g>
    </g>
   </g>
  </g>
  <g id="axes_2">
   <g id="patch_7">
    <path d="M 153.749028 119.934356 
L 231.39839 119.934356 
L 231.39839 3.303565 
L 153.749028 3.303565 
z
" style="fill:none;"/>
   </g>
   <g id="matplotlib.axis_3">
    <g id="xtick_4">
     <g id="line2d_15">
      <g>
       <use style="stroke:#000000;stroke-width:0.35;" x="158.813116" xlink:href="#mb0a27b3967" y="119.934356"/>
      </g>
     </g>
     <g id="text_14">
      <!-- 0.8 -->
      <g transform="translate(153.253741 130.694356)scale(0.08 -0.08)">
       <use xlink:href="#Helvetica-Light-48"/>
       <use x="55.599991" xlink:href="#Helvetica-Light-46"/>
       <use x="83.399979" xlink:href="#Helvetica-Light-56"/>
      </g>
     </g>
    </g>
    <g id="xtick_5">
     <g id="line2d_16">
      <g>
       <use style="stroke:#000000;stroke-width:0.35;" x="192.573709" xlink:href="#mb0a27b3967" y="119.934356"/>
      </g>
     </g>
     <g id="text_15">
      <!-- 1.0 -->
      <g transform="translate(187.014334 130.694356)scale(0.08 -0.08)">
       <use xlink:href="#Helvetica-Light-49"/>
       <use x="55.599991" xlink:href="#Helvetica-Light-46"/>
       <use x="83.399979" xlink:href="#Helvetica-Light-48"/>
      </g>
     </g>
    </g>
    <g id="xtick_6">
     <g id="line2d_17">
      <g>
       <use style="stroke:#000000;stroke-width:0.35;" x="226.334301" xlink:href="#mb0a27b3967" y="119.934356"/>
      </g>
     </g>
     <g id="text_16">
      <!-- 1.2 -->
      <g transform="translate(220.774926 130.694356)scale(0.08 -0.08)">
       <use xlink:href="#Helvetica-Light-49"/>
       <use x="55.599991" xlink:href="#Helvetica-Light-46"/>
       <use x="83.399979" xlink:href="#Helvetica-Light-50"/>
      </g>
     </g>
    </g>
    <g id="text_17">
     <!-- $K$ -->
     <defs>
      <path d="M 8.5 0 
L 23.796875 72 
L 30.59375 72 
L 22.703125 34.703125 
L 67.5 72 
L 75.203125 72 
L 40.703125 43.296875 
L 64.90625 0 
L 56.59375 0 
L 34.90625 39.09375 
L 21.203125 27.796875 
L 15.296875 0 
z
" id="Helvetica-LightOblique-75"/>
     </defs>
     <g transform="translate(189.893709 140.086856)scale(0.08 -0.08)">
      <use xlink:href="#Helvetica-LightOblique-75"/>
     </g>
    </g>
   </g>
   <g id="matplotlib.axis_4">
    <g id="ytick_6">
     <g id="line2d_18">
      <g>
       <use style="stroke:#000000;stroke-width:0.35;" x="153.749028" xlink:href="#m559e6b5f8a" y="119.934356"/>
      </g>
     </g>
     <g id="text_18">
      <!-- 0.0000 -->
      <g transform="translate(124.287778 122.814356)scale(0.08 -0.08)">
       <use xlink:href="#Helvetica-Light-48"/>
       <use x="55.599991" xlink:href="#Helvetica-Light-46"/>
       <use x="83.399979" xlink:href="#Helvetica-Light-48"/>
       <use x="138.999969" xlink:href="#Helvetica-Light-48"/>
       <use x="194.59996" xlink:href="#Helvetica-Light-48"/>
       <use x="250.199951" xlink:href="#Helvetica-Light-48"/>
      </g>
     </g>
    </g>
    <g id="ytick_7">
     <g id="line2d_19">
      <g>
       <use style="stroke:#000000;stroke-width:0.35;" x="153.749028" xlink:href="#m559e6b5f8a" y="102.782769"/>
      </g>
     </g>
     <g id="text_19">
      <!-- 0.0025 -->
      <g transform="translate(124.287778 105.662769)scale(0.08 -0.08)">
       <use xlink:href="#Helvetica-Light-48"/>
       <use x="55.599991" xlink:href="#Helvetica-Light-46"/>
       <use x="83.399979" xlink:href="#Helvetica-Light-48"/>
       <use x="138.999969" xlink:href="#Helvetica-Light-48"/>
       <use x="194.59996" xlink:href="#Helvetica-Light-50"/>
       <use x="250.199951" xlink:href="#Helvetica-Light-53"/>
      </g>
     </g>
    </g>
    <g id="ytick_8">
     <g id="line2d_20">
      <g>
       <use style="stroke:#000000;stroke-width:0.35;" x="153.749028" xlink:href="#m559e6b5f8a" y="85.631182"/>
      </g>
     </g>
     <g id="text_20">
      <!-- 0.0050 -->
      <g transform="translate(124.287778 88.511182)scale(0.08 -0.08)">
       <use xlink:href="#Helvetica-Light-48"/>
       <use x="55.599991" xlink:href="#Helvetica-Light-46"/>
       <use x="83.399979" xlink:href="#Helvetica-Light-48"/>
       <use x="138.999969" xlink:href="#Helvetica-Light-48"/>
       <use x="194.59996" xlink:href="#Helvetica-Light-53"/>
       <use x="250.199951" xlink:href="#Helvetica-Light-48"/>
      </g>
     </g>
    </g>
    <g id="ytick_9">
     <g id="line2d_21">
      <g>
       <use style="stroke:#000000;stroke-width:0.35;" x="153.749028" xlink:href="#m559e6b5f8a" y="68.479595"/>
      </g>
     </g>
     <g id="text_21">
      <!-- 0.0075 -->
      <g transform="translate(124.287778 71.359595)scale(0.08 -0.08)">
       <use xlink:href="#Helvetica-Light-48"/>
       <use x="55.599991" xlink:href="#Helvetica-Light-46"/>
       <use x="83.399979" xlink:href="#Helvetica-Light-48"/>
       <use x="138.999969" xlink:href="#Helvetica-Light-48"/>
       <use x="194.59996" xlink:href="#Helvetica-Light-55"/>
       <use x="250.199951" xlink:href="#Helvetica-Light-53"/>
      </g>
     </g>
    </g>
    <g id="ytick_10">
     <g id="line2d_22">
      <g>
       <use style="stroke:#000000;stroke-width:0.35;" x="153.749028" xlink:href="#m559e6b5f8a" y="51.328008"/>
      </g>
     </g>
     <g id="text_22">
      <!-- 0.0100 -->
      <g transform="translate(124.287778 54.208008)scale(0.08 -0.08)">
       <use xlink:href="#Helvetica-Light-48"/>
       <use x="55.599991" xlink:href="#Helvetica-Light-46"/>
       <use x="83.399979" xlink:href="#Helvetica-Light-48"/>
       <use x="138.999969" xlink:href="#Helvetica-Light-49"/>
       <use x="194.59996" xlink:href="#Helvetica-Light-48"/>
       <use x="250.199951" xlink:href="#Helvetica-Light-48"/>
      </g>
     </g>
    </g>
    <g id="ytick_11">
     <g id="line2d_23">
      <g>
       <use style="stroke:#000000;stroke-width:0.35;" x="153.749028" xlink:href="#m559e6b5f8a" y="34.176421"/>
      </g>
     </g>
     <g id="text_23">
      <!-- 0.0125 -->
      <g transform="translate(124.287778 37.056421)scale(0.08 -0.08)">
       <use xlink:href="#Helvetica-Light-48"/>
       <use x="55.599991" xlink:href="#Helvetica-Light-46"/>
       <use x="83.399979" xlink:href="#Helvetica-Light-48"/>
       <use x="138.999969" xlink:href="#Helvetica-Light-49"/>
       <use x="194.59996" xlink:href="#Helvetica-Light-50"/>
       <use x="250.199951" xlink:href="#Helvetica-Light-53"/>
      </g>
     </g>
    </g>
    <g id="ytick_12">
     <g id="line2d_24">
      <g>
       <use style="stroke:#000000;stroke-width:0.35;" x="153.749028" xlink:href="#m559e6b5f8a" y="17.024834"/>
      </g>
     </g>
     <g id="text_24">
      <!-- 0.0150 -->
      <g transform="translate(124.287778 19.904834)scale(0.08 -0.08)">
       <use xlink:href="#Helvetica-Light-48"/>
       <use x="55.599991" xlink:href="#Helvetica-Light-46"/>
       <use x="83.399979" xlink:href="#Helvetica-Light-48"/>
       <use x="138.999969" xlink:href="#Helvetica-Light-49"/>
       <use x="194.59996" xlink:href="#Helvetica-Light-53"/>
       <use x="250.199951" xlink:href="#Helvetica-Light-48"/>
      </g>
     </g>
    </g>
    <g id="text_25">
     <!-- $n_{\rm LL}$ -->
     <defs>
      <path d="M 13.203125 0 
L 7.203125 0 
L 18.203125 51.796875 
L 24.203125 51.796875 
L 22.703125 44.59375 
Q 27.09375 48.40625 31.4375 50.796875 
Q 35.796875 53.203125 41.203125 53.203125 
Q 46 53.203125 49.75 51.546875 
Q 53.5 49.90625 55.40625 45.796875 
Q 56.703125 43 56.453125 40.046875 
Q 56.203125 37.09375 55.5 33.90625 
L 48.296875 0 
L 42.296875 0 
L 49.5 33.796875 
Q 51 40.796875 48.640625 44.296875 
Q 46.296875 47.796875 39.09375 47.796875 
Q 36.296875 47.796875 33.796875 46.9375 
Q 31.296875 46.09375 29.140625 44.6875 
Q 27 43.296875 25.296875 41.5 
Q 23.59375 39.703125 22.5 37.703125 
Q 21.09375 35.203125 20.390625 32.890625 
Q 19.703125 30.59375 19.09375 27.90625 
z
" id="Helvetica-LightOblique-110"/>
      <path d="M 8.09375 0 
L 8.09375 72 
L 14.90625 72 
L 14.90625 5.796875 
L 53.5 5.796875 
L 53.5 0 
z
" id="Helvetica-Light-76"/>
     </defs>
     <g transform="translate(120.655278 67.09896)rotate(-90)scale(0.08 -0.08)">
      <use transform="translate(0 0.796875)" xlink:href="#Helvetica-LightOblique-110"/>
      <use transform="translate(55.599991 -14.742188)scale(0.7)" xlink:href="#Helvetica-Light-76"/>
      <use transform="translate(94.519984 -14.742188)scale(0.7)" xlink:href="#Helvetica-Light-76"/>
     </g>
    </g>
   </g>
   <g id="LineCollection_1">
    <path clip-path="url(#p2811c29f1a)" d="M 224.932904 63.166475 
L 224.932904 61.460798 
" style="fill:none;stroke:#66c2a5;stroke-width:0.5;"/>
   </g>
   <g id="LineCollection_2">
    <path clip-path="url(#p2811c29f1a)" d="M 207.209593 107.39999 
L 207.209593 106.95942 
" style="fill:none;stroke:#66c2a5;stroke-width:0.5;"/>
   </g>
   <g id="LineCollection_3">
    <path clip-path="url(#p2811c29f1a)" d="M 201.045931 115.602914 
L 201.045931 115.434826 
" style="fill:none;stroke:#66c2a5;stroke-width:0.5;"/>
   </g>
   <g id="LineCollection_4">
    <path clip-path="url(#p2811c29f1a)" d="M 184.874349 116.042351 
L 184.874349 115.806908 
" style="fill:none;stroke:#66c2a5;stroke-width:0.5;"/>
   </g>
   <g id="LineCollection_5">
    <path clip-path="url(#p2811c29f1a)" d="M 180.100737 109.537711 
L 180.100737 108.784262 
" style="fill:none;stroke:#66c2a5;stroke-width:0.5;"/>
   </g>
   <g id="LineCollection_6">
    <path clip-path="url(#p2811c29f1a)" d="M 158.826773 39.107467 
L 158.826773 29.565977 
" style="fill:none;stroke:#66c2a5;stroke-width:0.5;"/>
   </g>
   <g id="line2d_25">
    <path clip-path="url(#p2811c29f1a)" d="M 153.311636 -1 
L 153.783129 2.338486 
L 154.635669 8.183525 
L 155.48821 13.840765 
L 156.34075 19.313829 
L 157.19329 24.606249 
L 158.04583 29.721463 
L 158.89837 34.662828 
L 159.750911 39.433613 
L 160.603451 44.037005 
L 161.455991 48.476115 
L 162.308531 52.753975 
L 163.161072 56.873545 
L 164.013612 60.83771 
L 164.866152 64.649289 
L 165.718692 68.311029 
L 166.571232 71.825615 
L 167.423773 75.195668 
L 168.276313 78.423744 
L 169.128853 81.512342 
L 169.981393 84.463902 
L 170.833933 87.280808 
L 171.686474 89.965386 
L 172.539014 92.519914 
L 173.391554 94.946613 
L 174.244094 97.247656 
L 175.096634 99.425167 
L 175.949175 101.481222 
L 176.801715 103.417852 
L 177.654255 105.237041 
L 178.506795 106.940729 
L 179.359336 108.530817 
L 180.211876 110.009161 
L 181.064416 111.377577 
L 181.916956 112.637845 
L 182.769496 113.791703 
L 183.622037 114.840854 
L 184.474577 115.786965 
L 185.327117 116.631666 
L 186.179657 117.376555 
L 187.032197 118.023196 
L 187.884738 118.573119 
L 188.737278 119.027824 
L 189.589818 119.388779 
L 190.442358 119.657424 
L 191.294898 119.835168 
L 192.147439 119.923391 
L 192.999979 119.923446 
L 193.852519 119.836659 
L 194.705059 119.66433 
L 195.5576 119.407732 
L 196.41014 119.068114 
L 197.26268 118.646699 
L 198.11522 118.144688 
L 198.96776 117.563256 
L 199.820301 116.903558 
L 200.672841 116.166726 
L 201.525381 115.353869 
L 202.377921 114.466075 
L 203.230461 113.504414 
L 204.083002 112.469932 
L 204.935542 111.363658 
L 205.788082 110.1866 
L 206.640622 108.939749 
L 207.493162 107.624076 
L 208.345703 106.240534 
L 209.198243 104.79006 
L 210.050783 103.273573 
L 210.903323 101.691975 
L 211.755864 100.046152 
L 212.608404 98.336974 
L 213.460944 96.565294 
L 214.313484 94.731953 
L 215.166024 92.837773 
L 216.018565 90.883565 
L 216.871105 88.870123 
L 217.723645 86.798229 
L 218.576185 84.668649 
L 219.428725 82.482138 
L 220.281266 80.239438 
L 221.133806 77.941275 
L 221.986346 75.588366 
L 222.838886 73.181414 
L 223.691426 70.721111 
L 224.543967 68.208136 
L 225.396507 65.643157 
L 226.249047 63.026831 
L 227.101587 60.359804 
L 227.954128 57.642712 
L 228.806668 54.876178 
L 229.659208 52.060816 
L 230.511748 49.197232 
L 231.364288 46.286019 
L 232.216829 43.327761 
L 233.069369 40.323033 
L 233.613676 38.375346 
" style="fill:none;stroke:#66c2a5;stroke-linecap:round;stroke-width:0.5;"/>
   </g>
   <g id="line2d_26">
    <defs>
     <path d="M 0 1.5 
C 0.397805 1.5 0.77937 1.341951 1.06066 1.06066 
C 1.341951 0.77937 1.5 0.397805 1.5 0 
C 1.5 -0.397805 1.341951 -0.77937 1.06066 -1.06066 
C 0.77937 -1.341951 0.397805 -1.5 0 -1.5 
C -0.397805 -1.5 -0.77937 -1.341951 -1.06066 -1.06066 
C -1.341951 -0.77937 -1.5 -0.397805 -1.5 0 
C -1.5 0.397805 -1.341951 0.77937 -1.06066 1.06066 
C -0.77937 1.341951 -0.397805 1.5 0 1.5 
z
" id="m93432fdc56" style="stroke:#66c2a5;stroke-width:0.5;"/>
    </defs>
    <g clip-path="url(#p2811c29f1a)">
     <use style="fill:#b2e0d1;stroke:#66c2a5;stroke-width:0.5;" x="224.932904" xlink:href="#m93432fdc56" y="62.313637"/>
    </g>
   </g>
   <g id="line2d_27">
    <g clip-path="url(#p2811c29f1a)">
     <use style="fill:#b2e0d1;stroke:#66c2a5;stroke-width:0.5;" x="207.209593" xlink:href="#m93432fdc56" y="107.179705"/>
    </g>
   </g>
   <g id="line2d_28">
    <g clip-path="url(#p2811c29f1a)">
     <use style="fill:#b2e0d1;stroke:#66c2a5;stroke-width:0.5;" x="201.045931" xlink:href="#m93432fdc56" y="115.51887"/>
    </g>
   </g>
   <g id="line2d_29">
    <g clip-path="url(#p2811c29f1a)">
     <use style="fill:#b2e0d1;stroke:#66c2a5;stroke-width:0.5;" x="184.874349" xlink:href="#m93432fdc56" y="115.924629"/>
    </g>
   </g>
   <g id="line2d_30">
    <g clip-path="url(#p2811c29f1a)">
     <use style="fill:#b2e0d1;stroke:#66c2a5;stroke-width:0.5;" x="180.100737" xlink:href="#m93432fdc56" y="109.160986"/>
    </g>
   </g>
   <g id="line2d_31">
    <g clip-path="url(#p2811c29f1a)">
     <use style="fill:#b2e0d1;stroke:#66c2a5;stroke-width:0.5;" x="158.826773" xlink:href="#m93432fdc56" y="34.336722"/>
    </g>
   </g>
   <g id="patch_8">
    <path d="M 153.749028 119.934356 
L 153.749028 3.303565 
" style="fill:none;stroke:#000000;stroke-linecap:square;stroke-linejoin:miter;stroke-width:0.35;"/>
   </g>
   <g id="patch_9">
    <path d="M 231.39839 119.934356 
L 231.39839 3.303565 
" style="fill:none;stroke:#000000;stroke-linecap:square;stroke-linejoin:miter;stroke-width:0.35;"/>
   </g>
   <g id="patch_10">
    <path d="M 153.749028 119.934356 
L 231.39839 119.934356 
" style="fill:none;stroke:#000000;stroke-linecap:square;stroke-linejoin:miter;stroke-width:0.35;"/>
   </g>
   <g id="patch_11">
    <path d="M 153.749028 3.303565 
L 231.39839 3.303565 
" style="fill:none;stroke:#000000;stroke-linecap:square;stroke-linejoin:miter;stroke-width:0.35;"/>
   </g>
   <g id="legend_2">
    <g id="line2d_32">
     <path d="M 164.713964 40.78646 
L 172.713964 40.78646 
" style="fill:none;stroke:#66c2a5;stroke-linecap:round;stroke-width:0.5;"/>
    </g>
    <g id="line2d_33"/>
    <g id="text_26">
     <!-- $\frac{1}{4}(K+K^{-1}-2)$ -->
     <defs>
      <path d="M 30 50 
L 36 50 
L 36 28 
L 58 28 
L 58 22 
L 36 22 
L 36 0 
L 30 0 
L 30 22 
L 8 22 
L 8 28 
L 30 28 
z
" id="Helvetica-Light-43"/>
      <path d="M 8 28 
L 58 28 
L 58 22 
L 8 22 
z
" id="Helvetica-Light-8722"/>
     </defs>
     <g transform="translate(176.713964 43.58646)scale(0.08 -0.08)">
      <use transform="translate(0 37.65)scale(0.7)" xlink:href="#Helvetica-Light-49"/>
      <use transform="translate(0 -42.457812)scale(0.7)" xlink:href="#Helvetica-Light-52"/>
      <use transform="translate(51.419994 0.048438)" xlink:href="#Helvetica-Light-40"/>
      <use transform="translate(84.719981 0.048438)" xlink:href="#Helvetica-LightOblique-75"/>
      <use transform="translate(168.079976 0.048438)" xlink:href="#Helvetica-Light-43"/>
      <use transform="translate(250.739958 0.048438)" xlink:href="#Helvetica-LightOblique-75"/>
      <use transform="translate(324.498471 36.30625)scale(0.7)" xlink:href="#Helvetica-Light-8722"/>
      <use transform="translate(370.69846 36.30625)scale(0.7)" xlink:href="#Helvetica-Light-49"/>
      <use transform="translate(428.868295 0.048438)" xlink:href="#Helvetica-Light-8722"/>
      <use transform="translate(511.528277 0.048438)" xlink:href="#Helvetica-Light-50"/>
      <use transform="translate(567.128268 0.048438)" xlink:href="#Helvetica-Light-41"/>
      <path d="M 0 12.65 
L 0 18.9 
L 38.919994 18.9 
L 38.919994 12.65 
L 0 12.65 
z
"/>
     </g>
    </g>
    <g id="LineCollection_7">
     <path d="M 168.713964 57.98646 
L 168.713964 49.98646 
" style="fill:none;stroke:#66c2a5;stroke-width:0.5;"/>
    </g>
    <g id="line2d_34"/>
    <g id="line2d_35">
     <g>
      <use style="fill:#b2e0d1;stroke:#66c2a5;stroke-width:0.5;" x="168.713964" xlink:href="#m93432fdc56" y="53.98646"/>
     </g>
    </g>
    <g id="text_27">
     <!-- from fit -->
     <defs>
      <path d="M 13.5 0 
L 7.5 0 
L 7.5 51.796875 
L 13.5 51.796875 
L 13.5 42.09375 
L 13.703125 42.09375 
Q 16.203125 48.296875 20.140625 50.75 
Q 24.09375 53.203125 30.59375 53.203125 
L 30.59375 46.703125 
Q 25.5 46.796875 22.203125 45.09375 
Q 18.90625 43.40625 16.953125 40.5 
Q 15 37.59375 14.25 33.640625 
Q 13.5 29.703125 13.5 25.40625 
z
" id="Helvetica-Light-114"/>
      <path d="M 27.796875 -1.40625 
Q 22.796875 -1.296875 18.4375 0.390625 
Q 14.09375 2.09375 10.84375 5.5 
Q 7.59375 8.90625 5.6875 14 
Q 3.796875 19.09375 3.796875 25.90625 
Q 3.796875 31.59375 5.296875 36.546875 
Q 6.796875 41.5 9.796875 45.203125 
Q 12.796875 48.90625 17.296875 51.046875 
Q 21.796875 53.203125 27.796875 53.203125 
Q 33.90625 53.203125 38.40625 51.046875 
Q 42.90625 48.90625 45.90625 45.25 
Q 48.90625 41.59375 50.34375 36.59375 
Q 51.796875 31.59375 51.796875 25.90625 
Q 51.796875 19.703125 50.09375 14.703125 
Q 48.40625 9.703125 45.25 6.09375 
Q 42.09375 2.5 37.640625 0.546875 
Q 33.203125 -1.40625 27.796875 -1.40625 
z
M 45.40625 25.90625 
Q 45.40625 30.5 44.40625 34.5 
Q 43.40625 38.5 41.296875 41.453125 
Q 39.203125 44.40625 35.890625 46.09375 
Q 32.59375 47.796875 27.796875 47.796875 
Q 23.09375 47.796875 19.75 45.9375 
Q 16.40625 44.09375 14.296875 41.046875 
Q 12.203125 38 11.203125 34.046875 
Q 10.203125 30.09375 10.203125 25.90625 
Q 10.203125 21.09375 11.34375 17.046875 
Q 12.5 13 14.703125 10.09375 
Q 16.90625 7.203125 20.203125 5.59375 
Q 23.5 4 27.796875 4 
Q 32.5 4 35.84375 5.84375 
Q 39.203125 7.703125 41.296875 10.796875 
Q 43.40625 13.90625 44.40625 17.796875 
Q 45.40625 21.703125 45.40625 25.90625 
z
" id="Helvetica-Light-111"/>
      <path d="M 12.40625 0 
L 6.40625 0 
L 6.40625 51.796875 
L 12.40625 51.796875 
L 12.40625 44 
L 12.59375 44 
Q 14.90625 48.5 19.203125 50.84375 
Q 23.5 53.203125 28.59375 53.203125 
Q 32.203125 53.203125 34.703125 52.390625 
Q 37.203125 51.59375 38.953125 50.25 
Q 40.703125 48.90625 41.84375 47.09375 
Q 43 45.296875 43.796875 43.203125 
Q 46.40625 48.296875 50.75 50.75 
Q 55.09375 53.203125 60.703125 53.203125 
Q 66 53.203125 69.140625 51.453125 
Q 72.296875 49.703125 74 46.84375 
Q 75.703125 44 76.25 40.296875 
Q 76.796875 36.59375 76.796875 32.703125 
L 76.796875 0 
L 70.796875 0 
L 70.796875 35.796875 
Q 70.796875 41.40625 68.4375 44.59375 
Q 66.09375 47.796875 59.703125 47.796875 
Q 56.40625 47.796875 53.34375 46.34375 
Q 50.296875 44.90625 48 41.90625 
Q 47 40.59375 46.34375 38.84375 
Q 45.703125 37.09375 45.296875 35.1875 
Q 44.90625 33.296875 44.75 31.390625 
Q 44.59375 29.5 44.59375 27.90625 
L 44.59375 0 
L 38.59375 0 
L 38.59375 35.796875 
Q 38.59375 41.40625 36.25 44.59375 
Q 33.90625 47.796875 27.5 47.796875 
Q 24.203125 47.796875 21.140625 46.34375 
Q 18.09375 44.90625 15.796875 41.90625 
Q 14.796875 40.59375 14.140625 38.84375 
Q 13.5 37.09375 13.09375 35.1875 
Q 12.703125 33.296875 12.546875 31.390625 
Q 12.40625 29.5 12.40625 27.90625 
z
" id="Helvetica-Light-109"/>
     </defs>
     <g transform="translate(176.713964 56.78646)scale(0.08 -0.08)">
      <use xlink:href="#Helvetica-Light-102"/>
      <use x="27.799988" xlink:href="#Helvetica-Light-114"/>
      <use x="61.099976" xlink:href="#Helvetica-Light-111"/>
      <use x="116.699966" xlink:href="#Helvetica-Light-109"/>
      <use x="199.999954" xlink:href="#Helvetica-Light-32"/>
      <use x="227.799942" xlink:href="#Helvetica-Light-102"/>
      <use x="255.59993" xlink:href="#Helvetica-Light-105"/>
      <use x="277.799927" xlink:href="#Helvetica-Light-116"/>
     </g>
    </g>
   </g>
  </g>
 </g>
 <defs>
  <clipPath id="p15e4cf5c4c">
   <rect height="116.630791" width="77.649362" x="35.33375" y="3.303565"/>
  </clipPath>
  <clipPath id="p2811c29f1a">
   <rect height="116.630791" width="77.649362" x="153.749028" y="3.303565"/>
  </clipPath>
 </defs>
</svg>
