<?xml version="1.0" encoding="utf-8" standalone="no"?>
<!DOCTYPE svg PUBLIC "-//W3C//DTD SVG 1.1//EN"
  "http://www.w3.org/Graphics/SVG/1.1/DTD/svg11.dtd">
<!-- Created with matplotlib (https://matplotlib.org/) -->
<svg height="214.819301pt" version="1.1" viewBox="0 0 236.18364 214.819301" width="236.18364pt" xmlns="http://www.w3.org/2000/svg" xmlns:xlink="http://www.w3.org/1999/xlink">
 <defs>
  <style type="text/css">
*{stroke-linecap:butt;stroke-linejoin:round;}
  </style>
 </defs>
 <g id="figure_1">
  <g id="patch_1">
   <path d="M 0 214.819301 
L 236.18364 214.819301 
L 236.18364 0 
L 0 0 
z
" style="fill:none;"/>
  </g>
  <g id="axes_1">
   <g id="patch_2">
    <path d="M 39.399 85.429625 
L 235.46364 85.429625 
L 235.46364 3.380835 
L 39.399 3.380835 
z
" style="fill:none;"/>
   </g>
   <g id="line2d_1">
    <path clip-path="url(#p4666526c53)" d="M 39.399 10.494291 
L 41.46257 10.70616 
L 43.52614 11.339247 
L 45.58971 12.386015 
L 47.653279 13.834007 
L 49.716849 15.66599 
L 51.780419 17.860158 
L 53.843989 20.390398 
L 55.907559 23.226595 
L 57.971129 26.334993 
L 60.034699 29.678598 
L 62.098268 33.217613 
L 64.161838 36.909919 
L 66.225408 40.71157 
L 68.288978 44.57732 
L 70.352548 48.461159 
L 72.416118 52.316863 
L 74.479688 56.098542 
L 76.543257 59.761188 
L 78.606827 63.261207 
L 80.670397 66.556944 
L 82.733967 69.609174 
L 84.797537 72.381569 
L 86.861107 74.841134 
L 88.924677 76.958594 
L 90.988246 78.708748 
L 93.051816 80.070767 
L 95.115386 81.028439 
L 97.178956 81.570367 
L 99.242526 81.690102 
L 101.306096 81.386216 
L 103.369666 80.662329 
L 105.433235 79.527054 
L 107.496805 77.993905 
L 109.560375 76.081128 
L 111.623945 73.811488 
L 113.687515 71.211999 
L 115.751085 68.313598 
L 117.814655 65.150783 
L 119.878224 61.761197 
L 121.941794 58.185181 
L 124.005364 54.465296 
L 126.068934 50.645816 
L 128.132504 46.7722 
L 130.196074 42.89055 
L 132.259644 39.047065 
L 134.323213 35.28749 
L 136.386783 31.656569 
L 138.450353 28.197519 
L 140.513923 24.951506 
L 142.577493 21.957166 
L 144.641063 19.250135 
L 146.704633 16.862633 
L 148.768203 14.823075 
L 150.831772 13.155735 
L 152.895342 11.880458 
L 154.958912 11.012421 
L 157.022482 10.561957 
L 159.086052 10.534425 
L 161.149622 10.930155 
L 163.213192 11.744436 
L 165.276761 12.967576 
L 167.340331 14.585019 
L 169.403901 16.577513 
L 171.467471 18.921344 
L 173.531041 21.588618 
L 175.594611 24.547587 
L 177.658181 27.763036 
L 179.72175 31.196694 
L 181.78532 34.807695 
L 183.84889 38.553061 
L 185.91246 42.388217 
L 187.97603 46.267516 
L 190.0396 50.144789 
L 192.10317 53.973888 
L 194.166739 57.70924 
L 196.230309 61.306388 
L 198.293879 64.72252 
L 200.357449 67.916978 
L 202.421019 70.851741 
L 204.484589 73.491881 
L 206.548159 75.805975 
L 208.611728 77.766482 
L 210.675298 79.350068 
L 212.738868 80.537885 
L 214.802438 81.315796 
L 216.866008 81.674543 
L 218.929578 81.609856 
L 220.993148 81.122505 
L 223.056717 80.21829 
L 225.120287 78.907973 
L 227.183857 77.207149 
L 229.247427 75.136061 
L 231.310997 72.719359 
L 233.374567 69.985805 
L 235.438137 66.967935 
L 237.18364 64.205109 
" style="fill:none;stroke:#5e4fa2;stroke-linecap:round;stroke-width:0.5;"/>
   </g>
   <g id="matplotlib.axis_1">
    <g id="xtick_1">
     <g id="line2d_2">
      <defs>
       <path d="M 0 0 
L 0 2 
" id="me33742998f" style="stroke:#000000;stroke-width:0.35;"/>
      </defs>
      <g>
       <use style="stroke:#000000;stroke-width:0.35;" x="39.399" xlink:href="#me33742998f" y="85.429625"/>
      </g>
     </g>
     <g id="text_1">
      <!-- 0.0 -->
      <defs>
       <path d="M 27.046875 69.921875 
Q 40.625 69.921875 46.6875 58.734375 
Q 51.375 50.09375 51.375 35.0625 
Q 51.375 20.796875 47.125 11.46875 
Q 40.96875 -1.90625 27 -1.90625 
Q 14.40625 -1.90625 8.25 9.03125 
Q 3.125 18.171875 3.125 33.546875 
Q 3.125 45.453125 6.203125 54 
Q 11.96875 69.921875 27.046875 69.921875 
z
M 26.953125 6.109375 
Q 33.796875 6.109375 37.84375 12.15625 
Q 41.890625 18.21875 41.890625 34.71875 
Q 41.890625 46.625 38.953125 54.3125 
Q 36.03125 62.015625 27.59375 62.015625 
Q 19.828125 62.015625 16.234375 54.703125 
Q 12.640625 47.40625 12.640625 33.203125 
Q 12.640625 22.515625 14.9375 16.015625 
Q 18.453125 6.109375 26.953125 6.109375 
z
" id="Helvetica-48"/>
       <path d="M 8.546875 10.640625 
L 18.75 10.640625 
L 18.75 0 
L 8.546875 0 
z
" id="Helvetica-46"/>
      </defs>
      <g transform="translate(33.839 96.168375)scale(0.08 -0.08)">
       <use xlink:href="#Helvetica-48"/>
       <use x="55.615234" xlink:href="#Helvetica-46"/>
       <use x="83.398438" xlink:href="#Helvetica-48"/>
      </g>
     </g>
    </g>
    <g id="xtick_2">
     <g id="line2d_3">
      <g>
       <use style="stroke:#000000;stroke-width:0.35;" x="64.030236" xlink:href="#me33742998f" y="85.429625"/>
      </g>
     </g>
     <g id="text_2">
      <!-- 2.5 -->
      <defs>
       <path d="M 3.125 0 
Q 3.609375 9.03125 6.859375 15.71875 
Q 10.109375 22.40625 19.53125 27.875 
L 28.90625 33.296875 
Q 35.203125 36.96875 37.75 39.546875 
Q 41.75 43.609375 41.75 48.828125 
Q 41.75 54.9375 38.078125 58.515625 
Q 34.421875 62.109375 28.328125 62.109375 
Q 19.28125 62.109375 15.828125 55.28125 
Q 13.96875 51.609375 13.765625 45.125 
L 4.828125 45.125 
Q 4.984375 54.25 8.203125 60.015625 
Q 13.921875 70.171875 28.375 70.171875 
Q 40.375 70.171875 45.921875 63.671875 
Q 51.46875 57.171875 51.46875 49.21875 
Q 51.46875 40.828125 45.5625 34.859375 
Q 42.140625 31.390625 33.296875 26.46875 
L 26.609375 22.75 
Q 21.828125 20.125 19.09375 17.71875 
Q 14.203125 13.484375 12.9375 8.296875 
L 51.125 8.296875 
L 51.125 0 
L 3.125 0 
z
" id="Helvetica-50"/>
       <path d="M 12.359375 17.828125 
Q 13.234375 10.296875 19.34375 7.421875 
Q 22.46875 5.953125 26.5625 5.953125 
Q 34.375 5.953125 38.125 10.9375 
Q 41.890625 15.921875 41.890625 21.96875 
Q 41.890625 29.296875 37.421875 33.296875 
Q 32.953125 37.3125 26.703125 37.3125 
Q 22.171875 37.3125 18.921875 35.546875 
Q 15.671875 33.796875 13.375 30.671875 
L 5.765625 31.109375 
L 11.078125 68.75 
L 47.40625 68.75 
L 47.40625 60.25 
L 17.671875 60.25 
L 14.703125 40.828125 
Q 17.140625 42.671875 19.34375 43.609375 
Q 23.25 45.21875 28.375 45.21875 
Q 37.984375 45.21875 44.671875 39.015625 
Q 51.375 32.8125 51.375 23.296875 
Q 51.375 13.375 45.234375 5.796875 
Q 39.109375 -1.765625 25.6875 -1.765625 
Q 17.140625 -1.765625 10.5625 3.046875 
Q 4 7.859375 3.21875 17.828125 
z
" id="Helvetica-53"/>
      </defs>
      <g transform="translate(58.470236 96.168375)scale(0.08 -0.08)">
       <use xlink:href="#Helvetica-50"/>
       <use x="55.615234" xlink:href="#Helvetica-46"/>
       <use x="83.398438" xlink:href="#Helvetica-53"/>
      </g>
     </g>
    </g>
    <g id="xtick_3">
     <g id="line2d_4">
      <g>
       <use style="stroke:#000000;stroke-width:0.35;" x="88.661472" xlink:href="#me33742998f" y="85.429625"/>
      </g>
     </g>
     <g id="text_3">
      <!-- 5.0 -->
      <g transform="translate(83.101472 96.168375)scale(0.08 -0.08)">
       <use xlink:href="#Helvetica-53"/>
       <use x="55.615234" xlink:href="#Helvetica-46"/>
       <use x="83.398438" xlink:href="#Helvetica-48"/>
      </g>
     </g>
    </g>
    <g id="xtick_4">
     <g id="line2d_5">
      <g>
       <use style="stroke:#000000;stroke-width:0.35;" x="113.292709" xlink:href="#me33742998f" y="85.429625"/>
      </g>
     </g>
     <g id="text_4">
      <!-- 7.5 -->
      <defs>
       <path d="M 52.296875 68.75 
L 52.296875 61.078125 
Q 48.921875 57.8125 43.328125 49.703125 
Q 37.75 41.609375 33.453125 32.234375 
Q 29.203125 23.09375 27 15.578125 
Q 25.59375 10.75 23.34375 0 
L 13.625 0 
Q 16.9375 20.015625 28.265625 39.84375 
Q 34.96875 51.46875 42.328125 59.90625 
L 3.65625 59.90625 
L 3.65625 68.75 
z
" id="Helvetica-55"/>
      </defs>
      <g transform="translate(107.732709 96.168375)scale(0.08 -0.08)">
       <use xlink:href="#Helvetica-55"/>
       <use x="55.615234" xlink:href="#Helvetica-46"/>
       <use x="83.398438" xlink:href="#Helvetica-53"/>
      </g>
     </g>
    </g>
    <g id="xtick_5">
     <g id="line2d_6">
      <g>
       <use style="stroke:#000000;stroke-width:0.35;" x="137.923945" xlink:href="#me33742998f" y="85.429625"/>
      </g>
     </g>
     <g id="text_5">
      <!-- 10.0 -->
      <defs>
       <path d="M 9.578125 49.515625 
L 9.578125 56.25 
Q 19.09375 57.171875 22.84375 59.34375 
Q 26.609375 61.53125 28.46875 69.625 
L 35.40625 69.625 
L 35.40625 0 
L 26.03125 0 
L 26.03125 49.515625 
z
" id="Helvetica-49"/>
      </defs>
      <g transform="translate(130.13957 96.168375)scale(0.08 -0.08)">
       <use xlink:href="#Helvetica-49"/>
       <use x="55.615234" xlink:href="#Helvetica-48"/>
       <use x="111.230469" xlink:href="#Helvetica-46"/>
       <use x="139.013672" xlink:href="#Helvetica-48"/>
      </g>
     </g>
    </g>
    <g id="xtick_6">
     <g id="line2d_7">
      <g>
       <use style="stroke:#000000;stroke-width:0.35;" x="162.555181" xlink:href="#me33742998f" y="85.429625"/>
      </g>
     </g>
     <g id="text_6">
      <!-- 12.5 -->
      <g transform="translate(154.770806 96.168375)scale(0.08 -0.08)">
       <use xlink:href="#Helvetica-49"/>
       <use x="55.615234" xlink:href="#Helvetica-50"/>
       <use x="111.230469" xlink:href="#Helvetica-46"/>
       <use x="139.013672" xlink:href="#Helvetica-53"/>
      </g>
     </g>
    </g>
    <g id="xtick_7">
     <g id="line2d_8">
      <g>
       <use style="stroke:#000000;stroke-width:0.35;" x="187.186417" xlink:href="#me33742998f" y="85.429625"/>
      </g>
     </g>
     <g id="text_7">
      <!-- 15.0 -->
      <g transform="translate(179.402042 96.168375)scale(0.08 -0.08)">
       <use xlink:href="#Helvetica-49"/>
       <use x="55.615234" xlink:href="#Helvetica-53"/>
       <use x="111.230469" xlink:href="#Helvetica-46"/>
       <use x="139.013672" xlink:href="#Helvetica-48"/>
      </g>
     </g>
    </g>
    <g id="xtick_8">
     <g id="line2d_9">
      <g>
       <use style="stroke:#000000;stroke-width:0.35;" x="211.817653" xlink:href="#me33742998f" y="85.429625"/>
      </g>
     </g>
     <g id="text_8">
      <!-- 17.5 -->
      <g transform="translate(204.033278 96.168375)scale(0.08 -0.08)">
       <use xlink:href="#Helvetica-49"/>
       <use x="55.615234" xlink:href="#Helvetica-55"/>
       <use x="111.230469" xlink:href="#Helvetica-46"/>
       <use x="139.013672" xlink:href="#Helvetica-53"/>
      </g>
     </g>
    </g>
    <g id="text_9">
     <!-- $vt/a$ -->
     <defs>
      <path d="M 10.75 52.296875 
L 24.703125 9.71875 
L 39.3125 52.296875 
L 48.921875 52.296875 
L 29.203125 0 
L 19.828125 0 
L 0.53125 52.296875 
z
" id="Helvetica-118"/>
      <path d="M 8.203125 66.890625 
L 17.09375 66.890625 
L 17.09375 52.296875 
L 25.4375 52.296875 
L 25.4375 45.125 
L 17.09375 45.125 
L 17.09375 10.984375 
Q 17.09375 8.25 18.953125 7.328125 
Q 19.96875 6.78125 22.359375 6.78125 
Q 23 6.78125 23.734375 6.8125 
Q 24.46875 6.84375 25.4375 6.9375 
L 25.4375 0 
Q 23.921875 -0.4375 22.28125 -0.625 
Q 20.65625 -0.828125 18.75 -0.828125 
Q 12.59375 -0.828125 10.390625 2.3125 
Q 8.203125 5.46875 8.203125 10.5 
L 8.203125 45.125 
L 1.125 45.125 
L 1.125 52.296875 
L 8.203125 52.296875 
z
" id="Helvetica-116"/>
      <path d="M 22.75 71.734375 
L 30.171875 71.734375 
L 7.421875 0 
L 0 0 
z
" id="Helvetica-47"/>
      <path d="M 13.1875 13.921875 
Q 13.1875 10.109375 15.96875 7.90625 
Q 18.75 5.71875 22.5625 5.71875 
Q 27.203125 5.71875 31.546875 7.859375 
Q 38.875 11.421875 38.875 19.53125 
L 38.875 26.609375 
Q 37.25 25.59375 34.703125 24.90625 
Q 32.171875 24.21875 29.734375 23.921875 
L 24.421875 23.25 
Q 19.625 22.609375 17.234375 21.234375 
Q 13.1875 18.953125 13.1875 13.921875 
z
M 34.46875 31.6875 
Q 37.5 32.078125 38.53125 34.234375 
Q 39.109375 35.40625 39.109375 37.59375 
Q 39.109375 42.09375 35.90625 44.109375 
Q 32.71875 46.140625 26.765625 46.140625 
Q 19.875 46.140625 17 42.4375 
Q 15.375 40.375 14.890625 36.328125 
L 6.6875 36.328125 
Q 6.9375 46 12.96875 49.78125 
Q 19 53.5625 26.953125 53.5625 
Q 36.1875 53.5625 41.9375 50.046875 
Q 47.65625 46.53125 47.65625 39.109375 
L 47.65625 8.984375 
Q 47.65625 7.625 48.21875 6.78125 
Q 48.78125 5.953125 50.59375 5.953125 
Q 51.171875 5.953125 51.90625 6.03125 
Q 52.640625 6.109375 53.46875 6.25 
L 53.46875 -0.25 
Q 51.421875 -0.828125 50.34375 -0.96875 
Q 49.265625 -1.125 47.40625 -1.125 
Q 42.875 -1.125 40.828125 2.09375 
Q 39.75 3.8125 39.3125 6.9375 
Q 36.625 3.421875 31.59375 0.828125 
Q 26.5625 -1.765625 20.515625 -1.765625 
Q 13.234375 -1.765625 8.609375 2.65625 
Q 4 7.078125 4 13.71875 
Q 4 21 8.546875 25 
Q 13.09375 29 20.453125 29.9375 
z
M 27.203125 53.5625 
z
" id="Helvetica-97"/>
     </defs>
     <g transform="translate(130.95132 105.574625)scale(0.08 -0.08)">
      <use transform="translate(0 0.265625)" xlink:href="#Helvetica-118"/>
      <use transform="translate(50 0.265625)" xlink:href="#Helvetica-116"/>
      <use transform="translate(77.783203 0.265625)" xlink:href="#Helvetica-47"/>
      <use transform="translate(105.566406 0.265625)" xlink:href="#Helvetica-97"/>
     </g>
    </g>
   </g>
   <g id="matplotlib.axis_2">
    <g id="ytick_1">
     <g id="line2d_10">
      <defs>
       <path d="M 0 0 
L -2 0 
" id="mb763f9f32c" style="stroke:#000000;stroke-width:0.35;"/>
      </defs>
      <g>
       <use style="stroke:#000000;stroke-width:0.35;" x="39.399" xlink:href="#mb763f9f32c" y="81.324021"/>
      </g>
     </g>
     <g id="text_10">
      <!-- 0.076 -->
      <defs>
       <path d="M 29.25 70.21875 
Q 40.96875 70.21875 45.578125 64.140625 
Q 50.203125 58.0625 50.203125 51.609375 
L 41.5 51.609375 
Q 40.71875 55.765625 39.015625 58.109375 
Q 35.84375 62.5 29.390625 62.5 
Q 22.015625 62.5 17.671875 55.6875 
Q 13.328125 48.875 12.84375 36.1875 
Q 15.875 40.625 20.453125 42.828125 
Q 24.65625 44.78125 29.828125 44.78125 
Q 38.625 44.78125 45.15625 39.15625 
Q 51.703125 33.546875 51.703125 22.40625 
Q 51.703125 12.890625 45.5 5.53125 
Q 39.3125 -1.8125 27.828125 -1.8125 
Q 18.015625 -1.8125 10.890625 5.640625 
Q 3.765625 13.09375 3.765625 30.71875 
Q 3.765625 43.75 6.9375 52.828125 
Q 13.03125 70.21875 29.25 70.21875 
z
M 28.609375 6 
Q 35.546875 6 38.984375 10.65625 
Q 42.4375 15.328125 42.4375 21.6875 
Q 42.4375 27.046875 39.359375 31.90625 
Q 36.28125 36.765625 28.171875 36.765625 
Q 22.515625 36.765625 18.234375 33 
Q 13.96875 29.25 13.96875 21.6875 
Q 13.96875 15.046875 17.84375 10.515625 
Q 21.734375 6 28.609375 6 
z
" id="Helvetica-54"/>
      </defs>
      <g transform="translate(14.3815 84.193396)scale(0.08 -0.08)">
       <use xlink:href="#Helvetica-48"/>
       <use x="55.615234" xlink:href="#Helvetica-46"/>
       <use x="83.398438" xlink:href="#Helvetica-48"/>
       <use x="139.013672" xlink:href="#Helvetica-55"/>
       <use x="194.628906" xlink:href="#Helvetica-54"/>
      </g>
     </g>
    </g>
    <g id="ytick_2">
     <g id="line2d_11">
      <g>
       <use style="stroke:#000000;stroke-width:0.35;" x="39.399" xlink:href="#mb763f9f32c" y="61.89036"/>
      </g>
     </g>
     <g id="text_11">
      <!-- 0.078 -->
      <defs>
       <path d="M 27.203125 40.625 
Q 33.015625 40.625 36.28125 43.875 
Q 39.546875 47.125 39.546875 51.609375 
Q 39.546875 55.515625 36.421875 58.78125 
Q 33.296875 62.0625 26.90625 62.0625 
Q 20.5625 62.0625 17.71875 58.78125 
Q 14.890625 55.515625 14.890625 51.125 
Q 14.890625 46.1875 18.546875 43.40625 
Q 22.21875 40.625 27.203125 40.625 
z
M 27.734375 6 
Q 33.84375 6 37.859375 9.296875 
Q 41.890625 12.59375 41.890625 19.140625 
Q 41.890625 25.921875 37.734375 29.4375 
Q 33.59375 32.953125 27.09375 32.953125 
Q 20.796875 32.953125 16.8125 29.359375 
Q 12.84375 25.78125 12.84375 19.4375 
Q 12.84375 13.96875 16.484375 9.984375 
Q 20.125 6 27.734375 6 
z
M 15.234375 37.25 
Q 11.578125 38.8125 9.515625 40.921875 
Q 5.671875 44.828125 5.671875 51.078125 
Q 5.671875 58.890625 11.328125 64.5 
Q 17 70.125 27.390625 70.125 
Q 37.453125 70.125 43.15625 64.8125 
Q 48.875 59.515625 48.875 52.4375 
Q 48.875 45.90625 45.5625 41.84375 
Q 43.703125 39.546875 39.796875 37.359375 
Q 44.140625 35.359375 46.625 32.765625 
Q 51.265625 27.875 51.265625 20.0625 
Q 51.265625 10.84375 45.0625 4.421875 
Q 38.875 -2 27.546875 -2 
Q 17.328125 -2 10.265625 3.53125 
Q 3.21875 9.078125 3.21875 19.625 
Q 3.21875 25.828125 6.25 30.34375 
Q 9.28125 34.859375 15.234375 37.25 
z
" id="Helvetica-56"/>
      </defs>
      <g transform="translate(14.3815 64.759735)scale(0.08 -0.08)">
       <use xlink:href="#Helvetica-48"/>
       <use x="55.615234" xlink:href="#Helvetica-46"/>
       <use x="83.398438" xlink:href="#Helvetica-48"/>
       <use x="139.013672" xlink:href="#Helvetica-55"/>
       <use x="194.628906" xlink:href="#Helvetica-56"/>
      </g>
     </g>
    </g>
    <g id="ytick_3">
     <g id="line2d_12">
      <g>
       <use style="stroke:#000000;stroke-width:0.35;" x="39.399" xlink:href="#mb763f9f32c" y="42.456698"/>
      </g>
     </g>
     <g id="text_12">
      <!-- 0.080 -->
      <g transform="translate(14.3815 45.326073)scale(0.08 -0.08)">
       <use xlink:href="#Helvetica-48"/>
       <use x="55.615234" xlink:href="#Helvetica-46"/>
       <use x="83.398438" xlink:href="#Helvetica-48"/>
       <use x="139.013672" xlink:href="#Helvetica-56"/>
       <use x="194.628906" xlink:href="#Helvetica-48"/>
      </g>
     </g>
    </g>
    <g id="ytick_4">
     <g id="line2d_13">
      <g>
       <use style="stroke:#000000;stroke-width:0.35;" x="39.399" xlink:href="#mb763f9f32c" y="23.023037"/>
      </g>
     </g>
     <g id="text_13">
      <!-- 0.082 -->
      <g transform="translate(14.3815 25.892412)scale(0.08 -0.08)">
       <use xlink:href="#Helvetica-48"/>
       <use x="55.615234" xlink:href="#Helvetica-46"/>
       <use x="83.398438" xlink:href="#Helvetica-48"/>
       <use x="139.013672" xlink:href="#Helvetica-56"/>
       <use x="194.628906" xlink:href="#Helvetica-50"/>
      </g>
     </g>
    </g>
    <g id="ytick_5">
     <g id="line2d_14">
      <g>
       <use style="stroke:#000000;stroke-width:0.35;" x="39.399" xlink:href="#mb763f9f32c" y="3.589375"/>
      </g>
     </g>
     <g id="text_14">
      <!-- 0.084 -->
      <defs>
       <path d="M 33.0625 24.75 
L 33.0625 56.453125 
L 10.640625 24.75 
z
M 33.203125 0 
L 33.203125 17.09375 
L 2.546875 17.09375 
L 2.546875 25.6875 
L 34.578125 70.125 
L 42 70.125 
L 42 24.75 
L 52.296875 24.75 
L 52.296875 17.09375 
L 42 17.09375 
L 42 0 
z
" id="Helvetica-52"/>
      </defs>
      <g transform="translate(14.3815 6.45875)scale(0.08 -0.08)">
       <use xlink:href="#Helvetica-48"/>
       <use x="55.615234" xlink:href="#Helvetica-46"/>
       <use x="83.398438" xlink:href="#Helvetica-48"/>
       <use x="139.013672" xlink:href="#Helvetica-56"/>
       <use x="194.628906" xlink:href="#Helvetica-52"/>
      </g>
     </g>
    </g>
    <g id="text_15">
     <!-- $S(q;t)$ -->
     <defs>
      <path d="M 13.96875 23.140625 
Q 14.3125 17.046875 16.84375 13.234375 
Q 21.6875 6.109375 33.890625 6.109375 
Q 39.359375 6.109375 43.84375 7.671875 
Q 52.546875 10.6875 52.546875 18.5 
Q 52.546875 24.359375 48.875 26.859375 
Q 45.171875 29.296875 37.25 31.109375 
L 27.546875 33.296875 
Q 18.015625 35.453125 14.0625 38.03125 
Q 7.234375 42.53125 7.234375 51.46875 
Q 7.234375 61.140625 13.921875 67.328125 
Q 20.609375 73.53125 32.859375 73.53125 
Q 44.140625 73.53125 52.015625 68.078125 
Q 59.90625 62.640625 59.90625 50.6875 
L 50.78125 50.6875 
Q 50.046875 56.453125 47.65625 59.515625 
Q 43.21875 65.140625 32.5625 65.140625 
Q 23.96875 65.140625 20.203125 61.515625 
Q 16.453125 57.90625 16.453125 53.125 
Q 16.453125 47.859375 20.84375 45.40625 
Q 23.734375 43.84375 33.890625 41.5 
L 43.953125 39.203125 
Q 51.21875 37.546875 55.171875 34.671875 
Q 62.015625 29.640625 62.015625 20.0625 
Q 62.015625 8.15625 53.34375 3.03125 
Q 44.671875 -2.09375 33.203125 -2.09375 
Q 19.828125 -2.09375 12.25 4.734375 
Q 4.6875 11.53125 4.828125 23.140625 
z
M 33.59375 73.6875 
z
" id="Helvetica-83"/>
      <path d="M 29.59375 72.90625 
Q 21.921875 58.015625 19.625 50.984375 
Q 16.15625 40.28125 16.15625 26.265625 
Q 16.15625 12.109375 20.125 0.390625 
Q 22.5625 -6.84375 29.734375 -20.40625 
L 23.828125 -20.40625 
Q 16.703125 -9.28125 14.984375 -6.203125 
Q 13.28125 -3.125 11.28125 2.15625 
Q 8.546875 9.375 7.46875 17.578125 
Q 6.9375 21.828125 6.9375 25.6875 
Q 6.9375 40.140625 11.46875 51.421875 
Q 14.359375 58.59375 23.484375 72.90625 
z
" id="Helvetica-40"/>
      <path d="M 12.109375 25.4375 
Q 12.109375 18.65625 14.015625 14.0625 
Q 17.390625 5.90625 26.078125 5.90625 
Q 35.25 5.90625 38.71875 14.5 
Q 40.625 19.234375 40.625 26.609375 
Q 40.625 33.40625 38.53125 37.9375 
Q 34.96875 45.703125 25.984375 45.703125 
Q 20.265625 45.703125 16.1875 40.75 
Q 12.109375 35.796875 12.109375 25.4375 
z
M 25.09375 53.46875 
Q 31.59375 53.46875 36.03125 50.203125 
Q 38.484375 48.4375 40.71875 45.015625 
L 40.71875 52.296875 
L 49.078125 52.296875 
L 49.078125 -20.84375 
L 40.234375 -20.84375 
L 40.234375 6 
Q 38.03125 2.484375 34.15625 0.40625 
Q 30.28125 -1.65625 24.46875 -1.65625 
Q 16.109375 -1.65625 9.515625 4.875 
Q 2.9375 11.421875 2.9375 24.8125 
Q 2.9375 37.359375 9.109375 45.40625 
Q 15.28125 53.46875 25.09375 53.46875 
z
" id="Helvetica-113"/>
      <path d="M 11.078125 -10.203125 
Q 14.5 -9.578125 15.828125 -5.671875 
Q 16.5 -3.609375 16.5 -1.171875 
Q 16.5 -0.921875 16.46875 -0.75 
Q 16.453125 -0.59375 16.40625 0 
L 11.078125 0 
L 11.078125 10.640625 
L 21.484375 10.640625 
L 21.484375 0.78125 
Q 21.484375 -4.4375 19.96875 -7.953125 
Q 17.4375 -13.71875 11.078125 -14.84375 
z
M 11.078125 51.609375 
L 21.484375 51.609375 
L 21.484375 40.96875 
L 11.078125 40.96875 
z
" id="Helvetica-59"/>
      <path d="M 3.46875 -20.40625 
Q 11.234375 -5.28125 13.484375 1.65625 
Q 16.890625 12.15625 16.890625 26.265625 
Q 16.890625 40.375 12.9375 52.09375 
Q 10.5 59.328125 3.328125 72.90625 
L 9.234375 72.90625 
Q 16.75 60.890625 18.328125 58.078125 
Q 19.921875 55.28125 21.78125 50.34375 
Q 24.125 44.234375 25.125 38.28125 
Q 26.125 32.328125 26.125 26.8125 
Q 26.125 12.359375 21.53125 1.03125 
Q 18.65625 -6.25 9.578125 -20.40625 
z
" id="Helvetica-41"/>
     </defs>
     <g transform="translate(10.7015 54.88523)rotate(-90)scale(0.08 -0.08)">
      <use transform="translate(0 0.3125)" xlink:href="#Helvetica-83"/>
      <use transform="translate(66.699219 0.3125)" xlink:href="#Helvetica-40"/>
      <use transform="translate(100 0.3125)" xlink:href="#Helvetica-113"/>
      <use transform="translate(155.615234 0.3125)" xlink:href="#Helvetica-59"/>
      <use transform="translate(200.058594 0.3125)" xlink:href="#Helvetica-116"/>
      <use transform="translate(227.841797 0.3125)" xlink:href="#Helvetica-41"/>
     </g>
    </g>
   </g>
   <g id="line2d_15">
    <defs>
     <path d="M 0 1 
C 0.265203 1 0.51958 0.894634 0.707107 0.707107 
C 0.894634 0.51958 1 0.265203 1 0 
C 1 -0.265203 0.894634 -0.51958 0.707107 -0.707107 
C 0.51958 -0.894634 0.265203 -1 0 -1 
C -0.265203 -1 -0.51958 -0.894634 -0.707107 -0.707107 
C -0.894634 -0.51958 -1 -0.265203 -1 0 
C -1 0.265203 -0.894634 0.51958 -0.707107 0.707107 
C -0.51958 0.894634 -0.265203 1 0 1 
z
" id="m7b6a4264d2" style="stroke:#5e4fa2;stroke-opacity:0.5;stroke-width:0.5;"/>
    </defs>
    <g clip-path="url(#p4666526c53)">
     <use style="fill-opacity:0;stroke:#5e4fa2;stroke-opacity:0.5;stroke-width:0.5;" x="39.399" xlink:href="#m7b6a4264d2" y="10.579347"/>
     <use style="fill-opacity:0;stroke:#5e4fa2;stroke-opacity:0.5;stroke-width:0.5;" x="41.46257" xlink:href="#m7b6a4264d2" y="10.786801"/>
     <use style="fill-opacity:0;stroke:#5e4fa2;stroke-opacity:0.5;stroke-width:0.5;" x="43.52614" xlink:href="#m7b6a4264d2" y="11.406819"/>
     <use style="fill-opacity:0;stroke:#5e4fa2;stroke-opacity:0.5;stroke-width:0.5;" x="45.58971" xlink:href="#m7b6a4264d2" y="12.432537"/>
     <use style="fill-opacity:0;stroke:#5e4fa2;stroke-opacity:0.5;stroke-width:0.5;" x="47.653279" xlink:href="#m7b6a4264d2" y="13.852982"/>
     <use style="fill-opacity:0;stroke:#5e4fa2;stroke-opacity:0.5;stroke-width:0.5;" x="49.716849" xlink:href="#m7b6a4264d2" y="15.653525"/>
     <use style="fill-opacity:0;stroke:#5e4fa2;stroke-opacity:0.5;stroke-width:0.5;" x="51.780419" xlink:href="#m7b6a4264d2" y="17.816125"/>
     <use style="fill-opacity:0;stroke:#5e4fa2;stroke-opacity:0.5;stroke-width:0.5;" x="53.843989" xlink:href="#m7b6a4264d2" y="20.319215"/>
     <use style="fill-opacity:0;stroke:#5e4fa2;stroke-opacity:0.5;stroke-width:0.5;" x="55.907559" xlink:href="#m7b6a4264d2" y="23.137203"/>
     <use style="fill-opacity:0;stroke:#5e4fa2;stroke-opacity:0.5;stroke-width:0.5;" x="57.971129" xlink:href="#m7b6a4264d2" y="26.23979"/>
     <use style="fill-opacity:0;stroke:#5e4fa2;stroke-opacity:0.5;stroke-width:0.5;" x="60.034699" xlink:href="#m7b6a4264d2" y="29.591392"/>
     <use style="fill-opacity:0;stroke:#5e4fa2;stroke-opacity:0.5;stroke-width:0.5;" x="62.098268" xlink:href="#m7b6a4264d2" y="33.151009"/>
     <use style="fill-opacity:0;stroke:#5e4fa2;stroke-opacity:0.5;stroke-width:0.5;" x="64.161838" xlink:href="#m7b6a4264d2" y="36.872762"/>
     <use style="fill-opacity:0;stroke:#5e4fa2;stroke-opacity:0.5;stroke-width:0.5;" x="66.225408" xlink:href="#m7b6a4264d2" y="40.707137"/>
     <use style="fill-opacity:0;stroke:#5e4fa2;stroke-opacity:0.5;stroke-width:0.5;" x="68.288978" xlink:href="#m7b6a4264d2" y="44.602766"/>
     <use style="fill-opacity:0;stroke:#5e4fa2;stroke-opacity:0.5;stroke-width:0.5;" x="70.352548" xlink:href="#m7b6a4264d2" y="48.508386"/>
     <use style="fill-opacity:0;stroke:#5e4fa2;stroke-opacity:0.5;stroke-width:0.5;" x="72.416118" xlink:href="#m7b6a4264d2" y="52.374585"/>
     <use style="fill-opacity:0;stroke:#5e4fa2;stroke-opacity:0.5;stroke-width:0.5;" x="74.479688" xlink:href="#m7b6a4264d2" y="56.154996"/>
     <use style="fill-opacity:0;stroke:#5e4fa2;stroke-opacity:0.5;stroke-width:0.5;" x="76.543257" xlink:href="#m7b6a4264d2" y="59.806762"/>
     <use style="fill-opacity:0;stroke:#5e4fa2;stroke-opacity:0.5;stroke-width:0.5;" x="78.606827" xlink:href="#m7b6a4264d2" y="63.290317"/>
     <use style="fill-opacity:0;stroke:#5e4fa2;stroke-opacity:0.5;stroke-width:0.5;" x="80.670397" xlink:href="#m7b6a4264d2" y="66.568715"/>
     <use style="fill-opacity:0;stroke:#5e4fa2;stroke-opacity:0.5;stroke-width:0.5;" x="82.733967" xlink:href="#m7b6a4264d2" y="69.606851"/>
     <use style="fill-opacity:0;stroke:#5e4fa2;stroke-opacity:0.5;stroke-width:0.5;" x="84.797537" xlink:href="#m7b6a4264d2" y="72.370892"/>
     <use style="fill-opacity:0;stroke:#5e4fa2;stroke-opacity:0.5;stroke-width:0.5;" x="86.861107" xlink:href="#m7b6a4264d2" y="74.828191"/>
     <use style="fill-opacity:0;stroke:#5e4fa2;stroke-opacity:0.5;stroke-width:0.5;" x="88.924677" xlink:href="#m7b6a4264d2" y="76.947743"/>
     <use style="fill-opacity:0;stroke:#5e4fa2;stroke-opacity:0.5;stroke-width:0.5;" x="90.988246" xlink:href="#m7b6a4264d2" y="78.701113"/>
     <use style="fill-opacity:0;stroke:#5e4fa2;stroke-opacity:0.5;stroke-width:0.5;" x="93.051816" xlink:href="#m7b6a4264d2" y="80.063634"/>
     <use style="fill-opacity:0;stroke:#5e4fa2;stroke-opacity:0.5;stroke-width:0.5;" x="95.115386" xlink:href="#m7b6a4264d2" y="81.015609"/>
     <use style="fill-opacity:0;stroke:#5e4fa2;stroke-opacity:0.5;stroke-width:0.5;" x="97.178956" xlink:href="#m7b6a4264d2" y="81.543264"/>
     <use style="fill-opacity:0;stroke:#5e4fa2;stroke-opacity:0.5;stroke-width:0.5;" x="99.242526" xlink:href="#m7b6a4264d2" y="81.639313"/>
     <use style="fill-opacity:0;stroke:#5e4fa2;stroke-opacity:0.5;stroke-width:0.5;" x="101.306096" xlink:href="#m7b6a4264d2" y="81.303049"/>
     <use style="fill-opacity:0;stroke:#5e4fa2;stroke-opacity:0.5;stroke-width:0.5;" x="103.369666" xlink:href="#m7b6a4264d2" y="80.540028"/>
     <use style="fill-opacity:0;stroke:#5e4fa2;stroke-opacity:0.5;stroke-width:0.5;" x="105.433235" xlink:href="#m7b6a4264d2" y="79.361474"/>
     <use style="fill-opacity:0;stroke:#5e4fa2;stroke-opacity:0.5;stroke-width:0.5;" x="107.496805" xlink:href="#m7b6a4264d2" y="77.78355"/>
     <use style="fill-opacity:0;stroke:#5e4fa2;stroke-opacity:0.5;stroke-width:0.5;" x="109.560375" xlink:href="#m7b6a4264d2" y="75.82666"/>
     <use style="fill-opacity:0;stroke:#5e4fa2;stroke-opacity:0.5;stroke-width:0.5;" x="111.623945" xlink:href="#m7b6a4264d2" y="73.514887"/>
     <use style="fill-opacity:0;stroke:#5e4fa2;stroke-opacity:0.5;stroke-width:0.5;" x="113.687515" xlink:href="#m7b6a4264d2" y="70.875616"/>
     <use style="fill-opacity:0;stroke:#5e4fa2;stroke-opacity:0.5;stroke-width:0.5;" x="115.751085" xlink:href="#m7b6a4264d2" y="67.939328"/>
     <use style="fill-opacity:0;stroke:#5e4fa2;stroke-opacity:0.5;stroke-width:0.5;" x="117.814655" xlink:href="#m7b6a4264d2" y="64.739512"/>
     <use style="fill-opacity:0;stroke:#5e4fa2;stroke-opacity:0.5;stroke-width:0.5;" x="119.878224" xlink:href="#m7b6a4264d2" y="61.312613"/>
     <use style="fill-opacity:0;stroke:#5e4fa2;stroke-opacity:0.5;stroke-width:0.5;" x="121.941794" xlink:href="#m7b6a4264d2" y="57.697924"/>
     <use style="fill-opacity:0;stroke:#5e4fa2;stroke-opacity:0.5;stroke-width:0.5;" x="124.005364" xlink:href="#m7b6a4264d2" y="53.937365"/>
     <use style="fill-opacity:0;stroke:#5e4fa2;stroke-opacity:0.5;stroke-width:0.5;" x="126.068934" xlink:href="#m7b6a4264d2" y="50.075119"/>
     <use style="fill-opacity:0;stroke:#5e4fa2;stroke-opacity:0.5;stroke-width:0.5;" x="128.132504" xlink:href="#m7b6a4264d2" y="46.157111"/>
     <use style="fill-opacity:0;stroke:#5e4fa2;stroke-opacity:0.5;stroke-width:0.5;" x="130.196074" xlink:href="#m7b6a4264d2" y="42.230369"/>
     <use style="fill-opacity:0;stroke:#5e4fa2;stroke-opacity:0.5;stroke-width:0.5;" x="132.259644" xlink:href="#m7b6a4264d2" y="38.342314"/>
     <use style="fill-opacity:0;stroke:#5e4fa2;stroke-opacity:0.5;stroke-width:0.5;" x="134.323213" xlink:href="#m7b6a4264d2" y="34.540011"/>
     <use style="fill-opacity:0;stroke:#5e4fa2;stroke-opacity:0.5;stroke-width:0.5;" x="136.386783" xlink:href="#m7b6a4264d2" y="30.869441"/>
     <use style="fill-opacity:0;stroke:#5e4fa2;stroke-opacity:0.5;stroke-width:0.5;" x="138.450353" xlink:href="#m7b6a4264d2" y="27.374814"/>
     <use style="fill-opacity:0;stroke:#5e4fa2;stroke-opacity:0.5;stroke-width:0.5;" x="140.513923" xlink:href="#m7b6a4264d2" y="24.097947"/>
     <use style="fill-opacity:0;stroke:#5e4fa2;stroke-opacity:0.5;stroke-width:0.5;" x="142.577493" xlink:href="#m7b6a4264d2" y="21.077709"/>
     <use style="fill-opacity:0;stroke:#5e4fa2;stroke-opacity:0.5;stroke-width:0.5;" x="144.641063" xlink:href="#m7b6a4264d2" y="18.349547"/>
     <use style="fill-opacity:0;stroke:#5e4fa2;stroke-opacity:0.5;stroke-width:0.5;" x="146.704633" xlink:href="#m7b6a4264d2" y="15.945093"/>
     <use style="fill-opacity:0;stroke:#5e4fa2;stroke-opacity:0.5;stroke-width:0.5;" x="148.768203" xlink:href="#m7b6a4264d2" y="13.891853"/>
     <use style="fill-opacity:0;stroke:#5e4fa2;stroke-opacity:0.5;stroke-width:0.5;" x="150.831772" xlink:href="#m7b6a4264d2" y="12.212992"/>
     <use style="fill-opacity:0;stroke:#5e4fa2;stroke-opacity:0.5;stroke-width:0.5;" x="152.895342" xlink:href="#m7b6a4264d2" y="10.927189"/>
     <use style="fill-opacity:0;stroke:#5e4fa2;stroke-opacity:0.5;stroke-width:0.5;" x="154.958912" xlink:href="#m7b6a4264d2" y="10.048571"/>
     <use style="fill-opacity:0;stroke:#5e4fa2;stroke-opacity:0.5;stroke-width:0.5;" x="157.022482" xlink:href="#m7b6a4264d2" y="9.586683"/>
     <use style="fill-opacity:0;stroke:#5e4fa2;stroke-opacity:0.5;stroke-width:0.5;" x="159.086052" xlink:href="#m7b6a4264d2" y="9.546479"/>
     <use style="fill-opacity:0;stroke:#5e4fa2;stroke-opacity:0.5;stroke-width:0.5;" x="161.149622" xlink:href="#m7b6a4264d2" y="9.9283"/>
     <use style="fill-opacity:0;stroke:#5e4fa2;stroke-opacity:0.5;stroke-width:0.5;" x="163.213192" xlink:href="#m7b6a4264d2" y="10.727822"/>
     <use style="fill-opacity:0;stroke:#5e4fa2;stroke-opacity:0.5;stroke-width:0.5;" x="165.276761" xlink:href="#m7b6a4264d2" y="11.93597"/>
     <use style="fill-opacity:0;stroke:#5e4fa2;stroke-opacity:0.5;stroke-width:0.5;" x="167.340331" xlink:href="#m7b6a4264d2" y="13.538828"/>
     <use style="fill-opacity:0;stroke:#5e4fa2;stroke-opacity:0.5;stroke-width:0.5;" x="169.403901" xlink:href="#m7b6a4264d2" y="15.517575"/>
     <use style="fill-opacity:0;stroke:#5e4fa2;stroke-opacity:0.5;stroke-width:0.5;" x="171.467471" xlink:href="#m7b6a4264d2" y="17.84851"/>
     <use style="fill-opacity:0;stroke:#5e4fa2;stroke-opacity:0.5;stroke-width:0.5;" x="173.531041" xlink:href="#m7b6a4264d2" y="20.503211"/>
     <use style="fill-opacity:0;stroke:#5e4fa2;stroke-opacity:0.5;stroke-width:0.5;" x="175.594611" xlink:href="#m7b6a4264d2" y="23.448883"/>
     <use style="fill-opacity:0;stroke:#5e4fa2;stroke-opacity:0.5;stroke-width:0.5;" x="177.658181" xlink:href="#m7b6a4264d2" y="26.6489"/>
     <use style="fill-opacity:0;stroke:#5e4fa2;stroke-opacity:0.5;stroke-width:0.5;" x="179.72175" xlink:href="#m7b6a4264d2" y="30.063528"/>
     <use style="fill-opacity:0;stroke:#5e4fa2;stroke-opacity:0.5;stroke-width:0.5;" x="181.78532" xlink:href="#m7b6a4264d2" y="33.650758"/>
     <use style="fill-opacity:0;stroke:#5e4fa2;stroke-opacity:0.5;stroke-width:0.5;" x="183.84889" xlink:href="#m7b6a4264d2" y="37.367189"/>
     <use style="fill-opacity:0;stroke:#5e4fa2;stroke-opacity:0.5;stroke-width:0.5;" x="185.91246" xlink:href="#m7b6a4264d2" y="41.168823"/>
     <use style="fill-opacity:0;stroke:#5e4fa2;stroke-opacity:0.5;stroke-width:0.5;" x="187.97603" xlink:href="#m7b6a4264d2" y="45.011711"/>
     <use style="fill-opacity:0;stroke:#5e4fa2;stroke-opacity:0.5;stroke-width:0.5;" x="190.0396" xlink:href="#m7b6a4264d2" y="48.85236"/>
     <use style="fill-opacity:0;stroke:#5e4fa2;stroke-opacity:0.5;stroke-width:0.5;" x="192.10317" xlink:href="#m7b6a4264d2" y="52.6479"/>
     <use style="fill-opacity:0;stroke:#5e4fa2;stroke-opacity:0.5;stroke-width:0.5;" x="194.166739" xlink:href="#m7b6a4264d2" y="56.356039"/>
     <use style="fill-opacity:0;stroke:#5e4fa2;stroke-opacity:0.5;stroke-width:0.5;" x="196.230309" xlink:href="#m7b6a4264d2" y="59.934919"/>
     <use style="fill-opacity:0;stroke:#5e4fa2;stroke-opacity:0.5;stroke-width:0.5;" x="198.293879" xlink:href="#m7b6a4264d2" y="63.342989"/>
     <use style="fill-opacity:0;stroke:#5e4fa2;stroke-opacity:0.5;stroke-width:0.5;" x="200.357449" xlink:href="#m7b6a4264d2" y="66.539055"/>
     <use style="fill-opacity:0;stroke:#5e4fa2;stroke-opacity:0.5;stroke-width:0.5;" x="202.421019" xlink:href="#m7b6a4264d2" y="69.482611"/>
     <use style="fill-opacity:0;stroke:#5e4fa2;stroke-opacity:0.5;stroke-width:0.5;" x="204.484589" xlink:href="#m7b6a4264d2" y="72.134533"/>
     <use style="fill-opacity:0;stroke:#5e4fa2;stroke-opacity:0.5;stroke-width:0.5;" x="206.548159" xlink:href="#m7b6a4264d2" y="74.458102"/>
     <use style="fill-opacity:0;stroke:#5e4fa2;stroke-opacity:0.5;stroke-width:0.5;" x="208.611728" xlink:href="#m7b6a4264d2" y="76.420267"/>
     <use style="fill-opacity:0;stroke:#5e4fa2;stroke-opacity:0.5;stroke-width:0.5;" x="210.675298" xlink:href="#m7b6a4264d2" y="77.992971"/>
     <use style="fill-opacity:0;stroke:#5e4fa2;stroke-opacity:0.5;stroke-width:0.5;" x="212.738868" xlink:href="#m7b6a4264d2" y="79.154344"/>
     <use style="fill-opacity:0;stroke:#5e4fa2;stroke-opacity:0.5;stroke-width:0.5;" x="214.802438" xlink:href="#m7b6a4264d2" y="79.889543"/>
     <use style="fill-opacity:0;stroke:#5e4fa2;stroke-opacity:0.5;stroke-width:0.5;" x="216.866008" xlink:href="#m7b6a4264d2" y="80.191115"/>
     <use style="fill-opacity:0;stroke:#5e4fa2;stroke-opacity:0.5;stroke-width:0.5;" x="218.929578" xlink:href="#m7b6a4264d2" y="80.058808"/>
     <use style="fill-opacity:0;stroke:#5e4fa2;stroke-opacity:0.5;stroke-width:0.5;" x="220.993148" xlink:href="#m7b6a4264d2" y="79.498885"/>
     <use style="fill-opacity:0;stroke:#5e4fa2;stroke-opacity:0.5;stroke-width:0.5;" x="223.056717" xlink:href="#m7b6a4264d2" y="78.523104"/>
     <use style="fill-opacity:0;stroke:#5e4fa2;stroke-opacity:0.5;stroke-width:0.5;" x="225.120287" xlink:href="#m7b6a4264d2" y="77.14755"/>
     <use style="fill-opacity:0;stroke:#5e4fa2;stroke-opacity:0.5;stroke-width:0.5;" x="227.183857" xlink:href="#m7b6a4264d2" y="75.391578"/>
     <use style="fill-opacity:0;stroke:#5e4fa2;stroke-opacity:0.5;stroke-width:0.5;" x="229.247427" xlink:href="#m7b6a4264d2" y="73.277043"/>
     <use style="fill-opacity:0;stroke:#5e4fa2;stroke-opacity:0.5;stroke-width:0.5;" x="231.310997" xlink:href="#m7b6a4264d2" y="70.827937"/>
     <use style="fill-opacity:0;stroke:#5e4fa2;stroke-opacity:0.5;stroke-width:0.5;" x="233.374567" xlink:href="#m7b6a4264d2" y="68.070436"/>
     <use style="fill-opacity:0;stroke:#5e4fa2;stroke-opacity:0.5;stroke-width:0.5;" x="235.438137" xlink:href="#m7b6a4264d2" y="65.033265"/>
     <use style="fill-opacity:0;stroke:#5e4fa2;stroke-opacity:0.5;stroke-width:0.5;" x="237.501706" xlink:href="#m7b6a4264d2" y="61.748211"/>
    </g>
   </g>
   <g id="patch_3">
    <path d="M 39.399 85.429625 
L 39.399 3.380835 
" style="fill:none;stroke:#000000;stroke-linecap:square;stroke-linejoin:miter;stroke-width:0.35;"/>
   </g>
   <g id="patch_4">
    <path d="M 235.46364 85.429625 
L 235.46364 3.380835 
" style="fill:none;stroke:#000000;stroke-linecap:square;stroke-linejoin:miter;stroke-width:0.35;"/>
   </g>
   <g id="patch_5">
    <path d="M 39.399 85.429625 
L 235.46364 85.429625 
" style="fill:none;stroke:#000000;stroke-linecap:square;stroke-linejoin:miter;stroke-width:0.35;"/>
   </g>
   <g id="patch_6">
    <path d="M 39.399 3.380835 
L 235.46364 3.380835 
" style="fill:none;stroke:#000000;stroke-linecap:square;stroke-linejoin:miter;stroke-width:0.35;"/>
   </g>
   <g id="text_16">
    <!-- N = 12 -->
    <defs>
     <path d="M 7.625 71.734375 
L 19.09375 71.734375 
L 55.328125 13.625 
L 55.328125 71.734375 
L 64.546875 71.734375 
L 64.546875 0 
L 53.65625 0 
L 16.890625 58.0625 
L 16.890625 0 
L 7.625 0 
z
M 35.453125 71.734375 
z
" id="Helvetica-78"/>
     <path id="Helvetica-32"/>
     <path d="M 55.421875 40.140625 
L 55.421875 31.9375 
L 4.5 31.9375 
L 4.5 40.140625 
z
M 55.421875 19.1875 
L 55.421875 10.84375 
L 4.5 10.84375 
L 4.5 19.1875 
z
" id="Helvetica-61"/>
    </defs>
    <g transform="translate(208.994914 82.968161)scale(0.08 -0.08)">
     <use xlink:href="#Helvetica-78"/>
     <use x="72.216797" xlink:href="#Helvetica-32"/>
     <use x="100" xlink:href="#Helvetica-61"/>
     <use x="158.398438" xlink:href="#Helvetica-32"/>
     <use x="186.181641" xlink:href="#Helvetica-49"/>
     <use x="241.796875" xlink:href="#Helvetica-50"/>
    </g>
   </g>
   <g id="legend_1">
    <g id="line2d_16"/>
    <g id="line2d_17">
     <g>
      <use style="fill-opacity:0;stroke:#5e4fa2;stroke-opacity:0.5;stroke-width:0.5;" x="53.241586" xlink:href="#m7b6a4264d2" y="7.63977"/>
     </g>
    </g>
    <g id="text_17">
     <!-- V = 0.150 -->
     <defs>
      <path d="M 13.28125 71.734375 
L 33.890625 10.640625 
L 54.25 71.734375 
L 65.140625 71.734375 
L 38.96875 0 
L 28.65625 0 
L 2.546875 71.734375 
z
" id="Helvetica-86"/>
     </defs>
     <g transform="translate(59.241586 10.43977)scale(0.08 -0.08)">
      <use xlink:href="#Helvetica-86"/>
      <use x="66.699219" xlink:href="#Helvetica-32"/>
      <use x="94.482422" xlink:href="#Helvetica-61"/>
      <use x="152.880859" xlink:href="#Helvetica-32"/>
      <use x="180.664062" xlink:href="#Helvetica-48"/>
      <use x="236.279297" xlink:href="#Helvetica-46"/>
      <use x="264.0625" xlink:href="#Helvetica-49"/>
      <use x="319.677734" xlink:href="#Helvetica-53"/>
      <use x="375.292969" xlink:href="#Helvetica-48"/>
     </g>
    </g>
    <g id="line2d_18">
     <path d="M 50.441586 17.04602 
L 56.041586 17.04602 
" style="fill:none;stroke:#5e4fa2;stroke-linecap:round;stroke-width:0.5;"/>
    </g>
    <g id="line2d_19"/>
    <g id="text_18">
     <!-- fit -->
     <defs>
      <path d="M 8.640625 60.25 
Q 8.84375 65.71875 10.546875 68.265625 
Q 13.625 72.75 22.40625 72.75 
Q 23.25 72.75 24.125 72.703125 
Q 25 72.65625 26.125 72.5625 
L 26.125 64.546875 
Q 24.75 64.65625 24.140625 64.671875 
Q 23.53125 64.703125 23 64.703125 
Q 19 64.703125 18.21875 62.625 
Q 17.4375 60.546875 17.4375 52.046875 
L 26.125 52.046875 
L 26.125 45.125 
L 17.328125 45.125 
L 17.328125 0 
L 8.640625 0 
L 8.640625 45.125 
L 1.375 45.125 
L 1.375 52.046875 
L 8.640625 52.046875 
L 8.640625 60.25 
z
" id="Helvetica-102"/>
      <path d="M 6.453125 52.046875 
L 15.375 52.046875 
L 15.375 0 
L 6.453125 0 
z
M 6.453125 71.734375 
L 15.375 71.734375 
L 15.375 61.765625 
L 6.453125 61.765625 
z
" id="Helvetica-105"/>
     </defs>
     <g transform="translate(59.241586 19.84602)scale(0.08 -0.08)">
      <use xlink:href="#Helvetica-102"/>
      <use x="27.783203" xlink:href="#Helvetica-105"/>
      <use x="50" xlink:href="#Helvetica-116"/>
     </g>
    </g>
   </g>
  </g>
  <g id="axes_2">
   <g id="patch_7">
    <path d="M 39.399 192.093051 
L 235.46364 192.093051 
L 235.46364 110.044262 
L 39.399 110.044262 
z
" style="fill:none;"/>
   </g>
   <g id="PolyCollection_1">
    <defs>
     <path d="M 26.030956 -103.213024 
L 26.030956 -133.395565 
L 28.281469 -129.275791 
L 30.531981 -125.234312 
L 32.782494 -121.270757 
L 35.033006 -117.384777 
L 37.283518 -113.576042 
L 39.534031 -109.844247 
L 41.784543 -106.189104 
L 44.035056 -102.610351 
L 46.285568 -99.107746 
L 48.53608 -95.68107 
L 50.786593 -92.330126 
L 53.037105 -89.054741 
L 55.287618 -85.854765 
L 57.53813 -82.730074 
L 59.788642 -79.680566 
L 62.039155 -76.706168 
L 64.289667 -73.806829 
L 66.54018 -70.98253 
L 68.790692 -68.233279 
L 71.041204 -65.559111 
L 73.291717 -62.960097 
L 75.542229 -60.436335 
L 77.792741 -57.987963 
L 80.043254 -55.61515 
L 82.293766 -53.318107 
L 84.544279 -51.097085 
L 86.794791 -48.952379 
L 89.045303 -46.884331 
L 91.295816 -44.893334 
L 93.546328 -42.979836 
L 95.796841 -41.144348 
L 98.047353 -39.387446 
L 100.297865 -37.709779 
L 102.548378 -36.112078 
L 104.79889 -34.595169 
L 107.049403 -33.159981 
L 109.299915 -31.80756 
L 111.550427 -30.539095 
L 113.80094 -29.355931 
L 116.051452 -28.25961 
L 118.301965 -27.2519 
L 120.552477 -26.334857 
L 122.802989 -25.510893 
L 125.053502 -24.782886 
L 127.304014 -24.15434 
L 129.554527 -23.629655 
L 131.805039 -23.214597 
L 134.055551 -22.917314 
L 136.306064 -22.751202 
L 138.556576 -22.751085 
L 140.807089 -22.914675 
L 143.057601 -23.203501 
L 145.308113 -23.601224 
L 147.558626 -24.097116 
L 149.809138 -24.683065 
L 152.059651 -25.352516 
L 154.310163 -26.099955 
L 156.560675 -26.920619 
L 158.811188 -27.810314 
L 161.0617 -28.765296 
L 163.312213 -29.782184 
L 165.562725 -30.857901 
L 167.813237 -31.989623 
L 170.06375 -33.174745 
L 172.314262 -34.410852 
L 174.564775 -35.695695 
L 176.815287 -37.027173 
L 179.065799 -38.403314 
L 181.316312 -39.822265 
L 183.566824 -41.282282 
L 185.817337 -42.781713 
L 188.067849 -44.318999 
L 190.318361 -45.892659 
L 192.568874 -47.501287 
L 194.819386 -49.143545 
L 197.069899 -50.818161 
L 199.320411 -52.523921 
L 201.570923 -54.259664 
L 203.821436 -56.024284 
L 206.071948 -57.81672 
L 208.32246 -59.635958 
L 210.572973 -61.481025 
L 212.823485 -63.350989 
L 215.073998 -65.244955 
L 217.32451 -67.162064 
L 219.575022 -69.101489 
L 221.825535 -71.062437 
L 224.076047 -73.044143 
L 226.32656 -75.045871 
L 228.577072 -77.066913 
L 230.827584 -79.106586 
L 233.078097 -81.164232 
L 235.328609 -83.239215 
L 237.579122 -85.330923 
L 239.829634 -87.438765 
L 242.080146 -89.562168 
L 244.330659 -91.700582 
L 246.581171 -93.853473 
L 248.831684 -96.020326 
L 248.831684 -76.031033 
L 248.831684 -76.031033 
L 246.581171 -74.45514 
L 244.330659 -72.889401 
L 242.080146 -71.334191 
L 239.829634 -69.789897 
L 237.579122 -68.256921 
L 235.328609 -66.735679 
L 233.078097 -65.226601 
L 230.827584 -63.730131 
L 228.577072 -62.246732 
L 226.32656 -60.776884 
L 224.076047 -59.321081 
L 221.825535 -57.879841 
L 219.575022 -56.453697 
L 217.32451 -55.043206 
L 215.073998 -53.648945 
L 212.823485 -52.271515 
L 210.572973 -50.911541 
L 208.32246 -49.569674 
L 206.071948 -48.246592 
L 203.821436 -46.943002 
L 201.570923 -45.659642 
L 199.320411 -44.397283 
L 197.069899 -43.156731 
L 194.819386 -41.938828 
L 192.568874 -40.744458 
L 190.318361 -39.574547 
L 188.067849 -38.430068 
L 185.817337 -37.312042 
L 183.566824 -36.221546 
L 181.316312 -35.159716 
L 179.065799 -34.127751 
L 176.815287 -33.126921 
L 174.564775 -32.158574 
L 172.314262 -31.224143 
L 170.06375 -30.325156 
L 167.813237 -29.463249 
L 165.562725 -28.640178 
L 163.312213 -27.857839 
L 161.0617 -27.118283 
L 158.811188 -26.423751 
L 156.560675 -25.7767 
L 154.310163 -25.179854 
L 152.059651 -24.636262 
L 149.809138 -24.149388 
L 147.558626 -23.723243 
L 145.308113 -23.362595 
L 143.057601 -23.073341 
L 140.807089 -22.863287 
L 138.556576 -22.744312 
L 136.306064 -22.744397 
L 134.055551 -22.865205 
L 131.805039 -23.081412 
L 129.554527 -23.383272 
L 127.304014 -23.764861 
L 125.053502 -24.221985 
L 122.802989 -24.751445 
L 120.552477 -25.350691 
L 118.301965 -26.017632 
L 116.051452 -26.750511 
L 113.80094 -27.547836 
L 111.550427 -28.408319 
L 109.299915 -29.330839 
L 107.049403 -30.314418 
L 104.79889 -31.358191 
L 102.548378 -32.461398 
L 100.297865 -33.623362 
L 98.047353 -34.843483 
L 95.796841 -36.121231 
L 93.546328 -37.456131 
L 91.295816 -38.847765 
L 89.045303 -40.295763 
L 86.794791 -41.799798 
L 84.544279 -43.359585 
L 82.293766 -44.974873 
L 80.043254 -46.64545 
L 77.792741 -48.371132 
L 75.542229 -50.151767 
L 73.291717 -51.987229 
L 71.041204 -53.877422 
L 68.790692 -55.822271 
L 66.54018 -57.821727 
L 64.289667 -59.875762 
L 62.039155 -61.984372 
L 59.788642 -64.147571 
L 57.53813 -66.365395 
L 55.287618 -68.637898 
L 53.037105 -70.965152 
L 50.786593 -73.34725 
L 48.53608 -75.784301 
L 46.285568 -78.276429 
L 44.035056 -80.823778 
L 41.784543 -83.426507 
L 39.534031 -86.084793 
L 37.283518 -88.798826 
L 35.033006 -91.568815 
L 32.782494 -94.394983 
L 30.531981 -97.277568 
L 28.281469 -100.216825 
L 26.030956 -103.213024 
z
" id="m77d66e2e6a" style="stroke:#9fa2b2;stroke-opacity:0.4;"/>
    </defs>
    <g clip-path="url(#pd5fbe4e44e)">
     <use style="fill:#9fa2b2;fill-opacity:0.4;stroke:#9fa2b2;stroke-opacity:0.4;" x="0" xlink:href="#m77d66e2e6a" y="214.819301"/>
    </g>
   </g>
   <g id="matplotlib.axis_3">
    <g id="xtick_9">
     <g id="line2d_20">
      <g>
       <use style="stroke:#000000;stroke-width:0.35;" x="48.311029" xlink:href="#me33742998f" y="192.093051"/>
      </g>
     </g>
     <g id="text_19">
      <!-- 0.8 -->
      <g transform="translate(42.751029 202.831801)scale(0.08 -0.08)">
       <use xlink:href="#Helvetica-48"/>
       <use x="55.615234" xlink:href="#Helvetica-46"/>
       <use x="83.398438" xlink:href="#Helvetica-56"/>
      </g>
     </g>
    </g>
    <g id="xtick_10">
     <g id="line2d_21">
      <g>
       <use style="stroke:#000000;stroke-width:0.35;" x="92.871175" xlink:href="#me33742998f" y="192.093051"/>
      </g>
     </g>
     <g id="text_20">
      <!-- 0.9 -->
      <defs>
       <path d="M 13.28125 16.890625 
Q 13.671875 9.625 18.890625 6.84375 
Q 21.578125 5.375 24.953125 5.375 
Q 31.25 5.375 35.6875 10.625 
Q 40.140625 15.875 42 31.9375 
Q 39.0625 27.296875 34.734375 25.40625 
Q 30.421875 23.53125 25.4375 23.53125 
Q 15.328125 23.53125 9.4375 29.828125 
Q 3.5625 36.140625 3.5625 46.046875 
Q 3.5625 55.5625 9.375 62.78125 
Q 15.1875 70.015625 26.515625 70.015625 
Q 41.796875 70.015625 47.609375 56.25 
Q 50.828125 48.6875 50.828125 37.3125 
Q 50.828125 24.46875 46.96875 14.546875 
Q 40.578125 -1.953125 25.296875 -1.953125 
Q 15.046875 -1.953125 9.71875 3.421875 
Q 4.390625 8.796875 4.390625 16.890625 
z
M 26.609375 31.25 
Q 31.84375 31.25 36.15625 34.6875 
Q 40.484375 38.140625 40.484375 46.734375 
Q 40.484375 54.4375 36.59375 58.21875 
Q 32.71875 62.015625 26.703125 62.015625 
Q 20.265625 62.015625 16.484375 57.6875 
Q 12.703125 53.375 12.703125 46.140625 
Q 12.703125 39.3125 16.015625 35.28125 
Q 19.34375 31.25 26.609375 31.25 
z
" id="Helvetica-57"/>
      </defs>
      <g transform="translate(87.311175 202.831801)scale(0.08 -0.08)">
       <use xlink:href="#Helvetica-48"/>
       <use x="55.615234" xlink:href="#Helvetica-46"/>
       <use x="83.398438" xlink:href="#Helvetica-57"/>
      </g>
     </g>
    </g>
    <g id="xtick_11">
     <g id="line2d_22">
      <g>
       <use style="stroke:#000000;stroke-width:0.35;" x="137.43132" xlink:href="#me33742998f" y="192.093051"/>
      </g>
     </g>
     <g id="text_21">
      <!-- 1.0 -->
      <g transform="translate(131.87132 202.831801)scale(0.08 -0.08)">
       <use xlink:href="#Helvetica-49"/>
       <use x="55.615234" xlink:href="#Helvetica-46"/>
       <use x="83.398438" xlink:href="#Helvetica-48"/>
      </g>
     </g>
    </g>
    <g id="xtick_12">
     <g id="line2d_23">
      <g>
       <use style="stroke:#000000;stroke-width:0.35;" x="181.991465" xlink:href="#me33742998f" y="192.093051"/>
      </g>
     </g>
     <g id="text_22">
      <!-- 1.1 -->
      <g transform="translate(176.431465 202.831801)scale(0.08 -0.08)">
       <use xlink:href="#Helvetica-49"/>
       <use x="55.615234" xlink:href="#Helvetica-46"/>
       <use x="83.398438" xlink:href="#Helvetica-49"/>
      </g>
     </g>
    </g>
    <g id="xtick_13">
     <g id="line2d_24">
      <g>
       <use style="stroke:#000000;stroke-width:0.35;" x="226.551611" xlink:href="#me33742998f" y="192.093051"/>
      </g>
     </g>
     <g id="text_23">
      <!-- 1.2 -->
      <g transform="translate(220.991611 202.831801)scale(0.08 -0.08)">
       <use xlink:href="#Helvetica-49"/>
       <use x="55.615234" xlink:href="#Helvetica-46"/>
       <use x="83.398438" xlink:href="#Helvetica-50"/>
      </g>
     </g>
    </g>
    <g id="text_24">
     <!-- Luttinger Parameter  $K$ -->
     <defs>
      <path d="M 7.625 71.734375 
L 17.328125 71.734375 
L 17.328125 8.546875 
L 53.65625 8.546875 
L 53.65625 0 
L 7.625 0 
z
" id="Helvetica-76"/>
      <path d="M 15.234375 52.296875 
L 15.234375 17.578125 
Q 15.234375 13.578125 16.5 11.03125 
Q 18.84375 6.34375 25.25 6.34375 
Q 34.421875 6.34375 37.75 14.546875 
Q 39.546875 18.953125 39.546875 26.609375 
L 39.546875 52.296875 
L 48.34375 52.296875 
L 48.34375 0 
L 40.046875 0 
L 40.140625 7.71875 
Q 38.421875 4.734375 35.890625 2.6875 
Q 30.859375 -1.421875 23.6875 -1.421875 
Q 12.5 -1.421875 8.453125 6.0625 
Q 6.25 10.0625 6.25 16.75 
L 6.25 52.296875 
z
M 27.296875 53.5625 
z
" id="Helvetica-117"/>
      <path d="M 6.453125 52.296875 
L 14.796875 52.296875 
L 14.796875 44.875 
Q 18.5 49.46875 22.65625 51.46875 
Q 26.8125 53.46875 31.890625 53.46875 
Q 43.015625 53.46875 46.921875 45.703125 
Q 49.078125 41.453125 49.078125 33.546875 
L 49.078125 0 
L 40.140625 0 
L 40.140625 32.953125 
Q 40.140625 37.75 38.71875 40.671875 
Q 36.375 45.5625 30.21875 45.5625 
Q 27.09375 45.5625 25.09375 44.921875 
Q 21.484375 43.84375 18.75 40.625 
Q 16.546875 38.03125 15.890625 35.265625 
Q 15.234375 32.515625 15.234375 27.390625 
L 15.234375 0 
L 6.453125 0 
z
M 27.09375 53.5625 
z
" id="Helvetica-110"/>
      <path d="M 24.90625 53.21875 
Q 31.0625 53.21875 35.640625 50.203125 
Q 38.140625 48.484375 40.71875 45.21875 
L 40.71875 51.8125 
L 48.828125 51.8125 
L 48.828125 4.25 
Q 48.828125 -5.71875 45.90625 -11.46875 
Q 40.4375 -22.125 25.25 -22.125 
Q 16.796875 -22.125 11.03125 -18.328125 
Q 5.28125 -14.546875 4.59375 -6.5 
L 13.53125 -6.5 
Q 14.15625 -10.015625 16.0625 -11.921875 
Q 19.046875 -14.84375 25.4375 -14.84375 
Q 35.546875 -14.84375 38.671875 -7.71875 
Q 40.53125 -3.515625 40.375 7.28125 
Q 37.75 3.265625 34.03125 1.3125 
Q 30.328125 -0.640625 24.21875 -0.640625 
Q 15.71875 -0.640625 9.34375 5.390625 
Q 2.984375 11.421875 2.984375 25.34375 
Q 2.984375 38.484375 9.40625 45.84375 
Q 15.828125 53.21875 24.90625 53.21875 
z
M 40.71875 26.375 
Q 40.71875 36.078125 36.71875 40.765625 
Q 32.71875 45.453125 26.515625 45.453125 
Q 17.234375 45.453125 13.8125 36.765625 
Q 12.015625 32.125 12.015625 24.609375 
Q 12.015625 15.765625 15.59375 11.15625 
Q 19.1875 6.546875 25.25 6.546875 
Q 34.71875 6.546875 38.578125 15.09375 
Q 40.71875 19.921875 40.71875 26.375 
z
M 25.921875 53.5625 
z
" id="Helvetica-103"/>
      <path d="M 28.21875 53.46875 
Q 33.796875 53.46875 39.015625 50.859375 
Q 44.234375 48.25 46.96875 44.09375 
Q 49.609375 40.140625 50.484375 34.859375 
Q 51.265625 31.25 51.265625 23.34375 
L 12.9375 23.34375 
Q 13.1875 15.375 16.703125 10.5625 
Q 20.21875 5.765625 27.59375 5.765625 
Q 34.46875 5.765625 38.578125 10.296875 
Q 40.921875 12.9375 41.890625 16.40625 
L 50.53125 16.40625 
Q 50.203125 13.53125 48.265625 9.984375 
Q 46.34375 6.453125 43.953125 4.203125 
Q 39.9375 0.296875 34.03125 -1.078125 
Q 30.859375 -1.859375 26.859375 -1.859375 
Q 17.09375 -1.859375 10.296875 5.25 
Q 3.515625 12.359375 3.515625 25.140625 
Q 3.515625 37.75 10.34375 45.609375 
Q 17.1875 53.46875 28.21875 53.46875 
z
M 42.234375 30.328125 
Q 41.703125 36.03125 39.75 39.453125 
Q 36.140625 45.796875 27.6875 45.796875 
Q 21.625 45.796875 17.515625 41.421875 
Q 13.421875 37.0625 13.1875 30.328125 
z
M 27.390625 53.5625 
z
" id="Helvetica-101"/>
      <path d="M 6.6875 52.296875 
L 15.046875 52.296875 
L 15.046875 43.265625 
Q 16.0625 45.90625 20.0625 49.6875 
Q 24.078125 53.46875 29.296875 53.46875 
Q 29.546875 53.46875 30.125 53.421875 
Q 30.71875 53.375 32.125 53.21875 
L 32.125 43.953125 
Q 31.34375 44.09375 30.6875 44.140625 
Q 30.03125 44.1875 29.25 44.1875 
Q 22.609375 44.1875 19.046875 39.90625 
Q 15.484375 35.640625 15.484375 30.078125 
L 15.484375 0 
L 6.6875 0 
z
" id="Helvetica-114"/>
      <path d="M 8.546875 71.734375 
L 40.828125 71.734375 
Q 50.390625 71.734375 56.25 66.328125 
Q 62.109375 60.9375 62.109375 51.171875 
Q 62.109375 42.78125 56.875 36.546875 
Q 51.65625 30.328125 40.828125 30.328125 
L 18.265625 30.328125 
L 18.265625 0 
L 8.546875 0 
z
M 52.296875 51.125 
Q 52.296875 59.03125 46.4375 61.859375 
Q 43.21875 63.375 37.59375 63.375 
L 18.265625 63.375 
L 18.265625 38.53125 
L 37.59375 38.53125 
Q 44.140625 38.53125 48.21875 41.3125 
Q 52.296875 44.09375 52.296875 51.125 
z
" id="Helvetica-80"/>
      <path d="M 6.453125 52.296875 
L 15.140625 52.296875 
L 15.140625 44.875 
Q 18.265625 48.734375 20.796875 50.484375 
Q 25.140625 53.46875 30.671875 53.46875 
Q 36.921875 53.46875 40.71875 50.390625 
Q 42.875 48.640625 44.625 45.21875 
Q 47.5625 49.421875 51.515625 51.4375 
Q 55.46875 53.46875 60.40625 53.46875 
Q 70.953125 53.46875 74.75 45.84375 
Q 76.8125 41.75 76.8125 34.8125 
L 76.8125 0 
L 67.671875 0 
L 67.671875 36.328125 
Q 67.671875 41.546875 65.0625 43.5 
Q 62.453125 45.453125 58.6875 45.453125 
Q 53.515625 45.453125 49.78125 41.984375 
Q 46.046875 38.53125 46.046875 30.421875 
L 46.046875 0 
L 37.109375 0 
L 37.109375 34.125 
Q 37.109375 39.453125 35.84375 41.890625 
Q 33.84375 45.5625 28.375 45.5625 
Q 23.390625 45.5625 19.3125 41.703125 
Q 15.234375 37.84375 15.234375 27.734375 
L 15.234375 0 
L 6.453125 0 
z
" id="Helvetica-109"/>
      <path d="M 7.625 71.734375 
L 17.09375 71.734375 
L 17.09375 36.765625 
L 52.046875 71.734375 
L 65.484375 71.734375 
L 35.640625 42.828125 
L 66.3125 0 
L 53.65625 0 
L 28.5625 35.984375 
L 17.09375 25 
L 17.09375 0 
L 7.625 0 
z
" id="Helvetica-75"/>
     </defs>
     <g transform="translate(97.15132 212.259301)scale(0.08 -0.08)">
      <use transform="translate(0 0.265625)" xlink:href="#Helvetica-76"/>
      <use transform="translate(55.615234 0.265625)" xlink:href="#Helvetica-117"/>
      <use transform="translate(111.230469 0.265625)" xlink:href="#Helvetica-116"/>
      <use transform="translate(139.013672 0.265625)" xlink:href="#Helvetica-116"/>
      <use transform="translate(166.796875 0.265625)" xlink:href="#Helvetica-105"/>
      <use transform="translate(189.013672 0.265625)" xlink:href="#Helvetica-110"/>
      <use transform="translate(244.628906 0.265625)" xlink:href="#Helvetica-103"/>
      <use transform="translate(300.244141 0.265625)" xlink:href="#Helvetica-101"/>
      <use transform="translate(355.859375 0.265625)" xlink:href="#Helvetica-114"/>
      <use transform="translate(389.160156 0.265625)" xlink:href="#Helvetica-32"/>
      <use transform="translate(416.943359 0.265625)" xlink:href="#Helvetica-80"/>
      <use transform="translate(483.642578 0.265625)" xlink:href="#Helvetica-97"/>
      <use transform="translate(539.257812 0.265625)" xlink:href="#Helvetica-114"/>
      <use transform="translate(572.558594 0.265625)" xlink:href="#Helvetica-97"/>
      <use transform="translate(628.173828 0.265625)" xlink:href="#Helvetica-109"/>
      <use transform="translate(711.474609 0.265625)" xlink:href="#Helvetica-101"/>
      <use transform="translate(767.089844 0.265625)" xlink:href="#Helvetica-116"/>
      <use transform="translate(794.873047 0.265625)" xlink:href="#Helvetica-101"/>
      <use transform="translate(850.488281 0.265625)" xlink:href="#Helvetica-114"/>
      <use transform="translate(883.789062 0.265625)" xlink:href="#Helvetica-32"/>
      <use transform="translate(911.572266 0.265625)" xlink:href="#Helvetica-32"/>
      <use transform="translate(939.355469 0.265625)" xlink:href="#Helvetica-75"/>
     </g>
    </g>
   </g>
   <g id="matplotlib.axis_4">
    <g id="ytick_6">
     <g id="line2d_25">
      <g>
       <use style="stroke:#000000;stroke-width:0.35;" x="39.399" xlink:href="#mb763f9f32c" y="192.093051"/>
      </g>
     </g>
     <g id="text_25">
      <!-- 0.00 -->
      <g transform="translate(18.83025 194.962426)scale(0.08 -0.08)">
       <use xlink:href="#Helvetica-48"/>
       <use x="55.615234" xlink:href="#Helvetica-46"/>
       <use x="83.398438" xlink:href="#Helvetica-48"/>
       <use x="139.013672" xlink:href="#Helvetica-48"/>
      </g>
     </g>
    </g>
    <g id="ytick_7">
     <g id="line2d_26">
      <g>
       <use style="stroke:#000000;stroke-width:0.35;" x="39.399" xlink:href="#mb763f9f32c" y="164.743455"/>
      </g>
     </g>
     <g id="text_26">
      <!-- 0.02 -->
      <g transform="translate(18.83025 167.61283)scale(0.08 -0.08)">
       <use xlink:href="#Helvetica-48"/>
       <use x="55.615234" xlink:href="#Helvetica-46"/>
       <use x="83.398438" xlink:href="#Helvetica-48"/>
       <use x="139.013672" xlink:href="#Helvetica-50"/>
      </g>
     </g>
    </g>
    <g id="ytick_8">
     <g id="line2d_27">
      <g>
       <use style="stroke:#000000;stroke-width:0.35;" x="39.399" xlink:href="#mb763f9f32c" y="137.393858"/>
      </g>
     </g>
     <g id="text_27">
      <!-- 0.04 -->
      <g transform="translate(18.83025 140.263233)scale(0.08 -0.08)">
       <use xlink:href="#Helvetica-48"/>
       <use x="55.615234" xlink:href="#Helvetica-46"/>
       <use x="83.398438" xlink:href="#Helvetica-48"/>
       <use x="139.013672" xlink:href="#Helvetica-52"/>
      </g>
     </g>
    </g>
    <g id="ytick_9">
     <g id="line2d_28">
      <g>
       <use style="stroke:#000000;stroke-width:0.35;" x="39.399" xlink:href="#mb763f9f32c" y="110.044262"/>
      </g>
     </g>
     <g id="text_28">
      <!-- 0.06 -->
      <g transform="translate(18.83025 112.913637)scale(0.08 -0.08)">
       <use xlink:href="#Helvetica-48"/>
       <use x="55.615234" xlink:href="#Helvetica-46"/>
       <use x="83.398438" xlink:href="#Helvetica-48"/>
       <use x="139.013672" xlink:href="#Helvetica-54"/>
      </g>
     </g>
    </g>
    <g id="text_29">
     <!-- Entanglement -->
     <defs>
      <path d="M 8.546875 71.734375 
L 60.84375 71.734375 
L 60.84375 62.9375 
L 18.015625 62.9375 
L 18.015625 41.15625 
L 57.625 41.15625 
L 57.625 32.859375 
L 18.015625 32.859375 
L 18.015625 8.546875 
L 61.578125 8.546875 
L 61.578125 0 
L 8.546875 0 
z
M 35.0625 71.734375 
z
" id="Helvetica-69"/>
      <path d="M 6.6875 71.734375 
L 15.484375 71.734375 
L 15.484375 0 
L 6.6875 0 
z
" id="Helvetica-108"/>
     </defs>
     <g transform="translate(6.45875 175.750531)rotate(-90)scale(0.08 -0.08)">
      <use xlink:href="#Helvetica-69"/>
      <use x="66.699219" xlink:href="#Helvetica-110"/>
      <use x="122.314453" xlink:href="#Helvetica-116"/>
      <use x="150.097656" xlink:href="#Helvetica-97"/>
      <use x="205.712891" xlink:href="#Helvetica-110"/>
      <use x="261.328125" xlink:href="#Helvetica-103"/>
      <use x="316.943359" xlink:href="#Helvetica-108"/>
      <use x="339.160156" xlink:href="#Helvetica-101"/>
      <use x="394.775391" xlink:href="#Helvetica-109"/>
      <use x="478.076172" xlink:href="#Helvetica-101"/>
      <use x="533.691406" xlink:href="#Helvetica-110"/>
      <use x="589.306641" xlink:href="#Helvetica-116"/>
     </g>
     <!--  Entropy Density -->
     <defs>
      <path d="M 27.203125 5.671875 
Q 35.9375 5.671875 39.1875 12.28125 
Q 42.4375 18.890625 42.4375 27 
Q 42.4375 34.328125 40.09375 38.921875 
Q 36.375 46.140625 27.296875 46.140625 
Q 19.234375 46.140625 15.578125 39.984375 
Q 11.921875 33.84375 11.921875 25.140625 
Q 11.921875 16.796875 15.578125 11.234375 
Q 19.234375 5.671875 27.203125 5.671875 
z
M 27.546875 53.8125 
Q 37.640625 53.8125 44.625 47.0625 
Q 51.609375 40.328125 51.609375 27.25 
Q 51.609375 14.59375 45.453125 6.34375 
Q 39.3125 -1.90625 26.375 -1.90625 
Q 15.578125 -1.90625 9.21875 5.390625 
Q 2.875 12.703125 2.875 25 
Q 2.875 38.1875 9.5625 46 
Q 16.265625 53.8125 27.546875 53.8125 
z
M 27.25 53.5625 
z
" id="Helvetica-111"/>
      <path d="M 28.515625 5.90625 
Q 34.671875 5.90625 38.75 11.0625 
Q 42.828125 16.21875 42.828125 26.46875 
Q 42.828125 32.71875 41.015625 37.203125 
Q 37.59375 45.84375 28.515625 45.84375 
Q 19.390625 45.84375 16.015625 36.71875 
Q 14.203125 31.84375 14.203125 24.3125 
Q 14.203125 18.265625 16.015625 14.015625 
Q 19.4375 5.90625 28.515625 5.90625 
z
M 5.765625 52.046875 
L 14.3125 52.046875 
L 14.3125 45.125 
Q 16.9375 48.6875 20.0625 50.640625 
Q 24.515625 53.5625 30.515625 53.5625 
Q 39.40625 53.5625 45.609375 46.75 
Q 51.8125 39.9375 51.8125 27.296875 
Q 51.8125 10.203125 42.875 2.875 
Q 37.203125 -1.765625 29.6875 -1.765625 
Q 23.78125 -1.765625 19.78125 0.828125 
Q 17.4375 2.296875 14.546875 5.859375 
L 14.546875 -20.84375 
L 5.765625 -20.84375 
z
" id="Helvetica-112"/>
      <path d="M 39.109375 52.296875 
L 48.828125 52.296875 
Q 46.96875 47.265625 40.578125 29.34375 
Q 35.796875 15.875 32.5625 7.375 
Q 24.953125 -12.640625 21.828125 -17.03125 
Q 18.703125 -21.4375 11.078125 -21.4375 
Q 9.234375 -21.4375 8.234375 -21.28125 
Q 7.234375 -21.140625 5.765625 -20.75 
L 5.765625 -12.75 
Q 8.0625 -13.375 9.078125 -13.515625 
Q 10.109375 -13.671875 10.890625 -13.671875 
Q 13.328125 -13.671875 14.46875 -12.859375 
Q 15.625 -12.0625 16.40625 -10.890625 
Q 16.65625 -10.5 18.15625 -6.875 
Q 19.671875 -3.265625 20.359375 -1.515625 
L 1.03125 52.296875 
L 10.984375 52.296875 
L 25 9.71875 
z
M 24.953125 53.5625 
z
" id="Helvetica-121"/>
      <path d="M 35.15625 8.296875 
Q 40.09375 8.296875 43.265625 9.328125 
Q 48.921875 11.234375 52.546875 16.65625 
Q 55.421875 21 56.6875 27.78125 
Q 57.421875 31.84375 57.421875 35.296875 
Q 57.421875 48.640625 52.125 56 
Q 46.828125 63.375 35.0625 63.375 
L 17.828125 63.375 
L 17.828125 8.296875 
z
M 8.0625 71.734375 
L 37.109375 71.734375 
Q 51.90625 71.734375 60.0625 61.234375 
Q 67.328125 51.765625 67.328125 36.96875 
Q 67.328125 25.53125 63.03125 16.3125 
Q 55.46875 0 37.015625 0 
L 8.0625 0 
z
" id="Helvetica-68"/>
      <path d="M 11.671875 16.40625 
Q 12.0625 12.015625 13.875 9.671875 
Q 17.1875 5.421875 25.390625 5.421875 
Q 30.28125 5.421875 33.984375 7.546875 
Q 37.703125 9.671875 37.703125 14.109375 
Q 37.703125 17.484375 34.71875 19.234375 
Q 32.8125 20.3125 27.203125 21.734375 
L 20.21875 23.484375 
Q 13.53125 25.140625 10.359375 27.203125 
Q 4.6875 30.765625 4.6875 37.0625 
Q 4.6875 44.484375 10.03125 49.0625 
Q 15.375 53.65625 24.421875 53.65625 
Q 36.234375 53.65625 41.453125 46.734375 
Q 44.734375 42.328125 44.625 37.25 
L 36.328125 37.25 
Q 36.078125 40.234375 34.234375 42.671875 
Q 31.203125 46.140625 23.734375 46.140625 
Q 18.75 46.140625 16.1875 44.234375 
Q 13.625 42.328125 13.625 39.203125 
Q 13.625 35.796875 17 33.734375 
Q 18.953125 32.515625 22.75 31.59375 
L 28.5625 30.171875 
Q 38.03125 27.875 41.265625 25.734375 
Q 46.390625 22.359375 46.390625 15.140625 
Q 46.390625 8.15625 41.09375 3.078125 
Q 35.796875 -2 24.953125 -2 
Q 13.28125 -2 8.421875 3.296875 
Q 3.5625 8.59375 3.21875 16.40625 
z
M 24.65625 53.5625 
z
" id="Helvetica-115"/>
     </defs>
     <g transform="translate(15.11525 180.413031)rotate(-90)scale(0.08 -0.08)">
      <use xlink:href="#Helvetica-32"/>
      <use x="27.783203" xlink:href="#Helvetica-69"/>
      <use x="94.482422" xlink:href="#Helvetica-110"/>
      <use x="150.097656" xlink:href="#Helvetica-116"/>
      <use x="177.880859" xlink:href="#Helvetica-114"/>
      <use x="211.181641" xlink:href="#Helvetica-111"/>
      <use x="266.796875" xlink:href="#Helvetica-112"/>
      <use x="322.412109" xlink:href="#Helvetica-121"/>
      <use x="372.412109" xlink:href="#Helvetica-32"/>
      <use x="400.195312" xlink:href="#Helvetica-68"/>
      <use x="472.412109" xlink:href="#Helvetica-101"/>
      <use x="528.027344" xlink:href="#Helvetica-110"/>
      <use x="583.642578" xlink:href="#Helvetica-115"/>
      <use x="633.642578" xlink:href="#Helvetica-105"/>
      <use x="655.859375" xlink:href="#Helvetica-116"/>
      <use x="683.642578" xlink:href="#Helvetica-121"/>
     </g>
    </g>
   </g>
   <g id="LineCollection_1">
    <path clip-path="url(#pd5fbe4e44e)" d="M 222.852241 149.031863 
L 222.852241 147.433463 
" style="fill:none;stroke:#5e4fa2;stroke-width:0.5;"/>
    <path clip-path="url(#pd5fbe4e44e)" d="M 176.066727 179.480372 
L 176.066727 179.260021 
" style="fill:none;stroke:#5e4fa2;stroke-width:0.5;"/>
    <path clip-path="url(#pd5fbe4e44e)" d="M 159.79606 187.031988 
L 159.79606 186.914636 
" style="fill:none;stroke:#5e4fa2;stroke-width:0.5;"/>
    <path clip-path="url(#pd5fbe4e44e)" d="M 137.43132 192.093051 
L 137.43132 192.093051 
" style="fill:none;stroke:#5e4fa2;stroke-width:0.5;"/>
    <path clip-path="url(#pd5fbe4e44e)" d="M 117.106759 187.345815 
L 117.106759 187.256525 
" style="fill:none;stroke:#5e4fa2;stroke-width:0.5;"/>
    <path clip-path="url(#pd5fbe4e44e)" d="M 104.505509 180.752405 
L 104.505509 180.607166 
" style="fill:none;stroke:#5e4fa2;stroke-width:0.5;"/>
    <path clip-path="url(#pd5fbe4e44e)" d="M 48.347078 123.537816 
L 48.347078 123.235846 
" style="fill:none;stroke:#5e4fa2;stroke-width:0.5;"/>
   </g>
   <g id="LineCollection_2">
    <path clip-path="url(#pd5fbe4e44e)" d="M 222.852241 151.814956 
L 222.852241 150.212374 
" style="fill:none;stroke:#d8434e;stroke-width:0.5;"/>
    <path clip-path="url(#pd5fbe4e44e)" d="M 176.066727 179.640472 
L 176.066727 179.119053 
" style="fill:none;stroke:#d8434e;stroke-width:0.5;"/>
    <path clip-path="url(#pd5fbe4e44e)" d="M 159.79606 187.148422 
L 159.79606 186.965398 
" style="fill:none;stroke:#d8434e;stroke-width:0.5;"/>
    <path clip-path="url(#pd5fbe4e44e)" d="M 137.43132 192.093051 
L 137.43132 192.093051 
" style="fill:none;stroke:#d8434e;stroke-width:0.5;"/>
    <path clip-path="url(#pd5fbe4e44e)" d="M 117.106759 187.609583 
L 117.106759 187.421354 
" style="fill:none;stroke:#d8434e;stroke-width:0.5;"/>
    <path clip-path="url(#pd5fbe4e44e)" d="M 104.505509 180.999035 
L 104.505509 180.547952 
" style="fill:none;stroke:#d8434e;stroke-width:0.5;"/>
    <path clip-path="url(#pd5fbe4e44e)" d="M 48.347078 122.944133 
L 48.347078 120.788752 
" style="fill:none;stroke:#d8434e;stroke-width:0.5;"/>
   </g>
   <g id="line2d_29">
    <defs>
     <path d="M 0 1.5 
C 0.397805 1.5 0.77937 1.341951 1.06066 1.06066 
C 1.341951 0.77937 1.5 0.397805 1.5 0 
C 1.5 -0.397805 1.341951 -0.77937 1.06066 -1.06066 
C 0.77937 -1.341951 0.397805 -1.5 0 -1.5 
C -0.397805 -1.5 -0.77937 -1.341951 -1.06066 -1.06066 
C -1.341951 -0.77937 -1.5 -0.397805 -1.5 0 
C -1.5 0.397805 -1.341951 0.77937 -1.06066 1.06066 
C -0.77937 1.341951 -0.397805 1.5 0 1.5 
z
" id="mbc3550e61e" style="stroke:#5e4fa2;stroke-width:0.5;"/>
    </defs>
    <g clip-path="url(#pd5fbe4e44e)">
     <use style="fill:#aea6d0;fill-opacity:0.501961;stroke:#5e4fa2;stroke-width:0.5;" x="222.852241" xlink:href="#mbc3550e61e" y="148.232663"/>
     <use style="fill:#aea6d0;fill-opacity:0.501961;stroke:#5e4fa2;stroke-width:0.5;" x="176.066727" xlink:href="#mbc3550e61e" y="179.370196"/>
     <use style="fill:#aea6d0;fill-opacity:0.501961;stroke:#5e4fa2;stroke-width:0.5;" x="159.79606" xlink:href="#mbc3550e61e" y="186.973312"/>
     <use style="fill:#aea6d0;fill-opacity:0.501961;stroke:#5e4fa2;stroke-width:0.5;" x="137.43132" xlink:href="#mbc3550e61e" y="192.093051"/>
     <use style="fill:#aea6d0;fill-opacity:0.501961;stroke:#5e4fa2;stroke-width:0.5;" x="117.106759" xlink:href="#mbc3550e61e" y="187.30117"/>
     <use style="fill:#aea6d0;fill-opacity:0.501961;stroke:#5e4fa2;stroke-width:0.5;" x="104.505509" xlink:href="#mbc3550e61e" y="180.679785"/>
     <use style="fill:#aea6d0;fill-opacity:0.501961;stroke:#5e4fa2;stroke-width:0.5;" x="48.347078" xlink:href="#mbc3550e61e" y="123.386831"/>
    </g>
   </g>
   <g id="line2d_30">
    <defs>
     <path d="M 0 1.5 
C 0.397805 1.5 0.77937 1.341951 1.06066 1.06066 
C 1.341951 0.77937 1.5 0.397805 1.5 0 
C 1.5 -0.397805 1.341951 -0.77937 1.06066 -1.06066 
C 0.77937 -1.341951 0.397805 -1.5 0 -1.5 
C -0.397805 -1.5 -0.77937 -1.341951 -1.06066 -1.06066 
C -1.341951 -0.77937 -1.5 -0.397805 -1.5 0 
C -1.5 0.397805 -1.341951 0.77937 -1.06066 1.06066 
C -0.77937 1.341951 -0.397805 1.5 0 1.5 
z
" id="m815d127c75" style="stroke:#d8434e;stroke-width:0.5;"/>
    </defs>
    <g clip-path="url(#pd5fbe4e44e)">
     <use style="fill:#eba0a6;fill-opacity:0.501961;stroke:#d8434e;stroke-width:0.5;" x="222.852241" xlink:href="#m815d127c75" y="151.013665"/>
     <use style="fill:#eba0a6;fill-opacity:0.501961;stroke:#d8434e;stroke-width:0.5;" x="176.066727" xlink:href="#m815d127c75" y="179.379762"/>
     <use style="fill:#eba0a6;fill-opacity:0.501961;stroke:#d8434e;stroke-width:0.5;" x="159.79606" xlink:href="#m815d127c75" y="187.05691"/>
     <use style="fill:#eba0a6;fill-opacity:0.501961;stroke:#d8434e;stroke-width:0.5;" x="137.43132" xlink:href="#m815d127c75" y="192.093051"/>
     <use style="fill:#eba0a6;fill-opacity:0.501961;stroke:#d8434e;stroke-width:0.5;" x="117.106759" xlink:href="#m815d127c75" y="187.515468"/>
     <use style="fill:#eba0a6;fill-opacity:0.501961;stroke:#d8434e;stroke-width:0.5;" x="104.505509" xlink:href="#m815d127c75" y="180.773493"/>
     <use style="fill:#eba0a6;fill-opacity:0.501961;stroke:#d8434e;stroke-width:0.5;" x="48.347078" xlink:href="#m815d127c75" y="121.866443"/>
    </g>
   </g>
   <g id="patch_8">
    <path d="M 39.399 192.093051 
L 39.399 110.044262 
" style="fill:none;stroke:#000000;stroke-linecap:square;stroke-linejoin:miter;stroke-width:0.35;"/>
   </g>
   <g id="patch_9">
    <path d="M 235.46364 192.093051 
L 235.46364 110.044262 
" style="fill:none;stroke:#000000;stroke-linecap:square;stroke-linejoin:miter;stroke-width:0.35;"/>
   </g>
   <g id="patch_10">
    <path d="M 39.399 192.093051 
L 235.46364 192.093051 
" style="fill:none;stroke:#000000;stroke-linecap:square;stroke-linejoin:miter;stroke-width:0.35;"/>
   </g>
   <g id="patch_11">
    <path d="M 39.399 110.044262 
L 235.46364 110.044262 
" style="fill:none;stroke:#000000;stroke-linecap:square;stroke-linejoin:miter;stroke-width:0.35;"/>
   </g>
   <g id="legend_2">
    <g id="patch_12">
     <path d="M 101.418392 120.722253 
L 107.018392 120.722253 
L 107.018392 115.122253 
L 101.418392 115.122253 
z
" style="fill:#9fa2b2;opacity:0.4;stroke:#9fa2b2;stroke-linejoin:miter;"/>
    </g>
    <g id="text_30">
     <!-- diagonal ensemble -->
     <defs>
      <path d="M 12.015625 25.53125 
Q 12.015625 17.140625 15.578125 11.46875 
Q 19.140625 5.8125 27 5.8125 
Q 33.109375 5.8125 37.03125 11.0625 
Q 40.96875 16.3125 40.96875 26.125 
Q 40.96875 36.03125 36.90625 40.796875 
Q 32.859375 45.5625 26.90625 45.5625 
Q 20.265625 45.5625 16.140625 40.484375 
Q 12.015625 35.40625 12.015625 25.53125 
z
M 25.25 53.21875 
Q 31.25 53.21875 35.296875 50.6875 
Q 37.640625 49.21875 40.625 45.5625 
L 40.625 71.96875 
L 49.078125 71.96875 
L 49.078125 0 
L 41.15625 0 
L 41.15625 7.28125 
Q 38.09375 2.4375 33.890625 0.28125 
Q 29.6875 -1.859375 24.265625 -1.859375 
Q 15.53125 -1.859375 9.125 5.484375 
Q 2.734375 12.84375 2.734375 25.046875 
Q 2.734375 36.46875 8.5625 44.84375 
Q 14.40625 53.21875 25.25 53.21875 
z
" id="Helvetica-100"/>
      <path d="M 5.765625 71.96875 
L 14.3125 71.96875 
L 14.3125 45.953125 
Q 17.1875 49.703125 21.1875 51.671875 
Q 25.203125 53.65625 29.890625 53.65625 
Q 39.65625 53.65625 45.734375 46.9375 
Q 51.8125 40.234375 51.8125 27.15625 
Q 51.8125 14.75 45.796875 6.546875 
Q 39.796875 -1.65625 29.15625 -1.65625 
Q 23.1875 -1.65625 19.09375 1.21875 
Q 16.65625 2.9375 13.875 6.6875 
L 13.875 0 
L 5.765625 0 
z
M 28.609375 6.109375 
Q 35.75 6.109375 39.28125 11.765625 
Q 42.828125 17.4375 42.828125 26.703125 
Q 42.828125 34.96875 39.28125 40.375 
Q 35.75 45.796875 28.859375 45.796875 
Q 22.859375 45.796875 18.328125 41.359375 
Q 13.8125 36.921875 13.8125 26.703125 
Q 13.8125 19.34375 15.671875 14.75 
Q 19.140625 6.109375 28.609375 6.109375 
z
" id="Helvetica-98"/>
     </defs>
     <g transform="translate(110.218392 120.722253)scale(0.08 -0.08)">
      <use xlink:href="#Helvetica-100"/>
      <use x="55.615234" xlink:href="#Helvetica-105"/>
      <use x="77.832031" xlink:href="#Helvetica-97"/>
      <use x="133.447266" xlink:href="#Helvetica-103"/>
      <use x="189.0625" xlink:href="#Helvetica-111"/>
      <use x="244.677734" xlink:href="#Helvetica-110"/>
      <use x="300.292969" xlink:href="#Helvetica-97"/>
      <use x="355.908203" xlink:href="#Helvetica-108"/>
      <use x="378.125" xlink:href="#Helvetica-32"/>
      <use x="405.908203" xlink:href="#Helvetica-101"/>
      <use x="461.523438" xlink:href="#Helvetica-110"/>
      <use x="517.138672" xlink:href="#Helvetica-115"/>
      <use x="567.138672" xlink:href="#Helvetica-101"/>
      <use x="622.753906" xlink:href="#Helvetica-109"/>
      <use x="706.054688" xlink:href="#Helvetica-98"/>
      <use x="761.669922" xlink:href="#Helvetica-108"/>
      <use x="783.886719" xlink:href="#Helvetica-101"/>
     </g>
    </g>
    <g id="LineCollection_3">
     <path d="M 104.218392 131.431003 
L 104.218392 123.431003 
" style="fill:none;stroke:#5e4fa2;stroke-width:0.5;"/>
    </g>
    <g id="line2d_31"/>
    <g id="line2d_32">
     <g>
      <use style="fill:#aea6d0;fill-opacity:0.501961;stroke:#5e4fa2;stroke-width:0.5;" x="104.218392" xlink:href="#mbc3550e61e" y="127.431003"/>
     </g>
    </g>
    <g id="text_31">
     <!-- particle -->
     <defs>
      <path d="M 26.609375 53.8125 
Q 35.453125 53.8125 40.984375 49.515625 
Q 46.53125 45.21875 47.65625 34.71875 
L 39.109375 34.71875 
Q 38.328125 39.546875 35.546875 42.75 
Q 32.765625 45.953125 26.609375 45.953125 
Q 18.21875 45.953125 14.59375 37.75 
Q 12.25 32.421875 12.25 24.609375 
Q 12.25 16.75 15.5625 11.375 
Q 18.890625 6 26.03125 6 
Q 31.5 6 34.6875 9.34375 
Q 37.890625 12.703125 39.109375 18.5 
L 47.65625 18.5 
Q 46.1875 8.109375 40.328125 3.296875 
Q 34.46875 -1.515625 25.34375 -1.515625 
Q 15.09375 -1.515625 8.984375 5.984375 
Q 2.875 13.484375 2.875 24.703125 
Q 2.875 38.484375 9.5625 46.140625 
Q 16.265625 53.8125 26.609375 53.8125 
z
M 25.25 53.5625 
z
" id="Helvetica-99"/>
     </defs>
     <g transform="translate(110.218392 130.231003)scale(0.08 -0.08)">
      <use xlink:href="#Helvetica-112"/>
      <use x="55.615234" xlink:href="#Helvetica-97"/>
      <use x="111.230469" xlink:href="#Helvetica-114"/>
      <use x="144.53125" xlink:href="#Helvetica-116"/>
      <use x="172.314453" xlink:href="#Helvetica-105"/>
      <use x="194.53125" xlink:href="#Helvetica-99"/>
      <use x="244.53125" xlink:href="#Helvetica-108"/>
      <use x="266.748047" xlink:href="#Helvetica-101"/>
     </g>
    </g>
    <g id="LineCollection_4">
     <path d="M 104.218392 140.837253 
L 104.218392 132.837253 
" style="fill:none;stroke:#d8434e;stroke-width:0.5;"/>
    </g>
    <g id="line2d_33"/>
    <g id="line2d_34">
     <g>
      <use style="fill:#eba0a6;fill-opacity:0.501961;stroke:#d8434e;stroke-width:0.5;" x="104.218392" xlink:href="#m815d127c75" y="136.837253"/>
     </g>
    </g>
    <g id="text_32">
     <!-- spatial -->
     <g transform="translate(110.218392 139.637253)scale(0.08 -0.08)">
      <use xlink:href="#Helvetica-115"/>
      <use x="50" xlink:href="#Helvetica-112"/>
      <use x="105.615234" xlink:href="#Helvetica-97"/>
      <use x="161.230469" xlink:href="#Helvetica-116"/>
      <use x="189.013672" xlink:href="#Helvetica-105"/>
      <use x="211.230469" xlink:href="#Helvetica-97"/>
      <use x="266.845703" xlink:href="#Helvetica-108"/>
     </g>
    </g>
   </g>
  </g>
 </g>
 <defs>
  <clipPath id="p4666526c53">
   <rect height="82.04879" width="196.06464" x="39.399" y="3.380835"/>
  </clipPath>
  <clipPath id="pd5fbe4e44e">
   <rect height="82.04879" width="196.06464" x="39.399" y="110.044262"/>
  </clipPath>
 </defs>
</svg>
