<?xml version="1.0" encoding="utf-8" standalone="no"?>
<!DOCTYPE svg PUBLIC "-//W3C//DTD SVG 1.1//EN"
  "http://www.w3.org/Graphics/SVG/1.1/DTD/svg11.dtd">
<!-- Created with matplotlib (https://matplotlib.org/) -->
<svg height="142.143106pt" version="1.1" viewBox="0 0 232.613676 142.143106" width="232.613676pt" xmlns="http://www.w3.org/2000/svg" xmlns:xlink="http://www.w3.org/1999/xlink">
 <defs>
  <style type="text/css">
*{stroke-linecap:butt;stroke-linejoin:round;}
  </style>
 </defs>
 <g id="figure_1">
  <g id="patch_1">
   <path d="M 0 142.143106 
L 232.613676 142.143106 
L 232.613676 0 
L 0 0 
z
" style="fill:none;"/>
  </g>
  <g id="axes_1">
   <g id="patch_2">
    <path d="M 35.33375 119.910606 
L 112.983112 119.910606 
L 112.983112 3.279815 
L 35.33375 3.279815 
z
" style="fill:none;"/>
   </g>
   <g id="line2d_1">
    <path clip-path="url(#p9a923c56c5)" d="M 35.33375 13.391457 
L 36.146919 13.692625 
L 36.960088 14.592545 
L 37.773257 16.080506 
L 38.586426 18.1388 
L 39.399596 20.742927 
L 40.212765 23.861896 
L 41.025934 27.458584 
L 41.839103 31.490184 
L 42.652272 35.908713 
L 43.465441 40.661583 
L 44.27861 45.692226 
L 45.091779 50.940768 
L 45.904948 56.344743 
L 46.718118 61.839833 
L 47.531287 67.360636 
L 48.344456 72.841446 
L 49.157625 78.217031 
L 49.970794 83.423411 
L 50.783963 88.398623 
L 51.597132 93.08345 
L 52.410301 97.422137 
L 53.22347 101.363044 
L 54.03664 104.859268 
L 54.849809 107.869197 
L 55.662978 110.357008 
L 56.476147 112.293091 
L 57.289316 113.654405 
L 58.102485 114.424745 
L 58.915654 114.594945 
L 59.728823 114.162978 
L 60.541992 113.133985 
L 61.355162 111.520214 
L 62.168331 109.340872 
L 62.9815 106.621895 
L 63.794669 103.395646 
L 64.607838 99.700521 
L 65.421007 95.580501 
L 66.234176 91.084619 
L 67.047345 86.266386 
L 67.860515 81.183148 
L 68.673684 75.895402 
L 69.486853 70.466085 
L 70.300022 64.959813 
L 71.113191 59.442121 
L 71.92636 53.978681 
L 72.739529 48.634516 
L 73.552698 43.473232 
L 74.365867 38.556257 
L 75.179037 33.942113 
L 75.992206 29.685715 
L 76.805375 25.837722 
L 77.618544 22.443933 
L 78.431713 19.54474 
L 79.244882 17.174648 
L 80.058051 15.361866 
L 80.87122 14.127969 
L 81.684389 13.487642 
L 82.497559 13.448507 
L 83.310728 14.011029 
L 84.123897 15.168513 
L 84.937066 16.907184 
L 85.750235 19.206348 
L 86.563404 22.038641 
L 87.376573 25.370352 
L 88.189742 29.16183 
L 89.002911 33.367949 
L 89.816081 37.938648 
L 90.62925 42.819528 
L 91.442419 47.952497 
L 92.255588 53.276464 
L 93.068757 58.728065 
L 93.881926 64.242415 
L 94.695095 69.753883 
L 95.508264 75.196875 
L 96.321433 80.506607 
L 97.134603 85.619885 
L 97.947772 90.475852 
L 98.760941 95.016712 
L 99.57411 99.188422 
L 100.387279 102.941331 
L 101.200448 106.230771 
L 102.013617 109.017594 
L 102.826786 111.268631 
L 103.639955 112.95709 
L 104.453125 114.062876 
L 105.266294 114.572828 
L 106.079463 114.480877 
L 106.892632 113.788116 
L 107.705801 112.502792 
L 108.51897 110.640202 
L 109.332139 108.222513 
L 110.145308 105.278501 
L 110.958477 101.843205 
L 111.771647 97.957511 
L 112.584816 93.667665 
L 113.397985 89.024725 
" style="fill:none;stroke:#5e4fa2;stroke-linecap:round;stroke-width:0.5;"/>
   </g>
   <g id="matplotlib.axis_1">
    <g id="xtick_1">
     <g id="line2d_2">
      <defs>
       <path d="M 0 0 
L 0 2 
" id="m04a5c1fdf8" style="stroke:#000000;stroke-width:0.35;"/>
      </defs>
      <g>
       <use style="stroke:#000000;stroke-width:0.35;" x="35.33375" xlink:href="#m04a5c1fdf8" y="119.910606"/>
      </g>
     </g>
     <g id="text_1">
      <!-- 0 -->
      <defs>
       <path d="M 27.796875 70.59375 
Q 20.203125 70.59375 15.390625 67.25 
Q 10.59375 63.90625 7.9375 58.703125 
Q 5.296875 53.5 4.34375 47.09375 
Q 3.40625 40.703125 3.40625 34.5 
Q 3.40625 28.40625 4.34375 22 
Q 5.296875 15.59375 7.9375 10.390625 
Q 10.59375 5.203125 15.390625 1.890625 
Q 20.203125 -1.40625 27.796875 -1.40625 
Q 35.5 -1.40625 40.25 1.890625 
Q 45 5.203125 47.640625 10.390625 
Q 50.296875 15.59375 51.25 22 
Q 52.203125 28.40625 52.203125 34.59375 
Q 52.203125 40.703125 51.25 47.09375 
Q 50.296875 53.5 47.640625 58.703125 
Q 45 63.90625 40.25 67.25 
Q 35.5 70.59375 27.796875 70.59375 
z
M 27.796875 65.296875 
Q 33.796875 65.296875 37.390625 62.1875 
Q 41 59.09375 42.84375 54.5 
Q 44.703125 49.90625 45.296875 44.5 
Q 45.90625 39.09375 45.90625 34.59375 
Q 45.90625 30 45.296875 24.640625 
Q 44.703125 19.296875 42.84375 14.640625 
Q 41 10 37.390625 6.890625 
Q 33.796875 3.796875 27.796875 3.796875 
Q 21.796875 3.796875 18.1875 6.890625 
Q 14.59375 10 12.75 14.640625 
Q 10.90625 19.296875 10.296875 24.640625 
Q 9.703125 30 9.703125 34.59375 
Q 9.703125 39.09375 10.296875 44.5 
Q 10.90625 49.90625 12.75 54.5 
Q 14.59375 59.09375 18.1875 62.1875 
Q 21.796875 65.296875 27.796875 65.296875 
z
" id="HelveticaNeue-Light-48"/>
      </defs>
      <g transform="translate(33.11 130.623106)scale(0.08 -0.08)">
       <use xlink:href="#HelveticaNeue-Light-48"/>
      </g>
     </g>
    </g>
    <g id="xtick_2">
     <g id="line2d_3">
      <g>
       <use style="stroke:#000000;stroke-width:0.35;" x="74.158431" xlink:href="#m04a5c1fdf8" y="119.910606"/>
      </g>
     </g>
     <g id="text_2">
      <!-- 10 -->
      <defs>
       <path d="M 9.703125 56.5 
L 9.703125 52 
L 28.203125 52 
L 28.203125 0 
L 34.5 0 
L 34.5 70 
L 29.40625 70 
Q 28.703125 65.203125 27.046875 62.546875 
Q 25.40625 59.90625 22.953125 58.59375 
Q 20.5 57.296875 17.140625 56.9375 
Q 13.796875 56.59375 9.703125 56.5 
z
" id="HelveticaNeue-Light-49"/>
      </defs>
      <g transform="translate(69.710931 130.623106)scale(0.08 -0.08)">
       <use xlink:href="#HelveticaNeue-Light-49"/>
       <use x="55.599991" xlink:href="#HelveticaNeue-Light-48"/>
      </g>
     </g>
    </g>
    <g id="xtick_3">
     <g id="line2d_4">
      <g>
       <use style="stroke:#000000;stroke-width:0.35;" x="112.983112" xlink:href="#m04a5c1fdf8" y="119.910606"/>
      </g>
     </g>
     <g id="text_3">
      <!-- 20 -->
      <defs>
       <path d="M 49.703125 0 
L 49.703125 5.796875 
L 10.796875 5.796875 
Q 11.40625 9.296875 13.796875 12.25 
Q 16.203125 15.203125 19.34375 17.703125 
Q 22.5 20.203125 25.890625 22.25 
Q 29.296875 24.296875 31.796875 26 
Q 35.296875 28.203125 38.4375 30.75 
Q 41.59375 33.296875 44.046875 36.296875 
Q 46.5 39.296875 47.953125 42.890625 
Q 49.40625 46.5 49.40625 50.90625 
Q 49.40625 55.796875 47.75 59.5 
Q 46.09375 63.203125 43.140625 65.640625 
Q 40.203125 68.09375 36.25 69.34375 
Q 32.296875 70.59375 27.703125 70.59375 
Q 22 70.59375 17.75 68.75 
Q 13.5 66.90625 10.703125 63.59375 
Q 7.90625 60.296875 6.546875 55.75 
Q 5.203125 51.203125 5.296875 45.796875 
L 11.59375 45.796875 
Q 11.5 49.703125 12.34375 53.203125 
Q 13.203125 56.703125 15.09375 59.390625 
Q 17 62.09375 20.046875 63.6875 
Q 23.09375 65.296875 27.40625 65.296875 
Q 30.59375 65.296875 33.4375 64.34375 
Q 36.296875 63.40625 38.4375 61.546875 
Q 40.59375 59.703125 41.84375 57.046875 
Q 43.09375 54.40625 43.09375 51 
Q 43.09375 46.796875 41.640625 43.75 
Q 40.203125 40.703125 37.296875 37.796875 
Q 34.40625 34.90625 30.75 32.34375 
Q 27.09375 29.796875 23.390625 27.34375 
Q 19.703125 24.90625 16.203125 22.25 
Q 12.703125 19.59375 9.890625 16.390625 
Q 7.09375 13.203125 5.390625 9.203125 
Q 3.703125 5.203125 3.59375 0 
z
" id="HelveticaNeue-Light-50"/>
      </defs>
      <g transform="translate(108.535612 130.623106)scale(0.08 -0.08)">
       <use xlink:href="#HelveticaNeue-Light-50"/>
       <use x="55.599991" xlink:href="#HelveticaNeue-Light-48"/>
      </g>
     </g>
    </g>
    <g id="text_4">
     <!-- $vt/a_0$ -->
     <defs>
      <path d="M 12.703125 51.796875 
L 19.203125 51.796875 
L 26.59375 7.40625 
L 52.796875 51.796875 
L 59.296875 51.796875 
L 28.203125 0 
L 21.5 0 
z
" id="Helvetica-LightOblique-118"/>
      <path d="M 25.40625 -0.203125 
Q 24.296875 -0.40625 22.34375 -0.90625 
Q 20.40625 -1.40625 18.203125 -1.40625 
Q 13.703125 -1.40625 11.84375 0.84375 
Q 10 3.09375 11.203125 8.90625 
L 19.203125 46.796875 
L 11.90625 46.796875 
L 13 51.796875 
L 20.296875 51.796875 
L 23.40625 66.203125 
L 29.40625 66.203125 
L 26.296875 51.796875 
L 36 51.796875 
L 34.90625 46.796875 
L 25.203125 46.796875 
L 17.703125 11.296875 
Q 17.296875 9.40625 17.09375 8 
Q 16.90625 6.59375 17.25 5.6875 
Q 17.59375 4.796875 18.546875 4.390625 
Q 19.5 4 21.40625 4 
Q 22.59375 4 23.84375 4.203125 
Q 25.09375 4.40625 26.40625 4.703125 
z
" id="Helvetica-LightOblique-116"/>
      <path d="M 5.296875 -9 
L -0.296875 -9 
L 23.203125 73.90625 
L 28.796875 73.90625 
z
" id="Helvetica-Light-47"/>
      <path d="M 46.90625 27.203125 
Q 42.703125 25.59375 38.75 25.09375 
Q 34.796875 24.59375 30.796875 24.296875 
Q 23.796875 23.796875 19.34375 21.1875 
Q 14.90625 18.59375 13.796875 13.296875 
Q 13.296875 10.90625 13.890625 9.15625 
Q 14.5 7.40625 15.84375 6.25 
Q 17.203125 5.09375 19.09375 4.546875 
Q 21 4 23.09375 4 
Q 26.703125 4 30.25 4.890625 
Q 33.796875 5.796875 36.84375 7.640625 
Q 39.90625 9.5 42.09375 12.34375 
Q 44.296875 15.203125 45.203125 19.09375 
z
M 37.40625 30.203125 
Q 39.09375 30.40625 41.546875 30.796875 
Q 44 31.203125 45.703125 31.90625 
Q 47.40625 32.59375 48.046875 34.25 
Q 48.703125 35.90625 49 37.296875 
Q 49.5 39.59375 49.203125 41.5 
Q 48.90625 43.40625 47.65625 44.796875 
Q 46.40625 46.203125 44.15625 47 
Q 41.90625 47.796875 38.40625 47.796875 
Q 32.203125 47.796875 27.59375 45.296875 
Q 23 42.796875 20.796875 36.09375 
L 14.703125 36.09375 
Q 16 40.703125 18.453125 43.953125 
Q 20.90625 47.203125 24.203125 49.25 
Q 27.5 51.296875 31.453125 52.25 
Q 35.40625 53.203125 39.59375 53.203125 
Q 43.5 53.203125 46.75 52.34375 
Q 50 51.5 52.140625 49.640625 
Q 54.296875 47.796875 55.09375 44.6875 
Q 55.90625 41.59375 55 37.09375 
L 49 8.90625 
Q 48.203125 5.40625 49.25 4.453125 
Q 50.296875 3.5 54.40625 4.90625 
L 53.40625 0.203125 
Q 52.703125 0 51.25 -0.390625 
Q 49.796875 -0.796875 48.5 -0.796875 
Q 47.203125 -0.796875 45.90625 -0.5 
Q 43 0 42.59375 2.25 
Q 42.203125 4.5 42.703125 7.203125 
Q 38 3 32.640625 0.796875 
Q 27.296875 -1.40625 21.59375 -1.40625 
Q 18.203125 -1.40625 15.25 -0.5 
Q 12.296875 0.40625 10.296875 2.296875 
Q 8.296875 4.203125 7.5 6.953125 
Q 6.703125 9.703125 7.5 13.5 
Q 10.203125 26.703125 28.90625 29.09375 
z
" id="Helvetica-LightOblique-97"/>
      <path d="M 45.203125 34.703125 
Q 45.203125 40.40625 44.546875 45.84375 
Q 43.90625 51.296875 42 55.59375 
Q 40.09375 59.90625 36.640625 62.5 
Q 33.203125 65.09375 27.59375 65.09375 
Q 22.296875 65.09375 18.9375 62.4375 
Q 15.59375 59.796875 13.6875 55.390625 
Q 11.796875 51 11.046875 45.390625 
Q 10.296875 39.796875 10.296875 34 
Q 10.296875 27.203125 11.140625 21.640625 
Q 12 16.09375 14 12.1875 
Q 16 8.296875 19.34375 6.140625 
Q 22.703125 4 27.796875 4 
Q 33.5 4 36.953125 6.796875 
Q 40.40625 9.59375 42.203125 14 
Q 44 18.40625 44.59375 23.90625 
Q 45.203125 29.40625 45.203125 34.703125 
z
M 27.796875 70.5 
Q 33 70.5 36.796875 68.953125 
Q 40.59375 67.40625 43.25 64.703125 
Q 45.90625 62 47.546875 58.390625 
Q 49.203125 54.796875 50.09375 50.75 
Q 51 46.703125 51.296875 42.390625 
Q 51.59375 38.09375 51.59375 34 
Q 51.59375 27 50.59375 20.59375 
Q 49.59375 14.203125 46.9375 9.296875 
Q 44.296875 4.40625 39.6875 1.5 
Q 35.09375 -1.40625 27.796875 -1.40625 
Q 20.5 -1.40625 15.84375 1.5 
Q 11.203125 4.40625 8.546875 9.34375 
Q 5.90625 14.296875 4.90625 20.84375 
Q 3.90625 27.40625 3.90625 34.703125 
Q 3.90625 41.40625 4.796875 47.796875 
Q 5.703125 54.203125 8.25 59.25 
Q 10.796875 64.296875 15.5 67.390625 
Q 20.203125 70.5 27.796875 70.5 
z
" id="Helvetica-Light-48"/>
     </defs>
     <g transform="translate(66.038431 140.015606)scale(0.08 -0.08)">
      <use transform="translate(0 0.09375)" xlink:href="#Helvetica-LightOblique-118"/>
      <use transform="translate(49.999985 0.09375)" xlink:href="#Helvetica-LightOblique-116"/>
      <use transform="translate(77.799973 0.09375)" xlink:href="#Helvetica-Light-47"/>
      <use transform="translate(105.59996 0.09375)" xlink:href="#Helvetica-LightOblique-97"/>
      <use transform="translate(161.199951 -15.445312)scale(0.7)" xlink:href="#Helvetica-Light-48"/>
     </g>
    </g>
   </g>
   <g id="matplotlib.axis_2">
    <g id="ytick_1">
     <g id="line2d_5">
      <defs>
       <path d="M 0 0 
L -2 0 
" id="m4a9f9d7105" style="stroke:#000000;stroke-width:0.35;"/>
      </defs>
      <g>
       <use style="stroke:#000000;stroke-width:0.35;" x="35.33375" xlink:href="#m4a9f9d7105" y="114.074569"/>
      </g>
     </g>
     <g id="text_5">
      <!-- 0.076 -->
      <defs>
       <path d="M 9.703125 0 
L 18.09375 0 
L 18.09375 10.59375 
L 9.703125 10.59375 
z
" id="HelveticaNeue-Light-46"/>
       <path d="M 5.09375 69.09375 
L 5.09375 63.296875 
L 43.796875 63.296875 
Q 36.5 55 31.34375 47.390625 
Q 26.203125 39.796875 22.75 32.25 
Q 19.296875 24.703125 17.4375 16.796875 
Q 15.59375 8.90625 15 0 
L 21.796875 0 
Q 22.40625 12.203125 25.65625 22.34375 
Q 28.90625 32.5 33.25 40.453125 
Q 37.59375 48.40625 42.1875 54.15625 
Q 46.796875 59.90625 50.09375 63.296875 
L 50.09375 69.09375 
z
" id="HelveticaNeue-Light-55"/>
       <path d="M 44.203125 52.296875 
L 50.5 52.296875 
Q 49.40625 61.59375 43.90625 66.09375 
Q 38.40625 70.59375 29 70.59375 
Q 23.296875 70.59375 19.1875 68.59375 
Q 15.09375 66.59375 12.34375 63.390625 
Q 9.59375 60.203125 7.9375 56.25 
Q 6.296875 52.296875 5.390625 48.4375 
Q 4.5 44.59375 4.25 41.1875 
Q 4 37.796875 4 35.703125 
Q 4 25.40625 5.453125 18.34375 
Q 6.90625 11.296875 9.90625 6.890625 
Q 12.90625 2.5 17.5 0.546875 
Q 22.09375 -1.40625 28.5 -1.40625 
Q 33.703125 -1.40625 38.046875 0.34375 
Q 42.40625 2.09375 45.546875 5.25 
Q 48.703125 8.40625 50.453125 12.75 
Q 52.203125 17.09375 52.203125 22.203125 
Q 52.203125 27.296875 50.546875 31.59375 
Q 48.90625 35.90625 45.90625 39 
Q 42.90625 42.09375 38.65625 43.84375 
Q 34.40625 45.59375 29.09375 45.59375 
Q 23.09375 45.59375 18.046875 42.390625 
Q 13 39.203125 10.5 34 
L 10.296875 34 
Q 10.296875 38.796875 11 44.25 
Q 11.703125 49.703125 13.796875 54.390625 
Q 15.90625 59.09375 19.703125 62.1875 
Q 23.5 65.296875 29.59375 65.296875 
Q 35.703125 65.296875 39.546875 61.6875 
Q 43.40625 58.09375 44.203125 52.296875 
z
M 29 40.296875 
Q 33 40.296875 36.140625 38.84375 
Q 39.296875 37.40625 41.4375 34.90625 
Q 43.59375 32.40625 44.75 29 
Q 45.90625 25.59375 45.90625 21.796875 
Q 45.90625 18.203125 44.703125 14.890625 
Q 43.5 11.59375 41.25 9.140625 
Q 39 6.703125 35.953125 5.25 
Q 32.90625 3.796875 29.09375 3.796875 
Q 24.5 3.796875 21.203125 5.1875 
Q 17.90625 6.59375 15.75 9.046875 
Q 13.59375 11.5 12.59375 14.796875 
Q 11.59375 18.09375 11.59375 21.796875 
Q 11.59375 25.703125 12.75 29.046875 
Q 13.90625 32.40625 16.15625 34.90625 
Q 18.40625 37.40625 21.65625 38.84375 
Q 24.90625 40.296875 29 40.296875 
z
" id="HelveticaNeue-Light-54"/>
      </defs>
      <g transform="translate(10.32 116.930819)scale(0.08 -0.08)">
       <use xlink:href="#HelveticaNeue-Light-48"/>
       <use x="55.599991" xlink:href="#HelveticaNeue-Light-46"/>
       <use x="83.399979" xlink:href="#HelveticaNeue-Light-48"/>
       <use x="138.999969" xlink:href="#HelveticaNeue-Light-55"/>
       <use x="194.59996" xlink:href="#HelveticaNeue-Light-54"/>
      </g>
     </g>
    </g>
    <g id="ytick_2">
     <g id="line2d_6">
      <g>
       <use style="stroke:#000000;stroke-width:0.35;" x="35.33375" xlink:href="#m4a9f9d7105" y="86.449989"/>
      </g>
     </g>
     <g id="text_6">
      <!-- 0.078 -->
      <defs>
       <path d="M 27.796875 40.09375 
Q 25 40 22.296875 40.703125 
Q 19.59375 41.40625 17.5 43 
Q 15.40625 44.59375 14.09375 47.09375 
Q 12.796875 49.59375 12.796875 53.09375 
Q 12.796875 56.09375 14.046875 58.390625 
Q 15.296875 60.703125 17.390625 62.203125 
Q 19.5 63.703125 22.203125 64.5 
Q 24.90625 65.296875 27.796875 65.296875 
Q 31 65.296875 33.703125 64.5 
Q 36.40625 63.703125 38.40625 62.203125 
Q 40.40625 60.703125 41.546875 58.390625 
Q 42.703125 56.09375 42.703125 53.09375 
Q 42.703125 49.703125 41.453125 47.203125 
Q 40.203125 44.703125 38.140625 43.09375 
Q 36.09375 41.5 33.390625 40.75 
Q 30.703125 40 27.796875 40.09375 
z
M 49 53.09375 
Q 49 57.59375 47.140625 60.890625 
Q 45.296875 64.203125 42.25 66.34375 
Q 39.203125 68.5 35.390625 69.546875 
Q 31.59375 70.59375 27.703125 70.59375 
Q 23.796875 70.59375 20 69.546875 
Q 16.203125 68.5 13.203125 66.34375 
Q 10.203125 64.203125 8.34375 60.890625 
Q 6.5 57.59375 6.5 53.09375 
Q 6.5 47.296875 9.453125 43.34375 
Q 12.40625 39.40625 17.90625 37.703125 
L 17.90625 37.5 
Q 11.296875 36.296875 7.59375 31.390625 
Q 3.90625 26.5 3.703125 19.59375 
Q 3.703125 14.296875 5.59375 10.34375 
Q 7.5 6.40625 10.796875 3.796875 
Q 14.09375 1.203125 18.5 -0.09375 
Q 22.90625 -1.40625 27.796875 -1.40625 
Q 32.796875 -1.40625 37.140625 -0.09375 
Q 41.5 1.203125 44.796875 3.796875 
Q 48.09375 6.40625 50 10.34375 
Q 51.90625 14.296875 51.90625 19.59375 
Q 51.90625 26.796875 48.203125 31.4375 
Q 44.5 36.09375 37.59375 37.5 
L 37.59375 37.703125 
Q 43 39.296875 46 43.34375 
Q 49 47.40625 49 53.09375 
z
M 27.796875 3.796875 
Q 24.09375 3.796875 20.84375 4.796875 
Q 17.59375 5.796875 15.1875 7.75 
Q 12.796875 9.703125 11.390625 12.703125 
Q 10 15.703125 10 19.59375 
Q 10 23.40625 11.453125 26.296875 
Q 12.90625 29.203125 15.296875 31.140625 
Q 17.703125 33.09375 20.953125 34 
Q 24.203125 34.90625 27.796875 34.796875 
Q 31.296875 34.90625 34.546875 33.953125 
Q 37.796875 33 40.25 31.046875 
Q 42.703125 29.09375 44.140625 26.25 
Q 45.59375 23.40625 45.59375 19.59375 
Q 45.59375 15.59375 44.1875 12.59375 
Q 42.796875 9.59375 40.390625 7.640625 
Q 38 5.703125 34.75 4.75 
Q 31.5 3.796875 27.796875 3.796875 
z
" id="HelveticaNeue-Light-56"/>
      </defs>
      <g transform="translate(10.32 89.306239)scale(0.08 -0.08)">
       <use xlink:href="#HelveticaNeue-Light-48"/>
       <use x="55.599991" xlink:href="#HelveticaNeue-Light-46"/>
       <use x="83.399979" xlink:href="#HelveticaNeue-Light-48"/>
       <use x="138.999969" xlink:href="#HelveticaNeue-Light-55"/>
       <use x="194.59996" xlink:href="#HelveticaNeue-Light-56"/>
      </g>
     </g>
    </g>
    <g id="ytick_3">
     <g id="line2d_7">
      <g>
       <use style="stroke:#000000;stroke-width:0.35;" x="35.33375" xlink:href="#m4a9f9d7105" y="58.825409"/>
      </g>
     </g>
     <g id="text_7">
      <!-- 0.080 -->
      <g transform="translate(10.32 61.681659)scale(0.08 -0.08)">
       <use xlink:href="#HelveticaNeue-Light-48"/>
       <use x="55.599991" xlink:href="#HelveticaNeue-Light-46"/>
       <use x="83.399979" xlink:href="#HelveticaNeue-Light-48"/>
       <use x="138.999969" xlink:href="#HelveticaNeue-Light-56"/>
       <use x="194.59996" xlink:href="#HelveticaNeue-Light-48"/>
      </g>
     </g>
    </g>
    <g id="ytick_4">
     <g id="line2d_8">
      <g>
       <use style="stroke:#000000;stroke-width:0.35;" x="35.33375" xlink:href="#m4a9f9d7105" y="31.20083"/>
      </g>
     </g>
     <g id="text_8">
      <!-- 0.082 -->
      <g transform="translate(10.32 34.05708)scale(0.08 -0.08)">
       <use xlink:href="#HelveticaNeue-Light-48"/>
       <use x="55.599991" xlink:href="#HelveticaNeue-Light-46"/>
       <use x="83.399979" xlink:href="#HelveticaNeue-Light-48"/>
       <use x="138.999969" xlink:href="#HelveticaNeue-Light-56"/>
       <use x="194.59996" xlink:href="#HelveticaNeue-Light-50"/>
      </g>
     </g>
    </g>
    <g id="ytick_5">
     <g id="line2d_9">
      <g>
       <use style="stroke:#000000;stroke-width:0.35;" x="35.33375" xlink:href="#m4a9f9d7105" y="3.57625"/>
      </g>
     </g>
     <g id="text_9">
      <!-- 0.084 -->
      <defs>
       <path d="M 35.296875 22.703125 
L 8.703125 22.703125 
L 35.09375 60.796875 
L 35.296875 60.796875 
z
M 3 23.5 
L 3 17.40625 
L 35.296875 17.40625 
L 35.296875 0 
L 41.09375 0 
L 41.09375 17.40625 
L 51.59375 17.40625 
L 51.59375 22.703125 
L 41.09375 22.703125 
L 41.09375 70 
L 35.40625 70 
z
" id="HelveticaNeue-Light-52"/>
      </defs>
      <g transform="translate(10.32 6.4325)scale(0.08 -0.08)">
       <use xlink:href="#HelveticaNeue-Light-48"/>
       <use x="55.599991" xlink:href="#HelveticaNeue-Light-46"/>
       <use x="83.399979" xlink:href="#HelveticaNeue-Light-48"/>
       <use x="138.999969" xlink:href="#HelveticaNeue-Light-56"/>
       <use x="194.59996" xlink:href="#HelveticaNeue-Light-52"/>
      </g>
     </g>
    </g>
    <g id="text_10">
     <!-- $S(q/k_{\rm F}=0.17;t)$ -->
     <defs>
      <path d="M 15.5 21.5 
Q 14.90625 16.703125 15.90625 13.34375 
Q 16.90625 10 19.203125 7.890625 
Q 21.5 5.796875 24.890625 4.84375 
Q 28.296875 3.90625 32.40625 3.90625 
Q 37.203125 3.90625 40.953125 5.09375 
Q 44.703125 6.296875 47.34375 8.34375 
Q 50 10.40625 51.640625 13.09375 
Q 53.296875 15.796875 53.90625 18.796875 
Q 54.796875 23 53.4375 25.59375 
Q 52.09375 28.203125 49.34375 29.84375 
Q 46.59375 31.5 42.890625 32.5 
Q 39.203125 33.5 35.296875 34.453125 
Q 31.40625 35.40625 27.703125 36.703125 
Q 24 38 21.390625 40.203125 
Q 18.796875 42.40625 17.640625 45.84375 
Q 16.5 49.296875 17.59375 54.59375 
Q 18.40625 58.296875 20.703125 61.796875 
Q 23 65.296875 26.59375 68 
Q 30.203125 70.703125 35.140625 72.296875 
Q 40.09375 73.90625 46.09375 73.90625 
Q 52.203125 73.90625 56.34375 72.203125 
Q 60.5 70.5 62.890625 67.546875 
Q 65.296875 64.59375 66 60.6875 
Q 66.703125 56.796875 65.703125 52.40625 
L 59.203125 52.40625 
Q 60.09375 56.5 59.25 59.5 
Q 58.40625 62.5 56.40625 64.390625 
Q 54.40625 66.296875 51.34375 67.1875 
Q 48.296875 68.09375 44.90625 68.09375 
Q 39.703125 68.09375 35.84375 66.640625 
Q 32 65.203125 29.390625 62.890625 
Q 26.796875 60.59375 25.390625 57.796875 
Q 24 55 23.90625 52.203125 
Q 23.703125 48.703125 25.453125 46.59375 
Q 27.203125 44.5 30.09375 43.140625 
Q 33 41.796875 36.703125 40.9375 
Q 40.40625 40.09375 44.203125 39.140625 
Q 48 38.203125 51.5 36.890625 
Q 55 35.59375 57.390625 33.390625 
Q 59.796875 31.203125 60.84375 27.75 
Q 61.90625 24.296875 60.796875 19.09375 
Q 58.703125 9.09375 50.59375 3.59375 
Q 42.5 -1.90625 30 -1.90625 
Q 24.40625 -1.90625 19.90625 -0.453125 
Q 15.40625 1 12.546875 3.953125 
Q 9.703125 6.90625 8.703125 11.25 
Q 7.703125 15.59375 8.90625 21.5 
z
" id="Helvetica-LightOblique-83"/>
      <path d="M 27.703125 73.90625 
Q 20.5 63.5 16.453125 51.640625 
Q 12.40625 39.796875 12.40625 27.09375 
Q 12.40625 14.59375 16.59375 2.890625 
Q 20.796875 -8.796875 27.703125 -19.09375 
L 22.59375 -19.09375 
Q 18.5 -13.40625 15.296875 -8.046875 
Q 12.09375 -2.703125 9.890625 2.84375 
Q 7.703125 8.40625 6.59375 14.453125 
Q 5.5 20.5 5.5 27.59375 
Q 5.5 34.5 6.640625 40.546875 
Q 7.796875 46.59375 10 52.1875 
Q 12.203125 57.796875 15.34375 63.140625 
Q 18.5 68.5 22.59375 73.90625 
z
" id="Helvetica-Light-40"/>
      <path d="M 52.703125 26.09375 
Q 53.59375 30.5 53.25 34.453125 
Q 52.90625 38.40625 51.296875 41.34375 
Q 49.703125 44.296875 46.84375 46.046875 
Q 44 47.796875 39.90625 47.796875 
Q 35.203125 47.796875 31.390625 45.9375 
Q 27.59375 44.09375 24.6875 40.890625 
Q 21.796875 37.703125 19.890625 33.453125 
Q 18 29.203125 17.203125 24.296875 
Q 16.203125 19.40625 16.75 15.65625 
Q 17.296875 11.90625 19.09375 9.296875 
Q 20.90625 6.703125 23.84375 5.34375 
Q 26.796875 4 30.59375 4 
Q 34.796875 4 38.4375 5.703125 
Q 42.09375 7.40625 44.9375 10.34375 
Q 47.796875 13.296875 49.75 17.34375 
Q 51.703125 21.40625 52.703125 26.09375 
z
M 58.203125 51.796875 
L 64.203125 51.796875 
L 48.90625 -20.40625 
L 42.90625 -20.40625 
L 49 8.296875 
Q 45.09375 3.5 39.5 1.046875 
Q 33.90625 -1.40625 28.40625 -1.40625 
Q 22.5 -1.40625 18.59375 0.84375 
Q 14.703125 3.09375 12.640625 6.84375 
Q 10.59375 10.59375 10.25 15.59375 
Q 9.90625 20.59375 11.09375 26 
Q 12.296875 31.703125 14.6875 36.703125 
Q 17.09375 41.703125 20.6875 45.34375 
Q 24.296875 49 29.140625 51.09375 
Q 34 53.203125 40.296875 53.203125 
Q 42.796875 53.203125 45.25 52.5 
Q 47.703125 51.796875 49.84375 50.5 
Q 52 49.203125 53.640625 47.203125 
Q 55.296875 45.203125 56.09375 42.703125 
L 56.296875 42.703125 
z
" id="Helvetica-LightOblique-113"/>
      <path d="M 6.796875 0 
L 22.09375 72 
L 28.09375 72 
L 18.59375 27.203125 
L 49.203125 51.796875 
L 57.40625 51.796875 
L 34 33.09375 
L 48.703125 0 
L 42 0 
L 28.703125 28.90625 
L 17 19.59375 
L 12.796875 0 
z
" id="Helvetica-LightOblique-107"/>
      <path d="M 7.40625 0 
L 7.40625 72 
L 53.796875 72 
L 53.796875 66.203125 
L 14.203125 66.203125 
L 14.203125 40.203125 
L 50.203125 40.203125 
L 50.203125 34.40625 
L 14.203125 34.40625 
L 14.203125 0 
z
" id="Helvetica-Light-70"/>
      <path d="M 58 31.796875 
L 8 31.796875 
L 8 37.796875 
L 58 37.796875 
z
M 58 12.40625 
L 8 12.40625 
L 8 18.40625 
L 58 18.40625 
z
" id="Helvetica-Light-61"/>
      <path d="M 10.203125 0 
L 10.203125 8.796875 
L 17.5 8.796875 
L 17.5 0 
z
" id="Helvetica-Light-46"/>
      <path d="M 30.203125 52.40625 
L 12 52.40625 
L 12 56.59375 
Q 16 56.90625 19.25 57.40625 
Q 22.5 57.90625 24.953125 59.296875 
Q 27.40625 60.703125 29.046875 63.34375 
Q 30.703125 66 31.5 70.5 
L 36.59375 70.5 
L 36.59375 0 
L 30.203125 0 
z
" id="Helvetica-Light-49"/>
      <path d="M 5.90625 69.796875 
L 50.796875 69.796875 
L 50.796875 63.796875 
Q 43.203125 55.203125 37.890625 46.140625 
Q 32.59375 37.09375 29.1875 28.546875 
Q 25.796875 20 24.140625 12.59375 
Q 22.5 5.203125 22.203125 0 
L 15.203125 0 
Q 15.703125 7.59375 18.25 16.140625 
Q 20.796875 24.703125 24.59375 33.09375 
Q 28.40625 41.5 33.203125 49.34375 
Q 38 57.203125 43.09375 63.40625 
L 5.90625 63.40625 
z
" id="Helvetica-Light-55"/>
      <path d="M 17.5 -3 
Q 17.5 -7.40625 15.453125 -10.046875 
Q 13.40625 -12.703125 10.203125 -13.703125 
L 10.203125 -10 
Q 11.40625 -9.203125 12.5 -7.796875 
Q 13.59375 -6.40625 13.59375 -3.40625 
L 13.59375 0 
L 10.203125 0 
L 10.203125 8.796875 
L 17.5 8.796875 
z
M 10.203125 40.40625 
L 10.203125 49.203125 
L 17.5 49.203125 
L 17.5 40.40625 
z
" id="Helvetica-Light-59"/>
      <path d="M 5.59375 -19.09375 
Q 12.796875 -8.703125 16.84375 3.140625 
Q 20.90625 15 20.90625 27.703125 
Q 20.90625 40.203125 16.703125 51.890625 
Q 12.5 63.59375 5.59375 73.90625 
L 10.703125 73.90625 
Q 14.796875 68.203125 18 62.84375 
Q 21.203125 57.5 23.34375 51.953125 
Q 25.5 46.40625 26.640625 40.34375 
Q 27.796875 34.296875 27.796875 27.203125 
Q 27.796875 20.296875 26.640625 14.25 
Q 25.5 8.203125 23.296875 2.59375 
Q 21.09375 -3 17.890625 -8.34375 
Q 14.703125 -13.703125 10.703125 -19.09375 
z
" id="Helvetica-Light-41"/>
     </defs>
     <g transform="translate(6.64 88.59521)rotate(-90)scale(0.08 -0.08)">
      <use transform="translate(0 0.09375)" xlink:href="#Helvetica-LightOblique-83"/>
      <use transform="translate(61.099991 0.09375)" xlink:href="#Helvetica-Light-40"/>
      <use transform="translate(94.399979 0.09375)" xlink:href="#Helvetica-LightOblique-113"/>
      <use transform="translate(155.499969 0.09375)" xlink:href="#Helvetica-Light-47"/>
      <use transform="translate(183.299957 0.09375)" xlink:href="#Helvetica-LightOblique-107"/>
      <use transform="translate(233.299942 -15.445312)scale(0.7)" xlink:href="#Helvetica-Light-70"/>
      <use transform="translate(291.469777 0.09375)" xlink:href="#Helvetica-Light-61"/>
      <use transform="translate(374.129759 0.09375)" xlink:href="#Helvetica-Light-48"/>
      <use transform="translate(429.72975 0.09375)" xlink:href="#Helvetica-Light-46"/>
      <use transform="translate(457.529738 0.09375)" xlink:href="#Helvetica-Light-49"/>
      <use transform="translate(513.129729 0.09375)" xlink:href="#Helvetica-Light-55"/>
      <use transform="translate(568.72972 0.09375)" xlink:href="#Helvetica-Light-59"/>
      <use transform="translate(613.189705 0.09375)" xlink:href="#Helvetica-LightOblique-116"/>
      <use transform="translate(640.989693 0.09375)" xlink:href="#Helvetica-Light-41"/>
     </g>
    </g>
   </g>
   <g id="line2d_10">
    <defs>
     <path d="M 0 1 
C 0.265203 1 0.51958 0.894634 0.707107 0.707107 
C 0.894634 0.51958 1 0.265203 1 0 
C 1 -0.265203 0.894634 -0.51958 0.707107 -0.707107 
C 0.51958 -0.894634 0.265203 -1 0 -1 
C -0.265203 -1 -0.51958 -0.894634 -0.707107 -0.707107 
C -0.894634 -0.51958 -1 -0.265203 -1 0 
C -1 0.265203 -0.894634 0.51958 -0.707107 0.707107 
C -0.51958 0.894634 -0.265203 1 0 1 
z
" id="ma023ceef6d" style="stroke:#5e4fa2;stroke-width:0.5;"/>
    </defs>
    <g clip-path="url(#p9a923c56c5)">
     <use style="fill-opacity:0;stroke:#5e4fa2;stroke-width:0.5;" x="35.33375" xlink:href="#ma023ceef6d" y="13.512363"/>
     <use style="fill-opacity:0;stroke:#5e4fa2;stroke-width:0.5;" x="36.146919" xlink:href="#ma023ceef6d" y="13.807254"/>
     <use style="fill-opacity:0;stroke:#5e4fa2;stroke-width:0.5;" x="36.960088" xlink:href="#ma023ceef6d" y="14.688597"/>
     <use style="fill-opacity:0;stroke:#5e4fa2;stroke-width:0.5;" x="37.773257" xlink:href="#ma023ceef6d" y="16.146636"/>
     <use style="fill-opacity:0;stroke:#5e4fa2;stroke-width:0.5;" x="38.586426" xlink:href="#ma023ceef6d" y="18.165772"/>
     <use style="fill-opacity:0;stroke:#5e4fa2;stroke-width:0.5;" x="39.399596" xlink:href="#ma023ceef6d" y="20.725209"/>
     <use style="fill-opacity:0;stroke:#5e4fa2;stroke-width:0.5;" x="40.212765" xlink:href="#ma023ceef6d" y="23.799305"/>
     <use style="fill-opacity:0;stroke:#5e4fa2;stroke-width:0.5;" x="41.025934" xlink:href="#ma023ceef6d" y="27.357399"/>
     <use style="fill-opacity:0;stroke:#5e4fa2;stroke-width:0.5;" x="41.839103" xlink:href="#ma023ceef6d" y="31.363116"/>
     <use style="fill-opacity:0;stroke:#5e4fa2;stroke-width:0.5;" x="42.652272" xlink:href="#ma023ceef6d" y="35.773384"/>
     <use style="fill-opacity:0;stroke:#5e4fa2;stroke-width:0.5;" x="43.465441" xlink:href="#ma023ceef6d" y="40.537622"/>
     <use style="fill-opacity:0;stroke:#5e4fa2;stroke-width:0.5;" x="44.27861" xlink:href="#ma023ceef6d" y="45.59755"/>
     <use style="fill-opacity:0;stroke:#5e4fa2;stroke-width:0.5;" x="45.091779" xlink:href="#ma023ceef6d" y="50.88795"/>
     <use style="fill-opacity:0;stroke:#5e4fa2;stroke-width:0.5;" x="45.904948" xlink:href="#ma023ceef6d" y="56.338442"/>
     <use style="fill-opacity:0;stroke:#5e4fa2;stroke-width:0.5;" x="46.718118" xlink:href="#ma023ceef6d" y="61.876004"/>
     <use style="fill-opacity:0;stroke:#5e4fa2;stroke-width:0.5;" x="47.531287" xlink:href="#ma023ceef6d" y="67.427768"/>
     <use style="fill-opacity:0;stroke:#5e4fa2;stroke-width:0.5;" x="48.344456" xlink:href="#ma023ceef6d" y="72.923496"/>
     <use style="fill-opacity:0;stroke:#5e4fa2;stroke-width:0.5;" x="49.157625" xlink:href="#ma023ceef6d" y="78.297279"/>
     <use style="fill-opacity:0;stroke:#5e4fa2;stroke-width:0.5;" x="49.970794" xlink:href="#ma023ceef6d" y="83.488195"/>
     <use style="fill-opacity:0;stroke:#5e4fa2;stroke-width:0.5;" x="50.783963" xlink:href="#ma023ceef6d" y="88.440001"/>
     <use style="fill-opacity:0;stroke:#5e4fa2;stroke-width:0.5;" x="51.597132" xlink:href="#ma023ceef6d" y="93.100182"/>
     <use style="fill-opacity:0;stroke:#5e4fa2;stroke-width:0.5;" x="52.410301" xlink:href="#ma023ceef6d" y="97.418834"/>
     <use style="fill-opacity:0;stroke:#5e4fa2;stroke-width:0.5;" x="53.22347" xlink:href="#ma023ceef6d" y="101.347865"/>
     <use style="fill-opacity:0;stroke:#5e4fa2;stroke-width:0.5;" x="54.03664" xlink:href="#ma023ceef6d" y="104.84087"/>
     <use style="fill-opacity:0;stroke:#5e4fa2;stroke-width:0.5;" x="54.849809" xlink:href="#ma023ceef6d" y="107.853772"/>
     <use style="fill-opacity:0;stroke:#5e4fa2;stroke-width:0.5;" x="55.662978" xlink:href="#ma023ceef6d" y="110.346154"/>
     <use style="fill-opacity:0;stroke:#5e4fa2;stroke-width:0.5;" x="56.476147" xlink:href="#ma023ceef6d" y="112.282953"/>
     <use style="fill-opacity:0;stroke:#5e4fa2;stroke-width:0.5;" x="57.289316" xlink:href="#ma023ceef6d" y="113.636166"/>
     <use style="fill-opacity:0;stroke:#5e4fa2;stroke-width:0.5;" x="58.102485" xlink:href="#ma023ceef6d" y="114.386218"/>
     <use style="fill-opacity:0;stroke:#5e4fa2;stroke-width:0.5;" x="58.915654" xlink:href="#ma023ceef6d" y="114.52275"/>
     <use style="fill-opacity:0;stroke:#5e4fa2;stroke-width:0.5;" x="59.728823" xlink:href="#ma023ceef6d" y="114.044757"/>
     <use style="fill-opacity:0;stroke:#5e4fa2;stroke-width:0.5;" x="60.541992" xlink:href="#ma023ceef6d" y="112.960137"/>
     <use style="fill-opacity:0;stroke:#5e4fa2;stroke-width:0.5;" x="61.355162" xlink:href="#ma023ceef6d" y="111.284845"/>
     <use style="fill-opacity:0;stroke:#5e4fa2;stroke-width:0.5;" x="62.168331" xlink:href="#ma023ceef6d" y="109.041856"/>
     <use style="fill-opacity:0;stroke:#5e4fa2;stroke-width:0.5;" x="62.9815" xlink:href="#ma023ceef6d" y="106.260174"/>
     <use style="fill-opacity:0;stroke:#5e4fa2;stroke-width:0.5;" x="63.794669" xlink:href="#ma023ceef6d" y="102.974033"/>
     <use style="fill-opacity:0;stroke:#5e4fa2;stroke-width:0.5;" x="64.607838" xlink:href="#ma023ceef6d" y="99.222359"/>
     <use style="fill-opacity:0;stroke:#5e4fa2;stroke-width:0.5;" x="65.421007" xlink:href="#ma023ceef6d" y="95.048482"/>
     <use style="fill-opacity:0;stroke:#5e4fa2;stroke-width:0.5;" x="66.234176" xlink:href="#ma023ceef6d" y="90.500005"/>
     <use style="fill-opacity:0;stroke:#5e4fa2;stroke-width:0.5;" x="67.047345" xlink:href="#ma023ceef6d" y="85.628734"/>
     <use style="fill-opacity:0;stroke:#5e4fa2;stroke-width:0.5;" x="67.860515" xlink:href="#ma023ceef6d" y="80.490521"/>
     <use style="fill-opacity:0;stroke:#5e4fa2;stroke-width:0.5;" x="68.673684" xlink:href="#ma023ceef6d" y="75.144959"/>
     <use style="fill-opacity:0;stroke:#5e4fa2;stroke-width:0.5;" x="69.486853" xlink:href="#ma023ceef6d" y="69.654849"/>
     <use style="fill-opacity:0;stroke:#5e4fa2;stroke-width:0.5;" x="70.300022" xlink:href="#ma023ceef6d" y="64.085475"/>
     <use style="fill-opacity:0;stroke:#5e4fa2;stroke-width:0.5;" x="71.113191" xlink:href="#ma023ceef6d" y="58.503687"/>
     <use style="fill-opacity:0;stroke:#5e4fa2;stroke-width:0.5;" x="71.92636" xlink:href="#ma023ceef6d" y="52.976891"/>
     <use style="fill-opacity:0;stroke:#5e4fa2;stroke-width:0.5;" x="72.739529" xlink:href="#ma023ceef6d" y="47.57199"/>
     <use style="fill-opacity:0;stroke:#5e4fa2;stroke-width:0.5;" x="73.552698" xlink:href="#ma023ceef6d" y="42.354344"/>
     <use style="fill-opacity:0;stroke:#5e4fa2;stroke-width:0.5;" x="74.365867" xlink:href="#ma023ceef6d" y="37.386799"/>
     <use style="fill-opacity:0;stroke:#5e4fa2;stroke-width:0.5;" x="75.179037" xlink:href="#ma023ceef6d" y="32.728795"/>
     <use style="fill-opacity:0;stroke:#5e4fa2;stroke-width:0.5;" x="75.992206" xlink:href="#ma023ceef6d" y="28.435584"/>
     <use style="fill-opacity:0;stroke:#5e4fa2;stroke-width:0.5;" x="76.805375" xlink:href="#ma023ceef6d" y="24.557554"/>
     <use style="fill-opacity:0;stroke:#5e4fa2;stroke-width:0.5;" x="77.618544" xlink:href="#ma023ceef6d" y="21.139667"/>
     <use style="fill-opacity:0;stroke:#5e4fa2;stroke-width:0.5;" x="78.431713" xlink:href="#ma023ceef6d" y="18.221026"/>
     <use style="fill-opacity:0;stroke:#5e4fa2;stroke-width:0.5;" x="79.244882" xlink:href="#ma023ceef6d" y="15.834557"/>
     <use style="fill-opacity:0;stroke:#5e4fa2;stroke-width:0.5;" x="80.058051" xlink:href="#ma023ceef6d" y="14.006813"/>
     <use style="fill-opacity:0;stroke:#5e4fa2;stroke-width:0.5;" x="80.87122" xlink:href="#ma023ceef6d" y="12.757874"/>
     <use style="fill-opacity:0;stroke:#5e4fa2;stroke-width:0.5;" x="81.684389" xlink:href="#ma023ceef6d" y="12.101309"/>
     <use style="fill-opacity:0;stroke:#5e4fa2;stroke-width:0.5;" x="82.497559" xlink:href="#ma023ceef6d" y="12.044159"/>
     <use style="fill-opacity:0;stroke:#5e4fa2;stroke-width:0.5;" x="83.310728" xlink:href="#ma023ceef6d" y="12.586911"/>
     <use style="fill-opacity:0;stroke:#5e4fa2;stroke-width:0.5;" x="84.123897" xlink:href="#ma023ceef6d" y="13.723416"/>
     <use style="fill-opacity:0;stroke:#5e4fa2;stroke-width:0.5;" x="84.937066" xlink:href="#ma023ceef6d" y="15.440775"/>
     <use style="fill-opacity:0;stroke:#5e4fa2;stroke-width:0.5;" x="85.750235" xlink:href="#ma023ceef6d" y="17.719208"/>
     <use style="fill-opacity:0;stroke:#5e4fa2;stroke-width:0.5;" x="86.563404" xlink:href="#ma023ceef6d" y="20.53196"/>
     <use style="fill-opacity:0;stroke:#5e4fa2;stroke-width:0.5;" x="87.376573" xlink:href="#ma023ceef6d" y="23.845339"/>
     <use style="fill-opacity:0;stroke:#5e4fa2;stroke-width:0.5;" x="88.189742" xlink:href="#ma023ceef6d" y="27.618945"/>
     <use style="fill-opacity:0;stroke:#5e4fa2;stroke-width:0.5;" x="89.002911" xlink:href="#ma023ceef6d" y="31.806162"/>
     <use style="fill-opacity:0;stroke:#5e4fa2;stroke-width:0.5;" x="89.816081" xlink:href="#ma023ceef6d" y="36.354926"/>
     <use style="fill-opacity:0;stroke:#5e4fa2;stroke-width:0.5;" x="90.62925" xlink:href="#ma023ceef6d" y="41.208754"/>
     <use style="fill-opacity:0;stroke:#5e4fa2;stroke-width:0.5;" x="91.442419" xlink:href="#ma023ceef6d" y="46.307934"/>
     <use style="fill-opacity:0;stroke:#5e4fa2;stroke-width:0.5;" x="92.255588" xlink:href="#ma023ceef6d" y="51.590769"/>
     <use style="fill-opacity:0;stroke:#5e4fa2;stroke-width:0.5;" x="93.068757" xlink:href="#ma023ceef6d" y="56.994719"/>
     <use style="fill-opacity:0;stroke:#5e4fa2;stroke-width:0.5;" x="93.881926" xlink:href="#ma023ceef6d" y="62.457311"/>
     <use style="fill-opacity:0;stroke:#5e4fa2;stroke-width:0.5;" x="94.695095" xlink:href="#ma023ceef6d" y="67.916721"/>
     <use style="fill-opacity:0;stroke:#5e4fa2;stroke-width:0.5;" x="95.508264" xlink:href="#ma023ceef6d" y="73.312009"/>
     <use style="fill-opacity:0;stroke:#5e4fa2;stroke-width:0.5;" x="96.321433" xlink:href="#ma023ceef6d" y="78.583058"/>
     <use style="fill-opacity:0;stroke:#5e4fa2;stroke-width:0.5;" x="97.134603" xlink:href="#ma023ceef6d" y="83.670367"/>
     <use style="fill-opacity:0;stroke:#5e4fa2;stroke-width:0.5;" x="97.947772" xlink:href="#ma023ceef6d" y="88.514875"/>
     <use style="fill-opacity:0;stroke:#5e4fa2;stroke-width:0.5;" x="98.760941" xlink:href="#ma023ceef6d" y="93.05802"/>
     <use style="fill-opacity:0;stroke:#5e4fa2;stroke-width:0.5;" x="99.57411" xlink:href="#ma023ceef6d" y="97.242229"/>
     <use style="fill-opacity:0;stroke:#5e4fa2;stroke-width:0.5;" x="100.387279" xlink:href="#ma023ceef6d" y="101.011886"/>
     <use style="fill-opacity:0;stroke:#5e4fa2;stroke-width:0.5;" x="101.200448" xlink:href="#ma023ceef6d" y="104.314796"/>
     <use style="fill-opacity:0;stroke:#5e4fa2;stroke-width:0.5;" x="102.013617" xlink:href="#ma023ceef6d" y="107.103975"/>
     <use style="fill-opacity:0;stroke:#5e4fa2;stroke-width:0.5;" x="102.826786" xlink:href="#ma023ceef6d" y="109.339545"/>
     <use style="fill-opacity:0;stroke:#5e4fa2;stroke-width:0.5;" x="103.639955" xlink:href="#ma023ceef6d" y="110.990414"/>
     <use style="fill-opacity:0;stroke:#5e4fa2;stroke-width:0.5;" x="104.453125" xlink:href="#ma023ceef6d" y="112.035486"/>
     <use style="fill-opacity:0;stroke:#5e4fa2;stroke-width:0.5;" x="105.266294" xlink:href="#ma023ceef6d" y="112.464165"/>
     <use style="fill-opacity:0;stroke:#5e4fa2;stroke-width:0.5;" x="106.079463" xlink:href="#ma023ceef6d" y="112.276091"/>
     <use style="fill-opacity:0;stroke:#5e4fa2;stroke-width:0.5;" x="106.892632" xlink:href="#ma023ceef6d" y="111.480172"/>
     <use style="fill-opacity:0;stroke:#5e4fa2;stroke-width:0.5;" x="107.705801" xlink:href="#ma023ceef6d" y="110.093118"/>
     <use style="fill-opacity:0;stroke:#5e4fa2;stroke-width:0.5;" x="108.51897" xlink:href="#ma023ceef6d" y="108.137795"/>
     <use style="fill-opacity:0;stroke:#5e4fa2;stroke-width:0.5;" x="109.332139" xlink:href="#ma023ceef6d" y="105.641714"/>
     <use style="fill-opacity:0;stroke:#5e4fa2;stroke-width:0.5;" x="110.145308" xlink:href="#ma023ceef6d" y="102.635943"/>
     <use style="fill-opacity:0;stroke:#5e4fa2;stroke-width:0.5;" x="110.958477" xlink:href="#ma023ceef6d" y="99.154585"/>
     <use style="fill-opacity:0;stroke:#5e4fa2;stroke-width:0.5;" x="111.771647" xlink:href="#ma023ceef6d" y="95.234849"/>
     <use style="fill-opacity:0;stroke:#5e4fa2;stroke-width:0.5;" x="112.584816" xlink:href="#ma023ceef6d" y="90.917569"/>
     <use style="fill-opacity:0;stroke:#5e4fa2;stroke-width:0.5;" x="113.397985" xlink:href="#ma023ceef6d" y="86.247927"/>
    </g>
   </g>
   <g id="patch_3">
    <path d="M 35.33375 119.910606 
L 35.33375 3.279815 
" style="fill:none;stroke:#000000;stroke-linecap:square;stroke-linejoin:miter;stroke-width:0.35;"/>
   </g>
   <g id="patch_4">
    <path d="M 112.983112 119.910606 
L 112.983112 3.279815 
" style="fill:none;stroke:#000000;stroke-linecap:square;stroke-linejoin:miter;stroke-width:0.35;"/>
   </g>
   <g id="patch_5">
    <path d="M 35.33375 119.910606 
L 112.983112 119.910606 
" style="fill:none;stroke:#000000;stroke-linecap:square;stroke-linejoin:miter;stroke-width:0.35;"/>
   </g>
   <g id="patch_6">
    <path d="M 35.33375 3.279815 
L 112.983112 3.279815 
" style="fill:none;stroke:#000000;stroke-linecap:square;stroke-linejoin:miter;stroke-width:0.35;"/>
   </g>
   <g id="text_11">
    <!-- N = 12 -->
    <defs>
     <path d="M 7.09375 71.40625 
L 7.09375 0 
L 13.90625 0 
L 13.90625 60.40625 
L 14.09375 60.40625 
L 55.703125 0 
L 63.296875 0 
L 63.296875 71.40625 
L 56.5 71.40625 
L 56.5 11 
L 56.296875 11 
L 14.703125 71.40625 
z
" id="HelveticaNeue-Light-78"/>
     <path id="HelveticaNeue-Light-32"/>
     <path d="M 55.203125 12.796875 
L 55.203125 18.09375 
L 4.90625 18.09375 
L 4.90625 12.796875 
z
M 55.203125 32.5 
L 55.203125 37.796875 
L 4.90625 37.796875 
L 4.90625 32.5 
z
" id="HelveticaNeue-Light-61"/>
    </defs>
    <g transform="translate(88.135316 118.744298)scale(0.08 -0.08)">
     <use xlink:href="#HelveticaNeue-Light-78"/>
     <use x="70.399994" xlink:href="#HelveticaNeue-Light-32"/>
     <use x="98.199982" xlink:href="#HelveticaNeue-Light-61"/>
     <use x="158.199966" xlink:href="#HelveticaNeue-Light-32"/>
     <use x="185.999954" xlink:href="#HelveticaNeue-Light-49"/>
     <use x="241.599945" xlink:href="#HelveticaNeue-Light-50"/>
    </g>
   </g>
   <g id="legend_1">
    <g id="line2d_11"/>
    <g id="line2d_12">
     <g>
      <use style="fill-opacity:0;stroke:#5e4fa2;stroke-width:0.5;" x="40.980763" xlink:href="#ma023ceef6d" y="7.422894"/>
     </g>
    </g>
    <g id="text_12">
     <!-- V = 0.150 -->
     <defs>
      <path d="M -0.59375 71.40625 
L 25.796875 0 
L 33.703125 0 
L 60.203125 71.40625 
L 53 71.40625 
L 30 7.5 
L 29.796875 7.5 
L 6.59375 71.40625 
z
" id="HelveticaNeue-Light-86"/>
      <path d="M 9.90625 20 
L 3.59375 20 
Q 3.703125 15 5.5 11 
Q 7.296875 7 10.34375 4.25 
Q 13.40625 1.5 17.546875 0.046875 
Q 21.703125 -1.40625 26.59375 -1.40625 
Q 31.59375 -1.40625 36.046875 0.34375 
Q 40.5 2.09375 43.796875 5.25 
Q 47.09375 8.40625 49 12.75 
Q 50.90625 17.09375 50.90625 22.203125 
Q 50.90625 27.5 49.25 31.953125 
Q 47.59375 36.40625 44.546875 39.59375 
Q 41.5 42.796875 37.140625 44.59375 
Q 32.796875 46.40625 27.40625 46.40625 
Q 23.203125 46.40625 19.203125 44.703125 
Q 15.203125 43 12.59375 39.90625 
L 12.40625 40.09375 
L 16.90625 63.296875 
L 47.5 63.296875 
L 47.5 69.09375 
L 12.5 69.09375 
L 5.703125 32.796875 
L 11.09375 32.796875 
Q 13.703125 36.796875 17.796875 38.9375 
Q 21.90625 41.09375 26.703125 41.09375 
Q 30.59375 41.09375 33.890625 39.6875 
Q 37.203125 38.296875 39.546875 35.84375 
Q 41.90625 33.40625 43.25 30.09375 
Q 44.59375 26.796875 44.59375 22.90625 
Q 44.59375 19.09375 43.390625 15.640625 
Q 42.203125 12.203125 39.890625 9.546875 
Q 37.59375 6.90625 34.390625 5.34375 
Q 31.203125 3.796875 27.09375 3.796875 
Q 23.5 3.796875 20.390625 4.9375 
Q 17.296875 6.09375 15 8.25 
Q 12.703125 10.40625 11.34375 13.40625 
Q 10 16.40625 9.90625 20 
z
" id="HelveticaNeue-Light-53"/>
     </defs>
     <g transform="translate(48.980763 10.222894)scale(0.08 -0.08)">
      <use xlink:href="#HelveticaNeue-Light-86"/>
      <use x="59.299988" xlink:href="#HelveticaNeue-Light-32"/>
      <use x="87.099976" xlink:href="#HelveticaNeue-Light-61"/>
      <use x="147.09996" xlink:href="#HelveticaNeue-Light-32"/>
      <use x="174.899948" xlink:href="#HelveticaNeue-Light-48"/>
      <use x="230.499939" xlink:href="#HelveticaNeue-Light-46"/>
      <use x="258.299927" xlink:href="#HelveticaNeue-Light-49"/>
      <use x="313.899918" xlink:href="#HelveticaNeue-Light-53"/>
      <use x="369.499908" xlink:href="#HelveticaNeue-Light-48"/>
     </g>
    </g>
    <g id="line2d_13">
     <path d="M 90.985763 7.422894 
L 98.985763 7.422894 
" style="fill:none;stroke:#5e4fa2;stroke-linecap:round;stroke-width:0.5;"/>
    </g>
    <g id="line2d_14"/>
    <g id="text_13">
     <!-- fit -->
     <defs>
      <path d="M 25.90625 46.296875 
L 25.90625 51.59375 
L 15.703125 51.59375 
L 15.703125 56.09375 
Q 15.703125 58.203125 15.796875 60 
Q 15.90625 61.796875 16.546875 63.140625 
Q 17.203125 64.5 18.59375 65.296875 
Q 20 66.09375 22.59375 66.09375 
Q 23.703125 66.09375 24.796875 65.9375 
Q 25.90625 65.796875 27.203125 65.59375 
L 27.203125 71 
Q 25.703125 71.203125 24.5 71.296875 
Q 23.296875 71.40625 21.90625 71.40625 
Q 18.09375 71.40625 15.640625 70.296875 
Q 13.203125 69.203125 11.796875 67.203125 
Q 10.40625 65.203125 9.90625 62.390625 
Q 9.40625 59.59375 9.40625 56.296875 
L 9.40625 51.59375 
L 0.59375 51.59375 
L 0.59375 46.296875 
L 9.40625 46.296875 
L 9.40625 0 
L 15.703125 0 
L 15.703125 46.296875 
z
" id="HelveticaNeue-Light-102"/>
      <path d="M 6.09375 71.40625 
L 6.09375 61.296875 
L 12.40625 61.296875 
L 12.40625 71.40625 
z
M 6.09375 51.59375 
L 6.09375 0 
L 12.40625 0 
L 12.40625 51.59375 
z
" id="HelveticaNeue-Light-105"/>
      <path d="M 16 51.59375 
L 16 67.09375 
L 9.703125 67.09375 
L 9.703125 51.59375 
L 0.703125 51.59375 
L 0.703125 46.296875 
L 9.703125 46.296875 
L 9.703125 11 
Q 9.59375 4.40625 12.09375 1.953125 
Q 14.59375 -0.5 20.90625 -0.5 
Q 22.296875 -0.5 23.6875 -0.390625 
Q 25.09375 -0.296875 26.5 -0.296875 
L 26.5 5 
Q 23.796875 4.703125 21.09375 4.703125 
Q 17.703125 4.90625 16.84375 6.65625 
Q 16 8.40625 16 11.5 
L 16 46.296875 
L 26.5 46.296875 
L 26.5 51.59375 
z
" id="HelveticaNeue-Light-116"/>
     </defs>
     <g transform="translate(102.985763 10.222894)scale(0.08 -0.08)">
      <use xlink:href="#HelveticaNeue-Light-102"/>
      <use x="25.899994" xlink:href="#HelveticaNeue-Light-105"/>
      <use x="44.399979" xlink:href="#HelveticaNeue-Light-116"/>
     </g>
    </g>
   </g>
  </g>
  <g id="axes_2">
   <g id="patch_7">
    <path d="M 153.749028 119.910606 
L 231.39839 119.910606 
L 231.39839 3.279815 
L 153.749028 3.279815 
z
" style="fill:none;"/>
   </g>
   <g id="matplotlib.axis_3">
    <g id="xtick_4">
     <g id="line2d_15">
      <g>
       <use style="stroke:#000000;stroke-width:0.35;" x="158.813116" xlink:href="#m04a5c1fdf8" y="119.910606"/>
      </g>
     </g>
     <g id="text_14">
      <!-- 0.8 -->
      <g transform="translate(153.253741 130.623106)scale(0.08 -0.08)">
       <use xlink:href="#HelveticaNeue-Light-48"/>
       <use x="55.599991" xlink:href="#HelveticaNeue-Light-46"/>
       <use x="83.399979" xlink:href="#HelveticaNeue-Light-56"/>
      </g>
     </g>
    </g>
    <g id="xtick_5">
     <g id="line2d_16">
      <g>
       <use style="stroke:#000000;stroke-width:0.35;" x="192.573709" xlink:href="#m04a5c1fdf8" y="119.910606"/>
      </g>
     </g>
     <g id="text_15">
      <!-- 1.0 -->
      <g transform="translate(187.014334 130.623106)scale(0.08 -0.08)">
       <use xlink:href="#HelveticaNeue-Light-49"/>
       <use x="55.599991" xlink:href="#HelveticaNeue-Light-46"/>
       <use x="83.399979" xlink:href="#HelveticaNeue-Light-48"/>
      </g>
     </g>
    </g>
    <g id="xtick_6">
     <g id="line2d_17">
      <g>
       <use style="stroke:#000000;stroke-width:0.35;" x="226.334301" xlink:href="#m04a5c1fdf8" y="119.910606"/>
      </g>
     </g>
     <g id="text_16">
      <!-- 1.2 -->
      <g transform="translate(220.774926 130.623106)scale(0.08 -0.08)">
       <use xlink:href="#HelveticaNeue-Light-49"/>
       <use x="55.599991" xlink:href="#HelveticaNeue-Light-46"/>
       <use x="83.399979" xlink:href="#HelveticaNeue-Light-50"/>
      </g>
     </g>
    </g>
    <g id="text_17">
     <!-- $K$ -->
     <defs>
      <path d="M 8.5 0 
L 23.796875 72 
L 30.59375 72 
L 22.703125 34.703125 
L 67.5 72 
L 75.203125 72 
L 40.703125 43.296875 
L 64.90625 0 
L 56.59375 0 
L 34.90625 39.09375 
L 21.203125 27.796875 
L 15.296875 0 
z
" id="Helvetica-LightOblique-75"/>
     </defs>
     <g transform="translate(189.893709 139.855606)scale(0.08 -0.08)">
      <use xlink:href="#Helvetica-LightOblique-75"/>
     </g>
    </g>
   </g>
   <g id="matplotlib.axis_4">
    <g id="ytick_6">
     <g id="line2d_18">
      <g>
       <use style="stroke:#000000;stroke-width:0.35;" x="153.749028" xlink:href="#m4a9f9d7105" y="119.910606"/>
      </g>
     </g>
     <g id="text_18">
      <!-- 0.0000 -->
      <g transform="translate(124.287778 122.766856)scale(0.08 -0.08)">
       <use xlink:href="#HelveticaNeue-Light-48"/>
       <use x="55.599991" xlink:href="#HelveticaNeue-Light-46"/>
       <use x="83.399979" xlink:href="#HelveticaNeue-Light-48"/>
       <use x="138.999969" xlink:href="#HelveticaNeue-Light-48"/>
       <use x="194.59996" xlink:href="#HelveticaNeue-Light-48"/>
       <use x="250.199951" xlink:href="#HelveticaNeue-Light-48"/>
      </g>
     </g>
    </g>
    <g id="ytick_7">
     <g id="line2d_19">
      <g>
       <use style="stroke:#000000;stroke-width:0.35;" x="153.749028" xlink:href="#m4a9f9d7105" y="102.759019"/>
      </g>
     </g>
     <g id="text_19">
      <!-- 0.0025 -->
      <g transform="translate(124.287778 105.615269)scale(0.08 -0.08)">
       <use xlink:href="#HelveticaNeue-Light-48"/>
       <use x="55.599991" xlink:href="#HelveticaNeue-Light-46"/>
       <use x="83.399979" xlink:href="#HelveticaNeue-Light-48"/>
       <use x="138.999969" xlink:href="#HelveticaNeue-Light-48"/>
       <use x="194.59996" xlink:href="#HelveticaNeue-Light-50"/>
       <use x="250.199951" xlink:href="#HelveticaNeue-Light-53"/>
      </g>
     </g>
    </g>
    <g id="ytick_8">
     <g id="line2d_20">
      <g>
       <use style="stroke:#000000;stroke-width:0.35;" x="153.749028" xlink:href="#m4a9f9d7105" y="85.607432"/>
      </g>
     </g>
     <g id="text_20">
      <!-- 0.0050 -->
      <g transform="translate(124.287778 88.463682)scale(0.08 -0.08)">
       <use xlink:href="#HelveticaNeue-Light-48"/>
       <use x="55.599991" xlink:href="#HelveticaNeue-Light-46"/>
       <use x="83.399979" xlink:href="#HelveticaNeue-Light-48"/>
       <use x="138.999969" xlink:href="#HelveticaNeue-Light-48"/>
       <use x="194.59996" xlink:href="#HelveticaNeue-Light-53"/>
       <use x="250.199951" xlink:href="#HelveticaNeue-Light-48"/>
      </g>
     </g>
    </g>
    <g id="ytick_9">
     <g id="line2d_21">
      <g>
       <use style="stroke:#000000;stroke-width:0.35;" x="153.749028" xlink:href="#m4a9f9d7105" y="68.455845"/>
      </g>
     </g>
     <g id="text_21">
      <!-- 0.0075 -->
      <g transform="translate(124.287778 71.312095)scale(0.08 -0.08)">
       <use xlink:href="#HelveticaNeue-Light-48"/>
       <use x="55.599991" xlink:href="#HelveticaNeue-Light-46"/>
       <use x="83.399979" xlink:href="#HelveticaNeue-Light-48"/>
       <use x="138.999969" xlink:href="#HelveticaNeue-Light-48"/>
       <use x="194.59996" xlink:href="#HelveticaNeue-Light-55"/>
       <use x="250.199951" xlink:href="#HelveticaNeue-Light-53"/>
      </g>
     </g>
    </g>
    <g id="ytick_10">
     <g id="line2d_22">
      <g>
       <use style="stroke:#000000;stroke-width:0.35;" x="153.749028" xlink:href="#m4a9f9d7105" y="51.304258"/>
      </g>
     </g>
     <g id="text_22">
      <!-- 0.0100 -->
      <g transform="translate(124.287778 54.160508)scale(0.08 -0.08)">
       <use xlink:href="#HelveticaNeue-Light-48"/>
       <use x="55.599991" xlink:href="#HelveticaNeue-Light-46"/>
       <use x="83.399979" xlink:href="#HelveticaNeue-Light-48"/>
       <use x="138.999969" xlink:href="#HelveticaNeue-Light-49"/>
       <use x="194.59996" xlink:href="#HelveticaNeue-Light-48"/>
       <use x="250.199951" xlink:href="#HelveticaNeue-Light-48"/>
      </g>
     </g>
    </g>
    <g id="ytick_11">
     <g id="line2d_23">
      <g>
       <use style="stroke:#000000;stroke-width:0.35;" x="153.749028" xlink:href="#m4a9f9d7105" y="34.152671"/>
      </g>
     </g>
     <g id="text_23">
      <!-- 0.0125 -->
      <g transform="translate(124.287778 37.008921)scale(0.08 -0.08)">
       <use xlink:href="#HelveticaNeue-Light-48"/>
       <use x="55.599991" xlink:href="#HelveticaNeue-Light-46"/>
       <use x="83.399979" xlink:href="#HelveticaNeue-Light-48"/>
       <use x="138.999969" xlink:href="#HelveticaNeue-Light-49"/>
       <use x="194.59996" xlink:href="#HelveticaNeue-Light-50"/>
       <use x="250.199951" xlink:href="#HelveticaNeue-Light-53"/>
      </g>
     </g>
    </g>
    <g id="ytick_12">
     <g id="line2d_24">
      <g>
       <use style="stroke:#000000;stroke-width:0.35;" x="153.749028" xlink:href="#m4a9f9d7105" y="17.001084"/>
      </g>
     </g>
     <g id="text_24">
      <!-- 0.0150 -->
      <g transform="translate(124.287778 19.857334)scale(0.08 -0.08)">
       <use xlink:href="#HelveticaNeue-Light-48"/>
       <use x="55.599991" xlink:href="#HelveticaNeue-Light-46"/>
       <use x="83.399979" xlink:href="#HelveticaNeue-Light-48"/>
       <use x="138.999969" xlink:href="#HelveticaNeue-Light-49"/>
       <use x="194.59996" xlink:href="#HelveticaNeue-Light-53"/>
       <use x="250.199951" xlink:href="#HelveticaNeue-Light-48"/>
      </g>
     </g>
    </g>
    <g id="text_25">
     <!-- $n_{\rm LL}$ -->
     <defs>
      <path d="M 13.203125 0 
L 7.203125 0 
L 18.203125 51.796875 
L 24.203125 51.796875 
L 22.703125 44.59375 
Q 27.09375 48.40625 31.4375 50.796875 
Q 35.796875 53.203125 41.203125 53.203125 
Q 46 53.203125 49.75 51.546875 
Q 53.5 49.90625 55.40625 45.796875 
Q 56.703125 43 56.453125 40.046875 
Q 56.203125 37.09375 55.5 33.90625 
L 48.296875 0 
L 42.296875 0 
L 49.5 33.796875 
Q 51 40.796875 48.640625 44.296875 
Q 46.296875 47.796875 39.09375 47.796875 
Q 36.296875 47.796875 33.796875 46.9375 
Q 31.296875 46.09375 29.140625 44.6875 
Q 27 43.296875 25.296875 41.5 
Q 23.59375 39.703125 22.5 37.703125 
Q 21.09375 35.203125 20.390625 32.890625 
Q 19.703125 30.59375 19.09375 27.90625 
z
" id="Helvetica-LightOblique-110"/>
      <path d="M 8.09375 0 
L 8.09375 72 
L 14.90625 72 
L 14.90625 5.796875 
L 53.5 5.796875 
L 53.5 0 
z
" id="Helvetica-Light-76"/>
     </defs>
     <g transform="translate(120.880278 67.07521)rotate(-90)scale(0.08 -0.08)">
      <use transform="translate(0 0.796875)" xlink:href="#Helvetica-LightOblique-110"/>
      <use transform="translate(55.599991 -14.742188)scale(0.7)" xlink:href="#Helvetica-Light-76"/>
      <use transform="translate(94.519984 -14.742188)scale(0.7)" xlink:href="#Helvetica-Light-76"/>
     </g>
    </g>
   </g>
   <g id="LineCollection_1">
    <path clip-path="url(#p78c03ff988)" d="M 224.932904 63.142725 
L 224.932904 61.437048 
" style="fill:none;stroke:#66c2a5;stroke-width:0.5;"/>
   </g>
   <g id="LineCollection_2">
    <path clip-path="url(#p78c03ff988)" d="M 207.209593 107.37624 
L 207.209593 106.93567 
" style="fill:none;stroke:#66c2a5;stroke-width:0.5;"/>
   </g>
   <g id="LineCollection_3">
    <path clip-path="url(#p78c03ff988)" d="M 201.045931 115.579164 
L 201.045931 115.411076 
" style="fill:none;stroke:#66c2a5;stroke-width:0.5;"/>
   </g>
   <g id="LineCollection_4">
    <path clip-path="url(#p78c03ff988)" d="M 184.874349 116.018601 
L 184.874349 115.783158 
" style="fill:none;stroke:#66c2a5;stroke-width:0.5;"/>
   </g>
   <g id="LineCollection_5">
    <path clip-path="url(#p78c03ff988)" d="M 180.100737 109.513961 
L 180.100737 108.760512 
" style="fill:none;stroke:#66c2a5;stroke-width:0.5;"/>
   </g>
   <g id="LineCollection_6">
    <path clip-path="url(#p78c03ff988)" d="M 158.826773 39.083717 
L 158.826773 29.542227 
" style="fill:none;stroke:#66c2a5;stroke-width:0.5;"/>
   </g>
   <g id="line2d_25">
    <path clip-path="url(#p78c03ff988)" d="M 153.314991 -1 
L 153.783129 2.314736 
L 154.635669 8.159775 
L 155.48821 13.817015 
L 156.34075 19.290079 
L 157.19329 24.582499 
L 158.04583 29.697713 
L 158.89837 34.639078 
L 159.750911 39.409863 
L 160.603451 44.013255 
L 161.455991 48.452365 
L 162.308531 52.730225 
L 163.161072 56.849795 
L 164.013612 60.81396 
L 164.866152 64.625539 
L 165.718692 68.287279 
L 166.571232 71.801865 
L 167.423773 75.171918 
L 168.276313 78.399994 
L 169.128853 81.488592 
L 169.981393 84.440152 
L 170.833933 87.257058 
L 171.686474 89.941636 
L 172.539014 92.496164 
L 173.391554 94.922863 
L 174.244094 97.223906 
L 175.096634 99.401417 
L 175.949175 101.457472 
L 176.801715 103.394102 
L 177.654255 105.213291 
L 178.506795 106.916979 
L 179.359336 108.507067 
L 180.211876 109.985411 
L 181.064416 111.353827 
L 181.916956 112.614095 
L 182.769496 113.767953 
L 183.622037 114.817104 
L 184.474577 115.763215 
L 185.327117 116.607916 
L 186.179657 117.352805 
L 187.032197 117.999446 
L 187.884738 118.549369 
L 188.737278 119.004074 
L 189.589818 119.365029 
L 190.442358 119.633674 
L 191.294898 119.811418 
L 192.147439 119.899641 
L 192.999979 119.899696 
L 193.852519 119.812909 
L 194.705059 119.64058 
L 195.5576 119.383982 
L 196.41014 119.044364 
L 197.26268 118.622949 
L 198.11522 118.120938 
L 198.96776 117.539506 
L 199.820301 116.879808 
L 200.672841 116.142976 
L 201.525381 115.330119 
L 202.377921 114.442325 
L 203.230461 113.480664 
L 204.083002 112.446182 
L 204.935542 111.339908 
L 205.788082 110.16285 
L 206.640622 108.915999 
L 207.493162 107.600326 
L 208.345703 106.216784 
L 209.198243 104.76631 
L 210.050783 103.249823 
L 210.903323 101.668225 
L 211.755864 100.022402 
L 212.608404 98.313224 
L 213.460944 96.541544 
L 214.313484 94.708203 
L 215.166024 92.814023 
L 216.018565 90.859815 
L 216.871105 88.846373 
L 217.723645 86.774479 
L 218.576185 84.644899 
L 219.428725 82.458388 
L 220.281266 80.215688 
L 221.133806 77.917525 
L 221.986346 75.564616 
L 222.838886 73.157664 
L 223.691426 70.697361 
L 224.543967 68.184386 
L 225.396507 65.619407 
L 226.249047 63.003081 
L 227.101587 60.336054 
L 227.954128 57.618962 
L 228.806668 54.852428 
L 229.659208 52.037066 
L 230.511748 49.173482 
L 231.364288 46.262269 
L 232.216829 43.304011 
L 233.069369 40.299283 
L 233.613676 38.351596 
" style="fill:none;stroke:#66c2a5;stroke-linecap:round;stroke-width:0.5;"/>
   </g>
   <g id="line2d_26">
    <defs>
     <path d="M 0 1.5 
C 0.397805 1.5 0.77937 1.341951 1.06066 1.06066 
C 1.341951 0.77937 1.5 0.397805 1.5 0 
C 1.5 -0.397805 1.341951 -0.77937 1.06066 -1.06066 
C 0.77937 -1.341951 0.397805 -1.5 0 -1.5 
C -0.397805 -1.5 -0.77937 -1.341951 -1.06066 -1.06066 
C -1.341951 -0.77937 -1.5 -0.397805 -1.5 0 
C -1.5 0.397805 -1.341951 0.77937 -1.06066 1.06066 
C -0.77937 1.341951 -0.397805 1.5 0 1.5 
z
" id="md3654322ee" style="stroke:#66c2a5;stroke-width:0.5;"/>
    </defs>
    <g clip-path="url(#p78c03ff988)">
     <use style="fill:#b2e0d1;stroke:#66c2a5;stroke-width:0.5;" x="224.932904" xlink:href="#md3654322ee" y="62.289887"/>
    </g>
   </g>
   <g id="line2d_27">
    <g clip-path="url(#p78c03ff988)">
     <use style="fill:#b2e0d1;stroke:#66c2a5;stroke-width:0.5;" x="207.209593" xlink:href="#md3654322ee" y="107.155955"/>
    </g>
   </g>
   <g id="line2d_28">
    <g clip-path="url(#p78c03ff988)">
     <use style="fill:#b2e0d1;stroke:#66c2a5;stroke-width:0.5;" x="201.045931" xlink:href="#md3654322ee" y="115.49512"/>
    </g>
   </g>
   <g id="line2d_29">
    <g clip-path="url(#p78c03ff988)">
     <use style="fill:#b2e0d1;stroke:#66c2a5;stroke-width:0.5;" x="184.874349" xlink:href="#md3654322ee" y="115.900879"/>
    </g>
   </g>
   <g id="line2d_30">
    <g clip-path="url(#p78c03ff988)">
     <use style="fill:#b2e0d1;stroke:#66c2a5;stroke-width:0.5;" x="180.100737" xlink:href="#md3654322ee" y="109.137236"/>
    </g>
   </g>
   <g id="line2d_31">
    <g clip-path="url(#p78c03ff988)">
     <use style="fill:#b2e0d1;stroke:#66c2a5;stroke-width:0.5;" x="158.826773" xlink:href="#md3654322ee" y="34.312972"/>
    </g>
   </g>
   <g id="patch_8">
    <path d="M 153.749028 119.910606 
L 153.749028 3.279815 
" style="fill:none;stroke:#000000;stroke-linecap:square;stroke-linejoin:miter;stroke-width:0.35;"/>
   </g>
   <g id="patch_9">
    <path d="M 231.39839 119.910606 
L 231.39839 3.279815 
" style="fill:none;stroke:#000000;stroke-linecap:square;stroke-linejoin:miter;stroke-width:0.35;"/>
   </g>
   <g id="patch_10">
    <path d="M 153.749028 119.910606 
L 231.39839 119.910606 
" style="fill:none;stroke:#000000;stroke-linecap:square;stroke-linejoin:miter;stroke-width:0.35;"/>
   </g>
   <g id="patch_11">
    <path d="M 153.749028 3.279815 
L 231.39839 3.279815 
" style="fill:none;stroke:#000000;stroke-linecap:square;stroke-linejoin:miter;stroke-width:0.35;"/>
   </g>
   <g id="legend_2">
    <g id="line2d_32">
     <path d="M 164.713964 40.92271 
L 172.713964 40.92271 
" style="fill:none;stroke:#66c2a5;stroke-linecap:round;stroke-width:0.5;"/>
    </g>
    <g id="line2d_33"/>
    <g id="text_26">
     <!-- $\frac{1}{4}(K+K^{-1}-2)$ -->
     <defs>
      <path d="M 35.796875 17.40625 
L 3.59375 17.40625 
L 3.59375 22.90625 
L 36.40625 69.796875 
L 42.203125 69.796875 
L 42.203125 22.796875 
L 52 22.796875 
L 52 17.40625 
L 42.203125 17.40625 
L 42.203125 0 
L 35.796875 0 
z
M 9.90625 22.796875 
L 35.796875 22.796875 
L 35.796875 60.203125 
z
" id="Helvetica-Light-52"/>
      <path d="M 30 50 
L 36 50 
L 36 28 
L 58 28 
L 58 22 
L 36 22 
L 36 0 
L 30 0 
L 30 22 
L 8 22 
L 8 28 
L 30 28 
z
" id="Helvetica-Light-43"/>
      <path d="M 8 28 
L 58 28 
L 58 22 
L 8 22 
z
" id="Helvetica-Light-8722"/>
      <path d="M 6.90625 47.40625 
Q 6.90625 52.59375 8.5 56.84375 
Q 10.09375 61.09375 13.09375 64.140625 
Q 16.09375 67.203125 20.34375 68.84375 
Q 24.59375 70.5 29.796875 70.5 
Q 35.09375 70.5 39.140625 68.953125 
Q 43.203125 67.40625 45.953125 64.796875 
Q 48.703125 62.203125 50.09375 58.59375 
Q 51.5 55 51.5 51 
Q 51.5 46.296875 49.953125 42.6875 
Q 48.40625 39.09375 45.84375 36.296875 
Q 43.296875 33.5 40.046875 31.296875 
Q 36.796875 29.09375 33.390625 27.140625 
Q 30 25.203125 26.703125 23.390625 
Q 23.40625 21.59375 20.796875 19.59375 
Q 19.09375 18.296875 17.5 16.84375 
Q 15.90625 15.40625 14.59375 13.703125 
Q 13.296875 12 12.5 9.953125 
Q 11.703125 7.90625 11.59375 5.40625 
L 50.90625 5.40625 
L 50.90625 0 
L 4.796875 0 
Q 4.90625 5.09375 5.90625 9.1875 
Q 6.90625 13.296875 10.296875 17.203125 
Q 14 21.40625 17.953125 24.40625 
Q 21.90625 27.40625 25.703125 29.75 
Q 29.5 32.09375 32.890625 34.046875 
Q 36.296875 36 38.890625 38.296875 
Q 41.5 40.59375 43 43.5 
Q 44.5 46.40625 44.5 50.59375 
Q 44.5 54 43.296875 56.703125 
Q 42.09375 59.40625 40 61.296875 
Q 37.90625 63.203125 35.09375 64.140625 
Q 32.296875 65.09375 29 65.09375 
Q 25.5 65.09375 22.640625 63.640625 
Q 19.796875 62.203125 17.75 59.796875 
Q 15.703125 57.40625 14.59375 54.203125 
Q 13.5 51 13.703125 47.40625 
z
" id="Helvetica-Light-50"/>
     </defs>
     <g transform="translate(176.713964 43.72271)scale(0.08 -0.08)">
      <use transform="translate(0 37.65)scale(0.7)" xlink:href="#Helvetica-Light-49"/>
      <use transform="translate(0 -42.457812)scale(0.7)" xlink:href="#Helvetica-Light-52"/>
      <use transform="translate(51.419994 0.048438)" xlink:href="#Helvetica-Light-40"/>
      <use transform="translate(84.719981 0.048438)" xlink:href="#Helvetica-LightOblique-75"/>
      <use transform="translate(168.079976 0.048438)" xlink:href="#Helvetica-Light-43"/>
      <use transform="translate(250.739958 0.048438)" xlink:href="#Helvetica-LightOblique-75"/>
      <use transform="translate(324.498471 36.30625)scale(0.7)" xlink:href="#Helvetica-Light-8722"/>
      <use transform="translate(370.69846 36.30625)scale(0.7)" xlink:href="#Helvetica-Light-49"/>
      <use transform="translate(428.868295 0.048438)" xlink:href="#Helvetica-Light-8722"/>
      <use transform="translate(511.528277 0.048438)" xlink:href="#Helvetica-Light-50"/>
      <use transform="translate(567.128268 0.048438)" xlink:href="#Helvetica-Light-41"/>
      <path d="M 0 12.65 
L 0 18.9 
L 38.919994 18.9 
L 38.919994 12.65 
L 0 12.65 
z
"/>
     </g>
    </g>
    <g id="LineCollection_7">
     <path d="M 168.713964 58.07521 
L 168.713964 50.07521 
" style="fill:none;stroke:#66c2a5;stroke-width:0.5;"/>
    </g>
    <g id="line2d_34"/>
    <g id="line2d_35">
     <g>
      <use style="fill:#b2e0d1;stroke:#66c2a5;stroke-width:0.5;" x="168.713964" xlink:href="#md3654322ee" y="54.07521"/>
     </g>
    </g>
    <g id="text_27">
     <!-- from fit -->
     <defs>
      <path d="M 6 51.59375 
L 6 0 
L 12.296875 0 
L 12.296875 27.5 
Q 12.296875 31.59375 13.6875 35.046875 
Q 15.09375 38.5 17.640625 41 
Q 20.203125 43.5 23.703125 44.84375 
Q 27.203125 46.203125 31.5 46 
L 31.5 52.296875 
Q 24.5 52.59375 19.453125 49.1875 
Q 14.40625 45.796875 12 39.5 
L 11.796875 39.5 
L 11.796875 51.59375 
z
" id="HelveticaNeue-Light-114"/>
      <path d="M 27.796875 47.796875 
Q 32.296875 47.796875 35.6875 45.890625 
Q 39.09375 44 41.34375 40.890625 
Q 43.59375 37.796875 44.75 33.84375 
Q 45.90625 29.90625 45.90625 25.796875 
Q 45.90625 21.703125 44.75 17.75 
Q 43.59375 13.796875 41.34375 10.6875 
Q 39.09375 7.59375 35.6875 5.6875 
Q 32.296875 3.796875 27.796875 3.796875 
Q 23.296875 3.796875 19.890625 5.6875 
Q 16.5 7.59375 14.25 10.6875 
Q 12 13.796875 10.84375 17.75 
Q 9.703125 21.703125 9.703125 25.796875 
Q 9.703125 29.90625 10.84375 33.84375 
Q 12 37.796875 14.25 40.890625 
Q 16.5 44 19.890625 45.890625 
Q 23.296875 47.796875 27.796875 47.796875 
z
M 27.796875 53.09375 
Q 21.90625 53.09375 17.34375 50.890625 
Q 12.796875 48.703125 9.6875 45 
Q 6.59375 41.296875 5 36.34375 
Q 3.40625 31.40625 3.40625 25.796875 
Q 3.40625 20.203125 5 15.25 
Q 6.59375 10.296875 9.6875 6.59375 
Q 12.796875 2.90625 17.34375 0.75 
Q 21.90625 -1.40625 27.796875 -1.40625 
Q 33.703125 -1.40625 38.25 0.75 
Q 42.796875 2.90625 45.890625 6.59375 
Q 49 10.296875 50.59375 15.25 
Q 52.203125 20.203125 52.203125 25.796875 
Q 52.203125 31.40625 50.59375 36.34375 
Q 49 41.296875 45.890625 45 
Q 42.796875 48.703125 38.25 50.890625 
Q 33.703125 53.09375 27.796875 53.09375 
z
" id="HelveticaNeue-Light-111"/>
      <path d="M 6 51.59375 
L 6 0 
L 12.296875 0 
L 12.296875 28.796875 
Q 12.296875 32.90625 13.1875 36.34375 
Q 14.09375 39.796875 15.9375 42.34375 
Q 17.796875 44.90625 20.75 46.34375 
Q 23.703125 47.796875 27.703125 47.796875 
Q 30.703125 47.796875 32.796875 46.796875 
Q 34.90625 45.796875 36.15625 44.046875 
Q 37.40625 42.296875 37.953125 39.9375 
Q 38.5 37.59375 38.5 35 
L 38.5 0 
L 44.796875 0 
L 44.796875 29.203125 
Q 44.796875 32.796875 45.4375 36.140625 
Q 46.09375 39.5 47.6875 42.09375 
Q 49.296875 44.703125 52 46.25 
Q 54.703125 47.796875 58.796875 47.796875 
Q 65.59375 47.796875 68.296875 44.4375 
Q 71 41.09375 71 34.703125 
L 71 0 
L 77.296875 0 
L 77.296875 35 
Q 77.296875 53.09375 60.203125 53.09375 
Q 55.09375 53.09375 50.59375 50.59375 
Q 46.09375 48.09375 43.796875 43 
Q 42.40625 48.09375 38.25 50.59375 
Q 34.09375 53.09375 29 53.09375 
Q 22.703125 53.09375 18.640625 50.390625 
Q 14.59375 47.703125 12.09375 42.90625 
L 11.796875 42.90625 
L 11.796875 51.59375 
z
" id="HelveticaNeue-Light-109"/>
     </defs>
     <g transform="translate(176.713964 56.87521)scale(0.08 -0.08)">
      <use xlink:href="#HelveticaNeue-Light-102"/>
      <use x="25.899994" xlink:href="#HelveticaNeue-Light-114"/>
      <use x="57.384354" xlink:href="#HelveticaNeue-Light-111"/>
      <use x="112.984344" xlink:href="#HelveticaNeue-Light-109"/>
      <use x="196.284332" xlink:href="#HelveticaNeue-Light-32"/>
      <use x="224.08432" xlink:href="#HelveticaNeue-Light-102"/>
      <use x="249.984314" xlink:href="#HelveticaNeue-Light-105"/>
      <use x="268.484299" xlink:href="#HelveticaNeue-Light-116"/>
     </g>
    </g>
   </g>
  </g>
 </g>
 <defs>
  <clipPath id="p9a923c56c5">
   <rect height="116.630791" width="77.649362" x="35.33375" y="3.279815"/>
  </clipPath>
  <clipPath id="p78c03ff988">
   <rect height="116.630791" width="77.649362" x="153.749028" y="3.279815"/>
  </clipPath>
 </defs>
</svg>
