<?xml version="1.0" encoding="utf-8" standalone="no"?>
<!DOCTYPE svg PUBLIC "-//W3C//DTD SVG 1.1//EN"
  "http://www.w3.org/Graphics/SVG/1.1/DTD/svg11.dtd">
<!-- Created with matplotlib (https://matplotlib.org/) -->
<svg height="141.985212pt" version="1.1" viewBox="0 0 232.613676 141.985212" width="232.613676pt" xmlns="http://www.w3.org/2000/svg" xmlns:xlink="http://www.w3.org/1999/xlink">
 <defs>
  <style type="text/css">
*{stroke-linecap:butt;stroke-linejoin:round;}
  </style>
 </defs>
 <g id="figure_1">
  <g id="patch_1">
   <path d="M 0 141.985212 
L 232.613676 141.985212 
L 232.613676 0 
L 0 0 
z
" style="fill:none;"/>
  </g>
  <g id="axes_1">
   <g id="patch_2">
    <path d="M 35.33375 119.480212 
L 112.983112 119.480212 
L 112.983112 2.849421 
L 35.33375 2.849421 
z
" style="fill:none;"/>
   </g>
   <g id="line2d_1">
    <path clip-path="url(#p4fdd22fc8a)" d="M 35.33375 13.729675 
L 36.146919 13.984837 
L 36.960088 14.74773 
L 37.773257 16.010604 
L 38.586426 17.760625 
L 39.399596 19.980012 
L 40.212765 22.646215 
L 41.025934 25.732142 
L 41.839103 29.206439 
L 42.652272 33.033802 
L 43.465441 37.175343 
L 44.27861 41.588981 
L 45.091779 46.229869 
L 45.904948 51.050851 
L 46.718118 56.002943 
L 47.531287 61.035827 
L 48.344456 66.098365 
L 49.157625 71.139116 
L 49.970794 76.106864 
L 50.783963 80.951131 
L 51.597132 85.622695 
L 52.410301 90.074089 
L 53.22347 94.260084 
L 54.03664 98.138146 
L 54.849809 101.668872 
L 55.662978 104.816384 
L 56.476147 107.548704 
L 57.289316 109.838066 
L 58.102485 111.661211 
L 58.915654 112.999613 
L 59.728823 113.839672 
L 60.541992 114.172854 
L 61.355162 113.995772 
L 62.168331 113.310227 
L 62.9815 112.123183 
L 63.794669 110.446702 
L 64.607838 108.297819 
L 65.421007 105.698367 
L 66.234176 102.674761 
L 67.047345 99.257721 
L 67.860515 95.481969 
L 68.673684 91.385868 
L 69.486853 87.011039 
L 70.300022 82.401934 
L 71.113191 77.605384 
L 71.92636 72.670128 
L 72.739529 67.646311 
L 73.552698 62.58498 
L 74.365867 57.537562 
L 75.179037 52.555342 
L 75.992206 47.688946 
L 76.805375 42.987818 
L 77.618544 38.499728 
L 78.431713 34.270277 
L 79.244882 30.34244 
L 80.058051 26.756127 
L 80.87122 23.547779 
L 81.684389 20.749994 
L 82.497559 18.391202 
L 83.310728 16.495368 
L 84.123897 15.081757 
L 84.937066 14.164732 
L 85.750235 13.75361 
L 86.563404 13.852569 
L 87.376573 14.460603 
L 88.189742 15.571535 
L 89.002911 17.174076 
L 89.816081 19.251943 
L 90.62925 21.784023 
L 91.442419 24.744588 
L 92.255588 28.103557 
L 93.068757 31.826799 
L 93.881926 35.876483 
L 94.695095 40.211461 
L 95.508264 44.787685 
L 96.321433 49.558658 
L 97.134603 54.475903 
L 97.947772 59.489456 
L 98.760941 64.548374 
L 99.57411 69.601257 
L 100.387279 74.59676 
L 101.200448 79.484127 
L 102.013617 84.213698 
L 102.826786 88.737415 
L 103.639955 93.009315 
L 104.453125 96.98599 
L 105.266294 100.627036 
L 106.079463 103.895455 
L 106.892632 106.758038 
L 107.705801 109.185698 
L 108.51897 111.153769 
L 109.332139 112.642253 
L 110.145308 113.636025 
L 110.958477 114.124989 
L 111.771647 114.104177 
L 112.584816 113.573798 
L 113.397985 112.539244 
" style="fill:none;stroke:#5e4fa2;stroke-linecap:round;stroke-width:0.5;"/>
   </g>
   <g id="matplotlib.axis_1">
    <g id="xtick_1">
     <g id="line2d_2">
      <defs>
       <path d="M 0 0 
L 0 2 
" id="m0a8dcb4bc7" style="stroke:#000000;stroke-width:0.35;"/>
      </defs>
      <g>
       <use style="stroke:#000000;stroke-width:0.35;" x="35.33375" xlink:href="#m0a8dcb4bc7" y="119.480212"/>
      </g>
     </g>
     <g id="text_1">
      <!-- 0 -->
      <defs>
       <path d="M 45.203125 34.703125 
Q 45.203125 40.40625 44.546875 45.84375 
Q 43.90625 51.296875 42 55.59375 
Q 40.09375 59.90625 36.640625 62.5 
Q 33.203125 65.09375 27.59375 65.09375 
Q 22.296875 65.09375 18.9375 62.4375 
Q 15.59375 59.796875 13.6875 55.390625 
Q 11.796875 51 11.046875 45.390625 
Q 10.296875 39.796875 10.296875 34 
Q 10.296875 27.203125 11.140625 21.640625 
Q 12 16.09375 14 12.1875 
Q 16 8.296875 19.34375 6.140625 
Q 22.703125 4 27.796875 4 
Q 33.5 4 36.953125 6.796875 
Q 40.40625 9.59375 42.203125 14 
Q 44 18.40625 44.59375 23.90625 
Q 45.203125 29.40625 45.203125 34.703125 
z
M 27.796875 70.5 
Q 33 70.5 36.796875 68.953125 
Q 40.59375 67.40625 43.25 64.703125 
Q 45.90625 62 47.546875 58.390625 
Q 49.203125 54.796875 50.09375 50.75 
Q 51 46.703125 51.296875 42.390625 
Q 51.59375 38.09375 51.59375 34 
Q 51.59375 27 50.59375 20.59375 
Q 49.59375 14.203125 46.9375 9.296875 
Q 44.296875 4.40625 39.6875 1.5 
Q 35.09375 -1.40625 27.796875 -1.40625 
Q 20.5 -1.40625 15.84375 1.5 
Q 11.203125 4.40625 8.546875 9.34375 
Q 5.90625 14.296875 4.90625 20.84375 
Q 3.90625 27.40625 3.90625 34.703125 
Q 3.90625 41.40625 4.796875 47.796875 
Q 5.703125 54.203125 8.25 59.25 
Q 10.796875 64.296875 15.5 67.390625 
Q 20.203125 70.5 27.796875 70.5 
z
" id="Helvetica-Light-48"/>
      </defs>
      <g transform="translate(33.11 130.240212)scale(0.08 -0.08)">
       <use xlink:href="#Helvetica-Light-48"/>
      </g>
     </g>
    </g>
    <g id="xtick_2">
     <g id="line2d_3">
      <g>
       <use style="stroke:#000000;stroke-width:0.35;" x="74.158431" xlink:href="#m0a8dcb4bc7" y="119.480212"/>
      </g>
     </g>
     <g id="text_2">
      <!-- 10 -->
      <defs>
       <path d="M 30.203125 52.40625 
L 12 52.40625 
L 12 56.59375 
Q 16 56.90625 19.25 57.40625 
Q 22.5 57.90625 24.953125 59.296875 
Q 27.40625 60.703125 29.046875 63.34375 
Q 30.703125 66 31.5 70.5 
L 36.59375 70.5 
L 36.59375 0 
L 30.203125 0 
z
" id="Helvetica-Light-49"/>
      </defs>
      <g transform="translate(69.710931 130.240212)scale(0.08 -0.08)">
       <use xlink:href="#Helvetica-Light-49"/>
       <use x="55.599991" xlink:href="#Helvetica-Light-48"/>
      </g>
     </g>
    </g>
    <g id="xtick_3">
     <g id="line2d_4">
      <g>
       <use style="stroke:#000000;stroke-width:0.35;" x="112.983112" xlink:href="#m0a8dcb4bc7" y="119.480212"/>
      </g>
     </g>
     <g id="text_3">
      <!-- 20 -->
      <defs>
       <path d="M 6.90625 47.40625 
Q 6.90625 52.59375 8.5 56.84375 
Q 10.09375 61.09375 13.09375 64.140625 
Q 16.09375 67.203125 20.34375 68.84375 
Q 24.59375 70.5 29.796875 70.5 
Q 35.09375 70.5 39.140625 68.953125 
Q 43.203125 67.40625 45.953125 64.796875 
Q 48.703125 62.203125 50.09375 58.59375 
Q 51.5 55 51.5 51 
Q 51.5 46.296875 49.953125 42.6875 
Q 48.40625 39.09375 45.84375 36.296875 
Q 43.296875 33.5 40.046875 31.296875 
Q 36.796875 29.09375 33.390625 27.140625 
Q 30 25.203125 26.703125 23.390625 
Q 23.40625 21.59375 20.796875 19.59375 
Q 19.09375 18.296875 17.5 16.84375 
Q 15.90625 15.40625 14.59375 13.703125 
Q 13.296875 12 12.5 9.953125 
Q 11.703125 7.90625 11.59375 5.40625 
L 50.90625 5.40625 
L 50.90625 0 
L 4.796875 0 
Q 4.90625 5.09375 5.90625 9.1875 
Q 6.90625 13.296875 10.296875 17.203125 
Q 14 21.40625 17.953125 24.40625 
Q 21.90625 27.40625 25.703125 29.75 
Q 29.5 32.09375 32.890625 34.046875 
Q 36.296875 36 38.890625 38.296875 
Q 41.5 40.59375 43 43.5 
Q 44.5 46.40625 44.5 50.59375 
Q 44.5 54 43.296875 56.703125 
Q 42.09375 59.40625 40 61.296875 
Q 37.90625 63.203125 35.09375 64.140625 
Q 32.296875 65.09375 29 65.09375 
Q 25.5 65.09375 22.640625 63.640625 
Q 19.796875 62.203125 17.75 59.796875 
Q 15.703125 57.40625 14.59375 54.203125 
Q 13.5 51 13.703125 47.40625 
z
" id="Helvetica-Light-50"/>
      </defs>
      <g transform="translate(108.535612 130.240212)scale(0.08 -0.08)">
       <use xlink:href="#Helvetica-Light-50"/>
       <use x="55.599991" xlink:href="#Helvetica-Light-48"/>
      </g>
     </g>
    </g>
    <g id="text_4">
     <!-- $vt/a_0$ -->
     <defs>
      <path d="M 12.703125 51.796875 
L 19.203125 51.796875 
L 26.59375 7.40625 
L 52.796875 51.796875 
L 59.296875 51.796875 
L 28.203125 0 
L 21.5 0 
z
" id="Helvetica-LightOblique-118"/>
      <path d="M 25.40625 -0.203125 
Q 24.296875 -0.40625 22.34375 -0.90625 
Q 20.40625 -1.40625 18.203125 -1.40625 
Q 13.703125 -1.40625 11.84375 0.84375 
Q 10 3.09375 11.203125 8.90625 
L 19.203125 46.796875 
L 11.90625 46.796875 
L 13 51.796875 
L 20.296875 51.796875 
L 23.40625 66.203125 
L 29.40625 66.203125 
L 26.296875 51.796875 
L 36 51.796875 
L 34.90625 46.796875 
L 25.203125 46.796875 
L 17.703125 11.296875 
Q 17.296875 9.40625 17.09375 8 
Q 16.90625 6.59375 17.25 5.6875 
Q 17.59375 4.796875 18.546875 4.390625 
Q 19.5 4 21.40625 4 
Q 22.59375 4 23.84375 4.203125 
Q 25.09375 4.40625 26.40625 4.703125 
z
" id="Helvetica-LightOblique-116"/>
      <path d="M 5.296875 -9 
L -0.296875 -9 
L 23.203125 73.90625 
L 28.796875 73.90625 
z
" id="Helvetica-Light-47"/>
      <path d="M 46.90625 27.203125 
Q 42.703125 25.59375 38.75 25.09375 
Q 34.796875 24.59375 30.796875 24.296875 
Q 23.796875 23.796875 19.34375 21.1875 
Q 14.90625 18.59375 13.796875 13.296875 
Q 13.296875 10.90625 13.890625 9.15625 
Q 14.5 7.40625 15.84375 6.25 
Q 17.203125 5.09375 19.09375 4.546875 
Q 21 4 23.09375 4 
Q 26.703125 4 30.25 4.890625 
Q 33.796875 5.796875 36.84375 7.640625 
Q 39.90625 9.5 42.09375 12.34375 
Q 44.296875 15.203125 45.203125 19.09375 
z
M 37.40625 30.203125 
Q 39.09375 30.40625 41.546875 30.796875 
Q 44 31.203125 45.703125 31.90625 
Q 47.40625 32.59375 48.046875 34.25 
Q 48.703125 35.90625 49 37.296875 
Q 49.5 39.59375 49.203125 41.5 
Q 48.90625 43.40625 47.65625 44.796875 
Q 46.40625 46.203125 44.15625 47 
Q 41.90625 47.796875 38.40625 47.796875 
Q 32.203125 47.796875 27.59375 45.296875 
Q 23 42.796875 20.796875 36.09375 
L 14.703125 36.09375 
Q 16 40.703125 18.453125 43.953125 
Q 20.90625 47.203125 24.203125 49.25 
Q 27.5 51.296875 31.453125 52.25 
Q 35.40625 53.203125 39.59375 53.203125 
Q 43.5 53.203125 46.75 52.34375 
Q 50 51.5 52.140625 49.640625 
Q 54.296875 47.796875 55.09375 44.6875 
Q 55.90625 41.59375 55 37.09375 
L 49 8.90625 
Q 48.203125 5.40625 49.25 4.453125 
Q 50.296875 3.5 54.40625 4.90625 
L 53.40625 0.203125 
Q 52.703125 0 51.25 -0.390625 
Q 49.796875 -0.796875 48.5 -0.796875 
Q 47.203125 -0.796875 45.90625 -0.5 
Q 43 0 42.59375 2.25 
Q 42.203125 4.5 42.703125 7.203125 
Q 38 3 32.640625 0.796875 
Q 27.296875 -1.40625 21.59375 -1.40625 
Q 18.203125 -1.40625 15.25 -0.5 
Q 12.296875 0.40625 10.296875 2.296875 
Q 8.296875 4.203125 7.5 6.953125 
Q 6.703125 9.703125 7.5 13.5 
Q 10.203125 26.703125 28.90625 29.09375 
z
" id="Helvetica-LightOblique-97"/>
     </defs>
     <g transform="translate(66.038431 139.632712)scale(0.08 -0.08)">
      <use transform="translate(0 0.09375)" xlink:href="#Helvetica-LightOblique-118"/>
      <use transform="translate(49.999985 0.09375)" xlink:href="#Helvetica-LightOblique-116"/>
      <use transform="translate(77.799973 0.09375)" xlink:href="#Helvetica-Light-47"/>
      <use transform="translate(105.59996 0.09375)" xlink:href="#Helvetica-LightOblique-97"/>
      <use transform="translate(161.199951 -15.445312)scale(0.7)" xlink:href="#Helvetica-Light-48"/>
     </g>
    </g>
   </g>
   <g id="matplotlib.axis_2">
    <g id="ytick_1">
     <g id="line2d_5">
      <defs>
       <path d="M 0 0 
L -2 0 
" id="mdf45168f1e" style="stroke:#000000;stroke-width:0.35;"/>
      </defs>
      <g>
       <use style="stroke:#000000;stroke-width:0.35;" x="35.33375" xlink:href="#mdf45168f1e" y="115.938277"/>
      </g>
     </g>
     <g id="text_5">
      <!-- 0.070 -->
      <defs>
       <path d="M 10.203125 0 
L 10.203125 8.796875 
L 17.5 8.796875 
L 17.5 0 
z
" id="Helvetica-Light-46"/>
       <path d="M 5.90625 69.796875 
L 50.796875 69.796875 
L 50.796875 63.796875 
Q 43.203125 55.203125 37.890625 46.140625 
Q 32.59375 37.09375 29.1875 28.546875 
Q 25.796875 20 24.140625 12.59375 
Q 22.5 5.203125 22.203125 0 
L 15.203125 0 
Q 15.703125 7.59375 18.25 16.140625 
Q 20.796875 24.703125 24.59375 33.09375 
Q 28.40625 41.5 33.203125 49.34375 
Q 38 57.203125 43.09375 63.40625 
L 5.90625 63.40625 
z
" id="Helvetica-Light-55"/>
      </defs>
      <g transform="translate(10.32 118.818277)scale(0.08 -0.08)">
       <use xlink:href="#Helvetica-Light-48"/>
       <use x="55.599991" xlink:href="#Helvetica-Light-46"/>
       <use x="83.399979" xlink:href="#Helvetica-Light-48"/>
       <use x="138.999969" xlink:href="#Helvetica-Light-55"/>
       <use x="194.59996" xlink:href="#Helvetica-Light-48"/>
      </g>
     </g>
    </g>
    <g id="ytick_2">
     <g id="line2d_6">
      <g>
       <use style="stroke:#000000;stroke-width:0.35;" x="35.33375" xlink:href="#mdf45168f1e" y="86.265133"/>
      </g>
     </g>
     <g id="text_6">
      <!-- 0.072 -->
      <g transform="translate(10.32 89.145133)scale(0.08 -0.08)">
       <use xlink:href="#Helvetica-Light-48"/>
       <use x="55.599991" xlink:href="#Helvetica-Light-46"/>
       <use x="83.399979" xlink:href="#Helvetica-Light-48"/>
       <use x="138.999969" xlink:href="#Helvetica-Light-55"/>
       <use x="194.59996" xlink:href="#Helvetica-Light-50"/>
      </g>
     </g>
    </g>
    <g id="ytick_3">
     <g id="line2d_7">
      <g>
       <use style="stroke:#000000;stroke-width:0.35;" x="35.33375" xlink:href="#mdf45168f1e" y="56.591989"/>
      </g>
     </g>
     <g id="text_7">
      <!-- 0.074 -->
      <defs>
       <path d="M 35.796875 17.40625 
L 3.59375 17.40625 
L 3.59375 22.90625 
L 36.40625 69.796875 
L 42.203125 69.796875 
L 42.203125 22.796875 
L 52 22.796875 
L 52 17.40625 
L 42.203125 17.40625 
L 42.203125 0 
L 35.796875 0 
z
M 9.90625 22.796875 
L 35.796875 22.796875 
L 35.796875 60.203125 
z
" id="Helvetica-Light-52"/>
      </defs>
      <g transform="translate(10.32 59.471989)scale(0.08 -0.08)">
       <use xlink:href="#Helvetica-Light-48"/>
       <use x="55.599991" xlink:href="#Helvetica-Light-46"/>
       <use x="83.399979" xlink:href="#Helvetica-Light-48"/>
       <use x="138.999969" xlink:href="#Helvetica-Light-55"/>
       <use x="194.59996" xlink:href="#Helvetica-Light-52"/>
      </g>
     </g>
    </g>
    <g id="ytick_4">
     <g id="line2d_8">
      <g>
       <use style="stroke:#000000;stroke-width:0.35;" x="35.33375" xlink:href="#mdf45168f1e" y="26.918844"/>
      </g>
     </g>
     <g id="text_8">
      <!-- 0.076 -->
      <defs>
       <path d="M 43.703125 53.203125 
Q 42.59375 58.59375 39.296875 61.84375 
Q 36 65.09375 30.296875 65.09375 
Q 23.796875 65.09375 20.046875 62 
Q 16.296875 58.90625 14.296875 54.15625 
Q 12.296875 49.40625 11.59375 43.796875 
Q 10.90625 38.203125 10.5 33.203125 
Q 12 35.203125 13.640625 37.203125 
Q 15.296875 39.203125 17.390625 40.75 
Q 19.5 42.296875 22.296875 43.25 
Q 25.09375 44.203125 29 44.203125 
Q 39.703125 44.203125 45.546875 38.140625 
Q 51.40625 32.09375 51.40625 21.5 
Q 51.40625 10.796875 45.5 4.6875 
Q 39.59375 -1.40625 28.796875 -1.40625 
Q 23.5 -1.40625 19 0.34375 
Q 14.5 2.09375 11.203125 6.09375 
Q 7.90625 10.09375 6 16.546875 
Q 4.09375 23 4.09375 32.296875 
Q 4.09375 38.59375 5.1875 45.34375 
Q 6.296875 52.09375 9.140625 57.6875 
Q 12 63.296875 16.953125 66.890625 
Q 21.90625 70.5 29.703125 70.5 
Q 38.09375 70.5 43.6875 66.09375 
Q 49.296875 61.703125 50.296875 53.203125 
z
M 28.796875 38.796875 
Q 25.09375 38.796875 22.140625 37.390625 
Q 19.203125 36 17.140625 33.59375 
Q 15.09375 31.203125 14 28.046875 
Q 12.90625 24.90625 12.90625 21.296875 
Q 12.90625 18.296875 13.75 15.25 
Q 14.59375 12.203125 16.546875 9.703125 
Q 18.5 7.203125 21.5 5.59375 
Q 24.5 4 28.90625 4 
Q 33.40625 4 36.453125 5.546875 
Q 39.5 7.09375 41.390625 9.640625 
Q 43.296875 12.203125 44.140625 15.34375 
Q 45 18.5 45 21.703125 
Q 45 29.90625 41.046875 34.34375 
Q 37.09375 38.796875 28.796875 38.796875 
z
" id="Helvetica-Light-54"/>
      </defs>
      <g transform="translate(10.32 29.798844)scale(0.08 -0.08)">
       <use xlink:href="#Helvetica-Light-48"/>
       <use x="55.599991" xlink:href="#Helvetica-Light-46"/>
       <use x="83.399979" xlink:href="#Helvetica-Light-48"/>
       <use x="138.999969" xlink:href="#Helvetica-Light-55"/>
       <use x="194.59996" xlink:href="#Helvetica-Light-54"/>
      </g>
     </g>
    </g>
    <g id="text_9">
     <!-- $S(q/k_{\rm F}=0.15;t)$ -->
     <defs>
      <path d="M 15.5 21.5 
Q 14.90625 16.703125 15.90625 13.34375 
Q 16.90625 10 19.203125 7.890625 
Q 21.5 5.796875 24.890625 4.84375 
Q 28.296875 3.90625 32.40625 3.90625 
Q 37.203125 3.90625 40.953125 5.09375 
Q 44.703125 6.296875 47.34375 8.34375 
Q 50 10.40625 51.640625 13.09375 
Q 53.296875 15.796875 53.90625 18.796875 
Q 54.796875 23 53.4375 25.59375 
Q 52.09375 28.203125 49.34375 29.84375 
Q 46.59375 31.5 42.890625 32.5 
Q 39.203125 33.5 35.296875 34.453125 
Q 31.40625 35.40625 27.703125 36.703125 
Q 24 38 21.390625 40.203125 
Q 18.796875 42.40625 17.640625 45.84375 
Q 16.5 49.296875 17.59375 54.59375 
Q 18.40625 58.296875 20.703125 61.796875 
Q 23 65.296875 26.59375 68 
Q 30.203125 70.703125 35.140625 72.296875 
Q 40.09375 73.90625 46.09375 73.90625 
Q 52.203125 73.90625 56.34375 72.203125 
Q 60.5 70.5 62.890625 67.546875 
Q 65.296875 64.59375 66 60.6875 
Q 66.703125 56.796875 65.703125 52.40625 
L 59.203125 52.40625 
Q 60.09375 56.5 59.25 59.5 
Q 58.40625 62.5 56.40625 64.390625 
Q 54.40625 66.296875 51.34375 67.1875 
Q 48.296875 68.09375 44.90625 68.09375 
Q 39.703125 68.09375 35.84375 66.640625 
Q 32 65.203125 29.390625 62.890625 
Q 26.796875 60.59375 25.390625 57.796875 
Q 24 55 23.90625 52.203125 
Q 23.703125 48.703125 25.453125 46.59375 
Q 27.203125 44.5 30.09375 43.140625 
Q 33 41.796875 36.703125 40.9375 
Q 40.40625 40.09375 44.203125 39.140625 
Q 48 38.203125 51.5 36.890625 
Q 55 35.59375 57.390625 33.390625 
Q 59.796875 31.203125 60.84375 27.75 
Q 61.90625 24.296875 60.796875 19.09375 
Q 58.703125 9.09375 50.59375 3.59375 
Q 42.5 -1.90625 30 -1.90625 
Q 24.40625 -1.90625 19.90625 -0.453125 
Q 15.40625 1 12.546875 3.953125 
Q 9.703125 6.90625 8.703125 11.25 
Q 7.703125 15.59375 8.90625 21.5 
z
" id="Helvetica-LightOblique-83"/>
      <path d="M 27.703125 73.90625 
Q 20.5 63.5 16.453125 51.640625 
Q 12.40625 39.796875 12.40625 27.09375 
Q 12.40625 14.59375 16.59375 2.890625 
Q 20.796875 -8.796875 27.703125 -19.09375 
L 22.59375 -19.09375 
Q 18.5 -13.40625 15.296875 -8.046875 
Q 12.09375 -2.703125 9.890625 2.84375 
Q 7.703125 8.40625 6.59375 14.453125 
Q 5.5 20.5 5.5 27.59375 
Q 5.5 34.5 6.640625 40.546875 
Q 7.796875 46.59375 10 52.1875 
Q 12.203125 57.796875 15.34375 63.140625 
Q 18.5 68.5 22.59375 73.90625 
z
" id="Helvetica-Light-40"/>
      <path d="M 52.703125 26.09375 
Q 53.59375 30.5 53.25 34.453125 
Q 52.90625 38.40625 51.296875 41.34375 
Q 49.703125 44.296875 46.84375 46.046875 
Q 44 47.796875 39.90625 47.796875 
Q 35.203125 47.796875 31.390625 45.9375 
Q 27.59375 44.09375 24.6875 40.890625 
Q 21.796875 37.703125 19.890625 33.453125 
Q 18 29.203125 17.203125 24.296875 
Q 16.203125 19.40625 16.75 15.65625 
Q 17.296875 11.90625 19.09375 9.296875 
Q 20.90625 6.703125 23.84375 5.34375 
Q 26.796875 4 30.59375 4 
Q 34.796875 4 38.4375 5.703125 
Q 42.09375 7.40625 44.9375 10.34375 
Q 47.796875 13.296875 49.75 17.34375 
Q 51.703125 21.40625 52.703125 26.09375 
z
M 58.203125 51.796875 
L 64.203125 51.796875 
L 48.90625 -20.40625 
L 42.90625 -20.40625 
L 49 8.296875 
Q 45.09375 3.5 39.5 1.046875 
Q 33.90625 -1.40625 28.40625 -1.40625 
Q 22.5 -1.40625 18.59375 0.84375 
Q 14.703125 3.09375 12.640625 6.84375 
Q 10.59375 10.59375 10.25 15.59375 
Q 9.90625 20.59375 11.09375 26 
Q 12.296875 31.703125 14.6875 36.703125 
Q 17.09375 41.703125 20.6875 45.34375 
Q 24.296875 49 29.140625 51.09375 
Q 34 53.203125 40.296875 53.203125 
Q 42.796875 53.203125 45.25 52.5 
Q 47.703125 51.796875 49.84375 50.5 
Q 52 49.203125 53.640625 47.203125 
Q 55.296875 45.203125 56.09375 42.703125 
L 56.296875 42.703125 
z
" id="Helvetica-LightOblique-113"/>
      <path d="M 6.796875 0 
L 22.09375 72 
L 28.09375 72 
L 18.59375 27.203125 
L 49.203125 51.796875 
L 57.40625 51.796875 
L 34 33.09375 
L 48.703125 0 
L 42 0 
L 28.703125 28.90625 
L 17 19.59375 
L 12.796875 0 
z
" id="Helvetica-LightOblique-107"/>
      <path d="M 7.40625 0 
L 7.40625 72 
L 53.796875 72 
L 53.796875 66.203125 
L 14.203125 66.203125 
L 14.203125 40.203125 
L 50.203125 40.203125 
L 50.203125 34.40625 
L 14.203125 34.40625 
L 14.203125 0 
z
" id="Helvetica-Light-70"/>
      <path d="M 58 31.796875 
L 8 31.796875 
L 8 37.796875 
L 58 37.796875 
z
M 58 12.40625 
L 8 12.40625 
L 8 18.40625 
L 58 18.40625 
z
" id="Helvetica-Light-61"/>
      <path d="M 9.90625 18.296875 
Q 10.90625 11.09375 15.65625 7.546875 
Q 20.40625 4 27.296875 4 
Q 31.203125 4 34.34375 5.390625 
Q 37.5 6.796875 39.703125 9.25 
Q 41.90625 11.703125 43.046875 14.953125 
Q 44.203125 18.203125 44.203125 22 
Q 44.203125 25.90625 42.953125 29.203125 
Q 41.703125 32.5 39.453125 34.890625 
Q 37.203125 37.296875 33.953125 38.59375 
Q 30.703125 39.90625 26.703125 39.90625 
Q 21.90625 39.90625 18.09375 38.15625 
Q 14.296875 36.40625 11.40625 32.59375 
L 6.09375 33.296875 
L 11.796875 69.796875 
L 46.796875 69.796875 
L 46.796875 64.40625 
L 17.203125 64.40625 
L 12.796875 40.703125 
Q 14.90625 42 16.65625 42.890625 
Q 18.40625 43.796875 20.203125 44.34375 
Q 22 44.90625 23.953125 45.09375 
Q 25.90625 45.296875 28.296875 45.296875 
Q 33.09375 45.296875 37.1875 43.6875 
Q 41.296875 42.09375 44.296875 39.09375 
Q 47.296875 36.09375 48.9375 31.75 
Q 50.59375 27.40625 50.59375 22 
Q 50.59375 16.40625 48.75 12.046875 
Q 46.90625 7.703125 43.796875 4.703125 
Q 40.703125 1.703125 36.640625 0.140625 
Q 32.59375 -1.40625 28.296875 -1.40625 
Q 23.296875 -1.40625 18.9375 -0.40625 
Q 14.59375 0.59375 11.296875 2.9375 
Q 8 5.296875 5.953125 9.046875 
Q 3.90625 12.796875 3.5 18.296875 
z
" id="Helvetica-Light-53"/>
      <path d="M 17.5 -3 
Q 17.5 -7.40625 15.453125 -10.046875 
Q 13.40625 -12.703125 10.203125 -13.703125 
L 10.203125 -10 
Q 11.40625 -9.203125 12.5 -7.796875 
Q 13.59375 -6.40625 13.59375 -3.40625 
L 13.59375 0 
L 10.203125 0 
L 10.203125 8.796875 
L 17.5 8.796875 
z
M 10.203125 40.40625 
L 10.203125 49.203125 
L 17.5 49.203125 
L 17.5 40.40625 
z
" id="Helvetica-Light-59"/>
      <path d="M 5.59375 -19.09375 
Q 12.796875 -8.703125 16.84375 3.140625 
Q 20.90625 15 20.90625 27.703125 
Q 20.90625 40.203125 16.703125 51.890625 
Q 12.5 63.59375 5.59375 73.90625 
L 10.703125 73.90625 
Q 14.796875 68.203125 18 62.84375 
Q 21.203125 57.5 23.34375 51.953125 
Q 25.5 46.40625 26.640625 40.34375 
Q 27.796875 34.296875 27.796875 27.203125 
Q 27.796875 20.296875 26.640625 14.25 
Q 25.5 8.203125 23.296875 2.59375 
Q 21.09375 -3 17.890625 -8.34375 
Q 14.703125 -13.703125 10.703125 -19.09375 
z
" id="Helvetica-Light-41"/>
     </defs>
     <g transform="translate(6.64 88.164816)rotate(-90)scale(0.08 -0.08)">
      <use transform="translate(0 0.09375)" xlink:href="#Helvetica-LightOblique-83"/>
      <use transform="translate(61.099991 0.09375)" xlink:href="#Helvetica-Light-40"/>
      <use transform="translate(94.399979 0.09375)" xlink:href="#Helvetica-LightOblique-113"/>
      <use transform="translate(155.499969 0.09375)" xlink:href="#Helvetica-Light-47"/>
      <use transform="translate(183.299957 0.09375)" xlink:href="#Helvetica-LightOblique-107"/>
      <use transform="translate(233.299942 -15.445312)scale(0.7)" xlink:href="#Helvetica-Light-70"/>
      <use transform="translate(291.469777 0.09375)" xlink:href="#Helvetica-Light-61"/>
      <use transform="translate(374.129759 0.09375)" xlink:href="#Helvetica-Light-48"/>
      <use transform="translate(429.72975 0.09375)" xlink:href="#Helvetica-Light-46"/>
      <use transform="translate(457.529738 0.09375)" xlink:href="#Helvetica-Light-49"/>
      <use transform="translate(513.129729 0.09375)" xlink:href="#Helvetica-Light-53"/>
      <use transform="translate(568.72972 0.09375)" xlink:href="#Helvetica-Light-59"/>
      <use transform="translate(613.189705 0.09375)" xlink:href="#Helvetica-LightOblique-116"/>
      <use transform="translate(640.989693 0.09375)" xlink:href="#Helvetica-Light-41"/>
     </g>
    </g>
   </g>
   <g id="line2d_9">
    <defs>
     <path d="M 0 1 
C 0.265203 1 0.51958 0.894634 0.707107 0.707107 
C 0.894634 0.51958 1 0.265203 1 0 
C 1 -0.265203 0.894634 -0.51958 0.707107 -0.707107 
C 0.51958 -0.894634 0.265203 -1 0 -1 
C -0.265203 -1 -0.51958 -0.894634 -0.707107 -0.707107 
C -0.894634 -0.51958 -1 -0.265203 -1 0 
C -1 0.265203 -0.894634 0.51958 -0.707107 0.707107 
C -0.51958 0.894634 -0.265203 1 0 1 
z
" id="m4fffa641de" style="stroke:#5e4fa2;stroke-width:0.5;"/>
    </defs>
    <g clip-path="url(#p4fdd22fc8a)">
     <use style="fill-opacity:0;stroke:#5e4fa2;stroke-width:0.5;" x="35.33375" xlink:href="#m4fffa641de" y="13.839913"/>
     <use style="fill-opacity:0;stroke:#5e4fa2;stroke-width:0.5;" x="36.146919" xlink:href="#m4fffa641de" y="14.089845"/>
     <use style="fill-opacity:0;stroke:#5e4fa2;stroke-width:0.5;" x="36.960088" xlink:href="#m4fffa641de" y="14.83715"/>
     <use style="fill-opacity:0;stroke:#5e4fa2;stroke-width:0.5;" x="37.773257" xlink:href="#m4fffa641de" y="16.074593"/>
     <use style="fill-opacity:0;stroke:#5e4fa2;stroke-width:0.5;" x="38.586426" xlink:href="#m4fffa641de" y="17.790769"/>
     <use style="fill-opacity:0;stroke:#5e4fa2;stroke-width:0.5;" x="39.399596" xlink:href="#m4fffa641de" y="19.970747"/>
     <use style="fill-opacity:0;stroke:#5e4fa2;stroke-width:0.5;" x="40.212765" xlink:href="#m4fffa641de" y="22.596427"/>
     <use style="fill-opacity:0;stroke:#5e4fa2;stroke-width:0.5;" x="41.025934" xlink:href="#m4fffa641de" y="25.646376"/>
     <use style="fill-opacity:0;stroke:#5e4fa2;stroke-width:0.5;" x="41.839103" xlink:href="#m4fffa641de" y="29.095117"/>
     <use style="fill-opacity:0;stroke:#5e4fa2;stroke-width:0.5;" x="42.652272" xlink:href="#m4fffa641de" y="32.91208"/>
     <use style="fill-opacity:0;stroke:#5e4fa2;stroke-width:0.5;" x="43.465441" xlink:href="#m4fffa641de" y="37.060641"/>
     <use style="fill-opacity:0;stroke:#5e4fa2;stroke-width:0.5;" x="44.27861" xlink:href="#m4fffa641de" y="41.49767"/>
     <use style="fill-opacity:0;stroke:#5e4fa2;stroke-width:0.5;" x="45.091779" xlink:href="#m4fffa641de" y="46.173929"/>
     <use style="fill-opacity:0;stroke:#5e4fa2;stroke-width:0.5;" x="45.904948" xlink:href="#m4fffa641de" y="51.035394"/>
     <use style="fill-opacity:0;stroke:#5e4fa2;stroke-width:0.5;" x="46.718118" xlink:href="#m4fffa641de" y="56.0253"/>
     <use style="fill-opacity:0;stroke:#5e4fa2;stroke-width:0.5;" x="47.531287" xlink:href="#m4fffa641de" y="61.086473"/>
     <use style="fill-opacity:0;stroke:#5e4fa2;stroke-width:0.5;" x="48.344456" xlink:href="#m4fffa641de" y="66.163443"/>
     <use style="fill-opacity:0;stroke:#5e4fa2;stroke-width:0.5;" x="49.157625" xlink:href="#m4fffa641de" y="71.203871"/>
     <use style="fill-opacity:0;stroke:#5e4fa2;stroke-width:0.5;" x="49.970794" xlink:href="#m4fffa641de" y="76.15907"/>
     <use style="fill-opacity:0;stroke:#5e4fa2;stroke-width:0.5;" x="50.783963" xlink:href="#m4fffa641de" y="80.983632"/>
     <use style="fill-opacity:0;stroke:#5e4fa2;stroke-width:0.5;" x="51.597132" xlink:href="#m4fffa641de" y="85.634457"/>
     <use style="fill-opacity:0;stroke:#5e4fa2;stroke-width:0.5;" x="52.410301" xlink:href="#m4fffa641de" y="90.069598"/>
     <use style="fill-opacity:0;stroke:#5e4fa2;stroke-width:0.5;" x="53.22347" xlink:href="#m4fffa641de" y="94.247373"/>
     <use style="fill-opacity:0;stroke:#5e4fa2;stroke-width:0.5;" x="54.03664" xlink:href="#m4fffa641de" y="98.126066"/>
     <use style="fill-opacity:0;stroke:#5e4fa2;stroke-width:0.5;" x="54.849809" xlink:href="#m4fffa641de" y="101.664354"/>
     <use style="fill-opacity:0;stroke:#5e4fa2;stroke-width:0.5;" x="55.662978" xlink:href="#m4fffa641de" y="104.82238"/>
     <use style="fill-opacity:0;stroke:#5e4fa2;stroke-width:0.5;" x="56.476147" xlink:href="#m4fffa641de" y="107.563223"/>
     <use style="fill-opacity:0;stroke:#5e4fa2;stroke-width:0.5;" x="57.289316" xlink:href="#m4fffa641de" y="109.85444"/>
     <use style="fill-opacity:0;stroke:#5e4fa2;stroke-width:0.5;" x="58.102485" xlink:href="#m4fffa641de" y="111.669376"/>
     <use style="fill-opacity:0;stroke:#5e4fa2;stroke-width:0.5;" x="58.915654" xlink:href="#m4fffa641de" y="112.988"/>
     <use style="fill-opacity:0;stroke:#5e4fa2;stroke-width:0.5;" x="59.728823" xlink:href="#m4fffa641de" y="113.797197"/>
     <use style="fill-opacity:0;stroke:#5e4fa2;stroke-width:0.5;" x="60.541992" xlink:href="#m4fffa641de" y="114.090544"/>
     <use style="fill-opacity:0;stroke:#5e4fa2;stroke-width:0.5;" x="61.355162" xlink:href="#m4fffa641de" y="113.867726"/>
     <use style="fill-opacity:0;stroke:#5e4fa2;stroke-width:0.5;" x="62.168331" xlink:href="#m4fffa641de" y="113.133784"/>
     <use style="fill-opacity:0;stroke:#5e4fa2;stroke-width:0.5;" x="62.9815" xlink:href="#m4fffa641de" y="111.898391"/>
     <use style="fill-opacity:0;stroke:#5e4fa2;stroke-width:0.5;" x="63.794669" xlink:href="#m4fffa641de" y="110.175293"/>
     <use style="fill-opacity:0;stroke:#5e4fa2;stroke-width:0.5;" x="64.607838" xlink:href="#m4fffa641de" y="107.982005"/>
     <use style="fill-opacity:0;stroke:#5e4fa2;stroke-width:0.5;" x="65.421007" xlink:href="#m4fffa641de" y="105.339743"/>
     <use style="fill-opacity:0;stroke:#5e4fa2;stroke-width:0.5;" x="66.234176" xlink:href="#m4fffa641de" y="102.273527"/>
     <use style="fill-opacity:0;stroke:#5e4fa2;stroke-width:0.5;" x="67.047345" xlink:href="#m4fffa641de" y="98.812363"/>
     <use style="fill-opacity:0;stroke:#5e4fa2;stroke-width:0.5;" x="67.860515" xlink:href="#m4fffa641de" y="94.989374"/>
     <use style="fill-opacity:0;stroke:#5e4fa2;stroke-width:0.5;" x="68.673684" xlink:href="#m4fffa641de" y="90.841809"/>
     <use style="fill-opacity:0;stroke:#5e4fa2;stroke-width:0.5;" x="69.486853" xlink:href="#m4fffa641de" y="86.410861"/>
     <use style="fill-opacity:0;stroke:#5e4fa2;stroke-width:0.5;" x="70.300022" xlink:href="#m4fffa641de" y="81.741281"/>
     <use style="fill-opacity:0;stroke:#5e4fa2;stroke-width:0.5;" x="71.113191" xlink:href="#m4fffa641de" y="76.880838"/>
     <use style="fill-opacity:0;stroke:#5e4fa2;stroke-width:0.5;" x="71.92636" xlink:href="#m4fffa641de" y="71.879641"/>
     <use style="fill-opacity:0;stroke:#5e4fa2;stroke-width:0.5;" x="72.739529" xlink:href="#m4fffa641de" y="66.78942"/>
     <use style="fill-opacity:0;stroke:#5e4fa2;stroke-width:0.5;" x="73.552698" xlink:href="#m4fffa641de" y="61.662785"/>
     <use style="fill-opacity:0;stroke:#5e4fa2;stroke-width:0.5;" x="74.365867" xlink:href="#m4fffa641de" y="56.55253"/>
     <use style="fill-opacity:0;stroke:#5e4fa2;stroke-width:0.5;" x="75.179037" xlink:href="#m4fffa641de" y="51.510979"/>
     <use style="fill-opacity:0;stroke:#5e4fa2;stroke-width:0.5;" x="75.992206" xlink:href="#m4fffa641de" y="46.589396"/>
     <use style="fill-opacity:0;stroke:#5e4fa2;stroke-width:0.5;" x="76.805375" xlink:href="#m4fffa641de" y="41.83745"/>
     <use style="fill-opacity:0;stroke:#5e4fa2;stroke-width:0.5;" x="77.618544" xlink:href="#m4fffa641de" y="37.302737"/>
     <use style="fill-opacity:0;stroke:#5e4fa2;stroke-width:0.5;" x="78.431713" xlink:href="#m4fffa641de" y="33.030355"/>
     <use style="fill-opacity:0;stroke:#5e4fa2;stroke-width:0.5;" x="79.244882" xlink:href="#m4fffa641de" y="29.062536"/>
     <use style="fill-opacity:0;stroke:#5e4fa2;stroke-width:0.5;" x="80.058051" xlink:href="#m4fffa641de" y="25.438329"/>
     <use style="fill-opacity:0;stroke:#5e4fa2;stroke-width:0.5;" x="80.87122" xlink:href="#m4fffa641de" y="22.193334"/>
     <use style="fill-opacity:0;stroke:#5e4fa2;stroke-width:0.5;" x="81.684389" xlink:href="#m4fffa641de" y="19.359463"/>
     <use style="fill-opacity:0;stroke:#5e4fa2;stroke-width:0.5;" x="82.497559" xlink:href="#m4fffa641de" y="16.964717"/>
     <use style="fill-opacity:0;stroke:#5e4fa2;stroke-width:0.5;" x="83.310728" xlink:href="#m4fffa641de" y="15.032963"/>
     <use style="fill-opacity:0;stroke:#5e4fa2;stroke-width:0.5;" x="84.123897" xlink:href="#m4fffa641de" y="13.583687"/>
     <use style="fill-opacity:0;stroke:#5e4fa2;stroke-width:0.5;" x="84.937066" xlink:href="#m4fffa641de" y="12.631726"/>
     <use style="fill-opacity:0;stroke:#5e4fa2;stroke-width:0.5;" x="85.750235" xlink:href="#m4fffa641de" y="12.187"/>
     <use style="fill-opacity:0;stroke:#5e4fa2;stroke-width:0.5;" x="86.563404" xlink:href="#m4fffa641de" y="12.254255"/>
     <use style="fill-opacity:0;stroke:#5e4fa2;stroke-width:0.5;" x="87.376573" xlink:href="#m4fffa641de" y="12.832852"/>
     <use style="fill-opacity:0;stroke:#5e4fa2;stroke-width:0.5;" x="88.189742" xlink:href="#m4fffa641de" y="13.916645"/>
     <use style="fill-opacity:0;stroke:#5e4fa2;stroke-width:0.5;" x="89.002911" xlink:href="#m4fffa641de" y="15.49397"/>
     <use style="fill-opacity:0;stroke:#5e4fa2;stroke-width:0.5;" x="89.816081" xlink:href="#m4fffa641de" y="17.547757"/>
     <use style="fill-opacity:0;stroke:#5e4fa2;stroke-width:0.5;" x="90.62925" xlink:href="#m4fffa641de" y="20.055764"/>
     <use style="fill-opacity:0;stroke:#5e4fa2;stroke-width:0.5;" x="91.442419" xlink:href="#m4fffa641de" y="22.99093"/>
     <use style="fill-opacity:0;stroke:#5e4fa2;stroke-width:0.5;" x="92.255588" xlink:href="#m4fffa641de" y="26.321812"/>
     <use style="fill-opacity:0;stroke:#5e4fa2;stroke-width:0.5;" x="93.068757" xlink:href="#m4fffa641de" y="30.013088"/>
     <use style="fill-opacity:0;stroke:#5e4fa2;stroke-width:0.5;" x="93.881926" xlink:href="#m4fffa641de" y="34.026092"/>
     <use style="fill-opacity:0;stroke:#5e4fa2;stroke-width:0.5;" x="94.695095" xlink:href="#m4fffa641de" y="38.319375"/>
     <use style="fill-opacity:0;stroke:#5e4fa2;stroke-width:0.5;" x="95.508264" xlink:href="#m4fffa641de" y="42.849247"/>
     <use style="fill-opacity:0;stroke:#5e4fa2;stroke-width:0.5;" x="96.321433" xlink:href="#m4fffa641de" y="47.5703"/>
     <use style="fill-opacity:0;stroke:#5e4fa2;stroke-width:0.5;" x="97.134603" xlink:href="#m4fffa641de" y="52.435877"/>
     <use style="fill-opacity:0;stroke:#5e4fa2;stroke-width:0.5;" x="97.947772" xlink:href="#m4fffa641de" y="57.398463"/>
     <use style="fill-opacity:0;stroke:#5e4fa2;stroke-width:0.5;" x="98.760941" xlink:href="#m4fffa641de" y="62.409985"/>
     <use style="fill-opacity:0;stroke:#5e4fa2;stroke-width:0.5;" x="99.57411" xlink:href="#m4fffa641de" y="67.421998"/>
     <use style="fill-opacity:0;stroke:#5e4fa2;stroke-width:0.5;" x="100.387279" xlink:href="#m4fffa641de" y="72.385781"/>
     <use style="fill-opacity:0;stroke:#5e4fa2;stroke-width:0.5;" x="101.200448" xlink:href="#m4fffa641de" y="77.252388"/>
     <use style="fill-opacity:0;stroke:#5e4fa2;stroke-width:0.5;" x="102.013617" xlink:href="#m4fffa641de" y="81.972721"/>
     <use style="fill-opacity:0;stroke:#5e4fa2;stroke-width:0.5;" x="102.826786" xlink:href="#m4fffa641de" y="86.497712"/>
     <use style="fill-opacity:0;stroke:#5e4fa2;stroke-width:0.5;" x="103.639955" xlink:href="#m4fffa641de" y="90.778724"/>
     <use style="fill-opacity:0;stroke:#5e4fa2;stroke-width:0.5;" x="104.453125" xlink:href="#m4fffa641de" y="94.768206"/>
     <use style="fill-opacity:0;stroke:#5e4fa2;stroke-width:0.5;" x="105.266294" xlink:href="#m4fffa641de" y="98.420632"/>
     <use style="fill-opacity:0;stroke:#5e4fa2;stroke-width:0.5;" x="106.079463" xlink:href="#m4fffa641de" y="101.693654"/>
     <use style="fill-opacity:0;stroke:#5e4fa2;stroke-width:0.5;" x="106.892632" xlink:href="#m4fffa641de" y="104.549346"/>
     <use style="fill-opacity:0;stroke:#5e4fa2;stroke-width:0.5;" x="107.705801" xlink:href="#m4fffa641de" y="106.95536"/>
     <use style="fill-opacity:0;stroke:#5e4fa2;stroke-width:0.5;" x="108.51897" xlink:href="#m4fffa641de" y="108.885827"/>
     <use style="fill-opacity:0;stroke:#5e4fa2;stroke-width:0.5;" x="109.332139" xlink:href="#m4fffa641de" y="110.321843"/>
     <use style="fill-opacity:0;stroke:#5e4fa2;stroke-width:0.5;" x="110.145308" xlink:href="#m4fffa641de" y="111.251474"/>
     <use style="fill-opacity:0;stroke:#5e4fa2;stroke-width:0.5;" x="110.958477" xlink:href="#m4fffa641de" y="111.669316"/>
     <use style="fill-opacity:0;stroke:#5e4fa2;stroke-width:0.5;" x="111.771647" xlink:href="#m4fffa641de" y="111.575721"/>
     <use style="fill-opacity:0;stroke:#5e4fa2;stroke-width:0.5;" x="112.584816" xlink:href="#m4fffa641de" y="110.975881"/>
     <use style="fill-opacity:0;stroke:#5e4fa2;stroke-width:0.5;" x="113.397985" xlink:href="#m4fffa641de" y="109.878975"/>
    </g>
   </g>
   <g id="patch_3">
    <path d="M 35.33375 119.480212 
L 35.33375 2.849421 
" style="fill:none;stroke:#000000;stroke-linecap:square;stroke-linejoin:miter;stroke-width:0.35;"/>
   </g>
   <g id="patch_4">
    <path d="M 112.983112 119.480212 
L 112.983112 2.849421 
" style="fill:none;stroke:#000000;stroke-linecap:square;stroke-linejoin:miter;stroke-width:0.35;"/>
   </g>
   <g id="patch_5">
    <path d="M 35.33375 119.480212 
L 112.983112 119.480212 
" style="fill:none;stroke:#000000;stroke-linecap:square;stroke-linejoin:miter;stroke-width:0.35;"/>
   </g>
   <g id="patch_6">
    <path d="M 35.33375 2.849421 
L 112.983112 2.849421 
" style="fill:none;stroke:#000000;stroke-linecap:square;stroke-linejoin:miter;stroke-width:0.35;"/>
   </g>
   <g id="text_10">
    <!-- N = 13 -->
    <defs>
     <path d="M 14.90625 62.796875 
L 14.703125 62.796875 
L 14.703125 0 
L 7.90625 0 
L 7.90625 72 
L 15.59375 72 
L 57.203125 9.09375 
L 57.40625 9.09375 
L 57.40625 72 
L 64.203125 72 
L 64.203125 0 
L 56.296875 0 
z
" id="Helvetica-Light-78"/>
     <path id="Helvetica-Light-32"/>
     <path d="M 22.09375 39.203125 
Q 26.59375 39.203125 30.296875 39.75 
Q 34 40.296875 36.640625 41.84375 
Q 39.296875 43.40625 40.796875 46 
Q 42.296875 48.59375 42.296875 52.703125 
Q 42.296875 56 41.09375 58.34375 
Q 39.90625 60.703125 37.84375 62.203125 
Q 35.796875 63.703125 33.046875 64.390625 
Q 30.296875 65.09375 27.296875 65.09375 
Q 23.90625 65.09375 21.15625 64 
Q 18.40625 62.90625 16.40625 60.84375 
Q 14.40625 58.796875 13.296875 56.046875 
Q 12.203125 53.296875 12.203125 50 
L 5.796875 50 
Q 5.796875 54.796875 7.4375 58.640625 
Q 9.09375 62.5 12.59375 65.796875 
Q 15.90625 68.796875 20.046875 69.640625 
Q 24.203125 70.5 28.59375 70.5 
Q 32.796875 70.5 36.4375 69.453125 
Q 40.09375 68.40625 42.796875 66.25 
Q 45.5 64.09375 47.09375 60.796875 
Q 48.703125 57.5 48.703125 53.09375 
Q 48.703125 47.59375 46.25 43.59375 
Q 43.796875 39.59375 38.703125 37.40625 
Q 42.5 36.203125 44.953125 34.25 
Q 47.40625 32.296875 48.796875 29.9375 
Q 50.203125 27.59375 50.703125 25 
Q 51.203125 22.40625 51.203125 20 
Q 51.203125 15.59375 49.703125 11.796875 
Q 48.203125 8 45.296875 5.09375 
Q 42.40625 2.203125 38.15625 0.453125 
Q 33.90625 -1.296875 28.5 -1.40625 
Q 22.40625 -1.40625 17.90625 -0.296875 
Q 13.40625 0.796875 10.40625 3.34375 
Q 7.40625 5.90625 5.703125 10.046875 
Q 4 14.203125 3.40625 20.40625 
L 9.796875 20.40625 
Q 9.796875 12.296875 14.640625 8.140625 
Q 19.5 4 27.296875 4 
Q 31.09375 4 34.390625 5.296875 
Q 37.703125 6.59375 40.046875 8.796875 
Q 42.40625 11 43.65625 13.890625 
Q 44.90625 16.796875 44.796875 19.90625 
Q 44.59375 24.203125 42.796875 27.046875 
Q 41 29.90625 37.953125 31.546875 
Q 34.90625 33.203125 30.796875 33.75 
Q 26.703125 34.296875 22.09375 34 
z
" id="Helvetica-Light-51"/>
    </defs>
    <g transform="translate(88.135316 118.313904)scale(0.08 -0.08)">
     <use xlink:href="#Helvetica-Light-78"/>
     <use x="72.199982" xlink:href="#Helvetica-Light-32"/>
     <use x="99.999969" xlink:href="#Helvetica-Light-61"/>
     <use x="165.999954" xlink:href="#Helvetica-Light-32"/>
     <use x="193.799942" xlink:href="#Helvetica-Light-49"/>
     <use x="249.399933" xlink:href="#Helvetica-Light-51"/>
    </g>
   </g>
   <g id="legend_1">
    <g id="line2d_10"/>
    <g id="line2d_11">
     <g>
      <use style="fill-opacity:0;stroke:#5e4fa2;stroke-width:0.5;" x="40.980763" xlink:href="#m4fffa641de" y="6.88"/>
     </g>
    </g>
    <g id="text_11">
     <!-- V = 0.150 -->
     <defs>
      <path d="M 1.796875 72 
L 8.90625 72 
L 30.59375 8 
L 52.203125 72 
L 59.296875 72 
L 34.296875 0 
L 26.796875 0 
z
" id="Helvetica-Light-86"/>
     </defs>
     <g transform="translate(48.980763 9.68)scale(0.08 -0.08)">
      <use xlink:href="#Helvetica-Light-86"/>
      <use x="61.099991" xlink:href="#Helvetica-Light-32"/>
      <use x="88.899979" xlink:href="#Helvetica-Light-61"/>
      <use x="154.899963" xlink:href="#Helvetica-Light-32"/>
      <use x="182.699951" xlink:href="#Helvetica-Light-48"/>
      <use x="238.299942" xlink:href="#Helvetica-Light-46"/>
      <use x="266.09993" xlink:href="#Helvetica-Light-49"/>
      <use x="321.699921" xlink:href="#Helvetica-Light-53"/>
      <use x="377.299911" xlink:href="#Helvetica-Light-48"/>
     </g>
    </g>
    <g id="line2d_12">
     <path d="M 91.609513 6.88 
L 99.609513 6.88 
" style="fill:none;stroke:#5e4fa2;stroke-linecap:round;stroke-width:0.5;"/>
    </g>
    <g id="line2d_13"/>
    <g id="text_12">
     <!-- fit -->
     <defs>
      <path d="M 2 46.796875 
L 2 51.796875 
L 9.703125 51.796875 
L 9.703125 60 
Q 9.703125 66.203125 12.203125 69.796875 
Q 14.703125 73.40625 20.703125 73.40625 
Q 22.09375 73.40625 23.296875 73.296875 
Q 24.5 73.203125 25.703125 73 
L 25.703125 67.5 
Q 23.703125 68 22.09375 68 
Q 19.796875 68 18.5 67.140625 
Q 17.203125 66.296875 16.59375 64.890625 
Q 16 63.5 15.84375 61.75 
Q 15.703125 60 15.703125 58.203125 
L 15.703125 51.796875 
L 25.703125 51.796875 
L 25.703125 46.796875 
L 15.703125 46.796875 
L 15.703125 0 
L 9.703125 0 
L 9.703125 46.796875 
z
" id="Helvetica-Light-102"/>
      <path d="M 8.09375 0 
L 8.09375 51.796875 
L 14.09375 51.796875 
L 14.09375 0 
z
M 7.796875 63.09375 
L 7.796875 72 
L 14.40625 72 
L 14.40625 63.09375 
z
" id="Helvetica-Light-105"/>
      <path d="M 25.40625 -0.203125 
Q 24.296875 -0.40625 22.5 -0.90625 
Q 20.703125 -1.40625 18.5 -1.40625 
Q 14 -1.40625 11.640625 0.84375 
Q 9.296875 3.09375 9.296875 8.90625 
L 9.296875 46.796875 
L 2 46.796875 
L 2 51.796875 
L 9.296875 51.796875 
L 9.296875 66.203125 
L 15.296875 66.203125 
L 15.296875 51.796875 
L 25 51.796875 
L 25 46.796875 
L 15.296875 46.796875 
L 15.296875 11.296875 
Q 15.296875 9.40625 15.390625 8 
Q 15.5 6.59375 16 5.6875 
Q 16.5 4.796875 17.546875 4.390625 
Q 18.59375 4 20.5 4 
Q 21.703125 4 22.953125 4.203125 
Q 24.203125 4.40625 25.40625 4.703125 
z
" id="Helvetica-Light-116"/>
     </defs>
     <g transform="translate(103.609513 9.68)scale(0.08 -0.08)">
      <use xlink:href="#Helvetica-Light-102"/>
      <use x="27.799988" xlink:href="#Helvetica-Light-105"/>
      <use x="49.999985" xlink:href="#Helvetica-Light-116"/>
     </g>
    </g>
   </g>
  </g>
  <g id="axes_2">
   <g id="patch_7">
    <path d="M 153.749028 119.480212 
L 231.39839 119.480212 
L 231.39839 2.849421 
L 153.749028 2.849421 
z
" style="fill:none;"/>
   </g>
   <g id="matplotlib.axis_3">
    <g id="xtick_4">
     <g id="line2d_14">
      <g>
       <use style="stroke:#000000;stroke-width:0.35;" x="158.813116" xlink:href="#m0a8dcb4bc7" y="119.480212"/>
      </g>
     </g>
     <g id="text_13">
      <!-- 0.8 -->
      <defs>
       <path d="M 27.90625 34.5 
Q 24.203125 34.5 21.09375 33.59375 
Q 18 32.703125 15.703125 30.84375 
Q 13.40625 29 12.09375 26.140625 
Q 10.796875 23.296875 10.796875 19.40625 
Q 10.796875 16.09375 12.046875 13.296875 
Q 13.296875 10.5 15.546875 8.453125 
Q 17.796875 6.40625 21.046875 5.203125 
Q 24.296875 4 28.296875 4 
Q 31.796875 4 34.796875 5.140625 
Q 37.796875 6.296875 40.046875 8.390625 
Q 42.296875 10.5 43.546875 13.390625 
Q 44.796875 16.296875 44.796875 19.796875 
Q 44.796875 23.5 43.5 26.25 
Q 42.203125 29 39.890625 30.84375 
Q 37.59375 32.703125 34.5 33.59375 
Q 31.40625 34.5 27.90625 34.5 
z
M 27.59375 65.09375 
Q 24.59375 65.09375 22 64.296875 
Q 19.40625 63.5 17.453125 61.890625 
Q 15.5 60.296875 14.390625 57.890625 
Q 13.296875 55.5 13.296875 52.40625 
Q 13.296875 49.09375 14.546875 46.75 
Q 15.796875 44.40625 17.890625 42.90625 
Q 20 41.40625 22.703125 40.65625 
Q 25.40625 39.90625 28.296875 39.90625 
Q 31.203125 39.90625 33.703125 40.65625 
Q 36.203125 41.40625 38 43.09375 
Q 39.796875 44.796875 40.84375 47.390625 
Q 41.90625 50 41.90625 53.796875 
Q 41.90625 59.203125 38.40625 62.140625 
Q 34.90625 65.09375 27.59375 65.09375 
z
M 16.703125 37.90625 
Q 14.09375 39.5 12.25 40.953125 
Q 10.40625 42.40625 9.203125 44.09375 
Q 8 45.796875 7.453125 47.9375 
Q 6.90625 50.09375 6.90625 53.296875 
Q 6.90625 56.90625 8.5 60.09375 
Q 10.09375 63.296875 12.796875 65.640625 
Q 15.5 68 19.140625 69.296875 
Q 22.796875 70.59375 27 70.5 
Q 31 70.5 34.84375 69.5 
Q 38.703125 68.5 41.703125 66.390625 
Q 44.703125 64.296875 46.5 61.046875 
Q 48.296875 57.796875 48.296875 53.296875 
Q 48.296875 47.796875 46.046875 43.890625 
Q 43.796875 40 38.703125 37.5 
Q 44.5 35.40625 47.84375 30.796875 
Q 51.203125 26.203125 51.203125 20 
Q 51.203125 14.796875 49.453125 10.796875 
Q 47.703125 6.796875 44.453125 4.09375 
Q 41.203125 1.40625 36.59375 0 
Q 32 -1.40625 26.40625 -1.40625 
Q 22.59375 -1.40625 18.640625 -0.09375 
Q 14.703125 1.203125 11.546875 3.796875 
Q 8.40625 6.40625 6.40625 10.296875 
Q 4.40625 14.203125 4.40625 19.40625 
Q 4.40625 25.703125 7.546875 30.640625 
Q 10.703125 35.59375 16.703125 37.90625 
z
" id="Helvetica-Light-56"/>
      </defs>
      <g transform="translate(153.253741 130.240212)scale(0.08 -0.08)">
       <use xlink:href="#Helvetica-Light-48"/>
       <use x="55.599991" xlink:href="#Helvetica-Light-46"/>
       <use x="83.399979" xlink:href="#Helvetica-Light-56"/>
      </g>
     </g>
    </g>
    <g id="xtick_5">
     <g id="line2d_15">
      <g>
       <use style="stroke:#000000;stroke-width:0.35;" x="192.573709" xlink:href="#m0a8dcb4bc7" y="119.480212"/>
      </g>
     </g>
     <g id="text_14">
      <!-- 1.0 -->
      <g transform="translate(187.014334 130.240212)scale(0.08 -0.08)">
       <use xlink:href="#Helvetica-Light-49"/>
       <use x="55.599991" xlink:href="#Helvetica-Light-46"/>
       <use x="83.399979" xlink:href="#Helvetica-Light-48"/>
      </g>
     </g>
    </g>
    <g id="xtick_6">
     <g id="line2d_16">
      <g>
       <use style="stroke:#000000;stroke-width:0.35;" x="226.334301" xlink:href="#m0a8dcb4bc7" y="119.480212"/>
      </g>
     </g>
     <g id="text_15">
      <!-- 1.2 -->
      <g transform="translate(220.774926 130.240212)scale(0.08 -0.08)">
       <use xlink:href="#Helvetica-Light-49"/>
       <use x="55.599991" xlink:href="#Helvetica-Light-46"/>
       <use x="83.399979" xlink:href="#Helvetica-Light-50"/>
      </g>
     </g>
    </g>
    <g id="text_16">
     <!-- $K$ -->
     <defs>
      <path d="M 8.5 0 
L 23.796875 72 
L 30.59375 72 
L 22.703125 34.703125 
L 67.5 72 
L 75.203125 72 
L 40.703125 43.296875 
L 64.90625 0 
L 56.59375 0 
L 34.90625 39.09375 
L 21.203125 27.796875 
L 15.296875 0 
z
" id="Helvetica-LightOblique-75"/>
     </defs>
     <g transform="translate(189.893709 139.632712)scale(0.08 -0.08)">
      <use xlink:href="#Helvetica-LightOblique-75"/>
     </g>
    </g>
   </g>
   <g id="matplotlib.axis_4">
    <g id="ytick_5">
     <g id="line2d_17">
      <g>
       <use style="stroke:#000000;stroke-width:0.35;" x="153.749028" xlink:href="#mdf45168f1e" y="119.480212"/>
      </g>
     </g>
     <g id="text_17">
      <!-- 0.0000 -->
      <g transform="translate(124.287778 122.360212)scale(0.08 -0.08)">
       <use xlink:href="#Helvetica-Light-48"/>
       <use x="55.599991" xlink:href="#Helvetica-Light-46"/>
       <use x="83.399979" xlink:href="#Helvetica-Light-48"/>
       <use x="138.999969" xlink:href="#Helvetica-Light-48"/>
       <use x="194.59996" xlink:href="#Helvetica-Light-48"/>
       <use x="250.199951" xlink:href="#Helvetica-Light-48"/>
      </g>
     </g>
    </g>
    <g id="ytick_6">
     <g id="line2d_18">
      <g>
       <use style="stroke:#000000;stroke-width:0.35;" x="153.749028" xlink:href="#mdf45168f1e" y="102.328625"/>
      </g>
     </g>
     <g id="text_18">
      <!-- 0.0025 -->
      <g transform="translate(124.287778 105.208625)scale(0.08 -0.08)">
       <use xlink:href="#Helvetica-Light-48"/>
       <use x="55.599991" xlink:href="#Helvetica-Light-46"/>
       <use x="83.399979" xlink:href="#Helvetica-Light-48"/>
       <use x="138.999969" xlink:href="#Helvetica-Light-48"/>
       <use x="194.59996" xlink:href="#Helvetica-Light-50"/>
       <use x="250.199951" xlink:href="#Helvetica-Light-53"/>
      </g>
     </g>
    </g>
    <g id="ytick_7">
     <g id="line2d_19">
      <g>
       <use style="stroke:#000000;stroke-width:0.35;" x="153.749028" xlink:href="#mdf45168f1e" y="85.177038"/>
      </g>
     </g>
     <g id="text_19">
      <!-- 0.0050 -->
      <g transform="translate(124.287778 88.057038)scale(0.08 -0.08)">
       <use xlink:href="#Helvetica-Light-48"/>
       <use x="55.599991" xlink:href="#Helvetica-Light-46"/>
       <use x="83.399979" xlink:href="#Helvetica-Light-48"/>
       <use x="138.999969" xlink:href="#Helvetica-Light-48"/>
       <use x="194.59996" xlink:href="#Helvetica-Light-53"/>
       <use x="250.199951" xlink:href="#Helvetica-Light-48"/>
      </g>
     </g>
    </g>
    <g id="ytick_8">
     <g id="line2d_20">
      <g>
       <use style="stroke:#000000;stroke-width:0.35;" x="153.749028" xlink:href="#mdf45168f1e" y="68.025451"/>
      </g>
     </g>
     <g id="text_20">
      <!-- 0.0075 -->
      <g transform="translate(124.287778 70.905451)scale(0.08 -0.08)">
       <use xlink:href="#Helvetica-Light-48"/>
       <use x="55.599991" xlink:href="#Helvetica-Light-46"/>
       <use x="83.399979" xlink:href="#Helvetica-Light-48"/>
       <use x="138.999969" xlink:href="#Helvetica-Light-48"/>
       <use x="194.59996" xlink:href="#Helvetica-Light-55"/>
       <use x="250.199951" xlink:href="#Helvetica-Light-53"/>
      </g>
     </g>
    </g>
    <g id="ytick_9">
     <g id="line2d_21">
      <g>
       <use style="stroke:#000000;stroke-width:0.35;" x="153.749028" xlink:href="#mdf45168f1e" y="50.873864"/>
      </g>
     </g>
     <g id="text_21">
      <!-- 0.0100 -->
      <g transform="translate(124.287778 53.753864)scale(0.08 -0.08)">
       <use xlink:href="#Helvetica-Light-48"/>
       <use x="55.599991" xlink:href="#Helvetica-Light-46"/>
       <use x="83.399979" xlink:href="#Helvetica-Light-48"/>
       <use x="138.999969" xlink:href="#Helvetica-Light-49"/>
       <use x="194.59996" xlink:href="#Helvetica-Light-48"/>
       <use x="250.199951" xlink:href="#Helvetica-Light-48"/>
      </g>
     </g>
    </g>
    <g id="ytick_10">
     <g id="line2d_22">
      <g>
       <use style="stroke:#000000;stroke-width:0.35;" x="153.749028" xlink:href="#mdf45168f1e" y="33.722277"/>
      </g>
     </g>
     <g id="text_22">
      <!-- 0.0125 -->
      <g transform="translate(124.287778 36.602277)scale(0.08 -0.08)">
       <use xlink:href="#Helvetica-Light-48"/>
       <use x="55.599991" xlink:href="#Helvetica-Light-46"/>
       <use x="83.399979" xlink:href="#Helvetica-Light-48"/>
       <use x="138.999969" xlink:href="#Helvetica-Light-49"/>
       <use x="194.59996" xlink:href="#Helvetica-Light-50"/>
       <use x="250.199951" xlink:href="#Helvetica-Light-53"/>
      </g>
     </g>
    </g>
    <g id="ytick_11">
     <g id="line2d_23">
      <g>
       <use style="stroke:#000000;stroke-width:0.35;" x="153.749028" xlink:href="#mdf45168f1e" y="16.57069"/>
      </g>
     </g>
     <g id="text_23">
      <!-- 0.0150 -->
      <g transform="translate(124.287778 19.45069)scale(0.08 -0.08)">
       <use xlink:href="#Helvetica-Light-48"/>
       <use x="55.599991" xlink:href="#Helvetica-Light-46"/>
       <use x="83.399979" xlink:href="#Helvetica-Light-48"/>
       <use x="138.999969" xlink:href="#Helvetica-Light-49"/>
       <use x="194.59996" xlink:href="#Helvetica-Light-53"/>
       <use x="250.199951" xlink:href="#Helvetica-Light-48"/>
      </g>
     </g>
    </g>
    <g id="text_24">
     <!-- $n_{\rm LL}$ -->
     <defs>
      <path d="M 13.203125 0 
L 7.203125 0 
L 18.203125 51.796875 
L 24.203125 51.796875 
L 22.703125 44.59375 
Q 27.09375 48.40625 31.4375 50.796875 
Q 35.796875 53.203125 41.203125 53.203125 
Q 46 53.203125 49.75 51.546875 
Q 53.5 49.90625 55.40625 45.796875 
Q 56.703125 43 56.453125 40.046875 
Q 56.203125 37.09375 55.5 33.90625 
L 48.296875 0 
L 42.296875 0 
L 49.5 33.796875 
Q 51 40.796875 48.640625 44.296875 
Q 46.296875 47.796875 39.09375 47.796875 
Q 36.296875 47.796875 33.796875 46.9375 
Q 31.296875 46.09375 29.140625 44.6875 
Q 27 43.296875 25.296875 41.5 
Q 23.59375 39.703125 22.5 37.703125 
Q 21.09375 35.203125 20.390625 32.890625 
Q 19.703125 30.59375 19.09375 27.90625 
z
" id="Helvetica-LightOblique-110"/>
      <path d="M 8.09375 0 
L 8.09375 72 
L 14.90625 72 
L 14.90625 5.796875 
L 53.5 5.796875 
L 53.5 0 
z
" id="Helvetica-Light-76"/>
     </defs>
     <g transform="translate(120.655278 66.644816)rotate(-90)scale(0.08 -0.08)">
      <use transform="translate(0 0.796875)" xlink:href="#Helvetica-LightOblique-110"/>
      <use transform="translate(55.599991 -14.742188)scale(0.7)" xlink:href="#Helvetica-Light-76"/>
      <use transform="translate(94.519984 -14.742188)scale(0.7)" xlink:href="#Helvetica-Light-76"/>
     </g>
    </g>
   </g>
   <g id="LineCollection_1">
    <path clip-path="url(#pde04a0680b)" d="M 224.932904 58.926181 
L 224.932904 57.44903 
" style="fill:none;stroke:#66c2a5;stroke-width:0.5;"/>
   </g>
   <g id="LineCollection_2">
    <path clip-path="url(#pde04a0680b)" d="M 207.209593 106.050147 
L 207.209593 105.661594 
" style="fill:none;stroke:#66c2a5;stroke-width:0.5;"/>
   </g>
   <g id="LineCollection_3">
    <path clip-path="url(#pde04a0680b)" d="M 201.045931 114.862841 
L 201.045931 114.721462 
" style="fill:none;stroke:#66c2a5;stroke-width:0.5;"/>
   </g>
   <g id="LineCollection_4">
    <path clip-path="url(#pde04a0680b)" d="M 184.874349 115.394846 
L 184.874349 115.222543 
" style="fill:none;stroke:#66c2a5;stroke-width:0.5;"/>
   </g>
   <g id="LineCollection_5">
    <path clip-path="url(#pde04a0680b)" d="M 180.100737 108.536437 
L 180.100737 107.999385 
" style="fill:none;stroke:#66c2a5;stroke-width:0.5;"/>
   </g>
   <g id="LineCollection_6">
    <path clip-path="url(#pde04a0680b)" d="M 158.826773 31.17965 
L 158.826773 23.100899 
" style="fill:none;stroke:#66c2a5;stroke-width:0.5;"/>
   </g>
   <g id="line2d_24">
    <path clip-path="url(#pde04a0680b)" d="M 153.375775 -1 
L 153.783129 1.884342 
L 154.635669 7.729381 
L 155.48821 13.386621 
L 156.34075 18.859686 
L 157.19329 24.152105 
L 158.04583 29.26732 
L 158.89837 34.208684 
L 159.750911 38.979469 
L 160.603451 43.582861 
L 161.455991 48.021971 
L 162.308531 52.299832 
L 163.161072 56.419401 
L 164.013612 60.383566 
L 164.866152 64.195145 
L 165.718692 67.856885 
L 166.571232 71.371472 
L 167.423773 74.741524 
L 168.276313 77.9696 
L 169.128853 81.058198 
L 169.981393 84.009758 
L 170.833933 86.826664 
L 171.686474 89.511243 
L 172.539014 92.06577 
L 173.391554 94.492469 
L 174.244094 96.793512 
L 175.096634 98.971023 
L 175.949175 101.027079 
L 176.801715 102.963708 
L 177.654255 104.782897 
L 178.506795 106.486586 
L 179.359336 108.076673 
L 180.211876 109.555017 
L 181.064416 110.923434 
L 181.916956 112.183701 
L 182.769496 113.337559 
L 183.622037 114.386711 
L 184.474577 115.332821 
L 185.327117 116.177523 
L 186.179657 116.922412 
L 187.032197 117.569052 
L 187.884738 118.118975 
L 188.737278 118.57368 
L 189.589818 118.934636 
L 190.442358 119.203281 
L 191.294898 119.381024 
L 192.147439 119.469247 
L 192.999979 119.469302 
L 193.852519 119.382516 
L 194.705059 119.210187 
L 195.5576 118.953589 
L 196.41014 118.61397 
L 197.26268 118.192555 
L 198.11522 117.690544 
L 198.96776 117.109112 
L 199.820301 116.449415 
L 200.672841 115.712582 
L 201.525381 114.899725 
L 202.377921 114.011932 
L 203.230461 113.05027 
L 204.083002 112.015788 
L 204.935542 110.909514 
L 205.788082 109.732456 
L 206.640622 108.485605 
L 207.493162 107.169932 
L 208.345703 105.78639 
L 209.198243 104.335916 
L 210.050783 102.819429 
L 210.903323 101.237831 
L 211.755864 99.592008 
L 212.608404 97.88283 
L 213.460944 96.111151 
L 214.313484 94.277809 
L 215.166024 92.383629 
L 216.018565 90.429421 
L 216.871105 88.415979 
L 217.723645 86.344085 
L 218.576185 84.214505 
L 219.428725 82.027995 
L 220.281266 79.785294 
L 221.133806 77.487131 
L 221.986346 75.134222 
L 222.838886 72.727271 
L 223.691426 70.266967 
L 224.543967 67.753992 
L 225.396507 65.189013 
L 226.249047 62.572687 
L 227.101587 59.905661 
L 227.954128 57.188568 
L 228.806668 54.422034 
L 229.659208 51.606673 
L 230.511748 48.743088 
L 231.364288 45.831875 
L 232.216829 42.873617 
L 233.069369 39.868889 
L 233.613676 37.921202 
" style="fill:none;stroke:#66c2a5;stroke-linecap:round;stroke-width:0.5;"/>
   </g>
   <g id="line2d_25">
    <defs>
     <path d="M 0 1.5 
C 0.397805 1.5 0.77937 1.341951 1.06066 1.06066 
C 1.341951 0.77937 1.5 0.397805 1.5 0 
C 1.5 -0.397805 1.341951 -0.77937 1.06066 -1.06066 
C 0.77937 -1.341951 0.397805 -1.5 0 -1.5 
C -0.397805 -1.5 -0.77937 -1.341951 -1.06066 -1.06066 
C -1.341951 -0.77937 -1.5 -0.397805 -1.5 0 
C -1.5 0.397805 -1.341951 0.77937 -1.06066 1.06066 
C -0.77937 1.341951 -0.397805 1.5 0 1.5 
z
" id="m527a9ca292" style="stroke:#66c2a5;stroke-width:0.5;"/>
    </defs>
    <g clip-path="url(#pde04a0680b)">
     <use style="fill:#b2e0d1;stroke:#66c2a5;stroke-width:0.5;" x="224.932904" xlink:href="#m527a9ca292" y="58.187605"/>
    </g>
   </g>
   <g id="line2d_26">
    <g clip-path="url(#pde04a0680b)">
     <use style="fill:#b2e0d1;stroke:#66c2a5;stroke-width:0.5;" x="207.209593" xlink:href="#m527a9ca292" y="105.85587"/>
    </g>
   </g>
   <g id="line2d_27">
    <g clip-path="url(#pde04a0680b)">
     <use style="fill:#b2e0d1;stroke:#66c2a5;stroke-width:0.5;" x="201.045931" xlink:href="#m527a9ca292" y="114.792151"/>
    </g>
   </g>
   <g id="line2d_28">
    <g clip-path="url(#pde04a0680b)">
     <use style="fill:#b2e0d1;stroke:#66c2a5;stroke-width:0.5;" x="184.874349" xlink:href="#m527a9ca292" y="115.308695"/>
    </g>
   </g>
   <g id="line2d_29">
    <g clip-path="url(#pde04a0680b)">
     <use style="fill:#b2e0d1;stroke:#66c2a5;stroke-width:0.5;" x="180.100737" xlink:href="#m527a9ca292" y="108.267911"/>
    </g>
   </g>
   <g id="line2d_30">
    <g clip-path="url(#pde04a0680b)">
     <use style="fill:#b2e0d1;stroke:#66c2a5;stroke-width:0.5;" x="158.826773" xlink:href="#m527a9ca292" y="27.140275"/>
    </g>
   </g>
   <g id="patch_8">
    <path d="M 153.749028 119.480212 
L 153.749028 2.849421 
" style="fill:none;stroke:#000000;stroke-linecap:square;stroke-linejoin:miter;stroke-width:0.35;"/>
   </g>
   <g id="patch_9">
    <path d="M 231.39839 119.480212 
L 231.39839 2.849421 
" style="fill:none;stroke:#000000;stroke-linecap:square;stroke-linejoin:miter;stroke-width:0.35;"/>
   </g>
   <g id="patch_10">
    <path d="M 153.749028 119.480212 
L 231.39839 119.480212 
" style="fill:none;stroke:#000000;stroke-linecap:square;stroke-linejoin:miter;stroke-width:0.35;"/>
   </g>
   <g id="patch_11">
    <path d="M 153.749028 2.849421 
L 231.39839 2.849421 
" style="fill:none;stroke:#000000;stroke-linecap:square;stroke-linejoin:miter;stroke-width:0.35;"/>
   </g>
   <g id="legend_2">
    <g id="line2d_31">
     <path d="M 164.713964 40.332316 
L 172.713964 40.332316 
" style="fill:none;stroke:#66c2a5;stroke-linecap:round;stroke-width:0.5;"/>
    </g>
    <g id="line2d_32"/>
    <g id="text_25">
     <!-- $\frac{1}{4}(K+K^{-1}-2)$ -->
     <defs>
      <path d="M 30 50 
L 36 50 
L 36 28 
L 58 28 
L 58 22 
L 36 22 
L 36 0 
L 30 0 
L 30 22 
L 8 22 
L 8 28 
L 30 28 
z
" id="Helvetica-Light-43"/>
      <path d="M 8 28 
L 58 28 
L 58 22 
L 8 22 
z
" id="Helvetica-Light-8722"/>
     </defs>
     <g transform="translate(176.713964 43.132316)scale(0.08 -0.08)">
      <use transform="translate(0 37.65)scale(0.7)" xlink:href="#Helvetica-Light-49"/>
      <use transform="translate(0 -42.457812)scale(0.7)" xlink:href="#Helvetica-Light-52"/>
      <use transform="translate(51.419994 0.048438)" xlink:href="#Helvetica-Light-40"/>
      <use transform="translate(84.719981 0.048438)" xlink:href="#Helvetica-LightOblique-75"/>
      <use transform="translate(168.079976 0.048438)" xlink:href="#Helvetica-Light-43"/>
      <use transform="translate(250.739958 0.048438)" xlink:href="#Helvetica-LightOblique-75"/>
      <use transform="translate(324.498471 36.30625)scale(0.7)" xlink:href="#Helvetica-Light-8722"/>
      <use transform="translate(370.69846 36.30625)scale(0.7)" xlink:href="#Helvetica-Light-49"/>
      <use transform="translate(428.868295 0.048438)" xlink:href="#Helvetica-Light-8722"/>
      <use transform="translate(511.528277 0.048438)" xlink:href="#Helvetica-Light-50"/>
      <use transform="translate(567.128268 0.048438)" xlink:href="#Helvetica-Light-41"/>
      <path d="M 0 12.65 
L 0 18.9 
L 38.919994 18.9 
L 38.919994 12.65 
L 0 12.65 
z
"/>
     </g>
    </g>
    <g id="LineCollection_7">
     <path d="M 168.713964 57.532316 
L 168.713964 49.532316 
" style="fill:none;stroke:#66c2a5;stroke-width:0.5;"/>
    </g>
    <g id="line2d_33"/>
    <g id="line2d_34">
     <g>
      <use style="fill:#b2e0d1;stroke:#66c2a5;stroke-width:0.5;" x="168.713964" xlink:href="#m527a9ca292" y="53.532316"/>
     </g>
    </g>
    <g id="text_26">
     <!-- from fit -->
     <defs>
      <path d="M 13.5 0 
L 7.5 0 
L 7.5 51.796875 
L 13.5 51.796875 
L 13.5 42.09375 
L 13.703125 42.09375 
Q 16.203125 48.296875 20.140625 50.75 
Q 24.09375 53.203125 30.59375 53.203125 
L 30.59375 46.703125 
Q 25.5 46.796875 22.203125 45.09375 
Q 18.90625 43.40625 16.953125 40.5 
Q 15 37.59375 14.25 33.640625 
Q 13.5 29.703125 13.5 25.40625 
z
" id="Helvetica-Light-114"/>
      <path d="M 27.796875 -1.40625 
Q 22.796875 -1.296875 18.4375 0.390625 
Q 14.09375 2.09375 10.84375 5.5 
Q 7.59375 8.90625 5.6875 14 
Q 3.796875 19.09375 3.796875 25.90625 
Q 3.796875 31.59375 5.296875 36.546875 
Q 6.796875 41.5 9.796875 45.203125 
Q 12.796875 48.90625 17.296875 51.046875 
Q 21.796875 53.203125 27.796875 53.203125 
Q 33.90625 53.203125 38.40625 51.046875 
Q 42.90625 48.90625 45.90625 45.25 
Q 48.90625 41.59375 50.34375 36.59375 
Q 51.796875 31.59375 51.796875 25.90625 
Q 51.796875 19.703125 50.09375 14.703125 
Q 48.40625 9.703125 45.25 6.09375 
Q 42.09375 2.5 37.640625 0.546875 
Q 33.203125 -1.40625 27.796875 -1.40625 
z
M 45.40625 25.90625 
Q 45.40625 30.5 44.40625 34.5 
Q 43.40625 38.5 41.296875 41.453125 
Q 39.203125 44.40625 35.890625 46.09375 
Q 32.59375 47.796875 27.796875 47.796875 
Q 23.09375 47.796875 19.75 45.9375 
Q 16.40625 44.09375 14.296875 41.046875 
Q 12.203125 38 11.203125 34.046875 
Q 10.203125 30.09375 10.203125 25.90625 
Q 10.203125 21.09375 11.34375 17.046875 
Q 12.5 13 14.703125 10.09375 
Q 16.90625 7.203125 20.203125 5.59375 
Q 23.5 4 27.796875 4 
Q 32.5 4 35.84375 5.84375 
Q 39.203125 7.703125 41.296875 10.796875 
Q 43.40625 13.90625 44.40625 17.796875 
Q 45.40625 21.703125 45.40625 25.90625 
z
" id="Helvetica-Light-111"/>
      <path d="M 12.40625 0 
L 6.40625 0 
L 6.40625 51.796875 
L 12.40625 51.796875 
L 12.40625 44 
L 12.59375 44 
Q 14.90625 48.5 19.203125 50.84375 
Q 23.5 53.203125 28.59375 53.203125 
Q 32.203125 53.203125 34.703125 52.390625 
Q 37.203125 51.59375 38.953125 50.25 
Q 40.703125 48.90625 41.84375 47.09375 
Q 43 45.296875 43.796875 43.203125 
Q 46.40625 48.296875 50.75 50.75 
Q 55.09375 53.203125 60.703125 53.203125 
Q 66 53.203125 69.140625 51.453125 
Q 72.296875 49.703125 74 46.84375 
Q 75.703125 44 76.25 40.296875 
Q 76.796875 36.59375 76.796875 32.703125 
L 76.796875 0 
L 70.796875 0 
L 70.796875 35.796875 
Q 70.796875 41.40625 68.4375 44.59375 
Q 66.09375 47.796875 59.703125 47.796875 
Q 56.40625 47.796875 53.34375 46.34375 
Q 50.296875 44.90625 48 41.90625 
Q 47 40.59375 46.34375 38.84375 
Q 45.703125 37.09375 45.296875 35.1875 
Q 44.90625 33.296875 44.75 31.390625 
Q 44.59375 29.5 44.59375 27.90625 
L 44.59375 0 
L 38.59375 0 
L 38.59375 35.796875 
Q 38.59375 41.40625 36.25 44.59375 
Q 33.90625 47.796875 27.5 47.796875 
Q 24.203125 47.796875 21.140625 46.34375 
Q 18.09375 44.90625 15.796875 41.90625 
Q 14.796875 40.59375 14.140625 38.84375 
Q 13.5 37.09375 13.09375 35.1875 
Q 12.703125 33.296875 12.546875 31.390625 
Q 12.40625 29.5 12.40625 27.90625 
z
" id="Helvetica-Light-109"/>
     </defs>
     <g transform="translate(176.713964 56.332316)scale(0.08 -0.08)">
      <use xlink:href="#Helvetica-Light-102"/>
      <use x="27.799988" xlink:href="#Helvetica-Light-114"/>
      <use x="61.099976" xlink:href="#Helvetica-Light-111"/>
      <use x="116.699966" xlink:href="#Helvetica-Light-109"/>
      <use x="199.999954" xlink:href="#Helvetica-Light-32"/>
      <use x="227.799942" xlink:href="#Helvetica-Light-102"/>
      <use x="255.59993" xlink:href="#Helvetica-Light-105"/>
      <use x="277.799927" xlink:href="#Helvetica-Light-116"/>
     </g>
    </g>
   </g>
  </g>
 </g>
 <defs>
  <clipPath id="p4fdd22fc8a">
   <rect height="116.630791" width="77.649362" x="35.33375" y="2.849421"/>
  </clipPath>
  <clipPath id="pde04a0680b">
   <rect height="116.630791" width="77.649362" x="153.749028" y="2.849421"/>
  </clipPath>
 </defs>
</svg>
