<?xml version="1.0" encoding="utf-8" standalone="no"?>
<!DOCTYPE svg PUBLIC "-//W3C//DTD SVG 1.1//EN"
  "http://www.w3.org/Graphics/SVG/1.1/DTD/svg11.dtd">
<!-- Created with matplotlib (https://matplotlib.org/) -->
<svg height="220.576176pt" version="1.1" viewBox="0 0 241.83164 220.576176" width="241.83164pt" xmlns="http://www.w3.org/2000/svg" xmlns:xlink="http://www.w3.org/1999/xlink">
 <defs>
  <style type="text/css">
*{stroke-linecap:butt;stroke-linejoin:round;}
  </style>
 </defs>
 <g id="figure_1">
  <g id="patch_1">
   <path d="M 0 220.576176 
L 241.83164 220.576176 
L 241.83164 0 
L 0 0 
z
" style="fill:none;"/>
  </g>
  <g id="axes_1">
   <g id="patch_2">
    <path d="M 42.167 88.32025 
L 238.23164 88.32025 
L 238.23164 6.27146 
L 42.167 6.27146 
z
" style="fill:none;"/>
   </g>
   <g id="line2d_1">
    <path clip-path="url(#p6fe35072c7)" d="M 42.167 13.384916 
L 44.23057 13.596785 
L 46.29414 14.229872 
L 48.35771 15.27664 
L 50.421279 16.724632 
L 52.484849 18.556615 
L 54.548419 20.750783 
L 56.611989 23.281023 
L 58.675559 26.11722 
L 60.739129 29.225618 
L 62.802699 32.569223 
L 64.866268 36.108238 
L 66.929838 39.800544 
L 68.993408 43.602195 
L 71.056978 47.467945 
L 73.120548 51.351784 
L 75.184118 55.207488 
L 77.247688 58.989167 
L 79.311257 62.651813 
L 81.374827 66.151832 
L 83.438397 69.447569 
L 85.501967 72.499799 
L 87.565537 75.272194 
L 89.629107 77.731759 
L 91.692677 79.849219 
L 93.756246 81.599373 
L 95.819816 82.961392 
L 97.883386 83.919064 
L 99.946956 84.460992 
L 102.010526 84.580727 
L 104.074096 84.276841 
L 106.137666 83.552954 
L 108.201235 82.417679 
L 110.264805 80.88453 
L 112.328375 78.971753 
L 114.391945 76.702113 
L 116.455515 74.102624 
L 118.519085 71.204223 
L 120.582655 68.041408 
L 122.646224 64.651822 
L 124.709794 61.075806 
L 126.773364 57.355921 
L 128.836934 53.536441 
L 130.900504 49.662825 
L 132.964074 45.781175 
L 135.027644 41.93769 
L 137.091213 38.178115 
L 139.154783 34.547194 
L 141.218353 31.088144 
L 143.281923 27.842131 
L 145.345493 24.847791 
L 147.409063 22.14076 
L 149.472633 19.753258 
L 151.536203 17.7137 
L 153.599772 16.04636 
L 155.663342 14.771083 
L 157.726912 13.903046 
L 159.790482 13.452582 
L 161.854052 13.42505 
L 163.917622 13.82078 
L 165.981192 14.635061 
L 168.044761 15.858201 
L 170.108331 17.475644 
L 172.171901 19.468138 
L 174.235471 21.811969 
L 176.299041 24.479243 
L 178.362611 27.438212 
L 180.426181 30.653661 
L 182.48975 34.087319 
L 184.55332 37.69832 
L 186.61689 41.443686 
L 188.68046 45.278842 
L 190.74403 49.158141 
L 192.8076 53.035414 
L 194.87117 56.864513 
L 196.934739 60.599865 
L 198.998309 64.197013 
L 201.061879 67.613145 
L 203.125449 70.807603 
L 205.189019 73.742366 
L 207.252589 76.382506 
L 209.316159 78.6966 
L 211.379728 80.657107 
L 213.443298 82.240693 
L 215.506868 83.42851 
L 217.570438 84.206421 
L 219.634008 84.565168 
L 221.697578 84.500481 
L 223.761148 84.01313 
L 225.824717 83.108915 
L 227.888287 81.798598 
L 229.951857 80.097774 
L 232.015427 78.026686 
L 234.078997 75.609984 
L 236.142567 72.87643 
L 238.206137 69.85856 
L 240.269706 66.59229 
" style="fill:none;stroke:#5e4fa2;stroke-linecap:round;stroke-width:0.5;"/>
   </g>
   <g id="matplotlib.axis_1">
    <g id="xtick_1">
     <g id="line2d_2">
      <defs>
       <path d="M 0 0 
L 0 2 
" id="m3e988e9091" style="stroke:#000000;stroke-width:0.35;"/>
      </defs>
      <g>
       <use style="stroke:#000000;stroke-width:0.35;" x="42.167" xlink:href="#m3e988e9091" y="88.32025"/>
      </g>
     </g>
     <g id="text_1">
      <!-- 0.0 -->
      <defs>
       <path d="M 45.203125 34.703125 
Q 45.203125 40.40625 44.546875 45.84375 
Q 43.90625 51.296875 42 55.59375 
Q 40.09375 59.90625 36.640625 62.5 
Q 33.203125 65.09375 27.59375 65.09375 
Q 22.296875 65.09375 18.9375 62.4375 
Q 15.59375 59.796875 13.6875 55.390625 
Q 11.796875 51 11.046875 45.390625 
Q 10.296875 39.796875 10.296875 34 
Q 10.296875 27.203125 11.140625 21.640625 
Q 12 16.09375 14 12.1875 
Q 16 8.296875 19.34375 6.140625 
Q 22.703125 4 27.796875 4 
Q 33.5 4 36.953125 6.796875 
Q 40.40625 9.59375 42.203125 14 
Q 44 18.40625 44.59375 23.90625 
Q 45.203125 29.40625 45.203125 34.703125 
z
M 27.796875 70.5 
Q 33 70.5 36.796875 68.953125 
Q 40.59375 67.40625 43.25 64.703125 
Q 45.90625 62 47.546875 58.390625 
Q 49.203125 54.796875 50.09375 50.75 
Q 51 46.703125 51.296875 42.390625 
Q 51.59375 38.09375 51.59375 34 
Q 51.59375 27 50.59375 20.59375 
Q 49.59375 14.203125 46.9375 9.296875 
Q 44.296875 4.40625 39.6875 1.5 
Q 35.09375 -1.40625 27.796875 -1.40625 
Q 20.5 -1.40625 15.84375 1.5 
Q 11.203125 4.40625 8.546875 9.34375 
Q 5.90625 14.296875 4.90625 20.84375 
Q 3.90625 27.40625 3.90625 34.703125 
Q 3.90625 41.40625 4.796875 47.796875 
Q 5.703125 54.203125 8.25 59.25 
Q 10.796875 64.296875 15.5 67.390625 
Q 20.203125 70.5 27.796875 70.5 
z
" id="Helvetica-Light-48"/>
       <path d="M 10.203125 0 
L 10.203125 8.796875 
L 17.5 8.796875 
L 17.5 0 
z
" id="Helvetica-Light-46"/>
      </defs>
      <g transform="translate(36.607625 99.08025)scale(0.08 -0.08)">
       <use xlink:href="#Helvetica-Light-48"/>
       <use x="55.599991" xlink:href="#Helvetica-Light-46"/>
       <use x="83.399979" xlink:href="#Helvetica-Light-48"/>
      </g>
     </g>
    </g>
    <g id="xtick_2">
     <g id="line2d_3">
      <g>
       <use style="stroke:#000000;stroke-width:0.35;" x="66.798236" xlink:href="#m3e988e9091" y="88.32025"/>
      </g>
     </g>
     <g id="text_2">
      <!-- 2.5 -->
      <defs>
       <path d="M 6.90625 47.40625 
Q 6.90625 52.59375 8.5 56.84375 
Q 10.09375 61.09375 13.09375 64.140625 
Q 16.09375 67.203125 20.34375 68.84375 
Q 24.59375 70.5 29.796875 70.5 
Q 35.09375 70.5 39.140625 68.953125 
Q 43.203125 67.40625 45.953125 64.796875 
Q 48.703125 62.203125 50.09375 58.59375 
Q 51.5 55 51.5 51 
Q 51.5 46.296875 49.953125 42.6875 
Q 48.40625 39.09375 45.84375 36.296875 
Q 43.296875 33.5 40.046875 31.296875 
Q 36.796875 29.09375 33.390625 27.140625 
Q 30 25.203125 26.703125 23.390625 
Q 23.40625 21.59375 20.796875 19.59375 
Q 19.09375 18.296875 17.5 16.84375 
Q 15.90625 15.40625 14.59375 13.703125 
Q 13.296875 12 12.5 9.953125 
Q 11.703125 7.90625 11.59375 5.40625 
L 50.90625 5.40625 
L 50.90625 0 
L 4.796875 0 
Q 4.90625 5.09375 5.90625 9.1875 
Q 6.90625 13.296875 10.296875 17.203125 
Q 14 21.40625 17.953125 24.40625 
Q 21.90625 27.40625 25.703125 29.75 
Q 29.5 32.09375 32.890625 34.046875 
Q 36.296875 36 38.890625 38.296875 
Q 41.5 40.59375 43 43.5 
Q 44.5 46.40625 44.5 50.59375 
Q 44.5 54 43.296875 56.703125 
Q 42.09375 59.40625 40 61.296875 
Q 37.90625 63.203125 35.09375 64.140625 
Q 32.296875 65.09375 29 65.09375 
Q 25.5 65.09375 22.640625 63.640625 
Q 19.796875 62.203125 17.75 59.796875 
Q 15.703125 57.40625 14.59375 54.203125 
Q 13.5 51 13.703125 47.40625 
z
" id="Helvetica-Light-50"/>
       <path d="M 9.90625 18.296875 
Q 10.90625 11.09375 15.65625 7.546875 
Q 20.40625 4 27.296875 4 
Q 31.203125 4 34.34375 5.390625 
Q 37.5 6.796875 39.703125 9.25 
Q 41.90625 11.703125 43.046875 14.953125 
Q 44.203125 18.203125 44.203125 22 
Q 44.203125 25.90625 42.953125 29.203125 
Q 41.703125 32.5 39.453125 34.890625 
Q 37.203125 37.296875 33.953125 38.59375 
Q 30.703125 39.90625 26.703125 39.90625 
Q 21.90625 39.90625 18.09375 38.15625 
Q 14.296875 36.40625 11.40625 32.59375 
L 6.09375 33.296875 
L 11.796875 69.796875 
L 46.796875 69.796875 
L 46.796875 64.40625 
L 17.203125 64.40625 
L 12.796875 40.703125 
Q 14.90625 42 16.65625 42.890625 
Q 18.40625 43.796875 20.203125 44.34375 
Q 22 44.90625 23.953125 45.09375 
Q 25.90625 45.296875 28.296875 45.296875 
Q 33.09375 45.296875 37.1875 43.6875 
Q 41.296875 42.09375 44.296875 39.09375 
Q 47.296875 36.09375 48.9375 31.75 
Q 50.59375 27.40625 50.59375 22 
Q 50.59375 16.40625 48.75 12.046875 
Q 46.90625 7.703125 43.796875 4.703125 
Q 40.703125 1.703125 36.640625 0.140625 
Q 32.59375 -1.40625 28.296875 -1.40625 
Q 23.296875 -1.40625 18.9375 -0.40625 
Q 14.59375 0.59375 11.296875 2.9375 
Q 8 5.296875 5.953125 9.046875 
Q 3.90625 12.796875 3.5 18.296875 
z
" id="Helvetica-Light-53"/>
      </defs>
      <g transform="translate(61.238861 99.08025)scale(0.08 -0.08)">
       <use xlink:href="#Helvetica-Light-50"/>
       <use x="55.599991" xlink:href="#Helvetica-Light-46"/>
       <use x="83.399979" xlink:href="#Helvetica-Light-53"/>
      </g>
     </g>
    </g>
    <g id="xtick_3">
     <g id="line2d_4">
      <g>
       <use style="stroke:#000000;stroke-width:0.35;" x="91.429472" xlink:href="#m3e988e9091" y="88.32025"/>
      </g>
     </g>
     <g id="text_3">
      <!-- 5.0 -->
      <g transform="translate(85.870097 99.08025)scale(0.08 -0.08)">
       <use xlink:href="#Helvetica-Light-53"/>
       <use x="55.599991" xlink:href="#Helvetica-Light-46"/>
       <use x="83.399979" xlink:href="#Helvetica-Light-48"/>
      </g>
     </g>
    </g>
    <g id="xtick_4">
     <g id="line2d_5">
      <g>
       <use style="stroke:#000000;stroke-width:0.35;" x="116.060709" xlink:href="#m3e988e9091" y="88.32025"/>
      </g>
     </g>
     <g id="text_4">
      <!-- 7.5 -->
      <defs>
       <path d="M 5.90625 69.796875 
L 50.796875 69.796875 
L 50.796875 63.796875 
Q 43.203125 55.203125 37.890625 46.140625 
Q 32.59375 37.09375 29.1875 28.546875 
Q 25.796875 20 24.140625 12.59375 
Q 22.5 5.203125 22.203125 0 
L 15.203125 0 
Q 15.703125 7.59375 18.25 16.140625 
Q 20.796875 24.703125 24.59375 33.09375 
Q 28.40625 41.5 33.203125 49.34375 
Q 38 57.203125 43.09375 63.40625 
L 5.90625 63.40625 
z
" id="Helvetica-Light-55"/>
      </defs>
      <g transform="translate(110.501334 99.08025)scale(0.08 -0.08)">
       <use xlink:href="#Helvetica-Light-55"/>
       <use x="55.599991" xlink:href="#Helvetica-Light-46"/>
       <use x="83.399979" xlink:href="#Helvetica-Light-53"/>
      </g>
     </g>
    </g>
    <g id="xtick_5">
     <g id="line2d_6">
      <g>
       <use style="stroke:#000000;stroke-width:0.35;" x="140.691945" xlink:href="#m3e988e9091" y="88.32025"/>
      </g>
     </g>
     <g id="text_5">
      <!-- 10.0 -->
      <defs>
       <path d="M 30.203125 52.40625 
L 12 52.40625 
L 12 56.59375 
Q 16 56.90625 19.25 57.40625 
Q 22.5 57.90625 24.953125 59.296875 
Q 27.40625 60.703125 29.046875 63.34375 
Q 30.703125 66 31.5 70.5 
L 36.59375 70.5 
L 36.59375 0 
L 30.203125 0 
z
" id="Helvetica-Light-49"/>
      </defs>
      <g transform="translate(132.90882 99.08025)scale(0.08 -0.08)">
       <use xlink:href="#Helvetica-Light-49"/>
       <use x="55.599991" xlink:href="#Helvetica-Light-48"/>
       <use x="111.199982" xlink:href="#Helvetica-Light-46"/>
       <use x="138.999969" xlink:href="#Helvetica-Light-48"/>
      </g>
     </g>
    </g>
    <g id="xtick_6">
     <g id="line2d_7">
      <g>
       <use style="stroke:#000000;stroke-width:0.35;" x="165.323181" xlink:href="#m3e988e9091" y="88.32025"/>
      </g>
     </g>
     <g id="text_6">
      <!-- 12.5 -->
      <g transform="translate(157.540056 99.08025)scale(0.08 -0.08)">
       <use xlink:href="#Helvetica-Light-49"/>
       <use x="55.599991" xlink:href="#Helvetica-Light-50"/>
       <use x="111.199982" xlink:href="#Helvetica-Light-46"/>
       <use x="138.999969" xlink:href="#Helvetica-Light-53"/>
      </g>
     </g>
    </g>
    <g id="xtick_7">
     <g id="line2d_8">
      <g>
       <use style="stroke:#000000;stroke-width:0.35;" x="189.954417" xlink:href="#m3e988e9091" y="88.32025"/>
      </g>
     </g>
     <g id="text_7">
      <!-- 15.0 -->
      <g transform="translate(182.171292 99.08025)scale(0.08 -0.08)">
       <use xlink:href="#Helvetica-Light-49"/>
       <use x="55.599991" xlink:href="#Helvetica-Light-53"/>
       <use x="111.199982" xlink:href="#Helvetica-Light-46"/>
       <use x="138.999969" xlink:href="#Helvetica-Light-48"/>
      </g>
     </g>
    </g>
    <g id="xtick_8">
     <g id="line2d_9">
      <g>
       <use style="stroke:#000000;stroke-width:0.35;" x="214.585653" xlink:href="#m3e988e9091" y="88.32025"/>
      </g>
     </g>
     <g id="text_8">
      <!-- 17.5 -->
      <g transform="translate(206.802528 99.08025)scale(0.08 -0.08)">
       <use xlink:href="#Helvetica-Light-49"/>
       <use x="55.599991" xlink:href="#Helvetica-Light-55"/>
       <use x="111.199982" xlink:href="#Helvetica-Light-46"/>
       <use x="138.999969" xlink:href="#Helvetica-Light-53"/>
      </g>
     </g>
    </g>
    <g id="text_9">
     <!-- $vt/a$ -->
     <defs>
      <path d="M 7.171875 54.6875 
L 16.703125 54.6875 
L 24.703125 8.203125 
L 50.875 54.6875 
L 60.40625 54.6875 
L 29.296875 0 
L 17.1875 0 
z
" id="DejaVuSans-Oblique-118"/>
      <path d="M 42.28125 54.6875 
L 40.921875 47.703125 
L 23 47.703125 
L 17.1875 18.015625 
Q 16.890625 16.359375 16.75 15.234375 
Q 16.609375 14.109375 16.609375 13.484375 
Q 16.609375 10.359375 18.484375 8.9375 
Q 20.359375 7.515625 24.515625 7.515625 
L 33.59375 7.515625 
L 32.078125 0 
L 23.484375 0 
Q 15.484375 0 11.546875 3.125 
Q 7.625 6.25 7.625 12.59375 
Q 7.625 13.71875 7.765625 15.0625 
Q 7.90625 16.40625 8.203125 18.015625 
L 14.015625 47.703125 
L 6.390625 47.703125 
L 7.8125 54.6875 
L 15.28125 54.6875 
L 18.3125 70.21875 
L 27.296875 70.21875 
L 24.3125 54.6875 
z
" id="DejaVuSans-Oblique-116"/>
      <path d="M 25.390625 72.90625 
L 33.6875 72.90625 
L 8.296875 -9.28125 
L 0 -9.28125 
z
" id="DejaVuSans-47"/>
      <path d="M 53.71875 31.203125 
L 47.609375 0 
L 38.625 0 
L 40.28125 8.296875 
Q 36.328125 3.421875 31.265625 1 
Q 26.21875 -1.421875 20.015625 -1.421875 
Q 13.03125 -1.421875 8.5625 2.84375 
Q 4.109375 7.125 4.109375 13.8125 
Q 4.109375 23.390625 11.75 28.953125 
Q 19.390625 34.515625 32.8125 34.515625 
L 45.3125 34.515625 
L 45.796875 36.921875 
Q 45.90625 37.3125 45.953125 37.765625 
Q 46 38.234375 46 39.203125 
Q 46 43.5625 42.453125 45.96875 
Q 38.921875 48.390625 32.515625 48.390625 
Q 28.125 48.390625 23.5 47.265625 
Q 18.890625 46.140625 14.015625 43.890625 
L 15.578125 52.203125 
Q 20.65625 54.109375 25.515625 55.046875 
Q 30.375 56 34.90625 56 
Q 44.578125 56 49.625 51.796875 
Q 54.6875 47.609375 54.6875 39.59375 
Q 54.6875 37.984375 54.4375 35.8125 
Q 54.203125 33.640625 53.71875 31.203125 
z
M 44 27.484375 
L 35.015625 27.484375 
Q 23.96875 27.484375 18.671875 24.53125 
Q 13.375 21.578125 13.375 15.375 
Q 13.375 11.078125 16.078125 8.640625 
Q 18.796875 6.203125 23.578125 6.203125 
Q 30.90625 6.203125 36.375 11.453125 
Q 41.84375 16.703125 43.609375 25.484375 
z
" id="DejaVuSans-Oblique-97"/>
     </defs>
     <g transform="translate(132.43932 108.47275)scale(0.08 -0.08)">
      <use transform="translate(0 0.09375)" xlink:href="#DejaVuSans-Oblique-118"/>
      <use transform="translate(59.179688 0.09375)" xlink:href="#DejaVuSans-Oblique-116"/>
      <use transform="translate(98.388672 0.09375)" xlink:href="#DejaVuSans-47"/>
      <use transform="translate(132.080078 0.09375)" xlink:href="#DejaVuSans-Oblique-97"/>
     </g>
    </g>
   </g>
   <g id="matplotlib.axis_2">
    <g id="ytick_1">
     <g id="line2d_10">
      <defs>
       <path d="M 0 0 
L -2 0 
" id="m4cf7aab8ce" style="stroke:#000000;stroke-width:0.35;"/>
      </defs>
      <g>
       <use style="stroke:#000000;stroke-width:0.35;" x="42.167" xlink:href="#m4cf7aab8ce" y="84.214646"/>
      </g>
     </g>
     <g id="text_10">
      <!-- 0.076 -->
      <defs>
       <path d="M 43.703125 53.203125 
Q 42.59375 58.59375 39.296875 61.84375 
Q 36 65.09375 30.296875 65.09375 
Q 23.796875 65.09375 20.046875 62 
Q 16.296875 58.90625 14.296875 54.15625 
Q 12.296875 49.40625 11.59375 43.796875 
Q 10.90625 38.203125 10.5 33.203125 
Q 12 35.203125 13.640625 37.203125 
Q 15.296875 39.203125 17.390625 40.75 
Q 19.5 42.296875 22.296875 43.25 
Q 25.09375 44.203125 29 44.203125 
Q 39.703125 44.203125 45.546875 38.140625 
Q 51.40625 32.09375 51.40625 21.5 
Q 51.40625 10.796875 45.5 4.6875 
Q 39.59375 -1.40625 28.796875 -1.40625 
Q 23.5 -1.40625 19 0.34375 
Q 14.5 2.09375 11.203125 6.09375 
Q 7.90625 10.09375 6 16.546875 
Q 4.09375 23 4.09375 32.296875 
Q 4.09375 38.59375 5.1875 45.34375 
Q 6.296875 52.09375 9.140625 57.6875 
Q 12 63.296875 16.953125 66.890625 
Q 21.90625 70.5 29.703125 70.5 
Q 38.09375 70.5 43.6875 66.09375 
Q 49.296875 61.703125 50.296875 53.203125 
z
M 28.796875 38.796875 
Q 25.09375 38.796875 22.140625 37.390625 
Q 19.203125 36 17.140625 33.59375 
Q 15.09375 31.203125 14 28.046875 
Q 12.90625 24.90625 12.90625 21.296875 
Q 12.90625 18.296875 13.75 15.25 
Q 14.59375 12.203125 16.546875 9.703125 
Q 18.5 7.203125 21.5 5.59375 
Q 24.5 4 28.90625 4 
Q 33.40625 4 36.453125 5.546875 
Q 39.5 7.09375 41.390625 9.640625 
Q 43.296875 12.203125 44.140625 15.34375 
Q 45 18.5 45 21.703125 
Q 45 29.90625 41.046875 34.34375 
Q 37.09375 38.796875 28.796875 38.796875 
z
" id="Helvetica-Light-54"/>
      </defs>
      <g transform="translate(17.15325 87.094646)scale(0.08 -0.08)">
       <use xlink:href="#Helvetica-Light-48"/>
       <use x="55.599991" xlink:href="#Helvetica-Light-46"/>
       <use x="83.399979" xlink:href="#Helvetica-Light-48"/>
       <use x="138.999969" xlink:href="#Helvetica-Light-55"/>
       <use x="194.59996" xlink:href="#Helvetica-Light-54"/>
      </g>
     </g>
    </g>
    <g id="ytick_2">
     <g id="line2d_11">
      <g>
       <use style="stroke:#000000;stroke-width:0.35;" x="42.167" xlink:href="#m4cf7aab8ce" y="64.780985"/>
      </g>
     </g>
     <g id="text_11">
      <!-- 0.078 -->
      <defs>
       <path d="M 27.90625 34.5 
Q 24.203125 34.5 21.09375 33.59375 
Q 18 32.703125 15.703125 30.84375 
Q 13.40625 29 12.09375 26.140625 
Q 10.796875 23.296875 10.796875 19.40625 
Q 10.796875 16.09375 12.046875 13.296875 
Q 13.296875 10.5 15.546875 8.453125 
Q 17.796875 6.40625 21.046875 5.203125 
Q 24.296875 4 28.296875 4 
Q 31.796875 4 34.796875 5.140625 
Q 37.796875 6.296875 40.046875 8.390625 
Q 42.296875 10.5 43.546875 13.390625 
Q 44.796875 16.296875 44.796875 19.796875 
Q 44.796875 23.5 43.5 26.25 
Q 42.203125 29 39.890625 30.84375 
Q 37.59375 32.703125 34.5 33.59375 
Q 31.40625 34.5 27.90625 34.5 
z
M 27.59375 65.09375 
Q 24.59375 65.09375 22 64.296875 
Q 19.40625 63.5 17.453125 61.890625 
Q 15.5 60.296875 14.390625 57.890625 
Q 13.296875 55.5 13.296875 52.40625 
Q 13.296875 49.09375 14.546875 46.75 
Q 15.796875 44.40625 17.890625 42.90625 
Q 20 41.40625 22.703125 40.65625 
Q 25.40625 39.90625 28.296875 39.90625 
Q 31.203125 39.90625 33.703125 40.65625 
Q 36.203125 41.40625 38 43.09375 
Q 39.796875 44.796875 40.84375 47.390625 
Q 41.90625 50 41.90625 53.796875 
Q 41.90625 59.203125 38.40625 62.140625 
Q 34.90625 65.09375 27.59375 65.09375 
z
M 16.703125 37.90625 
Q 14.09375 39.5 12.25 40.953125 
Q 10.40625 42.40625 9.203125 44.09375 
Q 8 45.796875 7.453125 47.9375 
Q 6.90625 50.09375 6.90625 53.296875 
Q 6.90625 56.90625 8.5 60.09375 
Q 10.09375 63.296875 12.796875 65.640625 
Q 15.5 68 19.140625 69.296875 
Q 22.796875 70.59375 27 70.5 
Q 31 70.5 34.84375 69.5 
Q 38.703125 68.5 41.703125 66.390625 
Q 44.703125 64.296875 46.5 61.046875 
Q 48.296875 57.796875 48.296875 53.296875 
Q 48.296875 47.796875 46.046875 43.890625 
Q 43.796875 40 38.703125 37.5 
Q 44.5 35.40625 47.84375 30.796875 
Q 51.203125 26.203125 51.203125 20 
Q 51.203125 14.796875 49.453125 10.796875 
Q 47.703125 6.796875 44.453125 4.09375 
Q 41.203125 1.40625 36.59375 0 
Q 32 -1.40625 26.40625 -1.40625 
Q 22.59375 -1.40625 18.640625 -0.09375 
Q 14.703125 1.203125 11.546875 3.796875 
Q 8.40625 6.40625 6.40625 10.296875 
Q 4.40625 14.203125 4.40625 19.40625 
Q 4.40625 25.703125 7.546875 30.640625 
Q 10.703125 35.59375 16.703125 37.90625 
z
" id="Helvetica-Light-56"/>
      </defs>
      <g transform="translate(17.15325 67.660985)scale(0.08 -0.08)">
       <use xlink:href="#Helvetica-Light-48"/>
       <use x="55.599991" xlink:href="#Helvetica-Light-46"/>
       <use x="83.399979" xlink:href="#Helvetica-Light-48"/>
       <use x="138.999969" xlink:href="#Helvetica-Light-55"/>
       <use x="194.59996" xlink:href="#Helvetica-Light-56"/>
      </g>
     </g>
    </g>
    <g id="ytick_3">
     <g id="line2d_12">
      <g>
       <use style="stroke:#000000;stroke-width:0.35;" x="42.167" xlink:href="#m4cf7aab8ce" y="45.347323"/>
      </g>
     </g>
     <g id="text_12">
      <!-- 0.080 -->
      <g transform="translate(17.15325 48.227323)scale(0.08 -0.08)">
       <use xlink:href="#Helvetica-Light-48"/>
       <use x="55.599991" xlink:href="#Helvetica-Light-46"/>
       <use x="83.399979" xlink:href="#Helvetica-Light-48"/>
       <use x="138.999969" xlink:href="#Helvetica-Light-56"/>
       <use x="194.59996" xlink:href="#Helvetica-Light-48"/>
      </g>
     </g>
    </g>
    <g id="ytick_4">
     <g id="line2d_13">
      <g>
       <use style="stroke:#000000;stroke-width:0.35;" x="42.167" xlink:href="#m4cf7aab8ce" y="25.913662"/>
      </g>
     </g>
     <g id="text_13">
      <!-- 0.082 -->
      <g transform="translate(17.15325 28.793662)scale(0.08 -0.08)">
       <use xlink:href="#Helvetica-Light-48"/>
       <use x="55.599991" xlink:href="#Helvetica-Light-46"/>
       <use x="83.399979" xlink:href="#Helvetica-Light-48"/>
       <use x="138.999969" xlink:href="#Helvetica-Light-56"/>
       <use x="194.59996" xlink:href="#Helvetica-Light-50"/>
      </g>
     </g>
    </g>
    <g id="ytick_5">
     <g id="line2d_14">
      <g>
       <use style="stroke:#000000;stroke-width:0.35;" x="42.167" xlink:href="#m4cf7aab8ce" y="6.48"/>
      </g>
     </g>
     <g id="text_14">
      <!-- 0.084 -->
      <defs>
       <path d="M 35.796875 17.40625 
L 3.59375 17.40625 
L 3.59375 22.90625 
L 36.40625 69.796875 
L 42.203125 69.796875 
L 42.203125 22.796875 
L 52 22.796875 
L 52 17.40625 
L 42.203125 17.40625 
L 42.203125 0 
L 35.796875 0 
z
M 9.90625 22.796875 
L 35.796875 22.796875 
L 35.796875 60.203125 
z
" id="Helvetica-Light-52"/>
      </defs>
      <g transform="translate(17.15325 9.36)scale(0.08 -0.08)">
       <use xlink:href="#Helvetica-Light-48"/>
       <use x="55.599991" xlink:href="#Helvetica-Light-46"/>
       <use x="83.399979" xlink:href="#Helvetica-Light-48"/>
       <use x="138.999969" xlink:href="#Helvetica-Light-56"/>
       <use x="194.59996" xlink:href="#Helvetica-Light-52"/>
      </g>
     </g>
    </g>
    <g id="text_15">
     <!-- $S(q;t)$ -->
     <defs>
      <path d="M 60.296875 70.515625 
L 58.40625 60.890625 
Q 53.46875 63.53125 48.609375 64.875 
Q 43.75 66.21875 39.203125 66.21875 
Q 30.375 66.21875 25.140625 62.359375 
Q 19.921875 58.5 19.921875 52.09375 
Q 19.921875 48.578125 21.84375 46.703125 
Q 23.78125 44.828125 31.78125 42.671875 
L 37.703125 41.21875 
Q 47.703125 38.625 51.609375 34.640625 
Q 55.515625 30.671875 55.515625 23.484375 
Q 55.515625 12.453125 46.84375 5.515625 
Q 38.1875 -1.421875 24.03125 -1.421875 
Q 18.21875 -1.421875 12.359375 -0.265625 
Q 6.5 0.875 0.59375 3.21875 
L 2.59375 13.375 
Q 8.015625 10.015625 13.453125 8.296875 
Q 18.890625 6.59375 24.3125 6.59375 
Q 33.546875 6.59375 39.109375 10.6875 
Q 44.671875 14.796875 44.671875 21.390625 
Q 44.671875 25.78125 42.453125 28.046875 
Q 40.234375 30.328125 32.90625 32.171875 
L 27 33.6875 
Q 16.890625 36.328125 13.203125 39.765625 
Q 9.515625 43.21875 9.515625 49.421875 
Q 9.515625 60.296875 17.890625 67.25 
Q 26.265625 74.21875 39.703125 74.21875 
Q 44.921875 74.21875 50.046875 73.28125 
Q 55.171875 72.359375 60.296875 70.515625 
z
" id="DejaVuSans-Oblique-83"/>
      <path d="M 31 75.875 
Q 24.46875 64.65625 21.28125 53.65625 
Q 18.109375 42.671875 18.109375 31.390625 
Q 18.109375 20.125 21.3125 9.0625 
Q 24.515625 -2 31 -13.1875 
L 23.1875 -13.1875 
Q 15.875 -1.703125 12.234375 9.375 
Q 8.59375 20.453125 8.59375 31.390625 
Q 8.59375 42.28125 12.203125 53.3125 
Q 15.828125 64.359375 23.1875 75.875 
z
" id="DejaVuSans-40"/>
      <path d="M 41.703125 8.203125 
Q 38.09375 3.46875 33.171875 1.015625 
Q 28.265625 -1.421875 22.3125 -1.421875 
Q 14.015625 -1.421875 9.296875 4.171875 
Q 4.59375 9.765625 4.59375 19.578125 
Q 4.59375 27.484375 7.5 34.859375 
Q 10.40625 42.234375 15.828125 48.09375 
Q 19.34375 51.90625 23.90625 53.953125 
Q 28.46875 56 33.5 56 
Q 39.546875 56 43.453125 53.609375 
Q 47.359375 51.21875 49.125 46.390625 
L 50.6875 54.59375 
L 59.71875 54.59375 
L 45.125 -20.609375 
L 36.078125 -20.609375 
z
M 13.921875 20.90625 
Q 13.921875 13.671875 16.9375 9.890625 
Q 19.96875 6.109375 25.6875 6.109375 
Q 34.1875 6.109375 40.1875 14.234375 
Q 46.1875 22.359375 46.1875 33.984375 
Q 46.1875 41.015625 43.078125 44.75 
Q 39.984375 48.484375 34.1875 48.484375 
Q 29.9375 48.484375 26.3125 46.5 
Q 22.703125 44.53125 20.015625 40.71875 
Q 17.1875 36.71875 15.546875 31.34375 
Q 13.921875 25.984375 13.921875 20.90625 
z
" id="DejaVuSans-Oblique-113"/>
      <path d="M 11.71875 51.703125 
L 22.015625 51.703125 
L 22.015625 39.3125 
L 11.71875 39.3125 
z
M 11.71875 12.40625 
L 22.015625 12.40625 
L 22.015625 4 
L 14.015625 -11.625 
L 7.71875 -11.625 
L 11.71875 4 
z
" id="DejaVuSans-59"/>
      <path d="M 8.015625 75.875 
L 15.828125 75.875 
Q 23.140625 64.359375 26.78125 53.3125 
Q 30.421875 42.28125 30.421875 31.390625 
Q 30.421875 20.453125 26.78125 9.375 
Q 23.140625 -1.703125 15.828125 -13.1875 
L 8.015625 -13.1875 
Q 14.5 -2 17.703125 9.0625 
Q 20.90625 20.125 20.90625 31.390625 
Q 20.90625 42.671875 17.703125 53.65625 
Q 14.5 64.65625 8.015625 75.875 
z
" id="DejaVuSans-41"/>
     </defs>
     <g transform="translate(13.47325 59.215855)rotate(-90)scale(0.08 -0.08)">
      <use transform="translate(0 0.125)" xlink:href="#DejaVuSans-Oblique-83"/>
      <use transform="translate(63.476562 0.125)" xlink:href="#DejaVuSans-40"/>
      <use transform="translate(102.490234 0.125)" xlink:href="#DejaVuSans-Oblique-113"/>
      <use transform="translate(165.966797 0.125)" xlink:href="#DejaVuSans-59"/>
      <use transform="translate(219.140625 0.125)" xlink:href="#DejaVuSans-Oblique-116"/>
      <use transform="translate(258.349609 0.125)" xlink:href="#DejaVuSans-41"/>
     </g>
    </g>
   </g>
   <g id="line2d_15">
    <defs>
     <path d="M 0 1 
C 0.265203 1 0.51958 0.894634 0.707107 0.707107 
C 0.894634 0.51958 1 0.265203 1 0 
C 1 -0.265203 0.894634 -0.51958 0.707107 -0.707107 
C 0.51958 -0.894634 0.265203 -1 0 -1 
C -0.265203 -1 -0.51958 -0.894634 -0.707107 -0.707107 
C -0.894634 -0.51958 -1 -0.265203 -1 0 
C -1 0.265203 -0.894634 0.51958 -0.707107 0.707107 
C -0.51958 0.894634 -0.265203 1 0 1 
z
" id="md4216d92b0" style="stroke:#5e4fa2;stroke-opacity:0.5;stroke-width:0.5;"/>
    </defs>
    <g clip-path="url(#p6fe35072c7)">
     <use style="fill-opacity:0;stroke:#5e4fa2;stroke-opacity:0.5;stroke-width:0.5;" x="42.167" xlink:href="#md4216d92b0" y="13.469972"/>
     <use style="fill-opacity:0;stroke:#5e4fa2;stroke-opacity:0.5;stroke-width:0.5;" x="44.23057" xlink:href="#md4216d92b0" y="13.677426"/>
     <use style="fill-opacity:0;stroke:#5e4fa2;stroke-opacity:0.5;stroke-width:0.5;" x="46.29414" xlink:href="#md4216d92b0" y="14.297444"/>
     <use style="fill-opacity:0;stroke:#5e4fa2;stroke-opacity:0.5;stroke-width:0.5;" x="48.35771" xlink:href="#md4216d92b0" y="15.323162"/>
     <use style="fill-opacity:0;stroke:#5e4fa2;stroke-opacity:0.5;stroke-width:0.5;" x="50.421279" xlink:href="#md4216d92b0" y="16.743607"/>
     <use style="fill-opacity:0;stroke:#5e4fa2;stroke-opacity:0.5;stroke-width:0.5;" x="52.484849" xlink:href="#md4216d92b0" y="18.54415"/>
     <use style="fill-opacity:0;stroke:#5e4fa2;stroke-opacity:0.5;stroke-width:0.5;" x="54.548419" xlink:href="#md4216d92b0" y="20.70675"/>
     <use style="fill-opacity:0;stroke:#5e4fa2;stroke-opacity:0.5;stroke-width:0.5;" x="56.611989" xlink:href="#md4216d92b0" y="23.20984"/>
     <use style="fill-opacity:0;stroke:#5e4fa2;stroke-opacity:0.5;stroke-width:0.5;" x="58.675559" xlink:href="#md4216d92b0" y="26.027828"/>
     <use style="fill-opacity:0;stroke:#5e4fa2;stroke-opacity:0.5;stroke-width:0.5;" x="60.739129" xlink:href="#md4216d92b0" y="29.130415"/>
     <use style="fill-opacity:0;stroke:#5e4fa2;stroke-opacity:0.5;stroke-width:0.5;" x="62.802699" xlink:href="#md4216d92b0" y="32.482017"/>
     <use style="fill-opacity:0;stroke:#5e4fa2;stroke-opacity:0.5;stroke-width:0.5;" x="64.866268" xlink:href="#md4216d92b0" y="36.041634"/>
     <use style="fill-opacity:0;stroke:#5e4fa2;stroke-opacity:0.5;stroke-width:0.5;" x="66.929838" xlink:href="#md4216d92b0" y="39.763387"/>
     <use style="fill-opacity:0;stroke:#5e4fa2;stroke-opacity:0.5;stroke-width:0.5;" x="68.993408" xlink:href="#md4216d92b0" y="43.597762"/>
     <use style="fill-opacity:0;stroke:#5e4fa2;stroke-opacity:0.5;stroke-width:0.5;" x="71.056978" xlink:href="#md4216d92b0" y="47.493391"/>
     <use style="fill-opacity:0;stroke:#5e4fa2;stroke-opacity:0.5;stroke-width:0.5;" x="73.120548" xlink:href="#md4216d92b0" y="51.399011"/>
     <use style="fill-opacity:0;stroke:#5e4fa2;stroke-opacity:0.5;stroke-width:0.5;" x="75.184118" xlink:href="#md4216d92b0" y="55.26521"/>
     <use style="fill-opacity:0;stroke:#5e4fa2;stroke-opacity:0.5;stroke-width:0.5;" x="77.247688" xlink:href="#md4216d92b0" y="59.045621"/>
     <use style="fill-opacity:0;stroke:#5e4fa2;stroke-opacity:0.5;stroke-width:0.5;" x="79.311257" xlink:href="#md4216d92b0" y="62.697387"/>
     <use style="fill-opacity:0;stroke:#5e4fa2;stroke-opacity:0.5;stroke-width:0.5;" x="81.374827" xlink:href="#md4216d92b0" y="66.180942"/>
     <use style="fill-opacity:0;stroke:#5e4fa2;stroke-opacity:0.5;stroke-width:0.5;" x="83.438397" xlink:href="#md4216d92b0" y="69.45934"/>
     <use style="fill-opacity:0;stroke:#5e4fa2;stroke-opacity:0.5;stroke-width:0.5;" x="85.501967" xlink:href="#md4216d92b0" y="72.497476"/>
     <use style="fill-opacity:0;stroke:#5e4fa2;stroke-opacity:0.5;stroke-width:0.5;" x="87.565537" xlink:href="#md4216d92b0" y="75.261517"/>
     <use style="fill-opacity:0;stroke:#5e4fa2;stroke-opacity:0.5;stroke-width:0.5;" x="89.629107" xlink:href="#md4216d92b0" y="77.718816"/>
     <use style="fill-opacity:0;stroke:#5e4fa2;stroke-opacity:0.5;stroke-width:0.5;" x="91.692677" xlink:href="#md4216d92b0" y="79.838368"/>
     <use style="fill-opacity:0;stroke:#5e4fa2;stroke-opacity:0.5;stroke-width:0.5;" x="93.756246" xlink:href="#md4216d92b0" y="81.591738"/>
     <use style="fill-opacity:0;stroke:#5e4fa2;stroke-opacity:0.5;stroke-width:0.5;" x="95.819816" xlink:href="#md4216d92b0" y="82.954259"/>
     <use style="fill-opacity:0;stroke:#5e4fa2;stroke-opacity:0.5;stroke-width:0.5;" x="97.883386" xlink:href="#md4216d92b0" y="83.906234"/>
     <use style="fill-opacity:0;stroke:#5e4fa2;stroke-opacity:0.5;stroke-width:0.5;" x="99.946956" xlink:href="#md4216d92b0" y="84.433889"/>
     <use style="fill-opacity:0;stroke:#5e4fa2;stroke-opacity:0.5;stroke-width:0.5;" x="102.010526" xlink:href="#md4216d92b0" y="84.529938"/>
     <use style="fill-opacity:0;stroke:#5e4fa2;stroke-opacity:0.5;stroke-width:0.5;" x="104.074096" xlink:href="#md4216d92b0" y="84.193674"/>
     <use style="fill-opacity:0;stroke:#5e4fa2;stroke-opacity:0.5;stroke-width:0.5;" x="106.137666" xlink:href="#md4216d92b0" y="83.430653"/>
     <use style="fill-opacity:0;stroke:#5e4fa2;stroke-opacity:0.5;stroke-width:0.5;" x="108.201235" xlink:href="#md4216d92b0" y="82.252099"/>
     <use style="fill-opacity:0;stroke:#5e4fa2;stroke-opacity:0.5;stroke-width:0.5;" x="110.264805" xlink:href="#md4216d92b0" y="80.674175"/>
     <use style="fill-opacity:0;stroke:#5e4fa2;stroke-opacity:0.5;stroke-width:0.5;" x="112.328375" xlink:href="#md4216d92b0" y="78.717285"/>
     <use style="fill-opacity:0;stroke:#5e4fa2;stroke-opacity:0.5;stroke-width:0.5;" x="114.391945" xlink:href="#md4216d92b0" y="76.405512"/>
     <use style="fill-opacity:0;stroke:#5e4fa2;stroke-opacity:0.5;stroke-width:0.5;" x="116.455515" xlink:href="#md4216d92b0" y="73.766241"/>
     <use style="fill-opacity:0;stroke:#5e4fa2;stroke-opacity:0.5;stroke-width:0.5;" x="118.519085" xlink:href="#md4216d92b0" y="70.829953"/>
     <use style="fill-opacity:0;stroke:#5e4fa2;stroke-opacity:0.5;stroke-width:0.5;" x="120.582655" xlink:href="#md4216d92b0" y="67.630137"/>
     <use style="fill-opacity:0;stroke:#5e4fa2;stroke-opacity:0.5;stroke-width:0.5;" x="122.646224" xlink:href="#md4216d92b0" y="64.203238"/>
     <use style="fill-opacity:0;stroke:#5e4fa2;stroke-opacity:0.5;stroke-width:0.5;" x="124.709794" xlink:href="#md4216d92b0" y="60.588549"/>
     <use style="fill-opacity:0;stroke:#5e4fa2;stroke-opacity:0.5;stroke-width:0.5;" x="126.773364" xlink:href="#md4216d92b0" y="56.82799"/>
     <use style="fill-opacity:0;stroke:#5e4fa2;stroke-opacity:0.5;stroke-width:0.5;" x="128.836934" xlink:href="#md4216d92b0" y="52.965744"/>
     <use style="fill-opacity:0;stroke:#5e4fa2;stroke-opacity:0.5;stroke-width:0.5;" x="130.900504" xlink:href="#md4216d92b0" y="49.047736"/>
     <use style="fill-opacity:0;stroke:#5e4fa2;stroke-opacity:0.5;stroke-width:0.5;" x="132.964074" xlink:href="#md4216d92b0" y="45.120994"/>
     <use style="fill-opacity:0;stroke:#5e4fa2;stroke-opacity:0.5;stroke-width:0.5;" x="135.027644" xlink:href="#md4216d92b0" y="41.232939"/>
     <use style="fill-opacity:0;stroke:#5e4fa2;stroke-opacity:0.5;stroke-width:0.5;" x="137.091213" xlink:href="#md4216d92b0" y="37.430636"/>
     <use style="fill-opacity:0;stroke:#5e4fa2;stroke-opacity:0.5;stroke-width:0.5;" x="139.154783" xlink:href="#md4216d92b0" y="33.760066"/>
     <use style="fill-opacity:0;stroke:#5e4fa2;stroke-opacity:0.5;stroke-width:0.5;" x="141.218353" xlink:href="#md4216d92b0" y="30.265439"/>
     <use style="fill-opacity:0;stroke:#5e4fa2;stroke-opacity:0.5;stroke-width:0.5;" x="143.281923" xlink:href="#md4216d92b0" y="26.988572"/>
     <use style="fill-opacity:0;stroke:#5e4fa2;stroke-opacity:0.5;stroke-width:0.5;" x="145.345493" xlink:href="#md4216d92b0" y="23.968334"/>
     <use style="fill-opacity:0;stroke:#5e4fa2;stroke-opacity:0.5;stroke-width:0.5;" x="147.409063" xlink:href="#md4216d92b0" y="21.240172"/>
     <use style="fill-opacity:0;stroke:#5e4fa2;stroke-opacity:0.5;stroke-width:0.5;" x="149.472633" xlink:href="#md4216d92b0" y="18.835718"/>
     <use style="fill-opacity:0;stroke:#5e4fa2;stroke-opacity:0.5;stroke-width:0.5;" x="151.536203" xlink:href="#md4216d92b0" y="16.782478"/>
     <use style="fill-opacity:0;stroke:#5e4fa2;stroke-opacity:0.5;stroke-width:0.5;" x="153.599772" xlink:href="#md4216d92b0" y="15.103617"/>
     <use style="fill-opacity:0;stroke:#5e4fa2;stroke-opacity:0.5;stroke-width:0.5;" x="155.663342" xlink:href="#md4216d92b0" y="13.817814"/>
     <use style="fill-opacity:0;stroke:#5e4fa2;stroke-opacity:0.5;stroke-width:0.5;" x="157.726912" xlink:href="#md4216d92b0" y="12.939196"/>
     <use style="fill-opacity:0;stroke:#5e4fa2;stroke-opacity:0.5;stroke-width:0.5;" x="159.790482" xlink:href="#md4216d92b0" y="12.477308"/>
     <use style="fill-opacity:0;stroke:#5e4fa2;stroke-opacity:0.5;stroke-width:0.5;" x="161.854052" xlink:href="#md4216d92b0" y="12.437104"/>
     <use style="fill-opacity:0;stroke:#5e4fa2;stroke-opacity:0.5;stroke-width:0.5;" x="163.917622" xlink:href="#md4216d92b0" y="12.818925"/>
     <use style="fill-opacity:0;stroke:#5e4fa2;stroke-opacity:0.5;stroke-width:0.5;" x="165.981192" xlink:href="#md4216d92b0" y="13.618447"/>
     <use style="fill-opacity:0;stroke:#5e4fa2;stroke-opacity:0.5;stroke-width:0.5;" x="168.044761" xlink:href="#md4216d92b0" y="14.826595"/>
     <use style="fill-opacity:0;stroke:#5e4fa2;stroke-opacity:0.5;stroke-width:0.5;" x="170.108331" xlink:href="#md4216d92b0" y="16.429453"/>
     <use style="fill-opacity:0;stroke:#5e4fa2;stroke-opacity:0.5;stroke-width:0.5;" x="172.171901" xlink:href="#md4216d92b0" y="18.4082"/>
     <use style="fill-opacity:0;stroke:#5e4fa2;stroke-opacity:0.5;stroke-width:0.5;" x="174.235471" xlink:href="#md4216d92b0" y="20.739135"/>
     <use style="fill-opacity:0;stroke:#5e4fa2;stroke-opacity:0.5;stroke-width:0.5;" x="176.299041" xlink:href="#md4216d92b0" y="23.393836"/>
     <use style="fill-opacity:0;stroke:#5e4fa2;stroke-opacity:0.5;stroke-width:0.5;" x="178.362611" xlink:href="#md4216d92b0" y="26.339508"/>
     <use style="fill-opacity:0;stroke:#5e4fa2;stroke-opacity:0.5;stroke-width:0.5;" x="180.426181" xlink:href="#md4216d92b0" y="29.539525"/>
     <use style="fill-opacity:0;stroke:#5e4fa2;stroke-opacity:0.5;stroke-width:0.5;" x="182.48975" xlink:href="#md4216d92b0" y="32.954153"/>
     <use style="fill-opacity:0;stroke:#5e4fa2;stroke-opacity:0.5;stroke-width:0.5;" x="184.55332" xlink:href="#md4216d92b0" y="36.541383"/>
     <use style="fill-opacity:0;stroke:#5e4fa2;stroke-opacity:0.5;stroke-width:0.5;" x="186.61689" xlink:href="#md4216d92b0" y="40.257814"/>
     <use style="fill-opacity:0;stroke:#5e4fa2;stroke-opacity:0.5;stroke-width:0.5;" x="188.68046" xlink:href="#md4216d92b0" y="44.059448"/>
     <use style="fill-opacity:0;stroke:#5e4fa2;stroke-opacity:0.5;stroke-width:0.5;" x="190.74403" xlink:href="#md4216d92b0" y="47.902336"/>
     <use style="fill-opacity:0;stroke:#5e4fa2;stroke-opacity:0.5;stroke-width:0.5;" x="192.8076" xlink:href="#md4216d92b0" y="51.742985"/>
     <use style="fill-opacity:0;stroke:#5e4fa2;stroke-opacity:0.5;stroke-width:0.5;" x="194.87117" xlink:href="#md4216d92b0" y="55.538525"/>
     <use style="fill-opacity:0;stroke:#5e4fa2;stroke-opacity:0.5;stroke-width:0.5;" x="196.934739" xlink:href="#md4216d92b0" y="59.246664"/>
     <use style="fill-opacity:0;stroke:#5e4fa2;stroke-opacity:0.5;stroke-width:0.5;" x="198.998309" xlink:href="#md4216d92b0" y="62.825544"/>
     <use style="fill-opacity:0;stroke:#5e4fa2;stroke-opacity:0.5;stroke-width:0.5;" x="201.061879" xlink:href="#md4216d92b0" y="66.233614"/>
     <use style="fill-opacity:0;stroke:#5e4fa2;stroke-opacity:0.5;stroke-width:0.5;" x="203.125449" xlink:href="#md4216d92b0" y="69.42968"/>
     <use style="fill-opacity:0;stroke:#5e4fa2;stroke-opacity:0.5;stroke-width:0.5;" x="205.189019" xlink:href="#md4216d92b0" y="72.373236"/>
     <use style="fill-opacity:0;stroke:#5e4fa2;stroke-opacity:0.5;stroke-width:0.5;" x="207.252589" xlink:href="#md4216d92b0" y="75.025158"/>
     <use style="fill-opacity:0;stroke:#5e4fa2;stroke-opacity:0.5;stroke-width:0.5;" x="209.316159" xlink:href="#md4216d92b0" y="77.348727"/>
     <use style="fill-opacity:0;stroke:#5e4fa2;stroke-opacity:0.5;stroke-width:0.5;" x="211.379728" xlink:href="#md4216d92b0" y="79.310892"/>
     <use style="fill-opacity:0;stroke:#5e4fa2;stroke-opacity:0.5;stroke-width:0.5;" x="213.443298" xlink:href="#md4216d92b0" y="80.883596"/>
     <use style="fill-opacity:0;stroke:#5e4fa2;stroke-opacity:0.5;stroke-width:0.5;" x="215.506868" xlink:href="#md4216d92b0" y="82.044969"/>
     <use style="fill-opacity:0;stroke:#5e4fa2;stroke-opacity:0.5;stroke-width:0.5;" x="217.570438" xlink:href="#md4216d92b0" y="82.780168"/>
     <use style="fill-opacity:0;stroke:#5e4fa2;stroke-opacity:0.5;stroke-width:0.5;" x="219.634008" xlink:href="#md4216d92b0" y="83.08174"/>
     <use style="fill-opacity:0;stroke:#5e4fa2;stroke-opacity:0.5;stroke-width:0.5;" x="221.697578" xlink:href="#md4216d92b0" y="82.949433"/>
     <use style="fill-opacity:0;stroke:#5e4fa2;stroke-opacity:0.5;stroke-width:0.5;" x="223.761148" xlink:href="#md4216d92b0" y="82.38951"/>
     <use style="fill-opacity:0;stroke:#5e4fa2;stroke-opacity:0.5;stroke-width:0.5;" x="225.824717" xlink:href="#md4216d92b0" y="81.413729"/>
     <use style="fill-opacity:0;stroke:#5e4fa2;stroke-opacity:0.5;stroke-width:0.5;" x="227.888287" xlink:href="#md4216d92b0" y="80.038175"/>
     <use style="fill-opacity:0;stroke:#5e4fa2;stroke-opacity:0.5;stroke-width:0.5;" x="229.951857" xlink:href="#md4216d92b0" y="78.282203"/>
     <use style="fill-opacity:0;stroke:#5e4fa2;stroke-opacity:0.5;stroke-width:0.5;" x="232.015427" xlink:href="#md4216d92b0" y="76.167668"/>
     <use style="fill-opacity:0;stroke:#5e4fa2;stroke-opacity:0.5;stroke-width:0.5;" x="234.078997" xlink:href="#md4216d92b0" y="73.718562"/>
     <use style="fill-opacity:0;stroke:#5e4fa2;stroke-opacity:0.5;stroke-width:0.5;" x="236.142567" xlink:href="#md4216d92b0" y="70.961061"/>
     <use style="fill-opacity:0;stroke:#5e4fa2;stroke-opacity:0.5;stroke-width:0.5;" x="238.206137" xlink:href="#md4216d92b0" y="67.92389"/>
     <use style="fill-opacity:0;stroke:#5e4fa2;stroke-opacity:0.5;stroke-width:0.5;" x="240.269706" xlink:href="#md4216d92b0" y="64.638836"/>
    </g>
   </g>
   <g id="patch_3">
    <path d="M 42.167 88.32025 
L 42.167 6.27146 
" style="fill:none;stroke:#000000;stroke-linecap:square;stroke-linejoin:miter;stroke-width:0.35;"/>
   </g>
   <g id="patch_4">
    <path d="M 238.23164 88.32025 
L 238.23164 6.27146 
" style="fill:none;stroke:#000000;stroke-linecap:square;stroke-linejoin:miter;stroke-width:0.35;"/>
   </g>
   <g id="patch_5">
    <path d="M 42.167 88.32025 
L 238.23164 88.32025 
" style="fill:none;stroke:#000000;stroke-linecap:square;stroke-linejoin:miter;stroke-width:0.35;"/>
   </g>
   <g id="patch_6">
    <path d="M 42.167 6.27146 
L 238.23164 6.27146 
" style="fill:none;stroke:#000000;stroke-linecap:square;stroke-linejoin:miter;stroke-width:0.35;"/>
   </g>
   <g id="text_16">
    <!-- N = 12 -->
    <defs>
     <path d="M 14.90625 62.796875 
L 14.703125 62.796875 
L 14.703125 0 
L 7.90625 0 
L 7.90625 72 
L 15.59375 72 
L 57.203125 9.09375 
L 57.40625 9.09375 
L 57.40625 72 
L 64.203125 72 
L 64.203125 0 
L 56.296875 0 
z
" id="Helvetica-Light-78"/>
     <path id="Helvetica-Light-32"/>
     <path d="M 58 31.796875 
L 8 31.796875 
L 8 37.796875 
L 58 37.796875 
z
M 58 12.40625 
L 8 12.40625 
L 8 18.40625 
L 58 18.40625 
z
" id="Helvetica-Light-61"/>
    </defs>
    <g transform="translate(211.762914 85.858786)scale(0.08 -0.08)">
     <use xlink:href="#Helvetica-Light-78"/>
     <use x="72.199982" xlink:href="#Helvetica-Light-32"/>
     <use x="99.999969" xlink:href="#Helvetica-Light-61"/>
     <use x="165.999954" xlink:href="#Helvetica-Light-32"/>
     <use x="193.799942" xlink:href="#Helvetica-Light-49"/>
     <use x="249.399933" xlink:href="#Helvetica-Light-50"/>
    </g>
   </g>
   <g id="legend_1">
    <g id="line2d_16"/>
    <g id="line2d_17">
     <g>
      <use style="fill-opacity:0;stroke:#5e4fa2;stroke-opacity:0.5;stroke-width:0.5;" x="56.009586" xlink:href="#md4216d92b0" y="10.579145"/>
     </g>
    </g>
    <g id="text_17">
     <!-- V = 0.150 -->
     <defs>
      <path d="M 1.796875 72 
L 8.90625 72 
L 30.59375 8 
L 52.203125 72 
L 59.296875 72 
L 34.296875 0 
L 26.796875 0 
z
" id="Helvetica-Light-86"/>
     </defs>
     <g transform="translate(62.009586 13.379145)scale(0.08 -0.08)">
      <use xlink:href="#Helvetica-Light-86"/>
      <use x="61.099991" xlink:href="#Helvetica-Light-32"/>
      <use x="88.899979" xlink:href="#Helvetica-Light-61"/>
      <use x="154.899963" xlink:href="#Helvetica-Light-32"/>
      <use x="182.699951" xlink:href="#Helvetica-Light-48"/>
      <use x="238.299942" xlink:href="#Helvetica-Light-46"/>
      <use x="266.09993" xlink:href="#Helvetica-Light-49"/>
      <use x="321.699921" xlink:href="#Helvetica-Light-53"/>
      <use x="377.299911" xlink:href="#Helvetica-Light-48"/>
     </g>
    </g>
    <g id="line2d_18">
     <path d="M 53.209586 19.971645 
L 58.809586 19.971645 
" style="fill:none;stroke:#5e4fa2;stroke-linecap:round;stroke-width:0.5;"/>
    </g>
    <g id="line2d_19"/>
    <g id="text_18">
     <!-- fit -->
     <defs>
      <path d="M 2 46.796875 
L 2 51.796875 
L 9.703125 51.796875 
L 9.703125 60 
Q 9.703125 66.203125 12.203125 69.796875 
Q 14.703125 73.40625 20.703125 73.40625 
Q 22.09375 73.40625 23.296875 73.296875 
Q 24.5 73.203125 25.703125 73 
L 25.703125 67.5 
Q 23.703125 68 22.09375 68 
Q 19.796875 68 18.5 67.140625 
Q 17.203125 66.296875 16.59375 64.890625 
Q 16 63.5 15.84375 61.75 
Q 15.703125 60 15.703125 58.203125 
L 15.703125 51.796875 
L 25.703125 51.796875 
L 25.703125 46.796875 
L 15.703125 46.796875 
L 15.703125 0 
L 9.703125 0 
L 9.703125 46.796875 
z
" id="Helvetica-Light-102"/>
      <path d="M 8.09375 0 
L 8.09375 51.796875 
L 14.09375 51.796875 
L 14.09375 0 
z
M 7.796875 63.09375 
L 7.796875 72 
L 14.40625 72 
L 14.40625 63.09375 
z
" id="Helvetica-Light-105"/>
      <path d="M 25.40625 -0.203125 
Q 24.296875 -0.40625 22.5 -0.90625 
Q 20.703125 -1.40625 18.5 -1.40625 
Q 14 -1.40625 11.640625 0.84375 
Q 9.296875 3.09375 9.296875 8.90625 
L 9.296875 46.796875 
L 2 46.796875 
L 2 51.796875 
L 9.296875 51.796875 
L 9.296875 66.203125 
L 15.296875 66.203125 
L 15.296875 51.796875 
L 25 51.796875 
L 25 46.796875 
L 15.296875 46.796875 
L 15.296875 11.296875 
Q 15.296875 9.40625 15.390625 8 
Q 15.5 6.59375 16 5.6875 
Q 16.5 4.796875 17.546875 4.390625 
Q 18.59375 4 20.5 4 
Q 21.703125 4 22.953125 4.203125 
Q 24.203125 4.40625 25.40625 4.703125 
z
" id="Helvetica-Light-116"/>
     </defs>
     <g transform="translate(62.009586 22.771645)scale(0.08 -0.08)">
      <use xlink:href="#Helvetica-Light-102"/>
      <use x="27.799988" xlink:href="#Helvetica-Light-105"/>
      <use x="49.999985" xlink:href="#Helvetica-Light-116"/>
     </g>
    </g>
   </g>
  </g>
  <g id="axes_2">
   <g id="patch_7">
    <path d="M 42.167 194.983676 
L 238.23164 194.983676 
L 238.23164 112.934887 
L 42.167 112.934887 
z
" style="fill:none;"/>
   </g>
   <g id="PolyCollection_1">
    <defs>
     <path d="M 28.798956 -106.079274 
L 28.798956 -136.261815 
L 31.049469 -132.142041 
L 33.299981 -128.100562 
L 35.550494 -124.137007 
L 37.801006 -120.251027 
L 40.051518 -116.442292 
L 42.302031 -112.710497 
L 44.552543 -109.055354 
L 46.803056 -105.476601 
L 49.053568 -101.973996 
L 51.30408 -98.54732 
L 53.554593 -95.196376 
L 55.805105 -91.920991 
L 58.055618 -88.721015 
L 60.30613 -85.596324 
L 62.556642 -82.546816 
L 64.807155 -79.572418 
L 67.057667 -76.673079 
L 69.30818 -73.84878 
L 71.558692 -71.099529 
L 73.809204 -68.425361 
L 76.059717 -65.826347 
L 78.310229 -63.302585 
L 80.560741 -60.854213 
L 82.811254 -58.4814 
L 85.061766 -56.184357 
L 87.312279 -53.963335 
L 89.562791 -51.818629 
L 91.813303 -49.750581 
L 94.063816 -47.759584 
L 96.314328 -45.846086 
L 98.564841 -44.010598 
L 100.815353 -42.253696 
L 103.065865 -40.576029 
L 105.316378 -38.978328 
L 107.56689 -37.461419 
L 109.817403 -36.026231 
L 112.067915 -34.67381 
L 114.318427 -33.405345 
L 116.56894 -32.222181 
L 118.819452 -31.12586 
L 121.069965 -30.11815 
L 123.320477 -29.201107 
L 125.570989 -28.377143 
L 127.821502 -27.649136 
L 130.072014 -27.02059 
L 132.322527 -26.495905 
L 134.573039 -26.080847 
L 136.823551 -25.783564 
L 139.074064 -25.617452 
L 141.324576 -25.617335 
L 143.575089 -25.780925 
L 145.825601 -26.069751 
L 148.076113 -26.467474 
L 150.326626 -26.963366 
L 152.577138 -27.549315 
L 154.827651 -28.218766 
L 157.078163 -28.966205 
L 159.328675 -29.786869 
L 161.579188 -30.676564 
L 163.8297 -31.631546 
L 166.080213 -32.648434 
L 168.330725 -33.724151 
L 170.581237 -34.855873 
L 172.83175 -36.040995 
L 175.082262 -37.277102 
L 177.332775 -38.561945 
L 179.583287 -39.893423 
L 181.833799 -41.269564 
L 184.084312 -42.688515 
L 186.334824 -44.148532 
L 188.585337 -45.647963 
L 190.835849 -47.185249 
L 193.086361 -48.758909 
L 195.336874 -50.367537 
L 197.587386 -52.009795 
L 199.837899 -53.684411 
L 202.088411 -55.390171 
L 204.338923 -57.125914 
L 206.589436 -58.890534 
L 208.839948 -60.68297 
L 211.09046 -62.502208 
L 213.340973 -64.347275 
L 215.591485 -66.217239 
L 217.841998 -68.111205 
L 220.09251 -70.028314 
L 222.343022 -71.967739 
L 224.593535 -73.928687 
L 226.844047 -75.910393 
L 229.09456 -77.912121 
L 231.345072 -79.933163 
L 233.595584 -81.972836 
L 235.846097 -84.030482 
L 238.096609 -86.105465 
L 240.347122 -88.197173 
L 242.597634 -90.305015 
L 244.848146 -92.428418 
L 247.098659 -94.566832 
L 249.349171 -96.719723 
L 251.599684 -98.886576 
L 251.599684 -78.897283 
L 251.599684 -78.897283 
L 249.349171 -77.32139 
L 247.098659 -75.755651 
L 244.848146 -74.200441 
L 242.597634 -72.656147 
L 240.347122 -71.123171 
L 238.096609 -69.601929 
L 235.846097 -68.092851 
L 233.595584 -66.596381 
L 231.345072 -65.112982 
L 229.09456 -63.643134 
L 226.844047 -62.187331 
L 224.593535 -60.746091 
L 222.343022 -59.319947 
L 220.09251 -57.909456 
L 217.841998 -56.515195 
L 215.591485 -55.137765 
L 213.340973 -53.777791 
L 211.09046 -52.435924 
L 208.839948 -51.112842 
L 206.589436 -49.809252 
L 204.338923 -48.525892 
L 202.088411 -47.263533 
L 199.837899 -46.022981 
L 197.587386 -44.805078 
L 195.336874 -43.610708 
L 193.086361 -42.440797 
L 190.835849 -41.296318 
L 188.585337 -40.178292 
L 186.334824 -39.087796 
L 184.084312 -38.025966 
L 181.833799 -36.994001 
L 179.583287 -35.993171 
L 177.332775 -35.024824 
L 175.082262 -34.090393 
L 172.83175 -33.191406 
L 170.581237 -32.329499 
L 168.330725 -31.506428 
L 166.080213 -30.724089 
L 163.8297 -29.984533 
L 161.579188 -29.290001 
L 159.328675 -28.64295 
L 157.078163 -28.046104 
L 154.827651 -27.502512 
L 152.577138 -27.015638 
L 150.326626 -26.589493 
L 148.076113 -26.228845 
L 145.825601 -25.939591 
L 143.575089 -25.729537 
L 141.324576 -25.610562 
L 139.074064 -25.610647 
L 136.823551 -25.731455 
L 134.573039 -25.947662 
L 132.322527 -26.249522 
L 130.072014 -26.631111 
L 127.821502 -27.088235 
L 125.570989 -27.617695 
L 123.320477 -28.216941 
L 121.069965 -28.883882 
L 118.819452 -29.616761 
L 116.56894 -30.414086 
L 114.318427 -31.274569 
L 112.067915 -32.197089 
L 109.817403 -33.180668 
L 107.56689 -34.224441 
L 105.316378 -35.327648 
L 103.065865 -36.489612 
L 100.815353 -37.709733 
L 98.564841 -38.987481 
L 96.314328 -40.322381 
L 94.063816 -41.714015 
L 91.813303 -43.162013 
L 89.562791 -44.666048 
L 87.312279 -46.225835 
L 85.061766 -47.841123 
L 82.811254 -49.5117 
L 80.560741 -51.237382 
L 78.310229 -53.018017 
L 76.059717 -54.853479 
L 73.809204 -56.743672 
L 71.558692 -58.688521 
L 69.30818 -60.687977 
L 67.057667 -62.742012 
L 64.807155 -64.850622 
L 62.556642 -67.013821 
L 60.30613 -69.231645 
L 58.055618 -71.504148 
L 55.805105 -73.831402 
L 53.554593 -76.2135 
L 51.30408 -78.650551 
L 49.053568 -81.142679 
L 46.803056 -83.690028 
L 44.552543 -86.292757 
L 42.302031 -88.951043 
L 40.051518 -91.665076 
L 37.801006 -94.435065 
L 35.550494 -97.261233 
L 33.299981 -100.143818 
L 31.049469 -103.083075 
L 28.798956 -106.079274 
z
" id="m28ad0107c4" style="stroke:#9fa2b2;stroke-opacity:0.4;"/>
    </defs>
    <g clip-path="url(#p529202ae8d)">
     <use style="fill:#9fa2b2;fill-opacity:0.4;stroke:#9fa2b2;stroke-opacity:0.4;" x="0" xlink:href="#m28ad0107c4" y="220.576176"/>
    </g>
   </g>
   <g id="matplotlib.axis_3">
    <g id="xtick_9">
     <g id="line2d_20">
      <g>
       <use style="stroke:#000000;stroke-width:0.35;" x="51.079029" xlink:href="#m3e988e9091" y="194.983676"/>
      </g>
     </g>
     <g id="text_19">
      <!-- 0.8 -->
      <g transform="translate(45.519654 205.743676)scale(0.08 -0.08)">
       <use xlink:href="#Helvetica-Light-48"/>
       <use x="55.599991" xlink:href="#Helvetica-Light-46"/>
       <use x="83.399979" xlink:href="#Helvetica-Light-56"/>
      </g>
     </g>
    </g>
    <g id="xtick_10">
     <g id="line2d_21">
      <g>
       <use style="stroke:#000000;stroke-width:0.35;" x="95.639175" xlink:href="#m3e988e9091" y="194.983676"/>
      </g>
     </g>
     <g id="text_20">
      <!-- 0.9 -->
      <defs>
       <path d="M 11.796875 15.5 
Q 12.90625 9.796875 16.25 6.890625 
Q 19.59375 4 25.5 4 
Q 31.796875 4 35.546875 7.09375 
Q 39.296875 10.203125 41.34375 14.890625 
Q 43.40625 19.59375 44.15625 25.046875 
Q 44.90625 30.5 45.09375 35.296875 
L 44.90625 35.5 
Q 41.703125 30.09375 36.953125 27.296875 
Q 32.203125 24.5 25.90625 24.5 
Q 20.90625 24.5 16.90625 26.09375 
Q 12.90625 27.703125 10.046875 30.703125 
Q 7.203125 33.703125 5.640625 37.890625 
Q 4.09375 42.09375 4.09375 47.203125 
Q 4.09375 52.203125 5.5 56.453125 
Q 6.90625 60.703125 9.703125 63.84375 
Q 12.5 67 16.75 68.75 
Q 21 70.5 26.796875 70.5 
Q 33.90625 70.5 38.65625 67.703125 
Q 43.40625 64.90625 46.25 60.09375 
Q 49.09375 55.296875 50.296875 48.796875 
Q 51.5 42.296875 51.5 34.90625 
Q 51.5 25.90625 49.59375 19.15625 
Q 47.703125 12.40625 44.25 7.796875 
Q 40.796875 3.203125 36.09375 0.890625 
Q 31.40625 -1.40625 25.796875 -1.40625 
Q 21.703125 -1.40625 18.09375 -0.40625 
Q 14.5 0.59375 11.796875 2.6875 
Q 9.09375 4.796875 7.390625 8 
Q 5.703125 11.203125 5.296875 15.5 
z
M 26.796875 65.09375 
Q 18.703125 64.90625 14.59375 60.09375 
Q 10.5 55.296875 10.5 47 
Q 10.5 38.90625 14.75 34.40625 
Q 19 29.90625 26.796875 29.90625 
Q 30.5 29.90625 33.453125 31.296875 
Q 36.40625 32.703125 38.453125 35.09375 
Q 40.5 37.5 41.546875 40.640625 
Q 42.59375 43.796875 42.59375 47.40625 
Q 42.59375 55.203125 38.390625 60.046875 
Q 34.203125 64.90625 26.796875 65.09375 
z
" id="Helvetica-Light-57"/>
      </defs>
      <g transform="translate(90.0798 205.743676)scale(0.08 -0.08)">
       <use xlink:href="#Helvetica-Light-48"/>
       <use x="55.599991" xlink:href="#Helvetica-Light-46"/>
       <use x="83.399979" xlink:href="#Helvetica-Light-57"/>
      </g>
     </g>
    </g>
    <g id="xtick_11">
     <g id="line2d_22">
      <g>
       <use style="stroke:#000000;stroke-width:0.35;" x="140.19932" xlink:href="#m3e988e9091" y="194.983676"/>
      </g>
     </g>
     <g id="text_21">
      <!-- 1.0 -->
      <g transform="translate(134.639945 205.743676)scale(0.08 -0.08)">
       <use xlink:href="#Helvetica-Light-49"/>
       <use x="55.599991" xlink:href="#Helvetica-Light-46"/>
       <use x="83.399979" xlink:href="#Helvetica-Light-48"/>
      </g>
     </g>
    </g>
    <g id="xtick_12">
     <g id="line2d_23">
      <g>
       <use style="stroke:#000000;stroke-width:0.35;" x="184.759465" xlink:href="#m3e988e9091" y="194.983676"/>
      </g>
     </g>
     <g id="text_22">
      <!-- 1.1 -->
      <g transform="translate(179.20009 205.743676)scale(0.08 -0.08)">
       <use xlink:href="#Helvetica-Light-49"/>
       <use x="55.599991" xlink:href="#Helvetica-Light-46"/>
       <use x="83.399979" xlink:href="#Helvetica-Light-49"/>
      </g>
     </g>
    </g>
    <g id="xtick_13">
     <g id="line2d_24">
      <g>
       <use style="stroke:#000000;stroke-width:0.35;" x="229.319611" xlink:href="#m3e988e9091" y="194.983676"/>
      </g>
     </g>
     <g id="text_23">
      <!-- 1.2 -->
      <g transform="translate(223.760236 205.743676)scale(0.08 -0.08)">
       <use xlink:href="#Helvetica-Light-49"/>
       <use x="55.599991" xlink:href="#Helvetica-Light-46"/>
       <use x="83.399979" xlink:href="#Helvetica-Light-50"/>
      </g>
     </g>
    </g>
    <g id="text_24">
     <!-- Luttinger Parameter  $K$ -->
     <defs>
      <path d="M 8.09375 0 
L 8.09375 72 
L 14.90625 72 
L 14.90625 5.796875 
L 53.5 5.796875 
L 53.5 0 
z
" id="Helvetica-Light-76"/>
      <path d="M 42.296875 51.796875 
L 48.296875 51.796875 
L 48.296875 0 
L 42.296875 0 
L 42.296875 7.203125 
Q 41.09375 5.796875 39.59375 4.296875 
Q 38.09375 2.796875 36.140625 1.546875 
Q 34.203125 0.296875 31.59375 -0.546875 
Q 29 -1.40625 25.59375 -1.40625 
Q 20.40625 -1.40625 16.90625 0.046875 
Q 13.40625 1.5 11.25 4.09375 
Q 9.09375 6.703125 8.140625 10.140625 
Q 7.203125 13.59375 7.203125 17.703125 
L 7.203125 51.796875 
L 13.203125 51.796875 
L 13.203125 17.796875 
Q 13.203125 11.09375 16.296875 7.546875 
Q 19.40625 4 26.5 4 
Q 30.203125 4 33.140625 5.453125 
Q 36.09375 6.90625 38.09375 9.5 
Q 40.09375 12.09375 41.1875 15.6875 
Q 42.296875 19.296875 42.296875 23.59375 
z
" id="Helvetica-Light-117"/>
      <path d="M 13.203125 0 
L 7.203125 0 
L 7.203125 51.796875 
L 13.203125 51.796875 
L 13.203125 44.59375 
Q 16.796875 48.40625 20.640625 50.796875 
Q 24.5 53.203125 29.90625 53.203125 
Q 34.703125 53.203125 38.796875 51.546875 
Q 42.90625 49.90625 45.703125 45.796875 
Q 47.59375 43 47.9375 40.046875 
Q 48.296875 37.09375 48.296875 33.90625 
L 48.296875 0 
L 42.296875 0 
L 42.296875 33.796875 
Q 42.296875 40.796875 39.1875 44.296875 
Q 36.09375 47.796875 28.90625 47.796875 
Q 26.09375 47.796875 23.796875 46.9375 
Q 21.5 46.09375 19.640625 44.6875 
Q 17.796875 43.296875 16.5 41.5 
Q 15.203125 39.703125 14.5 37.703125 
Q 13.59375 35.203125 13.390625 32.890625 
Q 13.203125 30.59375 13.203125 27.90625 
z
" id="Helvetica-Light-110"/>
      <path d="M 47.203125 25.703125 
Q 47.203125 30.40625 46.046875 34.453125 
Q 44.90625 38.5 42.703125 41.453125 
Q 40.5 44.40625 37.203125 46.09375 
Q 33.90625 47.796875 29.703125 47.796875 
Q 25.90625 47.796875 22.703125 46.4375 
Q 19.5 45.09375 17.09375 42.5 
Q 14.703125 39.90625 13.34375 36.15625 
Q 12 32.40625 12 27.5 
Q 11.796875 22.59375 12.796875 18.34375 
Q 13.796875 14.09375 16 10.890625 
Q 18.203125 7.703125 21.59375 5.84375 
Q 25 4 29.703125 4 
Q 33.796875 4 37.046875 5.75 
Q 40.296875 7.5 42.546875 10.453125 
Q 44.796875 13.40625 46 17.34375 
Q 47.203125 21.296875 47.203125 25.703125 
z
M 47.203125 51.796875 
L 53.203125 51.796875 
L 53.203125 5 
Q 53.203125 -0.203125 52.140625 -4.953125 
Q 51.09375 -9.703125 48.390625 -13.296875 
Q 45.703125 -16.90625 41 -19.046875 
Q 36.296875 -21.203125 28.90625 -21.203125 
Q 23.203125 -21.203125 19.09375 -19.75 
Q 15 -18.296875 12.390625 -16.09375 
Q 9.796875 -13.90625 8.4375 -11.25 
Q 7.09375 -8.59375 7 -6.296875 
L 13.40625 -6.296875 
Q 14.09375 -9.203125 15.59375 -11.046875 
Q 17.09375 -12.90625 19.140625 -13.953125 
Q 21.203125 -15 23.703125 -15.390625 
Q 26.203125 -15.796875 28.90625 -15.796875 
Q 35 -15.796875 38.703125 -13.6875 
Q 42.40625 -11.59375 44.296875 -8.1875 
Q 46.203125 -4.796875 46.75 -0.5 
Q 47.296875 3.796875 47.203125 8.296875 
Q 44.296875 3.5 39.25 1.046875 
Q 34.203125 -1.40625 28.703125 -1.40625 
Q 22.796875 -1.40625 18.4375 0.84375 
Q 14.09375 3.09375 11.25 6.84375 
Q 8.40625 10.59375 7 15.59375 
Q 5.59375 20.59375 5.59375 26 
Q 5.59375 31.703125 6.890625 36.703125 
Q 8.203125 41.703125 11.046875 45.34375 
Q 13.90625 49 18.296875 51.09375 
Q 22.703125 53.203125 29 53.203125 
Q 31.5 53.203125 34.09375 52.5 
Q 36.703125 51.796875 39.140625 50.5 
Q 41.59375 49.203125 43.640625 47.203125 
Q 45.703125 45.203125 47 42.703125 
L 47.203125 42.703125 
z
" id="Helvetica-Light-103"/>
      <path d="M 44.703125 29.5 
Q 44.703125 33.296875 43.640625 36.640625 
Q 42.59375 40 40.546875 42.453125 
Q 38.5 44.90625 35.390625 46.34375 
Q 32.296875 47.796875 28.296875 47.796875 
Q 24.296875 47.796875 21.25 46.296875 
Q 18.203125 44.796875 16.046875 42.296875 
Q 13.90625 39.796875 12.59375 36.5 
Q 11.296875 33.203125 10.90625 29.5 
z
M 10.90625 24.5 
Q 10.90625 20.296875 12 16.546875 
Q 13.09375 12.796875 15.25 10.046875 
Q 17.40625 7.296875 20.703125 5.640625 
Q 24 4 28.296875 4 
Q 34.203125 4 38.390625 7.09375 
Q 42.59375 10.203125 44 15.90625 
L 50.703125 15.90625 
Q 49.59375 12.203125 47.796875 9.046875 
Q 46 5.90625 43.296875 3.546875 
Q 40.59375 1.203125 36.890625 -0.09375 
Q 33.203125 -1.40625 28.296875 -1.40625 
Q 22.09375 -1.40625 17.59375 0.6875 
Q 13.09375 2.796875 10.1875 6.4375 
Q 7.296875 10.09375 5.890625 15.046875 
Q 4.5 20 4.5 25.703125 
Q 4.5 31.40625 6.140625 36.40625 
Q 7.796875 41.40625 10.84375 45.15625 
Q 13.90625 48.90625 18.296875 51.046875 
Q 22.703125 53.203125 28.296875 53.203125 
Q 39 53.203125 45.09375 45.84375 
Q 51.203125 38.5 51.09375 24.5 
z
" id="Helvetica-Light-101"/>
      <path d="M 13.5 0 
L 7.5 0 
L 7.5 51.796875 
L 13.5 51.796875 
L 13.5 42.09375 
L 13.703125 42.09375 
Q 16.203125 48.296875 20.140625 50.75 
Q 24.09375 53.203125 30.59375 53.203125 
L 30.59375 46.703125 
Q 25.5 46.796875 22.203125 45.09375 
Q 18.90625 43.40625 16.953125 40.5 
Q 15 37.59375 14.25 33.640625 
Q 13.5 29.703125 13.5 25.40625 
z
" id="Helvetica-Light-114"/>
      <path d="M 7.796875 0 
L 7.796875 72 
L 34.09375 72 
Q 41.09375 72 45.640625 70.390625 
Q 50.203125 68.796875 52.84375 66 
Q 55.5 63.203125 56.546875 59.546875 
Q 57.59375 55.90625 57.59375 51.90625 
Q 57.59375 45.90625 55.140625 42 
Q 52.703125 38.09375 48.796875 35.84375 
Q 44.90625 33.59375 39.953125 32.6875 
Q 35 31.796875 30 31.796875 
L 14.59375 31.796875 
L 14.59375 0 
z
M 30.203125 37.59375 
Q 35 37.59375 38.796875 38.1875 
Q 42.59375 38.796875 45.25 40.4375 
Q 47.90625 42.09375 49.34375 44.9375 
Q 50.796875 47.796875 50.796875 52.40625 
Q 50.796875 59.203125 46.34375 62.703125 
Q 41.90625 66.203125 32.203125 66.203125 
L 14.59375 66.203125 
L 14.59375 37.59375 
z
" id="Helvetica-Light-80"/>
      <path d="M 41.09375 27.203125 
Q 37.296875 25.59375 33.390625 25.09375 
Q 29.5 24.59375 25.59375 24.296875 
Q 18.703125 23.796875 14.84375 21.1875 
Q 11 18.59375 11 13.296875 
Q 11 10.90625 11.953125 9.15625 
Q 12.90625 7.40625 14.453125 6.25 
Q 16 5.09375 18.046875 4.546875 
Q 20.09375 4 22.203125 4 
Q 25.796875 4 29.1875 4.890625 
Q 32.59375 5.796875 35.25 7.640625 
Q 37.90625 9.5 39.5 12.34375 
Q 41.09375 15.203125 41.09375 19.09375 
z
M 31 30.203125 
Q 32.703125 30.40625 35.046875 30.796875 
Q 37.40625 31.203125 38.90625 31.90625 
Q 40.40625 32.59375 40.75 34.25 
Q 41.09375 35.90625 41.09375 37.296875 
Q 41.09375 41.90625 38.140625 44.84375 
Q 35.203125 47.796875 28.203125 47.796875 
Q 25.09375 47.796875 22.5 47.25 
Q 19.90625 46.703125 17.953125 45.34375 
Q 16 44 14.75 41.75 
Q 13.5 39.5 13.09375 36.09375 
L 7 36.09375 
Q 7.296875 40.703125 9.09375 43.953125 
Q 10.90625 47.203125 13.75 49.25 
Q 16.59375 51.296875 20.34375 52.25 
Q 24.09375 53.203125 28.296875 53.203125 
Q 32.203125 53.203125 35.640625 52.34375 
Q 39.09375 51.5 41.640625 49.640625 
Q 44.203125 47.796875 45.640625 44.6875 
Q 47.09375 41.59375 47.09375 37.09375 
L 47.09375 8.90625 
Q 47.09375 5.40625 48.34375 4.453125 
Q 49.59375 3.5 53.40625 4.90625 
L 53.40625 0.203125 
Q 52.703125 0 51.34375 -0.390625 
Q 50 -0.796875 48.703125 -0.796875 
Q 47.296875 -0.796875 46 -0.5 
Q 44.5 -0.296875 43.59375 0.453125 
Q 42.703125 1.203125 42.140625 2.25 
Q 41.59375 3.296875 41.390625 4.546875 
Q 41.203125 5.796875 41.203125 7.203125 
Q 37.40625 3 32.5 0.796875 
Q 27.59375 -1.40625 21.90625 -1.40625 
Q 18.5 -1.40625 15.34375 -0.5 
Q 12.203125 0.40625 9.796875 2.296875 
Q 7.40625 4.203125 6 6.953125 
Q 4.59375 9.703125 4.59375 13.5 
Q 4.59375 26.703125 22.703125 29.09375 
z
" id="Helvetica-Light-97"/>
      <path d="M 12.40625 0 
L 6.40625 0 
L 6.40625 51.796875 
L 12.40625 51.796875 
L 12.40625 44 
L 12.59375 44 
Q 14.90625 48.5 19.203125 50.84375 
Q 23.5 53.203125 28.59375 53.203125 
Q 32.203125 53.203125 34.703125 52.390625 
Q 37.203125 51.59375 38.953125 50.25 
Q 40.703125 48.90625 41.84375 47.09375 
Q 43 45.296875 43.796875 43.203125 
Q 46.40625 48.296875 50.75 50.75 
Q 55.09375 53.203125 60.703125 53.203125 
Q 66 53.203125 69.140625 51.453125 
Q 72.296875 49.703125 74 46.84375 
Q 75.703125 44 76.25 40.296875 
Q 76.796875 36.59375 76.796875 32.703125 
L 76.796875 0 
L 70.796875 0 
L 70.796875 35.796875 
Q 70.796875 41.40625 68.4375 44.59375 
Q 66.09375 47.796875 59.703125 47.796875 
Q 56.40625 47.796875 53.34375 46.34375 
Q 50.296875 44.90625 48 41.90625 
Q 47 40.59375 46.34375 38.84375 
Q 45.703125 37.09375 45.296875 35.1875 
Q 44.90625 33.296875 44.75 31.390625 
Q 44.59375 29.5 44.59375 27.90625 
L 44.59375 0 
L 38.59375 0 
L 38.59375 35.796875 
Q 38.59375 41.40625 36.25 44.59375 
Q 33.90625 47.796875 27.5 47.796875 
Q 24.203125 47.796875 21.140625 46.34375 
Q 18.09375 44.90625 15.796875 41.90625 
Q 14.796875 40.59375 14.140625 38.84375 
Q 13.5 37.09375 13.09375 35.1875 
Q 12.703125 33.296875 12.546875 31.390625 
Q 12.40625 29.5 12.40625 27.90625 
z
" id="Helvetica-Light-109"/>
      <path d="M 16.890625 72.90625 
L 26.8125 72.90625 
L 20.796875 42.1875 
L 59.078125 72.90625 
L 72.21875 72.90625 
L 28.90625 38.09375 
L 60.59375 0 
L 48.578125 0 
L 19.484375 35.5 
L 12.59375 0 
L 2.6875 0 
z
" id="DejaVuSans-Oblique-75"/>
     </defs>
     <g transform="translate(99.99932 215.216176)scale(0.08 -0.08)">
      <use transform="translate(0 0.09375)" xlink:href="#Helvetica-Light-76"/>
      <use transform="translate(55.599991 0.09375)" xlink:href="#Helvetica-Light-117"/>
      <use transform="translate(111.199982 0.09375)" xlink:href="#Helvetica-Light-116"/>
      <use transform="translate(138.999969 0.09375)" xlink:href="#Helvetica-Light-116"/>
      <use transform="translate(166.799957 0.09375)" xlink:href="#Helvetica-Light-105"/>
      <use transform="translate(188.999954 0.09375)" xlink:href="#Helvetica-Light-110"/>
      <use transform="translate(244.599945 0.09375)" xlink:href="#Helvetica-Light-103"/>
      <use transform="translate(305.699936 0.09375)" xlink:href="#Helvetica-Light-101"/>
      <use transform="translate(361.299927 0.09375)" xlink:href="#Helvetica-Light-114"/>
      <use transform="translate(394.599915 0.09375)" xlink:href="#Helvetica-Light-32"/>
      <use transform="translate(422.399902 0.09375)" xlink:href="#Helvetica-Light-80"/>
      <use transform="translate(483.499893 0.09375)" xlink:href="#Helvetica-Light-97"/>
      <use transform="translate(539.099884 0.09375)" xlink:href="#Helvetica-Light-114"/>
      <use transform="translate(572.399872 0.09375)" xlink:href="#Helvetica-Light-97"/>
      <use transform="translate(627.999863 0.09375)" xlink:href="#Helvetica-Light-109"/>
      <use transform="translate(711.29985 0.09375)" xlink:href="#Helvetica-Light-101"/>
      <use transform="translate(766.899841 0.09375)" xlink:href="#Helvetica-Light-116"/>
      <use transform="translate(794.699829 0.09375)" xlink:href="#Helvetica-Light-101"/>
      <use transform="translate(850.29982 0.09375)" xlink:href="#Helvetica-Light-114"/>
      <use transform="translate(883.599808 0.09375)" xlink:href="#Helvetica-Light-32"/>
      <use transform="translate(911.399796 0.09375)" xlink:href="#Helvetica-Light-32"/>
      <use transform="translate(939.199783 0.09375)" xlink:href="#DejaVuSans-Oblique-75"/>
     </g>
    </g>
   </g>
   <g id="matplotlib.axis_4">
    <g id="ytick_6">
     <g id="line2d_25">
      <g>
       <use style="stroke:#000000;stroke-width:0.35;" x="42.167" xlink:href="#m4cf7aab8ce" y="194.983676"/>
      </g>
     </g>
     <g id="text_25">
      <!-- 0.00 -->
      <g transform="translate(21.60075 197.863676)scale(0.08 -0.08)">
       <use xlink:href="#Helvetica-Light-48"/>
       <use x="55.599991" xlink:href="#Helvetica-Light-46"/>
       <use x="83.399979" xlink:href="#Helvetica-Light-48"/>
       <use x="138.999969" xlink:href="#Helvetica-Light-48"/>
      </g>
     </g>
    </g>
    <g id="ytick_7">
     <g id="line2d_26">
      <g>
       <use style="stroke:#000000;stroke-width:0.35;" x="42.167" xlink:href="#m4cf7aab8ce" y="167.63408"/>
      </g>
     </g>
     <g id="text_26">
      <!-- 0.02 -->
      <g transform="translate(21.60075 170.51408)scale(0.08 -0.08)">
       <use xlink:href="#Helvetica-Light-48"/>
       <use x="55.599991" xlink:href="#Helvetica-Light-46"/>
       <use x="83.399979" xlink:href="#Helvetica-Light-48"/>
       <use x="138.999969" xlink:href="#Helvetica-Light-50"/>
      </g>
     </g>
    </g>
    <g id="ytick_8">
     <g id="line2d_27">
      <g>
       <use style="stroke:#000000;stroke-width:0.35;" x="42.167" xlink:href="#m4cf7aab8ce" y="140.284483"/>
      </g>
     </g>
     <g id="text_27">
      <!-- 0.04 -->
      <g transform="translate(21.60075 143.164483)scale(0.08 -0.08)">
       <use xlink:href="#Helvetica-Light-48"/>
       <use x="55.599991" xlink:href="#Helvetica-Light-46"/>
       <use x="83.399979" xlink:href="#Helvetica-Light-48"/>
       <use x="138.999969" xlink:href="#Helvetica-Light-52"/>
      </g>
     </g>
    </g>
    <g id="ytick_9">
     <g id="line2d_28">
      <g>
       <use style="stroke:#000000;stroke-width:0.35;" x="42.167" xlink:href="#m4cf7aab8ce" y="112.934887"/>
      </g>
     </g>
     <g id="text_28">
      <!-- 0.06 -->
      <g transform="translate(21.60075 115.814887)scale(0.08 -0.08)">
       <use xlink:href="#Helvetica-Light-48"/>
       <use x="55.599991" xlink:href="#Helvetica-Light-46"/>
       <use x="83.399979" xlink:href="#Helvetica-Light-48"/>
       <use x="138.999969" xlink:href="#Helvetica-Light-54"/>
      </g>
     </g>
    </g>
    <g id="text_29">
     <!-- Entanglement -->
     <defs>
      <path d="M 8.09375 0 
L 8.09375 72 
L 56 72 
L 56 66.203125 
L 14.90625 66.203125 
L 14.90625 40.203125 
L 52 40.203125 
L 52 34.40625 
L 14.90625 34.40625 
L 14.90625 5.796875 
L 57 5.796875 
L 57 0 
z
" id="Helvetica-Light-69"/>
      <path d="M 8.09375 0 
L 8.09375 72 
L 14.09375 72 
L 14.09375 0 
z
" id="Helvetica-Light-108"/>
     </defs>
     <g transform="translate(9.36 178.633031)rotate(-90)scale(0.08 -0.08)">
      <use xlink:href="#Helvetica-Light-69"/>
      <use x="61.099991" xlink:href="#Helvetica-Light-110"/>
      <use x="116.699982" xlink:href="#Helvetica-Light-116"/>
      <use x="144.499969" xlink:href="#Helvetica-Light-97"/>
      <use x="200.09996" xlink:href="#Helvetica-Light-110"/>
      <use x="255.699951" xlink:href="#Helvetica-Light-103"/>
      <use x="316.799942" xlink:href="#Helvetica-Light-108"/>
      <use x="338.999939" xlink:href="#Helvetica-Light-101"/>
      <use x="394.59993" xlink:href="#Helvetica-Light-109"/>
      <use x="477.899918" xlink:href="#Helvetica-Light-101"/>
      <use x="533.499908" xlink:href="#Helvetica-Light-110"/>
      <use x="589.099899" xlink:href="#Helvetica-Light-116"/>
     </g>
     <!--  Entropy Density -->
     <defs>
      <path d="M 27.796875 -1.40625 
Q 22.796875 -1.296875 18.4375 0.390625 
Q 14.09375 2.09375 10.84375 5.5 
Q 7.59375 8.90625 5.6875 14 
Q 3.796875 19.09375 3.796875 25.90625 
Q 3.796875 31.59375 5.296875 36.546875 
Q 6.796875 41.5 9.796875 45.203125 
Q 12.796875 48.90625 17.296875 51.046875 
Q 21.796875 53.203125 27.796875 53.203125 
Q 33.90625 53.203125 38.40625 51.046875 
Q 42.90625 48.90625 45.90625 45.25 
Q 48.90625 41.59375 50.34375 36.59375 
Q 51.796875 31.59375 51.796875 25.90625 
Q 51.796875 19.703125 50.09375 14.703125 
Q 48.40625 9.703125 45.25 6.09375 
Q 42.09375 2.5 37.640625 0.546875 
Q 33.203125 -1.40625 27.796875 -1.40625 
z
M 45.40625 25.90625 
Q 45.40625 30.5 44.40625 34.5 
Q 43.40625 38.5 41.296875 41.453125 
Q 39.203125 44.40625 35.890625 46.09375 
Q 32.59375 47.796875 27.796875 47.796875 
Q 23.09375 47.796875 19.75 45.9375 
Q 16.40625 44.09375 14.296875 41.046875 
Q 12.203125 38 11.203125 34.046875 
Q 10.203125 30.09375 10.203125 25.90625 
Q 10.203125 21.09375 11.34375 17.046875 
Q 12.5 13 14.703125 10.09375 
Q 16.90625 7.203125 20.203125 5.59375 
Q 23.5 4 27.796875 4 
Q 32.5 4 35.84375 5.84375 
Q 39.203125 7.703125 41.296875 10.796875 
Q 43.40625 13.90625 44.40625 17.796875 
Q 45.40625 21.703125 45.40625 25.90625 
z
" id="Helvetica-Light-111"/>
      <path d="M 13.90625 25.703125 
Q 13.90625 21.296875 15.09375 17.34375 
Q 16.296875 13.40625 18.546875 10.453125 
Q 20.796875 7.5 24.046875 5.75 
Q 27.296875 4 31.40625 4 
Q 36 4 39.453125 5.84375 
Q 42.90625 7.703125 45.09375 10.890625 
Q 47.296875 14.09375 48.296875 18.34375 
Q 49.296875 22.59375 49.09375 27.5 
Q 49.09375 32.40625 47.75 36.15625 
Q 46.40625 39.90625 44 42.5 
Q 41.59375 45.09375 38.390625 46.4375 
Q 35.203125 47.796875 31.40625 47.796875 
Q 27.203125 47.796875 23.890625 46.09375 
Q 20.59375 44.40625 18.390625 41.453125 
Q 16.203125 38.5 15.046875 34.453125 
Q 13.90625 30.40625 13.90625 25.703125 
z
M 13.90625 -20.40625 
L 7.90625 -20.40625 
L 7.90625 51.796875 
L 13.90625 51.796875 
L 13.90625 42.703125 
L 14.09375 42.703125 
Q 15.40625 45.203125 17.453125 47.203125 
Q 19.5 49.203125 21.953125 50.5 
Q 24.40625 51.796875 27 52.5 
Q 29.59375 53.203125 32.09375 53.203125 
Q 38.40625 53.203125 42.796875 51.09375 
Q 47.203125 49 50.046875 45.34375 
Q 52.90625 41.703125 54.203125 36.703125 
Q 55.5 31.703125 55.5 26 
Q 55.5 20.59375 54.09375 15.59375 
Q 52.703125 10.59375 49.84375 6.84375 
Q 47 3.09375 42.640625 0.84375 
Q 38.296875 -1.40625 32.40625 -1.40625 
Q 26.90625 -1.40625 21.84375 1.046875 
Q 16.796875 3.5 13.90625 8.296875 
z
" id="Helvetica-Light-112"/>
      <path d="M 6.796875 -14.09375 
Q 8 -14.296875 9.25 -14.5 
Q 10.5 -14.703125 11.796875 -14.703125 
Q 14.296875 -14.703125 15.890625 -13.09375 
Q 17.5 -11.5 18.546875 -9.25 
Q 19.59375 -7 20.296875 -4.546875 
Q 21 -2.09375 21.90625 -0.40625 
L 1.796875 51.796875 
L 8.5 51.796875 
L 25.09375 7.296875 
L 41.703125 51.796875 
L 48.203125 51.796875 
L 28.90625 0.703125 
Q 27.09375 -4.203125 25.4375 -8.09375 
Q 23.796875 -12 21.9375 -14.75 
Q 20.09375 -17.5 17.84375 -18.953125 
Q 15.59375 -20.40625 12.5 -20.40625 
Q 10.90625 -20.40625 9.453125 -20.203125 
Q 8 -20 6.796875 -19.703125 
z
" id="Helvetica-Light-121"/>
      <path d="M 8.09375 0 
L 8.09375 72 
L 32.703125 72 
Q 35.703125 72 38.59375 71.84375 
Q 41.5 71.703125 44.296875 71.140625 
Q 47.09375 70.59375 49.75 69.5 
Q 52.40625 68.40625 54.90625 66.59375 
Q 58.5 64 60.796875 60.25 
Q 63.09375 56.5 64.4375 52.34375 
Q 65.796875 48.203125 66.34375 43.953125 
Q 66.90625 39.703125 66.90625 36.09375 
Q 66.90625 32.5 66.453125 28.796875 
Q 66 25.09375 65 21.546875 
Q 64 18 62.34375 14.75 
Q 60.703125 11.5 58.203125 8.796875 
Q 55.703125 6 52.75 4.296875 
Q 49.796875 2.59375 46.546875 1.640625 
Q 43.296875 0.703125 39.796875 0.34375 
Q 36.296875 0 32.703125 0 
z
M 14.90625 5.796875 
L 31.203125 5.796875 
Q 35.796875 5.796875 39.84375 6.34375 
Q 43.90625 6.90625 48.09375 9.09375 
Q 51.703125 10.90625 54 14 
Q 56.296875 17.09375 57.640625 20.75 
Q 59 24.40625 59.546875 28.40625 
Q 60.09375 32.40625 60.09375 36.09375 
Q 60.09375 40 59.59375 44.046875 
Q 59.09375 48.09375 57.6875 51.75 
Q 56.296875 55.40625 53.890625 58.453125 
Q 51.5 61.5 47.703125 63.5 
Q 44.5 65.203125 40.09375 65.703125 
Q 35.703125 66.203125 31.203125 66.203125 
L 14.90625 66.203125 
z
" id="Helvetica-Light-68"/>
      <path d="M 10.703125 16.203125 
Q 12.09375 9.5 15.75 6.75 
Q 19.40625 4 26.203125 4 
Q 29.5 4 31.890625 4.796875 
Q 34.296875 5.59375 35.84375 6.9375 
Q 37.40625 8.296875 38.203125 10 
Q 39 11.703125 39 13.59375 
Q 39 17.40625 36.546875 19.25 
Q 34.09375 21.09375 30.390625 22.140625 
Q 26.703125 23.203125 22.390625 23.953125 
Q 18.09375 24.703125 14.390625 26.203125 
Q 10.703125 27.703125 8.25 30.5 
Q 5.796875 33.296875 5.796875 38.40625 
Q 5.796875 44.90625 10.546875 49.046875 
Q 15.296875 53.203125 24 53.203125 
Q 32.40625 53.203125 37.65625 49.453125 
Q 42.90625 45.703125 44 36.90625 
L 37.90625 36.90625 
Q 37.09375 42.90625 33.34375 45.34375 
Q 29.59375 47.796875 23.90625 47.796875 
Q 18.203125 47.796875 15.203125 45.34375 
Q 12.203125 42.90625 12.203125 38.90625 
Q 12.203125 35.40625 14.640625 33.546875 
Q 17.09375 31.703125 20.796875 30.546875 
Q 24.5 29.40625 28.796875 28.5 
Q 33.09375 27.59375 36.796875 25.9375 
Q 40.5 24.296875 42.953125 21.5 
Q 45.40625 18.703125 45.40625 13.703125 
Q 45.40625 10 43.796875 7.140625 
Q 42.203125 4.296875 39.390625 2.390625 
Q 36.59375 0.5 32.75 -0.453125 
Q 28.90625 -1.40625 24.296875 -1.40625 
Q 19.703125 -1.40625 16.140625 -0.046875 
Q 12.59375 1.296875 10.09375 3.6875 
Q 7.59375 6.09375 6.1875 9.296875 
Q 4.796875 12.5 4.59375 16.203125 
z
" id="Helvetica-Light-115"/>
     </defs>
     <g transform="translate(17.96825 183.297406)rotate(-90)scale(0.08 -0.08)">
      <use xlink:href="#Helvetica-Light-32"/>
      <use x="27.799988" xlink:href="#Helvetica-Light-69"/>
      <use x="88.899979" xlink:href="#Helvetica-Light-110"/>
      <use x="144.499969" xlink:href="#Helvetica-Light-116"/>
      <use x="172.299957" xlink:href="#Helvetica-Light-114"/>
      <use x="205.599945" xlink:href="#Helvetica-Light-111"/>
      <use x="261.199936" xlink:href="#Helvetica-Light-112"/>
      <use x="322.299927" xlink:href="#Helvetica-Light-121"/>
      <use x="372.299911" xlink:href="#Helvetica-Light-32"/>
      <use x="400.099899" xlink:href="#Helvetica-Light-68"/>
      <use x="472.299881" xlink:href="#Helvetica-Light-101"/>
      <use x="527.899872" xlink:href="#Helvetica-Light-110"/>
      <use x="583.499863" xlink:href="#Helvetica-Light-115"/>
      <use x="633.499847" xlink:href="#Helvetica-Light-105"/>
      <use x="655.699844" xlink:href="#Helvetica-Light-116"/>
      <use x="683.499832" xlink:href="#Helvetica-Light-121"/>
     </g>
    </g>
   </g>
   <g id="LineCollection_1">
    <path clip-path="url(#p529202ae8d)" d="M 225.620241 151.922488 
L 225.620241 150.324087 
" style="fill:none;stroke:#5e4fa2;stroke-width:0.5;"/>
    <path clip-path="url(#p529202ae8d)" d="M 178.834727 182.370997 
L 178.834727 182.150646 
" style="fill:none;stroke:#5e4fa2;stroke-width:0.5;"/>
    <path clip-path="url(#p529202ae8d)" d="M 162.56406 189.922614 
L 162.56406 189.805261 
" style="fill:none;stroke:#5e4fa2;stroke-width:0.5;"/>
    <path clip-path="url(#p529202ae8d)" d="M 140.19932 194.983676 
L 140.19932 194.983676 
" style="fill:none;stroke:#5e4fa2;stroke-width:0.5;"/>
    <path clip-path="url(#p529202ae8d)" d="M 119.874759 190.23644 
L 119.874759 190.14715 
" style="fill:none;stroke:#5e4fa2;stroke-width:0.5;"/>
    <path clip-path="url(#p529202ae8d)" d="M 107.273509 183.64303 
L 107.273509 183.497791 
" style="fill:none;stroke:#5e4fa2;stroke-width:0.5;"/>
    <path clip-path="url(#p529202ae8d)" d="M 51.115078 126.428441 
L 51.115078 126.126471 
" style="fill:none;stroke:#5e4fa2;stroke-width:0.5;"/>
   </g>
   <g id="LineCollection_2">
    <path clip-path="url(#p529202ae8d)" d="M 225.620241 154.705581 
L 225.620241 153.102999 
" style="fill:none;stroke:#d8434e;stroke-width:0.5;"/>
    <path clip-path="url(#p529202ae8d)" d="M 178.834727 182.531097 
L 178.834727 182.009678 
" style="fill:none;stroke:#d8434e;stroke-width:0.5;"/>
    <path clip-path="url(#p529202ae8d)" d="M 162.56406 190.039047 
L 162.56406 189.856023 
" style="fill:none;stroke:#d8434e;stroke-width:0.5;"/>
    <path clip-path="url(#p529202ae8d)" d="M 140.19932 194.983676 
L 140.19932 194.983676 
" style="fill:none;stroke:#d8434e;stroke-width:0.5;"/>
    <path clip-path="url(#p529202ae8d)" d="M 119.874759 190.500208 
L 119.874759 190.311979 
" style="fill:none;stroke:#d8434e;stroke-width:0.5;"/>
    <path clip-path="url(#p529202ae8d)" d="M 107.273509 183.88966 
L 107.273509 183.438577 
" style="fill:none;stroke:#d8434e;stroke-width:0.5;"/>
    <path clip-path="url(#p529202ae8d)" d="M 51.115078 125.834758 
L 51.115078 123.679377 
" style="fill:none;stroke:#d8434e;stroke-width:0.5;"/>
   </g>
   <g id="line2d_29">
    <defs>
     <path d="M 0 1.5 
C 0.397805 1.5 0.77937 1.341951 1.06066 1.06066 
C 1.341951 0.77937 1.5 0.397805 1.5 0 
C 1.5 -0.397805 1.341951 -0.77937 1.06066 -1.06066 
C 0.77937 -1.341951 0.397805 -1.5 0 -1.5 
C -0.397805 -1.5 -0.77937 -1.341951 -1.06066 -1.06066 
C -1.341951 -0.77937 -1.5 -0.397805 -1.5 0 
C -1.5 0.397805 -1.341951 0.77937 -1.06066 1.06066 
C -0.77937 1.341951 -0.397805 1.5 0 1.5 
z
" id="m775713561a" style="stroke:#5e4fa2;stroke-width:0.5;"/>
    </defs>
    <g clip-path="url(#p529202ae8d)">
     <use style="fill:#aea6d0;fill-opacity:0.501961;stroke:#5e4fa2;stroke-width:0.5;" x="225.620241" xlink:href="#m775713561a" y="151.123288"/>
     <use style="fill:#aea6d0;fill-opacity:0.501961;stroke:#5e4fa2;stroke-width:0.5;" x="178.834727" xlink:href="#m775713561a" y="182.260821"/>
     <use style="fill:#aea6d0;fill-opacity:0.501961;stroke:#5e4fa2;stroke-width:0.5;" x="162.56406" xlink:href="#m775713561a" y="189.863937"/>
     <use style="fill:#aea6d0;fill-opacity:0.501961;stroke:#5e4fa2;stroke-width:0.5;" x="140.19932" xlink:href="#m775713561a" y="194.983676"/>
     <use style="fill:#aea6d0;fill-opacity:0.501961;stroke:#5e4fa2;stroke-width:0.5;" x="119.874759" xlink:href="#m775713561a" y="190.191795"/>
     <use style="fill:#aea6d0;fill-opacity:0.501961;stroke:#5e4fa2;stroke-width:0.5;" x="107.273509" xlink:href="#m775713561a" y="183.570411"/>
     <use style="fill:#aea6d0;fill-opacity:0.501961;stroke:#5e4fa2;stroke-width:0.5;" x="51.115078" xlink:href="#m775713561a" y="126.277456"/>
    </g>
   </g>
   <g id="line2d_30">
    <defs>
     <path d="M 0 1.5 
C 0.397805 1.5 0.77937 1.341951 1.06066 1.06066 
C 1.341951 0.77937 1.5 0.397805 1.5 0 
C 1.5 -0.397805 1.341951 -0.77937 1.06066 -1.06066 
C 0.77937 -1.341951 0.397805 -1.5 0 -1.5 
C -0.397805 -1.5 -0.77937 -1.341951 -1.06066 -1.06066 
C -1.341951 -0.77937 -1.5 -0.397805 -1.5 0 
C -1.5 0.397805 -1.341951 0.77937 -1.06066 1.06066 
C -0.77937 1.341951 -0.397805 1.5 0 1.5 
z
" id="m230f168f5e" style="stroke:#d8434e;stroke-width:0.5;"/>
    </defs>
    <g clip-path="url(#p529202ae8d)">
     <use style="fill:#eba0a6;fill-opacity:0.501961;stroke:#d8434e;stroke-width:0.5;" x="225.620241" xlink:href="#m230f168f5e" y="153.90429"/>
     <use style="fill:#eba0a6;fill-opacity:0.501961;stroke:#d8434e;stroke-width:0.5;" x="178.834727" xlink:href="#m230f168f5e" y="182.270387"/>
     <use style="fill:#eba0a6;fill-opacity:0.501961;stroke:#d8434e;stroke-width:0.5;" x="162.56406" xlink:href="#m230f168f5e" y="189.947535"/>
     <use style="fill:#eba0a6;fill-opacity:0.501961;stroke:#d8434e;stroke-width:0.5;" x="140.19932" xlink:href="#m230f168f5e" y="194.983676"/>
     <use style="fill:#eba0a6;fill-opacity:0.501961;stroke:#d8434e;stroke-width:0.5;" x="119.874759" xlink:href="#m230f168f5e" y="190.406093"/>
     <use style="fill:#eba0a6;fill-opacity:0.501961;stroke:#d8434e;stroke-width:0.5;" x="107.273509" xlink:href="#m230f168f5e" y="183.664118"/>
     <use style="fill:#eba0a6;fill-opacity:0.501961;stroke:#d8434e;stroke-width:0.5;" x="51.115078" xlink:href="#m230f168f5e" y="124.757068"/>
    </g>
   </g>
   <g id="patch_8">
    <path d="M 42.167 194.983676 
L 42.167 112.934887 
" style="fill:none;stroke:#000000;stroke-linecap:square;stroke-linejoin:miter;stroke-width:0.35;"/>
   </g>
   <g id="patch_9">
    <path d="M 238.23164 194.983676 
L 238.23164 112.934887 
" style="fill:none;stroke:#000000;stroke-linecap:square;stroke-linejoin:miter;stroke-width:0.35;"/>
   </g>
   <g id="patch_10">
    <path d="M 42.167 194.983676 
L 238.23164 194.983676 
" style="fill:none;stroke:#000000;stroke-linecap:square;stroke-linejoin:miter;stroke-width:0.35;"/>
   </g>
   <g id="patch_11">
    <path d="M 42.167 112.934887 
L 238.23164 112.934887 
" style="fill:none;stroke:#000000;stroke-linecap:square;stroke-linejoin:miter;stroke-width:0.35;"/>
   </g>
   <g id="legend_2">
    <g id="patch_12">
     <path d="M 104.186392 123.714128 
L 109.786392 123.714128 
L 109.786392 118.114128 
L 104.186392 118.114128 
z
" style="fill:#9fa2b2;opacity:0.4;stroke:#9fa2b2;stroke-linejoin:miter;"/>
    </g>
    <g id="text_30">
     <!-- diagonal ensemble -->
     <defs>
      <path d="M 47.203125 26.09375 
Q 47.203125 30.5 46 34.453125 
Q 44.796875 38.40625 42.546875 41.34375 
Q 40.296875 44.296875 37.046875 46.046875 
Q 33.796875 47.796875 29.703125 47.796875 
Q 25 47.796875 21.59375 45.9375 
Q 18.203125 44.09375 16 40.890625 
Q 13.796875 37.703125 12.796875 33.453125 
Q 11.796875 29.203125 12 24.296875 
Q 12 19.40625 13.34375 15.65625 
Q 14.703125 11.90625 17.09375 9.296875 
Q 19.5 6.703125 22.703125 5.34375 
Q 25.90625 4 29.703125 4 
Q 33.90625 4 37.203125 5.703125 
Q 40.5 7.40625 42.703125 10.34375 
Q 44.90625 13.296875 46.046875 17.34375 
Q 47.203125 21.40625 47.203125 26.09375 
z
M 47.203125 72 
L 53.203125 72 
L 53.203125 0 
L 47.203125 0 
L 47.203125 9.09375 
L 47 9.09375 
Q 45.703125 6.5 43.640625 4.546875 
Q 41.59375 2.59375 39.140625 1.296875 
Q 36.703125 0 34.09375 -0.703125 
Q 31.5 -1.40625 29 -1.40625 
Q 22.703125 -1.40625 18.296875 0.6875 
Q 13.90625 2.796875 11.046875 6.4375 
Q 8.203125 10.09375 6.890625 15.09375 
Q 5.59375 20.09375 5.59375 25.796875 
Q 5.59375 31.203125 7 36.203125 
Q 8.40625 41.203125 11.25 44.953125 
Q 14.09375 48.703125 18.4375 50.953125 
Q 22.796875 53.203125 28.703125 53.203125 
Q 34.203125 53.203125 39.25 50.75 
Q 44.296875 48.296875 47.203125 43.5 
z
" id="Helvetica-Light-100"/>
      <path d="M 13.90625 26.09375 
Q 13.90625 21.40625 15.046875 17.34375 
Q 16.203125 13.296875 18.390625 10.34375 
Q 20.59375 7.40625 23.890625 5.703125 
Q 27.203125 4 31.40625 4 
Q 35.203125 4 38.390625 5.34375 
Q 41.59375 6.703125 44 9.296875 
Q 46.40625 11.90625 47.75 15.65625 
Q 49.09375 19.40625 49.09375 24.296875 
Q 49.296875 29.203125 48.296875 33.453125 
Q 47.296875 37.703125 45.09375 40.890625 
Q 42.90625 44.09375 39.453125 45.9375 
Q 36 47.796875 31.40625 47.796875 
Q 27.296875 47.796875 24.046875 46.046875 
Q 20.796875 44.296875 18.546875 41.34375 
Q 16.296875 38.40625 15.09375 34.453125 
Q 13.90625 30.5 13.90625 26.09375 
z
M 13.90625 0 
L 7.90625 0 
L 7.90625 72 
L 13.90625 72 
L 13.90625 43.5 
Q 16.796875 48.296875 21.84375 50.75 
Q 26.90625 53.203125 32.40625 53.203125 
Q 38.296875 53.203125 42.640625 50.953125 
Q 47 48.703125 49.84375 44.953125 
Q 52.703125 41.203125 54.09375 36.203125 
Q 55.5 31.203125 55.5 25.796875 
Q 55.5 20.09375 54.203125 15.09375 
Q 52.90625 10.09375 50.046875 6.4375 
Q 47.203125 2.796875 42.796875 0.6875 
Q 38.40625 -1.40625 32.09375 -1.40625 
Q 29.59375 -1.40625 27 -0.703125 
Q 24.40625 0 21.953125 1.296875 
Q 19.5 2.59375 17.453125 4.546875 
Q 15.40625 6.5 14.09375 9.09375 
L 13.90625 9.09375 
z
" id="Helvetica-Light-98"/>
     </defs>
     <g transform="translate(112.986392 123.714128)scale(0.08 -0.08)">
      <use xlink:href="#Helvetica-Light-100"/>
      <use x="61.099991" xlink:href="#Helvetica-Light-105"/>
      <use x="83.299988" xlink:href="#Helvetica-Light-97"/>
      <use x="138.899979" xlink:href="#Helvetica-Light-103"/>
      <use x="199.999969" xlink:href="#Helvetica-Light-111"/>
      <use x="255.59996" xlink:href="#Helvetica-Light-110"/>
      <use x="311.199951" xlink:href="#Helvetica-Light-97"/>
      <use x="366.799942" xlink:href="#Helvetica-Light-108"/>
      <use x="388.999939" xlink:href="#Helvetica-Light-32"/>
      <use x="416.799927" xlink:href="#Helvetica-Light-101"/>
      <use x="472.399918" xlink:href="#Helvetica-Light-110"/>
      <use x="527.999908" xlink:href="#Helvetica-Light-115"/>
      <use x="577.999893" xlink:href="#Helvetica-Light-101"/>
      <use x="633.599884" xlink:href="#Helvetica-Light-109"/>
      <use x="716.899872" xlink:href="#Helvetica-Light-98"/>
      <use x="777.999863" xlink:href="#Helvetica-Light-108"/>
      <use x="800.19986" xlink:href="#Helvetica-Light-101"/>
     </g>
    </g>
    <g id="LineCollection_3">
     <path d="M 106.986392 134.370378 
L 106.986392 126.370378 
" style="fill:none;stroke:#5e4fa2;stroke-width:0.5;"/>
    </g>
    <g id="line2d_31"/>
    <g id="line2d_32">
     <g>
      <use style="fill:#aea6d0;fill-opacity:0.501961;stroke:#5e4fa2;stroke-width:0.5;" x="106.986392" xlink:href="#m775713561a" y="130.370378"/>
     </g>
    </g>
    <g id="text_31">
     <!-- particle -->
     <defs>
      <path d="M 43.90625 35.5 
Q 42.296875 41.296875 38.390625 44.546875 
Q 34.5 47.796875 28.5 47.796875 
Q 23.90625 47.796875 20.59375 45.890625 
Q 17.296875 44 15.1875 40.84375 
Q 13.09375 37.703125 12.09375 33.75 
Q 11.09375 29.796875 11.09375 25.796875 
Q 11.09375 21.703125 12.046875 17.796875 
Q 13 13.90625 15.09375 10.796875 
Q 17.203125 7.703125 20.5 5.84375 
Q 23.796875 4 28.5 4 
Q 35.203125 4 39.25 7.703125 
Q 43.296875 11.40625 44.40625 17.90625 
L 50.796875 17.90625 
Q 50 13.59375 48.25 10.046875 
Q 46.5 6.5 43.75 3.953125 
Q 41 1.40625 37.203125 0 
Q 33.40625 -1.40625 28.5 -1.40625 
Q 22.296875 -1.40625 17.796875 0.6875 
Q 13.296875 2.796875 10.390625 6.4375 
Q 7.5 10.09375 6.09375 15.09375 
Q 4.703125 20.09375 4.703125 25.796875 
Q 4.703125 31.203125 6.25 36.140625 
Q 7.796875 41.09375 10.796875 44.890625 
Q 13.796875 48.703125 18.25 50.953125 
Q 22.703125 53.203125 28.5 53.203125 
Q 37.5 53.203125 43.046875 48.890625 
Q 48.59375 44.59375 50 35.5 
z
" id="Helvetica-Light-99"/>
     </defs>
     <g transform="translate(112.986392 133.170378)scale(0.08 -0.08)">
      <use xlink:href="#Helvetica-Light-112"/>
      <use x="61.099991" xlink:href="#Helvetica-Light-97"/>
      <use x="116.699982" xlink:href="#Helvetica-Light-114"/>
      <use x="149.999969" xlink:href="#Helvetica-Light-116"/>
      <use x="177.799957" xlink:href="#Helvetica-Light-105"/>
      <use x="199.999954" xlink:href="#Helvetica-Light-99"/>
      <use x="255.599945" xlink:href="#Helvetica-Light-108"/>
      <use x="277.799942" xlink:href="#Helvetica-Light-101"/>
     </g>
    </g>
    <g id="LineCollection_4">
     <path d="M 106.986392 143.762878 
L 106.986392 135.762878 
" style="fill:none;stroke:#d8434e;stroke-width:0.5;"/>
    </g>
    <g id="line2d_33"/>
    <g id="line2d_34">
     <g>
      <use style="fill:#eba0a6;fill-opacity:0.501961;stroke:#d8434e;stroke-width:0.5;" x="106.986392" xlink:href="#m230f168f5e" y="139.762878"/>
     </g>
    </g>
    <g id="text_32">
     <!-- spatial -->
     <g transform="translate(112.986392 142.562878)scale(0.08 -0.08)">
      <use xlink:href="#Helvetica-Light-115"/>
      <use x="49.999985" xlink:href="#Helvetica-Light-112"/>
      <use x="111.099976" xlink:href="#Helvetica-Light-97"/>
      <use x="166.699966" xlink:href="#Helvetica-Light-116"/>
      <use x="194.499954" xlink:href="#Helvetica-Light-105"/>
      <use x="216.699951" xlink:href="#Helvetica-Light-97"/>
      <use x="272.299942" xlink:href="#Helvetica-Light-108"/>
     </g>
    </g>
   </g>
  </g>
 </g>
 <defs>
  <clipPath id="p6fe35072c7">
   <rect height="82.04879" width="196.06464" x="42.167" y="6.27146"/>
  </clipPath>
  <clipPath id="p529202ae8d">
   <rect height="82.04879" width="196.06464" x="42.167" y="112.934887"/>
  </clipPath>
 </defs>
</svg>
