<?xml version="1.0" encoding="utf-8" standalone="no"?>
<!DOCTYPE svg PUBLIC "-//W3C//DTD SVG 1.1//EN"
  "http://www.w3.org/Graphics/SVG/1.1/DTD/svg11.dtd">
<svg height="213.880172pt" version="1.1" viewBox="0 0 235.410265 213.880172" width="235.410265pt" xmlns="http://www.w3.org/2000/svg" xmlns:xlink="http://www.w3.org/1999/xlink">
 <metadata>
  <rdf:RDF xmlns:cc="http://creativecommons.org/ns#" xmlns:dc="http://purl.org/dc/elements/1.1/" xmlns:rdf="http://www.w3.org/1999/02/22-rdf-syntax-ns#">
   <cc:Work>
    <dc:type rdf:resource="http://purl.org/dc/dcmitype/StillImage"/>
    <dc:date>2021-07-05T14:12:08.776250</dc:date>
    <dc:format>image/svg+xml</dc:format>
    <dc:creator>
     <cc:Agent>
      <dc:title>Matplotlib v3.4.2, https://matplotlib.org/</dc:title>
     </cc:Agent>
    </dc:creator>
   </cc:Work>
  </rdf:RDF>
 </metadata>
 <defs>
  <style type="text/css">*{stroke-linecap:butt;stroke-linejoin:round;}</style>
 </defs>
 <g id="figure_1">
  <g id="patch_1">
   <path d="M 0 213.880172 
L 235.410265 213.880172 
L 235.410265 0 
L 0 0 
z
" style="fill:none;"/>
  </g>
  <g id="axes_1">
   <g id="patch_2">
    <path d="M 38.050928 85.327651 
L 234.115568 85.327651 
L 234.115568 3.278861 
L 38.050928 3.278861 
z
" style="fill:none;"/>
   </g>
   <g id="line2d_1">
    <path clip-path="url(#p2e37f4218b)" d="M 38.050928 10.392317 
L 40.114497 10.604186 
L 42.178067 11.237273 
L 44.241637 12.284041 
L 46.305207 13.732033 
L 48.368777 15.564015 
L 50.432347 17.758184 
L 52.495917 20.288424 
L 54.559486 23.124621 
L 56.623056 26.233019 
L 58.686626 29.576624 
L 60.750196 33.115639 
L 62.813766 36.807945 
L 64.877336 40.609596 
L 66.940906 44.475346 
L 69.004475 48.359185 
L 71.068045 52.214889 
L 73.131615 55.996568 
L 75.195185 59.659213 
L 77.258755 63.159233 
L 79.322325 66.45497 
L 81.385895 69.5072 
L 83.449464 72.279595 
L 85.513034 74.73916 
L 87.576604 76.85662 
L 89.640174 78.606774 
L 91.703744 79.968793 
L 93.767314 80.926465 
L 95.830884 81.468393 
L 97.894454 81.588127 
L 99.958023 81.284242 
L 102.021593 80.560355 
L 104.085163 79.42508 
L 106.148733 77.891931 
L 108.212303 75.979153 
L 110.275873 73.709514 
L 112.339443 71.110025 
L 114.403012 68.211624 
L 116.466582 65.048809 
L 118.530152 61.659223 
L 120.593722 58.083206 
L 122.657292 54.363322 
L 124.720862 50.543842 
L 126.784432 46.670226 
L 128.848001 42.788576 
L 130.911571 38.945091 
L 132.975141 35.185515 
L 135.038711 31.554595 
L 137.102281 28.095544 
L 139.165851 24.849532 
L 141.229421 21.855192 
L 143.29299 19.148161 
L 145.35656 16.760659 
L 147.42013 14.721101 
L 149.4837 13.053761 
L 151.54727 11.778483 
L 153.61084 10.910447 
L 155.67441 10.459982 
L 157.737979 10.432451 
L 159.801549 10.828181 
L 161.865119 11.642462 
L 163.928689 12.865602 
L 165.992259 14.483045 
L 168.055829 16.475539 
L 170.119399 18.81937 
L 172.182968 21.486643 
L 174.246538 24.445613 
L 176.310108 27.661061 
L 178.373678 31.09472 
L 180.437248 34.705721 
L 182.500818 38.451087 
L 184.564388 42.286243 
L 186.627957 46.165542 
L 188.691527 50.042814 
L 190.755097 53.871913 
L 192.818667 57.607266 
L 194.882237 61.204414 
L 196.945807 64.620546 
L 199.009377 67.815004 
L 201.072946 70.749767 
L 203.136516 73.389907 
L 205.200086 75.704001 
L 207.263656 77.664508 
L 209.327226 79.248093 
L 211.390796 80.43591 
L 213.454366 81.213822 
L 215.517935 81.572569 
L 217.581505 81.507882 
L 219.645075 81.02053 
L 221.708645 80.116315 
L 223.772215 78.805998 
L 225.835785 77.105175 
L 227.899355 75.034087 
L 229.962924 72.617385 
L 232.026494 69.883831 
L 234.090064 66.865961 
L 236.153634 63.599691 
" style="fill:none;stroke:#5e4fa2;stroke-linecap:round;stroke-width:0.5;"/>
   </g>
   <g id="matplotlib.axis_1">
    <g id="xtick_1">
     <g id="line2d_2">
      <defs>
       <path d="M 0 0 
L 0 2 
" id="m0443ff208f" style="stroke:#000000;stroke-width:0.35;"/>
      </defs>
      <g>
       <use style="stroke:#000000;stroke-width:0.35;" x="38.050928" xlink:href="#m0443ff208f" y="85.327651"/>
      </g>
     </g>
     <g id="text_1">
      <!-- $\mathdefault{0.0}$ -->
      <g transform="translate(32.640583 95.862452)scale(0.08 -0.08)">
       <defs>
        <path d="M 2688 2038 
C 2688 2430 2682 3099 2413 3613 
C 2176 4063 1798 4224 1466 4224 
C 1158 4224 768 4082 525 3620 
C 269 3137 243 2539 243 2038 
C 243 1671 250 1112 448 623 
C 723 -39 1216 -128 1466 -128 
C 1760 -128 2208 -7 2470 604 
C 2662 1048 2688 1568 2688 2038 
z
M 1466 -26 
C 1056 -26 813 328 723 816 
C 653 1196 653 1749 653 2109 
C 653 2604 653 3015 736 3407 
C 858 3954 1216 4121 1466 4121 
C 1728 4121 2067 3947 2189 3420 
C 2272 3054 2278 2623 2278 2109 
C 2278 1691 2278 1176 2202 797 
C 2067 96 1690 -26 1466 -26 
z
" id="CMR17-30" transform="scale(0.015625)"/>
        <path d="M 1178 307 
C 1178 492 1024 620 870 620 
C 685 620 557 467 557 313 
C 557 128 710 0 864 0 
C 1050 0 1178 153 1178 307 
z
" id="CMMI12-3a" transform="scale(0.015625)"/>
       </defs>
       <use transform="scale(0.996264)" xlink:href="#CMR17-30"/>
       <use transform="translate(45.690477 0)scale(0.996264)" xlink:href="#CMMI12-3a"/>
       <use transform="translate(72.787654 0)scale(0.996264)" xlink:href="#CMR17-30"/>
      </g>
     </g>
    </g>
    <g id="xtick_2">
     <g id="line2d_3">
      <g>
       <use style="stroke:#000000;stroke-width:0.35;" x="62.682164" xlink:href="#m0443ff208f" y="85.327651"/>
      </g>
     </g>
     <g id="text_2">
      <!-- $\mathdefault{2.5}$ -->
      <g transform="translate(57.271819 95.862452)scale(0.08 -0.08)">
       <defs>
        <path d="M 2669 990 
L 2554 990 
C 2490 537 2438 460 2413 422 
C 2381 371 1920 371 1830 371 
L 602 371 
C 832 620 1280 1073 1824 1596 
C 2214 1966 2669 2400 2669 3033 
C 2669 3788 2067 4224 1395 4224 
C 691 4224 262 3603 262 3027 
C 262 2777 448 2745 525 2745 
C 589 2745 781 2783 781 3007 
C 781 3206 614 3264 525 3264 
C 486 3264 448 3257 422 3244 
C 544 3788 915 4057 1306 4057 
C 1862 4057 2227 3616 2227 3033 
C 2227 2477 1901 1998 1536 1583 
L 262 147 
L 262 0 
L 2515 0 
L 2669 990 
z
" id="CMR17-32" transform="scale(0.015625)"/>
        <path d="M 730 3750 
C 794 3724 1056 3641 1325 3641 
C 1920 3641 2246 3961 2432 4140 
C 2432 4191 2432 4224 2394 4224 
C 2387 4224 2374 4224 2323 4198 
C 2099 4102 1837 4032 1517 4032 
C 1325 4032 1037 4055 723 4191 
C 653 4224 640 4224 634 4224 
C 602 4224 595 4217 595 4090 
L 595 2231 
C 595 2113 595 2080 659 2080 
C 691 2080 704 2093 736 2139 
C 941 2435 1222 2560 1542 2560 
C 1766 2560 2246 2415 2246 1293 
C 2246 1087 2246 716 2054 422 
C 1894 159 1645 25 1370 25 
C 947 25 518 319 403 812 
C 429 806 480 793 506 793 
C 589 793 749 838 749 1036 
C 749 1209 627 1280 506 1280 
C 358 1280 262 1190 262 1011 
C 262 454 704 -128 1382 -128 
C 2042 -128 2669 441 2669 1267 
C 2669 2054 2170 2662 1549 2662 
C 1222 2662 947 2540 730 2304 
L 730 3750 
z
" id="CMR17-35" transform="scale(0.015625)"/>
       </defs>
       <use transform="scale(0.996264)" xlink:href="#CMR17-32"/>
       <use transform="translate(45.690477 0)scale(0.996264)" xlink:href="#CMMI12-3a"/>
       <use transform="translate(72.787654 0)scale(0.996264)" xlink:href="#CMR17-35"/>
      </g>
     </g>
    </g>
    <g id="xtick_3">
     <g id="line2d_4">
      <g>
       <use style="stroke:#000000;stroke-width:0.35;" x="87.3134" xlink:href="#m0443ff208f" y="85.327651"/>
      </g>
     </g>
     <g id="text_3">
      <!-- $\mathdefault{5.0}$ -->
      <g transform="translate(81.903055 95.862452)scale(0.08 -0.08)">
       <use transform="scale(0.996264)" xlink:href="#CMR17-35"/>
       <use transform="translate(45.690477 0)scale(0.996264)" xlink:href="#CMMI12-3a"/>
       <use transform="translate(72.787654 0)scale(0.996264)" xlink:href="#CMR17-30"/>
      </g>
     </g>
    </g>
    <g id="xtick_4">
     <g id="line2d_5">
      <g>
       <use style="stroke:#000000;stroke-width:0.35;" x="111.944636" xlink:href="#m0443ff208f" y="85.327651"/>
      </g>
     </g>
     <g id="text_4">
      <!-- $\mathdefault{7.5}$ -->
      <g transform="translate(106.534291 95.862452)scale(0.08 -0.08)">
       <defs>
        <path d="M 2886 3955 
L 2886 4096 
L 1382 4096 
C 634 4096 621 4166 595 4288 
L 480 4288 
L 294 3104 
L 410 3104 
C 429 3226 474 3552 550 3673 
C 589 3724 1062 3724 1171 3724 
L 2579 3724 
L 1869 2670 
C 1395 1961 1069 1003 1069 166 
C 1069 89 1069 -128 1299 -128 
C 1530 -128 1530 89 1530 172 
L 1530 466 
C 1530 1514 1709 2204 2003 2644 
L 2886 3955 
z
" id="CMR17-37" transform="scale(0.015625)"/>
       </defs>
       <use transform="scale(0.996264)" xlink:href="#CMR17-37"/>
       <use transform="translate(45.690477 0)scale(0.996264)" xlink:href="#CMMI12-3a"/>
       <use transform="translate(72.787654 0)scale(0.996264)" xlink:href="#CMR17-35"/>
      </g>
     </g>
    </g>
    <g id="xtick_5">
     <g id="line2d_6">
      <g>
       <use style="stroke:#000000;stroke-width:0.35;" x="136.575872" xlink:href="#m0443ff208f" y="85.327651"/>
      </g>
     </g>
     <g id="text_5">
      <!-- $\mathdefault{10.0}$ -->
      <g transform="translate(129.048436 95.862452)scale(0.08 -0.08)">
       <defs>
        <path d="M 1702 4083 
C 1702 4217 1696 4224 1606 4224 
C 1357 3927 979 3833 621 3820 
C 602 3820 570 3820 563 3808 
C 557 3795 557 3782 557 3648 
C 755 3648 1088 3686 1344 3839 
L 1344 467 
C 1344 243 1331 166 781 166 
L 589 166 
L 589 0 
C 896 6 1216 12 1523 12 
C 1830 12 2150 6 2458 0 
L 2458 166 
L 2266 166 
C 1715 166 1702 236 1702 467 
L 1702 4083 
z
" id="CMR17-31" transform="scale(0.015625)"/>
       </defs>
       <use transform="scale(0.996264)" xlink:href="#CMR17-31"/>
       <use transform="translate(45.690477 0)scale(0.996264)" xlink:href="#CMR17-30"/>
       <use transform="translate(91.380954 0)scale(0.996264)" xlink:href="#CMMI12-3a"/>
       <use transform="translate(118.478131 0)scale(0.996264)" xlink:href="#CMR17-30"/>
      </g>
     </g>
    </g>
    <g id="xtick_6">
     <g id="line2d_7">
      <g>
       <use style="stroke:#000000;stroke-width:0.35;" x="161.207109" xlink:href="#m0443ff208f" y="85.327651"/>
      </g>
     </g>
     <g id="text_6">
      <!-- $\mathdefault{12.5}$ -->
      <g transform="translate(153.679672 95.862452)scale(0.08 -0.08)">
       <use transform="scale(0.996264)" xlink:href="#CMR17-31"/>
       <use transform="translate(45.690477 0)scale(0.996264)" xlink:href="#CMR17-32"/>
       <use transform="translate(91.380954 0)scale(0.996264)" xlink:href="#CMMI12-3a"/>
       <use transform="translate(118.478131 0)scale(0.996264)" xlink:href="#CMR17-35"/>
      </g>
     </g>
    </g>
    <g id="xtick_7">
     <g id="line2d_8">
      <g>
       <use style="stroke:#000000;stroke-width:0.35;" x="185.838345" xlink:href="#m0443ff208f" y="85.327651"/>
      </g>
     </g>
     <g id="text_7">
      <!-- $\mathdefault{15.0}$ -->
      <g transform="translate(178.310909 95.862452)scale(0.08 -0.08)">
       <use transform="scale(0.996264)" xlink:href="#CMR17-31"/>
       <use transform="translate(45.690477 0)scale(0.996264)" xlink:href="#CMR17-35"/>
       <use transform="translate(91.380954 0)scale(0.996264)" xlink:href="#CMMI12-3a"/>
       <use transform="translate(118.478131 0)scale(0.996264)" xlink:href="#CMR17-30"/>
      </g>
     </g>
    </g>
    <g id="xtick_8">
     <g id="line2d_9">
      <g>
       <use style="stroke:#000000;stroke-width:0.35;" x="210.469581" xlink:href="#m0443ff208f" y="85.327651"/>
      </g>
     </g>
     <g id="text_8">
      <!-- $\mathdefault{17.5}$ -->
      <g transform="translate(202.942145 95.862452)scale(0.08 -0.08)">
       <use transform="scale(0.996264)" xlink:href="#CMR17-31"/>
       <use transform="translate(45.690477 0)scale(0.996264)" xlink:href="#CMR17-37"/>
       <use transform="translate(91.380954 0)scale(0.996264)" xlink:href="#CMMI12-3a"/>
       <use transform="translate(118.478131 0)scale(0.996264)" xlink:href="#CMR17-35"/>
      </g>
     </g>
    </g>
    <g id="text_9">
     <!-- $vt/a$ -->
     <g transform="translate(127.983419 105.389782)scale(0.08 -0.08)">
      <defs>
       <path d="M 2925 2388 
C 2925 2790 2720 2816 2669 2816 
C 2515 2816 2374 2662 2374 2534 
C 2374 2458 2419 2413 2445 2388 
C 2509 2330 2675 2158 2675 1826 
C 2675 1558 2291 64 1523 64 
C 1133 64 1056 389 1056 625 
C 1056 945 1203 1392 1376 1851 
C 1478 2113 1504 2177 1504 2305 
C 1504 2573 1312 2816 998 2816 
C 410 2816 173 1890 173 1838 
C 173 1813 198 1781 243 1781 
C 301 1781 307 1807 333 1896 
C 486 2445 736 2687 979 2687 
C 1037 2687 1146 2687 1146 2477 
C 1146 2311 1075 2126 979 1883 
C 672 1066 672 868 672 715 
C 672 574 691 313 890 134 
C 1120 -64 1440 -64 1498 -64 
C 2560 -64 2925 2024 2925 2388 
z
" id="CMMI12-76" transform="scale(0.015625)"/>
       <path d="M 1286 2566 
L 1875 2566 
C 1997 2566 2061 2566 2061 2681 
C 2061 2752 2022 2752 1894 2752 
L 1331 2752 
L 1568 3664 
C 1594 3752 1594 3764 1594 3808 
C 1594 3910 1510 3968 1427 3968 
C 1376 3968 1229 3948 1178 3746 
L 928 2752 
L 326 2752 
C 198 2752 141 2752 141 2630 
C 141 2566 186 2566 307 2566 
L 877 2566 
L 454 881 
C 403 657 384 593 384 510 
C 384 210 595 -64 954 -64 
C 1600 -64 1946 868 1946 913 
C 1946 951 1920 970 1882 970 
C 1869 970 1843 970 1830 944 
C 1824 938 1818 932 1773 830 
C 1638 510 1344 64 973 64 
C 781 64 768 223 768 364 
C 768 370 768 491 787 568 
L 1286 2566 
z
" id="CMMI12-74" transform="scale(0.015625)"/>
       <path d="M 2746 4563 
C 2746 4569 2784 4665 2784 4678 
C 2784 4755 2720 4800 2669 4800 
C 2637 4800 2579 4800 2528 4659 
L 384 -1364 
C 384 -1370 346 -1466 346 -1479 
C 346 -1556 410 -1600 461 -1600 
C 499 -1600 557 -1594 602 -1460 
L 2746 4563 
z
" id="CMMI12-3d" transform="scale(0.015625)"/>
       <path d="M 1926 759 
C 1894 651 1894 638 1805 517 
C 1664 338 1382 64 1082 64 
C 819 64 672 300 672 676 
C 672 1028 870 1743 992 2011 
C 1210 2458 1510 2687 1760 2687 
C 2182 2687 2266 2164 2266 2113 
C 2266 2107 2246 2024 2240 2011 
L 1926 759 
z
M 2336 2394 
C 2266 2560 2093 2816 1760 2816 
C 1037 2816 256 1883 256 938 
C 256 306 627 -64 1062 -64 
C 1414 -64 1715 210 1894 421 
C 1958 44 2259 -64 2451 -64 
C 2643 -64 2797 51 2912 280 
C 3014 496 3104 885 3104 910 
C 3104 942 3078 968 3040 968 
C 2982 968 2976 936 2950 840 
C 2854 465 2733 64 2470 64 
C 2285 64 2272 229 2272 356 
C 2272 503 2291 573 2349 821 
C 2394 980 2426 1120 2477 1305 
C 2714 2260 2771 2489 2771 2528 
C 2771 2617 2701 2688 2605 2688 
C 2400 2688 2349 2464 2336 2388 
L 2336 2394 
z
" id="CMMI12-61" transform="scale(0.015625)"/>
      </defs>
      <use transform="scale(0.996264)" xlink:href="#CMMI12-76"/>
      <use transform="translate(50.735173 0)scale(0.996264)" xlink:href="#CMMI12-74"/>
      <use transform="translate(85.961504 0)scale(0.996264)" xlink:href="#CMMI12-3d"/>
      <use transform="translate(134.736422 0)scale(0.996264)" xlink:href="#CMMI12-61"/>
     </g>
    </g>
   </g>
   <g id="matplotlib.axis_2">
    <g id="ytick_1">
     <g id="line2d_10">
      <defs>
       <path d="M 0 0 
L -2 0 
" id="m42bc84c092" style="stroke:#000000;stroke-width:0.35;"/>
      </defs>
      <g>
       <use style="stroke:#000000;stroke-width:0.35;" x="38.050928" xlink:href="#m42bc84c092" y="81.222047"/>
      </g>
     </g>
     <g id="text_10">
      <!-- $\mathdefault{0.076}$ -->
      <g transform="translate(13.761872 83.989448)scale(0.08 -0.08)">
       <defs>
        <path d="M 678 2198 
C 678 3712 1395 4076 1811 4076 
C 1946 4076 2272 4049 2400 3782 
C 2298 3782 2106 3782 2106 3558 
C 2106 3385 2246 3328 2336 3328 
C 2394 3328 2566 3353 2566 3571 
C 2566 3987 2246 4224 1805 4224 
C 1043 4224 243 3411 243 2011 
C 243 257 966 -128 1478 -128 
C 2099 -128 2688 431 2688 1295 
C 2688 2101 2170 2688 1517 2688 
C 1126 2688 838 2430 678 1979 
L 678 2198 
z
M 1478 25 
C 691 25 691 1212 691 1450 
C 691 1914 909 2585 1504 2585 
C 1613 2585 1926 2585 2138 2140 
C 2253 1889 2253 1624 2253 1302 
C 2253 954 2253 696 2118 438 
C 1978 173 1773 25 1478 25 
z
" id="CMR17-36" transform="scale(0.015625)"/>
       </defs>
       <use transform="scale(0.996264)" xlink:href="#CMR17-30"/>
       <use transform="translate(45.690477 0)scale(0.996264)" xlink:href="#CMMI12-3a"/>
       <use transform="translate(72.787654 0)scale(0.996264)" xlink:href="#CMR17-30"/>
       <use transform="translate(118.478131 0)scale(0.996264)" xlink:href="#CMR17-37"/>
       <use transform="translate(164.168608 0)scale(0.996264)" xlink:href="#CMR17-36"/>
      </g>
     </g>
    </g>
    <g id="ytick_2">
     <g id="line2d_11">
      <g>
       <use style="stroke:#000000;stroke-width:0.35;" x="38.050928" xlink:href="#m42bc84c092" y="61.788386"/>
      </g>
     </g>
     <g id="text_11">
      <!-- $\mathdefault{0.078}$ -->
      <g transform="translate(13.761872 64.555786)scale(0.08 -0.08)">
       <defs>
        <path d="M 1741 2289 
C 2144 2494 2554 2803 2554 3298 
C 2554 3884 1990 4224 1472 4224 
C 890 4224 378 3800 378 3215 
C 378 3054 416 2777 666 2533 
C 730 2469 998 2276 1171 2154 
C 883 2006 211 1652 211 945 
C 211 282 838 -128 1459 -128 
C 2144 -128 2720 366 2720 1022 
C 2720 1607 2330 1877 2074 2051 
L 1741 2289 
z
M 902 2855 
C 851 2887 595 3086 595 3388 
C 595 3781 998 4076 1459 4076 
C 1965 4076 2336 3716 2336 3298 
C 2336 2700 1670 2359 1638 2359 
C 1632 2359 1626 2359 1574 2398 
L 902 2855 
z
M 2080 1536 
C 2176 1466 2483 1253 2483 861 
C 2483 385 2010 25 1472 25 
C 890 25 448 443 448 951 
C 448 1459 838 1884 1280 2083 
L 2080 1536 
z
" id="CMR17-38" transform="scale(0.015625)"/>
       </defs>
       <use transform="scale(0.996264)" xlink:href="#CMR17-30"/>
       <use transform="translate(45.690477 0)scale(0.996264)" xlink:href="#CMMI12-3a"/>
       <use transform="translate(72.787654 0)scale(0.996264)" xlink:href="#CMR17-30"/>
       <use transform="translate(118.478131 0)scale(0.996264)" xlink:href="#CMR17-37"/>
       <use transform="translate(164.168608 0)scale(0.996264)" xlink:href="#CMR17-38"/>
      </g>
     </g>
    </g>
    <g id="ytick_3">
     <g id="line2d_12">
      <g>
       <use style="stroke:#000000;stroke-width:0.35;" x="38.050928" xlink:href="#m42bc84c092" y="42.354724"/>
      </g>
     </g>
     <g id="text_12">
      <!-- $\mathdefault{0.080}$ -->
      <g transform="translate(13.761872 45.122125)scale(0.08 -0.08)">
       <use transform="scale(0.996264)" xlink:href="#CMR17-30"/>
       <use transform="translate(45.690477 0)scale(0.996264)" xlink:href="#CMMI12-3a"/>
       <use transform="translate(72.787654 0)scale(0.996264)" xlink:href="#CMR17-30"/>
       <use transform="translate(118.478131 0)scale(0.996264)" xlink:href="#CMR17-38"/>
       <use transform="translate(164.168608 0)scale(0.996264)" xlink:href="#CMR17-30"/>
      </g>
     </g>
    </g>
    <g id="ytick_4">
     <g id="line2d_13">
      <g>
       <use style="stroke:#000000;stroke-width:0.35;" x="38.050928" xlink:href="#m42bc84c092" y="22.921062"/>
      </g>
     </g>
     <g id="text_13">
      <!-- $\mathdefault{0.082}$ -->
      <g transform="translate(13.761872 25.688463)scale(0.08 -0.08)">
       <use transform="scale(0.996264)" xlink:href="#CMR17-30"/>
       <use transform="translate(45.690477 0)scale(0.996264)" xlink:href="#CMMI12-3a"/>
       <use transform="translate(72.787654 0)scale(0.996264)" xlink:href="#CMR17-30"/>
       <use transform="translate(118.478131 0)scale(0.996264)" xlink:href="#CMR17-38"/>
       <use transform="translate(164.168608 0)scale(0.996264)" xlink:href="#CMR17-32"/>
      </g>
     </g>
    </g>
    <g id="ytick_5">
     <g id="line2d_14">
      <g>
       <use style="stroke:#000000;stroke-width:0.35;" x="38.050928" xlink:href="#m42bc84c092" y="3.487401"/>
      </g>
     </g>
     <g id="text_14">
      <!-- $\mathdefault{0.084}$ -->
      <g transform="translate(13.761872 6.254802)scale(0.08 -0.08)">
       <defs>
        <path d="M 2150 4147 
C 2150 4281 2144 4288 2029 4288 
L 128 1254 
L 128 1088 
L 1779 1088 
L 1779 460 
C 1779 230 1766 166 1318 166 
L 1197 166 
L 1197 0 
C 1402 12 1747 12 1965 12 
C 2182 12 2528 12 2733 0 
L 2733 166 
L 2611 166 
C 2163 166 2150 230 2150 460 
L 2150 1088 
L 2803 1088 
L 2803 1254 
L 2150 1254 
L 2150 4147 
z
M 1798 3723 
L 1798 1254 
L 256 1254 
L 1798 3723 
z
" id="CMR17-34" transform="scale(0.015625)"/>
       </defs>
       <use transform="scale(0.996264)" xlink:href="#CMR17-30"/>
       <use transform="translate(45.690477 0)scale(0.996264)" xlink:href="#CMMI12-3a"/>
       <use transform="translate(72.787654 0)scale(0.996264)" xlink:href="#CMR17-30"/>
       <use transform="translate(118.478131 0)scale(0.996264)" xlink:href="#CMR17-38"/>
       <use transform="translate(164.168608 0)scale(0.996264)" xlink:href="#CMR17-34"/>
      </g>
     </g>
    </g>
    <g id="text_15">
     <!-- $S(q;t)$ -->
     <g transform="translate(9.769344 55.838627)rotate(-90)scale(0.08 -0.08)">
      <defs>
       <path d="M 4064 4422 
C 4064 4480 4019 4480 4006 4480 
C 3981 4480 3974 4473 3898 4377 
C 3859 4332 3597 4002 3590 3996 
C 3379 4409 2957 4480 2688 4480 
C 1875 4480 1139 3742 1139 3024 
C 1139 2547 1427 2268 1741 2160 
C 1811 2134 2189 2033 2381 1988 
C 2707 1899 2790 1874 2925 1734 
C 2950 1702 3078 1556 3078 1258 
C 3078 667 2528 57 1888 57 
C 1363 57 781 279 781 991 
C 781 1112 806 1264 826 1328 
C 826 1347 832 1378 832 1391 
C 832 1417 819 1448 768 1448 
C 710 1448 704 1436 678 1328 
L 352 25 
C 352 19 326 -64 326 -71 
C 326 -128 378 -128 390 -128 
C 416 -128 422 -122 499 -26 
L 794 356 
C 947 127 1280 -128 1875 -128 
C 2701 -128 3456 667 3456 1461 
C 3456 1728 3392 1963 3149 2198 
C 3014 2331 2899 2363 2310 2516 
C 1882 2630 1824 2649 1709 2751 
C 1600 2859 1517 3011 1517 3227 
C 1517 3761 2061 4307 2669 4307 
C 3296 4307 3590 3926 3590 3322 
C 3590 3157 3558 2986 3558 2960 
C 3558 2903 3610 2903 3629 2903 
C 3686 2903 3693 2922 3718 3024 
L 4064 4422 
z
" id="CMMI12-53" transform="scale(0.015625)"/>
       <path d="M 1958 -1562 
C 1958 -1556 1958 -1543 1939 -1524 
C 1645 -1223 858 -403 858 1596 
C 858 3595 1632 4408 1946 4729 
C 1946 4735 1958 4748 1958 4767 
C 1958 4787 1939 4800 1914 4800 
C 1843 4800 1299 4325 986 3620 
C 666 2909 576 2218 576 1603 
C 576 1141 621 360 1005 -467 
C 1312 -1133 1837 -1600 1914 -1600 
C 1946 -1600 1958 -1588 1958 -1562 
z
" id="CMR17-28" transform="scale(0.015625)"/>
       <path d="M 2822 2751 
C 2822 2783 2797 2809 2765 2809 
C 2714 2809 2464 2579 2342 2356 
C 2227 2643 2029 2816 1754 2816 
C 1030 2816 250 1883 250 938 
C 250 306 621 -64 1056 -64 
C 1395 -64 1677 191 1811 338 
L 1818 332 
L 1574 -613 
L 1517 -838 
C 1459 -1025 1363 -1025 1062 -1031 
C 992 -1031 928 -1031 928 -1152 
C 928 -1197 966 -1216 1011 -1216 
C 1101 -1216 1216 -1204 1306 -1204 
L 1958 -1204 
C 2054 -1204 2163 -1216 2259 -1216 
C 2298 -1216 2374 -1216 2374 -1095 
C 2374 -1031 2323 -1031 2227 -1031 
C 1926 -1031 1907 -987 1907 -937 
C 1907 -906 1914 -900 1933 -819 
L 2822 2751 
z
M 1920 759 
C 1888 651 1888 638 1798 517 
C 1658 338 1376 64 1075 64 
C 813 64 666 300 666 676 
C 666 1028 864 1743 986 2011 
C 1203 2458 1504 2687 1754 2687 
C 2176 2687 2259 2164 2259 2113 
C 2259 2107 2240 2024 2234 2011 
L 1920 759 
z
" id="CMMI12-71" transform="scale(0.015625)"/>
       <path d="M 1062 2489 
C 1062 2649 934 2752 800 2752 
C 672 2752 538 2649 538 2489 
C 538 2329 666 2227 800 2227 
C 928 2227 1062 2329 1062 2489 
z
M 979 -69 
C 979 -469 851 -795 634 -1095 
C 595 -1140 595 -1152 595 -1159 
C 595 -1191 621 -1216 646 -1216 
C 678 -1216 1082 -782 1082 -57 
C 1082 192 1062 524 800 524 
C 659 524 538 428 538 262 
C 538 96 659 0 800 0 
C 864 0 934 19 979 64 
L 979 -69 
z
" id="CMR17-3b" transform="scale(0.015625)"/>
       <path d="M 1683 1596 
C 1683 2057 1638 2839 1254 3665 
C 947 4332 422 4800 346 4800 
C 326 4800 301 4793 301 4761 
C 301 4748 307 4742 314 4729 
C 621 4408 1402 3595 1402 1603 
C 1402 -396 627 -1210 314 -1530 
C 307 -1543 301 -1549 301 -1562 
C 301 -1594 326 -1600 346 -1600 
C 416 -1600 960 -1127 1274 -422 
C 1594 289 1683 981 1683 1596 
z
" id="CMR17-29" transform="scale(0.015625)"/>
      </defs>
      <use transform="scale(0.996264)" xlink:href="#CMMI12-53"/>
      <use transform="translate(65.794439 0)scale(0.996264)" xlink:href="#CMR17-28"/>
      <use transform="translate(101.075207 0)scale(0.996264)" xlink:href="#CMMI12-71"/>
      <use transform="translate(147.901531 0)scale(0.996264)" xlink:href="#CMR17-3b"/>
      <use transform="translate(189.376994 0)scale(0.996264)" xlink:href="#CMMI12-74"/>
      <use transform="translate(224.603325 0)scale(0.996264)" xlink:href="#CMR17-29"/>
     </g>
    </g>
   </g>
   <g id="line2d_15">
    <defs>
     <path d="M 0 1 
C 0.265203 1 0.51958 0.894634 0.707107 0.707107 
C 0.894634 0.51958 1 0.265203 1 0 
C 1 -0.265203 0.894634 -0.51958 0.707107 -0.707107 
C 0.51958 -0.894634 0.265203 -1 0 -1 
C -0.265203 -1 -0.51958 -0.894634 -0.707107 -0.707107 
C -0.894634 -0.51958 -1 -0.265203 -1 0 
C -1 0.265203 -0.894634 0.51958 -0.707107 0.707107 
C -0.51958 0.894634 -0.265203 1 0 1 
z
" id="mc1b60abb4d" style="stroke:#5e4fa2;stroke-opacity:0.5;stroke-width:0.5;"/>
    </defs>
    <g clip-path="url(#p2e37f4218b)">
     <use style="fill-opacity:0;stroke:#5e4fa2;stroke-opacity:0.5;stroke-width:0.5;" x="38.050928" xlink:href="#mc1b60abb4d" y="10.477373"/>
     <use style="fill-opacity:0;stroke:#5e4fa2;stroke-opacity:0.5;stroke-width:0.5;" x="40.114497" xlink:href="#mc1b60abb4d" y="10.684827"/>
     <use style="fill-opacity:0;stroke:#5e4fa2;stroke-opacity:0.5;stroke-width:0.5;" x="42.178067" xlink:href="#mc1b60abb4d" y="11.304844"/>
     <use style="fill-opacity:0;stroke:#5e4fa2;stroke-opacity:0.5;stroke-width:0.5;" x="44.241637" xlink:href="#mc1b60abb4d" y="12.330562"/>
     <use style="fill-opacity:0;stroke:#5e4fa2;stroke-opacity:0.5;stroke-width:0.5;" x="46.305207" xlink:href="#mc1b60abb4d" y="13.751008"/>
     <use style="fill-opacity:0;stroke:#5e4fa2;stroke-opacity:0.5;stroke-width:0.5;" x="48.368777" xlink:href="#mc1b60abb4d" y="15.551551"/>
     <use style="fill-opacity:0;stroke:#5e4fa2;stroke-opacity:0.5;stroke-width:0.5;" x="50.432347" xlink:href="#mc1b60abb4d" y="17.714151"/>
     <use style="fill-opacity:0;stroke:#5e4fa2;stroke-opacity:0.5;stroke-width:0.5;" x="52.495917" xlink:href="#mc1b60abb4d" y="20.217241"/>
     <use style="fill-opacity:0;stroke:#5e4fa2;stroke-opacity:0.5;stroke-width:0.5;" x="54.559486" xlink:href="#mc1b60abb4d" y="23.035229"/>
     <use style="fill-opacity:0;stroke:#5e4fa2;stroke-opacity:0.5;stroke-width:0.5;" x="56.623056" xlink:href="#mc1b60abb4d" y="26.137816"/>
     <use style="fill-opacity:0;stroke:#5e4fa2;stroke-opacity:0.5;stroke-width:0.5;" x="58.686626" xlink:href="#mc1b60abb4d" y="29.489418"/>
     <use style="fill-opacity:0;stroke:#5e4fa2;stroke-opacity:0.5;stroke-width:0.5;" x="60.750196" xlink:href="#mc1b60abb4d" y="33.049035"/>
     <use style="fill-opacity:0;stroke:#5e4fa2;stroke-opacity:0.5;stroke-width:0.5;" x="62.813766" xlink:href="#mc1b60abb4d" y="36.770788"/>
     <use style="fill-opacity:0;stroke:#5e4fa2;stroke-opacity:0.5;stroke-width:0.5;" x="64.877336" xlink:href="#mc1b60abb4d" y="40.605163"/>
     <use style="fill-opacity:0;stroke:#5e4fa2;stroke-opacity:0.5;stroke-width:0.5;" x="66.940906" xlink:href="#mc1b60abb4d" y="44.500792"/>
     <use style="fill-opacity:0;stroke:#5e4fa2;stroke-opacity:0.5;stroke-width:0.5;" x="69.004475" xlink:href="#mc1b60abb4d" y="48.406412"/>
     <use style="fill-opacity:0;stroke:#5e4fa2;stroke-opacity:0.5;stroke-width:0.5;" x="71.068045" xlink:href="#mc1b60abb4d" y="52.272611"/>
     <use style="fill-opacity:0;stroke:#5e4fa2;stroke-opacity:0.5;stroke-width:0.5;" x="73.131615" xlink:href="#mc1b60abb4d" y="56.053022"/>
     <use style="fill-opacity:0;stroke:#5e4fa2;stroke-opacity:0.5;stroke-width:0.5;" x="75.195185" xlink:href="#mc1b60abb4d" y="59.704788"/>
     <use style="fill-opacity:0;stroke:#5e4fa2;stroke-opacity:0.5;stroke-width:0.5;" x="77.258755" xlink:href="#mc1b60abb4d" y="63.188343"/>
     <use style="fill-opacity:0;stroke:#5e4fa2;stroke-opacity:0.5;stroke-width:0.5;" x="79.322325" xlink:href="#mc1b60abb4d" y="66.466741"/>
     <use style="fill-opacity:0;stroke:#5e4fa2;stroke-opacity:0.5;stroke-width:0.5;" x="81.385895" xlink:href="#mc1b60abb4d" y="69.504876"/>
     <use style="fill-opacity:0;stroke:#5e4fa2;stroke-opacity:0.5;stroke-width:0.5;" x="83.449464" xlink:href="#mc1b60abb4d" y="72.268917"/>
     <use style="fill-opacity:0;stroke:#5e4fa2;stroke-opacity:0.5;stroke-width:0.5;" x="85.513034" xlink:href="#mc1b60abb4d" y="74.726217"/>
     <use style="fill-opacity:0;stroke:#5e4fa2;stroke-opacity:0.5;stroke-width:0.5;" x="87.576604" xlink:href="#mc1b60abb4d" y="76.845768"/>
     <use style="fill-opacity:0;stroke:#5e4fa2;stroke-opacity:0.5;stroke-width:0.5;" x="89.640174" xlink:href="#mc1b60abb4d" y="78.599138"/>
     <use style="fill-opacity:0;stroke:#5e4fa2;stroke-opacity:0.5;stroke-width:0.5;" x="91.703744" xlink:href="#mc1b60abb4d" y="79.96166"/>
     <use style="fill-opacity:0;stroke:#5e4fa2;stroke-opacity:0.5;stroke-width:0.5;" x="93.767314" xlink:href="#mc1b60abb4d" y="80.913635"/>
     <use style="fill-opacity:0;stroke:#5e4fa2;stroke-opacity:0.5;stroke-width:0.5;" x="95.830884" xlink:href="#mc1b60abb4d" y="81.44129"/>
     <use style="fill-opacity:0;stroke:#5e4fa2;stroke-opacity:0.5;stroke-width:0.5;" x="97.894454" xlink:href="#mc1b60abb4d" y="81.537339"/>
     <use style="fill-opacity:0;stroke:#5e4fa2;stroke-opacity:0.5;stroke-width:0.5;" x="99.958023" xlink:href="#mc1b60abb4d" y="81.201075"/>
     <use style="fill-opacity:0;stroke:#5e4fa2;stroke-opacity:0.5;stroke-width:0.5;" x="102.021593" xlink:href="#mc1b60abb4d" y="80.438054"/>
     <use style="fill-opacity:0;stroke:#5e4fa2;stroke-opacity:0.5;stroke-width:0.5;" x="104.085163" xlink:href="#mc1b60abb4d" y="79.2595"/>
     <use style="fill-opacity:0;stroke:#5e4fa2;stroke-opacity:0.5;stroke-width:0.5;" x="106.148733" xlink:href="#mc1b60abb4d" y="77.681576"/>
     <use style="fill-opacity:0;stroke:#5e4fa2;stroke-opacity:0.5;stroke-width:0.5;" x="108.212303" xlink:href="#mc1b60abb4d" y="75.724686"/>
     <use style="fill-opacity:0;stroke:#5e4fa2;stroke-opacity:0.5;stroke-width:0.5;" x="110.275873" xlink:href="#mc1b60abb4d" y="73.412913"/>
     <use style="fill-opacity:0;stroke:#5e4fa2;stroke-opacity:0.5;stroke-width:0.5;" x="112.339443" xlink:href="#mc1b60abb4d" y="70.773642"/>
     <use style="fill-opacity:0;stroke:#5e4fa2;stroke-opacity:0.5;stroke-width:0.5;" x="114.403012" xlink:href="#mc1b60abb4d" y="67.837353"/>
     <use style="fill-opacity:0;stroke:#5e4fa2;stroke-opacity:0.5;stroke-width:0.5;" x="116.466582" xlink:href="#mc1b60abb4d" y="64.637538"/>
     <use style="fill-opacity:0;stroke:#5e4fa2;stroke-opacity:0.5;stroke-width:0.5;" x="118.530152" xlink:href="#mc1b60abb4d" y="61.210639"/>
     <use style="fill-opacity:0;stroke:#5e4fa2;stroke-opacity:0.5;stroke-width:0.5;" x="120.593722" xlink:href="#mc1b60abb4d" y="57.59595"/>
     <use style="fill-opacity:0;stroke:#5e4fa2;stroke-opacity:0.5;stroke-width:0.5;" x="122.657292" xlink:href="#mc1b60abb4d" y="53.835391"/>
     <use style="fill-opacity:0;stroke:#5e4fa2;stroke-opacity:0.5;stroke-width:0.5;" x="124.720862" xlink:href="#mc1b60abb4d" y="49.973145"/>
     <use style="fill-opacity:0;stroke:#5e4fa2;stroke-opacity:0.5;stroke-width:0.5;" x="126.784432" xlink:href="#mc1b60abb4d" y="46.055136"/>
     <use style="fill-opacity:0;stroke:#5e4fa2;stroke-opacity:0.5;stroke-width:0.5;" x="128.848001" xlink:href="#mc1b60abb4d" y="42.128395"/>
     <use style="fill-opacity:0;stroke:#5e4fa2;stroke-opacity:0.5;stroke-width:0.5;" x="130.911571" xlink:href="#mc1b60abb4d" y="38.24034"/>
     <use style="fill-opacity:0;stroke:#5e4fa2;stroke-opacity:0.5;stroke-width:0.5;" x="132.975141" xlink:href="#mc1b60abb4d" y="34.438037"/>
     <use style="fill-opacity:0;stroke:#5e4fa2;stroke-opacity:0.5;stroke-width:0.5;" x="135.038711" xlink:href="#mc1b60abb4d" y="30.767467"/>
     <use style="fill-opacity:0;stroke:#5e4fa2;stroke-opacity:0.5;stroke-width:0.5;" x="137.102281" xlink:href="#mc1b60abb4d" y="27.27284"/>
     <use style="fill-opacity:0;stroke:#5e4fa2;stroke-opacity:0.5;stroke-width:0.5;" x="139.165851" xlink:href="#mc1b60abb4d" y="23.995973"/>
     <use style="fill-opacity:0;stroke:#5e4fa2;stroke-opacity:0.5;stroke-width:0.5;" x="141.229421" xlink:href="#mc1b60abb4d" y="20.975735"/>
     <use style="fill-opacity:0;stroke:#5e4fa2;stroke-opacity:0.5;stroke-width:0.5;" x="143.29299" xlink:href="#mc1b60abb4d" y="18.247573"/>
     <use style="fill-opacity:0;stroke:#5e4fa2;stroke-opacity:0.5;stroke-width:0.5;" x="145.35656" xlink:href="#mc1b60abb4d" y="15.843118"/>
     <use style="fill-opacity:0;stroke:#5e4fa2;stroke-opacity:0.5;stroke-width:0.5;" x="147.42013" xlink:href="#mc1b60abb4d" y="13.789879"/>
     <use style="fill-opacity:0;stroke:#5e4fa2;stroke-opacity:0.5;stroke-width:0.5;" x="149.4837" xlink:href="#mc1b60abb4d" y="12.111018"/>
     <use style="fill-opacity:0;stroke:#5e4fa2;stroke-opacity:0.5;stroke-width:0.5;" x="151.54727" xlink:href="#mc1b60abb4d" y="10.825215"/>
     <use style="fill-opacity:0;stroke:#5e4fa2;stroke-opacity:0.5;stroke-width:0.5;" x="153.61084" xlink:href="#mc1b60abb4d" y="9.946597"/>
     <use style="fill-opacity:0;stroke:#5e4fa2;stroke-opacity:0.5;stroke-width:0.5;" x="155.67441" xlink:href="#mc1b60abb4d" y="9.484709"/>
     <use style="fill-opacity:0;stroke:#5e4fa2;stroke-opacity:0.5;stroke-width:0.5;" x="157.737979" xlink:href="#mc1b60abb4d" y="9.444504"/>
     <use style="fill-opacity:0;stroke:#5e4fa2;stroke-opacity:0.5;stroke-width:0.5;" x="159.801549" xlink:href="#mc1b60abb4d" y="9.826326"/>
     <use style="fill-opacity:0;stroke:#5e4fa2;stroke-opacity:0.5;stroke-width:0.5;" x="161.865119" xlink:href="#mc1b60abb4d" y="10.625847"/>
     <use style="fill-opacity:0;stroke:#5e4fa2;stroke-opacity:0.5;stroke-width:0.5;" x="163.928689" xlink:href="#mc1b60abb4d" y="11.833996"/>
     <use style="fill-opacity:0;stroke:#5e4fa2;stroke-opacity:0.5;stroke-width:0.5;" x="165.992259" xlink:href="#mc1b60abb4d" y="13.436854"/>
     <use style="fill-opacity:0;stroke:#5e4fa2;stroke-opacity:0.5;stroke-width:0.5;" x="168.055829" xlink:href="#mc1b60abb4d" y="15.415601"/>
     <use style="fill-opacity:0;stroke:#5e4fa2;stroke-opacity:0.5;stroke-width:0.5;" x="170.119399" xlink:href="#mc1b60abb4d" y="17.746536"/>
     <use style="fill-opacity:0;stroke:#5e4fa2;stroke-opacity:0.5;stroke-width:0.5;" x="172.182968" xlink:href="#mc1b60abb4d" y="20.401236"/>
     <use style="fill-opacity:0;stroke:#5e4fa2;stroke-opacity:0.5;stroke-width:0.5;" x="174.246538" xlink:href="#mc1b60abb4d" y="23.346908"/>
     <use style="fill-opacity:0;stroke:#5e4fa2;stroke-opacity:0.5;stroke-width:0.5;" x="176.310108" xlink:href="#mc1b60abb4d" y="26.546926"/>
     <use style="fill-opacity:0;stroke:#5e4fa2;stroke-opacity:0.5;stroke-width:0.5;" x="178.373678" xlink:href="#mc1b60abb4d" y="29.961554"/>
     <use style="fill-opacity:0;stroke:#5e4fa2;stroke-opacity:0.5;stroke-width:0.5;" x="180.437248" xlink:href="#mc1b60abb4d" y="33.548784"/>
     <use style="fill-opacity:0;stroke:#5e4fa2;stroke-opacity:0.5;stroke-width:0.5;" x="182.500818" xlink:href="#mc1b60abb4d" y="37.265215"/>
     <use style="fill-opacity:0;stroke:#5e4fa2;stroke-opacity:0.5;stroke-width:0.5;" x="184.564388" xlink:href="#mc1b60abb4d" y="41.066849"/>
     <use style="fill-opacity:0;stroke:#5e4fa2;stroke-opacity:0.5;stroke-width:0.5;" x="186.627957" xlink:href="#mc1b60abb4d" y="44.909737"/>
     <use style="fill-opacity:0;stroke:#5e4fa2;stroke-opacity:0.5;stroke-width:0.5;" x="188.691527" xlink:href="#mc1b60abb4d" y="48.750386"/>
     <use style="fill-opacity:0;stroke:#5e4fa2;stroke-opacity:0.5;stroke-width:0.5;" x="190.755097" xlink:href="#mc1b60abb4d" y="52.545926"/>
     <use style="fill-opacity:0;stroke:#5e4fa2;stroke-opacity:0.5;stroke-width:0.5;" x="192.818667" xlink:href="#mc1b60abb4d" y="56.254065"/>
     <use style="fill-opacity:0;stroke:#5e4fa2;stroke-opacity:0.5;stroke-width:0.5;" x="194.882237" xlink:href="#mc1b60abb4d" y="59.832945"/>
     <use style="fill-opacity:0;stroke:#5e4fa2;stroke-opacity:0.5;stroke-width:0.5;" x="196.945807" xlink:href="#mc1b60abb4d" y="63.241015"/>
     <use style="fill-opacity:0;stroke:#5e4fa2;stroke-opacity:0.5;stroke-width:0.5;" x="199.009377" xlink:href="#mc1b60abb4d" y="66.437081"/>
     <use style="fill-opacity:0;stroke:#5e4fa2;stroke-opacity:0.5;stroke-width:0.5;" x="201.072946" xlink:href="#mc1b60abb4d" y="69.380637"/>
     <use style="fill-opacity:0;stroke:#5e4fa2;stroke-opacity:0.5;stroke-width:0.5;" x="203.136516" xlink:href="#mc1b60abb4d" y="72.032559"/>
     <use style="fill-opacity:0;stroke:#5e4fa2;stroke-opacity:0.5;stroke-width:0.5;" x="205.200086" xlink:href="#mc1b60abb4d" y="74.356128"/>
     <use style="fill-opacity:0;stroke:#5e4fa2;stroke-opacity:0.5;stroke-width:0.5;" x="207.263656" xlink:href="#mc1b60abb4d" y="76.318293"/>
     <use style="fill-opacity:0;stroke:#5e4fa2;stroke-opacity:0.5;stroke-width:0.5;" x="209.327226" xlink:href="#mc1b60abb4d" y="77.890997"/>
     <use style="fill-opacity:0;stroke:#5e4fa2;stroke-opacity:0.5;stroke-width:0.5;" x="211.390796" xlink:href="#mc1b60abb4d" y="79.05237"/>
     <use style="fill-opacity:0;stroke:#5e4fa2;stroke-opacity:0.5;stroke-width:0.5;" x="213.454366" xlink:href="#mc1b60abb4d" y="79.787569"/>
     <use style="fill-opacity:0;stroke:#5e4fa2;stroke-opacity:0.5;stroke-width:0.5;" x="215.517935" xlink:href="#mc1b60abb4d" y="80.089141"/>
     <use style="fill-opacity:0;stroke:#5e4fa2;stroke-opacity:0.5;stroke-width:0.5;" x="217.581505" xlink:href="#mc1b60abb4d" y="79.956833"/>
     <use style="fill-opacity:0;stroke:#5e4fa2;stroke-opacity:0.5;stroke-width:0.5;" x="219.645075" xlink:href="#mc1b60abb4d" y="79.396911"/>
     <use style="fill-opacity:0;stroke:#5e4fa2;stroke-opacity:0.5;stroke-width:0.5;" x="221.708645" xlink:href="#mc1b60abb4d" y="78.42113"/>
     <use style="fill-opacity:0;stroke:#5e4fa2;stroke-opacity:0.5;stroke-width:0.5;" x="223.772215" xlink:href="#mc1b60abb4d" y="77.045576"/>
     <use style="fill-opacity:0;stroke:#5e4fa2;stroke-opacity:0.5;stroke-width:0.5;" x="225.835785" xlink:href="#mc1b60abb4d" y="75.289604"/>
     <use style="fill-opacity:0;stroke:#5e4fa2;stroke-opacity:0.5;stroke-width:0.5;" x="227.899355" xlink:href="#mc1b60abb4d" y="73.175069"/>
     <use style="fill-opacity:0;stroke:#5e4fa2;stroke-opacity:0.5;stroke-width:0.5;" x="229.962924" xlink:href="#mc1b60abb4d" y="70.725963"/>
     <use style="fill-opacity:0;stroke:#5e4fa2;stroke-opacity:0.5;stroke-width:0.5;" x="232.026494" xlink:href="#mc1b60abb4d" y="67.968462"/>
     <use style="fill-opacity:0;stroke:#5e4fa2;stroke-opacity:0.5;stroke-width:0.5;" x="234.090064" xlink:href="#mc1b60abb4d" y="64.931291"/>
     <use style="fill-opacity:0;stroke:#5e4fa2;stroke-opacity:0.5;stroke-width:0.5;" x="236.153634" xlink:href="#mc1b60abb4d" y="61.646237"/>
    </g>
   </g>
   <g id="patch_3">
    <path d="M 38.050928 85.327651 
L 38.050928 3.278861 
" style="fill:none;stroke:#000000;stroke-linecap:square;stroke-linejoin:miter;stroke-width:0.35;"/>
   </g>
   <g id="patch_4">
    <path d="M 234.115568 85.327651 
L 234.115568 3.278861 
" style="fill:none;stroke:#000000;stroke-linecap:square;stroke-linejoin:miter;stroke-width:0.35;"/>
   </g>
   <g id="patch_5">
    <path d="M 38.050928 85.327651 
L 234.115568 85.327651 
" style="fill:none;stroke:#000000;stroke-linecap:square;stroke-linejoin:miter;stroke-width:0.35;"/>
   </g>
   <g id="patch_6">
    <path d="M 38.050928 3.278861 
L 234.115568 3.278861 
" style="fill:none;stroke:#000000;stroke-linecap:square;stroke-linejoin:miter;stroke-width:0.35;"/>
   </g>
   <g id="text_16">
    <!-- N = 12 -->
    <g transform="translate(207.646841 82.866187)scale(0.08 -0.08)">
     <defs>
      <path d="M 1312 4275 
C 1267 4345 1261 4352 1139 4352 
L 326 4352 
L 326 4185 
L 448 4185 
C 704 4185 819 4153 838 4147 
L 838 624 
C 838 465 838 166 326 166 
L 326 0 
C 474 12 742 12 902 12 
C 1062 12 1331 12 1478 0 
L 1478 166 
C 966 166 966 465 966 624 
L 966 4057 
C 1011 4019 1011 4007 1056 3943 
L 3430 76 
C 3475 0 3494 0 3526 0 
C 3590 0 3590 19 3590 140 
L 3590 3726 
C 3590 3885 3590 4185 4102 4185 
L 4102 4352 
C 3955 4339 3686 4339 3526 4339 
C 3366 4339 3098 4339 2950 4352 
L 2950 4185 
C 3462 4185 3462 3885 3462 3726 
L 3462 777 
L 1312 4275 
z
" id="CMR17-4e" transform="scale(0.015625)"/>
      <path d="M 4115 2048 
C 4211 2048 4307 2048 4307 2156 
C 4307 2272 4198 2272 4090 2272 
L 512 2272 
C 403 2272 294 2272 294 2156 
C 294 2048 390 2048 486 2048 
L 4115 2048 
z
M 4090 927 
C 4198 927 4307 927 4307 1043 
C 4307 1152 4211 1152 4115 1152 
L 486 1152 
C 390 1152 294 1152 294 1043 
C 294 927 403 927 512 927 
L 4090 927 
z
" id="CMR17-3d" transform="scale(0.015625)"/>
     </defs>
     <use transform="scale(0.996264)" xlink:href="#CMR17-4e"/>
     <use transform="translate(99.148396 0)scale(0.996264)" xlink:href="#CMR17-3d"/>
     <use transform="translate(200.939151 0)scale(0.996264)" xlink:href="#CMR17-31"/>
     <use transform="translate(246.629628 0)scale(0.996264)" xlink:href="#CMR17-32"/>
    </g>
   </g>
   <g id="legend_1">
    <g id="line2d_16"/>
    <g id="line2d_17">
     <g>
      <use style="fill-opacity:0;stroke:#5e4fa2;stroke-opacity:0.5;stroke-width:0.5;" x="51.893513" xlink:href="#mc1b60abb4d" y="7.912055"/>
     </g>
    </g>
    <g id="text_17">
     <!-- V = 0.150 -->
     <g transform="translate(57.893513 10.712055)scale(0.08 -0.08)">
      <defs>
       <path d="M 3776 3762 
C 3834 3903 3936 4179 4365 4185 
L 4365 4352 
C 4218 4339 4051 4339 3891 4339 
C 3738 4339 3475 4339 3328 4352 
L 3328 4185 
C 3648 4166 3661 3942 3661 3903 
C 3661 3833 3642 3788 3622 3737 
L 2362 448 
L 1043 3903 
C 1024 3948 1011 3980 1011 4012 
C 1011 4185 1267 4185 1402 4185 
L 1402 4352 
C 1197 4339 896 4339 685 4339 
C 518 4339 218 4339 64 4352 
L 64 4185 
C 435 4185 506 4160 582 3955 
L 2106 -26 
C 2138 -116 2144 -128 2214 -128 
C 2285 -128 2291 -116 2323 -26 
L 3776 3762 
z
" id="CMR17-56" transform="scale(0.015625)"/>
       <path d="M 1062 262 
C 1062 422 934 524 800 524 
C 672 524 538 422 538 262 
C 538 102 666 0 800 0 
C 928 0 1062 102 1062 262 
z
" id="CMR17-2e" transform="scale(0.015625)"/>
      </defs>
      <use transform="scale(0.996264)" xlink:href="#CMR17-56"/>
      <use transform="translate(99.148396 0)scale(0.996264)" xlink:href="#CMR17-3d"/>
      <use transform="translate(200.939151 0)scale(0.996264)" xlink:href="#CMR17-30"/>
      <use transform="translate(246.629628 0)scale(0.996264)" xlink:href="#CMR17-2e"/>
      <use transform="translate(271.500687 0)scale(0.996264)" xlink:href="#CMR17-31"/>
      <use transform="translate(317.191164 0)scale(0.996264)" xlink:href="#CMR17-35"/>
      <use transform="translate(362.881641 0)scale(0.996264)" xlink:href="#CMR17-30"/>
     </g>
    </g>
    <g id="line2d_18">
     <path d="M 49.093513 17.061801 
L 54.693513 17.061801 
" style="fill:none;stroke:#5e4fa2;stroke-linecap:round;stroke-width:0.5;"/>
    </g>
    <g id="line2d_19"/>
    <g id="text_18">
     <!-- fit -->
     <g transform="translate(57.893513 19.861801)scale(0.08 -0.08)">
      <defs>
       <path d="M 2554 2816 
C 2400 2809 1926 2777 1805 2764 
C 1766 2758 1754 2758 1677 2758 
L 947 2758 
L 947 3517 
C 947 4127 1434 4416 1818 4416 
C 1939 4416 2214 4383 2355 4160 
C 2291 4160 2086 4160 2086 3935 
C 2086 3782 2189 3705 2317 3705 
C 2432 3705 2547 3769 2547 3942 
C 2547 4265 2240 4518 1843 4518 
C 1338 4518 634 4225 634 3517 
L 634 2758 
L 122 2758 
L 122 2591 
L 634 2591 
L 634 442 
C 634 198 608 166 198 166 
L 198 0 
C 352 12 634 12 794 12 
C 960 12 1242 12 1395 0 
L 1395 166 
C 986 166 960 192 960 442 
L 960 2591 
L 1901 2591 
C 2176 2591 2227 2534 2227 2251 
L 2227 442 
C 2227 198 2202 166 1792 166 
L 1792 0 
C 1946 12 2227 12 2387 12 
C 2554 12 2835 12 2989 0 
L 2989 166 
C 2579 166 2554 192 2554 442 
L 2554 2816 
z
" id="CMR17-c" transform="scale(0.015625)"/>
       <path d="M 966 2585 
L 1862 2585 
L 1862 2752 
L 966 2752 
L 966 3968 
L 851 3968 
C 838 3292 614 2700 70 2687 
L 70 2585 
L 627 2585 
L 627 778 
C 627 655 627 -64 1370 -64 
C 1747 -64 1965 308 1965 784 
L 1965 1151 
L 1850 1151 
L 1850 790 
C 1850 347 1677 51 1408 51 
C 1222 51 966 179 966 765 
L 966 2585 
z
" id="CMR17-74" transform="scale(0.015625)"/>
      </defs>
      <use transform="scale(0.996264)" xlink:href="#CMR17-c"/>
      <use transform="translate(49.742223 0)scale(0.996264)" xlink:href="#CMR17-74"/>
     </g>
    </g>
   </g>
  </g>
  <g id="axes_2">
   <g id="patch_7">
    <path d="M 38.050928 191.991077 
L 234.115568 191.991077 
L 234.115568 109.942288 
L 38.050928 109.942288 
z
" style="fill:none;"/>
   </g>
   <g id="PolyCollection_1">
    <defs>
     <path d="M 24.682884 -102.375869 
L 24.682884 -132.558409 
L 26.933396 -128.438636 
L 29.183909 -124.397157 
L 31.434421 -120.433602 
L 33.684934 -116.547622 
L 35.935446 -112.738887 
L 38.185958 -109.007091 
L 40.436471 -105.351949 
L 42.686983 -101.773196 
L 44.937496 -98.270591 
L 47.188008 -94.843915 
L 49.43852 -91.492971 
L 51.689033 -88.217586 
L 53.939545 -85.01761 
L 56.190058 -81.892919 
L 58.44057 -78.843411 
L 60.691082 -75.869012 
L 62.941595 -72.969674 
L 65.192107 -70.145375 
L 67.44262 -67.396124 
L 69.693132 -64.721956 
L 71.943644 -62.122942 
L 74.194157 -59.59918 
L 76.444669 -57.150807 
L 78.695181 -54.777995 
L 80.945694 -52.480952 
L 83.196206 -50.25993 
L 85.446719 -48.115224 
L 87.697231 -46.047176 
L 89.947743 -44.056178 
L 92.198256 -42.142681 
L 94.448768 -40.307193 
L 96.699281 -38.550291 
L 98.949793 -36.872623 
L 101.200305 -35.274923 
L 103.450818 -33.758014 
L 105.70133 -32.322826 
L 107.951843 -30.970405 
L 110.202355 -29.70194 
L 112.452867 -28.518776 
L 114.70338 -27.422454 
L 116.953892 -26.414745 
L 119.204405 -25.497702 
L 121.454917 -24.673738 
L 123.705429 -23.945731 
L 125.955942 -23.317185 
L 128.206454 -22.7925 
L 130.456967 -22.377442 
L 132.707479 -22.080159 
L 134.957991 -21.914047 
L 137.208504 -21.91393 
L 139.459016 -22.07752 
L 141.709529 -22.366345 
L 143.960041 -22.764069 
L 146.210553 -23.259961 
L 148.461066 -23.84591 
L 150.711578 -24.515361 
L 152.962091 -25.2628 
L 155.212603 -26.083464 
L 157.463115 -26.973159 
L 159.713628 -27.928141 
L 161.96414 -28.945029 
L 164.214653 -30.020746 
L 166.465165 -31.152468 
L 168.715677 -32.33759 
L 170.96619 -33.573697 
L 173.216702 -34.85854 
L 175.467215 -36.190018 
L 177.717727 -37.566158 
L 179.968239 -38.98511 
L 182.218752 -40.445127 
L 184.469264 -41.944558 
L 186.719777 -43.481844 
L 188.970289 -45.055504 
L 191.220801 -46.664132 
L 193.471314 -48.30639 
L 195.721826 -49.981006 
L 197.972339 -51.686766 
L 200.222851 -53.422509 
L 202.473363 -55.187129 
L 204.723876 -56.979565 
L 206.974388 -58.798802 
L 209.2249 -60.64387 
L 211.475413 -62.513834 
L 213.725925 -64.4078 
L 215.976438 -66.324909 
L 218.22695 -68.264334 
L 220.477462 -70.225282 
L 222.727975 -72.206988 
L 224.978487 -74.208716 
L 227.229 -76.229758 
L 229.479512 -78.269431 
L 231.730024 -80.327077 
L 233.980537 -82.40206 
L 236.231049 -84.493768 
L 238.481562 -86.60161 
L 240.732074 -88.725013 
L 242.982586 -90.863427 
L 245.233099 -93.016318 
L 247.483611 -95.183171 
L 247.483611 -75.193878 
L 247.483611 -75.193878 
L 245.233099 -73.617985 
L 242.982586 -72.052246 
L 240.732074 -70.497035 
L 238.481562 -68.952742 
L 236.231049 -67.419766 
L 233.980537 -65.898524 
L 231.730024 -64.389445 
L 229.479512 -62.892976 
L 227.229 -61.409577 
L 224.978487 -59.939729 
L 222.727975 -58.483926 
L 220.477462 -57.042686 
L 218.22695 -55.616542 
L 215.976438 -54.20605 
L 213.725925 -52.81179 
L 211.475413 -51.43436 
L 209.2249 -50.074386 
L 206.974388 -48.732519 
L 204.723876 -47.409437 
L 202.473363 -46.105847 
L 200.222851 -44.822487 
L 197.972339 -43.560128 
L 195.721826 -42.319576 
L 193.471314 -41.101673 
L 191.220801 -39.907303 
L 188.970289 -38.737392 
L 186.719777 -37.592913 
L 184.469264 -36.474887 
L 182.218752 -35.384391 
L 179.968239 -34.322561 
L 177.717727 -33.290596 
L 175.467215 -32.289766 
L 173.216702 -31.321419 
L 170.96619 -30.386988 
L 168.715677 -29.488001 
L 166.465165 -28.626094 
L 164.214653 -27.803023 
L 161.96414 -27.020684 
L 159.713628 -26.281128 
L 157.463115 -25.586596 
L 155.212603 -24.939545 
L 152.962091 -24.342699 
L 150.711578 -23.799107 
L 148.461066 -23.312233 
L 146.210553 -22.886088 
L 143.960041 -22.52544 
L 141.709529 -22.236186 
L 139.459016 -22.026132 
L 137.208504 -21.907157 
L 134.957991 -21.907242 
L 132.707479 -22.02805 
L 130.456967 -22.244256 
L 128.206454 -22.546117 
L 125.955942 -22.927706 
L 123.705429 -23.38483 
L 121.454917 -23.91429 
L 119.204405 -24.513536 
L 116.953892 -25.180477 
L 114.70338 -25.913356 
L 112.452867 -26.710681 
L 110.202355 -27.571164 
L 107.951843 -28.493684 
L 105.70133 -29.477263 
L 103.450818 -30.521036 
L 101.200305 -31.624243 
L 98.949793 -32.786207 
L 96.699281 -34.006328 
L 94.448768 -35.284076 
L 92.198256 -36.618976 
L 89.947743 -38.01061 
L 87.697231 -39.458608 
L 85.446719 -40.962643 
L 83.196206 -42.522429 
L 80.945694 -44.137718 
L 78.695181 -45.808295 
L 76.444669 -47.533977 
L 74.194157 -49.314612 
L 71.943644 -51.150074 
L 69.693132 -53.040267 
L 67.44262 -54.985116 
L 65.192107 -56.984572 
L 62.941595 -59.038607 
L 60.691082 -61.147217 
L 58.44057 -63.310416 
L 56.190058 -65.52824 
L 53.939545 -67.800742 
L 51.689033 -70.127997 
L 49.43852 -72.510095 
L 47.188008 -74.947146 
L 44.937496 -77.439274 
L 42.686983 -79.986623 
L 40.436471 -82.589352 
L 38.185958 -85.247638 
L 35.935446 -87.961671 
L 33.684934 -90.73166 
L 31.434421 -93.557827 
L 29.183909 -96.440413 
L 26.933396 -99.37967 
L 24.682884 -102.375869 
z
" id="m5df33d0915" style="stroke:#9fa2b2;stroke-opacity:0.4;"/>
    </defs>
    <g clip-path="url(#p8a41a90bee)">
     <use style="fill:#9fa2b2;fill-opacity:0.4;stroke:#9fa2b2;stroke-opacity:0.4;" x="0" xlink:href="#m5df33d0915" y="213.880172"/>
    </g>
   </g>
   <g id="matplotlib.axis_3">
    <g id="xtick_9">
     <g id="line2d_20">
      <g>
       <use style="stroke:#000000;stroke-width:0.35;" x="46.962957" xlink:href="#m0443ff208f" y="191.991077"/>
      </g>
     </g>
     <g id="text_19">
      <!-- $\mathdefault{0.8}$ -->
      <g transform="translate(41.552612 202.525879)scale(0.08 -0.08)">
       <use transform="scale(0.996264)" xlink:href="#CMR17-30"/>
       <use transform="translate(45.690477 0)scale(0.996264)" xlink:href="#CMMI12-3a"/>
       <use transform="translate(72.787654 0)scale(0.996264)" xlink:href="#CMR17-38"/>
      </g>
     </g>
    </g>
    <g id="xtick_10">
     <g id="line2d_21">
      <g>
       <use style="stroke:#000000;stroke-width:0.35;" x="91.523102" xlink:href="#m0443ff208f" y="191.991077"/>
      </g>
     </g>
     <g id="text_20">
      <!-- $\mathdefault{0.9}$ -->
      <g transform="translate(86.112757 202.525879)scale(0.08 -0.08)">
       <defs>
        <path d="M 2253 1871 
C 2253 448 1670 25 1190 25 
C 1043 25 685 43 538 281 
C 704 256 826 345 826 505 
C 826 678 685 736 595 736 
C 538 736 365 710 365 492 
C 365 68 742 -128 1203 -128 
C 1939 -128 2688 665 2688 2090 
C 2688 3857 1971 4224 1485 4224 
C 851 4224 243 3664 243 2800 
C 243 2000 762 1408 1414 1408 
C 1952 1408 2189 1910 2253 2122 
L 2253 1871 
z
M 1427 1510 
C 1254 1510 1011 1542 813 1929 
C 678 2181 678 2477 678 2793 
C 678 3174 678 3438 858 3722 
C 947 3857 1114 4076 1485 4076 
C 2240 4076 2240 2909 2240 2651 
C 2240 2193 2035 1510 1427 1510 
z
" id="CMR17-39" transform="scale(0.015625)"/>
       </defs>
       <use transform="scale(0.996264)" xlink:href="#CMR17-30"/>
       <use transform="translate(45.690477 0)scale(0.996264)" xlink:href="#CMMI12-3a"/>
       <use transform="translate(72.787654 0)scale(0.996264)" xlink:href="#CMR17-39"/>
      </g>
     </g>
    </g>
    <g id="xtick_11">
     <g id="line2d_22">
      <g>
       <use style="stroke:#000000;stroke-width:0.35;" x="136.083248" xlink:href="#m0443ff208f" y="191.991077"/>
      </g>
     </g>
     <g id="text_21">
      <!-- $\mathdefault{1.0}$ -->
      <g transform="translate(130.672903 202.525879)scale(0.08 -0.08)">
       <use transform="scale(0.996264)" xlink:href="#CMR17-31"/>
       <use transform="translate(45.690477 0)scale(0.996264)" xlink:href="#CMMI12-3a"/>
       <use transform="translate(72.787654 0)scale(0.996264)" xlink:href="#CMR17-30"/>
      </g>
     </g>
    </g>
    <g id="xtick_12">
     <g id="line2d_23">
      <g>
       <use style="stroke:#000000;stroke-width:0.35;" x="180.643393" xlink:href="#m0443ff208f" y="191.991077"/>
      </g>
     </g>
     <g id="text_22">
      <!-- $\mathdefault{1.1}$ -->
      <g transform="translate(175.233048 202.525879)scale(0.08 -0.08)">
       <use transform="scale(0.996264)" xlink:href="#CMR17-31"/>
       <use transform="translate(45.690477 0)scale(0.996264)" xlink:href="#CMMI12-3a"/>
       <use transform="translate(72.787654 0)scale(0.996264)" xlink:href="#CMR17-31"/>
      </g>
     </g>
    </g>
    <g id="xtick_13">
     <g id="line2d_24">
      <g>
       <use style="stroke:#000000;stroke-width:0.35;" x="225.203539" xlink:href="#m0443ff208f" y="191.991077"/>
      </g>
     </g>
     <g id="text_23">
      <!-- $\mathdefault{1.2}$ -->
      <g transform="translate(219.793194 202.525879)scale(0.08 -0.08)">
       <use transform="scale(0.996264)" xlink:href="#CMR17-31"/>
       <use transform="translate(45.690477 0)scale(0.996264)" xlink:href="#CMMI12-3a"/>
       <use transform="translate(72.787654 0)scale(0.996264)" xlink:href="#CMR17-32"/>
      </g>
     </g>
    </g>
    <g id="text_24">
     <!-- Luttinger Parameter  $K$ -->
     <g transform="translate(92.987297 211.610426)scale(0.08 -0.08)">
      <defs>
       <path d="M 3469 1612 
L 3354 1612 
C 3302 981 3219 166 2125 166 
L 1530 166 
C 1274 166 1261 198 1261 414 
L 1261 3892 
C 1261 4121 1274 4185 1760 4185 
L 1901 4185 
L 1901 4352 
C 1638 4339 1331 4339 1069 4339 
C 870 4339 512 4339 326 4352 
L 326 4185 
C 768 4185 838 4185 838 3898 
L 838 453 
C 838 166 768 166 326 166 
L 326 0 
L 3315 0 
L 3469 1612 
z
" id="CMR17-4c" transform="scale(0.015625)"/>
       <path d="M 1882 2745 
L 1882 2579 
C 2259 2579 2317 2540 2317 2229 
L 2317 1053 
C 2317 510 2029 38 1555 38 
C 1030 38 986 355 986 691 
L 986 2816 
L 211 2745 
L 211 2579 
C 467 2579 640 2579 646 2320 
L 646 1079 
C 646 646 646 368 813 187 
C 896 103 1056 -64 1517 -64 
C 2061 -64 2272 400 2323 536 
L 2330 536 
L 2330 -64 
L 3091 -13 
L 3091 154 
C 2714 154 2656 193 2656 503 
L 2656 2816 
L 1882 2745 
z
" id="CMR17-75" transform="scale(0.015625)"/>
       <path d="M 992 3961 
C 992 4102 877 4224 730 4224 
C 589 4224 467 4108 467 3961 
C 467 3820 582 3699 730 3699 
C 870 3699 992 3814 992 3961 
z
M 243 2745 
L 243 2579 
C 602 2579 653 2540 653 2231 
L 653 443 
C 653 198 627 166 218 166 
L 218 0 
C 371 12 646 12 806 12 
C 960 12 1222 12 1370 0 
L 1370 166 
C 992 166 979 205 979 436 
L 979 2816 
L 243 2745 
z
" id="CMR17-69" transform="scale(0.015625)"/>
       <path d="M 2656 1954 
C 2656 2282 2592 2816 1837 2816 
C 1331 2816 1069 2424 973 2166 
L 966 2166 
L 966 2816 
L 211 2745 
L 211 2578 
C 589 2578 646 2540 646 2231 
L 646 443 
C 646 198 621 166 211 166 
L 211 0 
C 365 12 646 12 813 12 
C 979 12 1267 12 1421 0 
L 1421 166 
C 1011 166 986 192 986 443 
L 986 1678 
C 986 2269 1344 2713 1792 2713 
C 2266 2713 2317 2289 2317 1980 
L 2317 443 
C 2317 198 2291 166 1882 166 
L 1882 0 
C 2035 12 2317 12 2483 12 
C 2650 12 2938 12 3091 0 
L 3091 166 
C 2682 166 2656 192 2656 443 
L 2656 1954 
z
" id="CMR17-6e" transform="scale(0.015625)"/>
       <path d="M 710 1165 
C 832 1068 1043 960 1299 960 
C 1805 960 2240 1359 2240 1895 
C 2240 2063 2189 2321 1997 2521 
C 2176 2713 2438 2777 2586 2777 
C 2611 2777 2650 2777 2682 2758 
C 2656 2751 2598 2726 2598 2623 
C 2598 2540 2656 2483 2739 2483 
C 2835 2483 2886 2547 2886 2630 
C 2886 2751 2790 2880 2586 2880 
C 2330 2880 2106 2758 1926 2591 
C 1734 2764 1504 2828 1299 2828 
C 794 2828 358 2431 358 1895 
C 358 1527 570 1294 634 1230 
C 442 1004 442 742 442 710 
C 442 544 506 300 723 166 
C 390 82 128 -184 128 -517 
C 128 -996 736 -1344 1466 -1344 
C 2170 -1344 2803 -1009 2803 -510 
C 2803 384 1856 384 1363 384 
C 1216 384 954 384 922 390 
C 723 422 589 601 589 825 
C 589 883 589 1024 710 1165 
z
M 1299 1068 
C 736 1068 736 1766 736 1895 
C 736 2024 736 2719 1299 2719 
C 1862 2719 1862 2024 1862 1895 
C 1862 1766 1862 1068 1299 1068 
z
M 1466 -1236 
C 826 -1236 384 -883 384 -517 
C 384 -311 493 -118 634 -11 
C 794 102 858 102 1293 102 
C 1818 102 2547 102 2547 -517 
C 2547 -883 2106 -1236 1466 -1236 
z
" id="CMR17-67" transform="scale(0.015625)"/>
       <path d="M 2438 1503 
C 2464 1529 2464 1542 2464 1606 
C 2464 2251 2118 2816 1389 2816 
C 710 2816 173 2175 173 1394 
C 173 554 781 -64 1459 -64 
C 2176 -64 2458 619 2458 755 
C 2458 800 2419 800 2406 800 
C 2362 800 2355 787 2330 709 
C 2189 270 1837 51 1504 51 
C 1229 51 954 206 781 490 
C 582 819 582 1200 582 1503 
L 2438 1503 
z
M 589 1600 
C 634 2511 1126 2713 1382 2713 
C 1818 2713 2112 2308 2118 1600 
L 589 1600 
z
" id="CMR17-65" transform="scale(0.015625)"/>
       <path d="M 960 1517 
C 960 2134 1222 2713 1702 2713 
C 1747 2713 1792 2707 1837 2687 
C 1837 2687 1696 2642 1696 2475 
C 1696 2321 1818 2257 1914 2257 
C 1990 2257 2131 2302 2131 2482 
C 2131 2687 1926 2816 1709 2816 
C 1222 2816 1011 2340 947 2115 
L 941 2115 
L 941 2816 
L 198 2745 
L 198 2578 
C 576 2578 634 2540 634 2231 
L 634 443 
C 634 198 608 166 198 166 
L 198 0 
C 352 12 646 12 813 12 
C 998 12 1325 12 1498 0 
L 1498 166 
C 1037 166 960 166 960 455 
L 960 1517 
z
" id="CMR17-72" transform="scale(0.015625)"/>
       <path d="M 1267 2048 
L 2291 2048 
C 3117 2048 3718 2583 3718 3187 
C 3718 3791 3130 4352 2291 4352 
L 333 4352 
L 333 4185 
C 774 4185 845 4185 845 3899 
L 845 453 
C 845 166 774 166 333 166 
L 333 0 
C 518 12 858 12 1056 12 
C 1254 12 1594 12 1779 0 
L 1779 166 
C 1338 166 1267 166 1267 453 
L 1267 2048 
z
M 1254 2182 
L 1254 3937 
C 1254 4153 1267 4185 1523 4185 
L 2170 4185 
C 2995 4185 3232 3715 3232 3187 
C 3232 2608 2950 2182 2170 2182 
L 1254 2182 
z
" id="CMR17-50" transform="scale(0.015625)"/>
       <path d="M 2304 1656 
C 2304 2048 2304 2275 2035 2534 
C 1798 2751 1523 2816 1306 2816 
C 800 2816 435 2408 435 1977 
C 435 1740 627 1728 666 1728 
C 749 1728 896 1779 896 1958 
C 896 2118 774 2188 666 2188 
C 640 2188 608 2182 589 2176 
C 723 2594 1069 2713 1293 2713 
C 1613 2713 1965 2421 1965 1875 
L 1965 1632 
C 1587 1619 1133 1568 774 1373 
C 371 1147 256 822 256 576 
C 256 77 832 -64 1171 -64 
C 1523 -64 1850 135 1990 505 
C 2003 219 2182 -39 2464 -39 
C 2598 -39 2938 51 2938 563 
L 2938 926 
L 2822 926 
L 2822 557 
C 2822 161 2650 109 2566 109 
C 2304 109 2304 446 2304 732 
L 2304 1656 
z
M 1965 887 
C 1965 323 1568 38 1216 38 
C 896 38 646 278 646 576 
C 646 771 730 1114 1101 1322 
C 1408 1497 1760 1523 1965 1536 
L 1965 887 
z
" id="CMR17-61" transform="scale(0.015625)"/>
       <path d="M 4326 1954 
C 4326 2276 4269 2816 3507 2816 
C 3072 2816 2771 2520 2656 2173 
L 2650 2173 
C 2573 2700 2195 2816 1837 2816 
C 1331 2816 1069 2424 973 2166 
L 966 2166 
L 966 2816 
L 211 2745 
L 211 2578 
C 589 2578 646 2540 646 2231 
L 646 443 
C 646 198 621 166 211 166 
L 211 0 
C 365 12 646 12 813 12 
C 979 12 1267 12 1421 0 
L 1421 166 
C 1011 166 986 192 986 443 
L 986 1678 
C 986 2269 1344 2713 1792 2713 
C 2266 2713 2317 2289 2317 1980 
L 2317 443 
C 2317 198 2291 166 1882 166 
L 1882 0 
C 2035 12 2317 12 2483 12 
C 2650 12 2938 12 3091 0 
L 3091 166 
C 2682 166 2656 192 2656 443 
L 2656 1678 
C 2656 2269 3014 2713 3462 2713 
C 3936 2713 3987 2289 3987 1980 
L 3987 443 
C 3987 198 3962 166 3552 166 
L 3552 0 
C 3706 12 3987 12 4154 12 
C 4320 12 4608 12 4762 0 
L 4762 166 
C 4352 166 4326 192 4326 443 
L 4326 1954 
z
" id="CMR17-6d" transform="scale(0.015625)"/>
       <path d="M 3200 2574 
C 3194 2593 3168 2644 3168 2663 
C 3168 2669 3174 2675 3283 2758 
L 3904 3242 
C 4762 3905 5043 4128 5485 4166 
C 5530 4172 5594 4172 5594 4281 
C 5594 4319 5574 4352 5523 4352 
C 5453 4352 5376 4339 5306 4339 
L 5062 4339 
C 4864 4339 4653 4352 4461 4352 
C 4416 4352 4339 4352 4339 4236 
C 4339 4172 4384 4166 4422 4166 
C 4493 4159 4576 4134 4576 4045 
C 4576 3917 4384 3765 4333 3726 
L 1824 1784 
L 2355 3886 
C 2413 4102 2426 4166 2880 4166 
C 3002 4166 3059 4166 3059 4287 
C 3059 4352 2995 4352 2963 4352 
C 2848 4352 2714 4339 2592 4339 
L 1837 4339 
C 1722 4339 1581 4352 1466 4352 
C 1414 4352 1344 4352 1344 4230 
C 1344 4166 1402 4166 1498 4166 
C 1888 4166 1888 4115 1888 4045 
C 1888 4032 1888 3994 1862 3898 
L 998 472 
C 941 249 928 185 480 185 
C 358 185 294 185 294 70 
C 294 0 352 0 390 0 
C 512 0 640 12 762 12 
L 1510 12 
C 1632 12 1766 0 1888 0 
C 1939 0 2010 0 2010 121 
C 2010 185 1952 185 1856 185 
C 1466 185 1466 236 1466 300 
C 1466 344 1504 504 1530 605 
L 1779 1593 
L 2752 2351 
C 2938 1943 3277 1128 3539 504 
C 3558 465 3571 427 3571 383 
C 3571 191 3315 185 3258 185 
C 3200 185 3136 185 3136 64 
C 3136 0 3206 0 3226 0 
C 3450 0 3686 12 3910 12 
L 4218 12 
C 4314 12 4422 0 4518 0 
C 4557 0 4627 0 4627 121 
C 4627 185 4570 185 4506 185 
C 4269 191 4186 242 4090 472 
L 3200 2574 
z
" id="CMMI12-4b" transform="scale(0.015625)"/>
      </defs>
      <use transform="scale(0.996264)" xlink:href="#CMR17-4c"/>
      <use transform="translate(57.381408 0)scale(0.996264)" xlink:href="#CMR17-75"/>
      <use transform="translate(108.276778 0)scale(0.996264)" xlink:href="#CMR17-74"/>
      <use transform="translate(143.557545 0)scale(0.996264)" xlink:href="#CMR17-74"/>
      <use transform="translate(178.838313 0)scale(0.996264)" xlink:href="#CMR17-69"/>
      <use transform="translate(203.709372 0)scale(0.996264)" xlink:href="#CMR17-6e"/>
      <use transform="translate(254.604741 0)scale(0.996264)" xlink:href="#CMR17-67"/>
      <use transform="translate(300.295219 0)scale(0.996264)" xlink:href="#CMR17-65"/>
      <use transform="translate(340.780879 0)scale(0.996264)" xlink:href="#CMR17-72"/>
      <use transform="translate(406.137613 0)scale(0.996264)" xlink:href="#CMR17-50"/>
      <use transform="translate(466.12146 0)scale(0.996264)" xlink:href="#CMR17-61"/>
      <use transform="translate(511.811937 0)scale(0.996264)" xlink:href="#CMR17-72"/>
      <use transform="translate(547.092705 0)scale(0.996264)" xlink:href="#CMR17-61"/>
      <use transform="translate(592.783182 0)scale(0.996264)" xlink:href="#CMR17-6d"/>
      <use transform="translate(669.702772 0)scale(0.996264)" xlink:href="#CMR17-65"/>
      <use transform="translate(710.188432 0)scale(0.996264)" xlink:href="#CMR17-74"/>
      <use transform="translate(745.4692 0)scale(0.996264)" xlink:href="#CMR17-65"/>
      <use transform="translate(785.95486 0)scale(0.996264)" xlink:href="#CMR17-72"/>
      <use transform="translate(851.311595 0)scale(0.996264)" xlink:href="#CMMI12-4b"/>
     </g>
    </g>
   </g>
   <g id="matplotlib.axis_4">
    <g id="ytick_6">
     <g id="line2d_25">
      <g>
       <use style="stroke:#000000;stroke-width:0.35;" x="38.050928" xlink:href="#m42bc84c092" y="191.991077"/>
      </g>
     </g>
     <g id="text_25">
      <!-- $\mathdefault{0.00}$ -->
      <g transform="translate(17.996055 194.758478)scale(0.08 -0.08)">
       <use transform="scale(0.996264)" xlink:href="#CMR17-30"/>
       <use transform="translate(45.690477 0)scale(0.996264)" xlink:href="#CMMI12-3a"/>
       <use transform="translate(72.787654 0)scale(0.996264)" xlink:href="#CMR17-30"/>
       <use transform="translate(118.478131 0)scale(0.996264)" xlink:href="#CMR17-30"/>
      </g>
     </g>
    </g>
    <g id="ytick_7">
     <g id="line2d_26">
      <g>
       <use style="stroke:#000000;stroke-width:0.35;" x="38.050928" xlink:href="#m42bc84c092" y="164.641481"/>
      </g>
     </g>
     <g id="text_26">
      <!-- $\mathdefault{0.02}$ -->
      <g transform="translate(17.996055 167.408881)scale(0.08 -0.08)">
       <use transform="scale(0.996264)" xlink:href="#CMR17-30"/>
       <use transform="translate(45.690477 0)scale(0.996264)" xlink:href="#CMMI12-3a"/>
       <use transform="translate(72.787654 0)scale(0.996264)" xlink:href="#CMR17-30"/>
       <use transform="translate(118.478131 0)scale(0.996264)" xlink:href="#CMR17-32"/>
      </g>
     </g>
    </g>
    <g id="ytick_8">
     <g id="line2d_27">
      <g>
       <use style="stroke:#000000;stroke-width:0.35;" x="38.050928" xlink:href="#m42bc84c092" y="137.291884"/>
      </g>
     </g>
     <g id="text_27">
      <!-- $\mathdefault{0.04}$ -->
      <g transform="translate(17.996055 140.059285)scale(0.08 -0.08)">
       <use transform="scale(0.996264)" xlink:href="#CMR17-30"/>
       <use transform="translate(45.690477 0)scale(0.996264)" xlink:href="#CMMI12-3a"/>
       <use transform="translate(72.787654 0)scale(0.996264)" xlink:href="#CMR17-30"/>
       <use transform="translate(118.478131 0)scale(0.996264)" xlink:href="#CMR17-34"/>
      </g>
     </g>
    </g>
    <g id="ytick_9">
     <g id="line2d_28">
      <g>
       <use style="stroke:#000000;stroke-width:0.35;" x="38.050928" xlink:href="#m42bc84c092" y="109.942288"/>
      </g>
     </g>
     <g id="text_28">
      <!-- $\mathdefault{0.06}$ -->
      <g transform="translate(17.996055 112.709688)scale(0.08 -0.08)">
       <use transform="scale(0.996264)" xlink:href="#CMR17-30"/>
       <use transform="translate(45.690477 0)scale(0.996264)" xlink:href="#CMMI12-3a"/>
       <use transform="translate(72.787654 0)scale(0.996264)" xlink:href="#CMR17-30"/>
       <use transform="translate(118.478131 0)scale(0.996264)" xlink:href="#CMR17-36"/>
      </g>
     </g>
    </g>
    <g id="text_29">
     <!-- Entanglement -->
     <g transform="translate(6.254802 176.663745)rotate(-90)scale(0.08 -0.08)">
      <defs>
       <path d="M 3885 1614 
L 3770 1614 
C 3629 676 3546 166 2419 166 
L 1530 166 
C 1274 166 1261 198 1261 415 
L 1261 2176 
L 1862 2176 
C 2464 2176 2522 1959 2522 1429 
L 2637 1429 
L 2637 3086 
L 2522 3086 
C 2522 2558 2464 2342 1862 2342 
L 1261 2342 
L 1261 3924 
C 1261 4141 1274 4172 1530 4172 
L 2406 4172 
C 3398 4172 3514 3778 3603 2933 
L 3718 2933 
L 3565 4339 
L 326 4339 
L 326 4172 
C 768 4172 838 4172 838 3886 
L 838 453 
C 838 166 768 166 326 166 
L 326 0 
L 3654 0 
L 3885 1614 
z
" id="CMR17-45" transform="scale(0.015625)"/>
       <path d="M 979 4416 
L 218 4345 
L 218 4179 
C 595 4179 653 4141 653 3835 
L 653 439 
C 653 198 627 166 218 166 
L 218 0 
C 371 12 653 12 813 12 
C 979 12 1261 12 1414 0 
L 1414 166 
C 1005 166 979 191 979 439 
L 979 4416 
z
" id="CMR17-6c" transform="scale(0.015625)"/>
      </defs>
      <use transform="scale(0.996264)" xlink:href="#CMR17-45"/>
      <use transform="translate(62.586301 0)scale(0.996264)" xlink:href="#CMR17-6e"/>
      <use transform="translate(110.879216 0)scale(0.996264)" xlink:href="#CMR17-74"/>
      <use transform="translate(146.159984 0)scale(0.996264)" xlink:href="#CMR17-61"/>
      <use transform="translate(191.850461 0)scale(0.996264)" xlink:href="#CMR17-6e"/>
      <use transform="translate(242.745831 0)scale(0.996264)" xlink:href="#CMR17-67"/>
      <use transform="translate(288.436308 0)scale(0.996264)" xlink:href="#CMR17-6c"/>
      <use transform="translate(313.307367 0)scale(0.996264)" xlink:href="#CMR17-65"/>
      <use transform="translate(353.793027 0)scale(0.996264)" xlink:href="#CMR17-6d"/>
      <use transform="translate(430.712617 0)scale(0.996264)" xlink:href="#CMR17-65"/>
      <use transform="translate(471.198277 0)scale(0.996264)" xlink:href="#CMR17-6e"/>
      <use transform="translate(519.491193 0)scale(0.996264)" xlink:href="#CMR17-74"/>
     </g>
     <!--  Entropy Density -->
     <g transform="translate(14.44631 181.452109)rotate(-90)scale(0.08 -0.08)">
      <defs>
       <path d="M 2758 1356 
C 2758 2176 2163 2816 1466 2816 
C 768 2816 173 2176 173 1356 
C 173 550 768 -64 1466 -64 
C 2163 -64 2758 550 2758 1356 
z
M 1466 51 
C 1165 51 909 230 762 480 
C 602 768 582 1126 582 1408 
C 582 1676 595 2009 762 2297 
C 890 2508 1139 2713 1466 2713 
C 1754 2713 1997 2553 2150 2329 
C 2349 2028 2349 1606 2349 1408 
C 2349 1158 2336 774 2163 467 
C 1984 172 1709 51 1466 51 
z
" id="CMR17-6f" transform="scale(0.015625)"/>
       <path d="M 1408 -1114 
C 998 -1114 973 -1088 973 -834 
L 973 380 
C 1158 109 1427 -64 1766 -64 
C 2406 -64 3053 503 3053 1382 
C 3053 2196 2496 2816 1837 2816 
C 1453 2816 1139 2603 960 2345 
L 960 2816 
L 198 2745 
L 198 2577 
C 576 2577 634 2539 634 2228 
L 634 -834 
C 634 -1081 608 -1114 198 -1114 
L 198 -1280 
C 352 -1268 634 -1268 800 -1268 
C 966 -1268 1254 -1268 1408 -1280 
L 1408 -1114 
z
M 973 2015 
C 973 2106 973 2241 1222 2481 
C 1254 2506 1472 2700 1792 2700 
C 2259 2700 2643 2112 2643 1376 
C 2643 639 2234 38 1728 38 
C 1498 38 1248 148 1056 451 
C 973 594 973 632 973 736 
L 973 2015 
z
" id="CMR17-70" transform="scale(0.015625)"/>
       <path d="M 2496 2183 
C 2656 2579 2944 2585 3034 2585 
L 3034 2752 
C 2912 2745 2752 2739 2630 2739 
C 2496 2739 2285 2739 2157 2752 
L 2157 2585 
C 2400 2566 2406 2384 2406 2332 
C 2406 2268 2394 2235 2362 2158 
L 1664 409 
L 902 2300 
C 870 2378 870 2423 870 2430 
C 870 2572 1018 2585 1171 2585 
L 1171 2752 
C 1018 2739 742 2739 582 2739 
C 410 2739 205 2739 64 2752 
L 64 2585 
C 410 2585 448 2553 531 2345 
L 1485 -31 
C 1197 -795 1030 -1242 627 -1242 
C 557 -1242 397 -1223 282 -1106 
C 429 -1093 493 -1002 493 -892 
C 493 -782 416 -685 288 -685 
C 147 -685 77 -782 77 -899 
C 77 -1158 339 -1344 627 -1344 
C 998 -1344 1229 -983 1357 -659 
L 2496 2183 
z
" id="CMR17-79" transform="scale(0.015625)"/>
       <path d="M 333 4352 
L 333 4185 
C 774 4185 845 4185 845 3898 
L 845 453 
C 845 166 774 166 333 166 
L 333 0 
L 2368 0 
C 3398 0 4224 943 4224 2140 
C 4224 3344 3411 4352 2368 4352 
L 333 4352 
z
M 1523 166 
C 1267 166 1254 198 1254 414 
L 1254 3936 
C 1254 4153 1267 4185 1523 4185 
L 2240 4185 
C 2771 4185 3750 3873 3750 2140 
C 3750 1242 3488 879 3366 707 
C 3213 510 2848 166 2240 166 
L 1523 166 
z
" id="CMR17-44" transform="scale(0.015625)"/>
       <path d="M 1978 2688 
C 1978 2803 1971 2809 1933 2809 
C 1907 2809 1901 2803 1824 2707 
C 1805 2681 1747 2617 1728 2592 
C 1523 2809 1235 2816 1126 2816 
C 416 2816 160 2444 160 2073 
C 160 1497 813 1363 998 1324 
C 1402 1241 1542 1216 1677 1100 
C 1760 1024 1901 883 1901 652 
C 1901 384 1747 38 1158 38 
C 602 38 403 460 288 1024 
C 269 1113 269 1120 218 1120 
C 166 1120 160 1113 160 985 
L 160 64 
C 160 -52 166 -58 205 -58 
C 237 -58 243 -52 275 0 
C 314 57 410 211 448 275 
C 576 102 800 -64 1158 -64 
C 1792 -64 2131 281 2131 780 
C 2131 1107 1958 1280 1875 1356 
C 1683 1555 1459 1600 1190 1651 
C 838 1728 390 1817 390 2208 
C 390 2374 480 2726 1126 2726 
C 1811 2726 1850 2086 1862 1881 
C 1869 1849 1901 1843 1920 1843 
C 1978 1843 1978 1862 1978 1971 
L 1978 2688 
z
" id="CMR17-73" transform="scale(0.015625)"/>
      </defs>
      <use transform="scale(0.996264)" xlink:href="#CMR17-45"/>
      <use transform="translate(62.586301 0)scale(0.996264)" xlink:href="#CMR17-6e"/>
      <use transform="translate(110.879216 0)scale(0.996264)" xlink:href="#CMR17-74"/>
      <use transform="translate(146.159984 0)scale(0.996264)" xlink:href="#CMR17-72"/>
      <use transform="translate(181.440752 0)scale(0.996264)" xlink:href="#CMR17-6f"/>
      <use transform="translate(227.131229 0)scale(0.996264)" xlink:href="#CMR17-70"/>
      <use transform="translate(275.424145 0)scale(0.996264)" xlink:href="#CMR17-79"/>
      <use transform="translate(353.793027 0)scale(0.996264)" xlink:href="#CMR17-44"/>
      <use transform="translate(424.186583 0)scale(0.996264)" xlink:href="#CMR17-65"/>
      <use transform="translate(464.672243 0)scale(0.996264)" xlink:href="#CMR17-6e"/>
      <use transform="translate(515.567613 0)scale(0.996264)" xlink:href="#CMR17-73"/>
      <use transform="translate(551.368951 0)scale(0.996264)" xlink:href="#CMR17-69"/>
      <use transform="translate(576.240009 0)scale(0.996264)" xlink:href="#CMR17-74"/>
      <use transform="translate(608.918323 0)scale(0.996264)" xlink:href="#CMR17-79"/>
     </g>
    </g>
   </g>
   <g id="LineCollection_1">
    <path clip-path="url(#p8a41a90bee)" d="M 221.504169 148.929889 
L 221.504169 147.331488 
" style="fill:none;stroke:#5e4fa2;stroke-width:0.5;"/>
    <path clip-path="url(#p8a41a90bee)" d="M 174.718655 179.378397 
L 174.718655 179.158047 
" style="fill:none;stroke:#5e4fa2;stroke-width:0.5;"/>
    <path clip-path="url(#p8a41a90bee)" d="M 158.447988 186.930014 
L 158.447988 186.812662 
" style="fill:none;stroke:#5e4fa2;stroke-width:0.5;"/>
    <path clip-path="url(#p8a41a90bee)" d="M 136.083248 191.991077 
L 136.083248 191.991077 
" style="fill:none;stroke:#5e4fa2;stroke-width:0.5;"/>
    <path clip-path="url(#p8a41a90bee)" d="M 115.758687 187.243841 
L 115.758687 187.154551 
" style="fill:none;stroke:#5e4fa2;stroke-width:0.5;"/>
    <path clip-path="url(#p8a41a90bee)" d="M 103.157436 180.650431 
L 103.157436 180.505192 
" style="fill:none;stroke:#5e4fa2;stroke-width:0.5;"/>
    <path clip-path="url(#p8a41a90bee)" d="M 46.999006 123.435842 
L 46.999006 123.133872 
" style="fill:none;stroke:#5e4fa2;stroke-width:0.5;"/>
   </g>
   <g id="LineCollection_2">
    <path clip-path="url(#p8a41a90bee)" d="M 221.504169 151.712982 
L 221.504169 150.1104 
" style="fill:none;stroke:#d8434e;stroke-width:0.5;"/>
    <path clip-path="url(#p8a41a90bee)" d="M 174.718655 179.538498 
L 174.718655 179.017078 
" style="fill:none;stroke:#d8434e;stroke-width:0.5;"/>
    <path clip-path="url(#p8a41a90bee)" d="M 158.447988 187.046448 
L 158.447988 186.863424 
" style="fill:none;stroke:#d8434e;stroke-width:0.5;"/>
    <path clip-path="url(#p8a41a90bee)" d="M 136.083248 191.991077 
L 136.083248 191.991077 
" style="fill:none;stroke:#d8434e;stroke-width:0.5;"/>
    <path clip-path="url(#p8a41a90bee)" d="M 115.758687 187.507608 
L 115.758687 187.31938 
" style="fill:none;stroke:#d8434e;stroke-width:0.5;"/>
    <path clip-path="url(#p8a41a90bee)" d="M 103.157436 180.89706 
L 103.157436 180.445978 
" style="fill:none;stroke:#d8434e;stroke-width:0.5;"/>
    <path clip-path="url(#p8a41a90bee)" d="M 46.999006 122.842159 
L 46.999006 120.686778 
" style="fill:none;stroke:#d8434e;stroke-width:0.5;"/>
   </g>
   <g id="line2d_29">
    <defs>
     <path d="M 0 1.5 
C 0.397805 1.5 0.77937 1.341951 1.06066 1.06066 
C 1.341951 0.77937 1.5 0.397805 1.5 0 
C 1.5 -0.397805 1.341951 -0.77937 1.06066 -1.06066 
C 0.77937 -1.341951 0.397805 -1.5 0 -1.5 
C -0.397805 -1.5 -0.77937 -1.341951 -1.06066 -1.06066 
C -1.341951 -0.77937 -1.5 -0.397805 -1.5 0 
C -1.5 0.397805 -1.341951 0.77937 -1.06066 1.06066 
C -0.77937 1.341951 -0.397805 1.5 0 1.5 
z
" id="m59b34b9118" style="stroke:#5e4fa2;stroke-width:0.5;"/>
    </defs>
    <g clip-path="url(#p8a41a90bee)">
     <use style="fill:#aea6d0;fill-opacity:0.501961;stroke:#5e4fa2;stroke-width:0.5;" x="221.504169" xlink:href="#m59b34b9118" y="148.130689"/>
     <use style="fill:#aea6d0;fill-opacity:0.501961;stroke:#5e4fa2;stroke-width:0.5;" x="174.718655" xlink:href="#m59b34b9118" y="179.268222"/>
     <use style="fill:#aea6d0;fill-opacity:0.501961;stroke:#5e4fa2;stroke-width:0.5;" x="158.447988" xlink:href="#m59b34b9118" y="186.871338"/>
     <use style="fill:#aea6d0;fill-opacity:0.501961;stroke:#5e4fa2;stroke-width:0.5;" x="136.083248" xlink:href="#m59b34b9118" y="191.991077"/>
     <use style="fill:#aea6d0;fill-opacity:0.501961;stroke:#5e4fa2;stroke-width:0.5;" x="115.758687" xlink:href="#m59b34b9118" y="187.199196"/>
     <use style="fill:#aea6d0;fill-opacity:0.501961;stroke:#5e4fa2;stroke-width:0.5;" x="103.157436" xlink:href="#m59b34b9118" y="180.577811"/>
     <use style="fill:#aea6d0;fill-opacity:0.501961;stroke:#5e4fa2;stroke-width:0.5;" x="46.999006" xlink:href="#m59b34b9118" y="123.284857"/>
    </g>
   </g>
   <g id="line2d_30">
    <defs>
     <path d="M 0 1.5 
C 0.397805 1.5 0.77937 1.341951 1.06066 1.06066 
C 1.341951 0.77937 1.5 0.397805 1.5 0 
C 1.5 -0.397805 1.341951 -0.77937 1.06066 -1.06066 
C 0.77937 -1.341951 0.397805 -1.5 0 -1.5 
C -0.397805 -1.5 -0.77937 -1.341951 -1.06066 -1.06066 
C -1.341951 -0.77937 -1.5 -0.397805 -1.5 0 
C -1.5 0.397805 -1.341951 0.77937 -1.06066 1.06066 
C -0.77937 1.341951 -0.397805 1.5 0 1.5 
z
" id="mafd7a449fb" style="stroke:#d8434e;stroke-width:0.5;"/>
    </defs>
    <g clip-path="url(#p8a41a90bee)">
     <use style="fill:#eba0a6;fill-opacity:0.501961;stroke:#d8434e;stroke-width:0.5;" x="221.504169" xlink:href="#mafd7a449fb" y="150.911691"/>
     <use style="fill:#eba0a6;fill-opacity:0.501961;stroke:#d8434e;stroke-width:0.5;" x="174.718655" xlink:href="#mafd7a449fb" y="179.277788"/>
     <use style="fill:#eba0a6;fill-opacity:0.501961;stroke:#d8434e;stroke-width:0.5;" x="158.447988" xlink:href="#mafd7a449fb" y="186.954936"/>
     <use style="fill:#eba0a6;fill-opacity:0.501961;stroke:#d8434e;stroke-width:0.5;" x="136.083248" xlink:href="#mafd7a449fb" y="191.991077"/>
     <use style="fill:#eba0a6;fill-opacity:0.501961;stroke:#d8434e;stroke-width:0.5;" x="115.758687" xlink:href="#mafd7a449fb" y="187.413494"/>
     <use style="fill:#eba0a6;fill-opacity:0.501961;stroke:#d8434e;stroke-width:0.5;" x="103.157436" xlink:href="#mafd7a449fb" y="180.671519"/>
     <use style="fill:#eba0a6;fill-opacity:0.501961;stroke:#d8434e;stroke-width:0.5;" x="46.999006" xlink:href="#mafd7a449fb" y="121.764468"/>
    </g>
   </g>
   <g id="patch_8">
    <path d="M 38.050928 191.991077 
L 38.050928 109.942288 
" style="fill:none;stroke:#000000;stroke-linecap:square;stroke-linejoin:miter;stroke-width:0.35;"/>
   </g>
   <g id="patch_9">
    <path d="M 234.115568 191.991077 
L 234.115568 109.942288 
" style="fill:none;stroke:#000000;stroke-linecap:square;stroke-linejoin:miter;stroke-width:0.35;"/>
   </g>
   <g id="patch_10">
    <path d="M 38.050928 191.991077 
L 234.115568 191.991077 
" style="fill:none;stroke:#000000;stroke-linecap:square;stroke-linejoin:miter;stroke-width:0.35;"/>
   </g>
   <g id="patch_11">
    <path d="M 38.050928 109.942288 
L 234.115568 109.942288 
" style="fill:none;stroke:#000000;stroke-linecap:square;stroke-linejoin:miter;stroke-width:0.35;"/>
   </g>
   <g id="legend_2">
    <g id="patch_12">
     <path d="M 100.07032 121.353542 
L 105.67032 121.353542 
L 105.67032 115.753542 
L 100.07032 115.753542 
z
" style="fill:#9fa2b2;opacity:0.4;stroke:#9fa2b2;stroke-linejoin:miter;"/>
    </g>
    <g id="text_30">
     <!-- diagonal ensemble -->
     <g transform="translate(108.87032 121.353542)scale(0.08 -0.08)">
      <defs>
       <path d="M 1869 4345 
L 1869 4179 
C 2246 4179 2304 4141 2304 3843 
L 2304 2371 
C 2278 2403 2016 2816 1498 2816 
C 845 2816 211 2228 211 1376 
C 211 529 806 -64 1434 -64 
C 1978 -64 2259 361 2291 406 
L 2291 -64 
L 3066 -13 
L 3066 154 
C 2688 154 2630 193 2630 503 
L 2630 4416 
L 1869 4345 
z
M 2291 762 
C 2291 568 2176 393 2029 264 
C 1811 70 1594 38 1472 38 
C 1286 38 621 135 621 1369 
C 621 2636 1363 2713 1530 2713 
C 1824 2713 2061 2545 2208 2313 
C 2291 2177 2291 2157 2291 2041 
L 2291 762 
z
" id="CMR17-64" transform="scale(0.015625)"/>
       <path d="M 960 4416 
L 198 4345 
L 198 4179 
C 576 4179 634 4141 634 3843 
L 634 -13 
L 749 -13 
L 934 445 
C 1120 141 1395 -64 1766 -64 
C 2406 -64 3053 503 3053 1382 
C 3053 2209 2477 2816 1830 2816 
C 1434 2816 1152 2603 960 2351 
L 960 4416 
z
M 973 2022 
C 973 2138 973 2157 1062 2293 
C 1312 2681 1670 2713 1792 2713 
C 1984 2713 2643 2610 2643 1388 
C 2643 109 1888 38 1734 38 
C 1536 38 1248 115 1043 490 
C 973 613 973 626 973 742 
L 973 2022 
z
" id="CMR17-62" transform="scale(0.015625)"/>
      </defs>
      <use transform="scale(0.996264)" xlink:href="#CMR17-64"/>
      <use transform="translate(50.89537 0)scale(0.996264)" xlink:href="#CMR17-69"/>
      <use transform="translate(75.766428 0)scale(0.996264)" xlink:href="#CMR17-61"/>
      <use transform="translate(121.456905 0)scale(0.996264)" xlink:href="#CMR17-67"/>
      <use transform="translate(167.147382 0)scale(0.996264)" xlink:href="#CMR17-6f"/>
      <use transform="translate(212.83786 0)scale(0.996264)" xlink:href="#CMR17-6e"/>
      <use transform="translate(263.733229 0)scale(0.996264)" xlink:href="#CMR17-61"/>
      <use transform="translate(309.423707 0)scale(0.996264)" xlink:href="#CMR17-6c"/>
      <use transform="translate(364.370731 0)scale(0.996264)" xlink:href="#CMR17-65"/>
      <use transform="translate(404.856392 0)scale(0.996264)" xlink:href="#CMR17-6e"/>
      <use transform="translate(455.751762 0)scale(0.996264)" xlink:href="#CMR17-73"/>
      <use transform="translate(491.553099 0)scale(0.996264)" xlink:href="#CMR17-65"/>
      <use transform="translate(532.03876 0)scale(0.996264)" xlink:href="#CMR17-6d"/>
      <use transform="translate(606.355896 0)scale(0.996264)" xlink:href="#CMR17-62"/>
      <use transform="translate(657.251265 0)scale(0.996264)" xlink:href="#CMR17-6c"/>
      <use transform="translate(682.122324 0)scale(0.996264)" xlink:href="#CMR17-65"/>
     </g>
    </g>
    <g id="LineCollection_3">
     <path d="M 102.87032 131.703288 
L 102.87032 123.703288 
" style="fill:none;stroke:#5e4fa2;stroke-width:0.5;"/>
    </g>
    <g id="line2d_31"/>
    <g id="line2d_32">
     <g>
      <use style="fill:#aea6d0;fill-opacity:0.501961;stroke:#5e4fa2;stroke-width:0.5;" x="102.87032" xlink:href="#m59b34b9118" y="127.703288"/>
     </g>
    </g>
    <g id="text_31">
     <!-- particle -->
     <g transform="translate(108.87032 130.503288)scale(0.08 -0.08)">
      <defs>
       <path d="M 2234 2240 
C 2112 2240 1933 2240 1933 2015 
C 1933 1836 2080 1785 2163 1785 
C 2208 1785 2394 1804 2394 2028 
C 2394 2476 1958 2816 1466 2816 
C 787 2816 211 2201 211 1379 
C 211 521 813 -64 1466 -64 
C 2259 -64 2458 676 2458 747 
C 2458 773 2451 792 2406 792 
C 2362 792 2355 786 2330 702 
C 2163 180 1798 51 1523 51 
C 1114 51 621 431 621 1385 
C 621 2358 1094 2700 1472 2700 
C 1722 2700 2093 2582 2234 2240 
z
" id="CMR17-63" transform="scale(0.015625)"/>
      </defs>
      <use transform="scale(0.996264)" xlink:href="#CMR17-70"/>
      <use transform="translate(50.89537 0)scale(0.996264)" xlink:href="#CMR17-61"/>
      <use transform="translate(96.585847 0)scale(0.996264)" xlink:href="#CMR17-72"/>
      <use transform="translate(131.866615 0)scale(0.996264)" xlink:href="#CMR17-74"/>
      <use transform="translate(167.147382 0)scale(0.996264)" xlink:href="#CMR17-69"/>
      <use transform="translate(192.018441 0)scale(0.996264)" xlink:href="#CMR17-63"/>
      <use transform="translate(232.504101 0)scale(0.996264)" xlink:href="#CMR17-6c"/>
      <use transform="translate(257.37516 0)scale(0.996264)" xlink:href="#CMR17-65"/>
     </g>
    </g>
    <g id="LineCollection_4">
     <path d="M 102.87032 140.853033 
L 102.87032 132.853033 
" style="fill:none;stroke:#d8434e;stroke-width:0.5;"/>
    </g>
    <g id="line2d_33"/>
    <g id="line2d_34">
     <g>
      <use style="fill:#eba0a6;fill-opacity:0.501961;stroke:#d8434e;stroke-width:0.5;" x="102.87032" xlink:href="#mafd7a449fb" y="136.853033"/>
     </g>
    </g>
    <g id="text_32">
     <!-- spatial -->
     <g transform="translate(108.87032 139.653033)scale(0.08 -0.08)">
      <use transform="scale(0.996264)" xlink:href="#CMR17-73"/>
      <use transform="translate(35.801338 0)scale(0.996264)" xlink:href="#CMR17-70"/>
      <use transform="translate(86.696707 0)scale(0.996264)" xlink:href="#CMR17-61"/>
      <use transform="translate(132.387185 0)scale(0.996264)" xlink:href="#CMR17-74"/>
      <use transform="translate(167.667952 0)scale(0.996264)" xlink:href="#CMR17-69"/>
      <use transform="translate(192.539011 0)scale(0.996264)" xlink:href="#CMR17-61"/>
      <use transform="translate(238.229488 0)scale(0.996264)" xlink:href="#CMR17-6c"/>
     </g>
    </g>
   </g>
  </g>
 </g>
 <defs>
  <clipPath id="p2e37f4218b">
   <rect height="82.04879" width="196.06464" x="38.050928" y="3.278861"/>
  </clipPath>
  <clipPath id="p8a41a90bee">
   <rect height="82.04879" width="196.06464" x="38.050928" y="109.942288"/>
  </clipPath>
 </defs>
</svg>
